%TF.GenerationSoftware,KiCad,Pcbnew,9.0.8-9.0.8~ubuntu24.04.1*%
%TF.CreationDate,2026-06-29T14:41:35-04:00*%
%TF.ProjectId,ring,72696e67-2e6b-4696-9361-645f70636258,rev?*%
%TF.SameCoordinates,Original*%
%TF.FileFunction,AssemblyDrawing,Top*%
%FSLAX46Y46*%
G04 Gerber Fmt 4.6, Leading zero omitted, Abs format (unit mm)*
G04 Created by KiCad (PCBNEW 9.0.8-9.0.8~ubuntu24.04.1) date 2026-06-29 14:41:35*
%MOMM*%
%LPD*%
G01*
G04 APERTURE LIST*
%ADD10C,0.150000*%
%ADD11C,0.040000*%
%ADD12C,0.120000*%
%ADD13C,0.100000*%
%ADD14C,0.050000*%
G04 APERTURE END LIST*
D10*
X26883333Y-8219580D02*
X26835714Y-8267200D01*
X26835714Y-8267200D02*
X26692857Y-8314819D01*
X26692857Y-8314819D02*
X26597619Y-8314819D01*
X26597619Y-8314819D02*
X26454762Y-8267200D01*
X26454762Y-8267200D02*
X26359524Y-8171961D01*
X26359524Y-8171961D02*
X26311905Y-8076723D01*
X26311905Y-8076723D02*
X26264286Y-7886247D01*
X26264286Y-7886247D02*
X26264286Y-7743390D01*
X26264286Y-7743390D02*
X26311905Y-7552914D01*
X26311905Y-7552914D02*
X26359524Y-7457676D01*
X26359524Y-7457676D02*
X26454762Y-7362438D01*
X26454762Y-7362438D02*
X26597619Y-7314819D01*
X26597619Y-7314819D02*
X26692857Y-7314819D01*
X26692857Y-7314819D02*
X26835714Y-7362438D01*
X26835714Y-7362438D02*
X26883333Y-7410057D01*
X27216667Y-7314819D02*
X27883333Y-7314819D01*
X27883333Y-7314819D02*
X27454762Y-8314819D01*
D11*
X27008333Y-6789765D02*
X26996429Y-6801670D01*
X26996429Y-6801670D02*
X26960714Y-6813574D01*
X26960714Y-6813574D02*
X26936905Y-6813574D01*
X26936905Y-6813574D02*
X26901191Y-6801670D01*
X26901191Y-6801670D02*
X26877381Y-6777860D01*
X26877381Y-6777860D02*
X26865476Y-6754050D01*
X26865476Y-6754050D02*
X26853572Y-6706431D01*
X26853572Y-6706431D02*
X26853572Y-6670717D01*
X26853572Y-6670717D02*
X26865476Y-6623098D01*
X26865476Y-6623098D02*
X26877381Y-6599289D01*
X26877381Y-6599289D02*
X26901191Y-6575479D01*
X26901191Y-6575479D02*
X26936905Y-6563574D01*
X26936905Y-6563574D02*
X26960714Y-6563574D01*
X26960714Y-6563574D02*
X26996429Y-6575479D01*
X26996429Y-6575479D02*
X27008333Y-6587384D01*
X27091667Y-6563574D02*
X27258333Y-6563574D01*
X27258333Y-6563574D02*
X27151191Y-6813574D01*
D12*
X27783332Y-8275760D02*
X27897618Y-8313855D01*
X27897618Y-8313855D02*
X28088094Y-8313855D01*
X28088094Y-8313855D02*
X28164285Y-8275760D01*
X28164285Y-8275760D02*
X28202380Y-8237664D01*
X28202380Y-8237664D02*
X28240475Y-8161474D01*
X28240475Y-8161474D02*
X28240475Y-8085283D01*
X28240475Y-8085283D02*
X28202380Y-8009093D01*
X28202380Y-8009093D02*
X28164285Y-7970998D01*
X28164285Y-7970998D02*
X28088094Y-7932902D01*
X28088094Y-7932902D02*
X27935713Y-7894807D01*
X27935713Y-7894807D02*
X27859523Y-7856712D01*
X27859523Y-7856712D02*
X27821428Y-7818617D01*
X27821428Y-7818617D02*
X27783332Y-7742426D01*
X27783332Y-7742426D02*
X27783332Y-7666236D01*
X27783332Y-7666236D02*
X27821428Y-7590045D01*
X27821428Y-7590045D02*
X27859523Y-7551950D01*
X27859523Y-7551950D02*
X27935713Y-7513855D01*
X27935713Y-7513855D02*
X28126190Y-7513855D01*
X28126190Y-7513855D02*
X28240475Y-7551950D01*
X28507142Y-7513855D02*
X28697618Y-8313855D01*
X28697618Y-8313855D02*
X28849999Y-7742426D01*
X28849999Y-7742426D02*
X29002380Y-8313855D01*
X29002380Y-8313855D02*
X29192857Y-7513855D01*
X29497619Y-8313855D02*
X29497619Y-7513855D01*
X29497619Y-7513855D02*
X29688095Y-7513855D01*
X29688095Y-7513855D02*
X29802381Y-7551950D01*
X29802381Y-7551950D02*
X29878571Y-7628140D01*
X29878571Y-7628140D02*
X29916666Y-7704331D01*
X29916666Y-7704331D02*
X29954762Y-7856712D01*
X29954762Y-7856712D02*
X29954762Y-7970998D01*
X29954762Y-7970998D02*
X29916666Y-8123379D01*
X29916666Y-8123379D02*
X29878571Y-8199569D01*
X29878571Y-8199569D02*
X29802381Y-8275760D01*
X29802381Y-8275760D02*
X29688095Y-8313855D01*
X29688095Y-8313855D02*
X29497619Y-8313855D01*
X30259523Y-7590045D02*
X30297619Y-7551950D01*
X30297619Y-7551950D02*
X30373809Y-7513855D01*
X30373809Y-7513855D02*
X30564285Y-7513855D01*
X30564285Y-7513855D02*
X30640476Y-7551950D01*
X30640476Y-7551950D02*
X30678571Y-7590045D01*
X30678571Y-7590045D02*
X30716666Y-7666236D01*
X30716666Y-7666236D02*
X30716666Y-7742426D01*
X30716666Y-7742426D02*
X30678571Y-7856712D01*
X30678571Y-7856712D02*
X30221428Y-8313855D01*
X30221428Y-8313855D02*
X30716666Y-8313855D01*
X27783332Y-9275760D02*
X27897618Y-9313855D01*
X27897618Y-9313855D02*
X28088094Y-9313855D01*
X28088094Y-9313855D02*
X28164285Y-9275760D01*
X28164285Y-9275760D02*
X28202380Y-9237664D01*
X28202380Y-9237664D02*
X28240475Y-9161474D01*
X28240475Y-9161474D02*
X28240475Y-9085283D01*
X28240475Y-9085283D02*
X28202380Y-9009093D01*
X28202380Y-9009093D02*
X28164285Y-8970998D01*
X28164285Y-8970998D02*
X28088094Y-8932902D01*
X28088094Y-8932902D02*
X27935713Y-8894807D01*
X27935713Y-8894807D02*
X27859523Y-8856712D01*
X27859523Y-8856712D02*
X27821428Y-8818617D01*
X27821428Y-8818617D02*
X27783332Y-8742426D01*
X27783332Y-8742426D02*
X27783332Y-8666236D01*
X27783332Y-8666236D02*
X27821428Y-8590045D01*
X27821428Y-8590045D02*
X27859523Y-8551950D01*
X27859523Y-8551950D02*
X27935713Y-8513855D01*
X27935713Y-8513855D02*
X28126190Y-8513855D01*
X28126190Y-8513855D02*
X28240475Y-8551950D01*
X28507142Y-8513855D02*
X28697618Y-9313855D01*
X28697618Y-9313855D02*
X28849999Y-8742426D01*
X28849999Y-8742426D02*
X29002380Y-9313855D01*
X29002380Y-9313855D02*
X29192857Y-8513855D01*
X29497619Y-9313855D02*
X29497619Y-8513855D01*
X29497619Y-8513855D02*
X29688095Y-8513855D01*
X29688095Y-8513855D02*
X29802381Y-8551950D01*
X29802381Y-8551950D02*
X29878571Y-8628140D01*
X29878571Y-8628140D02*
X29916666Y-8704331D01*
X29916666Y-8704331D02*
X29954762Y-8856712D01*
X29954762Y-8856712D02*
X29954762Y-8970998D01*
X29954762Y-8970998D02*
X29916666Y-9123379D01*
X29916666Y-9123379D02*
X29878571Y-9199569D01*
X29878571Y-9199569D02*
X29802381Y-9275760D01*
X29802381Y-9275760D02*
X29688095Y-9313855D01*
X29688095Y-9313855D02*
X29497619Y-9313855D01*
X30259523Y-8590045D02*
X30297619Y-8551950D01*
X30297619Y-8551950D02*
X30373809Y-8513855D01*
X30373809Y-8513855D02*
X30564285Y-8513855D01*
X30564285Y-8513855D02*
X30640476Y-8551950D01*
X30640476Y-8551950D02*
X30678571Y-8590045D01*
X30678571Y-8590045D02*
X30716666Y-8666236D01*
X30716666Y-8666236D02*
X30716666Y-8742426D01*
X30716666Y-8742426D02*
X30678571Y-8856712D01*
X30678571Y-8856712D02*
X30221428Y-9313855D01*
X30221428Y-9313855D02*
X30716666Y-9313855D01*
X35116667Y-1816655D02*
X34850000Y-1435702D01*
X34659524Y-1816655D02*
X34659524Y-1016655D01*
X34659524Y-1016655D02*
X34964286Y-1016655D01*
X34964286Y-1016655D02*
X35040476Y-1054750D01*
X35040476Y-1054750D02*
X35078571Y-1092845D01*
X35078571Y-1092845D02*
X35116667Y-1169036D01*
X35116667Y-1169036D02*
X35116667Y-1283321D01*
X35116667Y-1283321D02*
X35078571Y-1359512D01*
X35078571Y-1359512D02*
X35040476Y-1397607D01*
X35040476Y-1397607D02*
X34964286Y-1435702D01*
X34964286Y-1435702D02*
X34659524Y-1435702D01*
X35383333Y-1016655D02*
X35878571Y-1016655D01*
X35878571Y-1016655D02*
X35611905Y-1321417D01*
X35611905Y-1321417D02*
X35726190Y-1321417D01*
X35726190Y-1321417D02*
X35802381Y-1359512D01*
X35802381Y-1359512D02*
X35840476Y-1397607D01*
X35840476Y-1397607D02*
X35878571Y-1473798D01*
X35878571Y-1473798D02*
X35878571Y-1664274D01*
X35878571Y-1664274D02*
X35840476Y-1740464D01*
X35840476Y-1740464D02*
X35802381Y-1778560D01*
X35802381Y-1778560D02*
X35726190Y-1816655D01*
X35726190Y-1816655D02*
X35497619Y-1816655D01*
X35497619Y-1816655D02*
X35421428Y-1778560D01*
X35421428Y-1778560D02*
X35383333Y-1740464D01*
X35126190Y-1092845D02*
X35164286Y-1054750D01*
X35164286Y-1054750D02*
X35240476Y-1016655D01*
X35240476Y-1016655D02*
X35430952Y-1016655D01*
X35430952Y-1016655D02*
X35507143Y-1054750D01*
X35507143Y-1054750D02*
X35545238Y-1092845D01*
X35545238Y-1092845D02*
X35583333Y-1169036D01*
X35583333Y-1169036D02*
X35583333Y-1245226D01*
X35583333Y-1245226D02*
X35545238Y-1359512D01*
X35545238Y-1359512D02*
X35088095Y-1816655D01*
X35088095Y-1816655D02*
X35583333Y-1816655D01*
X35926191Y-1740464D02*
X35964286Y-1778560D01*
X35964286Y-1778560D02*
X35926191Y-1816655D01*
X35926191Y-1816655D02*
X35888095Y-1778560D01*
X35888095Y-1778560D02*
X35926191Y-1740464D01*
X35926191Y-1740464D02*
X35926191Y-1816655D01*
X36269047Y-1092845D02*
X36307143Y-1054750D01*
X36307143Y-1054750D02*
X36383333Y-1016655D01*
X36383333Y-1016655D02*
X36573809Y-1016655D01*
X36573809Y-1016655D02*
X36650000Y-1054750D01*
X36650000Y-1054750D02*
X36688095Y-1092845D01*
X36688095Y-1092845D02*
X36726190Y-1169036D01*
X36726190Y-1169036D02*
X36726190Y-1245226D01*
X36726190Y-1245226D02*
X36688095Y-1359512D01*
X36688095Y-1359512D02*
X36230952Y-1816655D01*
X36230952Y-1816655D02*
X36726190Y-1816655D01*
X37069048Y-1816655D02*
X37069048Y-1016655D01*
X37145238Y-1511893D02*
X37373810Y-1816655D01*
X37373810Y-1283321D02*
X37069048Y-1588083D01*
X9399998Y-563855D02*
X9933332Y-563855D01*
X9933332Y-563855D02*
X9590474Y-1363855D01*
X10390475Y-563855D02*
X10466665Y-563855D01*
X10466665Y-563855D02*
X10542856Y-601950D01*
X10542856Y-601950D02*
X10580951Y-640045D01*
X10580951Y-640045D02*
X10619046Y-716236D01*
X10619046Y-716236D02*
X10657141Y-868617D01*
X10657141Y-868617D02*
X10657141Y-1059093D01*
X10657141Y-1059093D02*
X10619046Y-1211474D01*
X10619046Y-1211474D02*
X10580951Y-1287664D01*
X10580951Y-1287664D02*
X10542856Y-1325760D01*
X10542856Y-1325760D02*
X10466665Y-1363855D01*
X10466665Y-1363855D02*
X10390475Y-1363855D01*
X10390475Y-1363855D02*
X10314284Y-1325760D01*
X10314284Y-1325760D02*
X10276189Y-1287664D01*
X10276189Y-1287664D02*
X10238094Y-1211474D01*
X10238094Y-1211474D02*
X10199998Y-1059093D01*
X10199998Y-1059093D02*
X10199998Y-868617D01*
X10199998Y-868617D02*
X10238094Y-716236D01*
X10238094Y-716236D02*
X10276189Y-640045D01*
X10276189Y-640045D02*
X10314284Y-601950D01*
X10314284Y-601950D02*
X10390475Y-563855D01*
X11038094Y-1363855D02*
X11190475Y-1363855D01*
X11190475Y-1363855D02*
X11266665Y-1325760D01*
X11266665Y-1325760D02*
X11304761Y-1287664D01*
X11304761Y-1287664D02*
X11380951Y-1173379D01*
X11380951Y-1173379D02*
X11419046Y-1020998D01*
X11419046Y-1020998D02*
X11419046Y-716236D01*
X11419046Y-716236D02*
X11380951Y-640045D01*
X11380951Y-640045D02*
X11342856Y-601950D01*
X11342856Y-601950D02*
X11266665Y-563855D01*
X11266665Y-563855D02*
X11114284Y-563855D01*
X11114284Y-563855D02*
X11038094Y-601950D01*
X11038094Y-601950D02*
X10999999Y-640045D01*
X10999999Y-640045D02*
X10961903Y-716236D01*
X10961903Y-716236D02*
X10961903Y-906712D01*
X10961903Y-906712D02*
X10999999Y-982902D01*
X10999999Y-982902D02*
X11038094Y-1020998D01*
X11038094Y-1020998D02*
X11114284Y-1059093D01*
X11114284Y-1059093D02*
X11266665Y-1059093D01*
X11266665Y-1059093D02*
X11342856Y-1020998D01*
X11342856Y-1020998D02*
X11380951Y-982902D01*
X11380951Y-982902D02*
X11419046Y-906712D01*
X12180951Y-1363855D02*
X11723808Y-1363855D01*
X11952380Y-1363855D02*
X11952380Y-563855D01*
X11952380Y-563855D02*
X11876189Y-678140D01*
X11876189Y-678140D02*
X11799999Y-754331D01*
X11799999Y-754331D02*
X11723808Y-792426D01*
X12904761Y-563855D02*
X12523809Y-563855D01*
X12523809Y-563855D02*
X12485713Y-944807D01*
X12485713Y-944807D02*
X12523809Y-906712D01*
X12523809Y-906712D02*
X12599999Y-868617D01*
X12599999Y-868617D02*
X12790475Y-868617D01*
X12790475Y-868617D02*
X12866666Y-906712D01*
X12866666Y-906712D02*
X12904761Y-944807D01*
X12904761Y-944807D02*
X12942856Y-1020998D01*
X12942856Y-1020998D02*
X12942856Y-1211474D01*
X12942856Y-1211474D02*
X12904761Y-1287664D01*
X12904761Y-1287664D02*
X12866666Y-1325760D01*
X12866666Y-1325760D02*
X12790475Y-1363855D01*
X12790475Y-1363855D02*
X12599999Y-1363855D01*
X12599999Y-1363855D02*
X12523809Y-1325760D01*
X12523809Y-1325760D02*
X12485713Y-1287664D01*
X13666666Y-563855D02*
X13285714Y-563855D01*
X13285714Y-563855D02*
X13247618Y-944807D01*
X13247618Y-944807D02*
X13285714Y-906712D01*
X13285714Y-906712D02*
X13361904Y-868617D01*
X13361904Y-868617D02*
X13552380Y-868617D01*
X13552380Y-868617D02*
X13628571Y-906712D01*
X13628571Y-906712D02*
X13666666Y-944807D01*
X13666666Y-944807D02*
X13704761Y-1020998D01*
X13704761Y-1020998D02*
X13704761Y-1211474D01*
X13704761Y-1211474D02*
X13666666Y-1287664D01*
X13666666Y-1287664D02*
X13628571Y-1325760D01*
X13628571Y-1325760D02*
X13552380Y-1363855D01*
X13552380Y-1363855D02*
X13361904Y-1363855D01*
X13361904Y-1363855D02*
X13285714Y-1325760D01*
X13285714Y-1325760D02*
X13247618Y-1287664D01*
X14200000Y-563855D02*
X14276190Y-563855D01*
X14276190Y-563855D02*
X14352381Y-601950D01*
X14352381Y-601950D02*
X14390476Y-640045D01*
X14390476Y-640045D02*
X14428571Y-716236D01*
X14428571Y-716236D02*
X14466666Y-868617D01*
X14466666Y-868617D02*
X14466666Y-1059093D01*
X14466666Y-1059093D02*
X14428571Y-1211474D01*
X14428571Y-1211474D02*
X14390476Y-1287664D01*
X14390476Y-1287664D02*
X14352381Y-1325760D01*
X14352381Y-1325760D02*
X14276190Y-1363855D01*
X14276190Y-1363855D02*
X14200000Y-1363855D01*
X14200000Y-1363855D02*
X14123809Y-1325760D01*
X14123809Y-1325760D02*
X14085714Y-1287664D01*
X14085714Y-1287664D02*
X14047619Y-1211474D01*
X14047619Y-1211474D02*
X14009523Y-1059093D01*
X14009523Y-1059093D02*
X14009523Y-868617D01*
X14009523Y-868617D02*
X14047619Y-716236D01*
X14047619Y-716236D02*
X14085714Y-640045D01*
X14085714Y-640045D02*
X14123809Y-601950D01*
X14123809Y-601950D02*
X14200000Y-563855D01*
X14961905Y-563855D02*
X15038095Y-563855D01*
X15038095Y-563855D02*
X15114286Y-601950D01*
X15114286Y-601950D02*
X15152381Y-640045D01*
X15152381Y-640045D02*
X15190476Y-716236D01*
X15190476Y-716236D02*
X15228571Y-868617D01*
X15228571Y-868617D02*
X15228571Y-1059093D01*
X15228571Y-1059093D02*
X15190476Y-1211474D01*
X15190476Y-1211474D02*
X15152381Y-1287664D01*
X15152381Y-1287664D02*
X15114286Y-1325760D01*
X15114286Y-1325760D02*
X15038095Y-1363855D01*
X15038095Y-1363855D02*
X14961905Y-1363855D01*
X14961905Y-1363855D02*
X14885714Y-1325760D01*
X14885714Y-1325760D02*
X14847619Y-1287664D01*
X14847619Y-1287664D02*
X14809524Y-1211474D01*
X14809524Y-1211474D02*
X14771428Y-1059093D01*
X14771428Y-1059093D02*
X14771428Y-868617D01*
X14771428Y-868617D02*
X14809524Y-716236D01*
X14809524Y-716236D02*
X14847619Y-640045D01*
X14847619Y-640045D02*
X14885714Y-601950D01*
X14885714Y-601950D02*
X14961905Y-563855D01*
X15990476Y-1363855D02*
X15533333Y-1363855D01*
X15761905Y-1363855D02*
X15761905Y-563855D01*
X15761905Y-563855D02*
X15685714Y-678140D01*
X15685714Y-678140D02*
X15609524Y-754331D01*
X15609524Y-754331D02*
X15533333Y-792426D01*
X16676191Y-563855D02*
X16523810Y-563855D01*
X16523810Y-563855D02*
X16447619Y-601950D01*
X16447619Y-601950D02*
X16409524Y-640045D01*
X16409524Y-640045D02*
X16333334Y-754331D01*
X16333334Y-754331D02*
X16295238Y-906712D01*
X16295238Y-906712D02*
X16295238Y-1211474D01*
X16295238Y-1211474D02*
X16333334Y-1287664D01*
X16333334Y-1287664D02*
X16371429Y-1325760D01*
X16371429Y-1325760D02*
X16447619Y-1363855D01*
X16447619Y-1363855D02*
X16600000Y-1363855D01*
X16600000Y-1363855D02*
X16676191Y-1325760D01*
X16676191Y-1325760D02*
X16714286Y-1287664D01*
X16714286Y-1287664D02*
X16752381Y-1211474D01*
X16752381Y-1211474D02*
X16752381Y-1020998D01*
X16752381Y-1020998D02*
X16714286Y-944807D01*
X16714286Y-944807D02*
X16676191Y-906712D01*
X16676191Y-906712D02*
X16600000Y-868617D01*
X16600000Y-868617D02*
X16447619Y-868617D01*
X16447619Y-868617D02*
X16371429Y-906712D01*
X16371429Y-906712D02*
X16333334Y-944807D01*
X16333334Y-944807D02*
X16295238Y-1020998D01*
X17514286Y-1363855D02*
X17057143Y-1363855D01*
X17285715Y-1363855D02*
X17285715Y-563855D01*
X17285715Y-563855D02*
X17209524Y-678140D01*
X17209524Y-678140D02*
X17133334Y-754331D01*
X17133334Y-754331D02*
X17057143Y-792426D01*
X18009525Y-563855D02*
X18085715Y-563855D01*
X18085715Y-563855D02*
X18161906Y-601950D01*
X18161906Y-601950D02*
X18200001Y-640045D01*
X18200001Y-640045D02*
X18238096Y-716236D01*
X18238096Y-716236D02*
X18276191Y-868617D01*
X18276191Y-868617D02*
X18276191Y-1059093D01*
X18276191Y-1059093D02*
X18238096Y-1211474D01*
X18238096Y-1211474D02*
X18200001Y-1287664D01*
X18200001Y-1287664D02*
X18161906Y-1325760D01*
X18161906Y-1325760D02*
X18085715Y-1363855D01*
X18085715Y-1363855D02*
X18009525Y-1363855D01*
X18009525Y-1363855D02*
X17933334Y-1325760D01*
X17933334Y-1325760D02*
X17895239Y-1287664D01*
X17895239Y-1287664D02*
X17857144Y-1211474D01*
X17857144Y-1211474D02*
X17819048Y-1059093D01*
X17819048Y-1059093D02*
X17819048Y-868617D01*
X17819048Y-868617D02*
X17857144Y-716236D01*
X17857144Y-716236D02*
X17895239Y-640045D01*
X17895239Y-640045D02*
X17933334Y-601950D01*
X17933334Y-601950D02*
X18009525Y-563855D01*
X18771430Y-563855D02*
X18847620Y-563855D01*
X18847620Y-563855D02*
X18923811Y-601950D01*
X18923811Y-601950D02*
X18961906Y-640045D01*
X18961906Y-640045D02*
X19000001Y-716236D01*
X19000001Y-716236D02*
X19038096Y-868617D01*
X19038096Y-868617D02*
X19038096Y-1059093D01*
X19038096Y-1059093D02*
X19000001Y-1211474D01*
X19000001Y-1211474D02*
X18961906Y-1287664D01*
X18961906Y-1287664D02*
X18923811Y-1325760D01*
X18923811Y-1325760D02*
X18847620Y-1363855D01*
X18847620Y-1363855D02*
X18771430Y-1363855D01*
X18771430Y-1363855D02*
X18695239Y-1325760D01*
X18695239Y-1325760D02*
X18657144Y-1287664D01*
X18657144Y-1287664D02*
X18619049Y-1211474D01*
X18619049Y-1211474D02*
X18580953Y-1059093D01*
X18580953Y-1059093D02*
X18580953Y-868617D01*
X18580953Y-868617D02*
X18619049Y-716236D01*
X18619049Y-716236D02*
X18657144Y-640045D01*
X18657144Y-640045D02*
X18695239Y-601950D01*
X18695239Y-601950D02*
X18771430Y-563855D01*
X19533335Y-563855D02*
X19609525Y-563855D01*
X19609525Y-563855D02*
X19685716Y-601950D01*
X19685716Y-601950D02*
X19723811Y-640045D01*
X19723811Y-640045D02*
X19761906Y-716236D01*
X19761906Y-716236D02*
X19800001Y-868617D01*
X19800001Y-868617D02*
X19800001Y-1059093D01*
X19800001Y-1059093D02*
X19761906Y-1211474D01*
X19761906Y-1211474D02*
X19723811Y-1287664D01*
X19723811Y-1287664D02*
X19685716Y-1325760D01*
X19685716Y-1325760D02*
X19609525Y-1363855D01*
X19609525Y-1363855D02*
X19533335Y-1363855D01*
X19533335Y-1363855D02*
X19457144Y-1325760D01*
X19457144Y-1325760D02*
X19419049Y-1287664D01*
X19419049Y-1287664D02*
X19380954Y-1211474D01*
X19380954Y-1211474D02*
X19342858Y-1059093D01*
X19342858Y-1059093D02*
X19342858Y-868617D01*
X19342858Y-868617D02*
X19380954Y-716236D01*
X19380954Y-716236D02*
X19419049Y-640045D01*
X19419049Y-640045D02*
X19457144Y-601950D01*
X19457144Y-601950D02*
X19533335Y-563855D01*
X20485716Y-830521D02*
X20485716Y-1363855D01*
X20295240Y-525760D02*
X20104763Y-1097188D01*
X20104763Y-1097188D02*
X20600002Y-1097188D01*
X25283332Y-9275760D02*
X25397618Y-9313855D01*
X25397618Y-9313855D02*
X25588094Y-9313855D01*
X25588094Y-9313855D02*
X25664285Y-9275760D01*
X25664285Y-9275760D02*
X25702380Y-9237664D01*
X25702380Y-9237664D02*
X25740475Y-9161474D01*
X25740475Y-9161474D02*
X25740475Y-9085283D01*
X25740475Y-9085283D02*
X25702380Y-9009093D01*
X25702380Y-9009093D02*
X25664285Y-8970998D01*
X25664285Y-8970998D02*
X25588094Y-8932902D01*
X25588094Y-8932902D02*
X25435713Y-8894807D01*
X25435713Y-8894807D02*
X25359523Y-8856712D01*
X25359523Y-8856712D02*
X25321428Y-8818617D01*
X25321428Y-8818617D02*
X25283332Y-8742426D01*
X25283332Y-8742426D02*
X25283332Y-8666236D01*
X25283332Y-8666236D02*
X25321428Y-8590045D01*
X25321428Y-8590045D02*
X25359523Y-8551950D01*
X25359523Y-8551950D02*
X25435713Y-8513855D01*
X25435713Y-8513855D02*
X25626190Y-8513855D01*
X25626190Y-8513855D02*
X25740475Y-8551950D01*
X26007142Y-8513855D02*
X26197618Y-9313855D01*
X26197618Y-9313855D02*
X26349999Y-8742426D01*
X26349999Y-8742426D02*
X26502380Y-9313855D01*
X26502380Y-9313855D02*
X26692857Y-8513855D01*
X26997619Y-9313855D02*
X26997619Y-8513855D01*
X26997619Y-8513855D02*
X27188095Y-8513855D01*
X27188095Y-8513855D02*
X27302381Y-8551950D01*
X27302381Y-8551950D02*
X27378571Y-8628140D01*
X27378571Y-8628140D02*
X27416666Y-8704331D01*
X27416666Y-8704331D02*
X27454762Y-8856712D01*
X27454762Y-8856712D02*
X27454762Y-8970998D01*
X27454762Y-8970998D02*
X27416666Y-9123379D01*
X27416666Y-9123379D02*
X27378571Y-9199569D01*
X27378571Y-9199569D02*
X27302381Y-9275760D01*
X27302381Y-9275760D02*
X27188095Y-9313855D01*
X27188095Y-9313855D02*
X26997619Y-9313855D01*
X28216666Y-9313855D02*
X27759523Y-9313855D01*
X27988095Y-9313855D02*
X27988095Y-8513855D01*
X27988095Y-8513855D02*
X27911904Y-8628140D01*
X27911904Y-8628140D02*
X27835714Y-8704331D01*
X27835714Y-8704331D02*
X27759523Y-8742426D01*
X6016667Y-3863855D02*
X5750000Y-3482902D01*
X5559524Y-3863855D02*
X5559524Y-3063855D01*
X5559524Y-3063855D02*
X5864286Y-3063855D01*
X5864286Y-3063855D02*
X5940476Y-3101950D01*
X5940476Y-3101950D02*
X5978571Y-3140045D01*
X5978571Y-3140045D02*
X6016667Y-3216236D01*
X6016667Y-3216236D02*
X6016667Y-3330521D01*
X6016667Y-3330521D02*
X5978571Y-3406712D01*
X5978571Y-3406712D02*
X5940476Y-3444807D01*
X5940476Y-3444807D02*
X5864286Y-3482902D01*
X5864286Y-3482902D02*
X5559524Y-3482902D01*
X6702381Y-3330521D02*
X6702381Y-3863855D01*
X6511905Y-3025760D02*
X6321428Y-3597188D01*
X6321428Y-3597188D02*
X6816667Y-3597188D01*
X5178571Y-4063855D02*
X4797619Y-4063855D01*
X4797619Y-4063855D02*
X4759523Y-4444807D01*
X4759523Y-4444807D02*
X4797619Y-4406712D01*
X4797619Y-4406712D02*
X4873809Y-4368617D01*
X4873809Y-4368617D02*
X5064285Y-4368617D01*
X5064285Y-4368617D02*
X5140476Y-4406712D01*
X5140476Y-4406712D02*
X5178571Y-4444807D01*
X5178571Y-4444807D02*
X5216666Y-4520998D01*
X5216666Y-4520998D02*
X5216666Y-4711474D01*
X5216666Y-4711474D02*
X5178571Y-4787664D01*
X5178571Y-4787664D02*
X5140476Y-4825760D01*
X5140476Y-4825760D02*
X5064285Y-4863855D01*
X5064285Y-4863855D02*
X4873809Y-4863855D01*
X4873809Y-4863855D02*
X4797619Y-4825760D01*
X4797619Y-4825760D02*
X4759523Y-4787664D01*
X5711905Y-4063855D02*
X5788095Y-4063855D01*
X5788095Y-4063855D02*
X5864286Y-4101950D01*
X5864286Y-4101950D02*
X5902381Y-4140045D01*
X5902381Y-4140045D02*
X5940476Y-4216236D01*
X5940476Y-4216236D02*
X5978571Y-4368617D01*
X5978571Y-4368617D02*
X5978571Y-4559093D01*
X5978571Y-4559093D02*
X5940476Y-4711474D01*
X5940476Y-4711474D02*
X5902381Y-4787664D01*
X5902381Y-4787664D02*
X5864286Y-4825760D01*
X5864286Y-4825760D02*
X5788095Y-4863855D01*
X5788095Y-4863855D02*
X5711905Y-4863855D01*
X5711905Y-4863855D02*
X5635714Y-4825760D01*
X5635714Y-4825760D02*
X5597619Y-4787664D01*
X5597619Y-4787664D02*
X5559524Y-4711474D01*
X5559524Y-4711474D02*
X5521428Y-4559093D01*
X5521428Y-4559093D02*
X5521428Y-4368617D01*
X5521428Y-4368617D02*
X5559524Y-4216236D01*
X5559524Y-4216236D02*
X5597619Y-4140045D01*
X5597619Y-4140045D02*
X5635714Y-4101950D01*
X5635714Y-4101950D02*
X5711905Y-4063855D01*
X6473810Y-4063855D02*
X6550000Y-4063855D01*
X6550000Y-4063855D02*
X6626191Y-4101950D01*
X6626191Y-4101950D02*
X6664286Y-4140045D01*
X6664286Y-4140045D02*
X6702381Y-4216236D01*
X6702381Y-4216236D02*
X6740476Y-4368617D01*
X6740476Y-4368617D02*
X6740476Y-4559093D01*
X6740476Y-4559093D02*
X6702381Y-4711474D01*
X6702381Y-4711474D02*
X6664286Y-4787664D01*
X6664286Y-4787664D02*
X6626191Y-4825760D01*
X6626191Y-4825760D02*
X6550000Y-4863855D01*
X6550000Y-4863855D02*
X6473810Y-4863855D01*
X6473810Y-4863855D02*
X6397619Y-4825760D01*
X6397619Y-4825760D02*
X6359524Y-4787664D01*
X6359524Y-4787664D02*
X6321429Y-4711474D01*
X6321429Y-4711474D02*
X6283333Y-4559093D01*
X6283333Y-4559093D02*
X6283333Y-4368617D01*
X6283333Y-4368617D02*
X6321429Y-4216236D01*
X6321429Y-4216236D02*
X6359524Y-4140045D01*
X6359524Y-4140045D02*
X6397619Y-4101950D01*
X6397619Y-4101950D02*
X6473810Y-4063855D01*
X7540477Y-4863855D02*
X7273810Y-4482902D01*
X7083334Y-4863855D02*
X7083334Y-4063855D01*
X7083334Y-4063855D02*
X7388096Y-4063855D01*
X7388096Y-4063855D02*
X7464286Y-4101950D01*
X7464286Y-4101950D02*
X7502381Y-4140045D01*
X7502381Y-4140045D02*
X7540477Y-4216236D01*
X7540477Y-4216236D02*
X7540477Y-4330521D01*
X7540477Y-4330521D02*
X7502381Y-4406712D01*
X7502381Y-4406712D02*
X7464286Y-4444807D01*
X7464286Y-4444807D02*
X7388096Y-4482902D01*
X7388096Y-4482902D02*
X7083334Y-4482902D01*
X26373809Y-4288855D02*
X25916666Y-4288855D01*
X26145238Y-4288855D02*
X26145238Y-3488855D01*
X26145238Y-3488855D02*
X26069047Y-3603140D01*
X26069047Y-3603140D02*
X25992857Y-3679331D01*
X25992857Y-3679331D02*
X25916666Y-3717426D01*
X26869048Y-3488855D02*
X26945238Y-3488855D01*
X26945238Y-3488855D02*
X27021429Y-3526950D01*
X27021429Y-3526950D02*
X27059524Y-3565045D01*
X27059524Y-3565045D02*
X27097619Y-3641236D01*
X27097619Y-3641236D02*
X27135714Y-3793617D01*
X27135714Y-3793617D02*
X27135714Y-3984093D01*
X27135714Y-3984093D02*
X27097619Y-4136474D01*
X27097619Y-4136474D02*
X27059524Y-4212664D01*
X27059524Y-4212664D02*
X27021429Y-4250760D01*
X27021429Y-4250760D02*
X26945238Y-4288855D01*
X26945238Y-4288855D02*
X26869048Y-4288855D01*
X26869048Y-4288855D02*
X26792857Y-4250760D01*
X26792857Y-4250760D02*
X26754762Y-4212664D01*
X26754762Y-4212664D02*
X26716667Y-4136474D01*
X26716667Y-4136474D02*
X26678571Y-3984093D01*
X26678571Y-3984093D02*
X26678571Y-3793617D01*
X26678571Y-3793617D02*
X26716667Y-3641236D01*
X26716667Y-3641236D02*
X26754762Y-3565045D01*
X26754762Y-3565045D02*
X26792857Y-3526950D01*
X26792857Y-3526950D02*
X26869048Y-3488855D01*
X27478572Y-4288855D02*
X27478572Y-3488855D01*
X27554762Y-3984093D02*
X27783334Y-4288855D01*
X27783334Y-3755521D02*
X27478572Y-4060283D01*
X7251904Y-895255D02*
X6794761Y-895255D01*
X7023333Y-895255D02*
X7023333Y-95255D01*
X7023333Y-95255D02*
X6947142Y-209540D01*
X6947142Y-209540D02*
X6870952Y-285731D01*
X6870952Y-285731D02*
X6794761Y-323826D01*
X7747143Y-95255D02*
X7823333Y-95255D01*
X7823333Y-95255D02*
X7899524Y-133350D01*
X7899524Y-133350D02*
X7937619Y-171445D01*
X7937619Y-171445D02*
X7975714Y-247636D01*
X7975714Y-247636D02*
X8013809Y-400017D01*
X8013809Y-400017D02*
X8013809Y-590493D01*
X8013809Y-590493D02*
X7975714Y-742874D01*
X7975714Y-742874D02*
X7937619Y-819064D01*
X7937619Y-819064D02*
X7899524Y-857160D01*
X7899524Y-857160D02*
X7823333Y-895255D01*
X7823333Y-895255D02*
X7747143Y-895255D01*
X7747143Y-895255D02*
X7670952Y-857160D01*
X7670952Y-857160D02*
X7632857Y-819064D01*
X7632857Y-819064D02*
X7594762Y-742874D01*
X7594762Y-742874D02*
X7556666Y-590493D01*
X7556666Y-590493D02*
X7556666Y-400017D01*
X7556666Y-400017D02*
X7594762Y-247636D01*
X7594762Y-247636D02*
X7632857Y-171445D01*
X7632857Y-171445D02*
X7670952Y-133350D01*
X7670952Y-133350D02*
X7747143Y-95255D01*
X8509048Y-95255D02*
X8585238Y-95255D01*
X8585238Y-95255D02*
X8661429Y-133350D01*
X8661429Y-133350D02*
X8699524Y-171445D01*
X8699524Y-171445D02*
X8737619Y-247636D01*
X8737619Y-247636D02*
X8775714Y-400017D01*
X8775714Y-400017D02*
X8775714Y-590493D01*
X8775714Y-590493D02*
X8737619Y-742874D01*
X8737619Y-742874D02*
X8699524Y-819064D01*
X8699524Y-819064D02*
X8661429Y-857160D01*
X8661429Y-857160D02*
X8585238Y-895255D01*
X8585238Y-895255D02*
X8509048Y-895255D01*
X8509048Y-895255D02*
X8432857Y-857160D01*
X8432857Y-857160D02*
X8394762Y-819064D01*
X8394762Y-819064D02*
X8356667Y-742874D01*
X8356667Y-742874D02*
X8318571Y-590493D01*
X8318571Y-590493D02*
X8318571Y-400017D01*
X8318571Y-400017D02*
X8356667Y-247636D01*
X8356667Y-247636D02*
X8394762Y-171445D01*
X8394762Y-171445D02*
X8432857Y-133350D01*
X8432857Y-133350D02*
X8509048Y-95255D01*
X9118572Y-361921D02*
X9118572Y-895255D01*
X9118572Y-438112D02*
X9156667Y-400017D01*
X9156667Y-400017D02*
X9232857Y-361921D01*
X9232857Y-361921D02*
X9347143Y-361921D01*
X9347143Y-361921D02*
X9423334Y-400017D01*
X9423334Y-400017D02*
X9461429Y-476207D01*
X9461429Y-476207D02*
X9461429Y-895255D01*
X10109048Y-476207D02*
X9842382Y-476207D01*
X9842382Y-895255D02*
X9842382Y-95255D01*
X9842382Y-95255D02*
X10223334Y-95255D01*
X36746667Y-6713855D02*
X36480000Y-6332902D01*
X36289524Y-6713855D02*
X36289524Y-5913855D01*
X36289524Y-5913855D02*
X36594286Y-5913855D01*
X36594286Y-5913855D02*
X36670476Y-5951950D01*
X36670476Y-5951950D02*
X36708571Y-5990045D01*
X36708571Y-5990045D02*
X36746667Y-6066236D01*
X36746667Y-6066236D02*
X36746667Y-6180521D01*
X36746667Y-6180521D02*
X36708571Y-6256712D01*
X36708571Y-6256712D02*
X36670476Y-6294807D01*
X36670476Y-6294807D02*
X36594286Y-6332902D01*
X36594286Y-6332902D02*
X36289524Y-6332902D01*
X37508571Y-6713855D02*
X37051428Y-6713855D01*
X37280000Y-6713855D02*
X37280000Y-5913855D01*
X37280000Y-5913855D02*
X37203809Y-6028140D01*
X37203809Y-6028140D02*
X37127619Y-6104331D01*
X37127619Y-6104331D02*
X37051428Y-6142426D01*
X36403809Y-7713855D02*
X35946666Y-7713855D01*
X36175238Y-7713855D02*
X36175238Y-6913855D01*
X36175238Y-6913855D02*
X36099047Y-7028140D01*
X36099047Y-7028140D02*
X36022857Y-7104331D01*
X36022857Y-7104331D02*
X35946666Y-7142426D01*
X36899048Y-6913855D02*
X36975238Y-6913855D01*
X36975238Y-6913855D02*
X37051429Y-6951950D01*
X37051429Y-6951950D02*
X37089524Y-6990045D01*
X37089524Y-6990045D02*
X37127619Y-7066236D01*
X37127619Y-7066236D02*
X37165714Y-7218617D01*
X37165714Y-7218617D02*
X37165714Y-7409093D01*
X37165714Y-7409093D02*
X37127619Y-7561474D01*
X37127619Y-7561474D02*
X37089524Y-7637664D01*
X37089524Y-7637664D02*
X37051429Y-7675760D01*
X37051429Y-7675760D02*
X36975238Y-7713855D01*
X36975238Y-7713855D02*
X36899048Y-7713855D01*
X36899048Y-7713855D02*
X36822857Y-7675760D01*
X36822857Y-7675760D02*
X36784762Y-7637664D01*
X36784762Y-7637664D02*
X36746667Y-7561474D01*
X36746667Y-7561474D02*
X36708571Y-7409093D01*
X36708571Y-7409093D02*
X36708571Y-7218617D01*
X36708571Y-7218617D02*
X36746667Y-7066236D01*
X36746667Y-7066236D02*
X36784762Y-6990045D01*
X36784762Y-6990045D02*
X36822857Y-6951950D01*
X36822857Y-6951950D02*
X36899048Y-6913855D01*
X37508572Y-7713855D02*
X37508572Y-6913855D01*
X37584762Y-7409093D02*
X37813334Y-7713855D01*
X37813334Y-7180521D02*
X37508572Y-7485283D01*
X27183333Y-4635283D02*
X27564286Y-4635283D01*
X27107143Y-4863855D02*
X27373810Y-4063855D01*
X27373810Y-4063855D02*
X27640476Y-4863855D01*
X27907143Y-4863855D02*
X27907143Y-4063855D01*
X27907143Y-4063855D02*
X28364286Y-4863855D01*
X28364286Y-4863855D02*
X28364286Y-4063855D01*
X28745238Y-4863855D02*
X28745238Y-4063855D01*
X28745238Y-4063855D02*
X29202381Y-4863855D01*
X29202381Y-4863855D02*
X29202381Y-4063855D01*
X29545237Y-4635283D02*
X29926190Y-4635283D01*
X29469047Y-4863855D02*
X29735714Y-4063855D01*
X29735714Y-4063855D02*
X30002380Y-4863855D01*
X30269047Y-4559093D02*
X30878571Y-4559093D01*
X31526189Y-4444807D02*
X31640475Y-4482902D01*
X31640475Y-4482902D02*
X31678570Y-4520998D01*
X31678570Y-4520998D02*
X31716666Y-4597188D01*
X31716666Y-4597188D02*
X31716666Y-4711474D01*
X31716666Y-4711474D02*
X31678570Y-4787664D01*
X31678570Y-4787664D02*
X31640475Y-4825760D01*
X31640475Y-4825760D02*
X31564285Y-4863855D01*
X31564285Y-4863855D02*
X31259523Y-4863855D01*
X31259523Y-4863855D02*
X31259523Y-4063855D01*
X31259523Y-4063855D02*
X31526189Y-4063855D01*
X31526189Y-4063855D02*
X31602380Y-4101950D01*
X31602380Y-4101950D02*
X31640475Y-4140045D01*
X31640475Y-4140045D02*
X31678570Y-4216236D01*
X31678570Y-4216236D02*
X31678570Y-4292426D01*
X31678570Y-4292426D02*
X31640475Y-4368617D01*
X31640475Y-4368617D02*
X31602380Y-4406712D01*
X31602380Y-4406712D02*
X31526189Y-4444807D01*
X31526189Y-4444807D02*
X31259523Y-4444807D01*
X32478570Y-4863855D02*
X32021427Y-4863855D01*
X32249999Y-4863855D02*
X32249999Y-4063855D01*
X32249999Y-4063855D02*
X32173808Y-4178140D01*
X32173808Y-4178140D02*
X32097618Y-4254331D01*
X32097618Y-4254331D02*
X32021427Y-4292426D01*
X33240475Y-4863855D02*
X32783332Y-4863855D01*
X33011904Y-4863855D02*
X33011904Y-4063855D01*
X33011904Y-4063855D02*
X32935713Y-4178140D01*
X32935713Y-4178140D02*
X32859523Y-4254331D01*
X32859523Y-4254331D02*
X32783332Y-4292426D01*
X33545237Y-4140045D02*
X33583333Y-4101950D01*
X33583333Y-4101950D02*
X33659523Y-4063855D01*
X33659523Y-4063855D02*
X33849999Y-4063855D01*
X33849999Y-4063855D02*
X33926190Y-4101950D01*
X33926190Y-4101950D02*
X33964285Y-4140045D01*
X33964285Y-4140045D02*
X34002380Y-4216236D01*
X34002380Y-4216236D02*
X34002380Y-4292426D01*
X34002380Y-4292426D02*
X33964285Y-4406712D01*
X33964285Y-4406712D02*
X33507142Y-4863855D01*
X33507142Y-4863855D02*
X34002380Y-4863855D01*
X34345238Y-4559093D02*
X34954762Y-4559093D01*
X35488095Y-4063855D02*
X35564285Y-4063855D01*
X35564285Y-4063855D02*
X35640476Y-4101950D01*
X35640476Y-4101950D02*
X35678571Y-4140045D01*
X35678571Y-4140045D02*
X35716666Y-4216236D01*
X35716666Y-4216236D02*
X35754761Y-4368617D01*
X35754761Y-4368617D02*
X35754761Y-4559093D01*
X35754761Y-4559093D02*
X35716666Y-4711474D01*
X35716666Y-4711474D02*
X35678571Y-4787664D01*
X35678571Y-4787664D02*
X35640476Y-4825760D01*
X35640476Y-4825760D02*
X35564285Y-4863855D01*
X35564285Y-4863855D02*
X35488095Y-4863855D01*
X35488095Y-4863855D02*
X35411904Y-4825760D01*
X35411904Y-4825760D02*
X35373809Y-4787664D01*
X35373809Y-4787664D02*
X35335714Y-4711474D01*
X35335714Y-4711474D02*
X35297618Y-4559093D01*
X35297618Y-4559093D02*
X35297618Y-4368617D01*
X35297618Y-4368617D02*
X35335714Y-4216236D01*
X35335714Y-4216236D02*
X35373809Y-4140045D01*
X35373809Y-4140045D02*
X35411904Y-4101950D01*
X35411904Y-4101950D02*
X35488095Y-4063855D01*
X36059523Y-4140045D02*
X36097619Y-4101950D01*
X36097619Y-4101950D02*
X36173809Y-4063855D01*
X36173809Y-4063855D02*
X36364285Y-4063855D01*
X36364285Y-4063855D02*
X36440476Y-4101950D01*
X36440476Y-4101950D02*
X36478571Y-4140045D01*
X36478571Y-4140045D02*
X36516666Y-4216236D01*
X36516666Y-4216236D02*
X36516666Y-4292426D01*
X36516666Y-4292426D02*
X36478571Y-4406712D01*
X36478571Y-4406712D02*
X36021428Y-4863855D01*
X36021428Y-4863855D02*
X36516666Y-4863855D01*
X37126190Y-4444807D02*
X37240476Y-4482902D01*
X37240476Y-4482902D02*
X37278571Y-4520998D01*
X37278571Y-4520998D02*
X37316667Y-4597188D01*
X37316667Y-4597188D02*
X37316667Y-4711474D01*
X37316667Y-4711474D02*
X37278571Y-4787664D01*
X37278571Y-4787664D02*
X37240476Y-4825760D01*
X37240476Y-4825760D02*
X37164286Y-4863855D01*
X37164286Y-4863855D02*
X36859524Y-4863855D01*
X36859524Y-4863855D02*
X36859524Y-4063855D01*
X36859524Y-4063855D02*
X37126190Y-4063855D01*
X37126190Y-4063855D02*
X37202381Y-4101950D01*
X37202381Y-4101950D02*
X37240476Y-4140045D01*
X37240476Y-4140045D02*
X37278571Y-4216236D01*
X37278571Y-4216236D02*
X37278571Y-4292426D01*
X37278571Y-4292426D02*
X37240476Y-4368617D01*
X37240476Y-4368617D02*
X37202381Y-4406712D01*
X37202381Y-4406712D02*
X37126190Y-4444807D01*
X37126190Y-4444807D02*
X36859524Y-4444807D01*
X-1488096Y-4563855D02*
X-1869048Y-4563855D01*
X-1869048Y-4563855D02*
X-1907144Y-4944807D01*
X-1907144Y-4944807D02*
X-1869048Y-4906712D01*
X-1869048Y-4906712D02*
X-1792858Y-4868617D01*
X-1792858Y-4868617D02*
X-1602382Y-4868617D01*
X-1602382Y-4868617D02*
X-1526191Y-4906712D01*
X-1526191Y-4906712D02*
X-1488096Y-4944807D01*
X-1488096Y-4944807D02*
X-1450001Y-5020998D01*
X-1450001Y-5020998D02*
X-1450001Y-5211474D01*
X-1450001Y-5211474D02*
X-1488096Y-5287664D01*
X-1488096Y-5287664D02*
X-1526191Y-5325760D01*
X-1526191Y-5325760D02*
X-1602382Y-5363855D01*
X-1602382Y-5363855D02*
X-1792858Y-5363855D01*
X-1792858Y-5363855D02*
X-1869048Y-5325760D01*
X-1869048Y-5325760D02*
X-1907144Y-5287664D01*
X-954762Y-4563855D02*
X-878572Y-4563855D01*
X-878572Y-4563855D02*
X-802381Y-4601950D01*
X-802381Y-4601950D02*
X-764286Y-4640045D01*
X-764286Y-4640045D02*
X-726191Y-4716236D01*
X-726191Y-4716236D02*
X-688096Y-4868617D01*
X-688096Y-4868617D02*
X-688096Y-5059093D01*
X-688096Y-5059093D02*
X-726191Y-5211474D01*
X-726191Y-5211474D02*
X-764286Y-5287664D01*
X-764286Y-5287664D02*
X-802381Y-5325760D01*
X-802381Y-5325760D02*
X-878572Y-5363855D01*
X-878572Y-5363855D02*
X-954762Y-5363855D01*
X-954762Y-5363855D02*
X-1030953Y-5325760D01*
X-1030953Y-5325760D02*
X-1069048Y-5287664D01*
X-1069048Y-5287664D02*
X-1107143Y-5211474D01*
X-1107143Y-5211474D02*
X-1145239Y-5059093D01*
X-1145239Y-5059093D02*
X-1145239Y-4868617D01*
X-1145239Y-4868617D02*
X-1107143Y-4716236D01*
X-1107143Y-4716236D02*
X-1069048Y-4640045D01*
X-1069048Y-4640045D02*
X-1030953Y-4601950D01*
X-1030953Y-4601950D02*
X-954762Y-4563855D01*
X-421429Y-4563855D02*
X73808Y-4563855D01*
X73808Y-4563855D02*
X-192857Y-4868617D01*
X-192857Y-4868617D02*
X-78572Y-4868617D01*
X-78572Y-4868617D02*
X-2381Y-4906712D01*
X-2381Y-4906712D02*
X35713Y-4944807D01*
X35713Y-4944807D02*
X73808Y-5020998D01*
X73808Y-5020998D02*
X73808Y-5211474D01*
X73808Y-5211474D02*
X35713Y-5287664D01*
X35713Y-5287664D02*
X-2381Y-5325760D01*
X-2381Y-5325760D02*
X-78572Y-5363855D01*
X-78572Y-5363855D02*
X-307143Y-5363855D01*
X-307143Y-5363855D02*
X-383334Y-5325760D01*
X-383334Y-5325760D02*
X-421429Y-5287664D01*
X759523Y-4830521D02*
X759523Y-5363855D01*
X569047Y-4525760D02*
X378570Y-5097188D01*
X378570Y-5097188D02*
X873809Y-5097188D01*
X1292856Y-4906712D02*
X1216666Y-4868617D01*
X1216666Y-4868617D02*
X1178571Y-4830521D01*
X1178571Y-4830521D02*
X1140475Y-4754331D01*
X1140475Y-4754331D02*
X1140475Y-4716236D01*
X1140475Y-4716236D02*
X1178571Y-4640045D01*
X1178571Y-4640045D02*
X1216666Y-4601950D01*
X1216666Y-4601950D02*
X1292856Y-4563855D01*
X1292856Y-4563855D02*
X1445237Y-4563855D01*
X1445237Y-4563855D02*
X1521428Y-4601950D01*
X1521428Y-4601950D02*
X1559523Y-4640045D01*
X1559523Y-4640045D02*
X1597618Y-4716236D01*
X1597618Y-4716236D02*
X1597618Y-4754331D01*
X1597618Y-4754331D02*
X1559523Y-4830521D01*
X1559523Y-4830521D02*
X1521428Y-4868617D01*
X1521428Y-4868617D02*
X1445237Y-4906712D01*
X1445237Y-4906712D02*
X1292856Y-4906712D01*
X1292856Y-4906712D02*
X1216666Y-4944807D01*
X1216666Y-4944807D02*
X1178571Y-4982902D01*
X1178571Y-4982902D02*
X1140475Y-5059093D01*
X1140475Y-5059093D02*
X1140475Y-5211474D01*
X1140475Y-5211474D02*
X1178571Y-5287664D01*
X1178571Y-5287664D02*
X1216666Y-5325760D01*
X1216666Y-5325760D02*
X1292856Y-5363855D01*
X1292856Y-5363855D02*
X1445237Y-5363855D01*
X1445237Y-5363855D02*
X1521428Y-5325760D01*
X1521428Y-5325760D02*
X1559523Y-5287664D01*
X1559523Y-5287664D02*
X1597618Y-5211474D01*
X1597618Y-5211474D02*
X1597618Y-5059093D01*
X1597618Y-5059093D02*
X1559523Y-4982902D01*
X1559523Y-4982902D02*
X1521428Y-4944807D01*
X1521428Y-4944807D02*
X1445237Y-4906712D01*
X2092857Y-4563855D02*
X2169047Y-4563855D01*
X2169047Y-4563855D02*
X2245238Y-4601950D01*
X2245238Y-4601950D02*
X2283333Y-4640045D01*
X2283333Y-4640045D02*
X2321428Y-4716236D01*
X2321428Y-4716236D02*
X2359523Y-4868617D01*
X2359523Y-4868617D02*
X2359523Y-5059093D01*
X2359523Y-5059093D02*
X2321428Y-5211474D01*
X2321428Y-5211474D02*
X2283333Y-5287664D01*
X2283333Y-5287664D02*
X2245238Y-5325760D01*
X2245238Y-5325760D02*
X2169047Y-5363855D01*
X2169047Y-5363855D02*
X2092857Y-5363855D01*
X2092857Y-5363855D02*
X2016666Y-5325760D01*
X2016666Y-5325760D02*
X1978571Y-5287664D01*
X1978571Y-5287664D02*
X1940476Y-5211474D01*
X1940476Y-5211474D02*
X1902380Y-5059093D01*
X1902380Y-5059093D02*
X1902380Y-4868617D01*
X1902380Y-4868617D02*
X1940476Y-4716236D01*
X1940476Y-4716236D02*
X1978571Y-4640045D01*
X1978571Y-4640045D02*
X2016666Y-4601950D01*
X2016666Y-4601950D02*
X2092857Y-4563855D01*
X2854762Y-4563855D02*
X2930952Y-4563855D01*
X2930952Y-4563855D02*
X3007143Y-4601950D01*
X3007143Y-4601950D02*
X3045238Y-4640045D01*
X3045238Y-4640045D02*
X3083333Y-4716236D01*
X3083333Y-4716236D02*
X3121428Y-4868617D01*
X3121428Y-4868617D02*
X3121428Y-5059093D01*
X3121428Y-5059093D02*
X3083333Y-5211474D01*
X3083333Y-5211474D02*
X3045238Y-5287664D01*
X3045238Y-5287664D02*
X3007143Y-5325760D01*
X3007143Y-5325760D02*
X2930952Y-5363855D01*
X2930952Y-5363855D02*
X2854762Y-5363855D01*
X2854762Y-5363855D02*
X2778571Y-5325760D01*
X2778571Y-5325760D02*
X2740476Y-5287664D01*
X2740476Y-5287664D02*
X2702381Y-5211474D01*
X2702381Y-5211474D02*
X2664285Y-5059093D01*
X2664285Y-5059093D02*
X2664285Y-4868617D01*
X2664285Y-4868617D02*
X2702381Y-4716236D01*
X2702381Y-4716236D02*
X2740476Y-4640045D01*
X2740476Y-4640045D02*
X2778571Y-4601950D01*
X2778571Y-4601950D02*
X2854762Y-4563855D01*
X3807143Y-4830521D02*
X3807143Y-5363855D01*
X3616667Y-4525760D02*
X3426190Y-5097188D01*
X3426190Y-5097188D02*
X3921429Y-5097188D01*
X4569048Y-4830521D02*
X4569048Y-5363855D01*
X4378572Y-4525760D02*
X4188095Y-5097188D01*
X4188095Y-5097188D02*
X4683334Y-5097188D01*
X5140477Y-4563855D02*
X5216667Y-4563855D01*
X5216667Y-4563855D02*
X5292858Y-4601950D01*
X5292858Y-4601950D02*
X5330953Y-4640045D01*
X5330953Y-4640045D02*
X5369048Y-4716236D01*
X5369048Y-4716236D02*
X5407143Y-4868617D01*
X5407143Y-4868617D02*
X5407143Y-5059093D01*
X5407143Y-5059093D02*
X5369048Y-5211474D01*
X5369048Y-5211474D02*
X5330953Y-5287664D01*
X5330953Y-5287664D02*
X5292858Y-5325760D01*
X5292858Y-5325760D02*
X5216667Y-5363855D01*
X5216667Y-5363855D02*
X5140477Y-5363855D01*
X5140477Y-5363855D02*
X5064286Y-5325760D01*
X5064286Y-5325760D02*
X5026191Y-5287664D01*
X5026191Y-5287664D02*
X4988096Y-5211474D01*
X4988096Y-5211474D02*
X4950000Y-5059093D01*
X4950000Y-5059093D02*
X4950000Y-4868617D01*
X4950000Y-4868617D02*
X4988096Y-4716236D01*
X4988096Y-4716236D02*
X5026191Y-4640045D01*
X5026191Y-4640045D02*
X5064286Y-4601950D01*
X5064286Y-4601950D02*
X5140477Y-4563855D01*
X8356667Y-3155255D02*
X8090000Y-2774302D01*
X7899524Y-3155255D02*
X7899524Y-2355255D01*
X7899524Y-2355255D02*
X8204286Y-2355255D01*
X8204286Y-2355255D02*
X8280476Y-2393350D01*
X8280476Y-2393350D02*
X8318571Y-2431445D01*
X8318571Y-2431445D02*
X8356667Y-2507636D01*
X8356667Y-2507636D02*
X8356667Y-2621921D01*
X8356667Y-2621921D02*
X8318571Y-2698112D01*
X8318571Y-2698112D02*
X8280476Y-2736207D01*
X8280476Y-2736207D02*
X8204286Y-2774302D01*
X8204286Y-2774302D02*
X7899524Y-2774302D01*
X9080476Y-2355255D02*
X8699524Y-2355255D01*
X8699524Y-2355255D02*
X8661428Y-2736207D01*
X8661428Y-2736207D02*
X8699524Y-2698112D01*
X8699524Y-2698112D02*
X8775714Y-2660017D01*
X8775714Y-2660017D02*
X8966190Y-2660017D01*
X8966190Y-2660017D02*
X9042381Y-2698112D01*
X9042381Y-2698112D02*
X9080476Y-2736207D01*
X9080476Y-2736207D02*
X9118571Y-2812398D01*
X9118571Y-2812398D02*
X9118571Y-3002874D01*
X9118571Y-3002874D02*
X9080476Y-3079064D01*
X9080476Y-3079064D02*
X9042381Y-3117160D01*
X9042381Y-3117160D02*
X8966190Y-3155255D01*
X8966190Y-3155255D02*
X8775714Y-3155255D01*
X8775714Y-3155255D02*
X8699524Y-3117160D01*
X8699524Y-3117160D02*
X8661428Y-3079064D01*
X7518571Y-3355255D02*
X7137619Y-3355255D01*
X7137619Y-3355255D02*
X7099523Y-3736207D01*
X7099523Y-3736207D02*
X7137619Y-3698112D01*
X7137619Y-3698112D02*
X7213809Y-3660017D01*
X7213809Y-3660017D02*
X7404285Y-3660017D01*
X7404285Y-3660017D02*
X7480476Y-3698112D01*
X7480476Y-3698112D02*
X7518571Y-3736207D01*
X7518571Y-3736207D02*
X7556666Y-3812398D01*
X7556666Y-3812398D02*
X7556666Y-4002874D01*
X7556666Y-4002874D02*
X7518571Y-4079064D01*
X7518571Y-4079064D02*
X7480476Y-4117160D01*
X7480476Y-4117160D02*
X7404285Y-4155255D01*
X7404285Y-4155255D02*
X7213809Y-4155255D01*
X7213809Y-4155255D02*
X7137619Y-4117160D01*
X7137619Y-4117160D02*
X7099523Y-4079064D01*
X8051905Y-3355255D02*
X8128095Y-3355255D01*
X8128095Y-3355255D02*
X8204286Y-3393350D01*
X8204286Y-3393350D02*
X8242381Y-3431445D01*
X8242381Y-3431445D02*
X8280476Y-3507636D01*
X8280476Y-3507636D02*
X8318571Y-3660017D01*
X8318571Y-3660017D02*
X8318571Y-3850493D01*
X8318571Y-3850493D02*
X8280476Y-4002874D01*
X8280476Y-4002874D02*
X8242381Y-4079064D01*
X8242381Y-4079064D02*
X8204286Y-4117160D01*
X8204286Y-4117160D02*
X8128095Y-4155255D01*
X8128095Y-4155255D02*
X8051905Y-4155255D01*
X8051905Y-4155255D02*
X7975714Y-4117160D01*
X7975714Y-4117160D02*
X7937619Y-4079064D01*
X7937619Y-4079064D02*
X7899524Y-4002874D01*
X7899524Y-4002874D02*
X7861428Y-3850493D01*
X7861428Y-3850493D02*
X7861428Y-3660017D01*
X7861428Y-3660017D02*
X7899524Y-3507636D01*
X7899524Y-3507636D02*
X7937619Y-3431445D01*
X7937619Y-3431445D02*
X7975714Y-3393350D01*
X7975714Y-3393350D02*
X8051905Y-3355255D01*
X8813810Y-3355255D02*
X8890000Y-3355255D01*
X8890000Y-3355255D02*
X8966191Y-3393350D01*
X8966191Y-3393350D02*
X9004286Y-3431445D01*
X9004286Y-3431445D02*
X9042381Y-3507636D01*
X9042381Y-3507636D02*
X9080476Y-3660017D01*
X9080476Y-3660017D02*
X9080476Y-3850493D01*
X9080476Y-3850493D02*
X9042381Y-4002874D01*
X9042381Y-4002874D02*
X9004286Y-4079064D01*
X9004286Y-4079064D02*
X8966191Y-4117160D01*
X8966191Y-4117160D02*
X8890000Y-4155255D01*
X8890000Y-4155255D02*
X8813810Y-4155255D01*
X8813810Y-4155255D02*
X8737619Y-4117160D01*
X8737619Y-4117160D02*
X8699524Y-4079064D01*
X8699524Y-4079064D02*
X8661429Y-4002874D01*
X8661429Y-4002874D02*
X8623333Y-3850493D01*
X8623333Y-3850493D02*
X8623333Y-3660017D01*
X8623333Y-3660017D02*
X8661429Y-3507636D01*
X8661429Y-3507636D02*
X8699524Y-3431445D01*
X8699524Y-3431445D02*
X8737619Y-3393350D01*
X8737619Y-3393350D02*
X8813810Y-3355255D01*
X9880477Y-4155255D02*
X9613810Y-3774302D01*
X9423334Y-4155255D02*
X9423334Y-3355255D01*
X9423334Y-3355255D02*
X9728096Y-3355255D01*
X9728096Y-3355255D02*
X9804286Y-3393350D01*
X9804286Y-3393350D02*
X9842381Y-3431445D01*
X9842381Y-3431445D02*
X9880477Y-3507636D01*
X9880477Y-3507636D02*
X9880477Y-3621921D01*
X9880477Y-3621921D02*
X9842381Y-3698112D01*
X9842381Y-3698112D02*
X9804286Y-3736207D01*
X9804286Y-3736207D02*
X9728096Y-3774302D01*
X9728096Y-3774302D02*
X9423334Y-3774302D01*
X10828570Y-5399507D02*
X10942856Y-5437602D01*
X10942856Y-5437602D02*
X10980951Y-5475698D01*
X10980951Y-5475698D02*
X11019047Y-5551888D01*
X11019047Y-5551888D02*
X11019047Y-5666174D01*
X11019047Y-5666174D02*
X10980951Y-5742364D01*
X10980951Y-5742364D02*
X10942856Y-5780460D01*
X10942856Y-5780460D02*
X10866666Y-5818555D01*
X10866666Y-5818555D02*
X10561904Y-5818555D01*
X10561904Y-5818555D02*
X10561904Y-5018555D01*
X10561904Y-5018555D02*
X10828570Y-5018555D01*
X10828570Y-5018555D02*
X10904761Y-5056650D01*
X10904761Y-5056650D02*
X10942856Y-5094745D01*
X10942856Y-5094745D02*
X10980951Y-5170936D01*
X10980951Y-5170936D02*
X10980951Y-5247126D01*
X10980951Y-5247126D02*
X10942856Y-5323317D01*
X10942856Y-5323317D02*
X10904761Y-5361412D01*
X10904761Y-5361412D02*
X10828570Y-5399507D01*
X10828570Y-5399507D02*
X10561904Y-5399507D01*
X11742856Y-5818555D02*
X11361904Y-5818555D01*
X11361904Y-5818555D02*
X11361904Y-5018555D01*
X12009523Y-5513793D02*
X12619047Y-5513793D01*
X12999999Y-5818555D02*
X12999999Y-5018555D01*
X12999999Y-5399507D02*
X13457142Y-5399507D01*
X13457142Y-5818555D02*
X13457142Y-5018555D01*
X14257141Y-5056650D02*
X14180951Y-5018555D01*
X14180951Y-5018555D02*
X14066665Y-5018555D01*
X14066665Y-5018555D02*
X13952379Y-5056650D01*
X13952379Y-5056650D02*
X13876189Y-5132840D01*
X13876189Y-5132840D02*
X13838094Y-5209031D01*
X13838094Y-5209031D02*
X13799998Y-5361412D01*
X13799998Y-5361412D02*
X13799998Y-5475698D01*
X13799998Y-5475698D02*
X13838094Y-5628079D01*
X13838094Y-5628079D02*
X13876189Y-5704269D01*
X13876189Y-5704269D02*
X13952379Y-5780460D01*
X13952379Y-5780460D02*
X14066665Y-5818555D01*
X14066665Y-5818555D02*
X14142856Y-5818555D01*
X14142856Y-5818555D02*
X14257141Y-5780460D01*
X14257141Y-5780460D02*
X14295237Y-5742364D01*
X14295237Y-5742364D02*
X14295237Y-5475698D01*
X14295237Y-5475698D02*
X14142856Y-5475698D01*
X14790475Y-5018555D02*
X14866665Y-5018555D01*
X14866665Y-5018555D02*
X14942856Y-5056650D01*
X14942856Y-5056650D02*
X14980951Y-5094745D01*
X14980951Y-5094745D02*
X15019046Y-5170936D01*
X15019046Y-5170936D02*
X15057141Y-5323317D01*
X15057141Y-5323317D02*
X15057141Y-5513793D01*
X15057141Y-5513793D02*
X15019046Y-5666174D01*
X15019046Y-5666174D02*
X14980951Y-5742364D01*
X14980951Y-5742364D02*
X14942856Y-5780460D01*
X14942856Y-5780460D02*
X14866665Y-5818555D01*
X14866665Y-5818555D02*
X14790475Y-5818555D01*
X14790475Y-5818555D02*
X14714284Y-5780460D01*
X14714284Y-5780460D02*
X14676189Y-5742364D01*
X14676189Y-5742364D02*
X14638094Y-5666174D01*
X14638094Y-5666174D02*
X14599998Y-5513793D01*
X14599998Y-5513793D02*
X14599998Y-5323317D01*
X14599998Y-5323317D02*
X14638094Y-5170936D01*
X14638094Y-5170936D02*
X14676189Y-5094745D01*
X14676189Y-5094745D02*
X14714284Y-5056650D01*
X14714284Y-5056650D02*
X14790475Y-5018555D01*
X15399999Y-5399507D02*
X15666665Y-5399507D01*
X15780951Y-5818555D02*
X15399999Y-5818555D01*
X15399999Y-5818555D02*
X15399999Y-5018555D01*
X15399999Y-5018555D02*
X15780951Y-5018555D01*
X16542856Y-5818555D02*
X16085713Y-5818555D01*
X16314285Y-5818555D02*
X16314285Y-5018555D01*
X16314285Y-5018555D02*
X16238094Y-5132840D01*
X16238094Y-5132840D02*
X16161904Y-5209031D01*
X16161904Y-5209031D02*
X16085713Y-5247126D01*
X16809523Y-5018555D02*
X17304761Y-5018555D01*
X17304761Y-5018555D02*
X17038095Y-5323317D01*
X17038095Y-5323317D02*
X17152380Y-5323317D01*
X17152380Y-5323317D02*
X17228571Y-5361412D01*
X17228571Y-5361412D02*
X17266666Y-5399507D01*
X17266666Y-5399507D02*
X17304761Y-5475698D01*
X17304761Y-5475698D02*
X17304761Y-5666174D01*
X17304761Y-5666174D02*
X17266666Y-5742364D01*
X17266666Y-5742364D02*
X17228571Y-5780460D01*
X17228571Y-5780460D02*
X17152380Y-5818555D01*
X17152380Y-5818555D02*
X16923809Y-5818555D01*
X16923809Y-5818555D02*
X16847618Y-5780460D01*
X16847618Y-5780460D02*
X16809523Y-5742364D01*
X17990476Y-5018555D02*
X17838095Y-5018555D01*
X17838095Y-5018555D02*
X17761904Y-5056650D01*
X17761904Y-5056650D02*
X17723809Y-5094745D01*
X17723809Y-5094745D02*
X17647619Y-5209031D01*
X17647619Y-5209031D02*
X17609523Y-5361412D01*
X17609523Y-5361412D02*
X17609523Y-5666174D01*
X17609523Y-5666174D02*
X17647619Y-5742364D01*
X17647619Y-5742364D02*
X17685714Y-5780460D01*
X17685714Y-5780460D02*
X17761904Y-5818555D01*
X17761904Y-5818555D02*
X17914285Y-5818555D01*
X17914285Y-5818555D02*
X17990476Y-5780460D01*
X17990476Y-5780460D02*
X18028571Y-5742364D01*
X18028571Y-5742364D02*
X18066666Y-5666174D01*
X18066666Y-5666174D02*
X18066666Y-5475698D01*
X18066666Y-5475698D02*
X18028571Y-5399507D01*
X18028571Y-5399507D02*
X17990476Y-5361412D01*
X17990476Y-5361412D02*
X17914285Y-5323317D01*
X17914285Y-5323317D02*
X17761904Y-5323317D01*
X17761904Y-5323317D02*
X17685714Y-5361412D01*
X17685714Y-5361412D02*
X17647619Y-5399507D01*
X17647619Y-5399507D02*
X17609523Y-5475698D01*
X18638095Y-5018555D02*
X18638095Y-5589983D01*
X18638095Y-5589983D02*
X18600000Y-5704269D01*
X18600000Y-5704269D02*
X18523809Y-5780460D01*
X18523809Y-5780460D02*
X18409524Y-5818555D01*
X18409524Y-5818555D02*
X18333333Y-5818555D01*
X19019048Y-5513793D02*
X19628572Y-5513793D01*
X19895238Y-5018555D02*
X20352381Y-5018555D01*
X20123809Y-5818555D02*
X20123809Y-5018555D01*
X21076191Y-5818555D02*
X20809524Y-5437602D01*
X20619048Y-5818555D02*
X20619048Y-5018555D01*
X20619048Y-5018555D02*
X20923810Y-5018555D01*
X20923810Y-5018555D02*
X21000000Y-5056650D01*
X21000000Y-5056650D02*
X21038095Y-5094745D01*
X21038095Y-5094745D02*
X21076191Y-5170936D01*
X21076191Y-5170936D02*
X21076191Y-5285221D01*
X21076191Y-5285221D02*
X21038095Y-5361412D01*
X21038095Y-5361412D02*
X21000000Y-5399507D01*
X21000000Y-5399507D02*
X20923810Y-5437602D01*
X20923810Y-5437602D02*
X20619048Y-5437602D01*
X21685714Y-5399507D02*
X21800000Y-5437602D01*
X21800000Y-5437602D02*
X21838095Y-5475698D01*
X21838095Y-5475698D02*
X21876191Y-5551888D01*
X21876191Y-5551888D02*
X21876191Y-5666174D01*
X21876191Y-5666174D02*
X21838095Y-5742364D01*
X21838095Y-5742364D02*
X21800000Y-5780460D01*
X21800000Y-5780460D02*
X21723810Y-5818555D01*
X21723810Y-5818555D02*
X21419048Y-5818555D01*
X21419048Y-5818555D02*
X21419048Y-5018555D01*
X21419048Y-5018555D02*
X21685714Y-5018555D01*
X21685714Y-5018555D02*
X21761905Y-5056650D01*
X21761905Y-5056650D02*
X21800000Y-5094745D01*
X21800000Y-5094745D02*
X21838095Y-5170936D01*
X21838095Y-5170936D02*
X21838095Y-5247126D01*
X21838095Y-5247126D02*
X21800000Y-5323317D01*
X21800000Y-5323317D02*
X21761905Y-5361412D01*
X21761905Y-5361412D02*
X21685714Y-5399507D01*
X21685714Y-5399507D02*
X21419048Y-5399507D01*
X3926666Y-2044807D02*
X4193332Y-2044807D01*
X4307618Y-2463855D02*
X3926666Y-2463855D01*
X3926666Y-2463855D02*
X3926666Y-1663855D01*
X3926666Y-1663855D02*
X4307618Y-1663855D01*
X4612380Y-2425760D02*
X4726666Y-2463855D01*
X4726666Y-2463855D02*
X4917142Y-2463855D01*
X4917142Y-2463855D02*
X4993333Y-2425760D01*
X4993333Y-2425760D02*
X5031428Y-2387664D01*
X5031428Y-2387664D02*
X5069523Y-2311474D01*
X5069523Y-2311474D02*
X5069523Y-2235283D01*
X5069523Y-2235283D02*
X5031428Y-2159093D01*
X5031428Y-2159093D02*
X4993333Y-2120998D01*
X4993333Y-2120998D02*
X4917142Y-2082902D01*
X4917142Y-2082902D02*
X4764761Y-2044807D01*
X4764761Y-2044807D02*
X4688571Y-2006712D01*
X4688571Y-2006712D02*
X4650476Y-1968617D01*
X4650476Y-1968617D02*
X4612380Y-1892426D01*
X4612380Y-1892426D02*
X4612380Y-1816236D01*
X4612380Y-1816236D02*
X4650476Y-1740045D01*
X4650476Y-1740045D02*
X4688571Y-1701950D01*
X4688571Y-1701950D02*
X4764761Y-1663855D01*
X4764761Y-1663855D02*
X4955238Y-1663855D01*
X4955238Y-1663855D02*
X5069523Y-1701950D01*
X5412381Y-2463855D02*
X5412381Y-1663855D01*
X5412381Y-1663855D02*
X5602857Y-1663855D01*
X5602857Y-1663855D02*
X5717143Y-1701950D01*
X5717143Y-1701950D02*
X5793333Y-1778140D01*
X5793333Y-1778140D02*
X5831428Y-1854331D01*
X5831428Y-1854331D02*
X5869524Y-2006712D01*
X5869524Y-2006712D02*
X5869524Y-2120998D01*
X5869524Y-2120998D02*
X5831428Y-2273379D01*
X5831428Y-2273379D02*
X5793333Y-2349569D01*
X5793333Y-2349569D02*
X5717143Y-2425760D01*
X5717143Y-2425760D02*
X5602857Y-2463855D01*
X5602857Y-2463855D02*
X5412381Y-2463855D01*
X6174285Y-1740045D02*
X6212381Y-1701950D01*
X6212381Y-1701950D02*
X6288571Y-1663855D01*
X6288571Y-1663855D02*
X6479047Y-1663855D01*
X6479047Y-1663855D02*
X6555238Y-1701950D01*
X6555238Y-1701950D02*
X6593333Y-1740045D01*
X6593333Y-1740045D02*
X6631428Y-1816236D01*
X6631428Y-1816236D02*
X6631428Y-1892426D01*
X6631428Y-1892426D02*
X6593333Y-2006712D01*
X6593333Y-2006712D02*
X6136190Y-2463855D01*
X6136190Y-2463855D02*
X6631428Y-2463855D01*
X421904Y-3044807D02*
X688570Y-3044807D01*
X802856Y-3463855D02*
X421904Y-3463855D01*
X421904Y-3463855D02*
X421904Y-2663855D01*
X421904Y-2663855D02*
X802856Y-2663855D01*
X1107618Y-3425760D02*
X1221904Y-3463855D01*
X1221904Y-3463855D02*
X1412380Y-3463855D01*
X1412380Y-3463855D02*
X1488571Y-3425760D01*
X1488571Y-3425760D02*
X1526666Y-3387664D01*
X1526666Y-3387664D02*
X1564761Y-3311474D01*
X1564761Y-3311474D02*
X1564761Y-3235283D01*
X1564761Y-3235283D02*
X1526666Y-3159093D01*
X1526666Y-3159093D02*
X1488571Y-3120998D01*
X1488571Y-3120998D02*
X1412380Y-3082902D01*
X1412380Y-3082902D02*
X1259999Y-3044807D01*
X1259999Y-3044807D02*
X1183809Y-3006712D01*
X1183809Y-3006712D02*
X1145714Y-2968617D01*
X1145714Y-2968617D02*
X1107618Y-2892426D01*
X1107618Y-2892426D02*
X1107618Y-2816236D01*
X1107618Y-2816236D02*
X1145714Y-2740045D01*
X1145714Y-2740045D02*
X1183809Y-2701950D01*
X1183809Y-2701950D02*
X1259999Y-2663855D01*
X1259999Y-2663855D02*
X1450476Y-2663855D01*
X1450476Y-2663855D02*
X1564761Y-2701950D01*
X1907619Y-3463855D02*
X1907619Y-2663855D01*
X1907619Y-2663855D02*
X2098095Y-2663855D01*
X2098095Y-2663855D02*
X2212381Y-2701950D01*
X2212381Y-2701950D02*
X2288571Y-2778140D01*
X2288571Y-2778140D02*
X2326666Y-2854331D01*
X2326666Y-2854331D02*
X2364762Y-3006712D01*
X2364762Y-3006712D02*
X2364762Y-3120998D01*
X2364762Y-3120998D02*
X2326666Y-3273379D01*
X2326666Y-3273379D02*
X2288571Y-3349569D01*
X2288571Y-3349569D02*
X2212381Y-3425760D01*
X2212381Y-3425760D02*
X2098095Y-3463855D01*
X2098095Y-3463855D02*
X1907619Y-3463855D01*
X2669523Y-3235283D02*
X3050476Y-3235283D01*
X2593333Y-3463855D02*
X2860000Y-2663855D01*
X2860000Y-2663855D02*
X3126666Y-3463855D01*
X3774285Y-3463855D02*
X3393333Y-3463855D01*
X3393333Y-3463855D02*
X3393333Y-2663855D01*
X4498095Y-3387664D02*
X4459999Y-3425760D01*
X4459999Y-3425760D02*
X4345714Y-3463855D01*
X4345714Y-3463855D02*
X4269523Y-3463855D01*
X4269523Y-3463855D02*
X4155237Y-3425760D01*
X4155237Y-3425760D02*
X4079047Y-3349569D01*
X4079047Y-3349569D02*
X4040952Y-3273379D01*
X4040952Y-3273379D02*
X4002856Y-3120998D01*
X4002856Y-3120998D02*
X4002856Y-3006712D01*
X4002856Y-3006712D02*
X4040952Y-2854331D01*
X4040952Y-2854331D02*
X4079047Y-2778140D01*
X4079047Y-2778140D02*
X4155237Y-2701950D01*
X4155237Y-2701950D02*
X4269523Y-2663855D01*
X4269523Y-2663855D02*
X4345714Y-2663855D01*
X4345714Y-2663855D02*
X4459999Y-2701950D01*
X4459999Y-2701950D02*
X4498095Y-2740045D01*
X5221904Y-3463855D02*
X4840952Y-3463855D01*
X4840952Y-3463855D02*
X4840952Y-2663855D01*
X5869523Y-2663855D02*
X5488571Y-2663855D01*
X5488571Y-2663855D02*
X5450475Y-3044807D01*
X5450475Y-3044807D02*
X5488571Y-3006712D01*
X5488571Y-3006712D02*
X5564761Y-2968617D01*
X5564761Y-2968617D02*
X5755237Y-2968617D01*
X5755237Y-2968617D02*
X5831428Y-3006712D01*
X5831428Y-3006712D02*
X5869523Y-3044807D01*
X5869523Y-3044807D02*
X5907618Y-3120998D01*
X5907618Y-3120998D02*
X5907618Y-3311474D01*
X5907618Y-3311474D02*
X5869523Y-3387664D01*
X5869523Y-3387664D02*
X5831428Y-3425760D01*
X5831428Y-3425760D02*
X5755237Y-3463855D01*
X5755237Y-3463855D02*
X5564761Y-3463855D01*
X5564761Y-3463855D02*
X5488571Y-3425760D01*
X5488571Y-3425760D02*
X5450475Y-3387664D01*
X6250476Y-3159093D02*
X6860000Y-3159093D01*
X7659999Y-3463855D02*
X7202856Y-3463855D01*
X7431428Y-3463855D02*
X7431428Y-2663855D01*
X7431428Y-2663855D02*
X7355237Y-2778140D01*
X7355237Y-2778140D02*
X7279047Y-2854331D01*
X7279047Y-2854331D02*
X7202856Y-2892426D01*
X8269523Y-3044807D02*
X8383809Y-3082902D01*
X8383809Y-3082902D02*
X8421904Y-3120998D01*
X8421904Y-3120998D02*
X8460000Y-3197188D01*
X8460000Y-3197188D02*
X8460000Y-3311474D01*
X8460000Y-3311474D02*
X8421904Y-3387664D01*
X8421904Y-3387664D02*
X8383809Y-3425760D01*
X8383809Y-3425760D02*
X8307619Y-3463855D01*
X8307619Y-3463855D02*
X8002857Y-3463855D01*
X8002857Y-3463855D02*
X8002857Y-2663855D01*
X8002857Y-2663855D02*
X8269523Y-2663855D01*
X8269523Y-2663855D02*
X8345714Y-2701950D01*
X8345714Y-2701950D02*
X8383809Y-2740045D01*
X8383809Y-2740045D02*
X8421904Y-2816236D01*
X8421904Y-2816236D02*
X8421904Y-2892426D01*
X8421904Y-2892426D02*
X8383809Y-2968617D01*
X8383809Y-2968617D02*
X8345714Y-3006712D01*
X8345714Y-3006712D02*
X8269523Y-3044807D01*
X8269523Y-3044807D02*
X8002857Y-3044807D01*
X8802857Y-3463855D02*
X8802857Y-2663855D01*
X8802857Y-2663855D02*
X9069523Y-3235283D01*
X9069523Y-3235283D02*
X9336190Y-2663855D01*
X9336190Y-2663855D02*
X9336190Y-3463855D01*
X9679047Y-2740045D02*
X9717143Y-2701950D01*
X9717143Y-2701950D02*
X9793333Y-2663855D01*
X9793333Y-2663855D02*
X9983809Y-2663855D01*
X9983809Y-2663855D02*
X10060000Y-2701950D01*
X10060000Y-2701950D02*
X10098095Y-2740045D01*
X10098095Y-2740045D02*
X10136190Y-2816236D01*
X10136190Y-2816236D02*
X10136190Y-2892426D01*
X10136190Y-2892426D02*
X10098095Y-3006712D01*
X10098095Y-3006712D02*
X9640952Y-3463855D01*
X9640952Y-3463855D02*
X10136190Y-3463855D01*
X34983333Y-4563855D02*
X34983333Y-5135283D01*
X34983333Y-5135283D02*
X34945238Y-5249569D01*
X34945238Y-5249569D02*
X34869047Y-5325760D01*
X34869047Y-5325760D02*
X34754762Y-5363855D01*
X34754762Y-5363855D02*
X34678571Y-5363855D01*
X35783333Y-5363855D02*
X35326190Y-5363855D01*
X35554762Y-5363855D02*
X35554762Y-4563855D01*
X35554762Y-4563855D02*
X35478571Y-4678140D01*
X35478571Y-4678140D02*
X35402381Y-4754331D01*
X35402381Y-4754331D02*
X35326190Y-4792426D01*
X33011903Y-4563855D02*
X32630951Y-4563855D01*
X32630951Y-4563855D02*
X32592855Y-4944807D01*
X32592855Y-4944807D02*
X32630951Y-4906712D01*
X32630951Y-4906712D02*
X32707141Y-4868617D01*
X32707141Y-4868617D02*
X32897617Y-4868617D01*
X32897617Y-4868617D02*
X32973808Y-4906712D01*
X32973808Y-4906712D02*
X33011903Y-4944807D01*
X33011903Y-4944807D02*
X33049998Y-5020998D01*
X33049998Y-5020998D02*
X33049998Y-5211474D01*
X33049998Y-5211474D02*
X33011903Y-5287664D01*
X33011903Y-5287664D02*
X32973808Y-5325760D01*
X32973808Y-5325760D02*
X32897617Y-5363855D01*
X32897617Y-5363855D02*
X32707141Y-5363855D01*
X32707141Y-5363855D02*
X32630951Y-5325760D01*
X32630951Y-5325760D02*
X32592855Y-5287664D01*
X33545237Y-4563855D02*
X33621427Y-4563855D01*
X33621427Y-4563855D02*
X33697618Y-4601950D01*
X33697618Y-4601950D02*
X33735713Y-4640045D01*
X33735713Y-4640045D02*
X33773808Y-4716236D01*
X33773808Y-4716236D02*
X33811903Y-4868617D01*
X33811903Y-4868617D02*
X33811903Y-5059093D01*
X33811903Y-5059093D02*
X33773808Y-5211474D01*
X33773808Y-5211474D02*
X33735713Y-5287664D01*
X33735713Y-5287664D02*
X33697618Y-5325760D01*
X33697618Y-5325760D02*
X33621427Y-5363855D01*
X33621427Y-5363855D02*
X33545237Y-5363855D01*
X33545237Y-5363855D02*
X33469046Y-5325760D01*
X33469046Y-5325760D02*
X33430951Y-5287664D01*
X33430951Y-5287664D02*
X33392856Y-5211474D01*
X33392856Y-5211474D02*
X33354760Y-5059093D01*
X33354760Y-5059093D02*
X33354760Y-4868617D01*
X33354760Y-4868617D02*
X33392856Y-4716236D01*
X33392856Y-4716236D02*
X33430951Y-4640045D01*
X33430951Y-4640045D02*
X33469046Y-4601950D01*
X33469046Y-4601950D02*
X33545237Y-4563855D01*
X34078570Y-4563855D02*
X34573808Y-4563855D01*
X34573808Y-4563855D02*
X34307142Y-4868617D01*
X34307142Y-4868617D02*
X34421427Y-4868617D01*
X34421427Y-4868617D02*
X34497618Y-4906712D01*
X34497618Y-4906712D02*
X34535713Y-4944807D01*
X34535713Y-4944807D02*
X34573808Y-5020998D01*
X34573808Y-5020998D02*
X34573808Y-5211474D01*
X34573808Y-5211474D02*
X34535713Y-5287664D01*
X34535713Y-5287664D02*
X34497618Y-5325760D01*
X34497618Y-5325760D02*
X34421427Y-5363855D01*
X34421427Y-5363855D02*
X34192856Y-5363855D01*
X34192856Y-5363855D02*
X34116665Y-5325760D01*
X34116665Y-5325760D02*
X34078570Y-5287664D01*
X35259523Y-4830521D02*
X35259523Y-5363855D01*
X35069047Y-4525760D02*
X34878570Y-5097188D01*
X34878570Y-5097188D02*
X35373809Y-5097188D01*
X35792856Y-4906712D02*
X35716666Y-4868617D01*
X35716666Y-4868617D02*
X35678571Y-4830521D01*
X35678571Y-4830521D02*
X35640475Y-4754331D01*
X35640475Y-4754331D02*
X35640475Y-4716236D01*
X35640475Y-4716236D02*
X35678571Y-4640045D01*
X35678571Y-4640045D02*
X35716666Y-4601950D01*
X35716666Y-4601950D02*
X35792856Y-4563855D01*
X35792856Y-4563855D02*
X35945237Y-4563855D01*
X35945237Y-4563855D02*
X36021428Y-4601950D01*
X36021428Y-4601950D02*
X36059523Y-4640045D01*
X36059523Y-4640045D02*
X36097618Y-4716236D01*
X36097618Y-4716236D02*
X36097618Y-4754331D01*
X36097618Y-4754331D02*
X36059523Y-4830521D01*
X36059523Y-4830521D02*
X36021428Y-4868617D01*
X36021428Y-4868617D02*
X35945237Y-4906712D01*
X35945237Y-4906712D02*
X35792856Y-4906712D01*
X35792856Y-4906712D02*
X35716666Y-4944807D01*
X35716666Y-4944807D02*
X35678571Y-4982902D01*
X35678571Y-4982902D02*
X35640475Y-5059093D01*
X35640475Y-5059093D02*
X35640475Y-5211474D01*
X35640475Y-5211474D02*
X35678571Y-5287664D01*
X35678571Y-5287664D02*
X35716666Y-5325760D01*
X35716666Y-5325760D02*
X35792856Y-5363855D01*
X35792856Y-5363855D02*
X35945237Y-5363855D01*
X35945237Y-5363855D02*
X36021428Y-5325760D01*
X36021428Y-5325760D02*
X36059523Y-5287664D01*
X36059523Y-5287664D02*
X36097618Y-5211474D01*
X36097618Y-5211474D02*
X36097618Y-5059093D01*
X36097618Y-5059093D02*
X36059523Y-4982902D01*
X36059523Y-4982902D02*
X36021428Y-4944807D01*
X36021428Y-4944807D02*
X35945237Y-4906712D01*
X36592857Y-4563855D02*
X36669047Y-4563855D01*
X36669047Y-4563855D02*
X36745238Y-4601950D01*
X36745238Y-4601950D02*
X36783333Y-4640045D01*
X36783333Y-4640045D02*
X36821428Y-4716236D01*
X36821428Y-4716236D02*
X36859523Y-4868617D01*
X36859523Y-4868617D02*
X36859523Y-5059093D01*
X36859523Y-5059093D02*
X36821428Y-5211474D01*
X36821428Y-5211474D02*
X36783333Y-5287664D01*
X36783333Y-5287664D02*
X36745238Y-5325760D01*
X36745238Y-5325760D02*
X36669047Y-5363855D01*
X36669047Y-5363855D02*
X36592857Y-5363855D01*
X36592857Y-5363855D02*
X36516666Y-5325760D01*
X36516666Y-5325760D02*
X36478571Y-5287664D01*
X36478571Y-5287664D02*
X36440476Y-5211474D01*
X36440476Y-5211474D02*
X36402380Y-5059093D01*
X36402380Y-5059093D02*
X36402380Y-4868617D01*
X36402380Y-4868617D02*
X36440476Y-4716236D01*
X36440476Y-4716236D02*
X36478571Y-4640045D01*
X36478571Y-4640045D02*
X36516666Y-4601950D01*
X36516666Y-4601950D02*
X36592857Y-4563855D01*
X37354762Y-4563855D02*
X37430952Y-4563855D01*
X37430952Y-4563855D02*
X37507143Y-4601950D01*
X37507143Y-4601950D02*
X37545238Y-4640045D01*
X37545238Y-4640045D02*
X37583333Y-4716236D01*
X37583333Y-4716236D02*
X37621428Y-4868617D01*
X37621428Y-4868617D02*
X37621428Y-5059093D01*
X37621428Y-5059093D02*
X37583333Y-5211474D01*
X37583333Y-5211474D02*
X37545238Y-5287664D01*
X37545238Y-5287664D02*
X37507143Y-5325760D01*
X37507143Y-5325760D02*
X37430952Y-5363855D01*
X37430952Y-5363855D02*
X37354762Y-5363855D01*
X37354762Y-5363855D02*
X37278571Y-5325760D01*
X37278571Y-5325760D02*
X37240476Y-5287664D01*
X37240476Y-5287664D02*
X37202381Y-5211474D01*
X37202381Y-5211474D02*
X37164285Y-5059093D01*
X37164285Y-5059093D02*
X37164285Y-4868617D01*
X37164285Y-4868617D02*
X37202381Y-4716236D01*
X37202381Y-4716236D02*
X37240476Y-4640045D01*
X37240476Y-4640045D02*
X37278571Y-4601950D01*
X37278571Y-4601950D02*
X37354762Y-4563855D01*
X37926190Y-4640045D02*
X37964286Y-4601950D01*
X37964286Y-4601950D02*
X38040476Y-4563855D01*
X38040476Y-4563855D02*
X38230952Y-4563855D01*
X38230952Y-4563855D02*
X38307143Y-4601950D01*
X38307143Y-4601950D02*
X38345238Y-4640045D01*
X38345238Y-4640045D02*
X38383333Y-4716236D01*
X38383333Y-4716236D02*
X38383333Y-4792426D01*
X38383333Y-4792426D02*
X38345238Y-4906712D01*
X38345238Y-4906712D02*
X37888095Y-5363855D01*
X37888095Y-5363855D02*
X38383333Y-5363855D01*
X39069048Y-4830521D02*
X39069048Y-5363855D01*
X38878572Y-4525760D02*
X38688095Y-5097188D01*
X38688095Y-5097188D02*
X39183334Y-5097188D01*
X39640477Y-4563855D02*
X39716667Y-4563855D01*
X39716667Y-4563855D02*
X39792858Y-4601950D01*
X39792858Y-4601950D02*
X39830953Y-4640045D01*
X39830953Y-4640045D02*
X39869048Y-4716236D01*
X39869048Y-4716236D02*
X39907143Y-4868617D01*
X39907143Y-4868617D02*
X39907143Y-5059093D01*
X39907143Y-5059093D02*
X39869048Y-5211474D01*
X39869048Y-5211474D02*
X39830953Y-5287664D01*
X39830953Y-5287664D02*
X39792858Y-5325760D01*
X39792858Y-5325760D02*
X39716667Y-5363855D01*
X39716667Y-5363855D02*
X39640477Y-5363855D01*
X39640477Y-5363855D02*
X39564286Y-5325760D01*
X39564286Y-5325760D02*
X39526191Y-5287664D01*
X39526191Y-5287664D02*
X39488096Y-5211474D01*
X39488096Y-5211474D02*
X39450000Y-5059093D01*
X39450000Y-5059093D02*
X39450000Y-4868617D01*
X39450000Y-4868617D02*
X39488096Y-4716236D01*
X39488096Y-4716236D02*
X39526191Y-4640045D01*
X39526191Y-4640045D02*
X39564286Y-4601950D01*
X39564286Y-4601950D02*
X39640477Y-4563855D01*
X22211904Y-544807D02*
X22478570Y-544807D01*
X22592856Y-963855D02*
X22211904Y-963855D01*
X22211904Y-963855D02*
X22211904Y-163855D01*
X22211904Y-163855D02*
X22592856Y-163855D01*
X22897618Y-925760D02*
X23011904Y-963855D01*
X23011904Y-963855D02*
X23202380Y-963855D01*
X23202380Y-963855D02*
X23278571Y-925760D01*
X23278571Y-925760D02*
X23316666Y-887664D01*
X23316666Y-887664D02*
X23354761Y-811474D01*
X23354761Y-811474D02*
X23354761Y-735283D01*
X23354761Y-735283D02*
X23316666Y-659093D01*
X23316666Y-659093D02*
X23278571Y-620998D01*
X23278571Y-620998D02*
X23202380Y-582902D01*
X23202380Y-582902D02*
X23049999Y-544807D01*
X23049999Y-544807D02*
X22973809Y-506712D01*
X22973809Y-506712D02*
X22935714Y-468617D01*
X22935714Y-468617D02*
X22897618Y-392426D01*
X22897618Y-392426D02*
X22897618Y-316236D01*
X22897618Y-316236D02*
X22935714Y-240045D01*
X22935714Y-240045D02*
X22973809Y-201950D01*
X22973809Y-201950D02*
X23049999Y-163855D01*
X23049999Y-163855D02*
X23240476Y-163855D01*
X23240476Y-163855D02*
X23354761Y-201950D01*
X23697619Y-963855D02*
X23697619Y-163855D01*
X23697619Y-163855D02*
X23888095Y-163855D01*
X23888095Y-163855D02*
X24002381Y-201950D01*
X24002381Y-201950D02*
X24078571Y-278140D01*
X24078571Y-278140D02*
X24116666Y-354331D01*
X24116666Y-354331D02*
X24154762Y-506712D01*
X24154762Y-506712D02*
X24154762Y-620998D01*
X24154762Y-620998D02*
X24116666Y-773379D01*
X24116666Y-773379D02*
X24078571Y-849569D01*
X24078571Y-849569D02*
X24002381Y-925760D01*
X24002381Y-925760D02*
X23888095Y-963855D01*
X23888095Y-963855D02*
X23697619Y-963855D01*
X24459523Y-735283D02*
X24840476Y-735283D01*
X24383333Y-963855D02*
X24650000Y-163855D01*
X24650000Y-163855D02*
X24916666Y-963855D01*
X25564285Y-963855D02*
X25183333Y-963855D01*
X25183333Y-963855D02*
X25183333Y-163855D01*
X26288095Y-887664D02*
X26249999Y-925760D01*
X26249999Y-925760D02*
X26135714Y-963855D01*
X26135714Y-963855D02*
X26059523Y-963855D01*
X26059523Y-963855D02*
X25945237Y-925760D01*
X25945237Y-925760D02*
X25869047Y-849569D01*
X25869047Y-849569D02*
X25830952Y-773379D01*
X25830952Y-773379D02*
X25792856Y-620998D01*
X25792856Y-620998D02*
X25792856Y-506712D01*
X25792856Y-506712D02*
X25830952Y-354331D01*
X25830952Y-354331D02*
X25869047Y-278140D01*
X25869047Y-278140D02*
X25945237Y-201950D01*
X25945237Y-201950D02*
X26059523Y-163855D01*
X26059523Y-163855D02*
X26135714Y-163855D01*
X26135714Y-163855D02*
X26249999Y-201950D01*
X26249999Y-201950D02*
X26288095Y-240045D01*
X27011904Y-963855D02*
X26630952Y-963855D01*
X26630952Y-963855D02*
X26630952Y-163855D01*
X27659523Y-163855D02*
X27278571Y-163855D01*
X27278571Y-163855D02*
X27240475Y-544807D01*
X27240475Y-544807D02*
X27278571Y-506712D01*
X27278571Y-506712D02*
X27354761Y-468617D01*
X27354761Y-468617D02*
X27545237Y-468617D01*
X27545237Y-468617D02*
X27621428Y-506712D01*
X27621428Y-506712D02*
X27659523Y-544807D01*
X27659523Y-544807D02*
X27697618Y-620998D01*
X27697618Y-620998D02*
X27697618Y-811474D01*
X27697618Y-811474D02*
X27659523Y-887664D01*
X27659523Y-887664D02*
X27621428Y-925760D01*
X27621428Y-925760D02*
X27545237Y-963855D01*
X27545237Y-963855D02*
X27354761Y-963855D01*
X27354761Y-963855D02*
X27278571Y-925760D01*
X27278571Y-925760D02*
X27240475Y-887664D01*
X28040476Y-659093D02*
X28650000Y-659093D01*
X29449999Y-963855D02*
X28992856Y-963855D01*
X29221428Y-963855D02*
X29221428Y-163855D01*
X29221428Y-163855D02*
X29145237Y-278140D01*
X29145237Y-278140D02*
X29069047Y-354331D01*
X29069047Y-354331D02*
X28992856Y-392426D01*
X30059523Y-544807D02*
X30173809Y-582902D01*
X30173809Y-582902D02*
X30211904Y-620998D01*
X30211904Y-620998D02*
X30250000Y-697188D01*
X30250000Y-697188D02*
X30250000Y-811474D01*
X30250000Y-811474D02*
X30211904Y-887664D01*
X30211904Y-887664D02*
X30173809Y-925760D01*
X30173809Y-925760D02*
X30097619Y-963855D01*
X30097619Y-963855D02*
X29792857Y-963855D01*
X29792857Y-963855D02*
X29792857Y-163855D01*
X29792857Y-163855D02*
X30059523Y-163855D01*
X30059523Y-163855D02*
X30135714Y-201950D01*
X30135714Y-201950D02*
X30173809Y-240045D01*
X30173809Y-240045D02*
X30211904Y-316236D01*
X30211904Y-316236D02*
X30211904Y-392426D01*
X30211904Y-392426D02*
X30173809Y-468617D01*
X30173809Y-468617D02*
X30135714Y-506712D01*
X30135714Y-506712D02*
X30059523Y-544807D01*
X30059523Y-544807D02*
X29792857Y-544807D01*
X30592857Y-963855D02*
X30592857Y-163855D01*
X30592857Y-163855D02*
X30859523Y-735283D01*
X30859523Y-735283D02*
X31126190Y-163855D01*
X31126190Y-163855D02*
X31126190Y-963855D01*
X31469047Y-240045D02*
X31507143Y-201950D01*
X31507143Y-201950D02*
X31583333Y-163855D01*
X31583333Y-163855D02*
X31773809Y-163855D01*
X31773809Y-163855D02*
X31850000Y-201950D01*
X31850000Y-201950D02*
X31888095Y-240045D01*
X31888095Y-240045D02*
X31926190Y-316236D01*
X31926190Y-316236D02*
X31926190Y-392426D01*
X31926190Y-392426D02*
X31888095Y-506712D01*
X31888095Y-506712D02*
X31430952Y-963855D01*
X31430952Y-963855D02*
X31926190Y-963855D01*
X14140067Y-3863855D02*
X13873400Y-3482902D01*
X13682924Y-3863855D02*
X13682924Y-3063855D01*
X13682924Y-3063855D02*
X13987686Y-3063855D01*
X13987686Y-3063855D02*
X14063876Y-3101950D01*
X14063876Y-3101950D02*
X14101971Y-3140045D01*
X14101971Y-3140045D02*
X14140067Y-3216236D01*
X14140067Y-3216236D02*
X14140067Y-3330521D01*
X14140067Y-3330521D02*
X14101971Y-3406712D01*
X14101971Y-3406712D02*
X14063876Y-3444807D01*
X14063876Y-3444807D02*
X13987686Y-3482902D01*
X13987686Y-3482902D02*
X13682924Y-3482902D01*
X14406733Y-3063855D02*
X14940067Y-3063855D01*
X14940067Y-3063855D02*
X14597209Y-3863855D01*
X13416256Y-4406712D02*
X13340066Y-4368617D01*
X13340066Y-4368617D02*
X13301971Y-4330521D01*
X13301971Y-4330521D02*
X13263875Y-4254331D01*
X13263875Y-4254331D02*
X13263875Y-4216236D01*
X13263875Y-4216236D02*
X13301971Y-4140045D01*
X13301971Y-4140045D02*
X13340066Y-4101950D01*
X13340066Y-4101950D02*
X13416256Y-4063855D01*
X13416256Y-4063855D02*
X13568637Y-4063855D01*
X13568637Y-4063855D02*
X13644828Y-4101950D01*
X13644828Y-4101950D02*
X13682923Y-4140045D01*
X13682923Y-4140045D02*
X13721018Y-4216236D01*
X13721018Y-4216236D02*
X13721018Y-4254331D01*
X13721018Y-4254331D02*
X13682923Y-4330521D01*
X13682923Y-4330521D02*
X13644828Y-4368617D01*
X13644828Y-4368617D02*
X13568637Y-4406712D01*
X13568637Y-4406712D02*
X13416256Y-4406712D01*
X13416256Y-4406712D02*
X13340066Y-4444807D01*
X13340066Y-4444807D02*
X13301971Y-4482902D01*
X13301971Y-4482902D02*
X13263875Y-4559093D01*
X13263875Y-4559093D02*
X13263875Y-4711474D01*
X13263875Y-4711474D02*
X13301971Y-4787664D01*
X13301971Y-4787664D02*
X13340066Y-4825760D01*
X13340066Y-4825760D02*
X13416256Y-4863855D01*
X13416256Y-4863855D02*
X13568637Y-4863855D01*
X13568637Y-4863855D02*
X13644828Y-4825760D01*
X13644828Y-4825760D02*
X13682923Y-4787664D01*
X13682923Y-4787664D02*
X13721018Y-4711474D01*
X13721018Y-4711474D02*
X13721018Y-4559093D01*
X13721018Y-4559093D02*
X13682923Y-4482902D01*
X13682923Y-4482902D02*
X13644828Y-4444807D01*
X13644828Y-4444807D02*
X13568637Y-4406712D01*
X14025780Y-4140045D02*
X14063876Y-4101950D01*
X14063876Y-4101950D02*
X14140066Y-4063855D01*
X14140066Y-4063855D02*
X14330542Y-4063855D01*
X14330542Y-4063855D02*
X14406733Y-4101950D01*
X14406733Y-4101950D02*
X14444828Y-4140045D01*
X14444828Y-4140045D02*
X14482923Y-4216236D01*
X14482923Y-4216236D02*
X14482923Y-4292426D01*
X14482923Y-4292426D02*
X14444828Y-4406712D01*
X14444828Y-4406712D02*
X13987685Y-4863855D01*
X13987685Y-4863855D02*
X14482923Y-4863855D01*
X15282924Y-4863855D02*
X15016257Y-4482902D01*
X14825781Y-4863855D02*
X14825781Y-4063855D01*
X14825781Y-4063855D02*
X15130543Y-4063855D01*
X15130543Y-4063855D02*
X15206733Y-4101950D01*
X15206733Y-4101950D02*
X15244828Y-4140045D01*
X15244828Y-4140045D02*
X15282924Y-4216236D01*
X15282924Y-4216236D02*
X15282924Y-4330521D01*
X15282924Y-4330521D02*
X15244828Y-4406712D01*
X15244828Y-4406712D02*
X15206733Y-4444807D01*
X15206733Y-4444807D02*
X15130543Y-4482902D01*
X15130543Y-4482902D02*
X14825781Y-4482902D01*
X2990475Y-7325760D02*
X3104761Y-7363855D01*
X3104761Y-7363855D02*
X3295237Y-7363855D01*
X3295237Y-7363855D02*
X3371428Y-7325760D01*
X3371428Y-7325760D02*
X3409523Y-7287664D01*
X3409523Y-7287664D02*
X3447618Y-7211474D01*
X3447618Y-7211474D02*
X3447618Y-7135283D01*
X3447618Y-7135283D02*
X3409523Y-7059093D01*
X3409523Y-7059093D02*
X3371428Y-7020998D01*
X3371428Y-7020998D02*
X3295237Y-6982902D01*
X3295237Y-6982902D02*
X3142856Y-6944807D01*
X3142856Y-6944807D02*
X3066666Y-6906712D01*
X3066666Y-6906712D02*
X3028571Y-6868617D01*
X3028571Y-6868617D02*
X2990475Y-6792426D01*
X2990475Y-6792426D02*
X2990475Y-6716236D01*
X2990475Y-6716236D02*
X3028571Y-6640045D01*
X3028571Y-6640045D02*
X3066666Y-6601950D01*
X3066666Y-6601950D02*
X3142856Y-6563855D01*
X3142856Y-6563855D02*
X3333333Y-6563855D01*
X3333333Y-6563855D02*
X3447618Y-6601950D01*
X3790476Y-7363855D02*
X3790476Y-6563855D01*
X3790476Y-6563855D02*
X4095238Y-6563855D01*
X4095238Y-6563855D02*
X4171428Y-6601950D01*
X4171428Y-6601950D02*
X4209523Y-6640045D01*
X4209523Y-6640045D02*
X4247619Y-6716236D01*
X4247619Y-6716236D02*
X4247619Y-6830521D01*
X4247619Y-6830521D02*
X4209523Y-6906712D01*
X4209523Y-6906712D02*
X4171428Y-6944807D01*
X4171428Y-6944807D02*
X4095238Y-6982902D01*
X4095238Y-6982902D02*
X3790476Y-6982902D01*
X4552380Y-6640045D02*
X4590476Y-6601950D01*
X4590476Y-6601950D02*
X4666666Y-6563855D01*
X4666666Y-6563855D02*
X4857142Y-6563855D01*
X4857142Y-6563855D02*
X4933333Y-6601950D01*
X4933333Y-6601950D02*
X4971428Y-6640045D01*
X4971428Y-6640045D02*
X5009523Y-6716236D01*
X5009523Y-6716236D02*
X5009523Y-6792426D01*
X5009523Y-6792426D02*
X4971428Y-6906712D01*
X4971428Y-6906712D02*
X4514285Y-7363855D01*
X4514285Y-7363855D02*
X5009523Y-7363855D01*
X-1600001Y-7563855D02*
X-1066667Y-7563855D01*
X-1066667Y-7563855D02*
X-1409525Y-8363855D01*
X-609524Y-7563855D02*
X-533334Y-7563855D01*
X-533334Y-7563855D02*
X-457143Y-7601950D01*
X-457143Y-7601950D02*
X-419048Y-7640045D01*
X-419048Y-7640045D02*
X-380953Y-7716236D01*
X-380953Y-7716236D02*
X-342858Y-7868617D01*
X-342858Y-7868617D02*
X-342858Y-8059093D01*
X-342858Y-8059093D02*
X-380953Y-8211474D01*
X-380953Y-8211474D02*
X-419048Y-8287664D01*
X-419048Y-8287664D02*
X-457143Y-8325760D01*
X-457143Y-8325760D02*
X-533334Y-8363855D01*
X-533334Y-8363855D02*
X-609524Y-8363855D01*
X-609524Y-8363855D02*
X-685715Y-8325760D01*
X-685715Y-8325760D02*
X-723810Y-8287664D01*
X-723810Y-8287664D02*
X-761905Y-8211474D01*
X-761905Y-8211474D02*
X-800001Y-8059093D01*
X-800001Y-8059093D02*
X-800001Y-7868617D01*
X-800001Y-7868617D02*
X-761905Y-7716236D01*
X-761905Y-7716236D02*
X-723810Y-7640045D01*
X-723810Y-7640045D02*
X-685715Y-7601950D01*
X-685715Y-7601950D02*
X-609524Y-7563855D01*
X38094Y-8363855D02*
X190475Y-8363855D01*
X190475Y-8363855D02*
X266665Y-8325760D01*
X266665Y-8325760D02*
X304761Y-8287664D01*
X304761Y-8287664D02*
X380951Y-8173379D01*
X380951Y-8173379D02*
X419046Y-8020998D01*
X419046Y-8020998D02*
X419046Y-7716236D01*
X419046Y-7716236D02*
X380951Y-7640045D01*
X380951Y-7640045D02*
X342856Y-7601950D01*
X342856Y-7601950D02*
X266665Y-7563855D01*
X266665Y-7563855D02*
X114284Y-7563855D01*
X114284Y-7563855D02*
X38094Y-7601950D01*
X38094Y-7601950D02*
X0Y-7640045D01*
X0Y-7640045D02*
X-38096Y-7716236D01*
X-38096Y-7716236D02*
X-38096Y-7906712D01*
X-38096Y-7906712D02*
X0Y-7982902D01*
X0Y-7982902D02*
X38094Y-8020998D01*
X38094Y-8020998D02*
X114284Y-8059093D01*
X114284Y-8059093D02*
X266665Y-8059093D01*
X266665Y-8059093D02*
X342856Y-8020998D01*
X342856Y-8020998D02*
X380951Y-7982902D01*
X380951Y-7982902D02*
X419046Y-7906712D01*
X1180951Y-8363855D02*
X723808Y-8363855D01*
X952380Y-8363855D02*
X952380Y-7563855D01*
X952380Y-7563855D02*
X876189Y-7678140D01*
X876189Y-7678140D02*
X799999Y-7754331D01*
X799999Y-7754331D02*
X723808Y-7792426D01*
X1904761Y-7563855D02*
X1523809Y-7563855D01*
X1523809Y-7563855D02*
X1485713Y-7944807D01*
X1485713Y-7944807D02*
X1523809Y-7906712D01*
X1523809Y-7906712D02*
X1599999Y-7868617D01*
X1599999Y-7868617D02*
X1790475Y-7868617D01*
X1790475Y-7868617D02*
X1866666Y-7906712D01*
X1866666Y-7906712D02*
X1904761Y-7944807D01*
X1904761Y-7944807D02*
X1942856Y-8020998D01*
X1942856Y-8020998D02*
X1942856Y-8211474D01*
X1942856Y-8211474D02*
X1904761Y-8287664D01*
X1904761Y-8287664D02*
X1866666Y-8325760D01*
X1866666Y-8325760D02*
X1790475Y-8363855D01*
X1790475Y-8363855D02*
X1599999Y-8363855D01*
X1599999Y-8363855D02*
X1523809Y-8325760D01*
X1523809Y-8325760D02*
X1485713Y-8287664D01*
X2666666Y-7563855D02*
X2285714Y-7563855D01*
X2285714Y-7563855D02*
X2247618Y-7944807D01*
X2247618Y-7944807D02*
X2285714Y-7906712D01*
X2285714Y-7906712D02*
X2361904Y-7868617D01*
X2361904Y-7868617D02*
X2552380Y-7868617D01*
X2552380Y-7868617D02*
X2628571Y-7906712D01*
X2628571Y-7906712D02*
X2666666Y-7944807D01*
X2666666Y-7944807D02*
X2704761Y-8020998D01*
X2704761Y-8020998D02*
X2704761Y-8211474D01*
X2704761Y-8211474D02*
X2666666Y-8287664D01*
X2666666Y-8287664D02*
X2628571Y-8325760D01*
X2628571Y-8325760D02*
X2552380Y-8363855D01*
X2552380Y-8363855D02*
X2361904Y-8363855D01*
X2361904Y-8363855D02*
X2285714Y-8325760D01*
X2285714Y-8325760D02*
X2247618Y-8287664D01*
X3200000Y-7563855D02*
X3276190Y-7563855D01*
X3276190Y-7563855D02*
X3352381Y-7601950D01*
X3352381Y-7601950D02*
X3390476Y-7640045D01*
X3390476Y-7640045D02*
X3428571Y-7716236D01*
X3428571Y-7716236D02*
X3466666Y-7868617D01*
X3466666Y-7868617D02*
X3466666Y-8059093D01*
X3466666Y-8059093D02*
X3428571Y-8211474D01*
X3428571Y-8211474D02*
X3390476Y-8287664D01*
X3390476Y-8287664D02*
X3352381Y-8325760D01*
X3352381Y-8325760D02*
X3276190Y-8363855D01*
X3276190Y-8363855D02*
X3200000Y-8363855D01*
X3200000Y-8363855D02*
X3123809Y-8325760D01*
X3123809Y-8325760D02*
X3085714Y-8287664D01*
X3085714Y-8287664D02*
X3047619Y-8211474D01*
X3047619Y-8211474D02*
X3009523Y-8059093D01*
X3009523Y-8059093D02*
X3009523Y-7868617D01*
X3009523Y-7868617D02*
X3047619Y-7716236D01*
X3047619Y-7716236D02*
X3085714Y-7640045D01*
X3085714Y-7640045D02*
X3123809Y-7601950D01*
X3123809Y-7601950D02*
X3200000Y-7563855D01*
X3961905Y-7563855D02*
X4038095Y-7563855D01*
X4038095Y-7563855D02*
X4114286Y-7601950D01*
X4114286Y-7601950D02*
X4152381Y-7640045D01*
X4152381Y-7640045D02*
X4190476Y-7716236D01*
X4190476Y-7716236D02*
X4228571Y-7868617D01*
X4228571Y-7868617D02*
X4228571Y-8059093D01*
X4228571Y-8059093D02*
X4190476Y-8211474D01*
X4190476Y-8211474D02*
X4152381Y-8287664D01*
X4152381Y-8287664D02*
X4114286Y-8325760D01*
X4114286Y-8325760D02*
X4038095Y-8363855D01*
X4038095Y-8363855D02*
X3961905Y-8363855D01*
X3961905Y-8363855D02*
X3885714Y-8325760D01*
X3885714Y-8325760D02*
X3847619Y-8287664D01*
X3847619Y-8287664D02*
X3809524Y-8211474D01*
X3809524Y-8211474D02*
X3771428Y-8059093D01*
X3771428Y-8059093D02*
X3771428Y-7868617D01*
X3771428Y-7868617D02*
X3809524Y-7716236D01*
X3809524Y-7716236D02*
X3847619Y-7640045D01*
X3847619Y-7640045D02*
X3885714Y-7601950D01*
X3885714Y-7601950D02*
X3961905Y-7563855D01*
X4990476Y-8363855D02*
X4533333Y-8363855D01*
X4761905Y-8363855D02*
X4761905Y-7563855D01*
X4761905Y-7563855D02*
X4685714Y-7678140D01*
X4685714Y-7678140D02*
X4609524Y-7754331D01*
X4609524Y-7754331D02*
X4533333Y-7792426D01*
X5676191Y-7563855D02*
X5523810Y-7563855D01*
X5523810Y-7563855D02*
X5447619Y-7601950D01*
X5447619Y-7601950D02*
X5409524Y-7640045D01*
X5409524Y-7640045D02*
X5333334Y-7754331D01*
X5333334Y-7754331D02*
X5295238Y-7906712D01*
X5295238Y-7906712D02*
X5295238Y-8211474D01*
X5295238Y-8211474D02*
X5333334Y-8287664D01*
X5333334Y-8287664D02*
X5371429Y-8325760D01*
X5371429Y-8325760D02*
X5447619Y-8363855D01*
X5447619Y-8363855D02*
X5600000Y-8363855D01*
X5600000Y-8363855D02*
X5676191Y-8325760D01*
X5676191Y-8325760D02*
X5714286Y-8287664D01*
X5714286Y-8287664D02*
X5752381Y-8211474D01*
X5752381Y-8211474D02*
X5752381Y-8020998D01*
X5752381Y-8020998D02*
X5714286Y-7944807D01*
X5714286Y-7944807D02*
X5676191Y-7906712D01*
X5676191Y-7906712D02*
X5600000Y-7868617D01*
X5600000Y-7868617D02*
X5447619Y-7868617D01*
X5447619Y-7868617D02*
X5371429Y-7906712D01*
X5371429Y-7906712D02*
X5333334Y-7944807D01*
X5333334Y-7944807D02*
X5295238Y-8020998D01*
X6514286Y-8363855D02*
X6057143Y-8363855D01*
X6285715Y-8363855D02*
X6285715Y-7563855D01*
X6285715Y-7563855D02*
X6209524Y-7678140D01*
X6209524Y-7678140D02*
X6133334Y-7754331D01*
X6133334Y-7754331D02*
X6057143Y-7792426D01*
X7009525Y-7563855D02*
X7085715Y-7563855D01*
X7085715Y-7563855D02*
X7161906Y-7601950D01*
X7161906Y-7601950D02*
X7200001Y-7640045D01*
X7200001Y-7640045D02*
X7238096Y-7716236D01*
X7238096Y-7716236D02*
X7276191Y-7868617D01*
X7276191Y-7868617D02*
X7276191Y-8059093D01*
X7276191Y-8059093D02*
X7238096Y-8211474D01*
X7238096Y-8211474D02*
X7200001Y-8287664D01*
X7200001Y-8287664D02*
X7161906Y-8325760D01*
X7161906Y-8325760D02*
X7085715Y-8363855D01*
X7085715Y-8363855D02*
X7009525Y-8363855D01*
X7009525Y-8363855D02*
X6933334Y-8325760D01*
X6933334Y-8325760D02*
X6895239Y-8287664D01*
X6895239Y-8287664D02*
X6857144Y-8211474D01*
X6857144Y-8211474D02*
X6819048Y-8059093D01*
X6819048Y-8059093D02*
X6819048Y-7868617D01*
X6819048Y-7868617D02*
X6857144Y-7716236D01*
X6857144Y-7716236D02*
X6895239Y-7640045D01*
X6895239Y-7640045D02*
X6933334Y-7601950D01*
X6933334Y-7601950D02*
X7009525Y-7563855D01*
X7771430Y-7563855D02*
X7847620Y-7563855D01*
X7847620Y-7563855D02*
X7923811Y-7601950D01*
X7923811Y-7601950D02*
X7961906Y-7640045D01*
X7961906Y-7640045D02*
X8000001Y-7716236D01*
X8000001Y-7716236D02*
X8038096Y-7868617D01*
X8038096Y-7868617D02*
X8038096Y-8059093D01*
X8038096Y-8059093D02*
X8000001Y-8211474D01*
X8000001Y-8211474D02*
X7961906Y-8287664D01*
X7961906Y-8287664D02*
X7923811Y-8325760D01*
X7923811Y-8325760D02*
X7847620Y-8363855D01*
X7847620Y-8363855D02*
X7771430Y-8363855D01*
X7771430Y-8363855D02*
X7695239Y-8325760D01*
X7695239Y-8325760D02*
X7657144Y-8287664D01*
X7657144Y-8287664D02*
X7619049Y-8211474D01*
X7619049Y-8211474D02*
X7580953Y-8059093D01*
X7580953Y-8059093D02*
X7580953Y-7868617D01*
X7580953Y-7868617D02*
X7619049Y-7716236D01*
X7619049Y-7716236D02*
X7657144Y-7640045D01*
X7657144Y-7640045D02*
X7695239Y-7601950D01*
X7695239Y-7601950D02*
X7771430Y-7563855D01*
X8533335Y-7563855D02*
X8609525Y-7563855D01*
X8609525Y-7563855D02*
X8685716Y-7601950D01*
X8685716Y-7601950D02*
X8723811Y-7640045D01*
X8723811Y-7640045D02*
X8761906Y-7716236D01*
X8761906Y-7716236D02*
X8800001Y-7868617D01*
X8800001Y-7868617D02*
X8800001Y-8059093D01*
X8800001Y-8059093D02*
X8761906Y-8211474D01*
X8761906Y-8211474D02*
X8723811Y-8287664D01*
X8723811Y-8287664D02*
X8685716Y-8325760D01*
X8685716Y-8325760D02*
X8609525Y-8363855D01*
X8609525Y-8363855D02*
X8533335Y-8363855D01*
X8533335Y-8363855D02*
X8457144Y-8325760D01*
X8457144Y-8325760D02*
X8419049Y-8287664D01*
X8419049Y-8287664D02*
X8380954Y-8211474D01*
X8380954Y-8211474D02*
X8342858Y-8059093D01*
X8342858Y-8059093D02*
X8342858Y-7868617D01*
X8342858Y-7868617D02*
X8380954Y-7716236D01*
X8380954Y-7716236D02*
X8419049Y-7640045D01*
X8419049Y-7640045D02*
X8457144Y-7601950D01*
X8457144Y-7601950D02*
X8533335Y-7563855D01*
X9485716Y-7830521D02*
X9485716Y-8363855D01*
X9295240Y-7525760D02*
X9104763Y-8097188D01*
X9104763Y-8097188D02*
X9600002Y-8097188D01*
X6856667Y-2949064D02*
X6818571Y-2987160D01*
X6818571Y-2987160D02*
X6704286Y-3025255D01*
X6704286Y-3025255D02*
X6628095Y-3025255D01*
X6628095Y-3025255D02*
X6513809Y-2987160D01*
X6513809Y-2987160D02*
X6437619Y-2910969D01*
X6437619Y-2910969D02*
X6399524Y-2834779D01*
X6399524Y-2834779D02*
X6361428Y-2682398D01*
X6361428Y-2682398D02*
X6361428Y-2568112D01*
X6361428Y-2568112D02*
X6399524Y-2415731D01*
X6399524Y-2415731D02*
X6437619Y-2339540D01*
X6437619Y-2339540D02*
X6513809Y-2263350D01*
X6513809Y-2263350D02*
X6628095Y-2225255D01*
X6628095Y-2225255D02*
X6704286Y-2225255D01*
X6704286Y-2225255D02*
X6818571Y-2263350D01*
X6818571Y-2263350D02*
X6856667Y-2301445D01*
X7161428Y-2301445D02*
X7199524Y-2263350D01*
X7199524Y-2263350D02*
X7275714Y-2225255D01*
X7275714Y-2225255D02*
X7466190Y-2225255D01*
X7466190Y-2225255D02*
X7542381Y-2263350D01*
X7542381Y-2263350D02*
X7580476Y-2301445D01*
X7580476Y-2301445D02*
X7618571Y-2377636D01*
X7618571Y-2377636D02*
X7618571Y-2453826D01*
X7618571Y-2453826D02*
X7580476Y-2568112D01*
X7580476Y-2568112D02*
X7123333Y-3025255D01*
X7123333Y-3025255D02*
X7618571Y-3025255D01*
X6751904Y-3025255D02*
X6294761Y-3025255D01*
X6523333Y-3025255D02*
X6523333Y-2225255D01*
X6523333Y-2225255D02*
X6447142Y-2339540D01*
X6447142Y-2339540D02*
X6370952Y-2415731D01*
X6370952Y-2415731D02*
X6294761Y-2453826D01*
X7247143Y-2225255D02*
X7323333Y-2225255D01*
X7323333Y-2225255D02*
X7399524Y-2263350D01*
X7399524Y-2263350D02*
X7437619Y-2301445D01*
X7437619Y-2301445D02*
X7475714Y-2377636D01*
X7475714Y-2377636D02*
X7513809Y-2530017D01*
X7513809Y-2530017D02*
X7513809Y-2720493D01*
X7513809Y-2720493D02*
X7475714Y-2872874D01*
X7475714Y-2872874D02*
X7437619Y-2949064D01*
X7437619Y-2949064D02*
X7399524Y-2987160D01*
X7399524Y-2987160D02*
X7323333Y-3025255D01*
X7323333Y-3025255D02*
X7247143Y-3025255D01*
X7247143Y-3025255D02*
X7170952Y-2987160D01*
X7170952Y-2987160D02*
X7132857Y-2949064D01*
X7132857Y-2949064D02*
X7094762Y-2872874D01*
X7094762Y-2872874D02*
X7056666Y-2720493D01*
X7056666Y-2720493D02*
X7056666Y-2530017D01*
X7056666Y-2530017D02*
X7094762Y-2377636D01*
X7094762Y-2377636D02*
X7132857Y-2301445D01*
X7132857Y-2301445D02*
X7170952Y-2263350D01*
X7170952Y-2263350D02*
X7247143Y-2225255D01*
X8009048Y-2225255D02*
X8085238Y-2225255D01*
X8085238Y-2225255D02*
X8161429Y-2263350D01*
X8161429Y-2263350D02*
X8199524Y-2301445D01*
X8199524Y-2301445D02*
X8237619Y-2377636D01*
X8237619Y-2377636D02*
X8275714Y-2530017D01*
X8275714Y-2530017D02*
X8275714Y-2720493D01*
X8275714Y-2720493D02*
X8237619Y-2872874D01*
X8237619Y-2872874D02*
X8199524Y-2949064D01*
X8199524Y-2949064D02*
X8161429Y-2987160D01*
X8161429Y-2987160D02*
X8085238Y-3025255D01*
X8085238Y-3025255D02*
X8009048Y-3025255D01*
X8009048Y-3025255D02*
X7932857Y-2987160D01*
X7932857Y-2987160D02*
X7894762Y-2949064D01*
X7894762Y-2949064D02*
X7856667Y-2872874D01*
X7856667Y-2872874D02*
X7818571Y-2720493D01*
X7818571Y-2720493D02*
X7818571Y-2530017D01*
X7818571Y-2530017D02*
X7856667Y-2377636D01*
X7856667Y-2377636D02*
X7894762Y-2301445D01*
X7894762Y-2301445D02*
X7932857Y-2263350D01*
X7932857Y-2263350D02*
X8009048Y-2225255D01*
X8618572Y-2491921D02*
X8618572Y-3025255D01*
X8618572Y-2568112D02*
X8656667Y-2530017D01*
X8656667Y-2530017D02*
X8732857Y-2491921D01*
X8732857Y-2491921D02*
X8847143Y-2491921D01*
X8847143Y-2491921D02*
X8923334Y-2530017D01*
X8923334Y-2530017D02*
X8961429Y-2606207D01*
X8961429Y-2606207D02*
X8961429Y-3025255D01*
X9609048Y-2606207D02*
X9342382Y-2606207D01*
X9342382Y-3025255D02*
X9342382Y-2225255D01*
X9342382Y-2225255D02*
X9723334Y-2225255D01*
X9399998Y-7563855D02*
X9933332Y-7563855D01*
X9933332Y-7563855D02*
X9590474Y-8363855D01*
X10390475Y-7563855D02*
X10466665Y-7563855D01*
X10466665Y-7563855D02*
X10542856Y-7601950D01*
X10542856Y-7601950D02*
X10580951Y-7640045D01*
X10580951Y-7640045D02*
X10619046Y-7716236D01*
X10619046Y-7716236D02*
X10657141Y-7868617D01*
X10657141Y-7868617D02*
X10657141Y-8059093D01*
X10657141Y-8059093D02*
X10619046Y-8211474D01*
X10619046Y-8211474D02*
X10580951Y-8287664D01*
X10580951Y-8287664D02*
X10542856Y-8325760D01*
X10542856Y-8325760D02*
X10466665Y-8363855D01*
X10466665Y-8363855D02*
X10390475Y-8363855D01*
X10390475Y-8363855D02*
X10314284Y-8325760D01*
X10314284Y-8325760D02*
X10276189Y-8287664D01*
X10276189Y-8287664D02*
X10238094Y-8211474D01*
X10238094Y-8211474D02*
X10199998Y-8059093D01*
X10199998Y-8059093D02*
X10199998Y-7868617D01*
X10199998Y-7868617D02*
X10238094Y-7716236D01*
X10238094Y-7716236D02*
X10276189Y-7640045D01*
X10276189Y-7640045D02*
X10314284Y-7601950D01*
X10314284Y-7601950D02*
X10390475Y-7563855D01*
X11038094Y-8363855D02*
X11190475Y-8363855D01*
X11190475Y-8363855D02*
X11266665Y-8325760D01*
X11266665Y-8325760D02*
X11304761Y-8287664D01*
X11304761Y-8287664D02*
X11380951Y-8173379D01*
X11380951Y-8173379D02*
X11419046Y-8020998D01*
X11419046Y-8020998D02*
X11419046Y-7716236D01*
X11419046Y-7716236D02*
X11380951Y-7640045D01*
X11380951Y-7640045D02*
X11342856Y-7601950D01*
X11342856Y-7601950D02*
X11266665Y-7563855D01*
X11266665Y-7563855D02*
X11114284Y-7563855D01*
X11114284Y-7563855D02*
X11038094Y-7601950D01*
X11038094Y-7601950D02*
X10999999Y-7640045D01*
X10999999Y-7640045D02*
X10961903Y-7716236D01*
X10961903Y-7716236D02*
X10961903Y-7906712D01*
X10961903Y-7906712D02*
X10999999Y-7982902D01*
X10999999Y-7982902D02*
X11038094Y-8020998D01*
X11038094Y-8020998D02*
X11114284Y-8059093D01*
X11114284Y-8059093D02*
X11266665Y-8059093D01*
X11266665Y-8059093D02*
X11342856Y-8020998D01*
X11342856Y-8020998D02*
X11380951Y-7982902D01*
X11380951Y-7982902D02*
X11419046Y-7906712D01*
X12180951Y-8363855D02*
X11723808Y-8363855D01*
X11952380Y-8363855D02*
X11952380Y-7563855D01*
X11952380Y-7563855D02*
X11876189Y-7678140D01*
X11876189Y-7678140D02*
X11799999Y-7754331D01*
X11799999Y-7754331D02*
X11723808Y-7792426D01*
X12904761Y-7563855D02*
X12523809Y-7563855D01*
X12523809Y-7563855D02*
X12485713Y-7944807D01*
X12485713Y-7944807D02*
X12523809Y-7906712D01*
X12523809Y-7906712D02*
X12599999Y-7868617D01*
X12599999Y-7868617D02*
X12790475Y-7868617D01*
X12790475Y-7868617D02*
X12866666Y-7906712D01*
X12866666Y-7906712D02*
X12904761Y-7944807D01*
X12904761Y-7944807D02*
X12942856Y-8020998D01*
X12942856Y-8020998D02*
X12942856Y-8211474D01*
X12942856Y-8211474D02*
X12904761Y-8287664D01*
X12904761Y-8287664D02*
X12866666Y-8325760D01*
X12866666Y-8325760D02*
X12790475Y-8363855D01*
X12790475Y-8363855D02*
X12599999Y-8363855D01*
X12599999Y-8363855D02*
X12523809Y-8325760D01*
X12523809Y-8325760D02*
X12485713Y-8287664D01*
X13666666Y-7563855D02*
X13285714Y-7563855D01*
X13285714Y-7563855D02*
X13247618Y-7944807D01*
X13247618Y-7944807D02*
X13285714Y-7906712D01*
X13285714Y-7906712D02*
X13361904Y-7868617D01*
X13361904Y-7868617D02*
X13552380Y-7868617D01*
X13552380Y-7868617D02*
X13628571Y-7906712D01*
X13628571Y-7906712D02*
X13666666Y-7944807D01*
X13666666Y-7944807D02*
X13704761Y-8020998D01*
X13704761Y-8020998D02*
X13704761Y-8211474D01*
X13704761Y-8211474D02*
X13666666Y-8287664D01*
X13666666Y-8287664D02*
X13628571Y-8325760D01*
X13628571Y-8325760D02*
X13552380Y-8363855D01*
X13552380Y-8363855D02*
X13361904Y-8363855D01*
X13361904Y-8363855D02*
X13285714Y-8325760D01*
X13285714Y-8325760D02*
X13247618Y-8287664D01*
X14200000Y-7563855D02*
X14276190Y-7563855D01*
X14276190Y-7563855D02*
X14352381Y-7601950D01*
X14352381Y-7601950D02*
X14390476Y-7640045D01*
X14390476Y-7640045D02*
X14428571Y-7716236D01*
X14428571Y-7716236D02*
X14466666Y-7868617D01*
X14466666Y-7868617D02*
X14466666Y-8059093D01*
X14466666Y-8059093D02*
X14428571Y-8211474D01*
X14428571Y-8211474D02*
X14390476Y-8287664D01*
X14390476Y-8287664D02*
X14352381Y-8325760D01*
X14352381Y-8325760D02*
X14276190Y-8363855D01*
X14276190Y-8363855D02*
X14200000Y-8363855D01*
X14200000Y-8363855D02*
X14123809Y-8325760D01*
X14123809Y-8325760D02*
X14085714Y-8287664D01*
X14085714Y-8287664D02*
X14047619Y-8211474D01*
X14047619Y-8211474D02*
X14009523Y-8059093D01*
X14009523Y-8059093D02*
X14009523Y-7868617D01*
X14009523Y-7868617D02*
X14047619Y-7716236D01*
X14047619Y-7716236D02*
X14085714Y-7640045D01*
X14085714Y-7640045D02*
X14123809Y-7601950D01*
X14123809Y-7601950D02*
X14200000Y-7563855D01*
X14961905Y-7563855D02*
X15038095Y-7563855D01*
X15038095Y-7563855D02*
X15114286Y-7601950D01*
X15114286Y-7601950D02*
X15152381Y-7640045D01*
X15152381Y-7640045D02*
X15190476Y-7716236D01*
X15190476Y-7716236D02*
X15228571Y-7868617D01*
X15228571Y-7868617D02*
X15228571Y-8059093D01*
X15228571Y-8059093D02*
X15190476Y-8211474D01*
X15190476Y-8211474D02*
X15152381Y-8287664D01*
X15152381Y-8287664D02*
X15114286Y-8325760D01*
X15114286Y-8325760D02*
X15038095Y-8363855D01*
X15038095Y-8363855D02*
X14961905Y-8363855D01*
X14961905Y-8363855D02*
X14885714Y-8325760D01*
X14885714Y-8325760D02*
X14847619Y-8287664D01*
X14847619Y-8287664D02*
X14809524Y-8211474D01*
X14809524Y-8211474D02*
X14771428Y-8059093D01*
X14771428Y-8059093D02*
X14771428Y-7868617D01*
X14771428Y-7868617D02*
X14809524Y-7716236D01*
X14809524Y-7716236D02*
X14847619Y-7640045D01*
X14847619Y-7640045D02*
X14885714Y-7601950D01*
X14885714Y-7601950D02*
X14961905Y-7563855D01*
X15990476Y-8363855D02*
X15533333Y-8363855D01*
X15761905Y-8363855D02*
X15761905Y-7563855D01*
X15761905Y-7563855D02*
X15685714Y-7678140D01*
X15685714Y-7678140D02*
X15609524Y-7754331D01*
X15609524Y-7754331D02*
X15533333Y-7792426D01*
X16676191Y-7563855D02*
X16523810Y-7563855D01*
X16523810Y-7563855D02*
X16447619Y-7601950D01*
X16447619Y-7601950D02*
X16409524Y-7640045D01*
X16409524Y-7640045D02*
X16333334Y-7754331D01*
X16333334Y-7754331D02*
X16295238Y-7906712D01*
X16295238Y-7906712D02*
X16295238Y-8211474D01*
X16295238Y-8211474D02*
X16333334Y-8287664D01*
X16333334Y-8287664D02*
X16371429Y-8325760D01*
X16371429Y-8325760D02*
X16447619Y-8363855D01*
X16447619Y-8363855D02*
X16600000Y-8363855D01*
X16600000Y-8363855D02*
X16676191Y-8325760D01*
X16676191Y-8325760D02*
X16714286Y-8287664D01*
X16714286Y-8287664D02*
X16752381Y-8211474D01*
X16752381Y-8211474D02*
X16752381Y-8020998D01*
X16752381Y-8020998D02*
X16714286Y-7944807D01*
X16714286Y-7944807D02*
X16676191Y-7906712D01*
X16676191Y-7906712D02*
X16600000Y-7868617D01*
X16600000Y-7868617D02*
X16447619Y-7868617D01*
X16447619Y-7868617D02*
X16371429Y-7906712D01*
X16371429Y-7906712D02*
X16333334Y-7944807D01*
X16333334Y-7944807D02*
X16295238Y-8020998D01*
X17514286Y-8363855D02*
X17057143Y-8363855D01*
X17285715Y-8363855D02*
X17285715Y-7563855D01*
X17285715Y-7563855D02*
X17209524Y-7678140D01*
X17209524Y-7678140D02*
X17133334Y-7754331D01*
X17133334Y-7754331D02*
X17057143Y-7792426D01*
X18009525Y-7563855D02*
X18085715Y-7563855D01*
X18085715Y-7563855D02*
X18161906Y-7601950D01*
X18161906Y-7601950D02*
X18200001Y-7640045D01*
X18200001Y-7640045D02*
X18238096Y-7716236D01*
X18238096Y-7716236D02*
X18276191Y-7868617D01*
X18276191Y-7868617D02*
X18276191Y-8059093D01*
X18276191Y-8059093D02*
X18238096Y-8211474D01*
X18238096Y-8211474D02*
X18200001Y-8287664D01*
X18200001Y-8287664D02*
X18161906Y-8325760D01*
X18161906Y-8325760D02*
X18085715Y-8363855D01*
X18085715Y-8363855D02*
X18009525Y-8363855D01*
X18009525Y-8363855D02*
X17933334Y-8325760D01*
X17933334Y-8325760D02*
X17895239Y-8287664D01*
X17895239Y-8287664D02*
X17857144Y-8211474D01*
X17857144Y-8211474D02*
X17819048Y-8059093D01*
X17819048Y-8059093D02*
X17819048Y-7868617D01*
X17819048Y-7868617D02*
X17857144Y-7716236D01*
X17857144Y-7716236D02*
X17895239Y-7640045D01*
X17895239Y-7640045D02*
X17933334Y-7601950D01*
X17933334Y-7601950D02*
X18009525Y-7563855D01*
X18771430Y-7563855D02*
X18847620Y-7563855D01*
X18847620Y-7563855D02*
X18923811Y-7601950D01*
X18923811Y-7601950D02*
X18961906Y-7640045D01*
X18961906Y-7640045D02*
X19000001Y-7716236D01*
X19000001Y-7716236D02*
X19038096Y-7868617D01*
X19038096Y-7868617D02*
X19038096Y-8059093D01*
X19038096Y-8059093D02*
X19000001Y-8211474D01*
X19000001Y-8211474D02*
X18961906Y-8287664D01*
X18961906Y-8287664D02*
X18923811Y-8325760D01*
X18923811Y-8325760D02*
X18847620Y-8363855D01*
X18847620Y-8363855D02*
X18771430Y-8363855D01*
X18771430Y-8363855D02*
X18695239Y-8325760D01*
X18695239Y-8325760D02*
X18657144Y-8287664D01*
X18657144Y-8287664D02*
X18619049Y-8211474D01*
X18619049Y-8211474D02*
X18580953Y-8059093D01*
X18580953Y-8059093D02*
X18580953Y-7868617D01*
X18580953Y-7868617D02*
X18619049Y-7716236D01*
X18619049Y-7716236D02*
X18657144Y-7640045D01*
X18657144Y-7640045D02*
X18695239Y-7601950D01*
X18695239Y-7601950D02*
X18771430Y-7563855D01*
X19533335Y-7563855D02*
X19609525Y-7563855D01*
X19609525Y-7563855D02*
X19685716Y-7601950D01*
X19685716Y-7601950D02*
X19723811Y-7640045D01*
X19723811Y-7640045D02*
X19761906Y-7716236D01*
X19761906Y-7716236D02*
X19800001Y-7868617D01*
X19800001Y-7868617D02*
X19800001Y-8059093D01*
X19800001Y-8059093D02*
X19761906Y-8211474D01*
X19761906Y-8211474D02*
X19723811Y-8287664D01*
X19723811Y-8287664D02*
X19685716Y-8325760D01*
X19685716Y-8325760D02*
X19609525Y-8363855D01*
X19609525Y-8363855D02*
X19533335Y-8363855D01*
X19533335Y-8363855D02*
X19457144Y-8325760D01*
X19457144Y-8325760D02*
X19419049Y-8287664D01*
X19419049Y-8287664D02*
X19380954Y-8211474D01*
X19380954Y-8211474D02*
X19342858Y-8059093D01*
X19342858Y-8059093D02*
X19342858Y-7868617D01*
X19342858Y-7868617D02*
X19380954Y-7716236D01*
X19380954Y-7716236D02*
X19419049Y-7640045D01*
X19419049Y-7640045D02*
X19457144Y-7601950D01*
X19457144Y-7601950D02*
X19533335Y-7563855D01*
X20485716Y-7830521D02*
X20485716Y-8363855D01*
X20295240Y-7525760D02*
X20104763Y-8097188D01*
X20104763Y-8097188D02*
X20600002Y-8097188D01*
X6178570Y-7927607D02*
X6292856Y-7965702D01*
X6292856Y-7965702D02*
X6330951Y-8003798D01*
X6330951Y-8003798D02*
X6369047Y-8079988D01*
X6369047Y-8079988D02*
X6369047Y-8194274D01*
X6369047Y-8194274D02*
X6330951Y-8270464D01*
X6330951Y-8270464D02*
X6292856Y-8308560D01*
X6292856Y-8308560D02*
X6216666Y-8346655D01*
X6216666Y-8346655D02*
X5911904Y-8346655D01*
X5911904Y-8346655D02*
X5911904Y-7546655D01*
X5911904Y-7546655D02*
X6178570Y-7546655D01*
X6178570Y-7546655D02*
X6254761Y-7584750D01*
X6254761Y-7584750D02*
X6292856Y-7622845D01*
X6292856Y-7622845D02*
X6330951Y-7699036D01*
X6330951Y-7699036D02*
X6330951Y-7775226D01*
X6330951Y-7775226D02*
X6292856Y-7851417D01*
X6292856Y-7851417D02*
X6254761Y-7889512D01*
X6254761Y-7889512D02*
X6178570Y-7927607D01*
X6178570Y-7927607D02*
X5911904Y-7927607D01*
X7092856Y-8346655D02*
X6711904Y-8346655D01*
X6711904Y-8346655D02*
X6711904Y-7546655D01*
X7359523Y-8041893D02*
X7969047Y-8041893D01*
X8349999Y-8346655D02*
X8349999Y-7546655D01*
X8349999Y-7927607D02*
X8807142Y-7927607D01*
X8807142Y-8346655D02*
X8807142Y-7546655D01*
X9607141Y-7584750D02*
X9530951Y-7546655D01*
X9530951Y-7546655D02*
X9416665Y-7546655D01*
X9416665Y-7546655D02*
X9302379Y-7584750D01*
X9302379Y-7584750D02*
X9226189Y-7660940D01*
X9226189Y-7660940D02*
X9188094Y-7737131D01*
X9188094Y-7737131D02*
X9149998Y-7889512D01*
X9149998Y-7889512D02*
X9149998Y-8003798D01*
X9149998Y-8003798D02*
X9188094Y-8156179D01*
X9188094Y-8156179D02*
X9226189Y-8232369D01*
X9226189Y-8232369D02*
X9302379Y-8308560D01*
X9302379Y-8308560D02*
X9416665Y-8346655D01*
X9416665Y-8346655D02*
X9492856Y-8346655D01*
X9492856Y-8346655D02*
X9607141Y-8308560D01*
X9607141Y-8308560D02*
X9645237Y-8270464D01*
X9645237Y-8270464D02*
X9645237Y-8003798D01*
X9645237Y-8003798D02*
X9492856Y-8003798D01*
X10140475Y-7546655D02*
X10216665Y-7546655D01*
X10216665Y-7546655D02*
X10292856Y-7584750D01*
X10292856Y-7584750D02*
X10330951Y-7622845D01*
X10330951Y-7622845D02*
X10369046Y-7699036D01*
X10369046Y-7699036D02*
X10407141Y-7851417D01*
X10407141Y-7851417D02*
X10407141Y-8041893D01*
X10407141Y-8041893D02*
X10369046Y-8194274D01*
X10369046Y-8194274D02*
X10330951Y-8270464D01*
X10330951Y-8270464D02*
X10292856Y-8308560D01*
X10292856Y-8308560D02*
X10216665Y-8346655D01*
X10216665Y-8346655D02*
X10140475Y-8346655D01*
X10140475Y-8346655D02*
X10064284Y-8308560D01*
X10064284Y-8308560D02*
X10026189Y-8270464D01*
X10026189Y-8270464D02*
X9988094Y-8194274D01*
X9988094Y-8194274D02*
X9949998Y-8041893D01*
X9949998Y-8041893D02*
X9949998Y-7851417D01*
X9949998Y-7851417D02*
X9988094Y-7699036D01*
X9988094Y-7699036D02*
X10026189Y-7622845D01*
X10026189Y-7622845D02*
X10064284Y-7584750D01*
X10064284Y-7584750D02*
X10140475Y-7546655D01*
X10749999Y-7927607D02*
X11016665Y-7927607D01*
X11130951Y-8346655D02*
X10749999Y-8346655D01*
X10749999Y-8346655D02*
X10749999Y-7546655D01*
X10749999Y-7546655D02*
X11130951Y-7546655D01*
X11892856Y-8346655D02*
X11435713Y-8346655D01*
X11664285Y-8346655D02*
X11664285Y-7546655D01*
X11664285Y-7546655D02*
X11588094Y-7660940D01*
X11588094Y-7660940D02*
X11511904Y-7737131D01*
X11511904Y-7737131D02*
X11435713Y-7775226D01*
X12159523Y-7546655D02*
X12654761Y-7546655D01*
X12654761Y-7546655D02*
X12388095Y-7851417D01*
X12388095Y-7851417D02*
X12502380Y-7851417D01*
X12502380Y-7851417D02*
X12578571Y-7889512D01*
X12578571Y-7889512D02*
X12616666Y-7927607D01*
X12616666Y-7927607D02*
X12654761Y-8003798D01*
X12654761Y-8003798D02*
X12654761Y-8194274D01*
X12654761Y-8194274D02*
X12616666Y-8270464D01*
X12616666Y-8270464D02*
X12578571Y-8308560D01*
X12578571Y-8308560D02*
X12502380Y-8346655D01*
X12502380Y-8346655D02*
X12273809Y-8346655D01*
X12273809Y-8346655D02*
X12197618Y-8308560D01*
X12197618Y-8308560D02*
X12159523Y-8270464D01*
X13340476Y-7546655D02*
X13188095Y-7546655D01*
X13188095Y-7546655D02*
X13111904Y-7584750D01*
X13111904Y-7584750D02*
X13073809Y-7622845D01*
X13073809Y-7622845D02*
X12997619Y-7737131D01*
X12997619Y-7737131D02*
X12959523Y-7889512D01*
X12959523Y-7889512D02*
X12959523Y-8194274D01*
X12959523Y-8194274D02*
X12997619Y-8270464D01*
X12997619Y-8270464D02*
X13035714Y-8308560D01*
X13035714Y-8308560D02*
X13111904Y-8346655D01*
X13111904Y-8346655D02*
X13264285Y-8346655D01*
X13264285Y-8346655D02*
X13340476Y-8308560D01*
X13340476Y-8308560D02*
X13378571Y-8270464D01*
X13378571Y-8270464D02*
X13416666Y-8194274D01*
X13416666Y-8194274D02*
X13416666Y-8003798D01*
X13416666Y-8003798D02*
X13378571Y-7927607D01*
X13378571Y-7927607D02*
X13340476Y-7889512D01*
X13340476Y-7889512D02*
X13264285Y-7851417D01*
X13264285Y-7851417D02*
X13111904Y-7851417D01*
X13111904Y-7851417D02*
X13035714Y-7889512D01*
X13035714Y-7889512D02*
X12997619Y-7927607D01*
X12997619Y-7927607D02*
X12959523Y-8003798D01*
X13988095Y-7546655D02*
X13988095Y-8118083D01*
X13988095Y-8118083D02*
X13950000Y-8232369D01*
X13950000Y-8232369D02*
X13873809Y-8308560D01*
X13873809Y-8308560D02*
X13759524Y-8346655D01*
X13759524Y-8346655D02*
X13683333Y-8346655D01*
X14369048Y-8041893D02*
X14978572Y-8041893D01*
X15245238Y-7546655D02*
X15702381Y-7546655D01*
X15473809Y-8346655D02*
X15473809Y-7546655D01*
X16426191Y-8346655D02*
X16159524Y-7965702D01*
X15969048Y-8346655D02*
X15969048Y-7546655D01*
X15969048Y-7546655D02*
X16273810Y-7546655D01*
X16273810Y-7546655D02*
X16350000Y-7584750D01*
X16350000Y-7584750D02*
X16388095Y-7622845D01*
X16388095Y-7622845D02*
X16426191Y-7699036D01*
X16426191Y-7699036D02*
X16426191Y-7813321D01*
X16426191Y-7813321D02*
X16388095Y-7889512D01*
X16388095Y-7889512D02*
X16350000Y-7927607D01*
X16350000Y-7927607D02*
X16273810Y-7965702D01*
X16273810Y-7965702D02*
X15969048Y-7965702D01*
X17035714Y-7927607D02*
X17150000Y-7965702D01*
X17150000Y-7965702D02*
X17188095Y-8003798D01*
X17188095Y-8003798D02*
X17226191Y-8079988D01*
X17226191Y-8079988D02*
X17226191Y-8194274D01*
X17226191Y-8194274D02*
X17188095Y-8270464D01*
X17188095Y-8270464D02*
X17150000Y-8308560D01*
X17150000Y-8308560D02*
X17073810Y-8346655D01*
X17073810Y-8346655D02*
X16769048Y-8346655D01*
X16769048Y-8346655D02*
X16769048Y-7546655D01*
X16769048Y-7546655D02*
X17035714Y-7546655D01*
X17035714Y-7546655D02*
X17111905Y-7584750D01*
X17111905Y-7584750D02*
X17150000Y-7622845D01*
X17150000Y-7622845D02*
X17188095Y-7699036D01*
X17188095Y-7699036D02*
X17188095Y-7775226D01*
X17188095Y-7775226D02*
X17150000Y-7851417D01*
X17150000Y-7851417D02*
X17111905Y-7889512D01*
X17111905Y-7889512D02*
X17035714Y-7927607D01*
X17035714Y-7927607D02*
X16769048Y-7927607D01*
X2623809Y-7985855D02*
X2623809Y-7185855D01*
X3461904Y-7985855D02*
X3195237Y-7604902D01*
X3004761Y-7985855D02*
X3004761Y-7185855D01*
X3004761Y-7185855D02*
X3309523Y-7185855D01*
X3309523Y-7185855D02*
X3385713Y-7223950D01*
X3385713Y-7223950D02*
X3423808Y-7262045D01*
X3423808Y-7262045D02*
X3461904Y-7338236D01*
X3461904Y-7338236D02*
X3461904Y-7452521D01*
X3461904Y-7452521D02*
X3423808Y-7528712D01*
X3423808Y-7528712D02*
X3385713Y-7566807D01*
X3385713Y-7566807D02*
X3309523Y-7604902D01*
X3309523Y-7604902D02*
X3004761Y-7604902D01*
X4185713Y-7985855D02*
X3804761Y-7985855D01*
X3804761Y-7985855D02*
X3804761Y-7185855D01*
X4452380Y-7985855D02*
X4452380Y-7185855D01*
X4452380Y-7185855D02*
X4719046Y-7757283D01*
X4719046Y-7757283D02*
X4985713Y-7185855D01*
X4985713Y-7185855D02*
X4985713Y-7985855D01*
X5747618Y-7985855D02*
X5366666Y-7985855D01*
X5366666Y-7985855D02*
X5366666Y-7185855D01*
X6357142Y-7185855D02*
X6204761Y-7185855D01*
X6204761Y-7185855D02*
X6128570Y-7223950D01*
X6128570Y-7223950D02*
X6090475Y-7262045D01*
X6090475Y-7262045D02*
X6014285Y-7376331D01*
X6014285Y-7376331D02*
X5976189Y-7528712D01*
X5976189Y-7528712D02*
X5976189Y-7833474D01*
X5976189Y-7833474D02*
X6014285Y-7909664D01*
X6014285Y-7909664D02*
X6052380Y-7947760D01*
X6052380Y-7947760D02*
X6128570Y-7985855D01*
X6128570Y-7985855D02*
X6280951Y-7985855D01*
X6280951Y-7985855D02*
X6357142Y-7947760D01*
X6357142Y-7947760D02*
X6395237Y-7909664D01*
X6395237Y-7909664D02*
X6433332Y-7833474D01*
X6433332Y-7833474D02*
X6433332Y-7642998D01*
X6433332Y-7642998D02*
X6395237Y-7566807D01*
X6395237Y-7566807D02*
X6357142Y-7528712D01*
X6357142Y-7528712D02*
X6280951Y-7490617D01*
X6280951Y-7490617D02*
X6128570Y-7490617D01*
X6128570Y-7490617D02*
X6052380Y-7528712D01*
X6052380Y-7528712D02*
X6014285Y-7566807D01*
X6014285Y-7566807D02*
X5976189Y-7642998D01*
X6699999Y-7185855D02*
X7195237Y-7185855D01*
X7195237Y-7185855D02*
X6928571Y-7490617D01*
X6928571Y-7490617D02*
X7042856Y-7490617D01*
X7042856Y-7490617D02*
X7119047Y-7528712D01*
X7119047Y-7528712D02*
X7157142Y-7566807D01*
X7157142Y-7566807D02*
X7195237Y-7642998D01*
X7195237Y-7642998D02*
X7195237Y-7833474D01*
X7195237Y-7833474D02*
X7157142Y-7909664D01*
X7157142Y-7909664D02*
X7119047Y-7947760D01*
X7119047Y-7947760D02*
X7042856Y-7985855D01*
X7042856Y-7985855D02*
X6814285Y-7985855D01*
X6814285Y-7985855D02*
X6738094Y-7947760D01*
X6738094Y-7947760D02*
X6699999Y-7909664D01*
X7880952Y-7452521D02*
X7880952Y-7985855D01*
X7690476Y-7147760D02*
X7499999Y-7719188D01*
X7499999Y-7719188D02*
X7995238Y-7719188D01*
X8642857Y-7452521D02*
X8642857Y-7985855D01*
X8452381Y-7147760D02*
X8261904Y-7719188D01*
X8261904Y-7719188D02*
X8757143Y-7719188D01*
X8947619Y-7185855D02*
X9404762Y-7185855D01*
X9176190Y-7985855D02*
X9176190Y-7185855D01*
X10128572Y-7985855D02*
X9861905Y-7604902D01*
X9671429Y-7985855D02*
X9671429Y-7185855D01*
X9671429Y-7185855D02*
X9976191Y-7185855D01*
X9976191Y-7185855D02*
X10052381Y-7223950D01*
X10052381Y-7223950D02*
X10090476Y-7262045D01*
X10090476Y-7262045D02*
X10128572Y-7338236D01*
X10128572Y-7338236D02*
X10128572Y-7452521D01*
X10128572Y-7452521D02*
X10090476Y-7528712D01*
X10090476Y-7528712D02*
X10052381Y-7566807D01*
X10052381Y-7566807D02*
X9976191Y-7604902D01*
X9976191Y-7604902D02*
X9671429Y-7604902D01*
X10471429Y-7985855D02*
X10471429Y-7185855D01*
X10471429Y-7185855D02*
X10776191Y-7185855D01*
X10776191Y-7185855D02*
X10852381Y-7223950D01*
X10852381Y-7223950D02*
X10890476Y-7262045D01*
X10890476Y-7262045D02*
X10928572Y-7338236D01*
X10928572Y-7338236D02*
X10928572Y-7452521D01*
X10928572Y-7452521D02*
X10890476Y-7528712D01*
X10890476Y-7528712D02*
X10852381Y-7566807D01*
X10852381Y-7566807D02*
X10776191Y-7604902D01*
X10776191Y-7604902D02*
X10471429Y-7604902D01*
X11538095Y-7566807D02*
X11652381Y-7604902D01*
X11652381Y-7604902D02*
X11690476Y-7642998D01*
X11690476Y-7642998D02*
X11728572Y-7719188D01*
X11728572Y-7719188D02*
X11728572Y-7833474D01*
X11728572Y-7833474D02*
X11690476Y-7909664D01*
X11690476Y-7909664D02*
X11652381Y-7947760D01*
X11652381Y-7947760D02*
X11576191Y-7985855D01*
X11576191Y-7985855D02*
X11271429Y-7985855D01*
X11271429Y-7985855D02*
X11271429Y-7185855D01*
X11271429Y-7185855D02*
X11538095Y-7185855D01*
X11538095Y-7185855D02*
X11614286Y-7223950D01*
X11614286Y-7223950D02*
X11652381Y-7262045D01*
X11652381Y-7262045D02*
X11690476Y-7338236D01*
X11690476Y-7338236D02*
X11690476Y-7414426D01*
X11690476Y-7414426D02*
X11652381Y-7490617D01*
X11652381Y-7490617D02*
X11614286Y-7528712D01*
X11614286Y-7528712D02*
X11538095Y-7566807D01*
X11538095Y-7566807D02*
X11271429Y-7566807D01*
X12338095Y-7566807D02*
X12071429Y-7566807D01*
X12071429Y-7985855D02*
X12071429Y-7185855D01*
X12071429Y-7185855D02*
X12452381Y-7185855D01*
X13441666Y-3418655D02*
X12984523Y-3418655D01*
X13213095Y-3418655D02*
X13213095Y-2618655D01*
X13213095Y-2618655D02*
X13136904Y-2732940D01*
X13136904Y-2732940D02*
X13060714Y-2809131D01*
X13060714Y-2809131D02*
X12984523Y-2847226D01*
X13936905Y-2618655D02*
X14013095Y-2618655D01*
X14013095Y-2618655D02*
X14089286Y-2656750D01*
X14089286Y-2656750D02*
X14127381Y-2694845D01*
X14127381Y-2694845D02*
X14165476Y-2771036D01*
X14165476Y-2771036D02*
X14203571Y-2923417D01*
X14203571Y-2923417D02*
X14203571Y-3113893D01*
X14203571Y-3113893D02*
X14165476Y-3266274D01*
X14165476Y-3266274D02*
X14127381Y-3342464D01*
X14127381Y-3342464D02*
X14089286Y-3380560D01*
X14089286Y-3380560D02*
X14013095Y-3418655D01*
X14013095Y-3418655D02*
X13936905Y-3418655D01*
X13936905Y-3418655D02*
X13860714Y-3380560D01*
X13860714Y-3380560D02*
X13822619Y-3342464D01*
X13822619Y-3342464D02*
X13784524Y-3266274D01*
X13784524Y-3266274D02*
X13746428Y-3113893D01*
X13746428Y-3113893D02*
X13746428Y-2923417D01*
X13746428Y-2923417D02*
X13784524Y-2771036D01*
X13784524Y-2771036D02*
X13822619Y-2694845D01*
X13822619Y-2694845D02*
X13860714Y-2656750D01*
X13860714Y-2656750D02*
X13936905Y-2618655D01*
X14698810Y-2618655D02*
X14775000Y-2618655D01*
X14775000Y-2618655D02*
X14851191Y-2656750D01*
X14851191Y-2656750D02*
X14889286Y-2694845D01*
X14889286Y-2694845D02*
X14927381Y-2771036D01*
X14927381Y-2771036D02*
X14965476Y-2923417D01*
X14965476Y-2923417D02*
X14965476Y-3113893D01*
X14965476Y-3113893D02*
X14927381Y-3266274D01*
X14927381Y-3266274D02*
X14889286Y-3342464D01*
X14889286Y-3342464D02*
X14851191Y-3380560D01*
X14851191Y-3380560D02*
X14775000Y-3418655D01*
X14775000Y-3418655D02*
X14698810Y-3418655D01*
X14698810Y-3418655D02*
X14622619Y-3380560D01*
X14622619Y-3380560D02*
X14584524Y-3342464D01*
X14584524Y-3342464D02*
X14546429Y-3266274D01*
X14546429Y-3266274D02*
X14508333Y-3113893D01*
X14508333Y-3113893D02*
X14508333Y-2923417D01*
X14508333Y-2923417D02*
X14546429Y-2771036D01*
X14546429Y-2771036D02*
X14584524Y-2694845D01*
X14584524Y-2694845D02*
X14622619Y-2656750D01*
X14622619Y-2656750D02*
X14698810Y-2618655D01*
X15765477Y-3418655D02*
X15498810Y-3037702D01*
X15308334Y-3418655D02*
X15308334Y-2618655D01*
X15308334Y-2618655D02*
X15613096Y-2618655D01*
X15613096Y-2618655D02*
X15689286Y-2656750D01*
X15689286Y-2656750D02*
X15727381Y-2694845D01*
X15727381Y-2694845D02*
X15765477Y-2771036D01*
X15765477Y-2771036D02*
X15765477Y-2885321D01*
X15765477Y-2885321D02*
X15727381Y-2961512D01*
X15727381Y-2961512D02*
X15689286Y-2999607D01*
X15689286Y-2999607D02*
X15613096Y-3037702D01*
X15613096Y-3037702D02*
X15308334Y-3037702D01*
X30283332Y-8275760D02*
X30397618Y-8313855D01*
X30397618Y-8313855D02*
X30588094Y-8313855D01*
X30588094Y-8313855D02*
X30664285Y-8275760D01*
X30664285Y-8275760D02*
X30702380Y-8237664D01*
X30702380Y-8237664D02*
X30740475Y-8161474D01*
X30740475Y-8161474D02*
X30740475Y-8085283D01*
X30740475Y-8085283D02*
X30702380Y-8009093D01*
X30702380Y-8009093D02*
X30664285Y-7970998D01*
X30664285Y-7970998D02*
X30588094Y-7932902D01*
X30588094Y-7932902D02*
X30435713Y-7894807D01*
X30435713Y-7894807D02*
X30359523Y-7856712D01*
X30359523Y-7856712D02*
X30321428Y-7818617D01*
X30321428Y-7818617D02*
X30283332Y-7742426D01*
X30283332Y-7742426D02*
X30283332Y-7666236D01*
X30283332Y-7666236D02*
X30321428Y-7590045D01*
X30321428Y-7590045D02*
X30359523Y-7551950D01*
X30359523Y-7551950D02*
X30435713Y-7513855D01*
X30435713Y-7513855D02*
X30626190Y-7513855D01*
X30626190Y-7513855D02*
X30740475Y-7551950D01*
X31007142Y-7513855D02*
X31197618Y-8313855D01*
X31197618Y-8313855D02*
X31349999Y-7742426D01*
X31349999Y-7742426D02*
X31502380Y-8313855D01*
X31502380Y-8313855D02*
X31692857Y-7513855D01*
X31997619Y-8313855D02*
X31997619Y-7513855D01*
X31997619Y-7513855D02*
X32188095Y-7513855D01*
X32188095Y-7513855D02*
X32302381Y-7551950D01*
X32302381Y-7551950D02*
X32378571Y-7628140D01*
X32378571Y-7628140D02*
X32416666Y-7704331D01*
X32416666Y-7704331D02*
X32454762Y-7856712D01*
X32454762Y-7856712D02*
X32454762Y-7970998D01*
X32454762Y-7970998D02*
X32416666Y-8123379D01*
X32416666Y-8123379D02*
X32378571Y-8199569D01*
X32378571Y-8199569D02*
X32302381Y-8275760D01*
X32302381Y-8275760D02*
X32188095Y-8313855D01*
X32188095Y-8313855D02*
X31997619Y-8313855D01*
X32721428Y-7513855D02*
X33216666Y-7513855D01*
X33216666Y-7513855D02*
X32950000Y-7818617D01*
X32950000Y-7818617D02*
X33064285Y-7818617D01*
X33064285Y-7818617D02*
X33140476Y-7856712D01*
X33140476Y-7856712D02*
X33178571Y-7894807D01*
X33178571Y-7894807D02*
X33216666Y-7970998D01*
X33216666Y-7970998D02*
X33216666Y-8161474D01*
X33216666Y-8161474D02*
X33178571Y-8237664D01*
X33178571Y-8237664D02*
X33140476Y-8275760D01*
X33140476Y-8275760D02*
X33064285Y-8313855D01*
X33064285Y-8313855D02*
X32835714Y-8313855D01*
X32835714Y-8313855D02*
X32759523Y-8275760D01*
X32759523Y-8275760D02*
X32721428Y-8237664D01*
X30283332Y-9275760D02*
X30397618Y-9313855D01*
X30397618Y-9313855D02*
X30588094Y-9313855D01*
X30588094Y-9313855D02*
X30664285Y-9275760D01*
X30664285Y-9275760D02*
X30702380Y-9237664D01*
X30702380Y-9237664D02*
X30740475Y-9161474D01*
X30740475Y-9161474D02*
X30740475Y-9085283D01*
X30740475Y-9085283D02*
X30702380Y-9009093D01*
X30702380Y-9009093D02*
X30664285Y-8970998D01*
X30664285Y-8970998D02*
X30588094Y-8932902D01*
X30588094Y-8932902D02*
X30435713Y-8894807D01*
X30435713Y-8894807D02*
X30359523Y-8856712D01*
X30359523Y-8856712D02*
X30321428Y-8818617D01*
X30321428Y-8818617D02*
X30283332Y-8742426D01*
X30283332Y-8742426D02*
X30283332Y-8666236D01*
X30283332Y-8666236D02*
X30321428Y-8590045D01*
X30321428Y-8590045D02*
X30359523Y-8551950D01*
X30359523Y-8551950D02*
X30435713Y-8513855D01*
X30435713Y-8513855D02*
X30626190Y-8513855D01*
X30626190Y-8513855D02*
X30740475Y-8551950D01*
X31007142Y-8513855D02*
X31197618Y-9313855D01*
X31197618Y-9313855D02*
X31349999Y-8742426D01*
X31349999Y-8742426D02*
X31502380Y-9313855D01*
X31502380Y-9313855D02*
X31692857Y-8513855D01*
X31997619Y-9313855D02*
X31997619Y-8513855D01*
X31997619Y-8513855D02*
X32188095Y-8513855D01*
X32188095Y-8513855D02*
X32302381Y-8551950D01*
X32302381Y-8551950D02*
X32378571Y-8628140D01*
X32378571Y-8628140D02*
X32416666Y-8704331D01*
X32416666Y-8704331D02*
X32454762Y-8856712D01*
X32454762Y-8856712D02*
X32454762Y-8970998D01*
X32454762Y-8970998D02*
X32416666Y-9123379D01*
X32416666Y-9123379D02*
X32378571Y-9199569D01*
X32378571Y-9199569D02*
X32302381Y-9275760D01*
X32302381Y-9275760D02*
X32188095Y-9313855D01*
X32188095Y-9313855D02*
X31997619Y-9313855D01*
X32721428Y-8513855D02*
X33216666Y-8513855D01*
X33216666Y-8513855D02*
X32950000Y-8818617D01*
X32950000Y-8818617D02*
X33064285Y-8818617D01*
X33064285Y-8818617D02*
X33140476Y-8856712D01*
X33140476Y-8856712D02*
X33178571Y-8894807D01*
X33178571Y-8894807D02*
X33216666Y-8970998D01*
X33216666Y-8970998D02*
X33216666Y-9161474D01*
X33216666Y-9161474D02*
X33178571Y-9237664D01*
X33178571Y-9237664D02*
X33140476Y-9275760D01*
X33140476Y-9275760D02*
X33064285Y-9313855D01*
X33064285Y-9313855D02*
X32835714Y-9313855D01*
X32835714Y-9313855D02*
X32759523Y-9275760D01*
X32759523Y-9275760D02*
X32721428Y-9237664D01*
X2990475Y-325760D02*
X3104761Y-363855D01*
X3104761Y-363855D02*
X3295237Y-363855D01*
X3295237Y-363855D02*
X3371428Y-325760D01*
X3371428Y-325760D02*
X3409523Y-287664D01*
X3409523Y-287664D02*
X3447618Y-211474D01*
X3447618Y-211474D02*
X3447618Y-135283D01*
X3447618Y-135283D02*
X3409523Y-59093D01*
X3409523Y-59093D02*
X3371428Y-20998D01*
X3371428Y-20998D02*
X3295237Y17097D01*
X3295237Y17097D02*
X3142856Y55192D01*
X3142856Y55192D02*
X3066666Y93287D01*
X3066666Y93287D02*
X3028571Y131382D01*
X3028571Y131382D02*
X2990475Y207573D01*
X2990475Y207573D02*
X2990475Y283763D01*
X2990475Y283763D02*
X3028571Y359954D01*
X3028571Y359954D02*
X3066666Y398049D01*
X3066666Y398049D02*
X3142856Y436144D01*
X3142856Y436144D02*
X3333333Y436144D01*
X3333333Y436144D02*
X3447618Y398049D01*
X3790476Y-363855D02*
X3790476Y436144D01*
X3790476Y436144D02*
X4095238Y436144D01*
X4095238Y436144D02*
X4171428Y398049D01*
X4171428Y398049D02*
X4209523Y359954D01*
X4209523Y359954D02*
X4247619Y283763D01*
X4247619Y283763D02*
X4247619Y169478D01*
X4247619Y169478D02*
X4209523Y93287D01*
X4209523Y93287D02*
X4171428Y55192D01*
X4171428Y55192D02*
X4095238Y17097D01*
X4095238Y17097D02*
X3790476Y17097D01*
X5009523Y-363855D02*
X4552380Y-363855D01*
X4780952Y-363855D02*
X4780952Y436144D01*
X4780952Y436144D02*
X4704761Y321859D01*
X4704761Y321859D02*
X4628571Y245668D01*
X4628571Y245668D02*
X4552380Y207573D01*
X-1600001Y-563855D02*
X-1066667Y-563855D01*
X-1066667Y-563855D02*
X-1409525Y-1363855D01*
X-609524Y-563855D02*
X-533334Y-563855D01*
X-533334Y-563855D02*
X-457143Y-601950D01*
X-457143Y-601950D02*
X-419048Y-640045D01*
X-419048Y-640045D02*
X-380953Y-716236D01*
X-380953Y-716236D02*
X-342858Y-868617D01*
X-342858Y-868617D02*
X-342858Y-1059093D01*
X-342858Y-1059093D02*
X-380953Y-1211474D01*
X-380953Y-1211474D02*
X-419048Y-1287664D01*
X-419048Y-1287664D02*
X-457143Y-1325760D01*
X-457143Y-1325760D02*
X-533334Y-1363855D01*
X-533334Y-1363855D02*
X-609524Y-1363855D01*
X-609524Y-1363855D02*
X-685715Y-1325760D01*
X-685715Y-1325760D02*
X-723810Y-1287664D01*
X-723810Y-1287664D02*
X-761905Y-1211474D01*
X-761905Y-1211474D02*
X-800001Y-1059093D01*
X-800001Y-1059093D02*
X-800001Y-868617D01*
X-800001Y-868617D02*
X-761905Y-716236D01*
X-761905Y-716236D02*
X-723810Y-640045D01*
X-723810Y-640045D02*
X-685715Y-601950D01*
X-685715Y-601950D02*
X-609524Y-563855D01*
X38094Y-1363855D02*
X190475Y-1363855D01*
X190475Y-1363855D02*
X266665Y-1325760D01*
X266665Y-1325760D02*
X304761Y-1287664D01*
X304761Y-1287664D02*
X380951Y-1173379D01*
X380951Y-1173379D02*
X419046Y-1020998D01*
X419046Y-1020998D02*
X419046Y-716236D01*
X419046Y-716236D02*
X380951Y-640045D01*
X380951Y-640045D02*
X342856Y-601950D01*
X342856Y-601950D02*
X266665Y-563855D01*
X266665Y-563855D02*
X114284Y-563855D01*
X114284Y-563855D02*
X38094Y-601950D01*
X38094Y-601950D02*
X0Y-640045D01*
X0Y-640045D02*
X-38096Y-716236D01*
X-38096Y-716236D02*
X-38096Y-906712D01*
X-38096Y-906712D02*
X0Y-982902D01*
X0Y-982902D02*
X38094Y-1020998D01*
X38094Y-1020998D02*
X114284Y-1059093D01*
X114284Y-1059093D02*
X266665Y-1059093D01*
X266665Y-1059093D02*
X342856Y-1020998D01*
X342856Y-1020998D02*
X380951Y-982902D01*
X380951Y-982902D02*
X419046Y-906712D01*
X1180951Y-1363855D02*
X723808Y-1363855D01*
X952380Y-1363855D02*
X952380Y-563855D01*
X952380Y-563855D02*
X876189Y-678140D01*
X876189Y-678140D02*
X799999Y-754331D01*
X799999Y-754331D02*
X723808Y-792426D01*
X1904761Y-563855D02*
X1523809Y-563855D01*
X1523809Y-563855D02*
X1485713Y-944807D01*
X1485713Y-944807D02*
X1523809Y-906712D01*
X1523809Y-906712D02*
X1599999Y-868617D01*
X1599999Y-868617D02*
X1790475Y-868617D01*
X1790475Y-868617D02*
X1866666Y-906712D01*
X1866666Y-906712D02*
X1904761Y-944807D01*
X1904761Y-944807D02*
X1942856Y-1020998D01*
X1942856Y-1020998D02*
X1942856Y-1211474D01*
X1942856Y-1211474D02*
X1904761Y-1287664D01*
X1904761Y-1287664D02*
X1866666Y-1325760D01*
X1866666Y-1325760D02*
X1790475Y-1363855D01*
X1790475Y-1363855D02*
X1599999Y-1363855D01*
X1599999Y-1363855D02*
X1523809Y-1325760D01*
X1523809Y-1325760D02*
X1485713Y-1287664D01*
X2666666Y-563855D02*
X2285714Y-563855D01*
X2285714Y-563855D02*
X2247618Y-944807D01*
X2247618Y-944807D02*
X2285714Y-906712D01*
X2285714Y-906712D02*
X2361904Y-868617D01*
X2361904Y-868617D02*
X2552380Y-868617D01*
X2552380Y-868617D02*
X2628571Y-906712D01*
X2628571Y-906712D02*
X2666666Y-944807D01*
X2666666Y-944807D02*
X2704761Y-1020998D01*
X2704761Y-1020998D02*
X2704761Y-1211474D01*
X2704761Y-1211474D02*
X2666666Y-1287664D01*
X2666666Y-1287664D02*
X2628571Y-1325760D01*
X2628571Y-1325760D02*
X2552380Y-1363855D01*
X2552380Y-1363855D02*
X2361904Y-1363855D01*
X2361904Y-1363855D02*
X2285714Y-1325760D01*
X2285714Y-1325760D02*
X2247618Y-1287664D01*
X3200000Y-563855D02*
X3276190Y-563855D01*
X3276190Y-563855D02*
X3352381Y-601950D01*
X3352381Y-601950D02*
X3390476Y-640045D01*
X3390476Y-640045D02*
X3428571Y-716236D01*
X3428571Y-716236D02*
X3466666Y-868617D01*
X3466666Y-868617D02*
X3466666Y-1059093D01*
X3466666Y-1059093D02*
X3428571Y-1211474D01*
X3428571Y-1211474D02*
X3390476Y-1287664D01*
X3390476Y-1287664D02*
X3352381Y-1325760D01*
X3352381Y-1325760D02*
X3276190Y-1363855D01*
X3276190Y-1363855D02*
X3200000Y-1363855D01*
X3200000Y-1363855D02*
X3123809Y-1325760D01*
X3123809Y-1325760D02*
X3085714Y-1287664D01*
X3085714Y-1287664D02*
X3047619Y-1211474D01*
X3047619Y-1211474D02*
X3009523Y-1059093D01*
X3009523Y-1059093D02*
X3009523Y-868617D01*
X3009523Y-868617D02*
X3047619Y-716236D01*
X3047619Y-716236D02*
X3085714Y-640045D01*
X3085714Y-640045D02*
X3123809Y-601950D01*
X3123809Y-601950D02*
X3200000Y-563855D01*
X3961905Y-563855D02*
X4038095Y-563855D01*
X4038095Y-563855D02*
X4114286Y-601950D01*
X4114286Y-601950D02*
X4152381Y-640045D01*
X4152381Y-640045D02*
X4190476Y-716236D01*
X4190476Y-716236D02*
X4228571Y-868617D01*
X4228571Y-868617D02*
X4228571Y-1059093D01*
X4228571Y-1059093D02*
X4190476Y-1211474D01*
X4190476Y-1211474D02*
X4152381Y-1287664D01*
X4152381Y-1287664D02*
X4114286Y-1325760D01*
X4114286Y-1325760D02*
X4038095Y-1363855D01*
X4038095Y-1363855D02*
X3961905Y-1363855D01*
X3961905Y-1363855D02*
X3885714Y-1325760D01*
X3885714Y-1325760D02*
X3847619Y-1287664D01*
X3847619Y-1287664D02*
X3809524Y-1211474D01*
X3809524Y-1211474D02*
X3771428Y-1059093D01*
X3771428Y-1059093D02*
X3771428Y-868617D01*
X3771428Y-868617D02*
X3809524Y-716236D01*
X3809524Y-716236D02*
X3847619Y-640045D01*
X3847619Y-640045D02*
X3885714Y-601950D01*
X3885714Y-601950D02*
X3961905Y-563855D01*
X4990476Y-1363855D02*
X4533333Y-1363855D01*
X4761905Y-1363855D02*
X4761905Y-563855D01*
X4761905Y-563855D02*
X4685714Y-678140D01*
X4685714Y-678140D02*
X4609524Y-754331D01*
X4609524Y-754331D02*
X4533333Y-792426D01*
X5676191Y-563855D02*
X5523810Y-563855D01*
X5523810Y-563855D02*
X5447619Y-601950D01*
X5447619Y-601950D02*
X5409524Y-640045D01*
X5409524Y-640045D02*
X5333334Y-754331D01*
X5333334Y-754331D02*
X5295238Y-906712D01*
X5295238Y-906712D02*
X5295238Y-1211474D01*
X5295238Y-1211474D02*
X5333334Y-1287664D01*
X5333334Y-1287664D02*
X5371429Y-1325760D01*
X5371429Y-1325760D02*
X5447619Y-1363855D01*
X5447619Y-1363855D02*
X5600000Y-1363855D01*
X5600000Y-1363855D02*
X5676191Y-1325760D01*
X5676191Y-1325760D02*
X5714286Y-1287664D01*
X5714286Y-1287664D02*
X5752381Y-1211474D01*
X5752381Y-1211474D02*
X5752381Y-1020998D01*
X5752381Y-1020998D02*
X5714286Y-944807D01*
X5714286Y-944807D02*
X5676191Y-906712D01*
X5676191Y-906712D02*
X5600000Y-868617D01*
X5600000Y-868617D02*
X5447619Y-868617D01*
X5447619Y-868617D02*
X5371429Y-906712D01*
X5371429Y-906712D02*
X5333334Y-944807D01*
X5333334Y-944807D02*
X5295238Y-1020998D01*
X6514286Y-1363855D02*
X6057143Y-1363855D01*
X6285715Y-1363855D02*
X6285715Y-563855D01*
X6285715Y-563855D02*
X6209524Y-678140D01*
X6209524Y-678140D02*
X6133334Y-754331D01*
X6133334Y-754331D02*
X6057143Y-792426D01*
X7009525Y-563855D02*
X7085715Y-563855D01*
X7085715Y-563855D02*
X7161906Y-601950D01*
X7161906Y-601950D02*
X7200001Y-640045D01*
X7200001Y-640045D02*
X7238096Y-716236D01*
X7238096Y-716236D02*
X7276191Y-868617D01*
X7276191Y-868617D02*
X7276191Y-1059093D01*
X7276191Y-1059093D02*
X7238096Y-1211474D01*
X7238096Y-1211474D02*
X7200001Y-1287664D01*
X7200001Y-1287664D02*
X7161906Y-1325760D01*
X7161906Y-1325760D02*
X7085715Y-1363855D01*
X7085715Y-1363855D02*
X7009525Y-1363855D01*
X7009525Y-1363855D02*
X6933334Y-1325760D01*
X6933334Y-1325760D02*
X6895239Y-1287664D01*
X6895239Y-1287664D02*
X6857144Y-1211474D01*
X6857144Y-1211474D02*
X6819048Y-1059093D01*
X6819048Y-1059093D02*
X6819048Y-868617D01*
X6819048Y-868617D02*
X6857144Y-716236D01*
X6857144Y-716236D02*
X6895239Y-640045D01*
X6895239Y-640045D02*
X6933334Y-601950D01*
X6933334Y-601950D02*
X7009525Y-563855D01*
X7771430Y-563855D02*
X7847620Y-563855D01*
X7847620Y-563855D02*
X7923811Y-601950D01*
X7923811Y-601950D02*
X7961906Y-640045D01*
X7961906Y-640045D02*
X8000001Y-716236D01*
X8000001Y-716236D02*
X8038096Y-868617D01*
X8038096Y-868617D02*
X8038096Y-1059093D01*
X8038096Y-1059093D02*
X8000001Y-1211474D01*
X8000001Y-1211474D02*
X7961906Y-1287664D01*
X7961906Y-1287664D02*
X7923811Y-1325760D01*
X7923811Y-1325760D02*
X7847620Y-1363855D01*
X7847620Y-1363855D02*
X7771430Y-1363855D01*
X7771430Y-1363855D02*
X7695239Y-1325760D01*
X7695239Y-1325760D02*
X7657144Y-1287664D01*
X7657144Y-1287664D02*
X7619049Y-1211474D01*
X7619049Y-1211474D02*
X7580953Y-1059093D01*
X7580953Y-1059093D02*
X7580953Y-868617D01*
X7580953Y-868617D02*
X7619049Y-716236D01*
X7619049Y-716236D02*
X7657144Y-640045D01*
X7657144Y-640045D02*
X7695239Y-601950D01*
X7695239Y-601950D02*
X7771430Y-563855D01*
X8533335Y-563855D02*
X8609525Y-563855D01*
X8609525Y-563855D02*
X8685716Y-601950D01*
X8685716Y-601950D02*
X8723811Y-640045D01*
X8723811Y-640045D02*
X8761906Y-716236D01*
X8761906Y-716236D02*
X8800001Y-868617D01*
X8800001Y-868617D02*
X8800001Y-1059093D01*
X8800001Y-1059093D02*
X8761906Y-1211474D01*
X8761906Y-1211474D02*
X8723811Y-1287664D01*
X8723811Y-1287664D02*
X8685716Y-1325760D01*
X8685716Y-1325760D02*
X8609525Y-1363855D01*
X8609525Y-1363855D02*
X8533335Y-1363855D01*
X8533335Y-1363855D02*
X8457144Y-1325760D01*
X8457144Y-1325760D02*
X8419049Y-1287664D01*
X8419049Y-1287664D02*
X8380954Y-1211474D01*
X8380954Y-1211474D02*
X8342858Y-1059093D01*
X8342858Y-1059093D02*
X8342858Y-868617D01*
X8342858Y-868617D02*
X8380954Y-716236D01*
X8380954Y-716236D02*
X8419049Y-640045D01*
X8419049Y-640045D02*
X8457144Y-601950D01*
X8457144Y-601950D02*
X8533335Y-563855D01*
X9485716Y-830521D02*
X9485716Y-1363855D01*
X9295240Y-525760D02*
X9104763Y-1097188D01*
X9104763Y-1097188D02*
X9600002Y-1097188D01*
X32783332Y-8275760D02*
X32897618Y-8313855D01*
X32897618Y-8313855D02*
X33088094Y-8313855D01*
X33088094Y-8313855D02*
X33164285Y-8275760D01*
X33164285Y-8275760D02*
X33202380Y-8237664D01*
X33202380Y-8237664D02*
X33240475Y-8161474D01*
X33240475Y-8161474D02*
X33240475Y-8085283D01*
X33240475Y-8085283D02*
X33202380Y-8009093D01*
X33202380Y-8009093D02*
X33164285Y-7970998D01*
X33164285Y-7970998D02*
X33088094Y-7932902D01*
X33088094Y-7932902D02*
X32935713Y-7894807D01*
X32935713Y-7894807D02*
X32859523Y-7856712D01*
X32859523Y-7856712D02*
X32821428Y-7818617D01*
X32821428Y-7818617D02*
X32783332Y-7742426D01*
X32783332Y-7742426D02*
X32783332Y-7666236D01*
X32783332Y-7666236D02*
X32821428Y-7590045D01*
X32821428Y-7590045D02*
X32859523Y-7551950D01*
X32859523Y-7551950D02*
X32935713Y-7513855D01*
X32935713Y-7513855D02*
X33126190Y-7513855D01*
X33126190Y-7513855D02*
X33240475Y-7551950D01*
X33507142Y-7513855D02*
X33697618Y-8313855D01*
X33697618Y-8313855D02*
X33849999Y-7742426D01*
X33849999Y-7742426D02*
X34002380Y-8313855D01*
X34002380Y-8313855D02*
X34192857Y-7513855D01*
X34497619Y-8313855D02*
X34497619Y-7513855D01*
X34497619Y-7513855D02*
X34688095Y-7513855D01*
X34688095Y-7513855D02*
X34802381Y-7551950D01*
X34802381Y-7551950D02*
X34878571Y-7628140D01*
X34878571Y-7628140D02*
X34916666Y-7704331D01*
X34916666Y-7704331D02*
X34954762Y-7856712D01*
X34954762Y-7856712D02*
X34954762Y-7970998D01*
X34954762Y-7970998D02*
X34916666Y-8123379D01*
X34916666Y-8123379D02*
X34878571Y-8199569D01*
X34878571Y-8199569D02*
X34802381Y-8275760D01*
X34802381Y-8275760D02*
X34688095Y-8313855D01*
X34688095Y-8313855D02*
X34497619Y-8313855D01*
X35640476Y-7780521D02*
X35640476Y-8313855D01*
X35450000Y-7475760D02*
X35259523Y-8047188D01*
X35259523Y-8047188D02*
X35754762Y-8047188D01*
X32783332Y-9275760D02*
X32897618Y-9313855D01*
X32897618Y-9313855D02*
X33088094Y-9313855D01*
X33088094Y-9313855D02*
X33164285Y-9275760D01*
X33164285Y-9275760D02*
X33202380Y-9237664D01*
X33202380Y-9237664D02*
X33240475Y-9161474D01*
X33240475Y-9161474D02*
X33240475Y-9085283D01*
X33240475Y-9085283D02*
X33202380Y-9009093D01*
X33202380Y-9009093D02*
X33164285Y-8970998D01*
X33164285Y-8970998D02*
X33088094Y-8932902D01*
X33088094Y-8932902D02*
X32935713Y-8894807D01*
X32935713Y-8894807D02*
X32859523Y-8856712D01*
X32859523Y-8856712D02*
X32821428Y-8818617D01*
X32821428Y-8818617D02*
X32783332Y-8742426D01*
X32783332Y-8742426D02*
X32783332Y-8666236D01*
X32783332Y-8666236D02*
X32821428Y-8590045D01*
X32821428Y-8590045D02*
X32859523Y-8551950D01*
X32859523Y-8551950D02*
X32935713Y-8513855D01*
X32935713Y-8513855D02*
X33126190Y-8513855D01*
X33126190Y-8513855D02*
X33240475Y-8551950D01*
X33507142Y-8513855D02*
X33697618Y-9313855D01*
X33697618Y-9313855D02*
X33849999Y-8742426D01*
X33849999Y-8742426D02*
X34002380Y-9313855D01*
X34002380Y-9313855D02*
X34192857Y-8513855D01*
X34497619Y-9313855D02*
X34497619Y-8513855D01*
X34497619Y-8513855D02*
X34688095Y-8513855D01*
X34688095Y-8513855D02*
X34802381Y-8551950D01*
X34802381Y-8551950D02*
X34878571Y-8628140D01*
X34878571Y-8628140D02*
X34916666Y-8704331D01*
X34916666Y-8704331D02*
X34954762Y-8856712D01*
X34954762Y-8856712D02*
X34954762Y-8970998D01*
X34954762Y-8970998D02*
X34916666Y-9123379D01*
X34916666Y-9123379D02*
X34878571Y-9199569D01*
X34878571Y-9199569D02*
X34802381Y-9275760D01*
X34802381Y-9275760D02*
X34688095Y-9313855D01*
X34688095Y-9313855D02*
X34497619Y-9313855D01*
X35640476Y-8780521D02*
X35640476Y-9313855D01*
X35450000Y-8475760D02*
X35259523Y-9047188D01*
X35259523Y-9047188D02*
X35754762Y-9047188D01*
X10784524Y-571655D02*
X10784524Y228344D01*
X10784524Y228344D02*
X10975000Y228344D01*
X10975000Y228344D02*
X11089286Y190249D01*
X11089286Y190249D02*
X11165476Y114059D01*
X11165476Y114059D02*
X11203571Y37868D01*
X11203571Y37868D02*
X11241667Y-114512D01*
X11241667Y-114512D02*
X11241667Y-228798D01*
X11241667Y-228798D02*
X11203571Y-381179D01*
X11203571Y-381179D02*
X11165476Y-457369D01*
X11165476Y-457369D02*
X11089286Y-533560D01*
X11089286Y-533560D02*
X10975000Y-571655D01*
X10975000Y-571655D02*
X10784524Y-571655D01*
X12003571Y-571655D02*
X11546428Y-571655D01*
X11775000Y-571655D02*
X11775000Y228344D01*
X11775000Y228344D02*
X11698809Y114059D01*
X11698809Y114059D02*
X11622619Y37868D01*
X11622619Y37868D02*
X11546428Y-226D01*
X7070237Y-1152607D02*
X7184523Y-1190702D01*
X7184523Y-1190702D02*
X7222618Y-1228798D01*
X7222618Y-1228798D02*
X7260714Y-1304988D01*
X7260714Y-1304988D02*
X7260714Y-1419274D01*
X7260714Y-1419274D02*
X7222618Y-1495464D01*
X7222618Y-1495464D02*
X7184523Y-1533560D01*
X7184523Y-1533560D02*
X7108333Y-1571655D01*
X7108333Y-1571655D02*
X6803571Y-1571655D01*
X6803571Y-1571655D02*
X6803571Y-771655D01*
X6803571Y-771655D02*
X7070237Y-771655D01*
X7070237Y-771655D02*
X7146428Y-809750D01*
X7146428Y-809750D02*
X7184523Y-847845D01*
X7184523Y-847845D02*
X7222618Y-924036D01*
X7222618Y-924036D02*
X7222618Y-1000226D01*
X7222618Y-1000226D02*
X7184523Y-1076417D01*
X7184523Y-1076417D02*
X7146428Y-1114512D01*
X7146428Y-1114512D02*
X7070237Y-1152607D01*
X7070237Y-1152607D02*
X6803571Y-1152607D01*
X7565475Y-1343083D02*
X7946428Y-1343083D01*
X7489285Y-1571655D02*
X7755952Y-771655D01*
X7755952Y-771655D02*
X8022618Y-1571655D01*
X8174999Y-771655D02*
X8632142Y-771655D01*
X8403570Y-1571655D02*
X8403570Y-771655D01*
X9279761Y-771655D02*
X8898809Y-771655D01*
X8898809Y-771655D02*
X8860713Y-1152607D01*
X8860713Y-1152607D02*
X8898809Y-1114512D01*
X8898809Y-1114512D02*
X8974999Y-1076417D01*
X8974999Y-1076417D02*
X9165475Y-1076417D01*
X9165475Y-1076417D02*
X9241666Y-1114512D01*
X9241666Y-1114512D02*
X9279761Y-1152607D01*
X9279761Y-1152607D02*
X9317856Y-1228798D01*
X9317856Y-1228798D02*
X9317856Y-1419274D01*
X9317856Y-1419274D02*
X9279761Y-1495464D01*
X9279761Y-1495464D02*
X9241666Y-1533560D01*
X9241666Y-1533560D02*
X9165475Y-1571655D01*
X9165475Y-1571655D02*
X8974999Y-1571655D01*
X8974999Y-1571655D02*
X8898809Y-1533560D01*
X8898809Y-1533560D02*
X8860713Y-1495464D01*
X10003571Y-1038321D02*
X10003571Y-1571655D01*
X9813095Y-733560D02*
X9622618Y-1304988D01*
X9622618Y-1304988D02*
X10117857Y-1304988D01*
X10346428Y-771655D02*
X10536904Y-1571655D01*
X10536904Y-1571655D02*
X10689285Y-1000226D01*
X10689285Y-1000226D02*
X10841666Y-1571655D01*
X10841666Y-1571655D02*
X11032143Y-771655D01*
X11336905Y-1266893D02*
X11946429Y-1266893D01*
X12327381Y-1152607D02*
X12594047Y-1152607D01*
X12708333Y-1571655D02*
X12327381Y-1571655D01*
X12327381Y-1571655D02*
X12327381Y-771655D01*
X12327381Y-771655D02*
X12708333Y-771655D01*
X12975000Y-771655D02*
X13470238Y-771655D01*
X13470238Y-771655D02*
X13203572Y-1076417D01*
X13203572Y-1076417D02*
X13317857Y-1076417D01*
X13317857Y-1076417D02*
X13394048Y-1114512D01*
X13394048Y-1114512D02*
X13432143Y-1152607D01*
X13432143Y-1152607D02*
X13470238Y-1228798D01*
X13470238Y-1228798D02*
X13470238Y-1419274D01*
X13470238Y-1419274D02*
X13432143Y-1495464D01*
X13432143Y-1495464D02*
X13394048Y-1533560D01*
X13394048Y-1533560D02*
X13317857Y-1571655D01*
X13317857Y-1571655D02*
X13089286Y-1571655D01*
X13089286Y-1571655D02*
X13013095Y-1533560D01*
X13013095Y-1533560D02*
X12975000Y-1495464D01*
X13813096Y-1266893D02*
X14422620Y-1266893D01*
X14955953Y-771655D02*
X15032143Y-771655D01*
X15032143Y-771655D02*
X15108334Y-809750D01*
X15108334Y-809750D02*
X15146429Y-847845D01*
X15146429Y-847845D02*
X15184524Y-924036D01*
X15184524Y-924036D02*
X15222619Y-1076417D01*
X15222619Y-1076417D02*
X15222619Y-1266893D01*
X15222619Y-1266893D02*
X15184524Y-1419274D01*
X15184524Y-1419274D02*
X15146429Y-1495464D01*
X15146429Y-1495464D02*
X15108334Y-1533560D01*
X15108334Y-1533560D02*
X15032143Y-1571655D01*
X15032143Y-1571655D02*
X14955953Y-1571655D01*
X14955953Y-1571655D02*
X14879762Y-1533560D01*
X14879762Y-1533560D02*
X14841667Y-1495464D01*
X14841667Y-1495464D02*
X14803572Y-1419274D01*
X14803572Y-1419274D02*
X14765476Y-1266893D01*
X14765476Y-1266893D02*
X14765476Y-1076417D01*
X14765476Y-1076417D02*
X14803572Y-924036D01*
X14803572Y-924036D02*
X14841667Y-847845D01*
X14841667Y-847845D02*
X14879762Y-809750D01*
X14879762Y-809750D02*
X14955953Y-771655D01*
X15679762Y-1114512D02*
X15603572Y-1076417D01*
X15603572Y-1076417D02*
X15565477Y-1038321D01*
X15565477Y-1038321D02*
X15527381Y-962131D01*
X15527381Y-962131D02*
X15527381Y-924036D01*
X15527381Y-924036D02*
X15565477Y-847845D01*
X15565477Y-847845D02*
X15603572Y-809750D01*
X15603572Y-809750D02*
X15679762Y-771655D01*
X15679762Y-771655D02*
X15832143Y-771655D01*
X15832143Y-771655D02*
X15908334Y-809750D01*
X15908334Y-809750D02*
X15946429Y-847845D01*
X15946429Y-847845D02*
X15984524Y-924036D01*
X15984524Y-924036D02*
X15984524Y-962131D01*
X15984524Y-962131D02*
X15946429Y-1038321D01*
X15946429Y-1038321D02*
X15908334Y-1076417D01*
X15908334Y-1076417D02*
X15832143Y-1114512D01*
X15832143Y-1114512D02*
X15679762Y-1114512D01*
X15679762Y-1114512D02*
X15603572Y-1152607D01*
X15603572Y-1152607D02*
X15565477Y-1190702D01*
X15565477Y-1190702D02*
X15527381Y-1266893D01*
X15527381Y-1266893D02*
X15527381Y-1419274D01*
X15527381Y-1419274D02*
X15565477Y-1495464D01*
X15565477Y-1495464D02*
X15603572Y-1533560D01*
X15603572Y-1533560D02*
X15679762Y-1571655D01*
X15679762Y-1571655D02*
X15832143Y-1571655D01*
X15832143Y-1571655D02*
X15908334Y-1533560D01*
X15908334Y-1533560D02*
X15946429Y-1495464D01*
X15946429Y-1495464D02*
X15984524Y-1419274D01*
X15984524Y-1419274D02*
X15984524Y-1266893D01*
X15984524Y-1266893D02*
X15946429Y-1190702D01*
X15946429Y-1190702D02*
X15908334Y-1152607D01*
X15908334Y-1152607D02*
X15832143Y-1114512D01*
X10940476Y-2896655D02*
X10940476Y-3544274D01*
X10940476Y-3544274D02*
X10978571Y-3620464D01*
X10978571Y-3620464D02*
X11016666Y-3658560D01*
X11016666Y-3658560D02*
X11092857Y-3696655D01*
X11092857Y-3696655D02*
X11245238Y-3696655D01*
X11245238Y-3696655D02*
X11321428Y-3658560D01*
X11321428Y-3658560D02*
X11359523Y-3620464D01*
X11359523Y-3620464D02*
X11397619Y-3544274D01*
X11397619Y-3544274D02*
X11397619Y-2896655D01*
X11740475Y-2972845D02*
X11778571Y-2934750D01*
X11778571Y-2934750D02*
X11854761Y-2896655D01*
X11854761Y-2896655D02*
X12045237Y-2896655D01*
X12045237Y-2896655D02*
X12121428Y-2934750D01*
X12121428Y-2934750D02*
X12159523Y-2972845D01*
X12159523Y-2972845D02*
X12197618Y-3049036D01*
X12197618Y-3049036D02*
X12197618Y-3125226D01*
X12197618Y-3125226D02*
X12159523Y-3239512D01*
X12159523Y-3239512D02*
X11702380Y-3696655D01*
X11702380Y-3696655D02*
X12197618Y-3696655D01*
X8311904Y-4696655D02*
X7930952Y-4696655D01*
X7930952Y-4696655D02*
X7930952Y-3896655D01*
X8540475Y-4658560D02*
X8654761Y-4696655D01*
X8654761Y-4696655D02*
X8845237Y-4696655D01*
X8845237Y-4696655D02*
X8921428Y-4658560D01*
X8921428Y-4658560D02*
X8959523Y-4620464D01*
X8959523Y-4620464D02*
X8997618Y-4544274D01*
X8997618Y-4544274D02*
X8997618Y-4468083D01*
X8997618Y-4468083D02*
X8959523Y-4391893D01*
X8959523Y-4391893D02*
X8921428Y-4353798D01*
X8921428Y-4353798D02*
X8845237Y-4315702D01*
X8845237Y-4315702D02*
X8692856Y-4277607D01*
X8692856Y-4277607D02*
X8616666Y-4239512D01*
X8616666Y-4239512D02*
X8578571Y-4201417D01*
X8578571Y-4201417D02*
X8540475Y-4125226D01*
X8540475Y-4125226D02*
X8540475Y-4049036D01*
X8540475Y-4049036D02*
X8578571Y-3972845D01*
X8578571Y-3972845D02*
X8616666Y-3934750D01*
X8616666Y-3934750D02*
X8692856Y-3896655D01*
X8692856Y-3896655D02*
X8883333Y-3896655D01*
X8883333Y-3896655D02*
X8997618Y-3934750D01*
X9340476Y-4696655D02*
X9340476Y-3896655D01*
X9340476Y-3896655D02*
X9607142Y-4468083D01*
X9607142Y-4468083D02*
X9873809Y-3896655D01*
X9873809Y-3896655D02*
X9873809Y-4696655D01*
X10597619Y-3896655D02*
X10445238Y-3896655D01*
X10445238Y-3896655D02*
X10369047Y-3934750D01*
X10369047Y-3934750D02*
X10330952Y-3972845D01*
X10330952Y-3972845D02*
X10254762Y-4087131D01*
X10254762Y-4087131D02*
X10216666Y-4239512D01*
X10216666Y-4239512D02*
X10216666Y-4544274D01*
X10216666Y-4544274D02*
X10254762Y-4620464D01*
X10254762Y-4620464D02*
X10292857Y-4658560D01*
X10292857Y-4658560D02*
X10369047Y-4696655D01*
X10369047Y-4696655D02*
X10521428Y-4696655D01*
X10521428Y-4696655D02*
X10597619Y-4658560D01*
X10597619Y-4658560D02*
X10635714Y-4620464D01*
X10635714Y-4620464D02*
X10673809Y-4544274D01*
X10673809Y-4544274D02*
X10673809Y-4353798D01*
X10673809Y-4353798D02*
X10635714Y-4277607D01*
X10635714Y-4277607D02*
X10597619Y-4239512D01*
X10597619Y-4239512D02*
X10521428Y-4201417D01*
X10521428Y-4201417D02*
X10369047Y-4201417D01*
X10369047Y-4201417D02*
X10292857Y-4239512D01*
X10292857Y-4239512D02*
X10254762Y-4277607D01*
X10254762Y-4277607D02*
X10216666Y-4353798D01*
X11016667Y-4696655D02*
X11016667Y-3896655D01*
X11016667Y-3896655D02*
X11207143Y-3896655D01*
X11207143Y-3896655D02*
X11321429Y-3934750D01*
X11321429Y-3934750D02*
X11397619Y-4010940D01*
X11397619Y-4010940D02*
X11435714Y-4087131D01*
X11435714Y-4087131D02*
X11473810Y-4239512D01*
X11473810Y-4239512D02*
X11473810Y-4353798D01*
X11473810Y-4353798D02*
X11435714Y-4506179D01*
X11435714Y-4506179D02*
X11397619Y-4582369D01*
X11397619Y-4582369D02*
X11321429Y-4658560D01*
X11321429Y-4658560D02*
X11207143Y-4696655D01*
X11207143Y-4696655D02*
X11016667Y-4696655D01*
X11778571Y-4658560D02*
X11892857Y-4696655D01*
X11892857Y-4696655D02*
X12083333Y-4696655D01*
X12083333Y-4696655D02*
X12159524Y-4658560D01*
X12159524Y-4658560D02*
X12197619Y-4620464D01*
X12197619Y-4620464D02*
X12235714Y-4544274D01*
X12235714Y-4544274D02*
X12235714Y-4468083D01*
X12235714Y-4468083D02*
X12197619Y-4391893D01*
X12197619Y-4391893D02*
X12159524Y-4353798D01*
X12159524Y-4353798D02*
X12083333Y-4315702D01*
X12083333Y-4315702D02*
X11930952Y-4277607D01*
X11930952Y-4277607D02*
X11854762Y-4239512D01*
X11854762Y-4239512D02*
X11816667Y-4201417D01*
X11816667Y-4201417D02*
X11778571Y-4125226D01*
X11778571Y-4125226D02*
X11778571Y-4049036D01*
X11778571Y-4049036D02*
X11816667Y-3972845D01*
X11816667Y-3972845D02*
X11854762Y-3934750D01*
X11854762Y-3934750D02*
X11930952Y-3896655D01*
X11930952Y-3896655D02*
X12121429Y-3896655D01*
X12121429Y-3896655D02*
X12235714Y-3934750D01*
X12464286Y-3896655D02*
X12730953Y-4696655D01*
X12730953Y-4696655D02*
X12997619Y-3896655D01*
X13683333Y-4696655D02*
X13226190Y-4696655D01*
X13454762Y-4696655D02*
X13454762Y-3896655D01*
X13454762Y-3896655D02*
X13378571Y-4010940D01*
X13378571Y-4010940D02*
X13302381Y-4087131D01*
X13302381Y-4087131D02*
X13226190Y-4125226D01*
X14369048Y-3896655D02*
X14216667Y-3896655D01*
X14216667Y-3896655D02*
X14140476Y-3934750D01*
X14140476Y-3934750D02*
X14102381Y-3972845D01*
X14102381Y-3972845D02*
X14026191Y-4087131D01*
X14026191Y-4087131D02*
X13988095Y-4239512D01*
X13988095Y-4239512D02*
X13988095Y-4544274D01*
X13988095Y-4544274D02*
X14026191Y-4620464D01*
X14026191Y-4620464D02*
X14064286Y-4658560D01*
X14064286Y-4658560D02*
X14140476Y-4696655D01*
X14140476Y-4696655D02*
X14292857Y-4696655D01*
X14292857Y-4696655D02*
X14369048Y-4658560D01*
X14369048Y-4658560D02*
X14407143Y-4620464D01*
X14407143Y-4620464D02*
X14445238Y-4544274D01*
X14445238Y-4544274D02*
X14445238Y-4353798D01*
X14445238Y-4353798D02*
X14407143Y-4277607D01*
X14407143Y-4277607D02*
X14369048Y-4239512D01*
X14369048Y-4239512D02*
X14292857Y-4201417D01*
X14292857Y-4201417D02*
X14140476Y-4201417D01*
X14140476Y-4201417D02*
X14064286Y-4239512D01*
X14064286Y-4239512D02*
X14026191Y-4277607D01*
X14026191Y-4277607D02*
X13988095Y-4353798D01*
X14711905Y-3896655D02*
X15245239Y-4696655D01*
X15245239Y-3896655D02*
X14711905Y-4696655D01*
X5226667Y-3657664D02*
X5188571Y-3695760D01*
X5188571Y-3695760D02*
X5074286Y-3733855D01*
X5074286Y-3733855D02*
X4998095Y-3733855D01*
X4998095Y-3733855D02*
X4883809Y-3695760D01*
X4883809Y-3695760D02*
X4807619Y-3619569D01*
X4807619Y-3619569D02*
X4769524Y-3543379D01*
X4769524Y-3543379D02*
X4731428Y-3390998D01*
X4731428Y-3390998D02*
X4731428Y-3276712D01*
X4731428Y-3276712D02*
X4769524Y-3124331D01*
X4769524Y-3124331D02*
X4807619Y-3048140D01*
X4807619Y-3048140D02*
X4883809Y-2971950D01*
X4883809Y-2971950D02*
X4998095Y-2933855D01*
X4998095Y-2933855D02*
X5074286Y-2933855D01*
X5074286Y-2933855D02*
X5188571Y-2971950D01*
X5188571Y-2971950D02*
X5226667Y-3010045D01*
X5683809Y-3276712D02*
X5607619Y-3238617D01*
X5607619Y-3238617D02*
X5569524Y-3200521D01*
X5569524Y-3200521D02*
X5531428Y-3124331D01*
X5531428Y-3124331D02*
X5531428Y-3086236D01*
X5531428Y-3086236D02*
X5569524Y-3010045D01*
X5569524Y-3010045D02*
X5607619Y-2971950D01*
X5607619Y-2971950D02*
X5683809Y-2933855D01*
X5683809Y-2933855D02*
X5836190Y-2933855D01*
X5836190Y-2933855D02*
X5912381Y-2971950D01*
X5912381Y-2971950D02*
X5950476Y-3010045D01*
X5950476Y-3010045D02*
X5988571Y-3086236D01*
X5988571Y-3086236D02*
X5988571Y-3124331D01*
X5988571Y-3124331D02*
X5950476Y-3200521D01*
X5950476Y-3200521D02*
X5912381Y-3238617D01*
X5912381Y-3238617D02*
X5836190Y-3276712D01*
X5836190Y-3276712D02*
X5683809Y-3276712D01*
X5683809Y-3276712D02*
X5607619Y-3314807D01*
X5607619Y-3314807D02*
X5569524Y-3352902D01*
X5569524Y-3352902D02*
X5531428Y-3429093D01*
X5531428Y-3429093D02*
X5531428Y-3581474D01*
X5531428Y-3581474D02*
X5569524Y-3657664D01*
X5569524Y-3657664D02*
X5607619Y-3695760D01*
X5607619Y-3695760D02*
X5683809Y-3733855D01*
X5683809Y-3733855D02*
X5836190Y-3733855D01*
X5836190Y-3733855D02*
X5912381Y-3695760D01*
X5912381Y-3695760D02*
X5950476Y-3657664D01*
X5950476Y-3657664D02*
X5988571Y-3581474D01*
X5988571Y-3581474D02*
X5988571Y-3429093D01*
X5988571Y-3429093D02*
X5950476Y-3352902D01*
X5950476Y-3352902D02*
X5912381Y-3314807D01*
X5912381Y-3314807D02*
X5836190Y-3276712D01*
X5121904Y-3733855D02*
X4664761Y-3733855D01*
X4893333Y-3733855D02*
X4893333Y-2933855D01*
X4893333Y-2933855D02*
X4817142Y-3048140D01*
X4817142Y-3048140D02*
X4740952Y-3124331D01*
X4740952Y-3124331D02*
X4664761Y-3162426D01*
X5883809Y-3733855D02*
X5426666Y-3733855D01*
X5655238Y-3733855D02*
X5655238Y-2933855D01*
X5655238Y-2933855D02*
X5579047Y-3048140D01*
X5579047Y-3048140D02*
X5502857Y-3124331D01*
X5502857Y-3124331D02*
X5426666Y-3162426D01*
X6379048Y-2933855D02*
X6455238Y-2933855D01*
X6455238Y-2933855D02*
X6531429Y-2971950D01*
X6531429Y-2971950D02*
X6569524Y-3010045D01*
X6569524Y-3010045D02*
X6607619Y-3086236D01*
X6607619Y-3086236D02*
X6645714Y-3238617D01*
X6645714Y-3238617D02*
X6645714Y-3429093D01*
X6645714Y-3429093D02*
X6607619Y-3581474D01*
X6607619Y-3581474D02*
X6569524Y-3657664D01*
X6569524Y-3657664D02*
X6531429Y-3695760D01*
X6531429Y-3695760D02*
X6455238Y-3733855D01*
X6455238Y-3733855D02*
X6379048Y-3733855D01*
X6379048Y-3733855D02*
X6302857Y-3695760D01*
X6302857Y-3695760D02*
X6264762Y-3657664D01*
X6264762Y-3657664D02*
X6226667Y-3581474D01*
X6226667Y-3581474D02*
X6188571Y-3429093D01*
X6188571Y-3429093D02*
X6188571Y-3238617D01*
X6188571Y-3238617D02*
X6226667Y-3086236D01*
X6226667Y-3086236D02*
X6264762Y-3010045D01*
X6264762Y-3010045D02*
X6302857Y-2971950D01*
X6302857Y-2971950D02*
X6379048Y-2933855D01*
X6988572Y-3200521D02*
X6988572Y-4000521D01*
X6988572Y-3238617D02*
X7064762Y-3200521D01*
X7064762Y-3200521D02*
X7217143Y-3200521D01*
X7217143Y-3200521D02*
X7293334Y-3238617D01*
X7293334Y-3238617D02*
X7331429Y-3276712D01*
X7331429Y-3276712D02*
X7369524Y-3352902D01*
X7369524Y-3352902D02*
X7369524Y-3581474D01*
X7369524Y-3581474D02*
X7331429Y-3657664D01*
X7331429Y-3657664D02*
X7293334Y-3695760D01*
X7293334Y-3695760D02*
X7217143Y-3733855D01*
X7217143Y-3733855D02*
X7064762Y-3733855D01*
X7064762Y-3733855D02*
X6988572Y-3695760D01*
X7979048Y-3314807D02*
X7712382Y-3314807D01*
X7712382Y-3733855D02*
X7712382Y-2933855D01*
X7712382Y-2933855D02*
X8093334Y-2933855D01*
%TO.C,C7*%
D13*
X26550000Y-6450000D02*
X27550000Y-6450000D01*
X27550000Y-6950000D01*
X26550000Y-6950000D01*
X26550000Y-6450000D01*
%TO.C,SWD2*%
D14*
X28750000Y-8750000D02*
X29750000Y-8750000D01*
X29750000Y-9750000D01*
X28750000Y-9750000D01*
X28750000Y-8750000D01*
%TO.C,R3*%
X36500000Y-1952800D02*
X37000000Y-1952800D01*
X37000000Y-952800D01*
X36500000Y-952800D01*
X36500000Y-1952800D01*
%TO.C,SP3*%
X13650000Y-625000D02*
X16350000Y-625000D01*
X16350000Y-2375000D01*
X13650000Y-2375000D01*
X13650000Y-625000D01*
%TO.C,SWD1*%
X26250000Y-8750000D02*
X27250000Y-8750000D01*
X27250000Y-9750000D01*
X26250000Y-9750000D01*
X26250000Y-8750000D01*
%TO.C,R4*%
X5650000Y-4750000D02*
X6650000Y-4750000D01*
X6650000Y-5250000D01*
X5650000Y-5250000D01*
X5650000Y-4750000D01*
%TO.C,R2*%
X27100000Y-4425000D02*
X27600000Y-4425000D01*
X27600000Y-3425000D01*
X27100000Y-3425000D01*
X27100000Y-4425000D01*
%TO.C,C1*%
X7990000Y-781400D02*
X8990000Y-781400D01*
X8990000Y-1281400D01*
X7990000Y-1281400D01*
X7990000Y-781400D01*
%TO.C,R1*%
X36380000Y-7600000D02*
X37380000Y-7600000D01*
X37380000Y-8100000D01*
X36380000Y-8100000D01*
X36380000Y-7600000D01*
%TO.C,U1*%
X29000000Y-1750000D02*
X35500000Y-1750000D01*
X35500000Y-8250000D01*
X29000000Y-8250000D01*
X29000000Y-1750000D01*
%TO.C,J2*%
X2000000Y-2750000D02*
X500000Y-2750000D01*
X500000Y-7250000D01*
X2000000Y-7250000D01*
X2000000Y-2750000D01*
%TO.C,R5*%
X7990000Y-4041400D02*
X8990000Y-4041400D01*
X8990000Y-4541400D01*
X7990000Y-4541400D01*
X7990000Y-4041400D01*
%TO.C,D2*%
X15950000Y-6254700D02*
X17450000Y-6254700D01*
X17450000Y-4654700D01*
X15950000Y-4654700D01*
X15950000Y-6254700D01*
%TO.C,ESD2*%
X4760000Y-3300000D02*
X5760000Y-3300000D01*
X5760000Y-3900000D01*
X4760000Y-3900000D01*
X4760000Y-3300000D01*
%TO.C,J1*%
X36000000Y-6750000D02*
X37500000Y-6750000D01*
X37500000Y-3250000D01*
X36000000Y-3250000D01*
X36000000Y-6750000D01*
%TO.C,ESD1*%
X26550000Y-800000D02*
X27550000Y-800000D01*
X27550000Y-1400000D01*
X26550000Y-1400000D01*
X26550000Y-800000D01*
%TO.C,R7*%
X13773400Y-4750000D02*
X14773400Y-4750000D01*
X14773400Y-5250000D01*
X13773400Y-5250000D01*
X13773400Y-4750000D01*
%TO.C,SP2*%
X2650000Y-7625000D02*
X5350000Y-7625000D01*
X5350000Y-9375000D01*
X2650000Y-9375000D01*
X2650000Y-7625000D01*
%TO.C,C2*%
X8240000Y-3161400D02*
X8740000Y-3161400D01*
X8740000Y-2161400D01*
X8240000Y-2161400D01*
X8240000Y-3161400D01*
%TO.C,SP4*%
X13650000Y-7625000D02*
X16350000Y-7625000D01*
X16350000Y-9375000D01*
X13650000Y-9375000D01*
X13650000Y-7625000D01*
%TO.C,D3*%
X11300000Y-8782800D02*
X12800000Y-8782800D01*
X12800000Y-7182800D01*
X11300000Y-7182800D01*
X11300000Y-8782800D01*
%TO.C,Q1*%
X6550000Y-8272000D02*
X9450000Y-8272000D01*
X9450000Y-6972000D01*
X6550000Y-6972000D01*
X6550000Y-8272000D01*
%TO.C,R6*%
X13875000Y-3304800D02*
X14875000Y-3304800D01*
X14875000Y-3804800D01*
X13875000Y-3804800D01*
X13875000Y-3304800D01*
%TO.C,SWD3*%
X31250000Y-8750000D02*
X32250000Y-8750000D01*
X32250000Y-9750000D01*
X31250000Y-9750000D01*
X31250000Y-8750000D01*
%TO.C,SP1*%
X2650000Y-625000D02*
X5350000Y-625000D01*
X5350000Y-2375000D01*
X2650000Y-2375000D01*
X2650000Y-625000D01*
%TO.C,SWD4*%
X33750000Y-8750000D02*
X34750000Y-8750000D01*
X34750000Y-9750000D01*
X33750000Y-9750000D01*
X33750000Y-8750000D01*
%TO.C,D1*%
X10025000Y-932800D02*
X12725000Y-932800D01*
X12725000Y-2482800D01*
X10025000Y-2482800D01*
X10025000Y-932800D01*
%TO.C,U2*%
X10300000Y-3332800D02*
X12800000Y-3332800D01*
X12800000Y-6332800D01*
X10300000Y-6332800D01*
X10300000Y-3332800D01*
%TO.C,C8*%
X6610000Y-3870000D02*
X7110000Y-3870000D01*
X7110000Y-2870000D01*
X6610000Y-2870000D01*
X6610000Y-3870000D01*
%TD*%
M02*
