%TF.GenerationSoftware,KiCad,Pcbnew,9.0.8-9.0.8~ubuntu24.04.1*%
%TF.CreationDate,2026-06-29T14:41:35-04:00*%
%TF.ProjectId,ring,72696e67-2e6b-4696-9361-645f70636258,rev?*%
%TF.SameCoordinates,Original*%
%TF.FileFunction,Copper,L2,Bot*%
%TF.FilePolarity,Positive*%
%FSLAX46Y46*%
G04 Gerber Fmt 4.6, Leading zero omitted, Abs format (unit mm)*
G04 Created by KiCad (PCBNEW 9.0.8-9.0.8~ubuntu24.04.1) date 2026-06-29 14:41:35*
%MOMM*%
%LPD*%
G01*
G04 APERTURE LIST*
%TA.AperFunction,ViaPad*%
%ADD10C,0.400000*%
%TD*%
%TA.AperFunction,Conductor*%
%ADD11C,0.150000*%
%TD*%
G04 APERTURE END LIST*
D10*
%TO.N,GND*%
X30100000Y-4750000D03*
X7400000Y-3150000D03*
X18900000Y-7200000D03*
X29410000Y-7002000D03*
X29400000Y-6350000D03*
X36400000Y-4700000D03*
X8750000Y-1650000D03*
X31250000Y-4750000D03*
X34250000Y-8423000D03*
X12550000Y-5832800D03*
X27450000Y-6100000D03*
X3600000Y-5750000D03*
X7100000Y-2350000D03*
X10700000Y-6700000D03*
X3600000Y-3050000D03*
X16350000Y-3600000D03*
X35300000Y-2800000D03*
X27530000Y-6700000D03*
X31250000Y-1100000D03*
%TO.N,VBAT*%
X13600000Y-4850000D03*
X13150000Y-2400000D03*
X13250000Y-1700000D03*
X13350000Y-3400000D03*
X31850000Y-1000000D03*
X25350000Y-5600000D03*
X34450000Y-1000000D03*
X35900000Y-7850000D03*
X34850000Y-8300000D03*
X28750000Y-5600000D03*
X35900000Y-950000D03*
X11950000Y-6350000D03*
X11950000Y-4900000D03*
X29410000Y-7652000D03*
X28150000Y-4450000D03*
X33300000Y-8850000D03*
%TO.N,SDA*%
X30300000Y-7840000D03*
X35200000Y-9350000D03*
%TO.N,SCL*%
X27350000Y-3415000D03*
X27350000Y-2900000D03*
X30750000Y-6500000D03*
X26400000Y-2900000D03*
%TO.N,HAPTIC_EN*%
X27950000Y-7675000D03*
X18450000Y-9525000D03*
X30950000Y-7840000D03*
X18450000Y-7675000D03*
%TO.N,LED_RED*%
X31925000Y-7190000D03*
X17200000Y-6254700D03*
X30850000Y-8450000D03*
X17200000Y-7350000D03*
%TO.N,MOTOR_N*%
X8000000Y-8300000D03*
X9050000Y-8150000D03*
X9450000Y-1800000D03*
X8000000Y-6251000D03*
%TO.N,IMU_INT*%
X17300000Y-500000D03*
X32450000Y-500000D03*
X9950000Y-4850000D03*
X32575000Y-7190000D03*
%TO.N,SWDIO*%
X26750000Y-9250000D03*
X30100000Y-2300000D03*
X32950000Y-2300000D03*
X32900000Y-3565000D03*
%TO.N,SWDCLK*%
X30025000Y-2950000D03*
X33550000Y-2950000D03*
X28000000Y-9250000D03*
X28800000Y-4225000D03*
X33550000Y-3565000D03*
X27950000Y-5100000D03*
%TO.N,QVAR1*%
X10550000Y-3832800D03*
X9500000Y-5350000D03*
X25850000Y-6700000D03*
X25850000Y-1100000D03*
X16850000Y-1050000D03*
%TO.N,QVAR1_RAW*%
X5500000Y-5000000D03*
X3050000Y-4200000D03*
%TO.N,QVAR2_RAW*%
X7980000Y-4291400D03*
X7000000Y-5850000D03*
%TO.N,LED_RED_A*%
X12750000Y-8125000D03*
X16200000Y-6254700D03*
X15750000Y-3550000D03*
%TO.N,LED_GREEN_A*%
X11375000Y-6575000D03*
X13125000Y-5725000D03*
%TO.N,LED_GREEN*%
X17200000Y-5550000D03*
X34000000Y-1650000D03*
X33225000Y-7190000D03*
X16850000Y-1650000D03*
X17200000Y-4654700D03*
%TO.N,ANT*%
X29410000Y-5052000D03*
X29410000Y-5702000D03*
%TD*%
D11*
%TO.N,GND*%
X14050000Y-3100000D02*
X14050000Y-6200000D01*
X8750000Y-1650000D02*
X8750000Y-2200000D01*
X29400000Y-6250000D02*
X29400000Y-6350000D01*
X16350000Y-3100000D02*
X14050000Y-3100000D01*
X35300000Y-500000D02*
X36400000Y-500000D01*
X18900000Y-7200000D02*
X17650000Y-7200000D01*
X27530000Y-6700000D02*
X27450000Y-6700000D01*
X7100000Y-2200000D02*
X7100000Y-2350000D01*
X7400000Y-2200000D02*
X8750000Y-2200000D01*
X16350000Y-3600000D02*
X16350000Y-3100000D01*
X29400000Y-6250000D02*
X29410000Y-7002000D01*
X30100000Y-6250000D02*
X29400000Y-6250000D01*
X14050000Y-6200000D02*
X12550000Y-6200000D01*
X36400000Y-500000D02*
X36400000Y-4700000D01*
X3600000Y-3050000D02*
X3600000Y-5750000D01*
X31250000Y-4750000D02*
X31250000Y-1100000D01*
X30100000Y-4750000D02*
X30100000Y-6250000D01*
X12550000Y-6200000D02*
X12550000Y-5832800D01*
X17650000Y-8600000D02*
X10700000Y-8600000D01*
X27450000Y-6700000D02*
X27450000Y-6100000D01*
X10700000Y-8600000D02*
X10700000Y-6700000D01*
X7100000Y-2200000D02*
X7400000Y-2200000D01*
X7400000Y-3150000D02*
X7400000Y-2200000D01*
X17650000Y-7200000D02*
X17650000Y-8600000D01*
X35300000Y-2800000D02*
X35300000Y-500000D01*
%TO.N,VBAT*%
X13350000Y-3400000D02*
X13250000Y-1700000D01*
X13350000Y-3400000D02*
X13150000Y-2400000D01*
X28400000Y-4450000D02*
X28150000Y-4450000D01*
X34850000Y-8850000D02*
X34850000Y-8300000D01*
X33300000Y-7950000D02*
X33300000Y-8850000D01*
X34300000Y-2900000D02*
X34300000Y-7950000D01*
X13600000Y-4850000D02*
X13600000Y-3400000D01*
X28550000Y-7650000D02*
X28750000Y-7652000D01*
X25350000Y-5600000D02*
X25350000Y-650000D01*
X34450000Y-1000000D02*
X34450000Y-2900000D01*
X28550000Y-5600000D02*
X28400000Y-5600000D01*
X11950000Y-4900000D02*
X11950000Y-6350000D01*
X28550000Y-7650000D02*
X28550000Y-5600000D01*
X34300000Y-7950000D02*
X33300000Y-7950000D01*
X33300000Y-8850000D02*
X34850000Y-8850000D01*
X28750000Y-7652000D02*
X29410000Y-7652000D01*
X35900000Y-1000000D02*
X35900000Y-7850000D01*
X31850000Y-650000D02*
X31850000Y-1000000D01*
X25350000Y-650000D02*
X31850000Y-650000D01*
X35900000Y-950000D02*
X35900000Y-1000000D01*
X13600000Y-3400000D02*
X13350000Y-3400000D01*
X28750000Y-7652000D02*
X28750000Y-5600000D01*
X28400000Y-5600000D02*
X28400000Y-4450000D01*
X34450000Y-2900000D02*
X34300000Y-2900000D01*
%TO.N,SDA*%
X30300000Y-9350000D02*
X35200000Y-9350000D01*
X30300000Y-7840000D02*
X30300000Y-9350000D01*
%TO.N,SCL*%
X30750000Y-1150000D02*
X26400000Y-1150000D01*
X30750000Y-6500000D02*
X30750000Y-1150000D01*
X26400000Y-1150000D02*
X26400000Y-2900000D01*
X27350000Y-3415000D02*
X27350000Y-2900000D01*
%TO.N,HAPTIC_EN*%
X27950000Y-8100000D02*
X27950000Y-7675000D01*
X29850000Y-7400000D02*
X29850000Y-8100000D01*
X30950000Y-7840000D02*
X30950000Y-7400000D01*
X18450000Y-7675000D02*
X18450000Y-9525000D01*
X30950000Y-7400000D02*
X29850000Y-7400000D01*
X29850000Y-8100000D02*
X27950000Y-8100000D01*
%TO.N,LED_RED*%
X31375000Y-7975000D02*
X31375000Y-8200000D01*
X31200000Y-8450000D02*
X30850000Y-8450000D01*
X17200000Y-6254700D02*
X17200000Y-7350000D01*
X31925000Y-7190000D02*
X31925000Y-7975000D01*
X31200000Y-8200000D02*
X31200000Y-8450000D01*
X31375000Y-8200000D02*
X31200000Y-8200000D01*
X31925000Y-7975000D02*
X31375000Y-7975000D01*
%TO.N,MOTOR_N*%
X9050000Y-8150000D02*
X9050000Y-4750000D01*
X9450000Y-4750000D02*
X9450000Y-1800000D01*
X9050000Y-4750000D02*
X9450000Y-4750000D01*
X8000000Y-8300000D02*
X8000000Y-6251000D01*
%TO.N,IMU_INT*%
X32575000Y-7190000D02*
X32600000Y-3900000D01*
X17300000Y-500000D02*
X17050000Y-450000D01*
X17050000Y-450000D02*
X9950000Y-450000D01*
X32450000Y-3900000D02*
X32450000Y-500000D01*
X9950000Y-450000D02*
X9950000Y-4850000D01*
X32600000Y-3900000D02*
X32450000Y-3900000D01*
%TO.N,SWDIO*%
X27000000Y-6300000D02*
X27000000Y-9250000D01*
X30100000Y-2300000D02*
X26900000Y-2300000D01*
X32900000Y-3565000D02*
X32900000Y-3400000D01*
X32900000Y-3400000D02*
X32950000Y-2300000D01*
X27000000Y-9250000D02*
X26750000Y-9250000D01*
X26900000Y-2300000D02*
X26900000Y-6300000D01*
X26900000Y-6300000D02*
X27000000Y-6300000D01*
%TO.N,SWDCLK*%
X27950000Y-6625000D02*
X27975000Y-7225000D01*
X27950000Y-5100000D02*
X27950000Y-6625000D01*
X27500000Y-9250000D02*
X28000000Y-9250000D01*
X27975000Y-7225000D02*
X27500000Y-7225000D01*
X33550000Y-3565000D02*
X33550000Y-2950000D01*
X28800000Y-2950000D02*
X28800000Y-4225000D01*
X30025000Y-2950000D02*
X28800000Y-2950000D01*
X27500000Y-7225000D02*
X27500000Y-9250000D01*
%TO.N,QVAR1*%
X11250000Y-3832800D02*
X10550000Y-3832800D01*
X11250000Y-3832800D02*
X11250000Y-4050000D01*
X10450000Y-4050000D02*
X10450000Y-5350000D01*
X11250000Y-4050000D02*
X10450000Y-4050000D01*
X10450000Y-5350000D02*
X9500000Y-5350000D01*
X16850000Y-750000D02*
X11250000Y-750000D01*
X11250000Y-750000D02*
X11250000Y-3832800D01*
X25850000Y-1100000D02*
X25850000Y-6700000D01*
X16850000Y-1050000D02*
X16850000Y-750000D01*
%TO.N,QVAR1_RAW*%
X5500000Y-6450000D02*
X5500000Y-5000000D01*
X3050000Y-4200000D02*
X3050000Y-6450000D01*
X3050000Y-6450000D02*
X5500000Y-6450000D01*
%TO.N,QVAR2_RAW*%
X7000000Y-5400000D02*
X8000000Y-5400000D01*
X7000000Y-5850000D02*
X7000000Y-5400000D01*
X8000000Y-5400000D02*
X7980000Y-4291400D01*
%TO.N,LED_RED_A*%
X16200000Y-6050000D02*
X16200000Y-6254700D01*
X15750000Y-6050000D02*
X15750000Y-3550000D01*
X12750000Y-6525000D02*
X12750000Y-8125000D01*
X16200000Y-6050000D02*
X15750000Y-6050000D01*
X16200000Y-6254700D02*
X16200000Y-6525000D01*
X16200000Y-6525000D02*
X12750000Y-6525000D01*
%TO.N,LED_GREEN_A*%
X11375000Y-4400000D02*
X11375000Y-6575000D01*
X13125000Y-5725000D02*
X13125000Y-4400000D01*
X13125000Y-4400000D02*
X11375000Y-4400000D01*
%TO.N,LED_GREEN*%
X33225000Y-6850000D02*
X33750000Y-6850000D01*
X34000000Y-3950000D02*
X34000000Y-1650000D01*
X17200000Y-4654700D02*
X17200000Y-5550000D01*
X16850000Y-1650000D02*
X16850000Y-5550000D01*
X33750000Y-3950000D02*
X34000000Y-3950000D01*
X16850000Y-5550000D02*
X17200000Y-5550000D01*
X33750000Y-6850000D02*
X33750000Y-3950000D01*
X33225000Y-7190000D02*
X33225000Y-6850000D01*
%TO.N,ANT*%
X29410000Y-5052000D02*
X29410000Y-5702000D01*
%TD*%
%TA.AperFunction,Conductor*%
%TO.N,GND*%
G36*
X9779473Y-264852D02*
G01*
X9793825Y-299500D01*
X9780738Y-331093D01*
X9781012Y-331277D01*
X9780091Y-332654D01*
X9779473Y-334148D01*
X9778330Y-335291D01*
X9747500Y-409718D01*
X9747500Y-1516049D01*
X9733148Y-1550697D01*
X9698500Y-1565049D01*
X9663852Y-1550697D01*
X9651092Y-1537937D01*
X9651090Y-1537935D01*
X9651087Y-1537933D01*
X9651083Y-1537930D01*
X9576411Y-1494819D01*
X9493118Y-1472500D01*
X9493116Y-1472500D01*
X9406884Y-1472500D01*
X9406882Y-1472500D01*
X9323589Y-1494819D01*
X9323587Y-1494819D01*
X9248916Y-1537930D01*
X9248907Y-1537937D01*
X9187937Y-1598907D01*
X9187930Y-1598916D01*
X9144819Y-1673587D01*
X9144819Y-1673589D01*
X9122500Y-1756882D01*
X9122500Y-1843117D01*
X9144819Y-1926410D01*
X9144819Y-1926412D01*
X9187930Y-2001083D01*
X9187937Y-2001092D01*
X9233148Y-2046303D01*
X9247500Y-2080951D01*
X9247500Y-4498500D01*
X9233148Y-4533148D01*
X9198500Y-4547500D01*
X9009718Y-4547500D01*
X8935291Y-4578330D01*
X8878330Y-4635291D01*
X8847500Y-4709718D01*
X8847500Y-7869049D01*
X8833148Y-7903697D01*
X8787937Y-7948907D01*
X8787930Y-7948916D01*
X8744819Y-8023587D01*
X8744819Y-8023589D01*
X8722500Y-8106882D01*
X8722500Y-8193117D01*
X8744819Y-8276410D01*
X8744819Y-8276412D01*
X8787930Y-8351083D01*
X8787933Y-8351087D01*
X8787935Y-8351090D01*
X8848910Y-8412065D01*
X8848913Y-8412066D01*
X8848916Y-8412069D01*
X8923588Y-8455180D01*
X8923590Y-8455181D01*
X8962244Y-8465538D01*
X9006882Y-8477500D01*
X9006884Y-8477500D01*
X9093118Y-8477500D01*
X9122180Y-8469712D01*
X9176410Y-8455181D01*
X9251090Y-8412065D01*
X9312065Y-8351090D01*
X9355181Y-8276410D01*
X9377500Y-8193116D01*
X9377500Y-8106884D01*
X9377500Y-8106882D01*
X9363248Y-8053697D01*
X9355181Y-8023590D01*
X9355180Y-8023588D01*
X9355180Y-8023587D01*
X9312069Y-7948916D01*
X9312066Y-7948913D01*
X9312065Y-7948910D01*
X9266852Y-7903697D01*
X9252500Y-7869049D01*
X9252500Y-5670140D01*
X9266852Y-5635492D01*
X9301500Y-5621140D01*
X9325999Y-5627704D01*
X9354494Y-5644156D01*
X9362738Y-5648916D01*
X9373590Y-5655181D01*
X9412244Y-5665538D01*
X9456882Y-5677500D01*
X9456884Y-5677500D01*
X9543118Y-5677500D01*
X9572180Y-5669712D01*
X9626410Y-5655181D01*
X9637262Y-5648916D01*
X9701083Y-5612069D01*
X9701082Y-5612069D01*
X9701090Y-5612065D01*
X9746303Y-5566852D01*
X9780951Y-5552500D01*
X10490278Y-5552500D01*
X10490280Y-5552500D01*
X10564707Y-5521671D01*
X10564709Y-5521669D01*
X10564710Y-5521669D01*
X10621669Y-5464710D01*
X10621669Y-5464709D01*
X10621671Y-5464707D01*
X10652500Y-5390280D01*
X10652500Y-4301500D01*
X10666852Y-4266852D01*
X10701500Y-4252500D01*
X11143579Y-4252500D01*
X11178227Y-4266852D01*
X11192579Y-4301500D01*
X11188849Y-4320249D01*
X11186298Y-4326410D01*
X11172500Y-4359718D01*
X11172500Y-6294049D01*
X11158148Y-6328697D01*
X11112937Y-6373907D01*
X11112930Y-6373916D01*
X11069819Y-6448587D01*
X11069819Y-6448589D01*
X11047500Y-6531882D01*
X11047500Y-6618117D01*
X11067865Y-6694117D01*
X11062971Y-6731299D01*
X11033218Y-6754130D01*
X11020535Y-6755800D01*
X10973000Y-6755800D01*
X10973000Y-9209800D01*
X13127000Y-9209800D01*
X13127000Y-6776500D01*
X13141352Y-6741852D01*
X13176000Y-6727500D01*
X16240278Y-6727500D01*
X16240280Y-6727500D01*
X16314707Y-6696671D01*
X16314709Y-6696669D01*
X16314710Y-6696669D01*
X16315327Y-6696052D01*
X16316133Y-6695717D01*
X16318723Y-6693988D01*
X16319066Y-6694502D01*
X16349975Y-6681700D01*
X16948500Y-6681700D01*
X16983148Y-6696052D01*
X16997500Y-6730700D01*
X16997500Y-7069049D01*
X16983148Y-7103697D01*
X16937937Y-7148907D01*
X16937930Y-7148916D01*
X16894819Y-7223587D01*
X16894819Y-7223589D01*
X16872500Y-7306882D01*
X16872500Y-7393117D01*
X16894819Y-7476410D01*
X16894819Y-7476412D01*
X16937930Y-7551083D01*
X16937933Y-7551087D01*
X16937935Y-7551090D01*
X16998910Y-7612065D01*
X16998913Y-7612066D01*
X16998916Y-7612069D01*
X17073588Y-7655180D01*
X17073590Y-7655181D01*
X17112244Y-7665538D01*
X17156882Y-7677500D01*
X17156884Y-7677500D01*
X17243118Y-7677500D01*
X17272180Y-7669712D01*
X17326410Y-7655181D01*
X17401090Y-7612065D01*
X17462065Y-7551090D01*
X17505181Y-7476410D01*
X17527500Y-7393116D01*
X17527500Y-7306884D01*
X17527500Y-7306882D01*
X17518066Y-7271677D01*
X17505181Y-7223590D01*
X17505180Y-7223588D01*
X17505180Y-7223587D01*
X17462069Y-7148916D01*
X17462066Y-7148913D01*
X17462065Y-7148910D01*
X17416852Y-7103697D01*
X17402500Y-7069049D01*
X17402500Y-6730700D01*
X17416852Y-6696052D01*
X17451500Y-6681700D01*
X17777000Y-6681700D01*
X17777000Y-4227800D01*
X17101500Y-4227800D01*
X17066852Y-4213448D01*
X17052500Y-4178800D01*
X17052500Y-1930951D01*
X17066852Y-1896303D01*
X17112065Y-1851090D01*
X17155181Y-1776410D01*
X17177500Y-1693116D01*
X17177500Y-1606884D01*
X17177500Y-1606882D01*
X17159025Y-1537937D01*
X17155181Y-1523590D01*
X17155180Y-1523588D01*
X17155180Y-1523587D01*
X17112069Y-1448916D01*
X17112066Y-1448913D01*
X17112065Y-1448910D01*
X17051090Y-1387935D01*
X17048819Y-1385664D01*
X17049859Y-1384623D01*
X17033562Y-1356394D01*
X17043270Y-1320170D01*
X17048961Y-1314478D01*
X17048819Y-1314336D01*
X17051090Y-1312065D01*
X17112065Y-1251090D01*
X17155181Y-1176410D01*
X17177500Y-1093116D01*
X17177500Y-1006884D01*
X17177500Y-1006882D01*
X17165155Y-960812D01*
X17155181Y-923590D01*
X17155180Y-923588D01*
X17155180Y-923587D01*
X17130086Y-880123D01*
X17125191Y-842941D01*
X17148021Y-813188D01*
X17185203Y-808293D01*
X17185204Y-808293D01*
X17256882Y-827500D01*
X17256884Y-827500D01*
X17343118Y-827500D01*
X17372180Y-819712D01*
X17426410Y-805181D01*
X17501090Y-762065D01*
X17562065Y-701090D01*
X17605181Y-626410D01*
X17627500Y-543116D01*
X17627500Y-456884D01*
X17627500Y-456882D01*
X17614862Y-409720D01*
X17605181Y-373590D01*
X17605180Y-373588D01*
X17605180Y-373587D01*
X17576551Y-324000D01*
X17571656Y-286818D01*
X17594486Y-257065D01*
X17618986Y-250500D01*
X17951000Y-250500D01*
X17985648Y-264852D01*
X18000000Y-299500D01*
X18000000Y-9700500D01*
X17985648Y-9735148D01*
X17951000Y-9749500D01*
X299500Y-9749500D01*
X264852Y-9735148D01*
X250500Y-9700500D01*
X250500Y-4156882D01*
X2722500Y-4156882D01*
X2722500Y-4243117D01*
X2744819Y-4326410D01*
X2744819Y-4326412D01*
X2787930Y-4401083D01*
X2787937Y-4401092D01*
X2833148Y-4446303D01*
X2847500Y-4480951D01*
X2847500Y-6409720D01*
X2847500Y-6490280D01*
X2878329Y-6564707D01*
X2878330Y-6564708D01*
X2878331Y-6564710D01*
X2935290Y-6621669D01*
X2935291Y-6621669D01*
X2935293Y-6621671D01*
X3009720Y-6652500D01*
X3009722Y-6652500D01*
X5540278Y-6652500D01*
X5540280Y-6652500D01*
X5614707Y-6621671D01*
X5614709Y-6621669D01*
X5614710Y-6621669D01*
X5671669Y-6564710D01*
X5671669Y-6564709D01*
X5671671Y-6564707D01*
X5702500Y-6490280D01*
X5702500Y-6207882D01*
X7672500Y-6207882D01*
X7672500Y-6294117D01*
X7694819Y-6377410D01*
X7694819Y-6377412D01*
X7737930Y-6452083D01*
X7737937Y-6452092D01*
X7783148Y-6497303D01*
X7797500Y-6531951D01*
X7797500Y-8019049D01*
X7783148Y-8053697D01*
X7737937Y-8098907D01*
X7737930Y-8098916D01*
X7694819Y-8173587D01*
X7694819Y-8173589D01*
X7672500Y-8256882D01*
X7672500Y-8343117D01*
X7694819Y-8426410D01*
X7694819Y-8426412D01*
X7737930Y-8501083D01*
X7737933Y-8501087D01*
X7737935Y-8501090D01*
X7798910Y-8562065D01*
X7798913Y-8562066D01*
X7798916Y-8562069D01*
X7873588Y-8605180D01*
X7873590Y-8605181D01*
X7912244Y-8615538D01*
X7956882Y-8627500D01*
X7956884Y-8627500D01*
X8043118Y-8627500D01*
X8072180Y-8619712D01*
X8126410Y-8605181D01*
X8201090Y-8562065D01*
X8262065Y-8501090D01*
X8305181Y-8426410D01*
X8327500Y-8343116D01*
X8327500Y-8256884D01*
X8327500Y-8256882D01*
X8310413Y-8193116D01*
X8305181Y-8173590D01*
X8305180Y-8173588D01*
X8305180Y-8173587D01*
X8262069Y-8098916D01*
X8262066Y-8098913D01*
X8262065Y-8098910D01*
X8216852Y-8053697D01*
X8202500Y-8019049D01*
X8202500Y-6531951D01*
X8216852Y-6497303D01*
X8237745Y-6476410D01*
X8262065Y-6452090D01*
X8305181Y-6377410D01*
X8327500Y-6294116D01*
X8327500Y-6207884D01*
X8327500Y-6207882D01*
X8317349Y-6170000D01*
X8305181Y-6124590D01*
X8305180Y-6124588D01*
X8305180Y-6124587D01*
X8262069Y-6049916D01*
X8262066Y-6049913D01*
X8262065Y-6049910D01*
X8201090Y-5988935D01*
X8201087Y-5988933D01*
X8201083Y-5988930D01*
X8126411Y-5945819D01*
X8043118Y-5923500D01*
X8043116Y-5923500D01*
X7956884Y-5923500D01*
X7956882Y-5923500D01*
X7873589Y-5945819D01*
X7873587Y-5945819D01*
X7798916Y-5988930D01*
X7798907Y-5988937D01*
X7737937Y-6049907D01*
X7737930Y-6049916D01*
X7694819Y-6124587D01*
X7694819Y-6124589D01*
X7672500Y-6207882D01*
X5702500Y-6207882D01*
X5702500Y-5806882D01*
X6672500Y-5806882D01*
X6672500Y-5893117D01*
X6694819Y-5976410D01*
X6694819Y-5976412D01*
X6737930Y-6051083D01*
X6737933Y-6051087D01*
X6737935Y-6051090D01*
X6798910Y-6112065D01*
X6798913Y-6112066D01*
X6798916Y-6112069D01*
X6873588Y-6155180D01*
X6873590Y-6155181D01*
X6909141Y-6164707D01*
X6956882Y-6177500D01*
X6956884Y-6177500D01*
X7043118Y-6177500D01*
X7118345Y-6157342D01*
X7118344Y-6157342D01*
X7126410Y-6155181D01*
X7137262Y-6148916D01*
X7201083Y-6112069D01*
X7201082Y-6112069D01*
X7201090Y-6112065D01*
X7262065Y-6051090D01*
X7299027Y-5987069D01*
X7305180Y-5976412D01*
X7305180Y-5976411D01*
X7305181Y-5976410D01*
X7327500Y-5893116D01*
X7327500Y-5806884D01*
X7327500Y-5806882D01*
X7305181Y-5723591D01*
X7305181Y-5723590D01*
X7277704Y-5675999D01*
X7272811Y-5638817D01*
X7295641Y-5609064D01*
X7320141Y-5602500D01*
X7961617Y-5602500D01*
X7963379Y-5603193D01*
X8001795Y-5602500D01*
X8040280Y-5602500D01*
X8040432Y-5602500D01*
X8041617Y-5602242D01*
X8042488Y-5602061D01*
X8043776Y-5601804D01*
X8043922Y-5601740D01*
X8043926Y-5601740D01*
X8078901Y-5586507D01*
X8079443Y-5586277D01*
X8114707Y-5571671D01*
X8114714Y-5571663D01*
X8116622Y-5570390D01*
X8117678Y-5569684D01*
X8117783Y-5569574D01*
X8117785Y-5569574D01*
X8144203Y-5542183D01*
X8144710Y-5541666D01*
X8171671Y-5514707D01*
X8171674Y-5514699D01*
X8172941Y-5512804D01*
X8172941Y-5512803D01*
X8172943Y-5512801D01*
X8173655Y-5511734D01*
X8173710Y-5511592D01*
X8173712Y-5511591D01*
X8187672Y-5476088D01*
X8187902Y-5475519D01*
X8202500Y-5440280D01*
X8202500Y-5440273D01*
X8202948Y-5438022D01*
X8202948Y-5438020D01*
X8202953Y-5437999D01*
X8203196Y-5436775D01*
X8203193Y-5436621D01*
X8203194Y-5436620D01*
X8202500Y-5398153D01*
X8202500Y-5359720D01*
X8201775Y-5357969D01*
X8187526Y-4568214D01*
X8201250Y-4533314D01*
X8201798Y-4532755D01*
X8242065Y-4492490D01*
X8285181Y-4417810D01*
X8307500Y-4334516D01*
X8307500Y-4248284D01*
X8307500Y-4248282D01*
X8293892Y-4197500D01*
X8285181Y-4164990D01*
X8285180Y-4164988D01*
X8285180Y-4164987D01*
X8242069Y-4090316D01*
X8242066Y-4090313D01*
X8242065Y-4090310D01*
X8181090Y-4029335D01*
X8181087Y-4029333D01*
X8181083Y-4029330D01*
X8106411Y-3986219D01*
X8023118Y-3963900D01*
X8023116Y-3963900D01*
X7936884Y-3963900D01*
X7936882Y-3963900D01*
X7853589Y-3986219D01*
X7853587Y-3986219D01*
X7778916Y-4029330D01*
X7778907Y-4029337D01*
X7717937Y-4090307D01*
X7717930Y-4090316D01*
X7674819Y-4164987D01*
X7674819Y-4164989D01*
X7652500Y-4248282D01*
X7652500Y-4334517D01*
X7674819Y-4417810D01*
X7674819Y-4417812D01*
X7717930Y-4492483D01*
X7717933Y-4492487D01*
X7717935Y-4492490D01*
X7758128Y-4532683D01*
X7768268Y-4542823D01*
X7782611Y-4576587D01*
X7792914Y-5147616D01*
X7779190Y-5182518D01*
X7744806Y-5197492D01*
X7743922Y-5197500D01*
X6959718Y-5197500D01*
X6885291Y-5228330D01*
X6828330Y-5285291D01*
X6797500Y-5359718D01*
X6797500Y-5569049D01*
X6783148Y-5603697D01*
X6737937Y-5648907D01*
X6737930Y-5648916D01*
X6694819Y-5723587D01*
X6694819Y-5723589D01*
X6672500Y-5806882D01*
X5702500Y-5806882D01*
X5702500Y-5280951D01*
X5716852Y-5246303D01*
X5734826Y-5228329D01*
X5762065Y-5201090D01*
X5805181Y-5126410D01*
X5827500Y-5043116D01*
X5827500Y-4956884D01*
X5827500Y-4956882D01*
X5810413Y-4893116D01*
X5805181Y-4873590D01*
X5805180Y-4873588D01*
X5805180Y-4873587D01*
X5762069Y-4798916D01*
X5762066Y-4798913D01*
X5762065Y-4798910D01*
X5701090Y-4737935D01*
X5701087Y-4737933D01*
X5701083Y-4737930D01*
X5626411Y-4694819D01*
X5543118Y-4672500D01*
X5543116Y-4672500D01*
X5456884Y-4672500D01*
X5456882Y-4672500D01*
X5373589Y-4694819D01*
X5373587Y-4694819D01*
X5298916Y-4737930D01*
X5298907Y-4737937D01*
X5237937Y-4798907D01*
X5237930Y-4798916D01*
X5194819Y-4873587D01*
X5194819Y-4873589D01*
X5172500Y-4956882D01*
X5172500Y-5043117D01*
X5194819Y-5126410D01*
X5194819Y-5126412D01*
X5237930Y-5201083D01*
X5237937Y-5201092D01*
X5283148Y-5246303D01*
X5297500Y-5280951D01*
X5297500Y-6198500D01*
X5283148Y-6233148D01*
X5248500Y-6247500D01*
X3301500Y-6247500D01*
X3266852Y-6233148D01*
X3252500Y-6198500D01*
X3252500Y-4480951D01*
X3266852Y-4446303D01*
X3312065Y-4401090D01*
X3335951Y-4359718D01*
X3355180Y-4326412D01*
X3355180Y-4326411D01*
X3355181Y-4326410D01*
X3377500Y-4243116D01*
X3377500Y-4156884D01*
X3377500Y-4156882D01*
X3368066Y-4121677D01*
X3355181Y-4073590D01*
X3355180Y-4073588D01*
X3355180Y-4073587D01*
X3342717Y-4052000D01*
X4383000Y-4052000D01*
X5337000Y-4052000D01*
X5337000Y-3148000D01*
X4383000Y-3148000D01*
X4383000Y-4052000D01*
X3342717Y-4052000D01*
X3312069Y-3998916D01*
X3312066Y-3998913D01*
X3312065Y-3998910D01*
X3251090Y-3937935D01*
X3251087Y-3937933D01*
X3251083Y-3937930D01*
X3176411Y-3894819D01*
X3093118Y-3872500D01*
X3093116Y-3872500D01*
X3006884Y-3872500D01*
X3006882Y-3872500D01*
X2923589Y-3894819D01*
X2923587Y-3894819D01*
X2848916Y-3937930D01*
X2848907Y-3937937D01*
X2787937Y-3998907D01*
X2787930Y-3998916D01*
X2744819Y-4073587D01*
X2744819Y-4073589D01*
X2722500Y-4156882D01*
X250500Y-4156882D01*
X250500Y-299500D01*
X264852Y-264852D01*
X299500Y-250500D01*
X9744825Y-250500D01*
X9779473Y-264852D01*
G37*
%TD.AperFunction*%
%TA.AperFunction,Conductor*%
G36*
X16476912Y-953795D02*
G01*
X16480183Y-952919D01*
X16493853Y-960812D01*
X16508434Y-966852D01*
X16509729Y-969979D01*
X16512661Y-971672D01*
X16516746Y-986919D01*
X16522786Y-1001500D01*
X16522500Y-1005866D01*
X16522500Y-1093117D01*
X16544819Y-1176410D01*
X16544819Y-1176412D01*
X16587930Y-1251083D01*
X16587937Y-1251092D01*
X16651181Y-1314336D01*
X16650144Y-1315372D01*
X16666439Y-1343623D01*
X16656719Y-1379845D01*
X16651040Y-1385523D01*
X16651181Y-1385664D01*
X16587937Y-1448907D01*
X16587930Y-1448916D01*
X16544819Y-1523587D01*
X16544819Y-1523589D01*
X16522500Y-1606882D01*
X16522500Y-1693117D01*
X16544819Y-1776410D01*
X16544819Y-1776412D01*
X16587930Y-1851083D01*
X16587937Y-1851092D01*
X16633148Y-1896303D01*
X16647500Y-1930951D01*
X16647500Y-4178800D01*
X16633148Y-4213448D01*
X16598500Y-4227800D01*
X16001500Y-4227800D01*
X15966852Y-4213448D01*
X15952500Y-4178800D01*
X15952500Y-3830951D01*
X15966852Y-3796303D01*
X15986655Y-3776500D01*
X16012065Y-3751090D01*
X16055181Y-3676410D01*
X16077500Y-3593116D01*
X16077500Y-3506884D01*
X16077500Y-3506882D01*
X16061590Y-3447508D01*
X16055181Y-3423590D01*
X16055180Y-3423588D01*
X16055180Y-3423587D01*
X16012069Y-3348916D01*
X16012066Y-3348913D01*
X16012065Y-3348910D01*
X15951090Y-3287935D01*
X15951087Y-3287933D01*
X15951083Y-3287930D01*
X15876411Y-3244819D01*
X15793118Y-3222500D01*
X15793116Y-3222500D01*
X15706884Y-3222500D01*
X15706882Y-3222500D01*
X15623589Y-3244819D01*
X15623587Y-3244819D01*
X15548916Y-3287930D01*
X15548907Y-3287937D01*
X15487937Y-3348907D01*
X15487930Y-3348916D01*
X15444819Y-3423587D01*
X15444819Y-3423589D01*
X15422500Y-3506882D01*
X15422500Y-3593117D01*
X15444819Y-3676410D01*
X15444819Y-3676412D01*
X15487930Y-3751083D01*
X15487937Y-3751092D01*
X15533148Y-3796303D01*
X15547500Y-3830951D01*
X15547500Y-6090281D01*
X15561711Y-6124589D01*
X15578329Y-6164707D01*
X15608648Y-6195026D01*
X15623000Y-6229673D01*
X15623000Y-6273500D01*
X15608648Y-6308148D01*
X15574000Y-6322500D01*
X12709718Y-6322500D01*
X12635291Y-6353330D01*
X12578330Y-6410291D01*
X12547500Y-6484718D01*
X12547500Y-6706800D01*
X12533148Y-6741448D01*
X12498500Y-6755800D01*
X12073087Y-6755800D01*
X12038439Y-6741448D01*
X12024087Y-6706800D01*
X12038439Y-6672152D01*
X12060404Y-6659470D01*
X12062127Y-6659008D01*
X12076410Y-6655181D01*
X12081056Y-6652499D01*
X12135316Y-6621171D01*
X12151090Y-6612065D01*
X12212065Y-6551090D01*
X12250383Y-6484720D01*
X12255180Y-6476412D01*
X12255180Y-6476411D01*
X12255181Y-6476410D01*
X12277500Y-6393116D01*
X12277500Y-6306884D01*
X12277500Y-6306882D01*
X12268066Y-6271677D01*
X12255181Y-6223590D01*
X12255180Y-6223588D01*
X12255180Y-6223587D01*
X12212069Y-6148916D01*
X12212066Y-6148913D01*
X12212065Y-6148910D01*
X12166852Y-6103697D01*
X12152500Y-6069049D01*
X12152500Y-5180951D01*
X12166852Y-5146303D01*
X12186745Y-5126410D01*
X12212065Y-5101090D01*
X12255181Y-5026410D01*
X12277500Y-4943116D01*
X12277500Y-4856884D01*
X12277500Y-4856882D01*
X12261967Y-4798916D01*
X12255181Y-4773590D01*
X12255180Y-4773588D01*
X12255180Y-4773587D01*
X12212069Y-4698916D01*
X12212066Y-4698913D01*
X12212065Y-4698910D01*
X12199303Y-4686148D01*
X12184951Y-4651500D01*
X12199303Y-4616852D01*
X12233951Y-4602500D01*
X12873500Y-4602500D01*
X12908148Y-4616852D01*
X12922500Y-4651500D01*
X12922500Y-5444049D01*
X12908148Y-5478697D01*
X12862937Y-5523907D01*
X12862930Y-5523916D01*
X12819819Y-5598587D01*
X12819819Y-5598589D01*
X12797500Y-5681882D01*
X12797500Y-5768117D01*
X12819819Y-5851410D01*
X12819819Y-5851412D01*
X12862930Y-5926083D01*
X12862933Y-5926087D01*
X12862935Y-5926090D01*
X12923910Y-5987065D01*
X12923913Y-5987066D01*
X12923916Y-5987069D01*
X12927152Y-5988937D01*
X12998590Y-6030181D01*
X13037244Y-6040538D01*
X13081882Y-6052500D01*
X13081884Y-6052500D01*
X13168118Y-6052500D01*
X13197180Y-6044712D01*
X13251410Y-6030181D01*
X13326090Y-5987065D01*
X13387065Y-5926090D01*
X13430181Y-5851410D01*
X13452500Y-5768116D01*
X13452500Y-5681884D01*
X13452500Y-5681882D01*
X13436223Y-5621140D01*
X13430181Y-5598590D01*
X13430180Y-5598588D01*
X13430180Y-5598587D01*
X13387069Y-5523916D01*
X13387066Y-5523913D01*
X13387065Y-5523910D01*
X13341852Y-5478697D01*
X13327500Y-5444049D01*
X13327500Y-5155707D01*
X13341852Y-5121059D01*
X13376500Y-5106707D01*
X13401000Y-5113272D01*
X13460286Y-5147500D01*
X13473590Y-5155181D01*
X13512244Y-5165538D01*
X13556882Y-5177500D01*
X13556884Y-5177500D01*
X13643118Y-5177500D01*
X13672180Y-5169712D01*
X13726410Y-5155181D01*
X13741788Y-5146303D01*
X13801083Y-5112069D01*
X13801082Y-5112069D01*
X13801090Y-5112065D01*
X13862065Y-5051090D01*
X13905181Y-4976410D01*
X13927500Y-4893116D01*
X13927500Y-4806884D01*
X13927500Y-4806882D01*
X13909025Y-4737937D01*
X13905181Y-4723590D01*
X13905180Y-4723588D01*
X13905180Y-4723587D01*
X13862069Y-4648916D01*
X13862066Y-4648913D01*
X13862065Y-4648910D01*
X13816852Y-4603697D01*
X13802500Y-4569049D01*
X13802500Y-3359722D01*
X13802499Y-3359718D01*
X13801324Y-3356882D01*
X13771671Y-3285293D01*
X13771669Y-3285291D01*
X13771669Y-3285290D01*
X13714710Y-3228331D01*
X13714708Y-3228330D01*
X13714707Y-3228329D01*
X13671110Y-3210270D01*
X13640281Y-3197500D01*
X13640280Y-3197500D01*
X13630951Y-3197500D01*
X13630950Y-3197499D01*
X13630950Y-3197500D01*
X13596303Y-3183148D01*
X13551090Y-3137935D01*
X13551089Y-3137934D01*
X13549752Y-3136597D01*
X13535486Y-3104827D01*
X13468603Y-1967809D01*
X13480895Y-1932379D01*
X13482870Y-1930284D01*
X13486744Y-1926410D01*
X13512065Y-1901090D01*
X13555181Y-1826410D01*
X13577500Y-1743116D01*
X13577500Y-1656884D01*
X13577500Y-1656882D01*
X13561967Y-1598916D01*
X13555181Y-1573590D01*
X13555180Y-1573588D01*
X13555180Y-1573587D01*
X13512069Y-1498916D01*
X13512066Y-1498913D01*
X13512065Y-1498910D01*
X13451090Y-1437935D01*
X13451087Y-1437933D01*
X13451083Y-1437930D01*
X13376411Y-1394819D01*
X13293118Y-1372500D01*
X13293116Y-1372500D01*
X13206884Y-1372500D01*
X13206882Y-1372500D01*
X13123589Y-1394819D01*
X13123587Y-1394819D01*
X13048916Y-1437930D01*
X13048907Y-1437937D01*
X12987937Y-1498907D01*
X12987930Y-1498916D01*
X12944819Y-1573587D01*
X12944819Y-1573589D01*
X12922500Y-1656882D01*
X12922500Y-1743117D01*
X12944819Y-1826410D01*
X12944819Y-1826412D01*
X12987930Y-1901083D01*
X12987937Y-1901092D01*
X13050245Y-1963400D01*
X13064512Y-1995171D01*
X13067302Y-2042607D01*
X13055010Y-2078038D01*
X13031071Y-2092814D01*
X13023590Y-2094818D01*
X13023587Y-2094820D01*
X12948916Y-2137930D01*
X12948907Y-2137937D01*
X12885664Y-2201181D01*
X12884627Y-2200144D01*
X12856377Y-2216439D01*
X12820155Y-2206719D01*
X12814476Y-2201040D01*
X12814336Y-2201181D01*
X12751092Y-2137937D01*
X12751090Y-2137935D01*
X12751087Y-2137933D01*
X12751083Y-2137930D01*
X12676411Y-2094819D01*
X12593118Y-2072500D01*
X12593116Y-2072500D01*
X12506884Y-2072500D01*
X12506882Y-2072500D01*
X12423589Y-2094819D01*
X12423587Y-2094819D01*
X12348916Y-2137930D01*
X12348907Y-2137937D01*
X12287937Y-2198907D01*
X12287930Y-2198916D01*
X12244819Y-2273587D01*
X12244819Y-2273589D01*
X12222500Y-2356882D01*
X12222500Y-2443117D01*
X12244819Y-2526410D01*
X12244819Y-2526412D01*
X12287930Y-2601083D01*
X12287937Y-2601092D01*
X12333148Y-2646303D01*
X12347500Y-2680951D01*
X12347500Y-3373080D01*
X12378329Y-3447507D01*
X12378330Y-3447508D01*
X12378331Y-3447510D01*
X12435289Y-3504468D01*
X12435291Y-3504469D01*
X12435293Y-3504471D01*
X12509720Y-3535300D01*
X12509722Y-3535300D01*
X12590278Y-3535300D01*
X12590280Y-3535300D01*
X12664707Y-3504471D01*
X12664709Y-3504468D01*
X12664711Y-3504468D01*
X12721669Y-3447510D01*
X12721669Y-3447509D01*
X12721671Y-3447507D01*
X12752500Y-3373080D01*
X12752500Y-2680951D01*
X12766742Y-2646413D01*
X12812065Y-2601090D01*
X12812461Y-2600403D01*
X12815242Y-2597605D01*
X12829875Y-2591489D01*
X12843606Y-2583562D01*
X12846796Y-2584417D01*
X12849845Y-2583143D01*
X12864517Y-2589166D01*
X12879830Y-2593270D01*
X12883532Y-2596972D01*
X12884538Y-2597385D01*
X12884963Y-2598403D01*
X12885521Y-2598961D01*
X12885664Y-2598819D01*
X12887935Y-2601090D01*
X12948910Y-2662065D01*
X12982836Y-2681652D01*
X13005667Y-2711404D01*
X13006385Y-2714477D01*
X13095740Y-3161254D01*
X13088912Y-3195766D01*
X13089540Y-3196129D01*
X13088476Y-3197971D01*
X13088462Y-3198044D01*
X13088319Y-3198243D01*
X13044819Y-3273587D01*
X13044819Y-3273589D01*
X13022500Y-3356882D01*
X13022500Y-3443117D01*
X13044819Y-3526410D01*
X13044819Y-3526412D01*
X13087930Y-3601083D01*
X13087933Y-3601087D01*
X13087935Y-3601090D01*
X13148910Y-3662065D01*
X13148913Y-3662066D01*
X13148916Y-3662069D01*
X13223588Y-3705180D01*
X13223590Y-3705181D01*
X13262244Y-3715538D01*
X13306882Y-3727500D01*
X13348500Y-3727500D01*
X13383148Y-3741852D01*
X13397500Y-3776500D01*
X13397500Y-4282376D01*
X13383148Y-4317024D01*
X13348500Y-4331376D01*
X13313852Y-4317024D01*
X13303230Y-4301128D01*
X13296670Y-4285291D01*
X13239710Y-4228331D01*
X13239708Y-4228330D01*
X13239707Y-4228329D01*
X13196110Y-4210270D01*
X13165281Y-4197500D01*
X13165280Y-4197500D01*
X11481421Y-4197500D01*
X11446773Y-4183148D01*
X11432421Y-4148500D01*
X11436150Y-4129750D01*
X11452500Y-4090280D01*
X11452500Y-3792520D01*
X11452500Y-1001500D01*
X11466852Y-966852D01*
X11501500Y-952500D01*
X16473786Y-952500D01*
X16476912Y-953795D01*
G37*
%TD.AperFunction*%
%TD*%
%TA.AperFunction,Conductor*%
%TO.N,GND*%
G36*
X37735148Y-264852D02*
G01*
X37749500Y-299500D01*
X37749500Y-9700500D01*
X37735148Y-9735148D01*
X37700500Y-9749500D01*
X35345043Y-9749500D01*
X35310395Y-9735148D01*
X35296043Y-9700500D01*
X35310395Y-9665852D01*
X35323721Y-9656948D01*
X35323629Y-9656787D01*
X35326087Y-9655367D01*
X35326295Y-9655229D01*
X35326410Y-9655181D01*
X35401083Y-9612069D01*
X35401082Y-9612069D01*
X35401090Y-9612065D01*
X35462065Y-9551090D01*
X35505181Y-9476410D01*
X35527500Y-9393116D01*
X35527500Y-9306884D01*
X35527500Y-9306882D01*
X35513487Y-9254588D01*
X35505181Y-9223590D01*
X35505180Y-9223588D01*
X35505180Y-9223587D01*
X35462069Y-9148916D01*
X35462066Y-9148913D01*
X35462065Y-9148910D01*
X35401090Y-9087935D01*
X35401087Y-9087933D01*
X35401083Y-9087930D01*
X35326411Y-9044819D01*
X35243118Y-9022500D01*
X35243116Y-9022500D01*
X35156884Y-9022500D01*
X35156882Y-9022500D01*
X35080868Y-9042868D01*
X35077065Y-9043888D01*
X35070489Y-9045650D01*
X35070025Y-9043921D01*
X35038237Y-9043888D01*
X35011746Y-9017342D01*
X35011786Y-8979839D01*
X35019150Y-8968831D01*
X35018988Y-8968723D01*
X35021666Y-8964711D01*
X35021671Y-8964707D01*
X35052500Y-8890280D01*
X35052500Y-8580951D01*
X35066852Y-8546303D01*
X35112065Y-8501090D01*
X35155181Y-8426410D01*
X35177500Y-8343116D01*
X35177500Y-8256884D01*
X35177500Y-8256882D01*
X35164448Y-8208175D01*
X35155181Y-8173590D01*
X35155180Y-8173588D01*
X35155180Y-8173587D01*
X35112069Y-8098916D01*
X35112066Y-8098913D01*
X35112065Y-8098910D01*
X35051090Y-8037935D01*
X35051087Y-8037933D01*
X35051083Y-8037930D01*
X34976411Y-7994819D01*
X34893118Y-7972500D01*
X34893116Y-7972500D01*
X34806884Y-7972500D01*
X34806882Y-7972500D01*
X34723589Y-7994819D01*
X34723587Y-7994819D01*
X34648916Y-8037930D01*
X34648907Y-8037937D01*
X34587937Y-8098907D01*
X34587930Y-8098916D01*
X34544819Y-8173587D01*
X34544819Y-8173589D01*
X34522500Y-8256882D01*
X34522500Y-8343117D01*
X34544819Y-8426410D01*
X34544819Y-8426412D01*
X34587930Y-8501083D01*
X34587937Y-8501092D01*
X34633148Y-8546303D01*
X34647500Y-8580951D01*
X34647500Y-8598500D01*
X34633148Y-8633148D01*
X34598500Y-8647500D01*
X33580951Y-8647500D01*
X33546303Y-8633148D01*
X33516852Y-8603697D01*
X33502500Y-8569049D01*
X33502500Y-8201500D01*
X33516852Y-8166852D01*
X33551500Y-8152500D01*
X34340278Y-8152500D01*
X34340280Y-8152500D01*
X34414707Y-8121671D01*
X34414709Y-8121669D01*
X34414710Y-8121669D01*
X34471669Y-8064710D01*
X34471669Y-8064709D01*
X34471671Y-8064707D01*
X34502500Y-7990280D01*
X34502500Y-3130178D01*
X34516852Y-3095530D01*
X34532747Y-3084909D01*
X34564707Y-3071671D01*
X34564708Y-3071669D01*
X34564710Y-3071669D01*
X34621669Y-3014710D01*
X34621669Y-3014709D01*
X34621671Y-3014707D01*
X34652500Y-2940280D01*
X34652500Y-1280951D01*
X34666852Y-1246303D01*
X34686745Y-1226410D01*
X34712065Y-1201090D01*
X34745536Y-1143116D01*
X34755180Y-1126412D01*
X34755180Y-1126411D01*
X34755181Y-1126410D01*
X34777500Y-1043116D01*
X34777500Y-956884D01*
X34777500Y-956882D01*
X34766640Y-916355D01*
X34766640Y-916354D01*
X34764102Y-906882D01*
X35572500Y-906882D01*
X35572500Y-1043117D01*
X35594819Y-1126410D01*
X35594819Y-1126412D01*
X35637930Y-1201083D01*
X35637937Y-1201092D01*
X35683148Y-1246303D01*
X35697500Y-1280951D01*
X35697500Y-7569049D01*
X35683148Y-7603697D01*
X35637937Y-7648907D01*
X35637930Y-7648916D01*
X35594819Y-7723587D01*
X35594819Y-7723589D01*
X35572500Y-7806882D01*
X35572500Y-7893117D01*
X35594819Y-7976410D01*
X35594819Y-7976412D01*
X35637930Y-8051083D01*
X35637933Y-8051087D01*
X35637935Y-8051090D01*
X35698910Y-8112065D01*
X35698913Y-8112066D01*
X35698916Y-8112069D01*
X35768946Y-8152500D01*
X35773590Y-8155181D01*
X35812244Y-8165538D01*
X35856882Y-8177500D01*
X35856884Y-8177500D01*
X35943118Y-8177500D01*
X35972180Y-8169712D01*
X36026410Y-8155181D01*
X36031056Y-8152499D01*
X36101083Y-8112069D01*
X36101082Y-8112069D01*
X36101090Y-8112065D01*
X36162065Y-8051090D01*
X36198694Y-7987646D01*
X36205180Y-7976412D01*
X36205180Y-7976411D01*
X36205181Y-7976410D01*
X36227500Y-7893116D01*
X36227500Y-7806884D01*
X36227500Y-7806882D01*
X36216198Y-7764707D01*
X36205181Y-7723590D01*
X36205180Y-7723588D01*
X36205180Y-7723587D01*
X36162069Y-7648916D01*
X36162066Y-7648913D01*
X36162065Y-7648910D01*
X36116852Y-7603697D01*
X36102500Y-7569049D01*
X36102500Y-1280951D01*
X36116852Y-1246303D01*
X36136745Y-1226410D01*
X36162065Y-1201090D01*
X36195536Y-1143116D01*
X36205180Y-1126412D01*
X36205180Y-1126411D01*
X36205181Y-1126410D01*
X36227500Y-1043116D01*
X36227500Y-956884D01*
X36227500Y-906884D01*
X36227500Y-906882D01*
X36216773Y-866852D01*
X36205181Y-823590D01*
X36205180Y-823588D01*
X36205180Y-823587D01*
X36162069Y-748916D01*
X36162066Y-748913D01*
X36162065Y-748910D01*
X36101090Y-687935D01*
X36101087Y-687933D01*
X36101083Y-687930D01*
X36026411Y-644819D01*
X35943118Y-622500D01*
X35943116Y-622500D01*
X35856884Y-622500D01*
X35856882Y-622500D01*
X35773589Y-644819D01*
X35773587Y-644819D01*
X35698916Y-687930D01*
X35698907Y-687937D01*
X35637937Y-748907D01*
X35637930Y-748916D01*
X35594819Y-823587D01*
X35594819Y-823589D01*
X35572500Y-906882D01*
X34764102Y-906882D01*
X34755181Y-873591D01*
X34755180Y-873587D01*
X34712069Y-798916D01*
X34712066Y-798913D01*
X34712065Y-798910D01*
X34651090Y-737935D01*
X34651087Y-737933D01*
X34651083Y-737930D01*
X34576411Y-694819D01*
X34493118Y-672500D01*
X34493116Y-672500D01*
X34406884Y-672500D01*
X34406882Y-672500D01*
X34323589Y-694819D01*
X34323587Y-694819D01*
X34248916Y-737930D01*
X34248907Y-737937D01*
X34187937Y-798907D01*
X34187930Y-798916D01*
X34144819Y-873587D01*
X34144819Y-873589D01*
X34122500Y-956882D01*
X34122500Y-1043117D01*
X34144819Y-1126410D01*
X34144819Y-1126412D01*
X34187930Y-1201083D01*
X34187937Y-1201092D01*
X34233148Y-1246303D01*
X34247500Y-1280951D01*
X34247500Y-1329859D01*
X34233148Y-1364507D01*
X34198500Y-1378859D01*
X34174000Y-1372295D01*
X34164572Y-1366852D01*
X34126410Y-1344819D01*
X34126409Y-1344818D01*
X34126408Y-1344818D01*
X34043118Y-1322500D01*
X34043116Y-1322500D01*
X33956884Y-1322500D01*
X33956882Y-1322500D01*
X33873589Y-1344819D01*
X33873587Y-1344819D01*
X33798916Y-1387930D01*
X33798907Y-1387937D01*
X33737937Y-1448907D01*
X33737930Y-1448916D01*
X33694819Y-1523587D01*
X33694819Y-1523589D01*
X33672500Y-1606882D01*
X33672500Y-1693117D01*
X33694819Y-1776410D01*
X33694819Y-1776412D01*
X33737930Y-1851083D01*
X33737937Y-1851092D01*
X33783148Y-1896303D01*
X33797500Y-1930951D01*
X33797500Y-2629859D01*
X33783148Y-2664507D01*
X33748500Y-2678859D01*
X33724000Y-2672295D01*
X33676408Y-2644818D01*
X33593118Y-2622500D01*
X33593116Y-2622500D01*
X33506884Y-2622500D01*
X33506882Y-2622500D01*
X33423589Y-2644819D01*
X33423587Y-2644819D01*
X33348916Y-2687930D01*
X33348907Y-2687937D01*
X33287937Y-2748907D01*
X33287930Y-2748916D01*
X33244819Y-2823587D01*
X33244819Y-2823589D01*
X33223370Y-2903632D01*
X33223369Y-2903638D01*
X33222500Y-2906884D01*
X33222500Y-2922786D01*
X33222500Y-2993117D01*
X33244819Y-3076410D01*
X33244819Y-3076412D01*
X33287930Y-3151083D01*
X33287937Y-3151092D01*
X33333148Y-3196303D01*
X33347500Y-3230951D01*
X33347500Y-3284049D01*
X33333148Y-3318697D01*
X33287937Y-3363907D01*
X33287930Y-3363916D01*
X33267435Y-3399416D01*
X33237682Y-3422246D01*
X33200500Y-3417351D01*
X33182565Y-3399416D01*
X33162069Y-3363916D01*
X33162066Y-3363913D01*
X33162065Y-3363910D01*
X33122140Y-3323985D01*
X33107788Y-3289337D01*
X33107839Y-3287112D01*
X33107979Y-3284049D01*
X33139443Y-2591833D01*
X33153744Y-2559411D01*
X33164033Y-2549122D01*
X33212065Y-2501090D01*
X33255181Y-2426410D01*
X33277500Y-2343116D01*
X33277500Y-2256884D01*
X33277500Y-2256882D01*
X33268066Y-2221677D01*
X33255181Y-2173590D01*
X33255180Y-2173588D01*
X33255180Y-2173587D01*
X33212069Y-2098916D01*
X33212066Y-2098913D01*
X33212065Y-2098910D01*
X33151090Y-2037935D01*
X33151087Y-2037933D01*
X33151083Y-2037930D01*
X33076411Y-1994819D01*
X32993118Y-1972500D01*
X32993116Y-1972500D01*
X32906884Y-1972500D01*
X32906882Y-1972500D01*
X32823589Y-1994819D01*
X32823587Y-1994819D01*
X32748916Y-2037930D01*
X32748907Y-2037937D01*
X32736148Y-2050697D01*
X32701500Y-2065049D01*
X32666852Y-2050697D01*
X32652500Y-2016049D01*
X32652500Y-780951D01*
X32666852Y-746303D01*
X32681012Y-732143D01*
X32712065Y-701090D01*
X32755181Y-626410D01*
X32777500Y-543116D01*
X32777500Y-456884D01*
X32777500Y-456882D01*
X32768066Y-421677D01*
X32755181Y-373590D01*
X32755180Y-373588D01*
X32755180Y-373587D01*
X32726551Y-324000D01*
X32721656Y-286818D01*
X32744486Y-257065D01*
X32768986Y-250500D01*
X37700500Y-250500D01*
X37735148Y-264852D01*
G37*
%TD.AperFunction*%
%TA.AperFunction,Conductor*%
G36*
X31492729Y-855034D02*
G01*
X31499295Y-854170D01*
X31509443Y-861957D01*
X31521260Y-866852D01*
X31523793Y-872969D01*
X31529048Y-877001D01*
X31530717Y-889683D01*
X31535612Y-901500D01*
X31533942Y-914183D01*
X31522500Y-956882D01*
X31522500Y-1043117D01*
X31544819Y-1126410D01*
X31544819Y-1126412D01*
X31587930Y-1201083D01*
X31587933Y-1201087D01*
X31587935Y-1201090D01*
X31648910Y-1262065D01*
X31648913Y-1262066D01*
X31648916Y-1262069D01*
X31716504Y-1301090D01*
X31723590Y-1305181D01*
X31762244Y-1315538D01*
X31806882Y-1327500D01*
X31806884Y-1327500D01*
X31893118Y-1327500D01*
X31922180Y-1319712D01*
X31976410Y-1305181D01*
X32051090Y-1262065D01*
X32112065Y-1201090D01*
X32145536Y-1143116D01*
X32156065Y-1124879D01*
X32185817Y-1102049D01*
X32223000Y-1106944D01*
X32245830Y-1136696D01*
X32247500Y-1149379D01*
X32247500Y-3940281D01*
X32257468Y-3964345D01*
X32278329Y-4014707D01*
X32278330Y-4014708D01*
X32278331Y-4014710D01*
X32335290Y-4071669D01*
X32335291Y-4071669D01*
X32335293Y-4071671D01*
X32365500Y-4084183D01*
X32392018Y-4110702D01*
X32395747Y-4129825D01*
X32374642Y-6907276D01*
X32360292Y-6941552D01*
X32312934Y-6988911D01*
X32312930Y-6988916D01*
X32292435Y-7024416D01*
X32262682Y-7047246D01*
X32225500Y-7042351D01*
X32207565Y-7024416D01*
X32187069Y-6988916D01*
X32187066Y-6988913D01*
X32187065Y-6988910D01*
X32126090Y-6927935D01*
X32126087Y-6927933D01*
X32126083Y-6927930D01*
X32051411Y-6884819D01*
X31968118Y-6862500D01*
X31968116Y-6862500D01*
X31881884Y-6862500D01*
X31881882Y-6862500D01*
X31798589Y-6884819D01*
X31798587Y-6884819D01*
X31723916Y-6927930D01*
X31723907Y-6927937D01*
X31662937Y-6988907D01*
X31662930Y-6988916D01*
X31619819Y-7063587D01*
X31619819Y-7063589D01*
X31597500Y-7146882D01*
X31597500Y-7233117D01*
X31619819Y-7316410D01*
X31619819Y-7316412D01*
X31662930Y-7391083D01*
X31662937Y-7391092D01*
X31708148Y-7436303D01*
X31722500Y-7470951D01*
X31722500Y-7723500D01*
X31708148Y-7758148D01*
X31673500Y-7772500D01*
X31334718Y-7772500D01*
X31328949Y-7774889D01*
X31291446Y-7774885D01*
X31264931Y-7748363D01*
X31262878Y-7742317D01*
X31255181Y-7713590D01*
X31252170Y-7708374D01*
X31212069Y-7638916D01*
X31212066Y-7638913D01*
X31212065Y-7638910D01*
X31166852Y-7593697D01*
X31152500Y-7559049D01*
X31152500Y-7359722D01*
X31152499Y-7359718D01*
X31147156Y-7346819D01*
X31121671Y-7285293D01*
X31121669Y-7285291D01*
X31121669Y-7285290D01*
X31064710Y-7228331D01*
X31064708Y-7228330D01*
X31064707Y-7228329D01*
X31021110Y-7210270D01*
X30990281Y-7197500D01*
X30990280Y-7197500D01*
X29890280Y-7197500D01*
X29809720Y-7197500D01*
X29809718Y-7197500D01*
X29735291Y-7228330D01*
X29678331Y-7285290D01*
X29678330Y-7285290D01*
X29651754Y-7349448D01*
X29625234Y-7375966D01*
X29587731Y-7375965D01*
X29581985Y-7373131D01*
X29536410Y-7346819D01*
X29453118Y-7324500D01*
X29453116Y-7324500D01*
X29366884Y-7324500D01*
X29366882Y-7324500D01*
X29283589Y-7346819D01*
X29283587Y-7346819D01*
X29208916Y-7389930D01*
X29208907Y-7389937D01*
X29163697Y-7435148D01*
X29129049Y-7449500D01*
X29001500Y-7449500D01*
X28966852Y-7435148D01*
X28952500Y-7400500D01*
X28952500Y-7049000D01*
X28966852Y-7014352D01*
X28998939Y-7001060D01*
X29000000Y-7000000D01*
X29000000Y-5833446D01*
X29009353Y-5804652D01*
X29011608Y-5801546D01*
X29012065Y-5801090D01*
X29012549Y-5800250D01*
X29014057Y-5798175D01*
X29028019Y-5789615D01*
X29041011Y-5779642D01*
X29043709Y-5779996D01*
X29046030Y-5778574D01*
X29061955Y-5782394D01*
X29078194Y-5784528D01*
X29079851Y-5786687D01*
X29082498Y-5787322D01*
X29091057Y-5801284D01*
X29101031Y-5814276D01*
X29101034Y-5814285D01*
X29104819Y-5828411D01*
X29104819Y-5828412D01*
X29147930Y-5903083D01*
X29147933Y-5903087D01*
X29147935Y-5903090D01*
X29208910Y-5964065D01*
X29208913Y-5964066D01*
X29208916Y-5964069D01*
X29283588Y-6007180D01*
X29283590Y-6007181D01*
X29322244Y-6017538D01*
X29366882Y-6029500D01*
X29366884Y-6029500D01*
X29453118Y-6029500D01*
X29482180Y-6021712D01*
X29536410Y-6007181D01*
X29611090Y-5964065D01*
X29672065Y-5903090D01*
X29681171Y-5887316D01*
X29715180Y-5828412D01*
X29715180Y-5828411D01*
X29715181Y-5828410D01*
X29737500Y-5745116D01*
X29737500Y-5658884D01*
X29737500Y-5658882D01*
X29728066Y-5623677D01*
X29715181Y-5575590D01*
X29715180Y-5575588D01*
X29715180Y-5575587D01*
X29672069Y-5500916D01*
X29672066Y-5500913D01*
X29672065Y-5500910D01*
X29626852Y-5455697D01*
X29612500Y-5421049D01*
X29612500Y-5332951D01*
X29626852Y-5298303D01*
X29672065Y-5253090D01*
X29715181Y-5178410D01*
X29737500Y-5095116D01*
X29737500Y-5008884D01*
X29737500Y-5008882D01*
X29720271Y-4944587D01*
X29715181Y-4925590D01*
X29715180Y-4925588D01*
X29715180Y-4925587D01*
X29672069Y-4850916D01*
X29672066Y-4850913D01*
X29672065Y-4850910D01*
X29611090Y-4789935D01*
X29611087Y-4789933D01*
X29611083Y-4789930D01*
X29536411Y-4746819D01*
X29453118Y-4724500D01*
X29453116Y-4724500D01*
X29366884Y-4724500D01*
X29366882Y-4724500D01*
X29283589Y-4746819D01*
X29283587Y-4746819D01*
X29208916Y-4789930D01*
X29208907Y-4789937D01*
X29147937Y-4850907D01*
X29147930Y-4850916D01*
X29104819Y-4925587D01*
X29104819Y-4925589D01*
X29096330Y-4957270D01*
X29073499Y-4987023D01*
X29036317Y-4991917D01*
X29006564Y-4969086D01*
X29000000Y-4944587D01*
X29000000Y-4508451D01*
X29014352Y-4473803D01*
X29062065Y-4426090D01*
X29105181Y-4351410D01*
X29127500Y-4268116D01*
X29127500Y-4181884D01*
X29127500Y-4181882D01*
X29118066Y-4146677D01*
X29105181Y-4098590D01*
X29105180Y-4098588D01*
X29105180Y-4098587D01*
X29062069Y-4023916D01*
X29062066Y-4023913D01*
X29062065Y-4023910D01*
X29016852Y-3978697D01*
X29002500Y-3944049D01*
X29002500Y-3201500D01*
X29016852Y-3166852D01*
X29051500Y-3152500D01*
X29744049Y-3152500D01*
X29778697Y-3166852D01*
X29823910Y-3212065D01*
X29823913Y-3212066D01*
X29823916Y-3212069D01*
X29898588Y-3255180D01*
X29898590Y-3255181D01*
X29937244Y-3265538D01*
X29981882Y-3277500D01*
X29981884Y-3277500D01*
X30068118Y-3277500D01*
X30097180Y-3269712D01*
X30151410Y-3255181D01*
X30226090Y-3212065D01*
X30287065Y-3151090D01*
X30330181Y-3076410D01*
X30347783Y-3010719D01*
X30352500Y-2993117D01*
X30352500Y-2906882D01*
X30339102Y-2856882D01*
X30330181Y-2823590D01*
X30330180Y-2823588D01*
X30330180Y-2823587D01*
X30287069Y-2748916D01*
X30287066Y-2748913D01*
X30287065Y-2748910D01*
X30226090Y-2687935D01*
X30226087Y-2687933D01*
X30223538Y-2685977D01*
X30224617Y-2684570D01*
X30205252Y-2659330D01*
X30210149Y-2622148D01*
X30228082Y-2604215D01*
X30301090Y-2562065D01*
X30362065Y-2501090D01*
X30405181Y-2426410D01*
X30427500Y-2343116D01*
X30427500Y-2256884D01*
X30427500Y-2256882D01*
X30418066Y-2221677D01*
X30405181Y-2173590D01*
X30405180Y-2173588D01*
X30405180Y-2173587D01*
X30362069Y-2098916D01*
X30362066Y-2098913D01*
X30362065Y-2098910D01*
X30301090Y-2037935D01*
X30301087Y-2037933D01*
X30301083Y-2037930D01*
X30226411Y-1994819D01*
X30143118Y-1972500D01*
X30143116Y-1972500D01*
X30056884Y-1972500D01*
X30056882Y-1972500D01*
X29973589Y-1994819D01*
X29973587Y-1994819D01*
X29898916Y-2037930D01*
X29898907Y-2037937D01*
X29853697Y-2083148D01*
X29819049Y-2097500D01*
X26859718Y-2097500D01*
X26785291Y-2128330D01*
X26728330Y-2185291D01*
X26696770Y-2261482D01*
X26670251Y-2288000D01*
X26632748Y-2288000D01*
X26606230Y-2261481D01*
X26602500Y-2242730D01*
X26602500Y-1601000D01*
X26616852Y-1566352D01*
X26651500Y-1552000D01*
X27127000Y-1552000D01*
X27127000Y-1401500D01*
X27141352Y-1366852D01*
X27176000Y-1352500D01*
X30498500Y-1352500D01*
X30533148Y-1366852D01*
X30547500Y-1401500D01*
X30547500Y-6219049D01*
X30533148Y-6253697D01*
X30487937Y-6298907D01*
X30487930Y-6298916D01*
X30444819Y-6373587D01*
X30444819Y-6373589D01*
X30422500Y-6456882D01*
X30422500Y-6543117D01*
X30444819Y-6626410D01*
X30444819Y-6626412D01*
X30487930Y-6701083D01*
X30487933Y-6701087D01*
X30487935Y-6701090D01*
X30548910Y-6762065D01*
X30548913Y-6762066D01*
X30548916Y-6762069D01*
X30623588Y-6805180D01*
X30623590Y-6805181D01*
X30662244Y-6815538D01*
X30706882Y-6827500D01*
X30706884Y-6827500D01*
X30793118Y-6827500D01*
X30822180Y-6819712D01*
X30876410Y-6805181D01*
X30951090Y-6762065D01*
X31012065Y-6701090D01*
X31055181Y-6626410D01*
X31077500Y-6543116D01*
X31077500Y-6456884D01*
X31077500Y-6456882D01*
X31068066Y-6421677D01*
X31055181Y-6373590D01*
X31055180Y-6373588D01*
X31055180Y-6373587D01*
X31012069Y-6298916D01*
X31012066Y-6298913D01*
X31012065Y-6298910D01*
X30966852Y-6253697D01*
X30952500Y-6219049D01*
X30952500Y-1109722D01*
X30952499Y-1109718D01*
X30951350Y-1106944D01*
X30921671Y-1035293D01*
X30921669Y-1035291D01*
X30921669Y-1035290D01*
X30864710Y-978331D01*
X30864708Y-978330D01*
X30864707Y-978329D01*
X30790280Y-947500D01*
X30788518Y-946770D01*
X30762000Y-920251D01*
X30762000Y-882748D01*
X30788519Y-856230D01*
X30807270Y-852500D01*
X31486612Y-852500D01*
X31492729Y-855034D01*
G37*
%TD.AperFunction*%
%TD*%
M02*
