M48
; DRILL file {KiCad 9.0.8-9.0.8~ubuntu24.04.1} date 2026-06-29T14:42:11-0400
; FORMAT={-:-/ absolute / metric / decimal}
; #@! TF.CreationDate,2026-06-29T14:42:11-04:00
; #@! TF.GenerationSoftware,Kicad,Pcbnew,9.0.8-9.0.8~ubuntu24.04.1
; #@! TF.FileFunction,MixedPlating,1,2
FMAT,2
METRIC
; #@! TA.AperFunction,Plated,PTH,ViaDrill
T1C0.200
%
G90
G05
T1
X3.05Y-4.2
X3.6Y-3.05
X3.6Y-5.75
X5.5Y-5.0
X7.0Y-5.85
X7.1Y-2.35
X7.4Y-3.15
X7.98Y-4.291
X8.0Y-6.251
X8.0Y-8.3
X8.75Y-1.65
X9.05Y-8.15
X9.45Y-1.8
X9.5Y-5.35
X9.95Y-4.85
X10.55Y-3.833
X10.7Y-6.7
X11.375Y-6.575
X11.95Y-4.9
X11.95Y-6.35
X12.55Y-5.833
X12.75Y-8.125
X13.125Y-5.725
X13.15Y-2.4
X13.25Y-1.7
X13.35Y-3.4
X13.6Y-4.85
X15.75Y-3.55
X16.2Y-6.255
X16.35Y-3.6
X16.85Y-1.05
X16.85Y-1.65
X17.2Y-4.655
X17.2Y-5.55
X17.2Y-6.255
X17.2Y-7.35
X17.3Y-0.5
X18.45Y-7.675
X18.45Y-9.525
X18.9Y-7.2
X25.35Y-5.6
X25.85Y-1.1
X25.85Y-6.7
X26.4Y-2.9
X26.75Y-9.25
X27.35Y-2.9
X27.35Y-3.415
X27.45Y-6.1
X27.53Y-6.7
X27.95Y-5.1
X27.95Y-7.675
X28.0Y-9.25
X28.15Y-4.45
X28.75Y-5.6
X28.8Y-4.225
X29.4Y-6.35
X29.41Y-5.052
X29.41Y-5.702
X29.41Y-7.002
X29.41Y-7.652
X30.025Y-2.95
X30.1Y-2.3
X30.1Y-4.75
X30.3Y-7.84
X30.75Y-6.5
X30.85Y-8.45
X30.95Y-7.84
X31.25Y-1.1
X31.25Y-4.75
X31.85Y-1.0
X31.925Y-7.19
X32.45Y-0.5
X32.575Y-7.19
X32.9Y-3.565
X32.95Y-2.3
X33.225Y-7.19
X33.3Y-8.85
X33.55Y-2.95
X33.55Y-3.565
X34.0Y-1.65
X34.25Y-8.423
X34.45Y-1.0
X34.85Y-8.3
X35.2Y-9.35
X35.3Y-2.8
X35.9Y-0.95
X35.9Y-7.85
X36.4Y-4.7
M30
