%TF.GenerationSoftware,KiCad,Pcbnew,9.0.8-9.0.8~ubuntu24.04.1*%
%TF.CreationDate,2026-08-12T17:38:36-04:00*%
%TF.ProjectId,ring,72696e67-2e6b-4696-9361-645f70636258,rev?*%
%TF.SameCoordinates,Original*%
%TF.FileFunction,Copper,L2,Bot*%
%TF.FilePolarity,Positive*%
%FSLAX46Y46*%
G04 Gerber Fmt 4.6, Leading zero omitted, Abs format (unit mm)*
G04 Created by KiCad (PCBNEW 9.0.8-9.0.8~ubuntu24.04.1) date 2026-08-12 17:38:36*
%MOMM*%
%LPD*%
G01*
G04 APERTURE LIST*
%TA.AperFunction,ViaPad*%
%ADD10C,0.300000*%
%TD*%
%TA.AperFunction,Conductor*%
%ADD11C,0.150000*%
%TD*%
G04 APERTURE END LIST*
D10*
%TO.N,GND*%
X5000000Y-5600000D03*
X3900000Y-3800000D03*
X13850000Y-5450000D03*
X1800000Y-8500000D03*
X6350000Y-5150000D03*
X18000000Y-5150000D03*
X1800000Y-5750000D03*
X5750000Y-1850000D03*
X35150000Y-2400000D03*
X34250000Y-8423000D03*
X27600000Y-1800000D03*
X12600000Y-3050000D03*
X36350000Y-4750000D03*
X35150000Y-8400000D03*
X11000000Y-1000000D03*
X17852000Y-5636500D03*
%TO.N,VBUS*%
X28250000Y-1650000D03*
X27100000Y-6200000D03*
%TO.N,VBAT*%
X26570000Y-4832800D03*
X26550000Y-1750000D03*
X17050000Y-2050000D03*
X11450000Y-4600000D03*
X11450000Y-2150000D03*
X16100000Y-2050000D03*
X29410000Y-7652000D03*
X26550000Y-3500000D03*
X28150000Y-6200000D03*
X30150000Y-9150000D03*
%TO.N,SDA*%
X30050000Y-7850000D03*
X27700000Y-6900000D03*
%TO.N,SCL*%
X27550000Y-2500000D03*
X27590000Y-3482800D03*
X15400000Y-3250000D03*
X30060000Y-6677000D03*
X28850000Y-3475000D03*
X15400000Y-4200000D03*
%TO.N,HAPTIC_EN*%
X4100000Y-6600000D03*
X5750000Y-9100000D03*
%TO.N,LED_RED*%
X28800000Y-7750000D03*
X30700000Y-6550000D03*
%TO.N,MOTOR_N*%
X9000000Y-5606400D03*
X14150000Y-8500000D03*
X9000000Y-1700000D03*
%TO.N,IMU_INT*%
X32575000Y-7190000D03*
X13850000Y-4832800D03*
X32500000Y-1150000D03*
X14100000Y-2825000D03*
%TO.N,SWDIO*%
X29975000Y-2925000D03*
X32900000Y-2925000D03*
X32900000Y-3565000D03*
X28850000Y-2925000D03*
X25400000Y-9250000D03*
X25625000Y-2925000D03*
%TO.N,SWDCLK*%
X29250000Y-9250000D03*
X34450000Y-2950000D03*
%TO.N,QVAR1*%
X5400000Y-3050000D03*
X7810000Y-3969100D03*
X13200000Y-2600000D03*
X13300000Y-3832800D03*
X6850000Y-2550000D03*
X8450000Y-2500000D03*
%TO.N,QVAR1_RAW*%
X7150000Y-7250000D03*
X6800000Y-4050000D03*
%TO.N,QVAR2_RAW*%
X1250000Y-4750000D03*
X4880000Y-3855400D03*
%TO.N,LED_RED_A*%
X12750000Y-8200000D03*
X10850000Y-4100000D03*
X10750000Y-8250000D03*
X17200000Y-6254700D03*
%TO.N,LED_GREEN_A*%
X16200000Y-7250000D03*
X10200000Y-3550000D03*
X10200000Y-7450000D03*
X16200000Y-6254700D03*
%TO.N,LED_GREEN*%
X21800000Y-3300000D03*
X15400000Y-4850000D03*
X33800000Y-7200000D03*
X11550000Y-7200000D03*
X18000000Y-3300000D03*
X21800000Y-4500000D03*
%TO.N,ANT*%
X29410000Y-5052000D03*
X29410000Y-5702000D03*
%TD*%
D11*
%TO.N,GND*%
X14500000Y-3100000D02*
X14400000Y-3100000D01*
X17600000Y-4300000D02*
X17500000Y-4300000D01*
X12600000Y-2150000D02*
X12600000Y-900000D01*
X5300000Y-3550000D02*
X5350000Y-3550000D01*
X18000000Y-4550000D02*
X17600000Y-4550000D01*
X4950000Y-3450000D02*
X5150000Y-3450000D01*
X12600000Y-2150000D02*
X12600000Y-3050000D01*
X17500000Y-4300000D02*
X17500000Y-1600000D01*
X5300000Y-3550000D02*
X5300000Y-5600000D01*
X14450000Y-2600000D02*
X14500000Y-2600000D01*
X26600000Y-1300000D02*
X25900000Y-1300000D01*
X1800000Y-5600000D02*
X1800000Y-5750000D01*
X5000000Y-5600000D02*
X5300000Y-5600000D01*
X35150000Y-2400000D02*
X35150000Y-4750000D01*
X35150000Y-4750000D02*
X35150000Y-8400000D01*
X1800000Y-5750000D02*
X1800000Y-8500000D01*
X3900000Y-3450000D02*
X3900000Y-3800000D01*
X14400000Y-5450000D02*
X13850000Y-5450000D01*
X25900000Y-1300000D02*
X25900000Y-1500000D01*
X18450000Y-4550000D02*
X18000000Y-4550000D01*
X4950000Y-2600000D02*
X4950000Y-3450000D01*
X27600000Y-1350000D02*
X26600000Y-1350000D01*
X1800000Y-5600000D02*
X5000000Y-5600000D01*
X26600000Y-1350000D02*
X26600000Y-1300000D01*
X5150000Y-3550000D02*
X5300000Y-3550000D01*
X14450000Y-2450000D02*
X14450000Y-2550000D01*
X3900000Y-3450000D02*
X4950000Y-3450000D01*
X14500000Y-2600000D02*
X14500000Y-3100000D01*
X5350000Y-3450000D02*
X5350000Y-3550000D01*
X14250000Y-2150000D02*
X12600000Y-2150000D01*
X5350000Y-3550000D02*
X6200000Y-3550000D01*
X5750000Y-1850000D02*
X5750000Y-2600000D01*
X5150000Y-3550000D02*
X5150000Y-3450000D01*
X17600000Y-4550000D02*
X17600000Y-4300000D01*
X5150000Y-3450000D02*
X5350000Y-3450000D01*
X11000000Y-900000D02*
X11000000Y-1000000D01*
X14400000Y-1600000D02*
X14400000Y-2550000D01*
X14450000Y-2550000D02*
X14450000Y-2600000D01*
X14400000Y-3100000D02*
X14400000Y-5450000D01*
X17500000Y-1600000D02*
X14400000Y-1600000D01*
X5750000Y-2600000D02*
X4950000Y-2600000D01*
X14400000Y-2550000D02*
X14450000Y-2550000D01*
X6350000Y-5150000D02*
X6200000Y-5150000D01*
X25900000Y-1500000D02*
X18450000Y-1500000D01*
X6200000Y-5150000D02*
X6200000Y-3550000D01*
X14450000Y-2450000D02*
X14250000Y-2450000D01*
X12600000Y-900000D02*
X11000000Y-900000D01*
X18450000Y-1500000D02*
X18450000Y-4550000D01*
X18000000Y-5150000D02*
X18000000Y-4550000D01*
X35150000Y-4750000D02*
X36350000Y-4750000D01*
X14250000Y-2450000D02*
X14250000Y-2150000D01*
X27600000Y-1800000D02*
X27600000Y-1350000D01*
%TO.N,VBUS*%
X28250000Y-1650000D02*
X28250000Y-5750000D01*
X27110000Y-6182800D02*
X27100000Y-6200000D01*
X27100000Y-5750000D02*
X27110000Y-6182800D01*
X28250000Y-5750000D02*
X27100000Y-5750000D01*
%TO.N,VBAT*%
X27250000Y-8800000D02*
X30150000Y-8800000D01*
X28250000Y-6200000D02*
X28250000Y-6450000D01*
X27300000Y-6550000D02*
X27250000Y-6850000D01*
X30150000Y-8800000D02*
X30150000Y-9150000D01*
X29400000Y-8200000D02*
X28250000Y-8200000D01*
X28250000Y-6450000D02*
X27450000Y-6450000D01*
X27450000Y-6550000D02*
X27300000Y-6550000D01*
X29410000Y-7652000D02*
X29400000Y-8200000D01*
X28250000Y-6200000D02*
X28150000Y-6200000D01*
X17050000Y-2050000D02*
X16100000Y-2050000D01*
X26550000Y-3500000D02*
X26550000Y-1750000D01*
X26570000Y-4832800D02*
X26550000Y-3500000D01*
X27250000Y-6850000D02*
X27250000Y-8800000D01*
X28250000Y-6450000D02*
X28250000Y-8200000D01*
X27450000Y-6450000D02*
X27450000Y-6550000D01*
X11450000Y-2150000D02*
X11450000Y-4600000D01*
%TO.N,SDA*%
X30050000Y-8500000D02*
X27700000Y-8500000D01*
X27700000Y-8500000D02*
X27700000Y-6900000D01*
X30050000Y-7850000D02*
X30050000Y-8500000D01*
%TO.N,SCL*%
X15400000Y-3250000D02*
X15400000Y-4200000D01*
X30060000Y-6677000D02*
X30050000Y-6600000D01*
X28850000Y-6600000D02*
X28850000Y-3475000D01*
X27590000Y-3482800D02*
X27550000Y-2500000D01*
X30050000Y-6600000D02*
X28850000Y-6600000D01*
%TO.N,HAPTIC_EN*%
X5750000Y-9100000D02*
X5750000Y-6600000D01*
X5750000Y-6600000D02*
X4100000Y-6600000D01*
%TO.N,LED_RED*%
X30700000Y-7250000D02*
X28800000Y-7250000D01*
X28800000Y-7250000D02*
X28800000Y-7750000D01*
X30700000Y-6550000D02*
X30700000Y-7250000D01*
%TO.N,MOTOR_N*%
X14150000Y-8500000D02*
X14250000Y-8500000D01*
X14250000Y-8500000D02*
X14250000Y-9450000D01*
X9000000Y-1700000D02*
X9000000Y-5606400D01*
X9000000Y-5606400D02*
X9000000Y-9450000D01*
X14250000Y-9450000D02*
X9000000Y-9450000D01*
%TO.N,IMU_INT*%
X14100000Y-4825000D02*
X13850000Y-4832800D01*
X14100000Y-2825000D02*
X14100000Y-4825000D01*
X32575000Y-7190000D02*
X32500000Y-7200000D01*
X32500000Y-7200000D02*
X32500000Y-1150000D01*
%TO.N,SWDIO*%
X25625000Y-4950000D02*
X25400000Y-4950000D01*
X25400000Y-4950000D02*
X25400000Y-9250000D01*
X25625000Y-2925000D02*
X25625000Y-4950000D01*
X32900000Y-3565000D02*
X32900000Y-2925000D01*
X29975000Y-2925000D02*
X28850000Y-2925000D01*
%TO.N,SWDCLK*%
X34450000Y-8050000D02*
X34650000Y-8050000D01*
X34650000Y-9600000D02*
X29250000Y-9600000D01*
X29250000Y-9600000D02*
X29250000Y-9250000D01*
X34450000Y-2950000D02*
X34450000Y-8050000D01*
X34650000Y-8050000D02*
X34650000Y-9600000D01*
%TO.N,QVAR1*%
X6850000Y-3050000D02*
X6850000Y-2550000D01*
X6650000Y-3050000D02*
X6850000Y-3050000D01*
X8450000Y-3300000D02*
X7800000Y-3300000D01*
X13300000Y-3832800D02*
X13300000Y-2600000D01*
X13300000Y-2600000D02*
X13200000Y-2600000D01*
X7810000Y-3969100D02*
X7800000Y-3300000D01*
X6650000Y-3050000D02*
X5400000Y-3050000D01*
X7800000Y-3300000D02*
X6650000Y-3300000D01*
X8450000Y-2500000D02*
X8450000Y-3300000D01*
X6650000Y-3300000D02*
X6650000Y-3050000D01*
%TO.N,QVAR1_RAW*%
X7150000Y-7250000D02*
X7150000Y-4050000D01*
X7150000Y-4050000D02*
X6800000Y-4050000D01*
%TO.N,QVAR2_RAW*%
X1250000Y-4750000D02*
X4900000Y-4750000D01*
X4900000Y-4750000D02*
X4880000Y-3855400D01*
%TO.N,LED_RED_A*%
X17200000Y-6254700D02*
X17200000Y-8050000D01*
X12750000Y-8050000D02*
X12750000Y-8200000D01*
X10750000Y-8250000D02*
X10750000Y-4100000D01*
X17200000Y-8050000D02*
X12750000Y-8050000D01*
X10750000Y-4100000D02*
X10850000Y-4100000D01*
%TO.N,LED_GREEN_A*%
X10200000Y-7450000D02*
X10200000Y-3550000D01*
X16200000Y-6254700D02*
X16200000Y-7250000D01*
%TO.N,LED_GREEN*%
X15400000Y-4850000D02*
X15400000Y-5900000D01*
X33800000Y-7200000D02*
X33800000Y-3900000D01*
X11550000Y-6350000D02*
X11550000Y-7200000D01*
X15400000Y-5900000D02*
X13800000Y-5900000D01*
X33950000Y-450000D02*
X18000000Y-450000D01*
X33800000Y-3900000D02*
X33950000Y-3900000D01*
X21800000Y-3300000D02*
X21800000Y-4500000D01*
X13800000Y-5900000D02*
X13800000Y-6350000D01*
X13800000Y-6350000D02*
X11550000Y-6350000D01*
X18000000Y-450000D02*
X18000000Y-3300000D01*
X33950000Y-3900000D02*
X33950000Y-450000D01*
%TO.N,ANT*%
X29410000Y-5052000D02*
X29410000Y-5702000D01*
%TD*%
%TA.AperFunction,Conductor*%
%TO.N,GND*%
G36*
X37735148Y-264852D02*
G01*
X37749500Y-299500D01*
X37749500Y-9700500D01*
X37735148Y-9735148D01*
X37700500Y-9749500D01*
X34880593Y-9749500D01*
X34845945Y-9735148D01*
X34831593Y-9700500D01*
X34835323Y-9681748D01*
X34852500Y-9640280D01*
X34852500Y-8009720D01*
X34821671Y-7935293D01*
X34821669Y-7935291D01*
X34821669Y-7935290D01*
X34764710Y-7878331D01*
X34764708Y-7878330D01*
X34764707Y-7878329D01*
X34690280Y-7847500D01*
X34685821Y-7845653D01*
X34686440Y-7844157D01*
X34660752Y-7826984D01*
X34652500Y-7799771D01*
X34652500Y-3160241D01*
X34663760Y-3128989D01*
X34665224Y-3127220D01*
X34672056Y-3120389D01*
X34674758Y-3115707D01*
X34677392Y-3112527D01*
X34678210Y-3112094D01*
X34680484Y-3109130D01*
X34683557Y-3106058D01*
X34690521Y-3089244D01*
X34693358Y-3083491D01*
X34708587Y-3057115D01*
X34708587Y-3057113D01*
X34708589Y-3057111D01*
X34717303Y-3024587D01*
X34725500Y-3004800D01*
X34725500Y-2993998D01*
X34727500Y-2986534D01*
X34727500Y-2913466D01*
X34727500Y-2913464D01*
X34727499Y-2913461D01*
X34727170Y-2912232D01*
X34727170Y-2912233D01*
X34727169Y-2912232D01*
X34725500Y-2906001D01*
X34725500Y-2895200D01*
X34717303Y-2875412D01*
X34708589Y-2842889D01*
X34694157Y-2817892D01*
X34693357Y-2816506D01*
X34691750Y-2813722D01*
X34683557Y-2793942D01*
X34675921Y-2786306D01*
X34672056Y-2779611D01*
X34620389Y-2727944D01*
X34620385Y-2727941D01*
X34620383Y-2727940D01*
X34619280Y-2727303D01*
X34613693Y-2724078D01*
X34606058Y-2716443D01*
X34586274Y-2708248D01*
X34557111Y-2691411D01*
X34557108Y-2691410D01*
X34527689Y-2683527D01*
X34527689Y-2683526D01*
X34524579Y-2682692D01*
X34504800Y-2674500D01*
X34494000Y-2674500D01*
X34487767Y-2672830D01*
X34487766Y-2672829D01*
X34487762Y-2672829D01*
X34486535Y-2672500D01*
X34486534Y-2672500D01*
X34413466Y-2672500D01*
X34413465Y-2672500D01*
X34412238Y-2672829D01*
X34406002Y-2674500D01*
X34395200Y-2674500D01*
X34375414Y-2682695D01*
X34372309Y-2683527D01*
X34372308Y-2683526D01*
X34342892Y-2691410D01*
X34342891Y-2691410D01*
X34342889Y-2691410D01*
X34342889Y-2691411D01*
X34342834Y-2691443D01*
X34316506Y-2706642D01*
X34313722Y-2708248D01*
X34293942Y-2716443D01*
X34286305Y-2724078D01*
X34280719Y-2727304D01*
X34279609Y-2727944D01*
X34236148Y-2771406D01*
X34201500Y-2785758D01*
X34166852Y-2771406D01*
X34152500Y-2736758D01*
X34152500Y-409722D01*
X34152499Y-409718D01*
X34121671Y-335293D01*
X34121669Y-335291D01*
X34121669Y-335290D01*
X34120527Y-334148D01*
X34119908Y-332654D01*
X34118988Y-331277D01*
X34119261Y-331093D01*
X34106175Y-299500D01*
X34120527Y-264852D01*
X34155175Y-250500D01*
X37700500Y-250500D01*
X37735148Y-264852D01*
G37*
%TD.AperFunction*%
%TA.AperFunction,Conductor*%
G36*
X33733148Y-666852D02*
G01*
X33747500Y-701500D01*
X33747500Y-3669820D01*
X33733148Y-3704468D01*
X33717253Y-3715090D01*
X33685290Y-3728330D01*
X33628331Y-3785290D01*
X33628330Y-3785291D01*
X33597500Y-3859718D01*
X33597500Y-6989758D01*
X33586239Y-7021011D01*
X33584769Y-7022785D01*
X33577944Y-7029611D01*
X33575241Y-7034290D01*
X33572608Y-7037471D01*
X33571793Y-7037901D01*
X33569523Y-7040861D01*
X33566442Y-7043942D01*
X33566441Y-7043944D01*
X33559473Y-7060763D01*
X33556642Y-7066506D01*
X33541410Y-7092891D01*
X33541410Y-7092892D01*
X33533526Y-7122308D01*
X33533527Y-7122309D01*
X33532696Y-7125412D01*
X33524500Y-7145200D01*
X33524500Y-7156000D01*
X33522831Y-7162230D01*
X33522829Y-7162231D01*
X33522500Y-7163461D01*
X33522500Y-7236534D01*
X33522829Y-7237762D01*
X33522830Y-7237767D01*
X33524500Y-7243999D01*
X33524500Y-7254800D01*
X33532693Y-7274581D01*
X33533525Y-7277684D01*
X33533527Y-7277689D01*
X33541410Y-7307108D01*
X33541411Y-7307111D01*
X33558248Y-7336274D01*
X33566443Y-7356058D01*
X33574078Y-7363693D01*
X33574664Y-7364708D01*
X33577303Y-7369279D01*
X33577940Y-7370383D01*
X33577941Y-7370385D01*
X33577944Y-7370389D01*
X33629611Y-7422056D01*
X33636306Y-7425921D01*
X33643942Y-7433557D01*
X33663721Y-7441749D01*
X33666504Y-7443356D01*
X33666506Y-7443357D01*
X33692885Y-7458587D01*
X33692886Y-7458587D01*
X33692889Y-7458589D01*
X33725412Y-7467303D01*
X33745200Y-7475500D01*
X33756002Y-7475500D01*
X33762234Y-7477170D01*
X33762238Y-7477171D01*
X33763465Y-7477500D01*
X33763466Y-7477500D01*
X33836535Y-7477500D01*
X33837762Y-7477171D01*
X33837766Y-7477170D01*
X33843998Y-7475500D01*
X33854800Y-7475500D01*
X33874587Y-7467303D01*
X33907111Y-7458589D01*
X33907113Y-7458587D01*
X33907115Y-7458587D01*
X33933491Y-7443358D01*
X33933491Y-7443357D01*
X33936274Y-7441751D01*
X33956058Y-7433557D01*
X33963692Y-7425921D01*
X33969280Y-7422696D01*
X33969279Y-7422696D01*
X33970389Y-7422056D01*
X34022056Y-7370389D01*
X34025921Y-7363693D01*
X34033557Y-7356058D01*
X34041751Y-7336274D01*
X34043358Y-7333491D01*
X34058587Y-7307115D01*
X34058588Y-7307112D01*
X34058589Y-7307111D01*
X34067303Y-7274587D01*
X34075500Y-7254800D01*
X34075500Y-7243998D01*
X34077500Y-7236534D01*
X34077500Y-7163466D01*
X34077500Y-7163464D01*
X34077499Y-7163461D01*
X34077170Y-7162232D01*
X34077170Y-7162233D01*
X34077169Y-7162232D01*
X34075500Y-7156001D01*
X34075500Y-7145200D01*
X34067303Y-7125412D01*
X34058589Y-7092889D01*
X34058587Y-7092885D01*
X34043357Y-7066506D01*
X34041750Y-7063722D01*
X34033557Y-7043942D01*
X34025921Y-7036306D01*
X34022056Y-7029611D01*
X34022053Y-7029608D01*
X34022052Y-7029606D01*
X34016852Y-7024406D01*
X34002500Y-6989758D01*
X34002500Y-4130178D01*
X34016852Y-4095530D01*
X34032747Y-4084909D01*
X34064707Y-4071671D01*
X34064708Y-4071669D01*
X34064710Y-4071669D01*
X34121669Y-4014710D01*
X34121669Y-4014709D01*
X34121671Y-4014707D01*
X34152500Y-3940280D01*
X34152500Y-3940279D01*
X34153230Y-3938517D01*
X34179749Y-3911999D01*
X34217252Y-3911999D01*
X34243770Y-3938518D01*
X34247500Y-3957269D01*
X34247500Y-8009720D01*
X34247500Y-8090280D01*
X34278329Y-8164707D01*
X34278330Y-8164708D01*
X34278331Y-8164710D01*
X34335290Y-8221669D01*
X34335291Y-8221669D01*
X34335293Y-8221671D01*
X34409720Y-8252500D01*
X34414179Y-8254347D01*
X34413558Y-8255845D01*
X34439240Y-8273002D01*
X34447500Y-8300228D01*
X34447500Y-9348500D01*
X34433148Y-9383148D01*
X34398500Y-9397500D01*
X30412249Y-9397500D01*
X30399908Y-9392388D01*
X30386711Y-9390319D01*
X30383163Y-9385452D01*
X30377601Y-9383148D01*
X30372488Y-9370806D01*
X30364621Y-9360012D01*
X30365769Y-9354585D01*
X30363249Y-9348500D01*
X30370430Y-9322962D01*
X30371915Y-9320529D01*
X30372056Y-9320389D01*
X30373000Y-9318753D01*
X30373313Y-9318241D01*
X30373723Y-9317941D01*
X30380484Y-9309130D01*
X30383557Y-9306058D01*
X30384078Y-9304802D01*
X30390521Y-9289244D01*
X30393358Y-9283491D01*
X30408587Y-9257115D01*
X30408588Y-9257112D01*
X30408589Y-9257111D01*
X30417303Y-9224587D01*
X30425500Y-9204800D01*
X30425500Y-9193998D01*
X30427500Y-9186534D01*
X30427500Y-9113466D01*
X30427500Y-9113464D01*
X30427499Y-9113461D01*
X30427170Y-9112232D01*
X30427170Y-9112233D01*
X30427169Y-9112232D01*
X30425500Y-9106001D01*
X30425500Y-9095200D01*
X30417303Y-9075412D01*
X30408589Y-9042889D01*
X30400683Y-9029195D01*
X30393357Y-9016506D01*
X30391750Y-9013722D01*
X30383557Y-8993942D01*
X30375921Y-8986306D01*
X30372056Y-8979611D01*
X30372053Y-8979608D01*
X30372052Y-8979606D01*
X30366852Y-8974406D01*
X30352500Y-8939758D01*
X30352500Y-8759722D01*
X30352499Y-8759718D01*
X30321671Y-8685293D01*
X30321669Y-8685291D01*
X30321669Y-8685290D01*
X30264710Y-8628331D01*
X30260697Y-8625650D01*
X30262103Y-8623544D01*
X30241910Y-8603357D01*
X30241906Y-8565855D01*
X30252500Y-8540280D01*
X30252500Y-8060241D01*
X30263760Y-8028989D01*
X30265224Y-8027220D01*
X30272056Y-8020389D01*
X30274758Y-8015707D01*
X30277392Y-8012527D01*
X30278210Y-8012094D01*
X30280484Y-8009130D01*
X30283557Y-8006058D01*
X30287102Y-7997500D01*
X30290521Y-7989244D01*
X30293358Y-7983491D01*
X30308587Y-7957115D01*
X30308588Y-7957112D01*
X30308589Y-7957111D01*
X30317303Y-7924587D01*
X30325500Y-7904800D01*
X30325500Y-7893998D01*
X30327500Y-7886534D01*
X30327500Y-7813466D01*
X30327500Y-7813464D01*
X30327499Y-7813461D01*
X30327170Y-7812232D01*
X30327170Y-7812233D01*
X30327169Y-7812232D01*
X30325500Y-7806001D01*
X30325500Y-7795200D01*
X30317303Y-7775412D01*
X30308589Y-7742889D01*
X30308587Y-7742885D01*
X30293357Y-7716506D01*
X30291750Y-7713722D01*
X30283557Y-7693942D01*
X30275921Y-7686306D01*
X30272056Y-7679611D01*
X30220389Y-7627944D01*
X30220385Y-7627941D01*
X30220383Y-7627940D01*
X30219280Y-7627303D01*
X30213693Y-7624078D01*
X30206058Y-7616443D01*
X30186274Y-7608248D01*
X30157111Y-7591411D01*
X30157108Y-7591410D01*
X30127689Y-7583527D01*
X30127689Y-7583526D01*
X30124579Y-7582692D01*
X30104800Y-7574500D01*
X30094000Y-7574500D01*
X30087767Y-7572830D01*
X30087766Y-7572829D01*
X30087762Y-7572829D01*
X30086535Y-7572500D01*
X30086534Y-7572500D01*
X30013466Y-7572500D01*
X30013465Y-7572500D01*
X30012238Y-7572829D01*
X30006002Y-7574500D01*
X29995200Y-7574500D01*
X29975414Y-7582695D01*
X29972309Y-7583527D01*
X29972308Y-7583526D01*
X29942892Y-7591410D01*
X29942891Y-7591410D01*
X29942889Y-7591410D01*
X29942889Y-7591411D01*
X29936351Y-7595185D01*
X29916506Y-7606642D01*
X29913722Y-7608248D01*
X29893942Y-7616443D01*
X29886305Y-7624078D01*
X29880719Y-7627304D01*
X29879609Y-7627944D01*
X29827944Y-7679609D01*
X29827303Y-7680718D01*
X29827304Y-7680719D01*
X29824078Y-7686306D01*
X29816443Y-7693942D01*
X29808251Y-7713715D01*
X29806643Y-7716502D01*
X29806642Y-7716506D01*
X29791410Y-7742891D01*
X29791410Y-7742892D01*
X29783526Y-7772312D01*
X29783000Y-7772996D01*
X29781467Y-7778377D01*
X29774500Y-7795199D01*
X29774500Y-7799549D01*
X29772528Y-7804307D01*
X29772755Y-7810258D01*
X29772919Y-7810280D01*
X29772793Y-7811236D01*
X29772831Y-7812227D01*
X29772500Y-7813461D01*
X29772500Y-7886534D01*
X29772829Y-7887762D01*
X29772830Y-7887767D01*
X29774500Y-7893999D01*
X29774500Y-7904800D01*
X29782693Y-7924581D01*
X29783525Y-7927684D01*
X29783527Y-7927689D01*
X29789343Y-7949394D01*
X29791411Y-7957111D01*
X29808248Y-7986274D01*
X29816443Y-8006058D01*
X29824078Y-8013693D01*
X29827303Y-8019279D01*
X29827940Y-8020383D01*
X29827942Y-8020385D01*
X29827944Y-8020389D01*
X29827947Y-8020392D01*
X29833148Y-8025593D01*
X29847500Y-8060241D01*
X29847500Y-8248500D01*
X29833148Y-8283148D01*
X29798500Y-8297500D01*
X29650825Y-8297500D01*
X29616177Y-8283148D01*
X29601825Y-8248500D01*
X29601830Y-8247784D01*
X29601919Y-8241680D01*
X29602500Y-8240280D01*
X29602500Y-8201908D01*
X29602505Y-8201566D01*
X29602506Y-8201562D01*
X29602508Y-8201388D01*
X29604535Y-8090280D01*
X29608642Y-7865211D01*
X29622988Y-7831456D01*
X29632056Y-7822389D01*
X29632693Y-7821283D01*
X29640484Y-7811130D01*
X29643557Y-7808058D01*
X29644907Y-7804800D01*
X29650521Y-7791244D01*
X29651599Y-7789056D01*
X29651614Y-7788795D01*
X29651819Y-7788610D01*
X29653358Y-7785491D01*
X29668587Y-7759115D01*
X29668587Y-7759113D01*
X29668589Y-7759111D01*
X29676475Y-7729676D01*
X29678531Y-7723622D01*
X29685500Y-7706800D01*
X29685500Y-7702449D01*
X29687171Y-7689762D01*
X29687500Y-7688534D01*
X29687500Y-7615464D01*
X29687499Y-7615461D01*
X29687170Y-7614232D01*
X29687170Y-7614233D01*
X29687169Y-7614232D01*
X29685500Y-7608001D01*
X29685500Y-7597200D01*
X29677303Y-7577412D01*
X29668589Y-7544889D01*
X29657682Y-7525998D01*
X29652787Y-7488819D01*
X29675617Y-7459065D01*
X29700118Y-7452500D01*
X30740278Y-7452500D01*
X30740280Y-7452500D01*
X30814707Y-7421671D01*
X30814709Y-7421669D01*
X30814710Y-7421669D01*
X30871669Y-7364710D01*
X30871669Y-7364709D01*
X30871671Y-7364707D01*
X30902500Y-7290280D01*
X30902500Y-6760241D01*
X30913760Y-6728989D01*
X30915224Y-6727220D01*
X30922056Y-6720389D01*
X30924758Y-6715707D01*
X30927392Y-6712527D01*
X30928210Y-6712094D01*
X30930484Y-6709130D01*
X30933557Y-6706058D01*
X30940521Y-6689244D01*
X30943358Y-6683491D01*
X30958587Y-6657115D01*
X30958588Y-6657112D01*
X30958589Y-6657111D01*
X30967303Y-6624587D01*
X30975500Y-6604800D01*
X30975500Y-6593998D01*
X30977500Y-6586534D01*
X30977500Y-6513466D01*
X30977500Y-6513464D01*
X30977499Y-6513461D01*
X30977170Y-6512232D01*
X30977170Y-6512233D01*
X30977169Y-6512232D01*
X30975500Y-6506001D01*
X30975500Y-6495200D01*
X30967303Y-6475412D01*
X30958589Y-6442889D01*
X30958587Y-6442885D01*
X30943357Y-6416506D01*
X30941750Y-6413722D01*
X30933557Y-6393942D01*
X30925921Y-6386306D01*
X30922056Y-6379611D01*
X30870389Y-6327944D01*
X30870385Y-6327941D01*
X30870383Y-6327940D01*
X30869280Y-6327303D01*
X30863693Y-6324078D01*
X30856058Y-6316443D01*
X30836274Y-6308248D01*
X30807111Y-6291411D01*
X30807108Y-6291410D01*
X30777689Y-6283527D01*
X30777689Y-6283526D01*
X30774579Y-6282692D01*
X30754800Y-6274500D01*
X30744000Y-6274500D01*
X30737767Y-6272830D01*
X30737766Y-6272829D01*
X30737762Y-6272829D01*
X30736535Y-6272500D01*
X30736534Y-6272500D01*
X30663466Y-6272500D01*
X30663465Y-6272500D01*
X30662238Y-6272829D01*
X30656002Y-6274500D01*
X30645200Y-6274500D01*
X30625414Y-6282695D01*
X30622309Y-6283527D01*
X30622308Y-6283526D01*
X30592892Y-6291410D01*
X30592891Y-6291410D01*
X30592889Y-6291410D01*
X30592889Y-6291411D01*
X30586351Y-6295185D01*
X30566506Y-6306642D01*
X30563722Y-6308248D01*
X30543942Y-6316443D01*
X30536305Y-6324078D01*
X30530719Y-6327304D01*
X30529609Y-6327944D01*
X30477944Y-6379609D01*
X30477303Y-6380718D01*
X30477304Y-6380719D01*
X30474078Y-6386306D01*
X30466443Y-6393942D01*
X30458251Y-6413715D01*
X30456643Y-6416502D01*
X30456642Y-6416506D01*
X30441410Y-6442891D01*
X30441410Y-6442892D01*
X30433526Y-6472308D01*
X30433527Y-6472309D01*
X30432696Y-6475412D01*
X30424500Y-6495200D01*
X30424500Y-6506000D01*
X30422831Y-6512230D01*
X30422829Y-6512231D01*
X30422500Y-6513461D01*
X30422500Y-6513466D01*
X30422500Y-6586534D01*
X30424500Y-6593998D01*
X30424500Y-6604800D01*
X30432696Y-6624587D01*
X30434041Y-6629608D01*
X30434047Y-6629632D01*
X30441409Y-6657106D01*
X30441410Y-6657108D01*
X30441411Y-6657111D01*
X30456641Y-6683490D01*
X30456708Y-6684003D01*
X30459474Y-6689235D01*
X30466443Y-6706058D01*
X30469524Y-6709139D01*
X30472608Y-6712527D01*
X30475239Y-6715704D01*
X30477944Y-6720389D01*
X30484775Y-6727220D01*
X30486240Y-6728989D01*
X30491137Y-6744880D01*
X30497500Y-6760241D01*
X30497500Y-6998500D01*
X30483148Y-7033148D01*
X30448500Y-7047500D01*
X30131790Y-7047500D01*
X30097142Y-7033148D01*
X30082790Y-6998500D01*
X30097142Y-6963852D01*
X30113034Y-6953232D01*
X30119145Y-6950699D01*
X30131622Y-6945531D01*
X30137676Y-6943475D01*
X30167111Y-6935589D01*
X30167113Y-6935587D01*
X30167115Y-6935587D01*
X30193491Y-6920358D01*
X30193491Y-6920357D01*
X30196274Y-6918751D01*
X30216058Y-6910557D01*
X30223692Y-6902921D01*
X30229280Y-6899696D01*
X30229279Y-6899696D01*
X30230389Y-6899056D01*
X30282056Y-6847389D01*
X30285921Y-6840693D01*
X30293557Y-6833058D01*
X30301751Y-6813274D01*
X30318589Y-6784111D01*
X30326475Y-6754676D01*
X30328531Y-6748622D01*
X30335500Y-6731800D01*
X30335500Y-6727449D01*
X30336699Y-6718341D01*
X30336531Y-6717451D01*
X30336885Y-6716931D01*
X30337171Y-6714762D01*
X30337500Y-6713534D01*
X30337500Y-6647114D01*
X30337500Y-6640466D01*
X30335500Y-6633001D01*
X30335500Y-6622200D01*
X30327303Y-6602412D01*
X30318589Y-6569889D01*
X30318588Y-6569887D01*
X30318588Y-6569886D01*
X30303357Y-6543506D01*
X30300521Y-6537756D01*
X30293557Y-6520943D01*
X30293557Y-6520942D01*
X30290480Y-6517865D01*
X30282695Y-6507719D01*
X30282056Y-6506611D01*
X30230389Y-6454944D01*
X30230385Y-6454941D01*
X30230383Y-6454940D01*
X30229280Y-6454303D01*
X30223693Y-6451078D01*
X30216058Y-6443443D01*
X30196274Y-6435248D01*
X30167111Y-6418411D01*
X30167108Y-6418410D01*
X30137689Y-6410527D01*
X30137689Y-6410526D01*
X30134579Y-6409692D01*
X30114800Y-6401500D01*
X30104000Y-6401500D01*
X30097767Y-6399830D01*
X30097765Y-6399828D01*
X30097760Y-6399828D01*
X30095593Y-6399247D01*
X30090682Y-6397580D01*
X30090280Y-6397500D01*
X30090279Y-6397500D01*
X30083334Y-6397500D01*
X30070569Y-6395808D01*
X30063865Y-6393999D01*
X30040048Y-6397092D01*
X30033738Y-6397500D01*
X29101500Y-6397500D01*
X29066852Y-6383148D01*
X29052500Y-6348500D01*
X29052500Y-5812161D01*
X29066852Y-5777513D01*
X29101500Y-5763161D01*
X29136148Y-5777513D01*
X29145765Y-5791147D01*
X29147676Y-5795172D01*
X29151411Y-5809111D01*
X29167627Y-5837199D01*
X29168471Y-5838976D01*
X29168483Y-5839225D01*
X29169474Y-5841234D01*
X29176443Y-5858058D01*
X29179517Y-5861132D01*
X29187303Y-5871279D01*
X29187940Y-5872383D01*
X29187941Y-5872385D01*
X29187944Y-5872389D01*
X29239611Y-5924056D01*
X29246306Y-5927921D01*
X29253942Y-5935557D01*
X29273721Y-5943749D01*
X29276504Y-5945356D01*
X29276506Y-5945357D01*
X29302885Y-5960587D01*
X29302886Y-5960587D01*
X29302889Y-5960589D01*
X29335412Y-5969303D01*
X29355200Y-5977500D01*
X29366002Y-5977500D01*
X29372234Y-5979170D01*
X29372238Y-5979171D01*
X29373465Y-5979500D01*
X29373466Y-5979500D01*
X29446535Y-5979500D01*
X29447762Y-5979171D01*
X29447766Y-5979170D01*
X29453998Y-5977500D01*
X29464800Y-5977500D01*
X29484587Y-5969303D01*
X29517111Y-5960589D01*
X29517113Y-5960587D01*
X29517115Y-5960587D01*
X29543491Y-5945358D01*
X29543491Y-5945357D01*
X29546274Y-5943751D01*
X29566058Y-5935557D01*
X29573692Y-5927921D01*
X29579280Y-5924696D01*
X29579279Y-5924696D01*
X29580389Y-5924056D01*
X29632056Y-5872389D01*
X29635921Y-5865693D01*
X29643557Y-5858058D01*
X29651751Y-5838274D01*
X29668589Y-5809111D01*
X29677303Y-5776587D01*
X29685500Y-5756800D01*
X29685500Y-5745998D01*
X29687500Y-5738534D01*
X29687500Y-5665466D01*
X29687500Y-5665464D01*
X29687499Y-5665461D01*
X29687170Y-5664232D01*
X29687170Y-5664233D01*
X29687169Y-5664232D01*
X29685500Y-5658001D01*
X29685500Y-5647200D01*
X29677303Y-5627412D01*
X29668589Y-5594889D01*
X29651751Y-5565725D01*
X29643557Y-5545942D01*
X29635921Y-5538306D01*
X29632056Y-5531611D01*
X29632053Y-5531608D01*
X29632052Y-5531606D01*
X29626852Y-5526406D01*
X29612500Y-5491758D01*
X29612500Y-5262241D01*
X29623760Y-5230989D01*
X29625224Y-5229220D01*
X29632056Y-5222389D01*
X29634758Y-5217707D01*
X29637392Y-5214527D01*
X29638210Y-5214094D01*
X29640484Y-5211130D01*
X29643557Y-5208058D01*
X29650521Y-5191244D01*
X29653358Y-5185491D01*
X29668587Y-5159115D01*
X29668588Y-5159112D01*
X29668589Y-5159111D01*
X29677303Y-5126587D01*
X29685500Y-5106800D01*
X29685500Y-5095998D01*
X29687500Y-5088534D01*
X29687500Y-5015466D01*
X29687500Y-5015464D01*
X29687499Y-5015461D01*
X29687170Y-5014232D01*
X29687170Y-5014233D01*
X29687169Y-5014232D01*
X29685500Y-5008001D01*
X29685500Y-4997200D01*
X29677303Y-4977412D01*
X29668589Y-4944889D01*
X29653354Y-4918502D01*
X29651750Y-4915722D01*
X29643557Y-4895942D01*
X29635921Y-4888306D01*
X29632056Y-4881611D01*
X29580389Y-4829944D01*
X29580385Y-4829941D01*
X29580383Y-4829940D01*
X29579280Y-4829303D01*
X29573693Y-4826078D01*
X29566058Y-4818443D01*
X29546274Y-4810248D01*
X29517111Y-4793411D01*
X29517108Y-4793410D01*
X29487689Y-4785527D01*
X29487689Y-4785526D01*
X29484579Y-4784692D01*
X29464800Y-4776500D01*
X29454000Y-4776500D01*
X29447767Y-4774830D01*
X29447766Y-4774829D01*
X29447762Y-4774829D01*
X29446535Y-4774500D01*
X29446534Y-4774500D01*
X29373466Y-4774500D01*
X29373465Y-4774500D01*
X29372238Y-4774829D01*
X29366002Y-4776500D01*
X29355200Y-4776500D01*
X29335414Y-4784695D01*
X29332309Y-4785527D01*
X29332308Y-4785526D01*
X29302892Y-4793410D01*
X29302891Y-4793410D01*
X29302889Y-4793410D01*
X29302889Y-4793411D01*
X29296351Y-4797185D01*
X29276506Y-4808642D01*
X29273722Y-4810248D01*
X29253942Y-4818443D01*
X29246305Y-4826078D01*
X29240719Y-4829304D01*
X29239609Y-4829944D01*
X29187944Y-4881609D01*
X29187303Y-4882718D01*
X29187304Y-4882719D01*
X29184078Y-4888306D01*
X29176443Y-4895942D01*
X29168251Y-4915715D01*
X29166643Y-4918502D01*
X29166642Y-4918506D01*
X29151410Y-4944891D01*
X29151409Y-4944893D01*
X29148830Y-4954520D01*
X29125999Y-4984273D01*
X29088817Y-4989167D01*
X29059064Y-4966336D01*
X29052500Y-4941837D01*
X29052500Y-3685241D01*
X29063760Y-3653989D01*
X29065224Y-3652220D01*
X29072056Y-3645389D01*
X29074758Y-3640707D01*
X29077392Y-3637527D01*
X29078210Y-3637094D01*
X29080484Y-3634130D01*
X29083557Y-3631058D01*
X29090521Y-3614244D01*
X29093358Y-3608491D01*
X29108587Y-3582115D01*
X29108587Y-3582113D01*
X29108589Y-3582111D01*
X29117303Y-3549587D01*
X29125500Y-3529800D01*
X29125500Y-3518998D01*
X29127500Y-3511534D01*
X29127500Y-3438466D01*
X29127500Y-3438464D01*
X29127499Y-3438461D01*
X29127170Y-3437232D01*
X29127170Y-3437233D01*
X29127169Y-3437232D01*
X29125500Y-3431001D01*
X29125500Y-3420200D01*
X29117303Y-3400412D01*
X29108589Y-3367889D01*
X29091751Y-3338725D01*
X29083557Y-3318942D01*
X29075921Y-3311306D01*
X29072056Y-3304611D01*
X29020389Y-3252944D01*
X29020386Y-3252942D01*
X29020381Y-3252937D01*
X29019163Y-3252002D01*
X29018776Y-3251332D01*
X29018118Y-3250674D01*
X29018294Y-3250497D01*
X29017473Y-3249075D01*
X29014352Y-3247782D01*
X29008309Y-3233195D01*
X29000418Y-3219520D01*
X29000000Y-3213134D01*
X29000000Y-3186865D01*
X29014352Y-3152217D01*
X29019171Y-3147991D01*
X29020387Y-3147057D01*
X29020386Y-3147057D01*
X29020389Y-3147056D01*
X29025593Y-3141852D01*
X29060241Y-3127500D01*
X29764758Y-3127500D01*
X29796008Y-3138759D01*
X29797787Y-3140232D01*
X29804611Y-3147056D01*
X29809291Y-3149758D01*
X29812469Y-3152389D01*
X29812901Y-3153206D01*
X29815865Y-3155480D01*
X29818942Y-3158557D01*
X29835759Y-3165522D01*
X29841506Y-3168357D01*
X29867885Y-3183587D01*
X29867886Y-3183587D01*
X29867889Y-3183589D01*
X29900412Y-3192303D01*
X29920200Y-3200500D01*
X29931002Y-3200500D01*
X29937234Y-3202170D01*
X29937238Y-3202171D01*
X29938465Y-3202500D01*
X29938466Y-3202500D01*
X30011535Y-3202500D01*
X30012762Y-3202171D01*
X30012766Y-3202170D01*
X30018998Y-3200500D01*
X30029800Y-3200500D01*
X30049587Y-3192303D01*
X30082111Y-3183589D01*
X30082113Y-3183587D01*
X30082115Y-3183587D01*
X30108491Y-3168358D01*
X30108491Y-3168357D01*
X30111274Y-3166751D01*
X30131058Y-3158557D01*
X30138692Y-3150921D01*
X30144280Y-3147696D01*
X30144279Y-3147696D01*
X30145389Y-3147056D01*
X30197056Y-3095389D01*
X30200921Y-3088693D01*
X30208557Y-3081058D01*
X30216751Y-3061274D01*
X30233589Y-3032111D01*
X30242303Y-2999587D01*
X30250500Y-2979800D01*
X30250500Y-2968998D01*
X30252500Y-2961534D01*
X30252500Y-2888466D01*
X30252500Y-2888464D01*
X30252499Y-2888461D01*
X30252170Y-2887232D01*
X30252170Y-2887233D01*
X30252169Y-2887232D01*
X30250500Y-2881001D01*
X30250500Y-2870200D01*
X30242303Y-2850412D01*
X30233589Y-2817889D01*
X30218354Y-2791502D01*
X30216750Y-2788722D01*
X30208557Y-2768942D01*
X30200921Y-2761306D01*
X30197056Y-2754611D01*
X30145389Y-2702944D01*
X30145385Y-2702941D01*
X30145383Y-2702940D01*
X30144280Y-2702303D01*
X30138693Y-2699078D01*
X30131058Y-2691443D01*
X30111274Y-2683248D01*
X30082111Y-2666411D01*
X30082108Y-2666410D01*
X30052689Y-2658527D01*
X30052689Y-2658526D01*
X30049579Y-2657692D01*
X30029800Y-2649500D01*
X30019000Y-2649500D01*
X30012767Y-2647830D01*
X30012766Y-2647829D01*
X30012762Y-2647829D01*
X30011535Y-2647500D01*
X30011534Y-2647500D01*
X29938466Y-2647500D01*
X29938465Y-2647500D01*
X29937238Y-2647829D01*
X29931002Y-2649500D01*
X29920200Y-2649500D01*
X29900414Y-2657695D01*
X29897309Y-2658527D01*
X29897308Y-2658526D01*
X29867892Y-2666410D01*
X29867891Y-2666410D01*
X29867889Y-2666410D01*
X29867889Y-2666411D01*
X29867830Y-2666445D01*
X29841506Y-2681642D01*
X29838722Y-2683248D01*
X29818942Y-2691443D01*
X29811305Y-2699078D01*
X29805719Y-2702304D01*
X29804609Y-2702944D01*
X29799406Y-2708148D01*
X29764758Y-2722500D01*
X29060241Y-2722500D01*
X29028989Y-2711240D01*
X29027220Y-2709775D01*
X29020389Y-2702944D01*
X29015704Y-2700239D01*
X29012527Y-2697608D01*
X29012094Y-2696790D01*
X29009132Y-2694517D01*
X29006058Y-2691443D01*
X28989234Y-2684474D01*
X28983493Y-2681642D01*
X28957111Y-2666411D01*
X28957108Y-2666410D01*
X28927689Y-2658527D01*
X28927689Y-2658526D01*
X28924579Y-2657692D01*
X28904800Y-2649500D01*
X28894000Y-2649500D01*
X28887767Y-2647830D01*
X28887766Y-2647829D01*
X28887762Y-2647829D01*
X28886535Y-2647500D01*
X28886534Y-2647500D01*
X28813466Y-2647500D01*
X28813465Y-2647500D01*
X28812238Y-2647829D01*
X28806002Y-2649500D01*
X28795200Y-2649500D01*
X28775414Y-2657695D01*
X28772309Y-2658527D01*
X28772308Y-2658526D01*
X28742892Y-2666410D01*
X28742891Y-2666410D01*
X28742889Y-2666410D01*
X28742889Y-2666411D01*
X28742830Y-2666445D01*
X28716506Y-2681642D01*
X28713722Y-2683248D01*
X28693942Y-2691443D01*
X28686305Y-2699078D01*
X28680719Y-2702304D01*
X28679609Y-2702944D01*
X28627944Y-2754609D01*
X28627303Y-2755718D01*
X28627304Y-2755719D01*
X28624078Y-2761306D01*
X28616443Y-2768942D01*
X28608251Y-2788715D01*
X28606643Y-2791502D01*
X28606642Y-2791506D01*
X28592210Y-2816506D01*
X28591410Y-2817891D01*
X28591410Y-2817892D01*
X28583526Y-2847308D01*
X28583527Y-2847309D01*
X28582696Y-2850412D01*
X28574500Y-2870200D01*
X28574500Y-2881000D01*
X28572831Y-2887230D01*
X28572829Y-2887231D01*
X28572500Y-2888461D01*
X28572500Y-2951000D01*
X28558148Y-2985648D01*
X28523500Y-3000000D01*
X28501500Y-3000000D01*
X28466852Y-2985648D01*
X28452500Y-2951000D01*
X28452500Y-1860241D01*
X28466852Y-1825593D01*
X28467858Y-1824587D01*
X28472056Y-1820389D01*
X28472693Y-1819283D01*
X28480484Y-1809130D01*
X28483557Y-1806058D01*
X28490521Y-1789244D01*
X28493358Y-1783491D01*
X28508587Y-1757115D01*
X28508588Y-1757112D01*
X28508589Y-1757111D01*
X28517303Y-1724587D01*
X28525500Y-1704800D01*
X28525500Y-1693998D01*
X28527500Y-1686534D01*
X28527500Y-1613466D01*
X28527500Y-1613464D01*
X28527499Y-1613461D01*
X28527170Y-1612232D01*
X28527170Y-1612233D01*
X28527169Y-1612232D01*
X28525500Y-1606001D01*
X28525500Y-1595200D01*
X28517303Y-1575412D01*
X28508589Y-1542889D01*
X28508587Y-1542885D01*
X28493357Y-1516506D01*
X28491750Y-1513722D01*
X28483557Y-1493942D01*
X28475921Y-1486306D01*
X28472056Y-1479611D01*
X28420389Y-1427944D01*
X28420385Y-1427941D01*
X28420383Y-1427940D01*
X28419280Y-1427303D01*
X28413693Y-1424078D01*
X28406058Y-1416443D01*
X28386274Y-1408248D01*
X28357111Y-1391411D01*
X28357108Y-1391410D01*
X28327689Y-1383527D01*
X28327689Y-1383526D01*
X28324579Y-1382692D01*
X28304800Y-1374500D01*
X28294000Y-1374500D01*
X28287767Y-1372830D01*
X28287766Y-1372829D01*
X28287762Y-1372829D01*
X28286535Y-1372500D01*
X28286534Y-1372500D01*
X28213466Y-1372500D01*
X28213465Y-1372500D01*
X28212238Y-1372829D01*
X28206002Y-1374500D01*
X28195200Y-1374500D01*
X28175414Y-1382695D01*
X28172309Y-1383527D01*
X28172308Y-1383526D01*
X28142892Y-1391410D01*
X28142891Y-1391410D01*
X28142889Y-1391410D01*
X28142889Y-1391411D01*
X28136351Y-1395185D01*
X28116506Y-1406642D01*
X28113722Y-1408248D01*
X28093942Y-1416443D01*
X28086305Y-1424078D01*
X28080719Y-1427304D01*
X28079609Y-1427944D01*
X28027944Y-1479609D01*
X28027303Y-1480718D01*
X28027304Y-1480719D01*
X28025683Y-1483526D01*
X28024078Y-1486306D01*
X28016443Y-1493942D01*
X28008251Y-1513715D01*
X28006643Y-1516502D01*
X28006642Y-1516506D01*
X27991410Y-1542891D01*
X27991410Y-1542892D01*
X27983526Y-1572308D01*
X27983527Y-1572309D01*
X27982696Y-1575412D01*
X27974500Y-1595200D01*
X27974500Y-1606000D01*
X27972831Y-1612230D01*
X27972829Y-1612231D01*
X27972500Y-1613461D01*
X27972500Y-1686534D01*
X27972829Y-1687762D01*
X27972830Y-1687767D01*
X27974500Y-1693999D01*
X27974500Y-1704800D01*
X27982693Y-1724581D01*
X27983525Y-1727684D01*
X27983526Y-1727686D01*
X27991411Y-1757111D01*
X28008248Y-1786274D01*
X28016443Y-1806058D01*
X28024078Y-1813693D01*
X28027303Y-1819279D01*
X28027940Y-1820383D01*
X28027942Y-1820385D01*
X28027944Y-1820389D01*
X28027945Y-1820390D01*
X28027947Y-1820392D01*
X28033148Y-1825593D01*
X28047500Y-1860241D01*
X28047500Y-2951000D01*
X28033148Y-2985648D01*
X27998500Y-3000000D01*
X27820064Y-3000000D01*
X27785416Y-2985648D01*
X27771105Y-2952993D01*
X27764532Y-2791506D01*
X27760951Y-2703539D01*
X27769242Y-2674213D01*
X27771312Y-2671132D01*
X27772056Y-2670389D01*
X27773538Y-2667819D01*
X27774463Y-2666445D01*
X27775298Y-2665890D01*
X27780482Y-2659131D01*
X27783557Y-2656058D01*
X27786965Y-2647831D01*
X27790521Y-2639244D01*
X27793358Y-2633491D01*
X27808587Y-2607115D01*
X27808588Y-2607112D01*
X27808589Y-2607111D01*
X27817303Y-2574587D01*
X27825500Y-2554800D01*
X27825500Y-2543998D01*
X27827500Y-2536534D01*
X27827500Y-2463466D01*
X27827500Y-2463464D01*
X27827499Y-2463461D01*
X27827170Y-2462232D01*
X27827170Y-2462233D01*
X27827169Y-2462232D01*
X27825500Y-2456001D01*
X27825500Y-2445200D01*
X27817303Y-2425412D01*
X27808589Y-2392889D01*
X27793354Y-2366502D01*
X27791750Y-2363722D01*
X27783557Y-2343942D01*
X27775921Y-2336306D01*
X27772056Y-2329611D01*
X27720389Y-2277944D01*
X27720385Y-2277941D01*
X27720383Y-2277940D01*
X27719280Y-2277303D01*
X27713693Y-2274078D01*
X27706058Y-2266443D01*
X27686274Y-2258248D01*
X27657111Y-2241411D01*
X27657108Y-2241410D01*
X27627689Y-2233527D01*
X27627689Y-2233526D01*
X27624579Y-2232692D01*
X27604800Y-2224500D01*
X27594000Y-2224500D01*
X27587767Y-2222830D01*
X27587766Y-2222829D01*
X27587762Y-2222829D01*
X27586535Y-2222500D01*
X27586534Y-2222500D01*
X27513466Y-2222500D01*
X27513465Y-2222500D01*
X27512238Y-2222829D01*
X27506002Y-2224500D01*
X27495200Y-2224500D01*
X27475414Y-2232695D01*
X27472309Y-2233527D01*
X27472308Y-2233526D01*
X27442892Y-2241410D01*
X27442891Y-2241410D01*
X27442889Y-2241410D01*
X27442889Y-2241411D01*
X27436351Y-2245185D01*
X27416506Y-2256642D01*
X27413722Y-2258248D01*
X27393942Y-2266443D01*
X27386305Y-2274078D01*
X27380719Y-2277304D01*
X27379609Y-2277944D01*
X27327944Y-2329609D01*
X27327303Y-2330718D01*
X27327304Y-2330719D01*
X27324078Y-2336306D01*
X27316443Y-2343942D01*
X27308251Y-2363715D01*
X27306643Y-2366502D01*
X27306642Y-2366506D01*
X27291410Y-2392891D01*
X27291410Y-2392892D01*
X27283526Y-2422308D01*
X27283527Y-2422309D01*
X27282696Y-2425412D01*
X27274500Y-2445200D01*
X27274500Y-2456000D01*
X27272831Y-2462230D01*
X27272829Y-2462231D01*
X27272500Y-2463461D01*
X27272500Y-2536534D01*
X27272829Y-2537762D01*
X27272830Y-2537767D01*
X27274500Y-2543999D01*
X27274500Y-2554800D01*
X27282693Y-2574581D01*
X27283525Y-2577684D01*
X27283526Y-2577686D01*
X27291411Y-2607111D01*
X27308248Y-2636274D01*
X27316443Y-2656058D01*
X27324078Y-2663693D01*
X27327303Y-2669279D01*
X27327940Y-2670383D01*
X27327942Y-2670385D01*
X27327944Y-2670389D01*
X27327947Y-2670392D01*
X27341850Y-2684295D01*
X27356161Y-2716950D01*
X27365606Y-2949007D01*
X27352676Y-2984211D01*
X27318640Y-2999959D01*
X27316647Y-3000000D01*
X26801500Y-3000000D01*
X26766852Y-2985648D01*
X26752500Y-2951000D01*
X26752500Y-1960241D01*
X26763760Y-1928989D01*
X26765224Y-1927220D01*
X26772056Y-1920389D01*
X26774758Y-1915707D01*
X26777392Y-1912527D01*
X26778210Y-1912094D01*
X26780484Y-1909130D01*
X26783557Y-1906058D01*
X26790521Y-1889244D01*
X26793358Y-1883491D01*
X26808587Y-1857115D01*
X26808588Y-1857112D01*
X26808589Y-1857111D01*
X26817303Y-1824587D01*
X26825500Y-1804800D01*
X26825500Y-1793998D01*
X26827500Y-1786534D01*
X26827500Y-1713466D01*
X26827500Y-1713464D01*
X26827499Y-1713461D01*
X26827170Y-1712232D01*
X26827170Y-1712233D01*
X26827169Y-1712232D01*
X26825500Y-1706001D01*
X26825500Y-1695200D01*
X26817303Y-1675412D01*
X26808589Y-1642889D01*
X26793354Y-1616502D01*
X26791750Y-1613722D01*
X26783557Y-1593942D01*
X26775921Y-1586306D01*
X26772056Y-1579611D01*
X26720389Y-1527944D01*
X26720385Y-1527941D01*
X26720383Y-1527940D01*
X26719280Y-1527303D01*
X26713693Y-1524078D01*
X26706058Y-1516443D01*
X26686274Y-1508248D01*
X26657111Y-1491411D01*
X26657108Y-1491410D01*
X26627689Y-1483527D01*
X26627689Y-1483526D01*
X26624579Y-1482692D01*
X26604800Y-1474500D01*
X26594000Y-1474500D01*
X26587767Y-1472830D01*
X26587766Y-1472829D01*
X26587762Y-1472829D01*
X26586535Y-1472500D01*
X26586534Y-1472500D01*
X26513466Y-1472500D01*
X26513465Y-1472500D01*
X26512238Y-1472829D01*
X26506002Y-1474500D01*
X26495200Y-1474500D01*
X26475414Y-1482695D01*
X26472309Y-1483527D01*
X26472308Y-1483526D01*
X26442892Y-1491410D01*
X26442891Y-1491410D01*
X26442889Y-1491410D01*
X26442889Y-1491411D01*
X26438505Y-1493942D01*
X26416506Y-1506642D01*
X26413722Y-1508248D01*
X26393942Y-1516443D01*
X26386305Y-1524078D01*
X26380719Y-1527304D01*
X26379609Y-1527944D01*
X26327944Y-1579609D01*
X26327303Y-1580718D01*
X26327304Y-1580719D01*
X26324078Y-1586306D01*
X26316443Y-1593942D01*
X26308251Y-1613715D01*
X26306643Y-1616502D01*
X26306642Y-1616506D01*
X26291410Y-1642891D01*
X26291410Y-1642892D01*
X26283526Y-1672308D01*
X26283527Y-1672309D01*
X26282696Y-1675412D01*
X26274500Y-1695200D01*
X26274500Y-1706000D01*
X26272831Y-1712230D01*
X26272829Y-1712231D01*
X26272500Y-1713461D01*
X26272500Y-1786534D01*
X26272829Y-1787762D01*
X26272830Y-1787767D01*
X26274500Y-1793999D01*
X26274500Y-1804800D01*
X26282693Y-1824581D01*
X26283525Y-1827684D01*
X26283526Y-1827686D01*
X26291411Y-1857111D01*
X26308248Y-1886274D01*
X26316443Y-1906058D01*
X26324078Y-1913693D01*
X26327303Y-1919279D01*
X26327940Y-1920383D01*
X26327942Y-1920385D01*
X26327944Y-1920389D01*
X26327947Y-1920392D01*
X26333148Y-1925593D01*
X26347500Y-1960241D01*
X26347500Y-2951000D01*
X26333148Y-2985648D01*
X26298500Y-3000000D01*
X26049000Y-3000000D01*
X26014352Y-2985648D01*
X26000000Y-2951000D01*
X26000000Y-1113466D01*
X32222500Y-1113466D01*
X32222500Y-1114793D01*
X32222500Y-1186534D01*
X32222829Y-1187762D01*
X32222830Y-1187767D01*
X32224500Y-1193999D01*
X32224500Y-1204800D01*
X32232693Y-1224581D01*
X32233525Y-1227684D01*
X32233526Y-1227686D01*
X32241411Y-1257111D01*
X32258248Y-1286274D01*
X32266443Y-1306058D01*
X32274078Y-1313693D01*
X32277303Y-1319279D01*
X32277940Y-1320383D01*
X32277942Y-1320385D01*
X32277944Y-1320389D01*
X32277947Y-1320392D01*
X32283148Y-1325593D01*
X32297500Y-1360241D01*
X32297500Y-7173510D01*
X32293953Y-7186836D01*
X32297500Y-7213438D01*
X32297500Y-7240280D01*
X32300331Y-7247116D01*
X32301455Y-7250103D01*
X32302992Y-7254632D01*
X32304600Y-7266690D01*
X32310592Y-7277031D01*
X32312157Y-7281640D01*
X32312110Y-7282353D01*
X32313086Y-7284704D01*
X32316409Y-7297107D01*
X32316410Y-7297109D01*
X32316411Y-7297111D01*
X32333248Y-7326274D01*
X32341443Y-7346058D01*
X32349078Y-7353693D01*
X32352303Y-7359279D01*
X32352940Y-7360383D01*
X32352941Y-7360385D01*
X32352944Y-7360389D01*
X32404611Y-7412056D01*
X32411306Y-7415921D01*
X32418942Y-7423557D01*
X32438721Y-7431749D01*
X32441504Y-7433356D01*
X32441506Y-7433357D01*
X32467885Y-7448587D01*
X32467886Y-7448587D01*
X32467889Y-7448589D01*
X32500412Y-7457303D01*
X32520200Y-7465500D01*
X32531002Y-7465500D01*
X32537234Y-7467170D01*
X32537238Y-7467171D01*
X32538465Y-7467500D01*
X32538466Y-7467500D01*
X32611535Y-7467500D01*
X32612762Y-7467171D01*
X32612766Y-7467170D01*
X32618998Y-7465500D01*
X32629800Y-7465500D01*
X32649587Y-7457303D01*
X32682111Y-7448589D01*
X32682113Y-7448587D01*
X32682115Y-7448587D01*
X32708491Y-7433358D01*
X32708491Y-7433357D01*
X32711274Y-7431751D01*
X32731058Y-7423557D01*
X32738692Y-7415921D01*
X32744280Y-7412696D01*
X32744279Y-7412696D01*
X32745389Y-7412056D01*
X32797056Y-7360389D01*
X32800921Y-7353693D01*
X32808557Y-7346058D01*
X32816751Y-7326274D01*
X32827815Y-7307112D01*
X32833587Y-7297115D01*
X32833587Y-7297113D01*
X32833589Y-7297111D01*
X32842303Y-7264587D01*
X32850500Y-7244800D01*
X32850500Y-7233998D01*
X32852500Y-7226534D01*
X32852500Y-7153466D01*
X32852500Y-7153464D01*
X32852499Y-7153461D01*
X32852170Y-7152232D01*
X32852170Y-7152233D01*
X32852169Y-7152232D01*
X32850500Y-7146001D01*
X32850500Y-7135200D01*
X32842303Y-7115412D01*
X32833589Y-7082889D01*
X32833587Y-7082885D01*
X32818357Y-7056506D01*
X32816750Y-7053722D01*
X32808557Y-7033942D01*
X32800921Y-7026306D01*
X32797056Y-7019611D01*
X32745389Y-6967944D01*
X32745385Y-6967941D01*
X32745383Y-6967940D01*
X32744279Y-6967303D01*
X32739327Y-6964029D01*
X32736572Y-6961957D01*
X32731058Y-6956443D01*
X32727011Y-6954766D01*
X32722048Y-6951034D01*
X32715430Y-6939823D01*
X32706227Y-6930618D01*
X32704312Y-6920990D01*
X32702983Y-6918738D01*
X32703480Y-6916805D01*
X32702500Y-6911873D01*
X32702500Y-3856273D01*
X32716852Y-3821625D01*
X32751500Y-3807273D01*
X32775999Y-3813837D01*
X32789487Y-3821625D01*
X32792885Y-3823587D01*
X32792889Y-3823589D01*
X32825412Y-3832303D01*
X32845200Y-3840500D01*
X32856002Y-3840500D01*
X32862234Y-3842170D01*
X32862238Y-3842171D01*
X32863465Y-3842500D01*
X32863466Y-3842500D01*
X32936535Y-3842500D01*
X32937762Y-3842171D01*
X32937766Y-3842170D01*
X32943998Y-3840500D01*
X32954800Y-3840500D01*
X32974587Y-3832303D01*
X33007111Y-3823589D01*
X33007113Y-3823587D01*
X33007115Y-3823587D01*
X33033491Y-3808358D01*
X33033491Y-3808357D01*
X33036274Y-3806751D01*
X33056058Y-3798557D01*
X33063692Y-3790921D01*
X33069280Y-3787696D01*
X33069279Y-3787696D01*
X33070389Y-3787056D01*
X33122056Y-3735389D01*
X33125921Y-3728693D01*
X33133557Y-3721058D01*
X33141751Y-3701274D01*
X33158589Y-3672111D01*
X33167303Y-3639587D01*
X33175500Y-3619800D01*
X33175500Y-3608998D01*
X33177500Y-3601534D01*
X33177500Y-3528466D01*
X33177500Y-3528464D01*
X33177499Y-3528461D01*
X33177170Y-3527232D01*
X33177170Y-3527233D01*
X33177169Y-3527232D01*
X33175500Y-3521001D01*
X33175500Y-3510200D01*
X33167303Y-3490412D01*
X33158589Y-3457889D01*
X33147372Y-3438461D01*
X33143357Y-3431506D01*
X33141750Y-3428722D01*
X33133557Y-3408942D01*
X33125921Y-3401306D01*
X33122056Y-3394611D01*
X33122053Y-3394608D01*
X33122052Y-3394606D01*
X33116852Y-3389406D01*
X33102500Y-3354758D01*
X33102500Y-3135241D01*
X33113760Y-3103989D01*
X33115224Y-3102220D01*
X33122056Y-3095389D01*
X33124758Y-3090707D01*
X33127392Y-3087527D01*
X33128210Y-3087094D01*
X33130484Y-3084130D01*
X33133557Y-3081058D01*
X33140521Y-3064244D01*
X33143358Y-3058491D01*
X33158587Y-3032115D01*
X33158587Y-3032113D01*
X33158589Y-3032111D01*
X33167303Y-2999587D01*
X33175500Y-2979800D01*
X33175500Y-2968998D01*
X33177500Y-2961534D01*
X33177500Y-2888466D01*
X33177500Y-2888464D01*
X33177499Y-2888461D01*
X33177170Y-2887232D01*
X33177170Y-2887233D01*
X33177169Y-2887232D01*
X33175500Y-2881001D01*
X33175500Y-2870200D01*
X33167303Y-2850412D01*
X33158589Y-2817889D01*
X33143354Y-2791502D01*
X33141750Y-2788722D01*
X33133557Y-2768942D01*
X33125921Y-2761306D01*
X33122056Y-2754611D01*
X33070389Y-2702944D01*
X33070385Y-2702941D01*
X33070383Y-2702940D01*
X33069280Y-2702303D01*
X33063693Y-2699078D01*
X33056058Y-2691443D01*
X33036274Y-2683248D01*
X33007111Y-2666411D01*
X33007108Y-2666410D01*
X32977689Y-2658527D01*
X32977689Y-2658526D01*
X32974579Y-2657692D01*
X32954800Y-2649500D01*
X32944000Y-2649500D01*
X32937767Y-2647830D01*
X32937766Y-2647829D01*
X32937762Y-2647829D01*
X32936535Y-2647500D01*
X32936534Y-2647500D01*
X32863466Y-2647500D01*
X32863465Y-2647500D01*
X32862238Y-2647829D01*
X32856002Y-2649500D01*
X32845200Y-2649500D01*
X32825414Y-2657695D01*
X32822309Y-2658527D01*
X32822308Y-2658526D01*
X32792892Y-2666410D01*
X32792885Y-2666412D01*
X32775998Y-2676162D01*
X32738816Y-2681056D01*
X32709064Y-2658224D01*
X32702500Y-2633726D01*
X32702500Y-1360241D01*
X32713760Y-1328989D01*
X32715224Y-1327220D01*
X32722056Y-1320389D01*
X32724758Y-1315707D01*
X32727392Y-1312527D01*
X32728210Y-1312094D01*
X32730484Y-1309130D01*
X32733557Y-1306058D01*
X32740521Y-1289244D01*
X32743358Y-1283491D01*
X32758587Y-1257115D01*
X32758588Y-1257112D01*
X32758589Y-1257111D01*
X32767303Y-1224587D01*
X32775500Y-1204800D01*
X32775500Y-1193998D01*
X32777500Y-1186534D01*
X32777500Y-1113466D01*
X32777500Y-1113464D01*
X32777499Y-1113461D01*
X32777170Y-1112232D01*
X32777170Y-1112233D01*
X32777169Y-1112232D01*
X32775500Y-1106001D01*
X32775500Y-1095200D01*
X32767303Y-1075412D01*
X32758589Y-1042889D01*
X32743354Y-1016502D01*
X32741750Y-1013722D01*
X32733557Y-993942D01*
X32725921Y-986306D01*
X32722056Y-979611D01*
X32670389Y-927944D01*
X32670385Y-927941D01*
X32670383Y-927940D01*
X32669280Y-927303D01*
X32663693Y-924078D01*
X32656058Y-916443D01*
X32636274Y-908248D01*
X32607111Y-891411D01*
X32607108Y-891410D01*
X32577689Y-883527D01*
X32577689Y-883526D01*
X32574579Y-882692D01*
X32554800Y-874500D01*
X32544000Y-874500D01*
X32537767Y-872830D01*
X32537766Y-872829D01*
X32537762Y-872829D01*
X32536535Y-872500D01*
X32536534Y-872500D01*
X32463466Y-872500D01*
X32463465Y-872500D01*
X32462238Y-872829D01*
X32456002Y-874500D01*
X32445200Y-874500D01*
X32425414Y-882695D01*
X32422309Y-883527D01*
X32422308Y-883526D01*
X32392892Y-891410D01*
X32392891Y-891410D01*
X32392889Y-891410D01*
X32392889Y-891411D01*
X32386351Y-895185D01*
X32366506Y-906642D01*
X32363722Y-908248D01*
X32343942Y-916443D01*
X32336305Y-924078D01*
X32330719Y-927304D01*
X32329609Y-927944D01*
X32277944Y-979609D01*
X32277303Y-980718D01*
X32277304Y-980719D01*
X32274078Y-986306D01*
X32266443Y-993942D01*
X32258251Y-1013715D01*
X32256643Y-1016502D01*
X32256642Y-1016506D01*
X32241410Y-1042891D01*
X32241410Y-1042892D01*
X32233526Y-1072312D01*
X32231467Y-1078377D01*
X32224500Y-1095199D01*
X32224500Y-1099549D01*
X32223450Y-1107521D01*
X32223667Y-1108547D01*
X32223319Y-1110407D01*
X32222500Y-1113466D01*
X26000000Y-1113466D01*
X26000000Y-701500D01*
X26014352Y-666852D01*
X26049000Y-652500D01*
X33698500Y-652500D01*
X33733148Y-666852D01*
G37*
%TD.AperFunction*%
%TD*%
%TA.AperFunction,Conductor*%
%TO.N,GND*%
G36*
X17829473Y-264852D02*
G01*
X17843825Y-299500D01*
X17830738Y-331093D01*
X17831012Y-331277D01*
X17830091Y-332654D01*
X17829473Y-334148D01*
X17828330Y-335291D01*
X17797500Y-409718D01*
X17797500Y-3089758D01*
X17786239Y-3121011D01*
X17784769Y-3122785D01*
X17777944Y-3129611D01*
X17775241Y-3134290D01*
X17772608Y-3137471D01*
X17771793Y-3137901D01*
X17769523Y-3140861D01*
X17766442Y-3143942D01*
X17766441Y-3143944D01*
X17759473Y-3160763D01*
X17756642Y-3166506D01*
X17741410Y-3192891D01*
X17741410Y-3192892D01*
X17733526Y-3222308D01*
X17733527Y-3222309D01*
X17732696Y-3225412D01*
X17724500Y-3245200D01*
X17724500Y-3256000D01*
X17722831Y-3262230D01*
X17722829Y-3262231D01*
X17722500Y-3263461D01*
X17722500Y-3336534D01*
X17722829Y-3337762D01*
X17722830Y-3337767D01*
X17724500Y-3344000D01*
X17724500Y-3354800D01*
X17732693Y-3374579D01*
X17733525Y-3377685D01*
X17733527Y-3377689D01*
X17735836Y-3386306D01*
X17741411Y-3407111D01*
X17758248Y-3436274D01*
X17766443Y-3456058D01*
X17774078Y-3463693D01*
X17777303Y-3469279D01*
X17777940Y-3470383D01*
X17777941Y-3470385D01*
X17777944Y-3470389D01*
X17829611Y-3522056D01*
X17836306Y-3525921D01*
X17843942Y-3533557D01*
X17863722Y-3541750D01*
X17866506Y-3543357D01*
X17892885Y-3558587D01*
X17892886Y-3558587D01*
X17892889Y-3558589D01*
X17925412Y-3567303D01*
X17945200Y-3575500D01*
X17956002Y-3575500D01*
X17962234Y-3577170D01*
X17963674Y-3577556D01*
X17993431Y-3600381D01*
X18000000Y-3624888D01*
X18000000Y-9700500D01*
X17985648Y-9735148D01*
X17951000Y-9749500D01*
X14300134Y-9749500D01*
X14265486Y-9735148D01*
X14251134Y-9700500D01*
X14265486Y-9665852D01*
X14286036Y-9654867D01*
X14285821Y-9654347D01*
X14290280Y-9652500D01*
X14364707Y-9621671D01*
X14364709Y-9621669D01*
X14364710Y-9621669D01*
X14421669Y-9564710D01*
X14421669Y-9564709D01*
X14421671Y-9564707D01*
X14452500Y-9490280D01*
X14452500Y-8459720D01*
X14421671Y-8385293D01*
X14392730Y-8356352D01*
X14388958Y-8352114D01*
X14384725Y-8346763D01*
X14383557Y-8343942D01*
X14378465Y-8338850D01*
X14376701Y-8336620D01*
X14376394Y-8335539D01*
X14372695Y-8330719D01*
X14372056Y-8329611D01*
X14372053Y-8329608D01*
X14370447Y-8326825D01*
X14371931Y-8325968D01*
X14363671Y-8295080D01*
X14382439Y-8262611D01*
X14412249Y-8252500D01*
X17240278Y-8252500D01*
X17240280Y-8252500D01*
X17314707Y-8221671D01*
X17314709Y-8221669D01*
X17314710Y-8221669D01*
X17371669Y-8164710D01*
X17371669Y-8164709D01*
X17371671Y-8164707D01*
X17402500Y-8090280D01*
X17402500Y-6730700D01*
X17416852Y-6696052D01*
X17451500Y-6681700D01*
X17777000Y-6681700D01*
X17777000Y-4227700D01*
X15726500Y-4227700D01*
X15710612Y-4221118D01*
X15694305Y-4215639D01*
X15693590Y-4214068D01*
X15691852Y-4213348D01*
X15677615Y-4182054D01*
X15677500Y-4180377D01*
X15677500Y-4163466D01*
X15675940Y-4157644D01*
X15675615Y-4152903D01*
X15675849Y-4152204D01*
X15675500Y-4149549D01*
X15675500Y-4145200D01*
X15675499Y-4145197D01*
X15668532Y-4128379D01*
X15666473Y-4122317D01*
X15658589Y-4092889D01*
X15654920Y-4086534D01*
X15643357Y-4066506D01*
X15641750Y-4063722D01*
X15633557Y-4043942D01*
X15625921Y-4036306D01*
X15622056Y-4029611D01*
X15622053Y-4029608D01*
X15622052Y-4029606D01*
X15616852Y-4024406D01*
X15602500Y-3989758D01*
X15602500Y-3460241D01*
X15613760Y-3428989D01*
X15615224Y-3427220D01*
X15622056Y-3420389D01*
X15624758Y-3415707D01*
X15627392Y-3412527D01*
X15628210Y-3412094D01*
X15630484Y-3409130D01*
X15633557Y-3406058D01*
X15640521Y-3389244D01*
X15643358Y-3383491D01*
X15658587Y-3357115D01*
X15658588Y-3357112D01*
X15658589Y-3357111D01*
X15667303Y-3324587D01*
X15675500Y-3304800D01*
X15675500Y-3293998D01*
X15676193Y-3291411D01*
X15677170Y-3287766D01*
X15677170Y-3287765D01*
X15677171Y-3287762D01*
X15677500Y-3286534D01*
X15677500Y-3213464D01*
X15677499Y-3213461D01*
X15677170Y-3212232D01*
X15677170Y-3212233D01*
X15677169Y-3212232D01*
X15675500Y-3206001D01*
X15675500Y-3195200D01*
X15667303Y-3175412D01*
X15658589Y-3142889D01*
X15655461Y-3137471D01*
X15643357Y-3116506D01*
X15641750Y-3113722D01*
X15633557Y-3093942D01*
X15625921Y-3086306D01*
X15622056Y-3079611D01*
X15570389Y-3027944D01*
X15570385Y-3027941D01*
X15570383Y-3027940D01*
X15569280Y-3027303D01*
X15563693Y-3024078D01*
X15556058Y-3016443D01*
X15536274Y-3008248D01*
X15507111Y-2991411D01*
X15507108Y-2991410D01*
X15477689Y-2983527D01*
X15477689Y-2983526D01*
X15474579Y-2982692D01*
X15454800Y-2974500D01*
X15444000Y-2974500D01*
X15437767Y-2972830D01*
X15437766Y-2972829D01*
X15437762Y-2972829D01*
X15436535Y-2972500D01*
X15436534Y-2972500D01*
X15363466Y-2972500D01*
X15363465Y-2972500D01*
X15362238Y-2972829D01*
X15356002Y-2974500D01*
X15345200Y-2974500D01*
X15325414Y-2982695D01*
X15322309Y-2983527D01*
X15322308Y-2983526D01*
X15292892Y-2991410D01*
X15292891Y-2991410D01*
X15292889Y-2991410D01*
X15292889Y-2991411D01*
X15287921Y-2994279D01*
X15266506Y-3006642D01*
X15263722Y-3008248D01*
X15243942Y-3016443D01*
X15236305Y-3024078D01*
X15230719Y-3027304D01*
X15229609Y-3027944D01*
X15177944Y-3079609D01*
X15177303Y-3080718D01*
X15177304Y-3080719D01*
X15174078Y-3086306D01*
X15166443Y-3093942D01*
X15158251Y-3113715D01*
X15156643Y-3116502D01*
X15156642Y-3116506D01*
X15141410Y-3142891D01*
X15141410Y-3142892D01*
X15133526Y-3172308D01*
X15133527Y-3172309D01*
X15132696Y-3175412D01*
X15124500Y-3195200D01*
X15124500Y-3206000D01*
X15122831Y-3212230D01*
X15122829Y-3212231D01*
X15122500Y-3213461D01*
X15122500Y-3286534D01*
X15122829Y-3287762D01*
X15122830Y-3287767D01*
X15124500Y-3293999D01*
X15124500Y-3304800D01*
X15132693Y-3324581D01*
X15133525Y-3327684D01*
X15133527Y-3327689D01*
X15136900Y-3340277D01*
X15141411Y-3357111D01*
X15158248Y-3386274D01*
X15166443Y-3406058D01*
X15174078Y-3413693D01*
X15174664Y-3414708D01*
X15177303Y-3419279D01*
X15177940Y-3420383D01*
X15177942Y-3420385D01*
X15177944Y-3420389D01*
X15177947Y-3420392D01*
X15183148Y-3425593D01*
X15197500Y-3460241D01*
X15197500Y-3989758D01*
X15186239Y-4021011D01*
X15184769Y-4022785D01*
X15177944Y-4029611D01*
X15175241Y-4034290D01*
X15172608Y-4037471D01*
X15171793Y-4037901D01*
X15169523Y-4040861D01*
X15166442Y-4043942D01*
X15166441Y-4043944D01*
X15159473Y-4060763D01*
X15156642Y-4066506D01*
X15141410Y-4092891D01*
X15141410Y-4092892D01*
X15133526Y-4122308D01*
X15133527Y-4122309D01*
X15132696Y-4125412D01*
X15124500Y-4145200D01*
X15124500Y-4156000D01*
X15122831Y-4162230D01*
X15122829Y-4162231D01*
X15122500Y-4163461D01*
X15122500Y-4236534D01*
X15122829Y-4237762D01*
X15122830Y-4237767D01*
X15124500Y-4244000D01*
X15124500Y-4254800D01*
X15132693Y-4274579D01*
X15133525Y-4277685D01*
X15133527Y-4277689D01*
X15141410Y-4307108D01*
X15141411Y-4307111D01*
X15158248Y-4336274D01*
X15166443Y-4356058D01*
X15174078Y-4363693D01*
X15177303Y-4369279D01*
X15177940Y-4370383D01*
X15177941Y-4370385D01*
X15177944Y-4370389D01*
X15229611Y-4422056D01*
X15236306Y-4425921D01*
X15243942Y-4433557D01*
X15263722Y-4441750D01*
X15266506Y-4443357D01*
X15292885Y-4458587D01*
X15292886Y-4458587D01*
X15292889Y-4458589D01*
X15322307Y-4466471D01*
X15323808Y-4467623D01*
X15328379Y-4468532D01*
X15345197Y-4475499D01*
X15345198Y-4475499D01*
X15345200Y-4475500D01*
X15349551Y-4475500D01*
X15362236Y-4477170D01*
X15363466Y-4477500D01*
X15363467Y-4477500D01*
X15364105Y-4477671D01*
X15375022Y-4486050D01*
X15384199Y-4489852D01*
X15386168Y-4494605D01*
X15393855Y-4500506D01*
X15396293Y-4519050D01*
X15398551Y-4524500D01*
X15398551Y-4525500D01*
X15397481Y-4528081D01*
X15398745Y-4537689D01*
X15387355Y-4552527D01*
X15384199Y-4560148D01*
X15380251Y-4561783D01*
X15375910Y-4567439D01*
X15364105Y-4572329D01*
X15363467Y-4572500D01*
X15363466Y-4572500D01*
X15362236Y-4572829D01*
X15349551Y-4574500D01*
X15345200Y-4574500D01*
X15328377Y-4581467D01*
X15322312Y-4583526D01*
X15292892Y-4591410D01*
X15292891Y-4591410D01*
X15292889Y-4591410D01*
X15292889Y-4591411D01*
X15288505Y-4593942D01*
X15266506Y-4606642D01*
X15263722Y-4608248D01*
X15243942Y-4616443D01*
X15236305Y-4624078D01*
X15230722Y-4627302D01*
X15229609Y-4627944D01*
X15177944Y-4679609D01*
X15177303Y-4680718D01*
X15177304Y-4680719D01*
X15174078Y-4686306D01*
X15166443Y-4693942D01*
X15158251Y-4713715D01*
X15156643Y-4716502D01*
X15156642Y-4716506D01*
X15141410Y-4742891D01*
X15141410Y-4742892D01*
X15133526Y-4772308D01*
X15133527Y-4772309D01*
X15132696Y-4775412D01*
X15124500Y-4795200D01*
X15124500Y-4806000D01*
X15122831Y-4812230D01*
X15122829Y-4812231D01*
X15122500Y-4813461D01*
X15122500Y-4886534D01*
X15122829Y-4887762D01*
X15122830Y-4887767D01*
X15124500Y-4894000D01*
X15124500Y-4904800D01*
X15132693Y-4924579D01*
X15133525Y-4927685D01*
X15133527Y-4927689D01*
X15140085Y-4952162D01*
X15141411Y-4957111D01*
X15158248Y-4986274D01*
X15166443Y-5006058D01*
X15174078Y-5013693D01*
X15177303Y-5019279D01*
X15177940Y-5020383D01*
X15177942Y-5020385D01*
X15177944Y-5020389D01*
X15177947Y-5020392D01*
X15183148Y-5025593D01*
X15197500Y-5060241D01*
X15197500Y-5648500D01*
X15183148Y-5683148D01*
X15148500Y-5697500D01*
X13759718Y-5697500D01*
X13685291Y-5728330D01*
X13628330Y-5785291D01*
X13597500Y-5859718D01*
X13597500Y-6098500D01*
X13583148Y-6133148D01*
X13548500Y-6147500D01*
X11509718Y-6147500D01*
X11435291Y-6178330D01*
X11378330Y-6235291D01*
X11347500Y-6309718D01*
X11347500Y-6706800D01*
X11333148Y-6741448D01*
X11298500Y-6755800D01*
X11001500Y-6755800D01*
X10966852Y-6741448D01*
X10952500Y-6706800D01*
X10952500Y-4389540D01*
X10955034Y-4383422D01*
X10954170Y-4376857D01*
X10961957Y-4366708D01*
X10966852Y-4354892D01*
X10976995Y-4347108D01*
X10983501Y-4343352D01*
X10989244Y-4340521D01*
X11006054Y-4333559D01*
X11006056Y-4333558D01*
X11006056Y-4333557D01*
X11006058Y-4333557D01*
X11009130Y-4330484D01*
X11019285Y-4322693D01*
X11020389Y-4322056D01*
X11072056Y-4270389D01*
X11075921Y-4263693D01*
X11083557Y-4256058D01*
X11091751Y-4236274D01*
X11093358Y-4233491D01*
X11108587Y-4207115D01*
X11108587Y-4207113D01*
X11108589Y-4207111D01*
X11117303Y-4174587D01*
X11125500Y-4154800D01*
X11125500Y-4143998D01*
X11126708Y-4139489D01*
X11127170Y-4137766D01*
X11127170Y-4137765D01*
X11127171Y-4137762D01*
X11127500Y-4136534D01*
X11127500Y-4063464D01*
X11127499Y-4063461D01*
X11127170Y-4062232D01*
X11127170Y-4062233D01*
X11127169Y-4062232D01*
X11125500Y-4056001D01*
X11125500Y-4045200D01*
X11117303Y-4025412D01*
X11108589Y-3992889D01*
X11107888Y-3991674D01*
X11093357Y-3966506D01*
X11091750Y-3963722D01*
X11083557Y-3943942D01*
X11075921Y-3936306D01*
X11072056Y-3929611D01*
X11020389Y-3877944D01*
X11020385Y-3877941D01*
X11020383Y-3877940D01*
X11019280Y-3877303D01*
X11013693Y-3874078D01*
X11006058Y-3866443D01*
X10986274Y-3858248D01*
X10957111Y-3841411D01*
X10957108Y-3841410D01*
X10927689Y-3833527D01*
X10927689Y-3833526D01*
X10924579Y-3832692D01*
X10904800Y-3824500D01*
X10894000Y-3824500D01*
X10887767Y-3822830D01*
X10887766Y-3822829D01*
X10887762Y-3822829D01*
X10886535Y-3822500D01*
X10886534Y-3822500D01*
X10813466Y-3822500D01*
X10813465Y-3822500D01*
X10812238Y-3822829D01*
X10806002Y-3824500D01*
X10795200Y-3824500D01*
X10775414Y-3832695D01*
X10772309Y-3833527D01*
X10772308Y-3833526D01*
X10742892Y-3841410D01*
X10742891Y-3841410D01*
X10742889Y-3841410D01*
X10742889Y-3841411D01*
X10736351Y-3845185D01*
X10716506Y-3856642D01*
X10713722Y-3858248D01*
X10693942Y-3866443D01*
X10686305Y-3874078D01*
X10680719Y-3877304D01*
X10679609Y-3877944D01*
X10627944Y-3929609D01*
X10627302Y-3930722D01*
X10623298Y-3936619D01*
X10621528Y-3938856D01*
X10616443Y-3943942D01*
X10615275Y-3946760D01*
X10611044Y-3952109D01*
X10609545Y-3952945D01*
X10607265Y-3956355D01*
X10578329Y-3985293D01*
X10547500Y-4059718D01*
X10547500Y-7314016D01*
X10544966Y-7320132D01*
X10545831Y-7326697D01*
X10538042Y-7336847D01*
X10533148Y-7348664D01*
X10527032Y-7351197D01*
X10523001Y-7356451D01*
X10510316Y-7358121D01*
X10498500Y-7363016D01*
X10492383Y-7360482D01*
X10485819Y-7361347D01*
X10475668Y-7353558D01*
X10463852Y-7348664D01*
X10456065Y-7338517D01*
X10443357Y-7316507D01*
X10443357Y-7316506D01*
X10440521Y-7310756D01*
X10433580Y-7293998D01*
X10433557Y-7293942D01*
X10430473Y-7290858D01*
X10427389Y-7287469D01*
X10424758Y-7284291D01*
X10422056Y-7279611D01*
X10415232Y-7272787D01*
X10413759Y-7271008D01*
X10408862Y-7255118D01*
X10402500Y-7239758D01*
X10402500Y-3760241D01*
X10416852Y-3725593D01*
X10422056Y-3720389D01*
X10422693Y-3719283D01*
X10430484Y-3709130D01*
X10433557Y-3706058D01*
X10436354Y-3699306D01*
X10440521Y-3689244D01*
X10443358Y-3683491D01*
X10458587Y-3657115D01*
X10458588Y-3657112D01*
X10458589Y-3657111D01*
X10467303Y-3624587D01*
X10475500Y-3604800D01*
X10475500Y-3593998D01*
X10476859Y-3588926D01*
X10477170Y-3587766D01*
X10477170Y-3587765D01*
X10477171Y-3587762D01*
X10477500Y-3586534D01*
X10477500Y-3513464D01*
X10477499Y-3513461D01*
X10477170Y-3512232D01*
X10477170Y-3512233D01*
X10477169Y-3512232D01*
X10475500Y-3506001D01*
X10475500Y-3495200D01*
X10467303Y-3475412D01*
X10458589Y-3442889D01*
X10458587Y-3442885D01*
X10443357Y-3416506D01*
X10441750Y-3413722D01*
X10433557Y-3393942D01*
X10425921Y-3386306D01*
X10422056Y-3379611D01*
X10370389Y-3327944D01*
X10370385Y-3327941D01*
X10370383Y-3327940D01*
X10369280Y-3327303D01*
X10363693Y-3324078D01*
X10356058Y-3316443D01*
X10336274Y-3308248D01*
X10307111Y-3291411D01*
X10307108Y-3291410D01*
X10277689Y-3283527D01*
X10277689Y-3283526D01*
X10274579Y-3282692D01*
X10254800Y-3274500D01*
X10244000Y-3274500D01*
X10237767Y-3272830D01*
X10237766Y-3272829D01*
X10237762Y-3272829D01*
X10236535Y-3272500D01*
X10236534Y-3272500D01*
X10163466Y-3272500D01*
X10163465Y-3272500D01*
X10162238Y-3272829D01*
X10156002Y-3274500D01*
X10145200Y-3274500D01*
X10125414Y-3282695D01*
X10122309Y-3283527D01*
X10122308Y-3283526D01*
X10092892Y-3291410D01*
X10092891Y-3291410D01*
X10092889Y-3291410D01*
X10092889Y-3291411D01*
X10092300Y-3291751D01*
X10066506Y-3306642D01*
X10063722Y-3308248D01*
X10043942Y-3316443D01*
X10036306Y-3324078D01*
X10032944Y-3326018D01*
X10030719Y-3327304D01*
X10029609Y-3327944D01*
X9977944Y-3379609D01*
X9977303Y-3380718D01*
X9977304Y-3380719D01*
X9975054Y-3384614D01*
X9974078Y-3386306D01*
X9966443Y-3393942D01*
X9958251Y-3413715D01*
X9956643Y-3416502D01*
X9956642Y-3416506D01*
X9941410Y-3442891D01*
X9941410Y-3442892D01*
X9933526Y-3472308D01*
X9933527Y-3472309D01*
X9932696Y-3475412D01*
X9924500Y-3495200D01*
X9924500Y-3506000D01*
X9922831Y-3512230D01*
X9922829Y-3512231D01*
X9922500Y-3513461D01*
X9922500Y-3586534D01*
X9922829Y-3587762D01*
X9922830Y-3587767D01*
X9924500Y-3593999D01*
X9924500Y-3604800D01*
X9932693Y-3624581D01*
X9933525Y-3627684D01*
X9933527Y-3627689D01*
X9934871Y-3632703D01*
X9941411Y-3657111D01*
X9958248Y-3686274D01*
X9966443Y-3706058D01*
X9974078Y-3713693D01*
X9977303Y-3719279D01*
X9977940Y-3720383D01*
X9977942Y-3720385D01*
X9977944Y-3720389D01*
X9977945Y-3720390D01*
X9977947Y-3720392D01*
X9983148Y-3725593D01*
X9997500Y-3760241D01*
X9997500Y-7239758D01*
X9986239Y-7271011D01*
X9984769Y-7272785D01*
X9977944Y-7279611D01*
X9975241Y-7284290D01*
X9972608Y-7287471D01*
X9971793Y-7287901D01*
X9969523Y-7290861D01*
X9966442Y-7293942D01*
X9966441Y-7293944D01*
X9959473Y-7310763D01*
X9956642Y-7316506D01*
X9941410Y-7342891D01*
X9941410Y-7342892D01*
X9933526Y-7372308D01*
X9933527Y-7372309D01*
X9932696Y-7375412D01*
X9924500Y-7395200D01*
X9924500Y-7406000D01*
X9922831Y-7412230D01*
X9922829Y-7412231D01*
X9922500Y-7413461D01*
X9922500Y-7486534D01*
X9922829Y-7487762D01*
X9922830Y-7487767D01*
X9924500Y-7494000D01*
X9924500Y-7504800D01*
X9932693Y-7524579D01*
X9933525Y-7527685D01*
X9933527Y-7527689D01*
X9941411Y-7557111D01*
X9958248Y-7586274D01*
X9966443Y-7606058D01*
X9974078Y-7613693D01*
X9977303Y-7619279D01*
X9977940Y-7620383D01*
X9977941Y-7620385D01*
X9977944Y-7620389D01*
X10029611Y-7672056D01*
X10036306Y-7675921D01*
X10043942Y-7683557D01*
X10063721Y-7691749D01*
X10066504Y-7693356D01*
X10066506Y-7693357D01*
X10092885Y-7708587D01*
X10092886Y-7708587D01*
X10092889Y-7708589D01*
X10125412Y-7717303D01*
X10145200Y-7725500D01*
X10156002Y-7725500D01*
X10162234Y-7727170D01*
X10162238Y-7727171D01*
X10163465Y-7727500D01*
X10163466Y-7727500D01*
X10236535Y-7727500D01*
X10237762Y-7727171D01*
X10237766Y-7727170D01*
X10243998Y-7725500D01*
X10254800Y-7725500D01*
X10274587Y-7717303D01*
X10307111Y-7708589D01*
X10307113Y-7708587D01*
X10307115Y-7708587D01*
X10333491Y-7693358D01*
X10333491Y-7693357D01*
X10336274Y-7691751D01*
X10356058Y-7683557D01*
X10363692Y-7675921D01*
X10369280Y-7672696D01*
X10369279Y-7672696D01*
X10370389Y-7672056D01*
X10422056Y-7620389D01*
X10425921Y-7613693D01*
X10433557Y-7606058D01*
X10441751Y-7586274D01*
X10456066Y-7561481D01*
X10485820Y-7538652D01*
X10523002Y-7543549D01*
X10545831Y-7573303D01*
X10547500Y-7585983D01*
X10547500Y-8039758D01*
X10533148Y-8074406D01*
X10527944Y-8079609D01*
X10527302Y-8080722D01*
X10519523Y-8090861D01*
X10516442Y-8093942D01*
X10516441Y-8093944D01*
X10509473Y-8110763D01*
X10506642Y-8116506D01*
X10491410Y-8142891D01*
X10491410Y-8142892D01*
X10483526Y-8172308D01*
X10483527Y-8172309D01*
X10482696Y-8175412D01*
X10474500Y-8195200D01*
X10474500Y-8206000D01*
X10472831Y-8212230D01*
X10472829Y-8212231D01*
X10472500Y-8213461D01*
X10472500Y-8286534D01*
X10472829Y-8287762D01*
X10472830Y-8287767D01*
X10474500Y-8294000D01*
X10474500Y-8304800D01*
X10482693Y-8324579D01*
X10483525Y-8327685D01*
X10483527Y-8327689D01*
X10485836Y-8336306D01*
X10491411Y-8357111D01*
X10508248Y-8386274D01*
X10516443Y-8406058D01*
X10524078Y-8413693D01*
X10527303Y-8419279D01*
X10527940Y-8420383D01*
X10527941Y-8420385D01*
X10527944Y-8420389D01*
X10579611Y-8472056D01*
X10586306Y-8475921D01*
X10593942Y-8483557D01*
X10613722Y-8491750D01*
X10616506Y-8493357D01*
X10642885Y-8508587D01*
X10642886Y-8508587D01*
X10642889Y-8508589D01*
X10675412Y-8517303D01*
X10695200Y-8525500D01*
X10706002Y-8525500D01*
X10712234Y-8527170D01*
X10712238Y-8527171D01*
X10713465Y-8527500D01*
X10713466Y-8527500D01*
X10786535Y-8527500D01*
X10787762Y-8527171D01*
X10787766Y-8527170D01*
X10793998Y-8525500D01*
X10804800Y-8525500D01*
X10824587Y-8517303D01*
X10857111Y-8508589D01*
X10857113Y-8508587D01*
X10857115Y-8508587D01*
X10883491Y-8493358D01*
X10889232Y-8490525D01*
X10905251Y-8483891D01*
X10942753Y-8483893D01*
X10969271Y-8510412D01*
X10973000Y-8529162D01*
X10973000Y-9198500D01*
X10958648Y-9233148D01*
X10924000Y-9247500D01*
X9251500Y-9247500D01*
X9216852Y-9233148D01*
X9202500Y-9198500D01*
X9202500Y-5816641D01*
X9213760Y-5785389D01*
X9215224Y-5783620D01*
X9222056Y-5776789D01*
X9224758Y-5772107D01*
X9227392Y-5768927D01*
X9228210Y-5768494D01*
X9230484Y-5765530D01*
X9233557Y-5762458D01*
X9240521Y-5745644D01*
X9243358Y-5739891D01*
X9258587Y-5713515D01*
X9258588Y-5713512D01*
X9258589Y-5713511D01*
X9267303Y-5680987D01*
X9275500Y-5661200D01*
X9275500Y-5650398D01*
X9277500Y-5642934D01*
X9277500Y-5569866D01*
X9277500Y-5569864D01*
X9277499Y-5569861D01*
X9277170Y-5568632D01*
X9277170Y-5568633D01*
X9277169Y-5568632D01*
X9275500Y-5562401D01*
X9275500Y-5551600D01*
X9267303Y-5531812D01*
X9258589Y-5499289D01*
X9258587Y-5499285D01*
X9243357Y-5472906D01*
X9241750Y-5470122D01*
X9233557Y-5450342D01*
X9225921Y-5442706D01*
X9222056Y-5436011D01*
X9222053Y-5436008D01*
X9222052Y-5436006D01*
X9216852Y-5430806D01*
X9202500Y-5396158D01*
X9202500Y-2113466D01*
X11172500Y-2113466D01*
X11172500Y-2114793D01*
X11172500Y-2186534D01*
X11172829Y-2187762D01*
X11172830Y-2187767D01*
X11174500Y-2193999D01*
X11174500Y-2204800D01*
X11182693Y-2224581D01*
X11183525Y-2227684D01*
X11183527Y-2227689D01*
X11187204Y-2241410D01*
X11191411Y-2257111D01*
X11208248Y-2286274D01*
X11216443Y-2306058D01*
X11224078Y-2313693D01*
X11227303Y-2319279D01*
X11227940Y-2320383D01*
X11227942Y-2320385D01*
X11227944Y-2320389D01*
X11227947Y-2320392D01*
X11233148Y-2325593D01*
X11247500Y-2360241D01*
X11247500Y-4389758D01*
X11236239Y-4421011D01*
X11234769Y-4422785D01*
X11227944Y-4429611D01*
X11225241Y-4434290D01*
X11222608Y-4437471D01*
X11221793Y-4437901D01*
X11219523Y-4440861D01*
X11216442Y-4443942D01*
X11216441Y-4443944D01*
X11209473Y-4460763D01*
X11206642Y-4466506D01*
X11191410Y-4492891D01*
X11191410Y-4492892D01*
X11183526Y-4522308D01*
X11183527Y-4522309D01*
X11183053Y-4524078D01*
X11182696Y-4525412D01*
X11174500Y-4545200D01*
X11174500Y-4556000D01*
X11172831Y-4562230D01*
X11172829Y-4562231D01*
X11172500Y-4563461D01*
X11172500Y-4636534D01*
X11172829Y-4637762D01*
X11172830Y-4637767D01*
X11174500Y-4643999D01*
X11174500Y-4654800D01*
X11182693Y-4674581D01*
X11183525Y-4677684D01*
X11183527Y-4677689D01*
X11191410Y-4707108D01*
X11191411Y-4707111D01*
X11208248Y-4736274D01*
X11216443Y-4756058D01*
X11224078Y-4763693D01*
X11227303Y-4769279D01*
X11227940Y-4770383D01*
X11227941Y-4770385D01*
X11227944Y-4770389D01*
X11279611Y-4822056D01*
X11286306Y-4825921D01*
X11293942Y-4833557D01*
X11313721Y-4841749D01*
X11316504Y-4843356D01*
X11316506Y-4843357D01*
X11342885Y-4858587D01*
X11342886Y-4858587D01*
X11342889Y-4858589D01*
X11375412Y-4867303D01*
X11395200Y-4875500D01*
X11406002Y-4875500D01*
X11412234Y-4877170D01*
X11412238Y-4877171D01*
X11413465Y-4877500D01*
X11413466Y-4877500D01*
X11486535Y-4877500D01*
X11487762Y-4877171D01*
X11487766Y-4877170D01*
X11493998Y-4875500D01*
X11504800Y-4875500D01*
X11524587Y-4867303D01*
X11557111Y-4858589D01*
X11557113Y-4858587D01*
X11557115Y-4858587D01*
X11583491Y-4843358D01*
X11583491Y-4843357D01*
X11586274Y-4841751D01*
X11606058Y-4833557D01*
X11613692Y-4825921D01*
X11619280Y-4822696D01*
X11619279Y-4822696D01*
X11620389Y-4822056D01*
X11646184Y-4796261D01*
X13572500Y-4796261D01*
X13572500Y-4869334D01*
X13572829Y-4870562D01*
X13572830Y-4870567D01*
X13574500Y-4876800D01*
X13574500Y-4887600D01*
X13582693Y-4907379D01*
X13583525Y-4910485D01*
X13583527Y-4910489D01*
X13586180Y-4920389D01*
X13591411Y-4939911D01*
X13608248Y-4969074D01*
X13616443Y-4988858D01*
X13624078Y-4996493D01*
X13627303Y-5002079D01*
X13627940Y-5003183D01*
X13627941Y-5003185D01*
X13627944Y-5003189D01*
X13679611Y-5054856D01*
X13686306Y-5058721D01*
X13693942Y-5066357D01*
X13713721Y-5074549D01*
X13716504Y-5076156D01*
X13716506Y-5076157D01*
X13742885Y-5091387D01*
X13742886Y-5091387D01*
X13742889Y-5091389D01*
X13775412Y-5100103D01*
X13795200Y-5108300D01*
X13806002Y-5108300D01*
X13812234Y-5109970D01*
X13812238Y-5109971D01*
X13813465Y-5110300D01*
X13813466Y-5110300D01*
X13886535Y-5110300D01*
X13887762Y-5109971D01*
X13887766Y-5109970D01*
X13893998Y-5108300D01*
X13904800Y-5108300D01*
X13924587Y-5100103D01*
X13957111Y-5091389D01*
X13957113Y-5091387D01*
X13957115Y-5091387D01*
X13983491Y-5076158D01*
X13983491Y-5076157D01*
X13986274Y-5074551D01*
X14006058Y-5066357D01*
X14013692Y-5058721D01*
X14019280Y-5055496D01*
X14019279Y-5055496D01*
X14020389Y-5054856D01*
X14032237Y-5043006D01*
X14065356Y-5028678D01*
X14100631Y-5027578D01*
X14102382Y-5027524D01*
X14103909Y-5027500D01*
X14140275Y-5027500D01*
X14140280Y-5027500D01*
X14140284Y-5027498D01*
X14143198Y-5026918D01*
X14143613Y-5026835D01*
X14143674Y-5026816D01*
X14146571Y-5026145D01*
X14146576Y-5026145D01*
X14146579Y-5026143D01*
X14146581Y-5026143D01*
X14166169Y-5017303D01*
X14180407Y-5010878D01*
X14214707Y-4996671D01*
X14217021Y-4994356D01*
X14220005Y-4993010D01*
X14244915Y-4966494D01*
X14245947Y-4965430D01*
X14258027Y-4953350D01*
X14271671Y-4939707D01*
X14271674Y-4939699D01*
X14273321Y-4937236D01*
X14273326Y-4937229D01*
X14273559Y-4936878D01*
X14273585Y-4936830D01*
X14275160Y-4934302D01*
X14275165Y-4934298D01*
X14288051Y-4900216D01*
X14288567Y-4898912D01*
X14302500Y-4865280D01*
X14302500Y-4865276D01*
X14303082Y-4862353D01*
X14303162Y-4861947D01*
X14303168Y-4861885D01*
X14303658Y-4858944D01*
X14302524Y-4822595D01*
X14302500Y-4821067D01*
X14302500Y-3035241D01*
X14313760Y-3003989D01*
X14315224Y-3002220D01*
X14322056Y-2995389D01*
X14324758Y-2990707D01*
X14327392Y-2987527D01*
X14328210Y-2987094D01*
X14330484Y-2984130D01*
X14333557Y-2981058D01*
X14335896Y-2975412D01*
X14340521Y-2964244D01*
X14343358Y-2958491D01*
X14358587Y-2932115D01*
X14358588Y-2932112D01*
X14358589Y-2932111D01*
X14367303Y-2899587D01*
X14375500Y-2879800D01*
X14375500Y-2868998D01*
X14377500Y-2861534D01*
X14377500Y-2788466D01*
X14377500Y-2788464D01*
X14377499Y-2788461D01*
X14377170Y-2787232D01*
X14377170Y-2787233D01*
X14377169Y-2787232D01*
X14375500Y-2781001D01*
X14375500Y-2770200D01*
X14367303Y-2750412D01*
X14358589Y-2717889D01*
X14358587Y-2717885D01*
X14343357Y-2691506D01*
X14341750Y-2688722D01*
X14333557Y-2668942D01*
X14325921Y-2661306D01*
X14322056Y-2654611D01*
X14270389Y-2602944D01*
X14270385Y-2602941D01*
X14270383Y-2602940D01*
X14269280Y-2602303D01*
X14263693Y-2599078D01*
X14256058Y-2591443D01*
X14236274Y-2583248D01*
X14207111Y-2566411D01*
X14207108Y-2566410D01*
X14177689Y-2558527D01*
X14177689Y-2558526D01*
X14174579Y-2557692D01*
X14154800Y-2549500D01*
X14144000Y-2549500D01*
X14137767Y-2547830D01*
X14137766Y-2547829D01*
X14137762Y-2547829D01*
X14136535Y-2547500D01*
X14136534Y-2547500D01*
X14063466Y-2547500D01*
X14063465Y-2547500D01*
X14062238Y-2547829D01*
X14056002Y-2549500D01*
X14045200Y-2549500D01*
X14025414Y-2557695D01*
X14022309Y-2558527D01*
X14022308Y-2558526D01*
X13992892Y-2566410D01*
X13992891Y-2566410D01*
X13992889Y-2566410D01*
X13992889Y-2566411D01*
X13986351Y-2570185D01*
X13966506Y-2581642D01*
X13963722Y-2583248D01*
X13943942Y-2591443D01*
X13936305Y-2599078D01*
X13930719Y-2602304D01*
X13929609Y-2602944D01*
X13877944Y-2654609D01*
X13877303Y-2655718D01*
X13877304Y-2655719D01*
X13877108Y-2656058D01*
X13874078Y-2661306D01*
X13866443Y-2668942D01*
X13858251Y-2688715D01*
X13856643Y-2691502D01*
X13856642Y-2691506D01*
X13841410Y-2717891D01*
X13841410Y-2717892D01*
X13833526Y-2747308D01*
X13833527Y-2747309D01*
X13832696Y-2750412D01*
X13824500Y-2770200D01*
X13824500Y-2781000D01*
X13822831Y-2787230D01*
X13822829Y-2787231D01*
X13822500Y-2788461D01*
X13822500Y-2861534D01*
X13822829Y-2862762D01*
X13822830Y-2862767D01*
X13824500Y-2868999D01*
X13824500Y-2879800D01*
X13832693Y-2899581D01*
X13833525Y-2902684D01*
X13833527Y-2902689D01*
X13841410Y-2932108D01*
X13841411Y-2932111D01*
X13858248Y-2961274D01*
X13866443Y-2981058D01*
X13874078Y-2988693D01*
X13877303Y-2994279D01*
X13877940Y-2995383D01*
X13877942Y-2995385D01*
X13877944Y-2995389D01*
X13877947Y-2995392D01*
X13883148Y-3000593D01*
X13897500Y-3035241D01*
X13897500Y-4506300D01*
X13890680Y-4522764D01*
X13884534Y-4539505D01*
X13883570Y-4539927D01*
X13883148Y-4540948D01*
X13850500Y-4555259D01*
X13849497Y-4555300D01*
X13813466Y-4555300D01*
X13806983Y-4557037D01*
X13801551Y-4557259D01*
X13801105Y-4557095D01*
X13799551Y-4557300D01*
X13795200Y-4557300D01*
X13778377Y-4564267D01*
X13772312Y-4566326D01*
X13742892Y-4574210D01*
X13742891Y-4574210D01*
X13742889Y-4574210D01*
X13742889Y-4574211D01*
X13742387Y-4574501D01*
X13716506Y-4589442D01*
X13713722Y-4591048D01*
X13693942Y-4599243D01*
X13686305Y-4606878D01*
X13680722Y-4610102D01*
X13679609Y-4610744D01*
X13627944Y-4662409D01*
X13627303Y-4663518D01*
X13627304Y-4663519D01*
X13624078Y-4669106D01*
X13616443Y-4676742D01*
X13608251Y-4696515D01*
X13606643Y-4699302D01*
X13606642Y-4699306D01*
X13591410Y-4725691D01*
X13591410Y-4725692D01*
X13583526Y-4755108D01*
X13583527Y-4755109D01*
X13582696Y-4758212D01*
X13574500Y-4778000D01*
X13574500Y-4788800D01*
X13572831Y-4795030D01*
X13572829Y-4795031D01*
X13572500Y-4796261D01*
X11646184Y-4796261D01*
X11672056Y-4770389D01*
X11672693Y-4769283D01*
X11680484Y-4759131D01*
X11683556Y-4756059D01*
X11683559Y-4756054D01*
X11690521Y-4739244D01*
X11693358Y-4733491D01*
X11708587Y-4707115D01*
X11708588Y-4707112D01*
X11708589Y-4707111D01*
X11717303Y-4674587D01*
X11725500Y-4654800D01*
X11725500Y-4643998D01*
X11727500Y-4636534D01*
X11727500Y-4563466D01*
X11727500Y-4563464D01*
X11727499Y-4563461D01*
X11727170Y-4562232D01*
X11727170Y-4562233D01*
X11727169Y-4562232D01*
X11725500Y-4556001D01*
X11725500Y-4545200D01*
X11717303Y-4525412D01*
X11708589Y-4492889D01*
X11708587Y-4492885D01*
X11693357Y-4466506D01*
X11691750Y-4463722D01*
X11683557Y-4443942D01*
X11675921Y-4436306D01*
X11672056Y-4429611D01*
X11672053Y-4429608D01*
X11672052Y-4429606D01*
X11666852Y-4424406D01*
X11652500Y-4389758D01*
X11652500Y-2563466D01*
X12922500Y-2563466D01*
X12922500Y-2564793D01*
X12922500Y-2636534D01*
X12922829Y-2637762D01*
X12922830Y-2637767D01*
X12924500Y-2644000D01*
X12924500Y-2654800D01*
X12932693Y-2674579D01*
X12933525Y-2677685D01*
X12933527Y-2677689D01*
X12941410Y-2707108D01*
X12941411Y-2707111D01*
X12958248Y-2736274D01*
X12966443Y-2756058D01*
X12974078Y-2763693D01*
X12977303Y-2769279D01*
X12977940Y-2770383D01*
X12977941Y-2770385D01*
X12977944Y-2770389D01*
X13029611Y-2822056D01*
X13036306Y-2825921D01*
X13043942Y-2833557D01*
X13063725Y-2841751D01*
X13070073Y-2845416D01*
X13073003Y-2847108D01*
X13095831Y-2876863D01*
X13097500Y-2889541D01*
X13097500Y-3622558D01*
X13083148Y-3657206D01*
X13077944Y-3662409D01*
X13077302Y-3663522D01*
X13069523Y-3673661D01*
X13066442Y-3676742D01*
X13066441Y-3676744D01*
X13059473Y-3693563D01*
X13056642Y-3699306D01*
X13045201Y-3719125D01*
X13041467Y-3725593D01*
X13041410Y-3725691D01*
X13041410Y-3725692D01*
X13033526Y-3755108D01*
X13033527Y-3755109D01*
X13032696Y-3758212D01*
X13024500Y-3778000D01*
X13024500Y-3788800D01*
X13022831Y-3795030D01*
X13022829Y-3795031D01*
X13022500Y-3796261D01*
X13022500Y-3869334D01*
X13022829Y-3870562D01*
X13022830Y-3870567D01*
X13024500Y-3876799D01*
X13024500Y-3887600D01*
X13032693Y-3907381D01*
X13033525Y-3910484D01*
X13033527Y-3910489D01*
X13040445Y-3936306D01*
X13041411Y-3939911D01*
X13058248Y-3969074D01*
X13066443Y-3988858D01*
X13074078Y-3996493D01*
X13077303Y-4002079D01*
X13077940Y-4003183D01*
X13077941Y-4003185D01*
X13077944Y-4003189D01*
X13129611Y-4054856D01*
X13136306Y-4058721D01*
X13143942Y-4066357D01*
X13163721Y-4074549D01*
X13166504Y-4076156D01*
X13166506Y-4076157D01*
X13192885Y-4091387D01*
X13192886Y-4091387D01*
X13192889Y-4091389D01*
X13225412Y-4100103D01*
X13245200Y-4108300D01*
X13256002Y-4108300D01*
X13262234Y-4109970D01*
X13262238Y-4109971D01*
X13263465Y-4110300D01*
X13263466Y-4110300D01*
X13336535Y-4110300D01*
X13337762Y-4109971D01*
X13337766Y-4109970D01*
X13343998Y-4108300D01*
X13354800Y-4108300D01*
X13374587Y-4100103D01*
X13407111Y-4091389D01*
X13407113Y-4091387D01*
X13407115Y-4091387D01*
X13433491Y-4076158D01*
X13433491Y-4076157D01*
X13436274Y-4074551D01*
X13456058Y-4066357D01*
X13463692Y-4058721D01*
X13469280Y-4055496D01*
X13469279Y-4055496D01*
X13470389Y-4054856D01*
X13522056Y-4003189D01*
X13525921Y-3996493D01*
X13533557Y-3988858D01*
X13541751Y-3969074D01*
X13543358Y-3966291D01*
X13558587Y-3939915D01*
X13558588Y-3939912D01*
X13558589Y-3939911D01*
X13567303Y-3907387D01*
X13575500Y-3887600D01*
X13575500Y-3876798D01*
X13577500Y-3869334D01*
X13577500Y-3796266D01*
X13577500Y-3796264D01*
X13577499Y-3796261D01*
X13577170Y-3795032D01*
X13577170Y-3795033D01*
X13577169Y-3795032D01*
X13575500Y-3788801D01*
X13575500Y-3778000D01*
X13567303Y-3758212D01*
X13558589Y-3725689D01*
X13555529Y-3720389D01*
X13543357Y-3699306D01*
X13541750Y-3696522D01*
X13533557Y-3676742D01*
X13525921Y-3669106D01*
X13522056Y-3662411D01*
X13522053Y-3662408D01*
X13522052Y-3662406D01*
X13516852Y-3657206D01*
X13502500Y-3622558D01*
X13502500Y-2559722D01*
X13502499Y-2559718D01*
X13502005Y-2558526D01*
X13471671Y-2485293D01*
X13442730Y-2456352D01*
X13438958Y-2452114D01*
X13434725Y-2446763D01*
X13433557Y-2443942D01*
X13428465Y-2438850D01*
X13426701Y-2436620D01*
X13426394Y-2435539D01*
X13422695Y-2430718D01*
X13422056Y-2429611D01*
X13370389Y-2377944D01*
X13370385Y-2377941D01*
X13370383Y-2377940D01*
X13369280Y-2377303D01*
X13363693Y-2374078D01*
X13356058Y-2366443D01*
X13336274Y-2358248D01*
X13307111Y-2341411D01*
X13307108Y-2341410D01*
X13277689Y-2333527D01*
X13277689Y-2333526D01*
X13274579Y-2332692D01*
X13254800Y-2324500D01*
X13244000Y-2324500D01*
X13237767Y-2322830D01*
X13237766Y-2322829D01*
X13237762Y-2322829D01*
X13236535Y-2322500D01*
X13236534Y-2322500D01*
X13163466Y-2322500D01*
X13163465Y-2322500D01*
X13162238Y-2322829D01*
X13156002Y-2324500D01*
X13145200Y-2324500D01*
X13125414Y-2332695D01*
X13122309Y-2333527D01*
X13122308Y-2333526D01*
X13092892Y-2341410D01*
X13092891Y-2341410D01*
X13092889Y-2341410D01*
X13092889Y-2341411D01*
X13088505Y-2343942D01*
X13066506Y-2356642D01*
X13063722Y-2358248D01*
X13043942Y-2366443D01*
X13036305Y-2374078D01*
X13030719Y-2377304D01*
X13029609Y-2377944D01*
X12977944Y-2429609D01*
X12977303Y-2430718D01*
X12977304Y-2430719D01*
X12974078Y-2436306D01*
X12966443Y-2443942D01*
X12958251Y-2463715D01*
X12956643Y-2466502D01*
X12956642Y-2466506D01*
X12941410Y-2492891D01*
X12941410Y-2492892D01*
X12933526Y-2522312D01*
X12931467Y-2528377D01*
X12924500Y-2545199D01*
X12924500Y-2549549D01*
X12923450Y-2557521D01*
X12923667Y-2558547D01*
X12923319Y-2560407D01*
X12922500Y-2563466D01*
X11652500Y-2563466D01*
X11652500Y-2360241D01*
X11663760Y-2328989D01*
X11665224Y-2327220D01*
X11672056Y-2320389D01*
X11674758Y-2315707D01*
X11677392Y-2312527D01*
X11678210Y-2312094D01*
X11680484Y-2309130D01*
X11683557Y-2306058D01*
X11688818Y-2293357D01*
X11690521Y-2289244D01*
X11693358Y-2283491D01*
X11708587Y-2257115D01*
X11708588Y-2257112D01*
X11708589Y-2257111D01*
X11717303Y-2224587D01*
X11725500Y-2204800D01*
X11725500Y-2193998D01*
X11727500Y-2186534D01*
X11727500Y-2113466D01*
X11727500Y-2113464D01*
X11727499Y-2113461D01*
X11727170Y-2112232D01*
X11727170Y-2112233D01*
X11727169Y-2112232D01*
X11725500Y-2106001D01*
X11725500Y-2095200D01*
X11717303Y-2075412D01*
X11708589Y-2042889D01*
X11693357Y-2016506D01*
X11691855Y-2013461D01*
X15822500Y-2013461D01*
X15822500Y-2086534D01*
X15822829Y-2087762D01*
X15822830Y-2087767D01*
X15824500Y-2093999D01*
X15824500Y-2104800D01*
X15832693Y-2124581D01*
X15833525Y-2127684D01*
X15833526Y-2127686D01*
X15841411Y-2157111D01*
X15858248Y-2186274D01*
X15866443Y-2206058D01*
X15874078Y-2213693D01*
X15877303Y-2219279D01*
X15877940Y-2220383D01*
X15877941Y-2220385D01*
X15877944Y-2220389D01*
X15929611Y-2272056D01*
X15936306Y-2275921D01*
X15943942Y-2283557D01*
X15963721Y-2291749D01*
X15966504Y-2293356D01*
X15966506Y-2293357D01*
X15992885Y-2308587D01*
X15992886Y-2308587D01*
X15992889Y-2308589D01*
X16025412Y-2317303D01*
X16045200Y-2325500D01*
X16056002Y-2325500D01*
X16062234Y-2327170D01*
X16062238Y-2327171D01*
X16063465Y-2327500D01*
X16063466Y-2327500D01*
X16136535Y-2327500D01*
X16137762Y-2327171D01*
X16137766Y-2327170D01*
X16143998Y-2325500D01*
X16154800Y-2325500D01*
X16174587Y-2317303D01*
X16207111Y-2308589D01*
X16207113Y-2308587D01*
X16207115Y-2308587D01*
X16233491Y-2293358D01*
X16233491Y-2293357D01*
X16236274Y-2291751D01*
X16256058Y-2283557D01*
X16263692Y-2275921D01*
X16269280Y-2272696D01*
X16269279Y-2272696D01*
X16270389Y-2272056D01*
X16275593Y-2266852D01*
X16310241Y-2252500D01*
X16839758Y-2252500D01*
X16871008Y-2263759D01*
X16872787Y-2265232D01*
X16879611Y-2272056D01*
X16884291Y-2274758D01*
X16887469Y-2277389D01*
X16887901Y-2278206D01*
X16890865Y-2280480D01*
X16893942Y-2283557D01*
X16910759Y-2290522D01*
X16916506Y-2293357D01*
X16942885Y-2308587D01*
X16942886Y-2308587D01*
X16942889Y-2308589D01*
X16975412Y-2317303D01*
X16995200Y-2325500D01*
X17006002Y-2325500D01*
X17012234Y-2327170D01*
X17012238Y-2327171D01*
X17013465Y-2327500D01*
X17013466Y-2327500D01*
X17086535Y-2327500D01*
X17087762Y-2327171D01*
X17087766Y-2327170D01*
X17093998Y-2325500D01*
X17104800Y-2325500D01*
X17124587Y-2317303D01*
X17157111Y-2308589D01*
X17157113Y-2308587D01*
X17157115Y-2308587D01*
X17183491Y-2293358D01*
X17183491Y-2293357D01*
X17186274Y-2291751D01*
X17206058Y-2283557D01*
X17213692Y-2275921D01*
X17219280Y-2272696D01*
X17219279Y-2272696D01*
X17220389Y-2272056D01*
X17272056Y-2220389D01*
X17275921Y-2213693D01*
X17283557Y-2206058D01*
X17291751Y-2186274D01*
X17293358Y-2183491D01*
X17308587Y-2157115D01*
X17308588Y-2157112D01*
X17308589Y-2157111D01*
X17317303Y-2124587D01*
X17325500Y-2104800D01*
X17325500Y-2093998D01*
X17327500Y-2086534D01*
X17327500Y-2013466D01*
X17327500Y-2013464D01*
X17327499Y-2013461D01*
X17327170Y-2012232D01*
X17327170Y-2012233D01*
X17327169Y-2012232D01*
X17325500Y-2006001D01*
X17325500Y-1995200D01*
X17317303Y-1975412D01*
X17308589Y-1942889D01*
X17308587Y-1942885D01*
X17293357Y-1916506D01*
X17291750Y-1913722D01*
X17283557Y-1893942D01*
X17275921Y-1886306D01*
X17272056Y-1879611D01*
X17220389Y-1827944D01*
X17220385Y-1827941D01*
X17220383Y-1827940D01*
X17219280Y-1827303D01*
X17213693Y-1824078D01*
X17206058Y-1816443D01*
X17186274Y-1808248D01*
X17157111Y-1791411D01*
X17157108Y-1791410D01*
X17127689Y-1783527D01*
X17127689Y-1783526D01*
X17124579Y-1782692D01*
X17104800Y-1774500D01*
X17094000Y-1774500D01*
X17087767Y-1772830D01*
X17087766Y-1772829D01*
X17087762Y-1772829D01*
X17086535Y-1772500D01*
X17086534Y-1772500D01*
X17013466Y-1772500D01*
X17013465Y-1772500D01*
X17012238Y-1772829D01*
X17006002Y-1774500D01*
X16995200Y-1774500D01*
X16975414Y-1782695D01*
X16972309Y-1783527D01*
X16972308Y-1783526D01*
X16942892Y-1791410D01*
X16942891Y-1791410D01*
X16942889Y-1791410D01*
X16942889Y-1791411D01*
X16936351Y-1795185D01*
X16916506Y-1806642D01*
X16913722Y-1808248D01*
X16893942Y-1816443D01*
X16886305Y-1824078D01*
X16880719Y-1827304D01*
X16879609Y-1827944D01*
X16874406Y-1833148D01*
X16839758Y-1847500D01*
X16310241Y-1847500D01*
X16278989Y-1836240D01*
X16277220Y-1834775D01*
X16270389Y-1827944D01*
X16265704Y-1825239D01*
X16262527Y-1822608D01*
X16262094Y-1821790D01*
X16259132Y-1819517D01*
X16256058Y-1816443D01*
X16239234Y-1809474D01*
X16233493Y-1806642D01*
X16207111Y-1791411D01*
X16207108Y-1791410D01*
X16177689Y-1783527D01*
X16177689Y-1783526D01*
X16174579Y-1782692D01*
X16154800Y-1774500D01*
X16144000Y-1774500D01*
X16137767Y-1772830D01*
X16137766Y-1772829D01*
X16137762Y-1772829D01*
X16136535Y-1772500D01*
X16136534Y-1772500D01*
X16063466Y-1772500D01*
X16063465Y-1772500D01*
X16062238Y-1772829D01*
X16056002Y-1774500D01*
X16045200Y-1774500D01*
X16025414Y-1782695D01*
X16022309Y-1783527D01*
X16022308Y-1783526D01*
X15992892Y-1791410D01*
X15992891Y-1791410D01*
X15992889Y-1791410D01*
X15992889Y-1791411D01*
X15986351Y-1795185D01*
X15966506Y-1806642D01*
X15963722Y-1808248D01*
X15943942Y-1816443D01*
X15936305Y-1824078D01*
X15930719Y-1827304D01*
X15929609Y-1827944D01*
X15877944Y-1879609D01*
X15877303Y-1880718D01*
X15877304Y-1880719D01*
X15875683Y-1883526D01*
X15874078Y-1886306D01*
X15866443Y-1893942D01*
X15858251Y-1913715D01*
X15856643Y-1916502D01*
X15856642Y-1916506D01*
X15841410Y-1942891D01*
X15841410Y-1942892D01*
X15833526Y-1972308D01*
X15833527Y-1972309D01*
X15832696Y-1975412D01*
X15824500Y-1995200D01*
X15824500Y-2006000D01*
X15822831Y-2012230D01*
X15822829Y-2012231D01*
X15822500Y-2013461D01*
X11691855Y-2013461D01*
X11690521Y-2010756D01*
X11683557Y-1993942D01*
X11680480Y-1990865D01*
X11672695Y-1980718D01*
X11672056Y-1979611D01*
X11620389Y-1927944D01*
X11620385Y-1927941D01*
X11620383Y-1927940D01*
X11619280Y-1927303D01*
X11613693Y-1924078D01*
X11606058Y-1916443D01*
X11586274Y-1908248D01*
X11557111Y-1891411D01*
X11557108Y-1891410D01*
X11527689Y-1883527D01*
X11527689Y-1883526D01*
X11524579Y-1882692D01*
X11504800Y-1874500D01*
X11494000Y-1874500D01*
X11487767Y-1872830D01*
X11487766Y-1872829D01*
X11487762Y-1872829D01*
X11486535Y-1872500D01*
X11486534Y-1872500D01*
X11413466Y-1872500D01*
X11413465Y-1872500D01*
X11412238Y-1872829D01*
X11406002Y-1874500D01*
X11395200Y-1874500D01*
X11375414Y-1882695D01*
X11372309Y-1883527D01*
X11372308Y-1883526D01*
X11342892Y-1891410D01*
X11342891Y-1891410D01*
X11342889Y-1891410D01*
X11342889Y-1891411D01*
X11338505Y-1893942D01*
X11316506Y-1906642D01*
X11313722Y-1908248D01*
X11293942Y-1916443D01*
X11286305Y-1924078D01*
X11280719Y-1927304D01*
X11279609Y-1927944D01*
X11227944Y-1979609D01*
X11227303Y-1980718D01*
X11227304Y-1980719D01*
X11224078Y-1986306D01*
X11216443Y-1993942D01*
X11208251Y-2013715D01*
X11206643Y-2016502D01*
X11206642Y-2016506D01*
X11191410Y-2042891D01*
X11191410Y-2042892D01*
X11183526Y-2072312D01*
X11181467Y-2078377D01*
X11174500Y-2095199D01*
X11174500Y-2099549D01*
X11173450Y-2107521D01*
X11173667Y-2108547D01*
X11173319Y-2110407D01*
X11172500Y-2113466D01*
X9202500Y-2113466D01*
X9202500Y-1910241D01*
X9213760Y-1878989D01*
X9215224Y-1877220D01*
X9222056Y-1870389D01*
X9224758Y-1865707D01*
X9227392Y-1862527D01*
X9228210Y-1862094D01*
X9230484Y-1859130D01*
X9233557Y-1856058D01*
X9237102Y-1847500D01*
X9240521Y-1839244D01*
X9243358Y-1833491D01*
X9258587Y-1807115D01*
X9258588Y-1807112D01*
X9258589Y-1807111D01*
X9267303Y-1774587D01*
X9275500Y-1754800D01*
X9275500Y-1743998D01*
X9277500Y-1736534D01*
X9277500Y-1663466D01*
X9277500Y-1663464D01*
X9277499Y-1663461D01*
X9277170Y-1662232D01*
X9277170Y-1662233D01*
X9277169Y-1662232D01*
X9275500Y-1656001D01*
X9275500Y-1645200D01*
X9267303Y-1625412D01*
X9258589Y-1592889D01*
X9243354Y-1566502D01*
X9241750Y-1563722D01*
X9233557Y-1543942D01*
X9225921Y-1536306D01*
X9222056Y-1529611D01*
X9170389Y-1477944D01*
X9170385Y-1477941D01*
X9170383Y-1477940D01*
X9169280Y-1477303D01*
X9163693Y-1474078D01*
X9156058Y-1466443D01*
X9136274Y-1458248D01*
X9107111Y-1441411D01*
X9107108Y-1441410D01*
X9077689Y-1433527D01*
X9077689Y-1433526D01*
X9074579Y-1432692D01*
X9054800Y-1424500D01*
X9044000Y-1424500D01*
X9037767Y-1422830D01*
X9037766Y-1422829D01*
X9037762Y-1422829D01*
X9036535Y-1422500D01*
X9036534Y-1422500D01*
X8963466Y-1422500D01*
X8963465Y-1422500D01*
X8962238Y-1422829D01*
X8956002Y-1424500D01*
X8945200Y-1424500D01*
X8925414Y-1432695D01*
X8922309Y-1433527D01*
X8922308Y-1433526D01*
X8892892Y-1441410D01*
X8892891Y-1441410D01*
X8892889Y-1441410D01*
X8892889Y-1441411D01*
X8886351Y-1445185D01*
X8866506Y-1456642D01*
X8863722Y-1458248D01*
X8843942Y-1466443D01*
X8836305Y-1474078D01*
X8830719Y-1477304D01*
X8829609Y-1477944D01*
X8777944Y-1529609D01*
X8777303Y-1530718D01*
X8777304Y-1530719D01*
X8774078Y-1536306D01*
X8766443Y-1543942D01*
X8758251Y-1563715D01*
X8756643Y-1566502D01*
X8756642Y-1566506D01*
X8741410Y-1592891D01*
X8741410Y-1592892D01*
X8733526Y-1622308D01*
X8733527Y-1622309D01*
X8732696Y-1625412D01*
X8724500Y-1645200D01*
X8724500Y-1656000D01*
X8722831Y-1662230D01*
X8722829Y-1662231D01*
X8722500Y-1663461D01*
X8722500Y-1736534D01*
X8722829Y-1737762D01*
X8722830Y-1737767D01*
X8724500Y-1743999D01*
X8724500Y-1754800D01*
X8732693Y-1774581D01*
X8733525Y-1777684D01*
X8733527Y-1777689D01*
X8737204Y-1791410D01*
X8741411Y-1807111D01*
X8758248Y-1836274D01*
X8766443Y-1856058D01*
X8774078Y-1863693D01*
X8777303Y-1869279D01*
X8777940Y-1870383D01*
X8777942Y-1870385D01*
X8777944Y-1870389D01*
X8777947Y-1870392D01*
X8783148Y-1875593D01*
X8797500Y-1910241D01*
X8797500Y-2364016D01*
X8794966Y-2370132D01*
X8795831Y-2376697D01*
X8788042Y-2386847D01*
X8783148Y-2398664D01*
X8777032Y-2401197D01*
X8773001Y-2406451D01*
X8760316Y-2408121D01*
X8748500Y-2413016D01*
X8742383Y-2410482D01*
X8735819Y-2411347D01*
X8725668Y-2403558D01*
X8713852Y-2398664D01*
X8706065Y-2388517D01*
X8693357Y-2366507D01*
X8693357Y-2366506D01*
X8690521Y-2360756D01*
X8683557Y-2343943D01*
X8683557Y-2343942D01*
X8680480Y-2340865D01*
X8672695Y-2330718D01*
X8672056Y-2329611D01*
X8620389Y-2277944D01*
X8620385Y-2277941D01*
X8620383Y-2277940D01*
X8619280Y-2277303D01*
X8613693Y-2274078D01*
X8606058Y-2266443D01*
X8586274Y-2258248D01*
X8557111Y-2241411D01*
X8557108Y-2241410D01*
X8527689Y-2233527D01*
X8527689Y-2233526D01*
X8524579Y-2232692D01*
X8504800Y-2224500D01*
X8494000Y-2224500D01*
X8487767Y-2222830D01*
X8487766Y-2222829D01*
X8487762Y-2222829D01*
X8486535Y-2222500D01*
X8486534Y-2222500D01*
X8413466Y-2222500D01*
X8413465Y-2222500D01*
X8412238Y-2222829D01*
X8406002Y-2224500D01*
X8395200Y-2224500D01*
X8375414Y-2232695D01*
X8372309Y-2233527D01*
X8372308Y-2233526D01*
X8342892Y-2241410D01*
X8342891Y-2241410D01*
X8342889Y-2241410D01*
X8342889Y-2241411D01*
X8336351Y-2245185D01*
X8316506Y-2256642D01*
X8313722Y-2258248D01*
X8293942Y-2266443D01*
X8286305Y-2274078D01*
X8280719Y-2277304D01*
X8279609Y-2277944D01*
X8227944Y-2329609D01*
X8227303Y-2330718D01*
X8227304Y-2330719D01*
X8225683Y-2333526D01*
X8224078Y-2336306D01*
X8216443Y-2343942D01*
X8208251Y-2363715D01*
X8206643Y-2366502D01*
X8206642Y-2366506D01*
X8191410Y-2392891D01*
X8191410Y-2392892D01*
X8183526Y-2422308D01*
X8183527Y-2422309D01*
X8182696Y-2425412D01*
X8174500Y-2445200D01*
X8174500Y-2456000D01*
X8172831Y-2462230D01*
X8172829Y-2462231D01*
X8172500Y-2463461D01*
X8172500Y-2536534D01*
X8172829Y-2537762D01*
X8172830Y-2537767D01*
X8174500Y-2544000D01*
X8174500Y-2554800D01*
X8182693Y-2574579D01*
X8183525Y-2577685D01*
X8183527Y-2577689D01*
X8190123Y-2602304D01*
X8191411Y-2607111D01*
X8208248Y-2636274D01*
X8216443Y-2656058D01*
X8224078Y-2663693D01*
X8227303Y-2669279D01*
X8227940Y-2670383D01*
X8227942Y-2670385D01*
X8227944Y-2670389D01*
X8227947Y-2670392D01*
X8233148Y-2675593D01*
X8247500Y-2710241D01*
X8247500Y-3048500D01*
X8233148Y-3083148D01*
X8198500Y-3097500D01*
X7838708Y-3097500D01*
X7837249Y-3096921D01*
X7798512Y-3097500D01*
X7418896Y-3097500D01*
X7384248Y-3083148D01*
X7369896Y-3048500D01*
X7377000Y-3031349D01*
X7377000Y-2117100D01*
X6423000Y-2117100D01*
X6423000Y-2798500D01*
X6408648Y-2833148D01*
X6374000Y-2847500D01*
X5610241Y-2847500D01*
X5578989Y-2836240D01*
X5577220Y-2834775D01*
X5570389Y-2827944D01*
X5565704Y-2825239D01*
X5562527Y-2822608D01*
X5562094Y-2821790D01*
X5559132Y-2819517D01*
X5556058Y-2816443D01*
X5539234Y-2809474D01*
X5533493Y-2806642D01*
X5507111Y-2791411D01*
X5507108Y-2791410D01*
X5477689Y-2783527D01*
X5477689Y-2783526D01*
X5474579Y-2782692D01*
X5454800Y-2774500D01*
X5444000Y-2774500D01*
X5437767Y-2772830D01*
X5437766Y-2772829D01*
X5437762Y-2772829D01*
X5436535Y-2772500D01*
X5436534Y-2772500D01*
X5363466Y-2772500D01*
X5363465Y-2772500D01*
X5362238Y-2772829D01*
X5356002Y-2774500D01*
X5345200Y-2774500D01*
X5325414Y-2782695D01*
X5322309Y-2783527D01*
X5322308Y-2783526D01*
X5292892Y-2791410D01*
X5292891Y-2791410D01*
X5292889Y-2791410D01*
X5292889Y-2791411D01*
X5286351Y-2795185D01*
X5266506Y-2806642D01*
X5263722Y-2808248D01*
X5243942Y-2816443D01*
X5236305Y-2824078D01*
X5230719Y-2827304D01*
X5229609Y-2827944D01*
X5177944Y-2879609D01*
X5177303Y-2880718D01*
X5177304Y-2880719D01*
X5174078Y-2886306D01*
X5166443Y-2893942D01*
X5158251Y-2913715D01*
X5156643Y-2916502D01*
X5156642Y-2916506D01*
X5141410Y-2942891D01*
X5141410Y-2942892D01*
X5133526Y-2972308D01*
X5133527Y-2972309D01*
X5132940Y-2974500D01*
X5132696Y-2975412D01*
X5124500Y-2995200D01*
X5124500Y-3006000D01*
X5122831Y-3012230D01*
X5122829Y-3012231D01*
X5122500Y-3013461D01*
X5122500Y-3086534D01*
X5122829Y-3087762D01*
X5122830Y-3087767D01*
X5124500Y-3094000D01*
X5124500Y-3104800D01*
X5132693Y-3124579D01*
X5133525Y-3127685D01*
X5133527Y-3127689D01*
X5137601Y-3142892D01*
X5141411Y-3157111D01*
X5158248Y-3186274D01*
X5166443Y-3206058D01*
X5174078Y-3213693D01*
X5177303Y-3219279D01*
X5177940Y-3220383D01*
X5177941Y-3220385D01*
X5177944Y-3220389D01*
X5229611Y-3272056D01*
X5236306Y-3275921D01*
X5243942Y-3283557D01*
X5263721Y-3291749D01*
X5266504Y-3293356D01*
X5266506Y-3293357D01*
X5292885Y-3308587D01*
X5292886Y-3308587D01*
X5292889Y-3308589D01*
X5325412Y-3317303D01*
X5345200Y-3325500D01*
X5356002Y-3325500D01*
X5362234Y-3327170D01*
X5362238Y-3327171D01*
X5363465Y-3327500D01*
X5363466Y-3327500D01*
X5436535Y-3327500D01*
X5437762Y-3327171D01*
X5437766Y-3327170D01*
X5443998Y-3325500D01*
X5454800Y-3325500D01*
X5474587Y-3317303D01*
X5507111Y-3308589D01*
X5507113Y-3308587D01*
X5507115Y-3308587D01*
X5533491Y-3293358D01*
X5533491Y-3293357D01*
X5536274Y-3291751D01*
X5556058Y-3283557D01*
X5563692Y-3275921D01*
X5569280Y-3272696D01*
X5569279Y-3272696D01*
X5570389Y-3272056D01*
X5575593Y-3266852D01*
X5610241Y-3252500D01*
X6398500Y-3252500D01*
X6433148Y-3266852D01*
X6447500Y-3301500D01*
X6447500Y-3340280D01*
X6478329Y-3414707D01*
X6478330Y-3414708D01*
X6478331Y-3414710D01*
X6535290Y-3471669D01*
X6535291Y-3471669D01*
X6535293Y-3471671D01*
X6609720Y-3502500D01*
X6690280Y-3502500D01*
X7552230Y-3502500D01*
X7586878Y-3516852D01*
X7601225Y-3550768D01*
X7604371Y-3761250D01*
X7593864Y-3792308D01*
X7592070Y-3794584D01*
X7587944Y-3798711D01*
X7585543Y-3802867D01*
X7583357Y-3805643D01*
X7582442Y-3806155D01*
X7579525Y-3809957D01*
X7576448Y-3813035D01*
X7576441Y-3813044D01*
X7569473Y-3829863D01*
X7566642Y-3835606D01*
X7551410Y-3861991D01*
X7551410Y-3861992D01*
X7543526Y-3891408D01*
X7543527Y-3891409D01*
X7542696Y-3894512D01*
X7534500Y-3914300D01*
X7534500Y-3925100D01*
X7532831Y-3931330D01*
X7532829Y-3931331D01*
X7532500Y-3932561D01*
X7532500Y-4005634D01*
X7532829Y-4006862D01*
X7532830Y-4006867D01*
X7534500Y-4013099D01*
X7534500Y-4023900D01*
X7542693Y-4043681D01*
X7543525Y-4046784D01*
X7543527Y-4046789D01*
X7551397Y-4076158D01*
X7551411Y-4076211D01*
X7568248Y-4105374D01*
X7576443Y-4125158D01*
X7584078Y-4132793D01*
X7587303Y-4138379D01*
X7587940Y-4139483D01*
X7587941Y-4139485D01*
X7587944Y-4139489D01*
X7639611Y-4191156D01*
X7646306Y-4195021D01*
X7653942Y-4202657D01*
X7673721Y-4210849D01*
X7676504Y-4212456D01*
X7676506Y-4212457D01*
X7702885Y-4227687D01*
X7702886Y-4227687D01*
X7702889Y-4227689D01*
X7735412Y-4236403D01*
X7755200Y-4244600D01*
X7766002Y-4244600D01*
X7772234Y-4246270D01*
X7772238Y-4246271D01*
X7773465Y-4246600D01*
X7773466Y-4246600D01*
X7846535Y-4246600D01*
X7847762Y-4246271D01*
X7847766Y-4246270D01*
X7853998Y-4244600D01*
X7864800Y-4244600D01*
X7884587Y-4236403D01*
X7917111Y-4227689D01*
X7917113Y-4227687D01*
X7917115Y-4227687D01*
X7943491Y-4212458D01*
X7943491Y-4212457D01*
X7946274Y-4210851D01*
X7966058Y-4202657D01*
X7973692Y-4195021D01*
X7979280Y-4191796D01*
X7979279Y-4191796D01*
X7980389Y-4191156D01*
X8032056Y-4139489D01*
X8035921Y-4132793D01*
X8043557Y-4125158D01*
X8051751Y-4105374D01*
X8053358Y-4102591D01*
X8068587Y-4076215D01*
X8068588Y-4076212D01*
X8068589Y-4076211D01*
X8077303Y-4043687D01*
X8085500Y-4023900D01*
X8085500Y-4013098D01*
X8087500Y-4005634D01*
X8087500Y-3932566D01*
X8087500Y-3932564D01*
X8087499Y-3932561D01*
X8087170Y-3931332D01*
X8087170Y-3931333D01*
X8087169Y-3931332D01*
X8085500Y-3925101D01*
X8085500Y-3914300D01*
X8077303Y-3894512D01*
X8068589Y-3861989D01*
X8065502Y-3856642D01*
X8053357Y-3835606D01*
X8051750Y-3832822D01*
X8043557Y-3813042D01*
X8035921Y-3805406D01*
X8032056Y-3798711D01*
X8032053Y-3798708D01*
X8032052Y-3798706D01*
X8023690Y-3790344D01*
X8009343Y-3756428D01*
X8009221Y-3748292D01*
X8006292Y-3552231D01*
X8020125Y-3517373D01*
X8054555Y-3502505D01*
X8055287Y-3502500D01*
X8490278Y-3502500D01*
X8490280Y-3502500D01*
X8564707Y-3471671D01*
X8564709Y-3471669D01*
X8564710Y-3471669D01*
X8621669Y-3414710D01*
X8621669Y-3414709D01*
X8621671Y-3414707D01*
X8652500Y-3340280D01*
X8652500Y-2710241D01*
X8663760Y-2678989D01*
X8665224Y-2677220D01*
X8672056Y-2670389D01*
X8674758Y-2665707D01*
X8677392Y-2662527D01*
X8678210Y-2662094D01*
X8680484Y-2659130D01*
X8683557Y-2656058D01*
X8683698Y-2655719D01*
X8690521Y-2639244D01*
X8693358Y-2633490D01*
X8706066Y-2611481D01*
X8735820Y-2588652D01*
X8773002Y-2593549D01*
X8795831Y-2623303D01*
X8797500Y-2635983D01*
X8797500Y-5396158D01*
X8783148Y-5430806D01*
X8777944Y-5436009D01*
X8777302Y-5437122D01*
X8769523Y-5447261D01*
X8766442Y-5450342D01*
X8766441Y-5450344D01*
X8759473Y-5467163D01*
X8756642Y-5472906D01*
X8741410Y-5499291D01*
X8741410Y-5499292D01*
X8733526Y-5528708D01*
X8733527Y-5528709D01*
X8732696Y-5531812D01*
X8724500Y-5551600D01*
X8724500Y-5562400D01*
X8722831Y-5568630D01*
X8722829Y-5568631D01*
X8722500Y-5569861D01*
X8722500Y-5642934D01*
X8722829Y-5644162D01*
X8722830Y-5644167D01*
X8724500Y-5650399D01*
X8724500Y-5661200D01*
X8732693Y-5680981D01*
X8733525Y-5684084D01*
X8733526Y-5684086D01*
X8741411Y-5713511D01*
X8758248Y-5742674D01*
X8766443Y-5762458D01*
X8774078Y-5770093D01*
X8777303Y-5775679D01*
X8777940Y-5776783D01*
X8777942Y-5776785D01*
X8777944Y-5776789D01*
X8777947Y-5776792D01*
X8783148Y-5781993D01*
X8797500Y-5816641D01*
X8797500Y-9490280D01*
X8828329Y-9564707D01*
X8828330Y-9564708D01*
X8828331Y-9564710D01*
X8885290Y-9621669D01*
X8885291Y-9621669D01*
X8885293Y-9621671D01*
X8959720Y-9652500D01*
X8964179Y-9654347D01*
X8963766Y-9655342D01*
X8990608Y-9673277D01*
X8997924Y-9710060D01*
X8977089Y-9741242D01*
X8949866Y-9749500D01*
X299500Y-9749500D01*
X264852Y-9735148D01*
X250500Y-9700500D01*
X250500Y-6563466D01*
X3822500Y-6563466D01*
X3822500Y-6564793D01*
X3822500Y-6636534D01*
X3822829Y-6637762D01*
X3822830Y-6637767D01*
X3824500Y-6644000D01*
X3824500Y-6654800D01*
X3832693Y-6674579D01*
X3833525Y-6677685D01*
X3833527Y-6677689D01*
X3841410Y-6707108D01*
X3841411Y-6707111D01*
X3858248Y-6736274D01*
X3866443Y-6756058D01*
X3874078Y-6763693D01*
X3877303Y-6769279D01*
X3877940Y-6770383D01*
X3877941Y-6770385D01*
X3877944Y-6770389D01*
X3929611Y-6822056D01*
X3936306Y-6825921D01*
X3943942Y-6833557D01*
X3963721Y-6841749D01*
X3966504Y-6843356D01*
X3966506Y-6843357D01*
X3992885Y-6858587D01*
X3992886Y-6858587D01*
X3992889Y-6858589D01*
X4025412Y-6867303D01*
X4045200Y-6875500D01*
X4056002Y-6875500D01*
X4062234Y-6877170D01*
X4062238Y-6877171D01*
X4063465Y-6877500D01*
X4063466Y-6877500D01*
X4136535Y-6877500D01*
X4137762Y-6877171D01*
X4137766Y-6877170D01*
X4143998Y-6875500D01*
X4154800Y-6875500D01*
X4174587Y-6867303D01*
X4207111Y-6858589D01*
X4207113Y-6858587D01*
X4207115Y-6858587D01*
X4233491Y-6843358D01*
X4233491Y-6843357D01*
X4236274Y-6841751D01*
X4256058Y-6833557D01*
X4263692Y-6825921D01*
X4269280Y-6822696D01*
X4269279Y-6822696D01*
X4270389Y-6822056D01*
X4275593Y-6816852D01*
X4310241Y-6802500D01*
X5498500Y-6802500D01*
X5533148Y-6816852D01*
X5547500Y-6851500D01*
X5547500Y-8889758D01*
X5536239Y-8921011D01*
X5534769Y-8922785D01*
X5527944Y-8929611D01*
X5525241Y-8934290D01*
X5522608Y-8937471D01*
X5521793Y-8937901D01*
X5519523Y-8940861D01*
X5516442Y-8943942D01*
X5516441Y-8943944D01*
X5509473Y-8960763D01*
X5506642Y-8966506D01*
X5491410Y-8992891D01*
X5491410Y-8992892D01*
X5483526Y-9022308D01*
X5483527Y-9022309D01*
X5482696Y-9025412D01*
X5474500Y-9045200D01*
X5474500Y-9056000D01*
X5472831Y-9062230D01*
X5472829Y-9062231D01*
X5472500Y-9063461D01*
X5472500Y-9136534D01*
X5472829Y-9137762D01*
X5472830Y-9137767D01*
X5474500Y-9143999D01*
X5474500Y-9154800D01*
X5482693Y-9174581D01*
X5483525Y-9177684D01*
X5483527Y-9177689D01*
X5491410Y-9207108D01*
X5491411Y-9207111D01*
X5508248Y-9236274D01*
X5516443Y-9256058D01*
X5524078Y-9263693D01*
X5527303Y-9269279D01*
X5527940Y-9270383D01*
X5527941Y-9270385D01*
X5527944Y-9270389D01*
X5579611Y-9322056D01*
X5586306Y-9325921D01*
X5593942Y-9333557D01*
X5613721Y-9341749D01*
X5616504Y-9343356D01*
X5616506Y-9343357D01*
X5642885Y-9358587D01*
X5642886Y-9358587D01*
X5642889Y-9358589D01*
X5675412Y-9367303D01*
X5695200Y-9375500D01*
X5706002Y-9375500D01*
X5712234Y-9377170D01*
X5712238Y-9377171D01*
X5713465Y-9377500D01*
X5713466Y-9377500D01*
X5786535Y-9377500D01*
X5787762Y-9377171D01*
X5787766Y-9377170D01*
X5793998Y-9375500D01*
X5804800Y-9375500D01*
X5824587Y-9367303D01*
X5857111Y-9358589D01*
X5857113Y-9358587D01*
X5857115Y-9358587D01*
X5883491Y-9343358D01*
X5883491Y-9343357D01*
X5886274Y-9341751D01*
X5906058Y-9333557D01*
X5913692Y-9325921D01*
X5919280Y-9322696D01*
X5919279Y-9322696D01*
X5920389Y-9322056D01*
X5972056Y-9270389D01*
X5975921Y-9263693D01*
X5983557Y-9256058D01*
X5991751Y-9236274D01*
X5993358Y-9233491D01*
X6008587Y-9207115D01*
X6008588Y-9207112D01*
X6008589Y-9207111D01*
X6017303Y-9174587D01*
X6025500Y-9154800D01*
X6025500Y-9143998D01*
X6027500Y-9136534D01*
X6027500Y-9063466D01*
X6027500Y-9063464D01*
X6027499Y-9063461D01*
X6027170Y-9062232D01*
X6027170Y-9062233D01*
X6027169Y-9062232D01*
X6025500Y-9056001D01*
X6025500Y-9045200D01*
X6017303Y-9025412D01*
X6008589Y-8992889D01*
X5991751Y-8963725D01*
X5983557Y-8943942D01*
X5975921Y-8936306D01*
X5972056Y-8929611D01*
X5972053Y-8929608D01*
X5972052Y-8929606D01*
X5966852Y-8924406D01*
X5952500Y-8889758D01*
X5952500Y-6559722D01*
X5952499Y-6559718D01*
X5951589Y-6557521D01*
X5933500Y-6513850D01*
X5933500Y-6476349D01*
X5960018Y-6449830D01*
X5978770Y-6446100D01*
X6852000Y-6446100D01*
X6863852Y-6434248D01*
X6898500Y-6419896D01*
X6933148Y-6434248D01*
X6947500Y-6468896D01*
X6947500Y-7039758D01*
X6936239Y-7071011D01*
X6934769Y-7072785D01*
X6927944Y-7079611D01*
X6925241Y-7084290D01*
X6922608Y-7087471D01*
X6921793Y-7087901D01*
X6919523Y-7090861D01*
X6916442Y-7093942D01*
X6916441Y-7093944D01*
X6909473Y-7110763D01*
X6906642Y-7116506D01*
X6891410Y-7142891D01*
X6891410Y-7142892D01*
X6883526Y-7172308D01*
X6883527Y-7172309D01*
X6882696Y-7175412D01*
X6874500Y-7195200D01*
X6874500Y-7206000D01*
X6872831Y-7212230D01*
X6872829Y-7212231D01*
X6872500Y-7213461D01*
X6872500Y-7286534D01*
X6872829Y-7287762D01*
X6872830Y-7287767D01*
X6874500Y-7293999D01*
X6874500Y-7304800D01*
X6882693Y-7324581D01*
X6883525Y-7327684D01*
X6883527Y-7327689D01*
X6889826Y-7351197D01*
X6891411Y-7357111D01*
X6908248Y-7386274D01*
X6916443Y-7406058D01*
X6924078Y-7413693D01*
X6927303Y-7419279D01*
X6927940Y-7420383D01*
X6927941Y-7420385D01*
X6927944Y-7420389D01*
X6979611Y-7472056D01*
X6986306Y-7475921D01*
X6993942Y-7483557D01*
X7013721Y-7491749D01*
X7016504Y-7493356D01*
X7016506Y-7493357D01*
X7042885Y-7508587D01*
X7042886Y-7508587D01*
X7042889Y-7508589D01*
X7075412Y-7517303D01*
X7095200Y-7525500D01*
X7106002Y-7525500D01*
X7112234Y-7527170D01*
X7112238Y-7527171D01*
X7113465Y-7527500D01*
X7113466Y-7527500D01*
X7186535Y-7527500D01*
X7187762Y-7527171D01*
X7187766Y-7527170D01*
X7193998Y-7525500D01*
X7204800Y-7525500D01*
X7224587Y-7517303D01*
X7257111Y-7508589D01*
X7257113Y-7508587D01*
X7257115Y-7508587D01*
X7283491Y-7493358D01*
X7283491Y-7493357D01*
X7286274Y-7491751D01*
X7306058Y-7483557D01*
X7313692Y-7475921D01*
X7319280Y-7472696D01*
X7319279Y-7472696D01*
X7320389Y-7472056D01*
X7372056Y-7420389D01*
X7375921Y-7413693D01*
X7383557Y-7406058D01*
X7391751Y-7386274D01*
X7393358Y-7383491D01*
X7408587Y-7357115D01*
X7408588Y-7357112D01*
X7408589Y-7357111D01*
X7417303Y-7324587D01*
X7425500Y-7304800D01*
X7425500Y-7293998D01*
X7427500Y-7286534D01*
X7427500Y-7213466D01*
X7427500Y-7213464D01*
X7427499Y-7213461D01*
X7427170Y-7212232D01*
X7427170Y-7212233D01*
X7427169Y-7212232D01*
X7425500Y-7206001D01*
X7425500Y-7195200D01*
X7417303Y-7175412D01*
X7408589Y-7142889D01*
X7391751Y-7113725D01*
X7383557Y-7093942D01*
X7375921Y-7086306D01*
X7372056Y-7079611D01*
X7372053Y-7079608D01*
X7372052Y-7079606D01*
X7366852Y-7074406D01*
X7352500Y-7039758D01*
X7352500Y-4009722D01*
X7352499Y-4009718D01*
X7351316Y-4006862D01*
X7321671Y-3935293D01*
X7321669Y-3935291D01*
X7321669Y-3935290D01*
X7264710Y-3878331D01*
X7264708Y-3878330D01*
X7264707Y-3878329D01*
X7212348Y-3856641D01*
X7190281Y-3847500D01*
X7190280Y-3847500D01*
X7010241Y-3847500D01*
X6978989Y-3836240D01*
X6977220Y-3834775D01*
X6970389Y-3827944D01*
X6965704Y-3825239D01*
X6962527Y-3822608D01*
X6962094Y-3821790D01*
X6959132Y-3819517D01*
X6956058Y-3816443D01*
X6939234Y-3809474D01*
X6933493Y-3806642D01*
X6907111Y-3791411D01*
X6907108Y-3791410D01*
X6877689Y-3783527D01*
X6877689Y-3783526D01*
X6874579Y-3782692D01*
X6854800Y-3774500D01*
X6844000Y-3774500D01*
X6837767Y-3772830D01*
X6837766Y-3772829D01*
X6837762Y-3772829D01*
X6836535Y-3772500D01*
X6836534Y-3772500D01*
X6763466Y-3772500D01*
X6763465Y-3772500D01*
X6762238Y-3772829D01*
X6756002Y-3774500D01*
X6745200Y-3774500D01*
X6725414Y-3782695D01*
X6722309Y-3783527D01*
X6722308Y-3783526D01*
X6692892Y-3791410D01*
X6692891Y-3791410D01*
X6692889Y-3791410D01*
X6692889Y-3791411D01*
X6691335Y-3792308D01*
X6666506Y-3806642D01*
X6663722Y-3808248D01*
X6643942Y-3816443D01*
X6636306Y-3824078D01*
X6632944Y-3826018D01*
X6630719Y-3827304D01*
X6629609Y-3827944D01*
X6577944Y-3879609D01*
X6577303Y-3880718D01*
X6577304Y-3880719D01*
X6574078Y-3886306D01*
X6566443Y-3893942D01*
X6558251Y-3913715D01*
X6556643Y-3916502D01*
X6556642Y-3916506D01*
X6541410Y-3942891D01*
X6541410Y-3942892D01*
X6533526Y-3972308D01*
X6533527Y-3972309D01*
X6532696Y-3975412D01*
X6524500Y-3995200D01*
X6524500Y-4006000D01*
X6522831Y-4012230D01*
X6522829Y-4012231D01*
X6522500Y-4013461D01*
X6522500Y-4086534D01*
X6522829Y-4087762D01*
X6522830Y-4087767D01*
X6524500Y-4094000D01*
X6524500Y-4104800D01*
X6532693Y-4124579D01*
X6533525Y-4127685D01*
X6533527Y-4127689D01*
X6541410Y-4157108D01*
X6541411Y-4157111D01*
X6558248Y-4186274D01*
X6566443Y-4206058D01*
X6574078Y-4213693D01*
X6577303Y-4219279D01*
X6577940Y-4220383D01*
X6577941Y-4220385D01*
X6577944Y-4220389D01*
X6629611Y-4272056D01*
X6636306Y-4275921D01*
X6643942Y-4283557D01*
X6663722Y-4291750D01*
X6666506Y-4293357D01*
X6692885Y-4308587D01*
X6692886Y-4308587D01*
X6692889Y-4308589D01*
X6725412Y-4317303D01*
X6745200Y-4325500D01*
X6756002Y-4325500D01*
X6762234Y-4327170D01*
X6762238Y-4327171D01*
X6763465Y-4327500D01*
X6763466Y-4327500D01*
X6836535Y-4327500D01*
X6837762Y-4327171D01*
X6837766Y-4327170D01*
X6843998Y-4325500D01*
X6854800Y-4325500D01*
X6874587Y-4317303D01*
X6885820Y-4314293D01*
X6923001Y-4319189D01*
X6945831Y-4348943D01*
X6947500Y-4361624D01*
X6947500Y-5469304D01*
X6933148Y-5503952D01*
X6898500Y-5518304D01*
X6863852Y-5503952D01*
X6852000Y-5492100D01*
X5948000Y-5492100D01*
X5948000Y-6393325D01*
X5933648Y-6427973D01*
X5899000Y-6442325D01*
X5869365Y-6430049D01*
X5868723Y-6431012D01*
X5864708Y-6428330D01*
X5864707Y-6428329D01*
X5821110Y-6410270D01*
X5790281Y-6397500D01*
X5790280Y-6397500D01*
X4310241Y-6397500D01*
X4278989Y-6386240D01*
X4277220Y-6384775D01*
X4270389Y-6377944D01*
X4265704Y-6375239D01*
X4262527Y-6372608D01*
X4262094Y-6371790D01*
X4259132Y-6369517D01*
X4256058Y-6366443D01*
X4239234Y-6359474D01*
X4233493Y-6356642D01*
X4207111Y-6341411D01*
X4207108Y-6341410D01*
X4177689Y-6333527D01*
X4177689Y-6333526D01*
X4174579Y-6332692D01*
X4154800Y-6324500D01*
X4144000Y-6324500D01*
X4137767Y-6322830D01*
X4137766Y-6322829D01*
X4137762Y-6322829D01*
X4136535Y-6322500D01*
X4136534Y-6322500D01*
X4063466Y-6322500D01*
X4063465Y-6322500D01*
X4062238Y-6322829D01*
X4056002Y-6324500D01*
X4045200Y-6324500D01*
X4025414Y-6332695D01*
X4022309Y-6333527D01*
X4022308Y-6333526D01*
X3992892Y-6341410D01*
X3992891Y-6341410D01*
X3992889Y-6341410D01*
X3992889Y-6341411D01*
X3986351Y-6345185D01*
X3966506Y-6356642D01*
X3963722Y-6358248D01*
X3943942Y-6366443D01*
X3936305Y-6374078D01*
X3930719Y-6377304D01*
X3929609Y-6377944D01*
X3877944Y-6429609D01*
X3877303Y-6430718D01*
X3877304Y-6430719D01*
X3874078Y-6436306D01*
X3866443Y-6443942D01*
X3858251Y-6463715D01*
X3856643Y-6466502D01*
X3856642Y-6466506D01*
X3841410Y-6492891D01*
X3841410Y-6492892D01*
X3833526Y-6522312D01*
X3831467Y-6528377D01*
X3824500Y-6545199D01*
X3824500Y-6549549D01*
X3823450Y-6557521D01*
X3823667Y-6558547D01*
X3823319Y-6560407D01*
X3822500Y-6563466D01*
X250500Y-6563466D01*
X250500Y-4713466D01*
X972500Y-4713466D01*
X972500Y-4714793D01*
X972500Y-4786534D01*
X972829Y-4787762D01*
X972830Y-4787767D01*
X974500Y-4794000D01*
X974500Y-4804800D01*
X982693Y-4824579D01*
X983525Y-4827685D01*
X983527Y-4827689D01*
X987726Y-4843358D01*
X991411Y-4857111D01*
X1008248Y-4886274D01*
X1016443Y-4906058D01*
X1024078Y-4913693D01*
X1027303Y-4919279D01*
X1027940Y-4920383D01*
X1027941Y-4920385D01*
X1027944Y-4920389D01*
X1079611Y-4972056D01*
X1086306Y-4975921D01*
X1093942Y-4983557D01*
X1113721Y-4991749D01*
X1116504Y-4993356D01*
X1116506Y-4993357D01*
X1142885Y-5008587D01*
X1142886Y-5008587D01*
X1142889Y-5008589D01*
X1175412Y-5017303D01*
X1195200Y-5025500D01*
X1206002Y-5025500D01*
X1212234Y-5027170D01*
X1212238Y-5027171D01*
X1213465Y-5027500D01*
X1213466Y-5027500D01*
X1286535Y-5027500D01*
X1287762Y-5027171D01*
X1287766Y-5027170D01*
X1293998Y-5025500D01*
X1304800Y-5025500D01*
X1324587Y-5017303D01*
X1357111Y-5008589D01*
X1357113Y-5008587D01*
X1357115Y-5008587D01*
X1383491Y-4993358D01*
X1383491Y-4993357D01*
X1386274Y-4991751D01*
X1406058Y-4983557D01*
X1413692Y-4975921D01*
X1419280Y-4972696D01*
X1419279Y-4972696D01*
X1420389Y-4972056D01*
X1425593Y-4966852D01*
X1460241Y-4952500D01*
X4862067Y-4952500D01*
X4864256Y-4953350D01*
X4902289Y-4952500D01*
X4940280Y-4952500D01*
X4940283Y-4952498D01*
X4940878Y-4952380D01*
X4941231Y-4952341D01*
X4942039Y-4952162D01*
X4942059Y-4952157D01*
X4944189Y-4951684D01*
X4944190Y-4951684D01*
X4944195Y-4951683D01*
X4944792Y-4951550D01*
X4944796Y-4951550D01*
X4944799Y-4951548D01*
X4944802Y-4951548D01*
X4978198Y-4936830D01*
X4979128Y-4936420D01*
X4980037Y-4936030D01*
X5014707Y-4921671D01*
X5014711Y-4921666D01*
X5015208Y-4921335D01*
X5015229Y-4921321D01*
X5017040Y-4920111D01*
X5017099Y-4920071D01*
X5017754Y-4919632D01*
X5018011Y-4919417D01*
X5018507Y-4919068D01*
X5018515Y-4919065D01*
X5044800Y-4891577D01*
X5071671Y-4864707D01*
X5072567Y-4862540D01*
X5074187Y-4860847D01*
X5074186Y-4860847D01*
X5074192Y-4860842D01*
X5087778Y-4825846D01*
X5088154Y-4824913D01*
X5100532Y-4795030D01*
X5102500Y-4790280D01*
X5102500Y-4790271D01*
X5102622Y-4789663D01*
X5102624Y-4789653D01*
X5103057Y-4787477D01*
X5103057Y-4787476D01*
X5103058Y-4787473D01*
X5103211Y-4786702D01*
X5103241Y-4786363D01*
X5103350Y-4785742D01*
X5102512Y-4748261D01*
X5102500Y-4747724D01*
X5102500Y-4709720D01*
X5101601Y-4707551D01*
X5087171Y-4062075D01*
X5100232Y-4028436D01*
X5100101Y-4028336D01*
X5100445Y-4027886D01*
X5100745Y-4027116D01*
X5101473Y-4026371D01*
X5102056Y-4025789D01*
X5102691Y-4024688D01*
X5110482Y-4014531D01*
X5113557Y-4011458D01*
X5115459Y-4006867D01*
X5120521Y-3994644D01*
X5123358Y-3988891D01*
X5138587Y-3962515D01*
X5138588Y-3962512D01*
X5138589Y-3962511D01*
X5147303Y-3929987D01*
X5155500Y-3910200D01*
X5155500Y-3899398D01*
X5157500Y-3891934D01*
X5157500Y-3818866D01*
X5157500Y-3818864D01*
X5157499Y-3818861D01*
X5157170Y-3817632D01*
X5157170Y-3817633D01*
X5157169Y-3817632D01*
X5155500Y-3811401D01*
X5155500Y-3800600D01*
X5147303Y-3780812D01*
X5138589Y-3748289D01*
X5133772Y-3739945D01*
X5123357Y-3721906D01*
X5121750Y-3719122D01*
X5113557Y-3699342D01*
X5105921Y-3691706D01*
X5102056Y-3685011D01*
X5050389Y-3633344D01*
X5050385Y-3633341D01*
X5050383Y-3633340D01*
X5049280Y-3632703D01*
X5043693Y-3629478D01*
X5036058Y-3621843D01*
X5016274Y-3613648D01*
X4987111Y-3596811D01*
X4987108Y-3596810D01*
X4957689Y-3588927D01*
X4957689Y-3588926D01*
X4954579Y-3588092D01*
X4934800Y-3579900D01*
X4924000Y-3579900D01*
X4917767Y-3578230D01*
X4917766Y-3578229D01*
X4917762Y-3578229D01*
X4916535Y-3577900D01*
X4916534Y-3577900D01*
X4843466Y-3577900D01*
X4843465Y-3577900D01*
X4842238Y-3578229D01*
X4836002Y-3579900D01*
X4825200Y-3579900D01*
X4805414Y-3588095D01*
X4802309Y-3588927D01*
X4802308Y-3588926D01*
X4772892Y-3596810D01*
X4772891Y-3596810D01*
X4772889Y-3596810D01*
X4772889Y-3596811D01*
X4766705Y-3600381D01*
X4746506Y-3612042D01*
X4743722Y-3613648D01*
X4723942Y-3621843D01*
X4716305Y-3629478D01*
X4710719Y-3632704D01*
X4709609Y-3633344D01*
X4657944Y-3685009D01*
X4657303Y-3686118D01*
X4657304Y-3686119D01*
X4654078Y-3691706D01*
X4646443Y-3699342D01*
X4638251Y-3719115D01*
X4636643Y-3721902D01*
X4636642Y-3721906D01*
X4621410Y-3748291D01*
X4621410Y-3748292D01*
X4613526Y-3777708D01*
X4613527Y-3777709D01*
X4612696Y-3780812D01*
X4604500Y-3800600D01*
X4604500Y-3811400D01*
X4602831Y-3817630D01*
X4602829Y-3817631D01*
X4602500Y-3818861D01*
X4602500Y-3891934D01*
X4602829Y-3893162D01*
X4602830Y-3893167D01*
X4604500Y-3899399D01*
X4604500Y-3910200D01*
X4612693Y-3929981D01*
X4613525Y-3933084D01*
X4613526Y-3933086D01*
X4621411Y-3962511D01*
X4638248Y-3991674D01*
X4646443Y-4011458D01*
X4654078Y-4019093D01*
X4657303Y-4024679D01*
X4657940Y-4025783D01*
X4657942Y-4025785D01*
X4657944Y-4025789D01*
X4657947Y-4025792D01*
X4667890Y-4035735D01*
X4682230Y-4069288D01*
X4691802Y-4497405D01*
X4678228Y-4532365D01*
X4643909Y-4547488D01*
X4642814Y-4547500D01*
X1460241Y-4547500D01*
X1428989Y-4536240D01*
X1427220Y-4534775D01*
X1420389Y-4527944D01*
X1415704Y-4525239D01*
X1412527Y-4522608D01*
X1412094Y-4521790D01*
X1409132Y-4519517D01*
X1406058Y-4516443D01*
X1389234Y-4509474D01*
X1383493Y-4506642D01*
X1357111Y-4491411D01*
X1357108Y-4491410D01*
X1327689Y-4483527D01*
X1327689Y-4483526D01*
X1324579Y-4482692D01*
X1304800Y-4474500D01*
X1294000Y-4474500D01*
X1287767Y-4472830D01*
X1287766Y-4472829D01*
X1287762Y-4472829D01*
X1286535Y-4472500D01*
X1286534Y-4472500D01*
X1213466Y-4472500D01*
X1213465Y-4472500D01*
X1212238Y-4472829D01*
X1206002Y-4474500D01*
X1195200Y-4474500D01*
X1175414Y-4482695D01*
X1172309Y-4483527D01*
X1172308Y-4483526D01*
X1142892Y-4491410D01*
X1142891Y-4491410D01*
X1142889Y-4491410D01*
X1142889Y-4491411D01*
X1140324Y-4492892D01*
X1116506Y-4506642D01*
X1113722Y-4508248D01*
X1093942Y-4516443D01*
X1086306Y-4524078D01*
X1082944Y-4526018D01*
X1080719Y-4527304D01*
X1079609Y-4527944D01*
X1027944Y-4579609D01*
X1027303Y-4580718D01*
X1027304Y-4580719D01*
X1025683Y-4583526D01*
X1024078Y-4586306D01*
X1016443Y-4593942D01*
X1008251Y-4613715D01*
X1006643Y-4616502D01*
X1006642Y-4616506D01*
X991410Y-4642891D01*
X991409Y-4642893D01*
X983527Y-4672310D01*
X981468Y-4678377D01*
X974500Y-4695200D01*
X974500Y-4699549D01*
X973450Y-4707521D01*
X973667Y-4708547D01*
X973319Y-4710407D01*
X972500Y-4713466D01*
X250500Y-4713466D01*
X250500Y-299500D01*
X264852Y-264852D01*
X299500Y-250500D01*
X17794825Y-250500D01*
X17829473Y-264852D01*
G37*
%TD.AperFunction*%
%TD*%
M02*
