%TF.GenerationSoftware,KiCad,Pcbnew,9.0.8-9.0.8~ubuntu24.04.1*%
%TF.CreationDate,2026-06-29T14:42:11-04:00*%
%TF.ProjectId,ring,72696e67-2e6b-4696-9361-645f70636258,rev?*%
%TF.SameCoordinates,Original*%
%TF.FileFunction,Drillmap*%
%TF.FilePolarity,Positive*%
%FSLAX45Y45*%
G04 Gerber Fmt 4.5, Leading zero omitted, Abs format (unit mm)*
G04 Created by KiCad (PCBNEW 9.0.8-9.0.8~ubuntu24.04.1) date 2026-06-29 14:42:11*
%MOMM*%
%LPD*%
G01*
G04 APERTURE LIST*
%ADD10C,0.050000*%
%ADD11C,0.200000*%
%ADD12C,0.100000*%
G04 APERTURE END LIST*
D10*
X0Y0D02*
X3800000Y0D01*
X0Y-1000000D02*
X0Y0D01*
X3800000Y0D02*
X3800000Y-1000000D01*
X3800000Y-1000000D02*
X0Y-1000000D01*
D11*
D12*
X295000Y-410000D02*
X315000Y-430000D01*
X315000Y-410000D02*
X295000Y-430000D01*
X350000Y-295000D02*
X370000Y-315000D01*
X370000Y-295000D02*
X350000Y-315000D01*
X350000Y-565000D02*
X370000Y-585000D01*
X370000Y-565000D02*
X350000Y-585000D01*
X540000Y-490000D02*
X560000Y-510000D01*
X560000Y-490000D02*
X540000Y-510000D01*
X690000Y-575000D02*
X710000Y-595000D01*
X710000Y-575000D02*
X690000Y-595000D01*
X700000Y-225000D02*
X720000Y-245000D01*
X720000Y-225000D02*
X700000Y-245000D01*
X730000Y-305000D02*
X750000Y-325000D01*
X750000Y-305000D02*
X730000Y-325000D01*
X788000Y-419140D02*
X808000Y-439140D01*
X808000Y-419140D02*
X788000Y-439140D01*
X790000Y-615100D02*
X810000Y-635100D01*
X810000Y-615100D02*
X790000Y-635100D01*
X790000Y-820000D02*
X810000Y-840000D01*
X810000Y-820000D02*
X790000Y-840000D01*
X865000Y-155000D02*
X885000Y-175000D01*
X885000Y-155000D02*
X865000Y-175000D01*
X895000Y-805000D02*
X915000Y-825000D01*
X915000Y-805000D02*
X895000Y-825000D01*
X935000Y-170000D02*
X955000Y-190000D01*
X955000Y-170000D02*
X935000Y-190000D01*
X940000Y-525000D02*
X960000Y-545000D01*
X960000Y-525000D02*
X940000Y-545000D01*
X985000Y-475000D02*
X1005000Y-495000D01*
X1005000Y-475000D02*
X985000Y-495000D01*
X1045000Y-373280D02*
X1065000Y-393280D01*
X1065000Y-373280D02*
X1045000Y-393280D01*
X1060000Y-660000D02*
X1080000Y-680000D01*
X1080000Y-660000D02*
X1060000Y-680000D01*
X1127500Y-647500D02*
X1147500Y-667500D01*
X1147500Y-647500D02*
X1127500Y-667500D01*
X1185000Y-480000D02*
X1205000Y-500000D01*
X1205000Y-480000D02*
X1185000Y-500000D01*
X1185000Y-625000D02*
X1205000Y-645000D01*
X1205000Y-625000D02*
X1185000Y-645000D01*
X1245000Y-573280D02*
X1265000Y-593280D01*
X1265000Y-573280D02*
X1245000Y-593280D01*
X1265000Y-802500D02*
X1285000Y-822500D01*
X1285000Y-802500D02*
X1265000Y-822500D01*
X1302500Y-562500D02*
X1322500Y-582500D01*
X1322500Y-562500D02*
X1302500Y-582500D01*
X1305000Y-230000D02*
X1325000Y-250000D01*
X1325000Y-230000D02*
X1305000Y-250000D01*
X1315000Y-160000D02*
X1335000Y-180000D01*
X1335000Y-160000D02*
X1315000Y-180000D01*
X1325000Y-330000D02*
X1345000Y-350000D01*
X1345000Y-330000D02*
X1325000Y-350000D01*
X1350000Y-475000D02*
X1370000Y-495000D01*
X1370000Y-475000D02*
X1350000Y-495000D01*
X1565000Y-345000D02*
X1585000Y-365000D01*
X1585000Y-345000D02*
X1565000Y-365000D01*
X1610000Y-615470D02*
X1630000Y-635470D01*
X1630000Y-615470D02*
X1610000Y-635470D01*
X1625000Y-350000D02*
X1645000Y-370000D01*
X1645000Y-350000D02*
X1625000Y-370000D01*
X1675000Y-95000D02*
X1695000Y-115000D01*
X1695000Y-95000D02*
X1675000Y-115000D01*
X1675000Y-155000D02*
X1695000Y-175000D01*
X1695000Y-155000D02*
X1675000Y-175000D01*
X1710000Y-455470D02*
X1730000Y-475470D01*
X1730000Y-455470D02*
X1710000Y-475470D01*
X1710000Y-545000D02*
X1730000Y-565000D01*
X1730000Y-545000D02*
X1710000Y-565000D01*
X1710000Y-615470D02*
X1730000Y-635470D01*
X1730000Y-615470D02*
X1710000Y-635470D01*
X1710000Y-725000D02*
X1730000Y-745000D01*
X1730000Y-725000D02*
X1710000Y-745000D01*
X1720000Y-40000D02*
X1740000Y-60000D01*
X1740000Y-40000D02*
X1720000Y-60000D01*
X1835000Y-757500D02*
X1855000Y-777500D01*
X1855000Y-757500D02*
X1835000Y-777500D01*
X1835000Y-942500D02*
X1855000Y-962500D01*
X1855000Y-942500D02*
X1835000Y-962500D01*
X1880000Y-710000D02*
X1900000Y-730000D01*
X1900000Y-710000D02*
X1880000Y-730000D01*
X2525000Y-550000D02*
X2545000Y-570000D01*
X2545000Y-550000D02*
X2525000Y-570000D01*
X2575000Y-100000D02*
X2595000Y-120000D01*
X2595000Y-100000D02*
X2575000Y-120000D01*
X2575000Y-660000D02*
X2595000Y-680000D01*
X2595000Y-660000D02*
X2575000Y-680000D01*
X2630000Y-280000D02*
X2650000Y-300000D01*
X2650000Y-280000D02*
X2630000Y-300000D01*
X2665000Y-915000D02*
X2685000Y-935000D01*
X2685000Y-915000D02*
X2665000Y-935000D01*
X2725000Y-280000D02*
X2745000Y-300000D01*
X2745000Y-280000D02*
X2725000Y-300000D01*
X2725000Y-331500D02*
X2745000Y-351500D01*
X2745000Y-331500D02*
X2725000Y-351500D01*
X2735000Y-600000D02*
X2755000Y-620000D01*
X2755000Y-600000D02*
X2735000Y-620000D01*
X2743000Y-660000D02*
X2763000Y-680000D01*
X2763000Y-660000D02*
X2743000Y-680000D01*
X2785000Y-500000D02*
X2805000Y-520000D01*
X2805000Y-500000D02*
X2785000Y-520000D01*
X2785000Y-757500D02*
X2805000Y-777500D01*
X2805000Y-757500D02*
X2785000Y-777500D01*
X2790000Y-915000D02*
X2810000Y-935000D01*
X2810000Y-915000D02*
X2790000Y-935000D01*
X2805000Y-435000D02*
X2825000Y-455000D01*
X2825000Y-435000D02*
X2805000Y-455000D01*
X2865000Y-550000D02*
X2885000Y-570000D01*
X2885000Y-550000D02*
X2865000Y-570000D01*
X2870000Y-412500D02*
X2890000Y-432500D01*
X2890000Y-412500D02*
X2870000Y-432500D01*
X2930000Y-625000D02*
X2950000Y-645000D01*
X2950000Y-625000D02*
X2930000Y-645000D01*
X2931000Y-495200D02*
X2951000Y-515200D01*
X2951000Y-495200D02*
X2931000Y-515200D01*
X2931000Y-560200D02*
X2951000Y-580200D01*
X2951000Y-560200D02*
X2931000Y-580200D01*
X2931000Y-690200D02*
X2951000Y-710200D01*
X2951000Y-690200D02*
X2931000Y-710200D01*
X2931000Y-755200D02*
X2951000Y-775200D01*
X2951000Y-755200D02*
X2931000Y-775200D01*
X2992500Y-285000D02*
X3012500Y-305000D01*
X3012500Y-285000D02*
X2992500Y-305000D01*
X3000000Y-220000D02*
X3020000Y-240000D01*
X3020000Y-220000D02*
X3000000Y-240000D01*
X3000000Y-465000D02*
X3020000Y-485000D01*
X3020000Y-465000D02*
X3000000Y-485000D01*
X3020000Y-774000D02*
X3040000Y-794000D01*
X3040000Y-774000D02*
X3020000Y-794000D01*
X3065000Y-640000D02*
X3085000Y-660000D01*
X3085000Y-640000D02*
X3065000Y-660000D01*
X3075000Y-835000D02*
X3095000Y-855000D01*
X3095000Y-835000D02*
X3075000Y-855000D01*
X3085000Y-774000D02*
X3105000Y-794000D01*
X3105000Y-774000D02*
X3085000Y-794000D01*
X3115000Y-100000D02*
X3135000Y-120000D01*
X3135000Y-100000D02*
X3115000Y-120000D01*
X3115000Y-465000D02*
X3135000Y-485000D01*
X3135000Y-465000D02*
X3115000Y-485000D01*
X3175000Y-90000D02*
X3195000Y-110000D01*
X3195000Y-90000D02*
X3175000Y-110000D01*
X3182500Y-709000D02*
X3202500Y-729000D01*
X3202500Y-709000D02*
X3182500Y-729000D01*
X3235000Y-40000D02*
X3255000Y-60000D01*
X3255000Y-40000D02*
X3235000Y-60000D01*
X3247500Y-709000D02*
X3267500Y-729000D01*
X3267500Y-709000D02*
X3247500Y-729000D01*
X3280000Y-346500D02*
X3300000Y-366500D01*
X3300000Y-346500D02*
X3280000Y-366500D01*
X3285000Y-220000D02*
X3305000Y-240000D01*
X3305000Y-220000D02*
X3285000Y-240000D01*
X3312500Y-709000D02*
X3332500Y-729000D01*
X3332500Y-709000D02*
X3312500Y-729000D01*
X3320000Y-875000D02*
X3340000Y-895000D01*
X3340000Y-875000D02*
X3320000Y-895000D01*
X3345000Y-285000D02*
X3365000Y-305000D01*
X3365000Y-285000D02*
X3345000Y-305000D01*
X3345000Y-346500D02*
X3365000Y-366500D01*
X3365000Y-346500D02*
X3345000Y-366500D01*
X3390000Y-155000D02*
X3410000Y-175000D01*
X3410000Y-155000D02*
X3390000Y-175000D01*
X3415000Y-832300D02*
X3435000Y-852300D01*
X3435000Y-832300D02*
X3415000Y-852300D01*
X3435000Y-90000D02*
X3455000Y-110000D01*
X3455000Y-90000D02*
X3435000Y-110000D01*
X3475000Y-820000D02*
X3495000Y-840000D01*
X3495000Y-820000D02*
X3475000Y-840000D01*
X3510000Y-925000D02*
X3530000Y-945000D01*
X3530000Y-925000D02*
X3510000Y-945000D01*
X3520000Y-270000D02*
X3540000Y-290000D01*
X3540000Y-270000D02*
X3520000Y-290000D01*
X3580000Y-85000D02*
X3600000Y-105000D01*
X3600000Y-85000D02*
X3580000Y-105000D01*
X3580000Y-775000D02*
X3600000Y-795000D01*
X3600000Y-775000D02*
X3580000Y-795000D01*
X3630000Y-460000D02*
X3650000Y-480000D01*
X3650000Y-460000D02*
X3630000Y-480000D01*
D11*
X258277Y-1313984D02*
X258277Y-1113984D01*
X258277Y-1113984D02*
X305896Y-1113984D01*
X305896Y-1113984D02*
X334467Y-1123508D01*
X334467Y-1123508D02*
X353515Y-1142555D01*
X353515Y-1142555D02*
X363039Y-1161603D01*
X363039Y-1161603D02*
X372562Y-1199698D01*
X372562Y-1199698D02*
X372562Y-1228270D01*
X372562Y-1228270D02*
X363039Y-1266365D01*
X363039Y-1266365D02*
X353515Y-1285412D01*
X353515Y-1285412D02*
X334467Y-1304460D01*
X334467Y-1304460D02*
X305896Y-1313984D01*
X305896Y-1313984D02*
X258277Y-1313984D01*
X458277Y-1313984D02*
X458277Y-1180650D01*
X458277Y-1218746D02*
X467801Y-1199698D01*
X467801Y-1199698D02*
X477324Y-1190174D01*
X477324Y-1190174D02*
X496372Y-1180650D01*
X496372Y-1180650D02*
X515420Y-1180650D01*
X582086Y-1313984D02*
X582086Y-1180650D01*
X582086Y-1113984D02*
X572563Y-1123508D01*
X572563Y-1123508D02*
X582086Y-1133031D01*
X582086Y-1133031D02*
X591610Y-1123508D01*
X591610Y-1123508D02*
X582086Y-1113984D01*
X582086Y-1113984D02*
X582086Y-1133031D01*
X705896Y-1313984D02*
X686848Y-1304460D01*
X686848Y-1304460D02*
X677324Y-1285412D01*
X677324Y-1285412D02*
X677324Y-1113984D01*
X810658Y-1313984D02*
X791610Y-1304460D01*
X791610Y-1304460D02*
X782086Y-1285412D01*
X782086Y-1285412D02*
X782086Y-1113984D01*
X1039229Y-1313984D02*
X1039229Y-1113984D01*
X1039229Y-1113984D02*
X1105896Y-1256841D01*
X1105896Y-1256841D02*
X1172563Y-1113984D01*
X1172563Y-1113984D02*
X1172563Y-1313984D01*
X1353515Y-1313984D02*
X1353515Y-1209222D01*
X1353515Y-1209222D02*
X1343991Y-1190174D01*
X1343991Y-1190174D02*
X1324944Y-1180650D01*
X1324944Y-1180650D02*
X1286848Y-1180650D01*
X1286848Y-1180650D02*
X1267801Y-1190174D01*
X1353515Y-1304460D02*
X1334467Y-1313984D01*
X1334467Y-1313984D02*
X1286848Y-1313984D01*
X1286848Y-1313984D02*
X1267801Y-1304460D01*
X1267801Y-1304460D02*
X1258277Y-1285412D01*
X1258277Y-1285412D02*
X1258277Y-1266365D01*
X1258277Y-1266365D02*
X1267801Y-1247317D01*
X1267801Y-1247317D02*
X1286848Y-1237793D01*
X1286848Y-1237793D02*
X1334467Y-1237793D01*
X1334467Y-1237793D02*
X1353515Y-1228270D01*
X1448753Y-1180650D02*
X1448753Y-1380650D01*
X1448753Y-1190174D02*
X1467801Y-1180650D01*
X1467801Y-1180650D02*
X1505896Y-1180650D01*
X1505896Y-1180650D02*
X1524943Y-1190174D01*
X1524943Y-1190174D02*
X1534467Y-1199698D01*
X1534467Y-1199698D02*
X1543991Y-1218746D01*
X1543991Y-1218746D02*
X1543991Y-1275889D01*
X1543991Y-1275889D02*
X1534467Y-1294936D01*
X1534467Y-1294936D02*
X1524943Y-1304460D01*
X1524943Y-1304460D02*
X1505896Y-1313984D01*
X1505896Y-1313984D02*
X1467801Y-1313984D01*
X1467801Y-1313984D02*
X1448753Y-1304460D01*
X1629705Y-1294936D02*
X1639229Y-1304460D01*
X1639229Y-1304460D02*
X1629705Y-1313984D01*
X1629705Y-1313984D02*
X1620182Y-1304460D01*
X1620182Y-1304460D02*
X1629705Y-1294936D01*
X1629705Y-1294936D02*
X1629705Y-1313984D01*
X1629705Y-1190174D02*
X1639229Y-1199698D01*
X1639229Y-1199698D02*
X1629705Y-1209222D01*
X1629705Y-1209222D02*
X1620182Y-1199698D01*
X1620182Y-1199698D02*
X1629705Y-1190174D01*
X1629705Y-1190174D02*
X1629705Y-1209222D01*
D12*
X-22500Y-1632500D02*
X-2500Y-1652500D01*
X-2500Y-1632500D02*
X-22500Y-1652500D01*
D11*
X296372Y-1533984D02*
X315420Y-1533984D01*
X315420Y-1533984D02*
X334467Y-1543508D01*
X334467Y-1543508D02*
X343991Y-1553031D01*
X343991Y-1553031D02*
X353515Y-1572079D01*
X353515Y-1572079D02*
X363039Y-1610174D01*
X363039Y-1610174D02*
X363039Y-1657793D01*
X363039Y-1657793D02*
X353515Y-1695888D01*
X353515Y-1695888D02*
X343991Y-1714936D01*
X343991Y-1714936D02*
X334467Y-1724460D01*
X334467Y-1724460D02*
X315420Y-1733984D01*
X315420Y-1733984D02*
X296372Y-1733984D01*
X296372Y-1733984D02*
X277324Y-1724460D01*
X277324Y-1724460D02*
X267801Y-1714936D01*
X267801Y-1714936D02*
X258277Y-1695888D01*
X258277Y-1695888D02*
X248753Y-1657793D01*
X248753Y-1657793D02*
X248753Y-1610174D01*
X248753Y-1610174D02*
X258277Y-1572079D01*
X258277Y-1572079D02*
X267801Y-1553031D01*
X267801Y-1553031D02*
X277324Y-1543508D01*
X277324Y-1543508D02*
X296372Y-1533984D01*
X448753Y-1714936D02*
X458277Y-1724460D01*
X458277Y-1724460D02*
X448753Y-1733984D01*
X448753Y-1733984D02*
X439229Y-1724460D01*
X439229Y-1724460D02*
X448753Y-1714936D01*
X448753Y-1714936D02*
X448753Y-1733984D01*
X534467Y-1553031D02*
X543991Y-1543508D01*
X543991Y-1543508D02*
X563039Y-1533984D01*
X563039Y-1533984D02*
X610658Y-1533984D01*
X610658Y-1533984D02*
X629705Y-1543508D01*
X629705Y-1543508D02*
X639229Y-1553031D01*
X639229Y-1553031D02*
X648753Y-1572079D01*
X648753Y-1572079D02*
X648753Y-1591127D01*
X648753Y-1591127D02*
X639229Y-1619698D01*
X639229Y-1619698D02*
X524944Y-1733984D01*
X524944Y-1733984D02*
X648753Y-1733984D01*
X772562Y-1533984D02*
X791610Y-1533984D01*
X791610Y-1533984D02*
X810658Y-1543508D01*
X810658Y-1543508D02*
X820182Y-1553031D01*
X820182Y-1553031D02*
X829705Y-1572079D01*
X829705Y-1572079D02*
X839229Y-1610174D01*
X839229Y-1610174D02*
X839229Y-1657793D01*
X839229Y-1657793D02*
X829705Y-1695888D01*
X829705Y-1695888D02*
X820182Y-1714936D01*
X820182Y-1714936D02*
X810658Y-1724460D01*
X810658Y-1724460D02*
X791610Y-1733984D01*
X791610Y-1733984D02*
X772562Y-1733984D01*
X772562Y-1733984D02*
X753515Y-1724460D01*
X753515Y-1724460D02*
X743991Y-1714936D01*
X743991Y-1714936D02*
X734467Y-1695888D01*
X734467Y-1695888D02*
X724943Y-1657793D01*
X724943Y-1657793D02*
X724943Y-1610174D01*
X724943Y-1610174D02*
X734467Y-1572079D01*
X734467Y-1572079D02*
X743991Y-1553031D01*
X743991Y-1553031D02*
X753515Y-1543508D01*
X753515Y-1543508D02*
X772562Y-1533984D01*
X963039Y-1533984D02*
X982086Y-1533984D01*
X982086Y-1533984D02*
X1001134Y-1543508D01*
X1001134Y-1543508D02*
X1010658Y-1553031D01*
X1010658Y-1553031D02*
X1020182Y-1572079D01*
X1020182Y-1572079D02*
X1029705Y-1610174D01*
X1029705Y-1610174D02*
X1029705Y-1657793D01*
X1029705Y-1657793D02*
X1020182Y-1695888D01*
X1020182Y-1695888D02*
X1010658Y-1714936D01*
X1010658Y-1714936D02*
X1001134Y-1724460D01*
X1001134Y-1724460D02*
X982086Y-1733984D01*
X982086Y-1733984D02*
X963039Y-1733984D01*
X963039Y-1733984D02*
X943991Y-1724460D01*
X943991Y-1724460D02*
X934467Y-1714936D01*
X934467Y-1714936D02*
X924943Y-1695888D01*
X924943Y-1695888D02*
X915420Y-1657793D01*
X915420Y-1657793D02*
X915420Y-1610174D01*
X915420Y-1610174D02*
X924943Y-1572079D01*
X924943Y-1572079D02*
X934467Y-1553031D01*
X934467Y-1553031D02*
X943991Y-1543508D01*
X943991Y-1543508D02*
X963039Y-1533984D01*
X1115420Y-1733984D02*
X1115420Y-1600650D01*
X1115420Y-1619698D02*
X1124944Y-1610174D01*
X1124944Y-1610174D02*
X1143991Y-1600650D01*
X1143991Y-1600650D02*
X1172563Y-1600650D01*
X1172563Y-1600650D02*
X1191610Y-1610174D01*
X1191610Y-1610174D02*
X1201134Y-1629222D01*
X1201134Y-1629222D02*
X1201134Y-1733984D01*
X1201134Y-1629222D02*
X1210658Y-1610174D01*
X1210658Y-1610174D02*
X1229705Y-1600650D01*
X1229705Y-1600650D02*
X1258277Y-1600650D01*
X1258277Y-1600650D02*
X1277325Y-1610174D01*
X1277325Y-1610174D02*
X1286848Y-1629222D01*
X1286848Y-1629222D02*
X1286848Y-1733984D01*
X1382086Y-1733984D02*
X1382086Y-1600650D01*
X1382086Y-1619698D02*
X1391610Y-1610174D01*
X1391610Y-1610174D02*
X1410658Y-1600650D01*
X1410658Y-1600650D02*
X1439229Y-1600650D01*
X1439229Y-1600650D02*
X1458277Y-1610174D01*
X1458277Y-1610174D02*
X1467801Y-1629222D01*
X1467801Y-1629222D02*
X1467801Y-1733984D01*
X1467801Y-1629222D02*
X1477324Y-1610174D01*
X1477324Y-1610174D02*
X1496372Y-1600650D01*
X1496372Y-1600650D02*
X1524943Y-1600650D01*
X1524943Y-1600650D02*
X1543991Y-1610174D01*
X1543991Y-1610174D02*
X1553515Y-1629222D01*
X1553515Y-1629222D02*
X1553515Y-1733984D01*
X1943991Y-1524460D02*
X1772563Y-1781603D01*
X2201134Y-1533984D02*
X2220182Y-1533984D01*
X2220182Y-1533984D02*
X2239229Y-1543508D01*
X2239229Y-1543508D02*
X2248753Y-1553031D01*
X2248753Y-1553031D02*
X2258277Y-1572079D01*
X2258277Y-1572079D02*
X2267801Y-1610174D01*
X2267801Y-1610174D02*
X2267801Y-1657793D01*
X2267801Y-1657793D02*
X2258277Y-1695888D01*
X2258277Y-1695888D02*
X2248753Y-1714936D01*
X2248753Y-1714936D02*
X2239229Y-1724460D01*
X2239229Y-1724460D02*
X2220182Y-1733984D01*
X2220182Y-1733984D02*
X2201134Y-1733984D01*
X2201134Y-1733984D02*
X2182087Y-1724460D01*
X2182087Y-1724460D02*
X2172563Y-1714936D01*
X2172563Y-1714936D02*
X2163039Y-1695888D01*
X2163039Y-1695888D02*
X2153515Y-1657793D01*
X2153515Y-1657793D02*
X2153515Y-1610174D01*
X2153515Y-1610174D02*
X2163039Y-1572079D01*
X2163039Y-1572079D02*
X2172563Y-1553031D01*
X2172563Y-1553031D02*
X2182087Y-1543508D01*
X2182087Y-1543508D02*
X2201134Y-1533984D01*
X2353515Y-1714936D02*
X2363039Y-1724460D01*
X2363039Y-1724460D02*
X2353515Y-1733984D01*
X2353515Y-1733984D02*
X2343991Y-1724460D01*
X2343991Y-1724460D02*
X2353515Y-1714936D01*
X2353515Y-1714936D02*
X2353515Y-1733984D01*
X2486848Y-1533984D02*
X2505896Y-1533984D01*
X2505896Y-1533984D02*
X2524944Y-1543508D01*
X2524944Y-1543508D02*
X2534468Y-1553031D01*
X2534468Y-1553031D02*
X2543991Y-1572079D01*
X2543991Y-1572079D02*
X2553515Y-1610174D01*
X2553515Y-1610174D02*
X2553515Y-1657793D01*
X2553515Y-1657793D02*
X2543991Y-1695888D01*
X2543991Y-1695888D02*
X2534468Y-1714936D01*
X2534468Y-1714936D02*
X2524944Y-1724460D01*
X2524944Y-1724460D02*
X2505896Y-1733984D01*
X2505896Y-1733984D02*
X2486848Y-1733984D01*
X2486848Y-1733984D02*
X2467801Y-1724460D01*
X2467801Y-1724460D02*
X2458277Y-1714936D01*
X2458277Y-1714936D02*
X2448753Y-1695888D01*
X2448753Y-1695888D02*
X2439229Y-1657793D01*
X2439229Y-1657793D02*
X2439229Y-1610174D01*
X2439229Y-1610174D02*
X2448753Y-1572079D01*
X2448753Y-1572079D02*
X2458277Y-1553031D01*
X2458277Y-1553031D02*
X2467801Y-1543508D01*
X2467801Y-1543508D02*
X2486848Y-1533984D01*
X2677325Y-1533984D02*
X2696372Y-1533984D01*
X2696372Y-1533984D02*
X2715420Y-1543508D01*
X2715420Y-1543508D02*
X2724944Y-1553031D01*
X2724944Y-1553031D02*
X2734468Y-1572079D01*
X2734468Y-1572079D02*
X2743991Y-1610174D01*
X2743991Y-1610174D02*
X2743991Y-1657793D01*
X2743991Y-1657793D02*
X2734468Y-1695888D01*
X2734468Y-1695888D02*
X2724944Y-1714936D01*
X2724944Y-1714936D02*
X2715420Y-1724460D01*
X2715420Y-1724460D02*
X2696372Y-1733984D01*
X2696372Y-1733984D02*
X2677325Y-1733984D01*
X2677325Y-1733984D02*
X2658277Y-1724460D01*
X2658277Y-1724460D02*
X2648753Y-1714936D01*
X2648753Y-1714936D02*
X2639229Y-1695888D01*
X2639229Y-1695888D02*
X2629706Y-1657793D01*
X2629706Y-1657793D02*
X2629706Y-1610174D01*
X2629706Y-1610174D02*
X2639229Y-1572079D01*
X2639229Y-1572079D02*
X2648753Y-1553031D01*
X2648753Y-1553031D02*
X2658277Y-1543508D01*
X2658277Y-1543508D02*
X2677325Y-1533984D01*
X2810658Y-1533984D02*
X2943991Y-1533984D01*
X2943991Y-1533984D02*
X2858277Y-1733984D01*
X3029706Y-1733984D02*
X3067801Y-1733984D01*
X3067801Y-1733984D02*
X3086848Y-1724460D01*
X3086848Y-1724460D02*
X3096372Y-1714936D01*
X3096372Y-1714936D02*
X3115420Y-1686365D01*
X3115420Y-1686365D02*
X3124944Y-1648269D01*
X3124944Y-1648269D02*
X3124944Y-1572079D01*
X3124944Y-1572079D02*
X3115420Y-1553031D01*
X3115420Y-1553031D02*
X3105896Y-1543508D01*
X3105896Y-1543508D02*
X3086848Y-1533984D01*
X3086848Y-1533984D02*
X3048753Y-1533984D01*
X3048753Y-1533984D02*
X3029706Y-1543508D01*
X3029706Y-1543508D02*
X3020182Y-1553031D01*
X3020182Y-1553031D02*
X3010658Y-1572079D01*
X3010658Y-1572079D02*
X3010658Y-1619698D01*
X3010658Y-1619698D02*
X3020182Y-1638746D01*
X3020182Y-1638746D02*
X3029706Y-1648269D01*
X3029706Y-1648269D02*
X3048753Y-1657793D01*
X3048753Y-1657793D02*
X3086848Y-1657793D01*
X3086848Y-1657793D02*
X3105896Y-1648269D01*
X3105896Y-1648269D02*
X3115420Y-1638746D01*
X3115420Y-1638746D02*
X3124944Y-1619698D01*
X3201134Y-1533984D02*
X3201134Y-1572079D01*
X3277325Y-1533984D02*
X3277325Y-1572079D01*
X3572563Y-1810174D02*
X3563039Y-1800650D01*
X3563039Y-1800650D02*
X3543991Y-1772079D01*
X3543991Y-1772079D02*
X3534468Y-1753031D01*
X3534468Y-1753031D02*
X3524944Y-1724460D01*
X3524944Y-1724460D02*
X3515420Y-1676841D01*
X3515420Y-1676841D02*
X3515420Y-1638746D01*
X3515420Y-1638746D02*
X3524944Y-1591127D01*
X3524944Y-1591127D02*
X3534468Y-1562555D01*
X3534468Y-1562555D02*
X3543991Y-1543508D01*
X3543991Y-1543508D02*
X3563039Y-1514936D01*
X3563039Y-1514936D02*
X3572563Y-1505412D01*
X3677325Y-1619698D02*
X3658277Y-1610174D01*
X3658277Y-1610174D02*
X3648753Y-1600650D01*
X3648753Y-1600650D02*
X3639229Y-1581603D01*
X3639229Y-1581603D02*
X3639229Y-1572079D01*
X3639229Y-1572079D02*
X3648753Y-1553031D01*
X3648753Y-1553031D02*
X3658277Y-1543508D01*
X3658277Y-1543508D02*
X3677325Y-1533984D01*
X3677325Y-1533984D02*
X3715420Y-1533984D01*
X3715420Y-1533984D02*
X3734468Y-1543508D01*
X3734468Y-1543508D02*
X3743991Y-1553031D01*
X3743991Y-1553031D02*
X3753515Y-1572079D01*
X3753515Y-1572079D02*
X3753515Y-1581603D01*
X3753515Y-1581603D02*
X3743991Y-1600650D01*
X3743991Y-1600650D02*
X3734468Y-1610174D01*
X3734468Y-1610174D02*
X3715420Y-1619698D01*
X3715420Y-1619698D02*
X3677325Y-1619698D01*
X3677325Y-1619698D02*
X3658277Y-1629222D01*
X3658277Y-1629222D02*
X3648753Y-1638746D01*
X3648753Y-1638746D02*
X3639229Y-1657793D01*
X3639229Y-1657793D02*
X3639229Y-1695888D01*
X3639229Y-1695888D02*
X3648753Y-1714936D01*
X3648753Y-1714936D02*
X3658277Y-1724460D01*
X3658277Y-1724460D02*
X3677325Y-1733984D01*
X3677325Y-1733984D02*
X3715420Y-1733984D01*
X3715420Y-1733984D02*
X3734468Y-1724460D01*
X3734468Y-1724460D02*
X3743991Y-1714936D01*
X3743991Y-1714936D02*
X3753515Y-1695888D01*
X3753515Y-1695888D02*
X3753515Y-1657793D01*
X3753515Y-1657793D02*
X3743991Y-1638746D01*
X3743991Y-1638746D02*
X3734468Y-1629222D01*
X3734468Y-1629222D02*
X3715420Y-1619698D01*
X3867801Y-1619698D02*
X3848753Y-1610174D01*
X3848753Y-1610174D02*
X3839229Y-1600650D01*
X3839229Y-1600650D02*
X3829706Y-1581603D01*
X3829706Y-1581603D02*
X3829706Y-1572079D01*
X3829706Y-1572079D02*
X3839229Y-1553031D01*
X3839229Y-1553031D02*
X3848753Y-1543508D01*
X3848753Y-1543508D02*
X3867801Y-1533984D01*
X3867801Y-1533984D02*
X3905896Y-1533984D01*
X3905896Y-1533984D02*
X3924944Y-1543508D01*
X3924944Y-1543508D02*
X3934468Y-1553031D01*
X3934468Y-1553031D02*
X3943991Y-1572079D01*
X3943991Y-1572079D02*
X3943991Y-1581603D01*
X3943991Y-1581603D02*
X3934468Y-1600650D01*
X3934468Y-1600650D02*
X3924944Y-1610174D01*
X3924944Y-1610174D02*
X3905896Y-1619698D01*
X3905896Y-1619698D02*
X3867801Y-1619698D01*
X3867801Y-1619698D02*
X3848753Y-1629222D01*
X3848753Y-1629222D02*
X3839229Y-1638746D01*
X3839229Y-1638746D02*
X3829706Y-1657793D01*
X3829706Y-1657793D02*
X3829706Y-1695888D01*
X3829706Y-1695888D02*
X3839229Y-1714936D01*
X3839229Y-1714936D02*
X3848753Y-1724460D01*
X3848753Y-1724460D02*
X3867801Y-1733984D01*
X3867801Y-1733984D02*
X3905896Y-1733984D01*
X3905896Y-1733984D02*
X3924944Y-1724460D01*
X3924944Y-1724460D02*
X3934468Y-1714936D01*
X3934468Y-1714936D02*
X3943991Y-1695888D01*
X3943991Y-1695888D02*
X3943991Y-1657793D01*
X3943991Y-1657793D02*
X3934468Y-1638746D01*
X3934468Y-1638746D02*
X3924944Y-1629222D01*
X3924944Y-1629222D02*
X3905896Y-1619698D01*
X4182087Y-1733984D02*
X4182087Y-1533984D01*
X4267801Y-1733984D02*
X4267801Y-1629222D01*
X4267801Y-1629222D02*
X4258277Y-1610174D01*
X4258277Y-1610174D02*
X4239230Y-1600650D01*
X4239230Y-1600650D02*
X4210658Y-1600650D01*
X4210658Y-1600650D02*
X4191610Y-1610174D01*
X4191610Y-1610174D02*
X4182087Y-1619698D01*
X4391611Y-1733984D02*
X4372563Y-1724460D01*
X4372563Y-1724460D02*
X4363039Y-1714936D01*
X4363039Y-1714936D02*
X4353515Y-1695888D01*
X4353515Y-1695888D02*
X4353515Y-1638746D01*
X4353515Y-1638746D02*
X4363039Y-1619698D01*
X4363039Y-1619698D02*
X4372563Y-1610174D01*
X4372563Y-1610174D02*
X4391611Y-1600650D01*
X4391611Y-1600650D02*
X4420182Y-1600650D01*
X4420182Y-1600650D02*
X4439230Y-1610174D01*
X4439230Y-1610174D02*
X4448753Y-1619698D01*
X4448753Y-1619698D02*
X4458277Y-1638746D01*
X4458277Y-1638746D02*
X4458277Y-1695888D01*
X4458277Y-1695888D02*
X4448753Y-1714936D01*
X4448753Y-1714936D02*
X4439230Y-1724460D01*
X4439230Y-1724460D02*
X4420182Y-1733984D01*
X4420182Y-1733984D02*
X4391611Y-1733984D01*
X4572563Y-1733984D02*
X4553515Y-1724460D01*
X4553515Y-1724460D02*
X4543992Y-1705412D01*
X4543992Y-1705412D02*
X4543992Y-1533984D01*
X4724944Y-1724460D02*
X4705896Y-1733984D01*
X4705896Y-1733984D02*
X4667801Y-1733984D01*
X4667801Y-1733984D02*
X4648753Y-1724460D01*
X4648753Y-1724460D02*
X4639230Y-1705412D01*
X4639230Y-1705412D02*
X4639230Y-1629222D01*
X4639230Y-1629222D02*
X4648753Y-1610174D01*
X4648753Y-1610174D02*
X4667801Y-1600650D01*
X4667801Y-1600650D02*
X4705896Y-1600650D01*
X4705896Y-1600650D02*
X4724944Y-1610174D01*
X4724944Y-1610174D02*
X4734468Y-1629222D01*
X4734468Y-1629222D02*
X4734468Y-1648269D01*
X4734468Y-1648269D02*
X4639230Y-1667317D01*
X4810658Y-1724460D02*
X4829706Y-1733984D01*
X4829706Y-1733984D02*
X4867801Y-1733984D01*
X4867801Y-1733984D02*
X4886849Y-1724460D01*
X4886849Y-1724460D02*
X4896373Y-1705412D01*
X4896373Y-1705412D02*
X4896373Y-1695888D01*
X4896373Y-1695888D02*
X4886849Y-1676841D01*
X4886849Y-1676841D02*
X4867801Y-1667317D01*
X4867801Y-1667317D02*
X4839230Y-1667317D01*
X4839230Y-1667317D02*
X4820182Y-1657793D01*
X4820182Y-1657793D02*
X4810658Y-1638746D01*
X4810658Y-1638746D02*
X4810658Y-1629222D01*
X4810658Y-1629222D02*
X4820182Y-1610174D01*
X4820182Y-1610174D02*
X4839230Y-1600650D01*
X4839230Y-1600650D02*
X4867801Y-1600650D01*
X4867801Y-1600650D02*
X4886849Y-1610174D01*
X4963039Y-1810174D02*
X4972563Y-1800650D01*
X4972563Y-1800650D02*
X4991611Y-1772079D01*
X4991611Y-1772079D02*
X5001134Y-1753031D01*
X5001134Y-1753031D02*
X5010658Y-1724460D01*
X5010658Y-1724460D02*
X5020182Y-1676841D01*
X5020182Y-1676841D02*
X5020182Y-1638746D01*
X5020182Y-1638746D02*
X5010658Y-1591127D01*
X5010658Y-1591127D02*
X5001134Y-1562555D01*
X5001134Y-1562555D02*
X4991611Y-1543508D01*
X4991611Y-1543508D02*
X4972563Y-1514936D01*
X4972563Y-1514936D02*
X4963039Y-1505412D01*
M02*
