%TF.GenerationSoftware,KiCad,Pcbnew,9.0.8-9.0.8~ubuntu24.04.1*%
%TF.CreationDate,2026-06-29T14:41:35-04:00*%
%TF.ProjectId,ring,72696e67-2e6b-4696-9361-645f70636258,rev?*%
%TF.SameCoordinates,Original*%
%TF.FileFunction,Legend,Top*%
%TF.FilePolarity,Positive*%
%FSLAX46Y46*%
G04 Gerber Fmt 4.6, Leading zero omitted, Abs format (unit mm)*
G04 Created by KiCad (PCBNEW 9.0.8-9.0.8~ubuntu24.04.1) date 2026-06-29 14:41:35*
%MOMM*%
%LPD*%
G01*
G04 APERTURE LIST*
%ADD10C,0.150000*%
%ADD11C,0.120000*%
G04 APERTURE END LIST*
D10*
X24573333Y-7059580D02*
X24525714Y-7107200D01*
X24525714Y-7107200D02*
X24382857Y-7154819D01*
X24382857Y-7154819D02*
X24287619Y-7154819D01*
X24287619Y-7154819D02*
X24144762Y-7107200D01*
X24144762Y-7107200D02*
X24049524Y-7011961D01*
X24049524Y-7011961D02*
X24001905Y-6916723D01*
X24001905Y-6916723D02*
X23954286Y-6726247D01*
X23954286Y-6726247D02*
X23954286Y-6583390D01*
X23954286Y-6583390D02*
X24001905Y-6392914D01*
X24001905Y-6392914D02*
X24049524Y-6297676D01*
X24049524Y-6297676D02*
X24144762Y-6202438D01*
X24144762Y-6202438D02*
X24287619Y-6154819D01*
X24287619Y-6154819D02*
X24382857Y-6154819D01*
X24382857Y-6154819D02*
X24525714Y-6202438D01*
X24525714Y-6202438D02*
X24573333Y-6250057D01*
X24906667Y-6154819D02*
X25573333Y-6154819D01*
X25573333Y-6154819D02*
X25144762Y-7154819D01*
D11*
X16960475Y-1825760D02*
X17074761Y-1863855D01*
X17074761Y-1863855D02*
X17265237Y-1863855D01*
X17265237Y-1863855D02*
X17341428Y-1825760D01*
X17341428Y-1825760D02*
X17379523Y-1787664D01*
X17379523Y-1787664D02*
X17417618Y-1711474D01*
X17417618Y-1711474D02*
X17417618Y-1635283D01*
X17417618Y-1635283D02*
X17379523Y-1559093D01*
X17379523Y-1559093D02*
X17341428Y-1520998D01*
X17341428Y-1520998D02*
X17265237Y-1482902D01*
X17265237Y-1482902D02*
X17112856Y-1444807D01*
X17112856Y-1444807D02*
X17036666Y-1406712D01*
X17036666Y-1406712D02*
X16998571Y-1368617D01*
X16998571Y-1368617D02*
X16960475Y-1292426D01*
X16960475Y-1292426D02*
X16960475Y-1216236D01*
X16960475Y-1216236D02*
X16998571Y-1140045D01*
X16998571Y-1140045D02*
X17036666Y-1101950D01*
X17036666Y-1101950D02*
X17112856Y-1063855D01*
X17112856Y-1063855D02*
X17303333Y-1063855D01*
X17303333Y-1063855D02*
X17417618Y-1101950D01*
X17760476Y-1863855D02*
X17760476Y-1063855D01*
X17760476Y-1063855D02*
X18065238Y-1063855D01*
X18065238Y-1063855D02*
X18141428Y-1101950D01*
X18141428Y-1101950D02*
X18179523Y-1140045D01*
X18179523Y-1140045D02*
X18217619Y-1216236D01*
X18217619Y-1216236D02*
X18217619Y-1330521D01*
X18217619Y-1330521D02*
X18179523Y-1406712D01*
X18179523Y-1406712D02*
X18141428Y-1444807D01*
X18141428Y-1444807D02*
X18065238Y-1482902D01*
X18065238Y-1482902D02*
X17760476Y-1482902D01*
X18484285Y-1063855D02*
X18979523Y-1063855D01*
X18979523Y-1063855D02*
X18712857Y-1368617D01*
X18712857Y-1368617D02*
X18827142Y-1368617D01*
X18827142Y-1368617D02*
X18903333Y-1406712D01*
X18903333Y-1406712D02*
X18941428Y-1444807D01*
X18941428Y-1444807D02*
X18979523Y-1520998D01*
X18979523Y-1520998D02*
X18979523Y-1711474D01*
X18979523Y-1711474D02*
X18941428Y-1787664D01*
X18941428Y-1787664D02*
X18903333Y-1825760D01*
X18903333Y-1825760D02*
X18827142Y-1863855D01*
X18827142Y-1863855D02*
X18598571Y-1863855D01*
X18598571Y-1863855D02*
X18522380Y-1825760D01*
X18522380Y-1825760D02*
X18484285Y-1787664D01*
X22823332Y-9575760D02*
X22937618Y-9613855D01*
X22937618Y-9613855D02*
X23128094Y-9613855D01*
X23128094Y-9613855D02*
X23204285Y-9575760D01*
X23204285Y-9575760D02*
X23242380Y-9537664D01*
X23242380Y-9537664D02*
X23280475Y-9461474D01*
X23280475Y-9461474D02*
X23280475Y-9385283D01*
X23280475Y-9385283D02*
X23242380Y-9309093D01*
X23242380Y-9309093D02*
X23204285Y-9270998D01*
X23204285Y-9270998D02*
X23128094Y-9232902D01*
X23128094Y-9232902D02*
X22975713Y-9194807D01*
X22975713Y-9194807D02*
X22899523Y-9156712D01*
X22899523Y-9156712D02*
X22861428Y-9118617D01*
X22861428Y-9118617D02*
X22823332Y-9042426D01*
X22823332Y-9042426D02*
X22823332Y-8966236D01*
X22823332Y-8966236D02*
X22861428Y-8890045D01*
X22861428Y-8890045D02*
X22899523Y-8851950D01*
X22899523Y-8851950D02*
X22975713Y-8813855D01*
X22975713Y-8813855D02*
X23166190Y-8813855D01*
X23166190Y-8813855D02*
X23280475Y-8851950D01*
X23547142Y-8813855D02*
X23737618Y-9613855D01*
X23737618Y-9613855D02*
X23889999Y-9042426D01*
X23889999Y-9042426D02*
X24042380Y-9613855D01*
X24042380Y-9613855D02*
X24232857Y-8813855D01*
X24537619Y-9613855D02*
X24537619Y-8813855D01*
X24537619Y-8813855D02*
X24728095Y-8813855D01*
X24728095Y-8813855D02*
X24842381Y-8851950D01*
X24842381Y-8851950D02*
X24918571Y-8928140D01*
X24918571Y-8928140D02*
X24956666Y-9004331D01*
X24956666Y-9004331D02*
X24994762Y-9156712D01*
X24994762Y-9156712D02*
X24994762Y-9270998D01*
X24994762Y-9270998D02*
X24956666Y-9423379D01*
X24956666Y-9423379D02*
X24918571Y-9499569D01*
X24918571Y-9499569D02*
X24842381Y-9575760D01*
X24842381Y-9575760D02*
X24728095Y-9613855D01*
X24728095Y-9613855D02*
X24537619Y-9613855D01*
X25756666Y-9613855D02*
X25299523Y-9613855D01*
X25528095Y-9613855D02*
X25528095Y-8813855D01*
X25528095Y-8813855D02*
X25451904Y-8928140D01*
X25451904Y-8928140D02*
X25375714Y-9004331D01*
X25375714Y-9004331D02*
X25299523Y-9042426D01*
X25716667Y-4288855D02*
X25450000Y-3907902D01*
X25259524Y-4288855D02*
X25259524Y-3488855D01*
X25259524Y-3488855D02*
X25564286Y-3488855D01*
X25564286Y-3488855D02*
X25640476Y-3526950D01*
X25640476Y-3526950D02*
X25678571Y-3565045D01*
X25678571Y-3565045D02*
X25716667Y-3641236D01*
X25716667Y-3641236D02*
X25716667Y-3755521D01*
X25716667Y-3755521D02*
X25678571Y-3831712D01*
X25678571Y-3831712D02*
X25640476Y-3869807D01*
X25640476Y-3869807D02*
X25564286Y-3907902D01*
X25564286Y-3907902D02*
X25259524Y-3907902D01*
X26021428Y-3565045D02*
X26059524Y-3526950D01*
X26059524Y-3526950D02*
X26135714Y-3488855D01*
X26135714Y-3488855D02*
X26326190Y-3488855D01*
X26326190Y-3488855D02*
X26402381Y-3526950D01*
X26402381Y-3526950D02*
X26440476Y-3565045D01*
X26440476Y-3565045D02*
X26478571Y-3641236D01*
X26478571Y-3641236D02*
X26478571Y-3717426D01*
X26478571Y-3717426D02*
X26440476Y-3831712D01*
X26440476Y-3831712D02*
X25983333Y-4288855D01*
X25983333Y-4288855D02*
X26478571Y-4288855D01*
X6296667Y-1319064D02*
X6258571Y-1357160D01*
X6258571Y-1357160D02*
X6144286Y-1395255D01*
X6144286Y-1395255D02*
X6068095Y-1395255D01*
X6068095Y-1395255D02*
X5953809Y-1357160D01*
X5953809Y-1357160D02*
X5877619Y-1280969D01*
X5877619Y-1280969D02*
X5839524Y-1204779D01*
X5839524Y-1204779D02*
X5801428Y-1052398D01*
X5801428Y-1052398D02*
X5801428Y-938112D01*
X5801428Y-938112D02*
X5839524Y-785731D01*
X5839524Y-785731D02*
X5877619Y-709540D01*
X5877619Y-709540D02*
X5953809Y-633350D01*
X5953809Y-633350D02*
X6068095Y-595255D01*
X6068095Y-595255D02*
X6144286Y-595255D01*
X6144286Y-595255D02*
X6258571Y-633350D01*
X6258571Y-633350D02*
X6296667Y-671445D01*
X7058571Y-1395255D02*
X6601428Y-1395255D01*
X6830000Y-1395255D02*
X6830000Y-595255D01*
X6830000Y-595255D02*
X6753809Y-709540D01*
X6753809Y-709540D02*
X6677619Y-785731D01*
X6677619Y-785731D02*
X6601428Y-823826D01*
X31640476Y-898855D02*
X31640476Y-1546474D01*
X31640476Y-1546474D02*
X31678571Y-1622664D01*
X31678571Y-1622664D02*
X31716666Y-1660760D01*
X31716666Y-1660760D02*
X31792857Y-1698855D01*
X31792857Y-1698855D02*
X31945238Y-1698855D01*
X31945238Y-1698855D02*
X32021428Y-1660760D01*
X32021428Y-1660760D02*
X32059523Y-1622664D01*
X32059523Y-1622664D02*
X32097619Y-1546474D01*
X32097619Y-1546474D02*
X32097619Y-898855D01*
X32897618Y-1698855D02*
X32440475Y-1698855D01*
X32669047Y-1698855D02*
X32669047Y-898855D01*
X32669047Y-898855D02*
X32592856Y-1013140D01*
X32592856Y-1013140D02*
X32516666Y-1089331D01*
X32516666Y-1089331D02*
X32440475Y-1127426D01*
X2483333Y-4563855D02*
X2483333Y-5135283D01*
X2483333Y-5135283D02*
X2445238Y-5249569D01*
X2445238Y-5249569D02*
X2369047Y-5325760D01*
X2369047Y-5325760D02*
X2254762Y-5363855D01*
X2254762Y-5363855D02*
X2178571Y-5363855D01*
X2826190Y-4640045D02*
X2864286Y-4601950D01*
X2864286Y-4601950D02*
X2940476Y-4563855D01*
X2940476Y-4563855D02*
X3130952Y-4563855D01*
X3130952Y-4563855D02*
X3207143Y-4601950D01*
X3207143Y-4601950D02*
X3245238Y-4640045D01*
X3245238Y-4640045D02*
X3283333Y-4716236D01*
X3283333Y-4716236D02*
X3283333Y-4792426D01*
X3283333Y-4792426D02*
X3245238Y-4906712D01*
X3245238Y-4906712D02*
X2788095Y-5363855D01*
X2788095Y-5363855D02*
X3283333Y-5363855D01*
X18289524Y-5818555D02*
X18289524Y-5018555D01*
X18289524Y-5018555D02*
X18480000Y-5018555D01*
X18480000Y-5018555D02*
X18594286Y-5056650D01*
X18594286Y-5056650D02*
X18670476Y-5132840D01*
X18670476Y-5132840D02*
X18708571Y-5209031D01*
X18708571Y-5209031D02*
X18746667Y-5361412D01*
X18746667Y-5361412D02*
X18746667Y-5475698D01*
X18746667Y-5475698D02*
X18708571Y-5628079D01*
X18708571Y-5628079D02*
X18670476Y-5704269D01*
X18670476Y-5704269D02*
X18594286Y-5780460D01*
X18594286Y-5780460D02*
X18480000Y-5818555D01*
X18480000Y-5818555D02*
X18289524Y-5818555D01*
X19051428Y-5094745D02*
X19089524Y-5056650D01*
X19089524Y-5056650D02*
X19165714Y-5018555D01*
X19165714Y-5018555D02*
X19356190Y-5018555D01*
X19356190Y-5018555D02*
X19432381Y-5056650D01*
X19432381Y-5056650D02*
X19470476Y-5094745D01*
X19470476Y-5094745D02*
X19508571Y-5170936D01*
X19508571Y-5170936D02*
X19508571Y-5247126D01*
X19508571Y-5247126D02*
X19470476Y-5361412D01*
X19470476Y-5361412D02*
X19013333Y-5818555D01*
X19013333Y-5818555D02*
X19508571Y-5818555D01*
X23056666Y-1044807D02*
X23323332Y-1044807D01*
X23437618Y-1463855D02*
X23056666Y-1463855D01*
X23056666Y-1463855D02*
X23056666Y-663855D01*
X23056666Y-663855D02*
X23437618Y-663855D01*
X23742380Y-1425760D02*
X23856666Y-1463855D01*
X23856666Y-1463855D02*
X24047142Y-1463855D01*
X24047142Y-1463855D02*
X24123333Y-1425760D01*
X24123333Y-1425760D02*
X24161428Y-1387664D01*
X24161428Y-1387664D02*
X24199523Y-1311474D01*
X24199523Y-1311474D02*
X24199523Y-1235283D01*
X24199523Y-1235283D02*
X24161428Y-1159093D01*
X24161428Y-1159093D02*
X24123333Y-1120998D01*
X24123333Y-1120998D02*
X24047142Y-1082902D01*
X24047142Y-1082902D02*
X23894761Y-1044807D01*
X23894761Y-1044807D02*
X23818571Y-1006712D01*
X23818571Y-1006712D02*
X23780476Y-968617D01*
X23780476Y-968617D02*
X23742380Y-892426D01*
X23742380Y-892426D02*
X23742380Y-816236D01*
X23742380Y-816236D02*
X23780476Y-740045D01*
X23780476Y-740045D02*
X23818571Y-701950D01*
X23818571Y-701950D02*
X23894761Y-663855D01*
X23894761Y-663855D02*
X24085238Y-663855D01*
X24085238Y-663855D02*
X24199523Y-701950D01*
X24542381Y-1463855D02*
X24542381Y-663855D01*
X24542381Y-663855D02*
X24732857Y-663855D01*
X24732857Y-663855D02*
X24847143Y-701950D01*
X24847143Y-701950D02*
X24923333Y-778140D01*
X24923333Y-778140D02*
X24961428Y-854331D01*
X24961428Y-854331D02*
X24999524Y-1006712D01*
X24999524Y-1006712D02*
X24999524Y-1120998D01*
X24999524Y-1120998D02*
X24961428Y-1273379D01*
X24961428Y-1273379D02*
X24923333Y-1349569D01*
X24923333Y-1349569D02*
X24847143Y-1425760D01*
X24847143Y-1425760D02*
X24732857Y-1463855D01*
X24732857Y-1463855D02*
X24542381Y-1463855D01*
X25761428Y-1463855D02*
X25304285Y-1463855D01*
X25532857Y-1463855D02*
X25532857Y-663855D01*
X25532857Y-663855D02*
X25456666Y-778140D01*
X25456666Y-778140D02*
X25380476Y-854331D01*
X25380476Y-854331D02*
X25304285Y-892426D01*
X16960475Y-8825760D02*
X17074761Y-8863855D01*
X17074761Y-8863855D02*
X17265237Y-8863855D01*
X17265237Y-8863855D02*
X17341428Y-8825760D01*
X17341428Y-8825760D02*
X17379523Y-8787664D01*
X17379523Y-8787664D02*
X17417618Y-8711474D01*
X17417618Y-8711474D02*
X17417618Y-8635283D01*
X17417618Y-8635283D02*
X17379523Y-8559093D01*
X17379523Y-8559093D02*
X17341428Y-8520998D01*
X17341428Y-8520998D02*
X17265237Y-8482902D01*
X17265237Y-8482902D02*
X17112856Y-8444807D01*
X17112856Y-8444807D02*
X17036666Y-8406712D01*
X17036666Y-8406712D02*
X16998571Y-8368617D01*
X16998571Y-8368617D02*
X16960475Y-8292426D01*
X16960475Y-8292426D02*
X16960475Y-8216236D01*
X16960475Y-8216236D02*
X16998571Y-8140045D01*
X16998571Y-8140045D02*
X17036666Y-8101950D01*
X17036666Y-8101950D02*
X17112856Y-8063855D01*
X17112856Y-8063855D02*
X17303333Y-8063855D01*
X17303333Y-8063855D02*
X17417618Y-8101950D01*
X17760476Y-8863855D02*
X17760476Y-8063855D01*
X17760476Y-8063855D02*
X18065238Y-8063855D01*
X18065238Y-8063855D02*
X18141428Y-8101950D01*
X18141428Y-8101950D02*
X18179523Y-8140045D01*
X18179523Y-8140045D02*
X18217619Y-8216236D01*
X18217619Y-8216236D02*
X18217619Y-8330521D01*
X18217619Y-8330521D02*
X18179523Y-8406712D01*
X18179523Y-8406712D02*
X18141428Y-8444807D01*
X18141428Y-8444807D02*
X18065238Y-8482902D01*
X18065238Y-8482902D02*
X17760476Y-8482902D01*
X18903333Y-8330521D02*
X18903333Y-8863855D01*
X18712857Y-8025760D02*
X18522380Y-8597188D01*
X18522380Y-8597188D02*
X19017619Y-8597188D01*
X13639524Y-6696655D02*
X13639524Y-5896655D01*
X13639524Y-5896655D02*
X13830000Y-5896655D01*
X13830000Y-5896655D02*
X13944286Y-5934750D01*
X13944286Y-5934750D02*
X14020476Y-6010940D01*
X14020476Y-6010940D02*
X14058571Y-6087131D01*
X14058571Y-6087131D02*
X14096667Y-6239512D01*
X14096667Y-6239512D02*
X14096667Y-6353798D01*
X14096667Y-6353798D02*
X14058571Y-6506179D01*
X14058571Y-6506179D02*
X14020476Y-6582369D01*
X14020476Y-6582369D02*
X13944286Y-6658560D01*
X13944286Y-6658560D02*
X13830000Y-6696655D01*
X13830000Y-6696655D02*
X13639524Y-6696655D01*
X14363333Y-5896655D02*
X14858571Y-5896655D01*
X14858571Y-5896655D02*
X14591905Y-6201417D01*
X14591905Y-6201417D02*
X14706190Y-6201417D01*
X14706190Y-6201417D02*
X14782381Y-6239512D01*
X14782381Y-6239512D02*
X14820476Y-6277607D01*
X14820476Y-6277607D02*
X14858571Y-6353798D01*
X14858571Y-6353798D02*
X14858571Y-6544274D01*
X14858571Y-6544274D02*
X14820476Y-6620464D01*
X14820476Y-6620464D02*
X14782381Y-6658560D01*
X14782381Y-6658560D02*
X14706190Y-6696655D01*
X14706190Y-6696655D02*
X14477619Y-6696655D01*
X14477619Y-6696655D02*
X14401428Y-6658560D01*
X14401428Y-6658560D02*
X14363333Y-6620464D01*
X6423809Y-8062045D02*
X6347619Y-8023950D01*
X6347619Y-8023950D02*
X6271428Y-7947760D01*
X6271428Y-7947760D02*
X6157142Y-7833474D01*
X6157142Y-7833474D02*
X6080952Y-7795379D01*
X6080952Y-7795379D02*
X6004761Y-7795379D01*
X6042857Y-7985855D02*
X5966666Y-7947760D01*
X5966666Y-7947760D02*
X5890476Y-7871569D01*
X5890476Y-7871569D02*
X5852380Y-7719188D01*
X5852380Y-7719188D02*
X5852380Y-7452521D01*
X5852380Y-7452521D02*
X5890476Y-7300140D01*
X5890476Y-7300140D02*
X5966666Y-7223950D01*
X5966666Y-7223950D02*
X6042857Y-7185855D01*
X6042857Y-7185855D02*
X6195238Y-7185855D01*
X6195238Y-7185855D02*
X6271428Y-7223950D01*
X6271428Y-7223950D02*
X6347619Y-7300140D01*
X6347619Y-7300140D02*
X6385714Y-7452521D01*
X6385714Y-7452521D02*
X6385714Y-7719188D01*
X6385714Y-7719188D02*
X6347619Y-7871569D01*
X6347619Y-7871569D02*
X6271428Y-7947760D01*
X6271428Y-7947760D02*
X6195238Y-7985855D01*
X6195238Y-7985855D02*
X6042857Y-7985855D01*
X7147618Y-7985855D02*
X6690475Y-7985855D01*
X6919047Y-7985855D02*
X6919047Y-7185855D01*
X6919047Y-7185855D02*
X6842856Y-7300140D01*
X6842856Y-7300140D02*
X6766666Y-7376331D01*
X6766666Y-7376331D02*
X6690475Y-7414426D01*
X16301667Y-3918655D02*
X16035000Y-3537702D01*
X15844524Y-3918655D02*
X15844524Y-3118655D01*
X15844524Y-3118655D02*
X16149286Y-3118655D01*
X16149286Y-3118655D02*
X16225476Y-3156750D01*
X16225476Y-3156750D02*
X16263571Y-3194845D01*
X16263571Y-3194845D02*
X16301667Y-3271036D01*
X16301667Y-3271036D02*
X16301667Y-3385321D01*
X16301667Y-3385321D02*
X16263571Y-3461512D01*
X16263571Y-3461512D02*
X16225476Y-3499607D01*
X16225476Y-3499607D02*
X16149286Y-3537702D01*
X16149286Y-3537702D02*
X15844524Y-3537702D01*
X16987381Y-3118655D02*
X16835000Y-3118655D01*
X16835000Y-3118655D02*
X16758809Y-3156750D01*
X16758809Y-3156750D02*
X16720714Y-3194845D01*
X16720714Y-3194845D02*
X16644524Y-3309131D01*
X16644524Y-3309131D02*
X16606428Y-3461512D01*
X16606428Y-3461512D02*
X16606428Y-3766274D01*
X16606428Y-3766274D02*
X16644524Y-3842464D01*
X16644524Y-3842464D02*
X16682619Y-3880560D01*
X16682619Y-3880560D02*
X16758809Y-3918655D01*
X16758809Y-3918655D02*
X16911190Y-3918655D01*
X16911190Y-3918655D02*
X16987381Y-3880560D01*
X16987381Y-3880560D02*
X17025476Y-3842464D01*
X17025476Y-3842464D02*
X17063571Y-3766274D01*
X17063571Y-3766274D02*
X17063571Y-3575798D01*
X17063571Y-3575798D02*
X17025476Y-3499607D01*
X17025476Y-3499607D02*
X16987381Y-3461512D01*
X16987381Y-3461512D02*
X16911190Y-3423417D01*
X16911190Y-3423417D02*
X16758809Y-3423417D01*
X16758809Y-3423417D02*
X16682619Y-3461512D01*
X16682619Y-3461512D02*
X16644524Y-3499607D01*
X16644524Y-3499607D02*
X16606428Y-3575798D01*
%TO.C,C7*%
X26942164Y-6340000D02*
X27157836Y-6340000D01*
X26942164Y-7060000D02*
X27157836Y-7060000D01*
%TD*%
M02*
