%TF.GenerationSoftware,KiCad,Pcbnew,9.0.8-9.0.8~ubuntu24.04.1*%
%TF.CreationDate,2026-06-29T20:47:15-04:00*%
%TF.ProjectId,ring,72696e67-2e6b-4696-9361-645f70636258,rev?*%
%TF.SameCoordinates,Original*%
%TF.FileFunction,Other,User*%
%FSLAX46Y46*%
G04 Gerber Fmt 4.6, Leading zero omitted, Abs format (unit mm)*
G04 Created by KiCad (PCBNEW 9.0.8-9.0.8~ubuntu24.04.1) date 2026-06-29 20:47:15*
%MOMM*%
%LPD*%
G01*
G04 APERTURE LIST*
%ADD10C,0.050000*%
G04 APERTURE END LIST*
%TO.C,U2*%
D10*
X12350000Y-3082800D02*
X15350000Y-3082800D01*
X15350000Y-6582800D01*
X12350000Y-6582800D01*
X12350000Y-3082800D01*
%TO.C,R3*%
X26870000Y-5682800D02*
X28370000Y-5682800D01*
X28370000Y-6682800D01*
X26870000Y-6682800D01*
X26870000Y-5682800D01*
%TO.C,D2*%
X15700000Y-6504700D02*
X17700000Y-6504700D01*
X17700000Y-4404700D01*
X15700000Y-4404700D01*
X15700000Y-6504700D01*
%TO.C,SP2*%
X2400000Y-7375000D02*
X5600000Y-7375000D01*
X5600000Y-9625000D01*
X2400000Y-9625000D01*
X2400000Y-7375000D01*
%TO.C,R8*%
X2760000Y-6830200D02*
X3760000Y-6830200D01*
X3760000Y-5330200D01*
X2760000Y-5330200D01*
X2760000Y-6830200D01*
%TO.C,R6*%
X11000000Y-4825400D02*
X12000000Y-4825400D01*
X12000000Y-3325400D01*
X11000000Y-3325400D01*
X11000000Y-4825400D01*
%TO.C,SWD4*%
X33500000Y-8500000D02*
X35000000Y-8500000D01*
X35000000Y-10000000D01*
X33500000Y-10000000D01*
X33500000Y-8500000D01*
%TO.C,R7*%
X9650000Y-4825400D02*
X10650000Y-4825400D01*
X10650000Y-3325400D01*
X9650000Y-3325400D01*
X9650000Y-4825400D01*
%TO.C,SWD1*%
X26000000Y-8500000D02*
X27500000Y-8500000D01*
X27500000Y-10000000D01*
X26000000Y-10000000D01*
X26000000Y-8500000D01*
%TO.C,ESD2*%
X5850000Y-6319100D02*
X6950000Y-6319100D01*
X6950000Y-4819100D01*
X5850000Y-4819100D01*
X5850000Y-6319100D01*
%TO.C,D3*%
X11050000Y-9032800D02*
X13050000Y-9032800D01*
X13050000Y-6932800D01*
X11050000Y-6932800D01*
X11050000Y-9032800D01*
%TO.C,U1*%
X28750000Y-1500000D02*
X35750000Y-1500000D01*
X35750000Y-8500000D01*
X28750000Y-8500000D01*
X28750000Y-1500000D01*
%TO.C,SP4*%
X13400000Y-7375000D02*
X16600000Y-7375000D01*
X16600000Y-9625000D01*
X13400000Y-9625000D01*
X13400000Y-7375000D01*
%TO.C,SP3*%
X13400000Y-375000D02*
X16600000Y-375000D01*
X16600000Y-2625000D01*
X13400000Y-2625000D01*
X13400000Y-375000D01*
%TO.C,SP1*%
X2400000Y-375000D02*
X5600000Y-375000D01*
X5600000Y-2625000D01*
X2400000Y-2625000D01*
X2400000Y-375000D01*
%TO.C,R5*%
X4640000Y-3355400D02*
X6140000Y-3355400D01*
X6140000Y-4355400D01*
X4640000Y-4355400D01*
X4640000Y-3355400D01*
%TO.C,C8*%
X4487500Y-6849100D02*
X5487500Y-6849100D01*
X5487500Y-5349100D01*
X4487500Y-5349100D01*
X4487500Y-6849100D01*
%TO.C,D1*%
X9775000Y-682800D02*
X12975000Y-682800D01*
X12975000Y-2732800D01*
X9775000Y-2732800D01*
X9775000Y-682800D01*
%TO.C,C7*%
X2630000Y-3278900D02*
X4130000Y-3278900D01*
X4130000Y-4278900D01*
X2630000Y-4278900D01*
X2630000Y-3278900D01*
%TO.C,SWD2*%
X28500000Y-8500000D02*
X30000000Y-8500000D01*
X30000000Y-10000000D01*
X28500000Y-10000000D01*
X28500000Y-8500000D01*
%TO.C,J2*%
X2250000Y-2500000D02*
X250000Y-2500000D01*
X250000Y-7500000D01*
X2250000Y-7500000D01*
X2250000Y-2500000D01*
%TO.C,R1*%
X26330000Y-4332800D02*
X27830000Y-4332800D01*
X27830000Y-5332800D01*
X26330000Y-5332800D01*
X26330000Y-4332800D01*
%TO.C,ESD1*%
X6550000Y-2019100D02*
X8050000Y-2019100D01*
X8050000Y-3119100D01*
X6550000Y-3119100D01*
X6550000Y-2019100D01*
%TO.C,C2*%
X7050000Y-669100D02*
X8550000Y-669100D01*
X8550000Y-1669100D01*
X7050000Y-1669100D01*
X7050000Y-669100D01*
%TO.C,R4*%
X6550000Y-3469100D02*
X8050000Y-3469100D01*
X8050000Y-4469100D01*
X6550000Y-4469100D01*
X6550000Y-3469100D01*
%TO.C,SWD3*%
X31000000Y-8500000D02*
X32500000Y-8500000D01*
X32500000Y-10000000D01*
X31000000Y-10000000D01*
X31000000Y-8500000D01*
%TO.C,J1*%
X35750000Y-7000000D02*
X37750000Y-7000000D01*
X37750000Y-3000000D01*
X35750000Y-3000000D01*
X35750000Y-7000000D01*
%TO.C,C1*%
X26330000Y-1232800D02*
X27830000Y-1232800D01*
X27830000Y-2232800D01*
X26330000Y-2232800D01*
X26330000Y-1232800D01*
%TO.C,R2*%
X26330000Y-2982800D02*
X27830000Y-2982800D01*
X27830000Y-3982800D01*
X26330000Y-3982800D01*
X26330000Y-2982800D01*
%TO.C,Q1*%
X7300000Y-7877400D02*
X10700000Y-7877400D01*
X10700000Y-6077400D01*
X7300000Y-6077400D01*
X7300000Y-7877400D01*
%TD*%
M02*
