M48
; DRILL file {KiCad 9.0.8-9.0.8~ubuntu24.04.1} date 2026-08-12T22:44:14-0400
; FORMAT={-:-/ absolute / metric / decimal}
; #@! TF.CreationDate,2026-08-12T22:44:14-04:00
; #@! TF.GenerationSoftware,Kicad,Pcbnew,9.0.8-9.0.8~ubuntu24.04.1
; #@! TF.FileFunction,MixedPlating,1,2
FMAT,2
METRIC
; #@! TA.AperFunction,Plated,PTH,ViaDrill
T1C0.150
%
G90
G05
T1
X1.25Y-4.75
X1.8Y-5.75
X2.15Y-4.15
X2.7Y-5.55
X2.9Y-8.5
X3.35Y-5.55
X3.35Y-8.35
X4.88Y-3.855
X5.4Y-3.05
X6.8Y-3.95
X6.85Y-2.55
X7.81Y-3.969
X8.45Y-2.5
X9.0Y-1.7
X9.0Y-5.606
X10.2Y-3.55
X10.2Y-7.45
X10.75Y-8.25
X10.85Y-4.1
X11.0Y-1.0
X11.55Y-4.6
X11.55Y-7.2
X12.6Y-3.05
X12.75Y-8.2
X13.2Y-2.6
X13.3Y-3.833
X13.4Y-4.4
X13.85Y-4.833
X13.85Y-5.45
X14.1Y-2.825
X14.15Y-8.5
X15.4Y-3.25
X15.4Y-4.2
X15.4Y-4.85
X16.1Y-2.05
X16.2Y-6.255
X16.2Y-7.25
X17.05Y-2.05
X17.2Y-6.255
X17.852Y-5.636
X18.0Y-3.3
X18.0Y-5.15
X21.8Y-3.3
X21.8Y-4.5
X25.4Y-9.25
X25.625Y-2.925
X26.55Y-1.75
X26.55Y-3.5
X26.57Y-4.833
X27.1Y-6.2
X27.55Y-2.5
X27.59Y-3.483
X27.6Y-1.8
X27.7Y-6.9
X28.15Y-6.2
X28.25Y-1.65
X28.8Y-7.75
X28.85Y-2.925
X28.85Y-3.475
X29.25Y-9.25
X29.41Y-5.052
X29.41Y-5.702
X29.41Y-7.652
X29.975Y-2.925
X30.05Y-7.85
X30.06Y-6.677
X30.15Y-9.15
X30.7Y-6.55
X32.5Y-1.15
X32.575Y-7.19
X32.9Y-2.925
X32.9Y-3.565
X33.8Y-7.2
X34.25Y-8.423
X34.45Y-2.95
X35.15Y-2.4
X35.15Y-8.4
X36.35Y-4.75
M30
