M48
; DRILL file {KiCad 9.0.8-9.0.8~ubuntu24.04.1} date 2026-06-29T20:47:28-0400
; FORMAT={-:-/ absolute / metric / decimal}
; #@! TF.CreationDate,2026-06-29T20:47:28-04:00
; #@! TF.GenerationSoftware,Kicad,Pcbnew,9.0.8-9.0.8~ubuntu24.04.1
; #@! TF.FileFunction,MixedPlating,1,2
FMAT,2
METRIC
; #@! TA.AperFunction,Plated,PTH,ViaDrill
T1C0.150
%
G90
G05
T1
X1.25Y-4.75
X2.3Y-3.0
X2.9Y-3.8
X3.9Y-3.8
X3.9Y-5.15
X5.75Y-5.975
X5.85Y-0.5
X5.9Y-3.855
X7.15Y-5.75
X7.35Y-5.15
X7.75Y-2.55
X8.3Y-1.25
X8.3Y-7.35
X9.0Y-5.606
X9.1Y-1.7
X9.95Y-8.348
X10.475Y-5.6
X10.8Y-8.35
X10.95Y-0.95
X11.4Y-0.5
X11.55Y-4.6
X11.55Y-7.2
X12.0Y-6.1
X13.2Y-9.5
X13.25Y-0.9
X13.25Y-8.6
X13.3Y-7.375
X13.6Y-4.333
X13.9Y-8.5
X14.4Y-6.4
X14.6Y-3.3
X14.85Y-4.85
X14.85Y-5.85
X15.4Y-4.85
X15.85Y-1.5
X15.85Y-3.35
X15.85Y-6.9
X16.2Y-4.6
X16.2Y-6.255
X16.75Y-0.45
X17.05Y-7.65
X17.2Y-4.655
X17.2Y-5.6
X18.3Y-1.5
X18.3Y-5.7
X24.6Y-0.9
X24.6Y-7.2
X25.05Y-9.25
X25.4Y-0.45
X25.5Y-2.8
X25.5Y-3.6
X25.5Y-4.15
X25.5Y-5.7
X26.4Y-5.7
X27.59Y-4.833
X28.15Y-6.2
X28.2Y-3.5
X28.4Y-7.2
X28.85Y-6.75
X29.15Y-1.55
X29.344Y-6.775
X29.41Y-5.052
X29.41Y-5.702
X29.41Y-7.652
X30.05Y-2.75
X30.06Y-6.677
X30.35Y-7.85
X30.7Y-6.55
X30.85Y-9.25
X30.95Y-7.84
X30.95Y-8.35
X31.925Y-3.565
X31.925Y-7.19
X32.35Y-2.75
X33.05Y-9.15
X33.35Y-2.8
X33.5Y-3.55
X33.55Y-7.2
X34.25Y-8.423
X34.45Y-0.7
X35.2Y-2.8
X35.2Y-8.4
X36.4Y-4.75
M30
