%TF.GenerationSoftware,KiCad,Pcbnew,9.0.8-9.0.8~ubuntu24.04.1*%
%TF.CreationDate,2026-06-29T14:41:35-04:00*%
%TF.ProjectId,ring,72696e67-2e6b-4696-9361-645f70636258,rev?*%
%TF.SameCoordinates,Original*%
%TF.FileFunction,Copper,L1,Top*%
%TF.FilePolarity,Positive*%
%FSLAX46Y46*%
G04 Gerber Fmt 4.6, Leading zero omitted, Abs format (unit mm)*
G04 Created by KiCad (PCBNEW 9.0.8-9.0.8~ubuntu24.04.1) date 2026-06-29 14:41:35*
%MOMM*%
%LPD*%
G01*
G04 APERTURE LIST*
G04 Aperture macros list*
%AMRoundRect*
0 Rectangle with rounded corners*
0 $1 Rounding radius*
0 $2 $3 $4 $5 $6 $7 $8 $9 X,Y pos of 4 corners*
0 Add a 4 corners polygon primitive as box body*
4,1,4,$2,$3,$4,$5,$6,$7,$8,$9,$2,$3,0*
0 Add four circle primitives for the rounded corners*
1,1,$1+$1,$2,$3*
1,1,$1+$1,$4,$5*
1,1,$1+$1,$6,$7*
1,1,$1+$1,$8,$9*
0 Add four rect primitives between the rounded corners*
20,1,$1+$1,$2,$3,$4,$5,0*
20,1,$1+$1,$4,$5,$6,$7,0*
20,1,$1+$1,$6,$7,$8,$9,0*
20,1,$1+$1,$8,$9,$2,$3,0*%
G04 Aperture macros list end*
%TA.AperFunction,SMDPad,CuDef*%
%ADD10RoundRect,0.140000X-0.140000X-0.170000X0.140000X-0.170000X0.140000X0.170000X-0.140000X0.170000X0*%
%TD*%
%TA.AperFunction,SMDPad,CuDef*%
%ADD11R,1.000000X1.000000*%
%TD*%
%TA.AperFunction,SMDPad,CuDef*%
%ADD12RoundRect,0.135000X-0.135000X-0.185000X0.135000X-0.185000X0.135000X0.185000X-0.135000X0.185000X0*%
%TD*%
%TA.AperFunction,SMDPad,CuDef*%
%ADD13R,1.000000X1.750000*%
%TD*%
%TA.AperFunction,SMDPad,CuDef*%
%ADD14R,0.450000X0.450000*%
%TD*%
%TA.AperFunction,SMDPad,CuDef*%
%ADD15R,0.500000X0.500000*%
%TD*%
%TA.AperFunction,SMDPad,CuDef*%
%ADD16R,1.000000X0.250000*%
%TD*%
%TA.AperFunction,SMDPad,CuDef*%
%ADD17R,1.200000X0.800000*%
%TD*%
%TA.AperFunction,SMDPad,CuDef*%
%ADD18R,0.800000X0.500000*%
%TD*%
%TA.AperFunction,SMDPad,CuDef*%
%ADD19R,0.600000X0.550000*%
%TD*%
%TA.AperFunction,SMDPad,CuDef*%
%ADD20RoundRect,0.200500X-0.200500X-0.285500X0.200500X-0.285500X0.200500X0.285500X-0.200500X0.285500X0*%
%TD*%
%TA.AperFunction,SMDPad,CuDef*%
%ADD21RoundRect,0.212500X-0.212500X-0.212500X0.212500X-0.212500X0.212500X0.212500X-0.212500X0.212500X0*%
%TD*%
%TA.AperFunction,SMDPad,CuDef*%
%ADD22R,0.350000X0.300000*%
%TD*%
%TA.AperFunction,ViaPad*%
%ADD23C,0.400000*%
%TD*%
%TA.AperFunction,Conductor*%
%ADD24C,0.150000*%
%TD*%
G04 APERTURE END LIST*
D10*
%TO.P,C7,1*%
%TO.N,QVAR1*%
X26570000Y-6700000D03*
%TO.P,C7,2*%
%TO.N,GND*%
X27530000Y-6700000D03*
%TD*%
D11*
%TO.P,SWD2,1*%
%TO.N,SWDCLK*%
X29250000Y-9250000D03*
%TD*%
D12*
%TO.P,R3,1*%
%TO.N,VBUS*%
X36750000Y-1962800D03*
%TO.P,R3,2*%
%TO.N,VBAT*%
X36750000Y-942800D03*
%TD*%
D13*
%TO.P,SP3,1*%
%TO.N,VBAT*%
X14150000Y-1500000D03*
%TO.P,SP3,2*%
X15850000Y-1500000D03*
%TD*%
D11*
%TO.P,SWD1,1*%
%TO.N,SWDIO*%
X26750000Y-9250000D03*
%TD*%
D12*
%TO.P,R4,1*%
%TO.N,QVAR1_RAW*%
X5640000Y-5000000D03*
%TO.P,R4,2*%
%TO.N,QVAR1*%
X6660000Y-5000000D03*
%TD*%
%TO.P,R2,1*%
%TO.N,VBAT*%
X27350000Y-4435000D03*
%TO.P,R2,2*%
%TO.N,SCL*%
X27350000Y-3415000D03*
%TD*%
%TO.P,C1,1*%
%TO.N,VBAT*%
X7980000Y-1031400D03*
%TO.P,C1,2*%
%TO.N,GND*%
X9000000Y-1031400D03*
%TD*%
%TO.P,R1,1*%
%TO.N,VBAT*%
X36370000Y-7850000D03*
%TO.P,R1,2*%
%TO.N,SDA*%
X37390000Y-7850000D03*
%TD*%
D14*
%TO.P,U1,1*%
%TO.N,GND*%
X29410000Y-2160000D03*
%TO.P,U1,2*%
X29410000Y-2810000D03*
%TO.P,U1,3*%
X29410000Y-3752000D03*
%TO.P,U1,4*%
X29410000Y-4402000D03*
%TO.P,U1,5*%
%TO.N,ANT*%
X29410000Y-5052000D03*
%TO.P,U1,6*%
X29410000Y-5702000D03*
%TO.P,U1,7*%
%TO.N,GND*%
X29410000Y-6352000D03*
%TO.P,U1,8*%
X29410000Y-7002000D03*
%TO.P,U1,9*%
%TO.N,VBAT*%
X29410000Y-7652000D03*
%TO.P,U1,10*%
%TO.N,GND*%
X30060000Y-4727000D03*
%TO.P,U1,11*%
X30060000Y-5377000D03*
%TO.P,U1,12*%
%TO.N,N/C*%
X30060000Y-6027000D03*
%TO.P,U1,13*%
%TO.N,SCL*%
X30060000Y-6677000D03*
%TO.P,U1,14*%
%TO.N,SDA*%
X30300000Y-7840000D03*
%TO.P,U1,15*%
%TO.N,HAPTIC_EN*%
X30950000Y-7840000D03*
%TO.P,U1,16*%
%TO.N,N/C*%
X31600000Y-7840000D03*
%TO.P,U1,17*%
X32250000Y-7840000D03*
%TO.P,U1,18*%
X32900000Y-7840000D03*
%TO.P,U1,19*%
X33550000Y-7840000D03*
%TO.P,U1,20*%
X34200000Y-7840000D03*
%TO.P,U1,21*%
X31275000Y-7190000D03*
%TO.P,U1,22*%
%TO.N,LED_RED*%
X31925000Y-7190000D03*
%TO.P,U1,23*%
%TO.N,IMU_INT*%
X32575000Y-7190000D03*
%TO.P,U1,24*%
%TO.N,LED_GREEN*%
X33225000Y-7190000D03*
%TO.P,U1,25*%
%TO.N,N/C*%
X35090000Y-7652000D03*
%TO.P,U1,26*%
X35090000Y-7002000D03*
%TO.P,U1,27*%
X35090000Y-6352000D03*
%TO.P,U1,28*%
X35090000Y-5702000D03*
%TO.P,U1,29*%
X35090000Y-5052000D03*
%TO.P,U1,30*%
X35090000Y-4402000D03*
%TO.P,U1,31*%
X35090000Y-3752000D03*
%TO.P,U1,32*%
%TO.N,GND*%
X35090000Y-2810000D03*
%TO.P,U1,33*%
X35090000Y-2160000D03*
%TO.P,U1,34*%
%TO.N,N/C*%
X34440000Y-6677000D03*
%TO.P,U1,35*%
X34440000Y-6027000D03*
%TO.P,U1,36*%
X34440000Y-5377000D03*
%TO.P,U1,37*%
X34440000Y-4727000D03*
%TO.P,U1,38*%
X34200000Y-3565000D03*
%TO.P,U1,39*%
%TO.N,SWDCLK*%
X33550000Y-3565000D03*
%TO.P,U1,40*%
%TO.N,SWDIO*%
X32900000Y-3565000D03*
%TO.P,U1,41*%
%TO.N,GND*%
X32250000Y-3565000D03*
%TO.P,U1,42*%
X31600000Y-3565000D03*
%TO.P,U1,43*%
X30950000Y-3565000D03*
%TO.P,U1,44*%
X30300000Y-3565000D03*
%TO.P,U1,45*%
%TO.N,N/C*%
X33225000Y-4215000D03*
%TO.P,U1,46*%
%TO.N,GND*%
X32575000Y-4215000D03*
%TO.P,U1,47*%
X31925000Y-4215000D03*
%TO.P,U1,48*%
X31275000Y-4215000D03*
D15*
%TO.P,U1,49*%
X31730000Y-5252000D03*
%TO.P,U1,50*%
X31730000Y-6152000D03*
%TO.P,U1,51*%
X32770000Y-5252000D03*
%TO.P,U1,52*%
X32770000Y-6152000D03*
%TD*%
D16*
%TO.P,J2,1*%
%TO.N,QVAR1_RAW*%
X1250000Y-4250000D03*
%TO.P,J2,2*%
%TO.N,QVAR2_RAW*%
X1250000Y-4750000D03*
%TO.P,J2,3*%
%TO.N,GND*%
X1250000Y-5250000D03*
%TO.P,J2,4*%
X1250000Y-5750000D03*
D17*
%TO.P,J2,MP1*%
%TO.N,N/C*%
X1250000Y-3150000D03*
%TO.P,J2,MP2*%
X1250000Y-6850000D03*
%TD*%
D12*
%TO.P,R5,1*%
%TO.N,QVAR2_RAW*%
X7980000Y-4291400D03*
%TO.P,R5,2*%
%TO.N,QVAR2*%
X9000000Y-4291400D03*
%TD*%
D18*
%TO.P,D2,GA*%
%TO.N,LED_RED_A*%
X16200000Y-6254700D03*
%TO.P,D2,GK*%
%TO.N,LED_GREEN_A*%
X16200000Y-4654700D03*
%TO.P,D2,RA*%
%TO.N,LED_RED*%
X17200000Y-6254700D03*
%TO.P,D2,RK*%
%TO.N,LED_GREEN*%
X17200000Y-4654700D03*
%TD*%
D19*
%TO.P,ESD2,A*%
%TO.N,QVAR2*%
X4860000Y-3600000D03*
%TO.P,ESD2,K*%
%TO.N,GND*%
X5660000Y-3600000D03*
%TD*%
D16*
%TO.P,J1,1*%
%TO.N,VBUS*%
X36750000Y-5250000D03*
%TO.P,J1,2*%
%TO.N,GND*%
X36750000Y-4750000D03*
D17*
%TO.P,J1,MP1*%
%TO.N,N/C*%
X36750000Y-6350000D03*
%TO.P,J1,MP2*%
X36750000Y-3650000D03*
%TD*%
D19*
%TO.P,ESD1,A*%
%TO.N,QVAR1*%
X26650000Y-1100000D03*
%TO.P,ESD1,K*%
%TO.N,GND*%
X27450000Y-1100000D03*
%TD*%
D12*
%TO.P,R7,1*%
%TO.N,VBAT*%
X13763400Y-5000000D03*
%TO.P,R7,2*%
%TO.N,LED_GREEN_A*%
X14783400Y-5000000D03*
%TD*%
D13*
%TO.P,SP2,1*%
%TO.N,GND*%
X3150000Y-8500000D03*
%TO.P,SP2,2*%
X4850000Y-8500000D03*
%TD*%
D12*
%TO.P,C2,1*%
%TO.N,VBAT*%
X8490000Y-3171400D03*
%TO.P,C2,2*%
%TO.N,GND*%
X8490000Y-2151400D03*
%TD*%
D13*
%TO.P,SP4,1*%
%TO.N,MOTOR_N*%
X14150000Y-8500000D03*
%TO.P,SP4,2*%
X15850000Y-8500000D03*
%TD*%
D18*
%TO.P,D3,GA*%
%TO.N,LED_RED_A*%
X11550000Y-8782800D03*
%TO.P,D3,GK*%
%TO.N,LED_GREEN_A*%
X11550000Y-7182800D03*
%TO.P,D3,RA*%
%TO.N,LED_RED*%
X12550000Y-8782800D03*
%TO.P,D3,RK*%
%TO.N,LED_GREEN*%
X12550000Y-7182800D03*
%TD*%
D20*
%TO.P,Q1,1*%
%TO.N,HAPTIC_EN*%
X8950000Y-8993000D03*
%TO.P,Q1,2*%
%TO.N,GND*%
X7050000Y-8993000D03*
%TO.P,Q1,3*%
%TO.N,MOTOR_N*%
X8000000Y-6251000D03*
%TD*%
D12*
%TO.P,R6,1*%
%TO.N,VBAT*%
X13865000Y-3554800D03*
%TO.P,R6,2*%
%TO.N,LED_RED_A*%
X14885000Y-3554800D03*
%TD*%
D11*
%TO.P,SWD3,1*%
%TO.N,VBAT*%
X31750000Y-9250000D03*
%TD*%
D13*
%TO.P,SP1,1*%
%TO.N,VBAT*%
X3150000Y-1500000D03*
%TO.P,SP1,2*%
X4850000Y-1500000D03*
%TD*%
D11*
%TO.P,SWD4,1*%
%TO.N,GND*%
X34250000Y-9250000D03*
%TD*%
D21*
%TO.P,D1,A*%
%TO.N,MOTOR_N*%
X10125000Y-1707800D03*
%TO.P,D1,K*%
%TO.N,VBAT*%
X12625000Y-1707800D03*
%TD*%
D22*
%TO.P,U2,1*%
%TO.N,GND*%
X10550000Y-3332800D03*
%TO.P,U2,2*%
%TO.N,QVAR1*%
X10550000Y-3832800D03*
%TO.P,U2,3*%
%TO.N,QVAR2*%
X10550000Y-4332800D03*
%TO.P,U2,4*%
%TO.N,IMU_INT*%
X10550000Y-4832800D03*
%TO.P,U2,5*%
%TO.N,N/C*%
X10550000Y-5332800D03*
%TO.P,U2,6*%
%TO.N,GND*%
X10550000Y-5832800D03*
%TO.P,U2,7*%
X10550000Y-6332800D03*
%TO.P,U2,8*%
%TO.N,VBAT*%
X12550000Y-6332800D03*
%TO.P,U2,9*%
%TO.N,GND*%
X12550000Y-5832800D03*
%TO.P,U2,10*%
%TO.N,N/C*%
X12550000Y-5332800D03*
%TO.P,U2,11*%
%TO.N,VBAT*%
X12550000Y-4832800D03*
%TO.P,U2,12*%
%TO.N,SCL*%
X12550000Y-4332800D03*
%TO.P,U2,13*%
%TO.N,SDA*%
X12550000Y-3832800D03*
%TO.P,U2,14*%
%TO.N,VBAT*%
X12550000Y-3332800D03*
%TD*%
D12*
%TO.P,C8,1*%
%TO.N,QVAR2*%
X6860000Y-3880000D03*
%TO.P,C8,2*%
%TO.N,GND*%
X6860000Y-2860000D03*
%TD*%
D23*
%TO.N,GND*%
X30100000Y-4750000D03*
X7400000Y-3150000D03*
X18900000Y-7200000D03*
X29410000Y-7002000D03*
X29400000Y-6350000D03*
X36400000Y-4700000D03*
X8750000Y-1650000D03*
X31250000Y-4750000D03*
X34250000Y-8423000D03*
X12550000Y-5832800D03*
X27450000Y-6100000D03*
X3600000Y-5750000D03*
X7100000Y-2350000D03*
X10700000Y-6700000D03*
X3600000Y-3050000D03*
X16350000Y-3600000D03*
X35300000Y-2800000D03*
X27530000Y-6700000D03*
X31250000Y-1100000D03*
%TO.N,VBAT*%
X13600000Y-4850000D03*
X13150000Y-2400000D03*
X13250000Y-1700000D03*
X13350000Y-3400000D03*
X31850000Y-1000000D03*
X25350000Y-5600000D03*
X34450000Y-1000000D03*
X35900000Y-7850000D03*
X34850000Y-8300000D03*
X28750000Y-5600000D03*
X35900000Y-950000D03*
X11950000Y-6350000D03*
X11950000Y-4900000D03*
X29410000Y-7652000D03*
X28150000Y-4450000D03*
X33300000Y-8850000D03*
%TO.N,SDA*%
X30300000Y-7840000D03*
X35200000Y-9350000D03*
%TO.N,SCL*%
X27350000Y-3415000D03*
X27350000Y-2900000D03*
X30750000Y-6500000D03*
X26400000Y-2900000D03*
%TO.N,HAPTIC_EN*%
X27950000Y-7675000D03*
X18450000Y-9525000D03*
X30950000Y-7840000D03*
X18450000Y-7675000D03*
%TO.N,LED_RED*%
X31925000Y-7190000D03*
X17200000Y-6254700D03*
X30850000Y-8450000D03*
X17200000Y-7350000D03*
%TO.N,MOTOR_N*%
X8000000Y-8300000D03*
X9050000Y-8150000D03*
X9450000Y-1800000D03*
X8000000Y-6251000D03*
%TO.N,IMU_INT*%
X17300000Y-500000D03*
X32450000Y-500000D03*
X9950000Y-4850000D03*
X32575000Y-7190000D03*
%TO.N,SWDIO*%
X26750000Y-9250000D03*
X30100000Y-2300000D03*
X32950000Y-2300000D03*
X32900000Y-3565000D03*
%TO.N,SWDCLK*%
X30025000Y-2950000D03*
X33550000Y-2950000D03*
X28000000Y-9250000D03*
X28800000Y-4225000D03*
X33550000Y-3565000D03*
X27950000Y-5100000D03*
%TO.N,QVAR1*%
X10550000Y-3832800D03*
X9500000Y-5350000D03*
X25850000Y-6700000D03*
X25850000Y-1100000D03*
X16850000Y-1050000D03*
%TO.N,QVAR1_RAW*%
X5500000Y-5000000D03*
X3050000Y-4200000D03*
%TO.N,QVAR2_RAW*%
X7980000Y-4291400D03*
X7000000Y-5850000D03*
%TO.N,LED_RED_A*%
X12750000Y-8125000D03*
X16200000Y-6254700D03*
X15750000Y-3550000D03*
%TO.N,LED_GREEN_A*%
X11375000Y-6575000D03*
X13125000Y-5725000D03*
%TO.N,LED_GREEN*%
X17200000Y-5550000D03*
X34000000Y-1650000D03*
X33225000Y-7190000D03*
X16850000Y-1650000D03*
X17200000Y-4654700D03*
%TO.N,ANT*%
X29410000Y-5052000D03*
X29410000Y-5702000D03*
%TD*%
D24*
%TO.N,GND*%
X27100000Y-7300000D02*
X18900000Y-7300000D01*
X7450000Y-3050000D02*
X7450000Y-3150000D01*
X32770000Y-5252000D02*
X32770000Y-6152000D01*
X7050000Y-8500000D02*
X7050000Y-8993000D01*
X10550000Y-5832800D02*
X11000000Y-5850000D01*
X18300000Y-6100000D02*
X18300000Y-3600000D01*
X7450000Y-3050000D02*
X3600000Y-3050000D01*
X29410000Y-3752000D02*
X29410000Y-4402000D01*
X34250000Y-9250000D02*
X34250000Y-8423000D01*
X29410000Y-4402000D02*
X30550000Y-4402000D01*
X29410000Y-7002000D02*
X27100000Y-7000000D01*
X5650000Y-2350000D02*
X5660000Y-2860000D01*
X31250000Y-1100000D02*
X27450000Y-1100000D01*
X7100000Y-2350000D02*
X5650000Y-2350000D01*
X30550000Y-4750000D02*
X31250000Y-4750000D01*
X11000000Y-3332800D02*
X10550000Y-3332800D01*
X27100000Y-7000000D02*
X27100000Y-7300000D01*
X36750000Y-4700000D02*
X36750000Y-4750000D01*
X30550000Y-4727000D02*
X30550000Y-4750000D01*
X4150000Y-8500000D02*
X4150000Y-5750000D01*
X8745000Y-1031400D02*
X9000000Y-1031400D01*
X30950000Y-3565000D02*
X31600000Y-3565000D01*
X35090000Y-2810000D02*
X35300000Y-2800000D01*
X9100000Y-3350000D02*
X9100000Y-3700000D01*
X31925000Y-3565000D02*
X32250000Y-3565000D01*
X6860000Y-2860000D02*
X5660000Y-2860000D01*
X29410000Y-6700000D02*
X29410000Y-7002000D01*
X8745000Y-1031400D02*
X8750000Y-1650000D01*
X5660000Y-2860000D02*
X5660000Y-3600000D01*
X10700000Y-5850000D02*
X11000000Y-5850000D01*
X31925000Y-4215000D02*
X31275000Y-4215000D01*
X30100000Y-4750000D02*
X30550000Y-4750000D01*
X11000000Y-3350000D02*
X9100000Y-3350000D01*
X31925000Y-4215000D02*
X32575000Y-4215000D01*
X29410000Y-2810000D02*
X29410000Y-3752000D01*
X3150000Y-8500000D02*
X4150000Y-8500000D01*
X30300000Y-3565000D02*
X30950000Y-3565000D01*
X12550000Y-5832800D02*
X10550000Y-5832800D01*
X29410000Y-6352000D02*
X29410000Y-6700000D01*
X31925000Y-4402000D02*
X31925000Y-5252000D01*
X30550000Y-4402000D02*
X31925000Y-4402000D01*
X18300000Y-3600000D02*
X16350000Y-3600000D01*
X8490000Y-2151400D02*
X8745000Y-2151400D01*
X31600000Y-3565000D02*
X31925000Y-3565000D01*
X11000000Y-3350000D02*
X11000000Y-3332800D01*
X4150000Y-8500000D02*
X4850000Y-8500000D01*
X10700000Y-6700000D02*
X10700000Y-5850000D01*
X3600000Y-5750000D02*
X4150000Y-5750000D01*
X10550000Y-5832800D02*
X10550000Y-6332800D01*
X30550000Y-4402000D02*
X30550000Y-4727000D01*
X31730000Y-5252000D02*
X31925000Y-5252000D01*
X35090000Y-2810000D02*
X35090000Y-2160000D01*
X30060000Y-4727000D02*
X30060000Y-5377000D01*
X36400000Y-4700000D02*
X36750000Y-4700000D01*
X4850000Y-8500000D02*
X7050000Y-8500000D01*
X30550000Y-4727000D02*
X30060000Y-4727000D01*
X11000000Y-5850000D02*
X11000000Y-3350000D01*
X31730000Y-5252000D02*
X31730000Y-6152000D01*
X31925000Y-5252000D02*
X32770000Y-5252000D01*
X31925000Y-3565000D02*
X31925000Y-4215000D01*
X18900000Y-7300000D02*
X18900000Y-7200000D01*
X29410000Y-2160000D02*
X29410000Y-2810000D01*
X27450000Y-6100000D02*
X18300000Y-6100000D01*
X8750000Y-1650000D02*
X8745000Y-2151400D01*
X29410000Y-6700000D02*
X27530000Y-6700000D01*
X7450000Y-3150000D02*
X7400000Y-3150000D01*
X1250000Y-5750000D02*
X3600000Y-5750000D01*
X1250000Y-5750000D02*
X1250000Y-5250000D01*
X7450000Y-3150000D02*
X7450000Y-3700000D01*
X9100000Y-3700000D02*
X7450000Y-3700000D01*
X31925000Y-4215000D02*
X31925000Y-4402000D01*
%TO.N,VBUS*%
X36750000Y-5250000D02*
X35850000Y-5250000D01*
X35850000Y-5250000D02*
X35850000Y-1962800D01*
X35850000Y-1962800D02*
X36750000Y-1962800D01*
X37500000Y-4300000D02*
X37600000Y-4300000D01*
X37600000Y-1962800D02*
X37600000Y-4300000D01*
X36750000Y-5250000D02*
X37500000Y-5250000D01*
X37500000Y-5250000D02*
X37500000Y-4300000D01*
X37600000Y-1962800D02*
X36750000Y-1962800D01*
%TO.N,VBAT*%
X12550000Y-3400000D02*
X12550000Y-3332800D01*
X27350000Y-4435000D02*
X27950000Y-4450000D01*
X13000000Y-5000000D02*
X13600000Y-5000000D01*
X28750000Y-5600000D02*
X25350000Y-5600000D01*
X14150000Y-1707800D02*
X14150000Y-1500000D01*
X13850000Y-3350000D02*
X13865000Y-3554800D01*
X27950000Y-4450000D02*
X27950000Y-2450000D01*
X4850000Y-1031400D02*
X4850000Y-1500000D01*
X10450000Y-2400000D02*
X10450000Y-2900000D01*
X12550000Y-3332800D02*
X13250000Y-3350000D01*
X12550000Y-4900000D02*
X13000000Y-4900000D01*
X33300000Y-8850000D02*
X31750000Y-8850000D01*
X12550000Y-2400000D02*
X13150000Y-2400000D01*
X31850000Y-1000000D02*
X34450000Y-1000000D01*
X13600000Y-4850000D02*
X12550000Y-4832800D01*
X11750000Y-2450000D02*
X11750000Y-2700000D01*
X10450000Y-2900000D02*
X8500000Y-2900000D01*
X13600000Y-5000000D02*
X13600000Y-4850000D01*
X7900000Y-1031400D02*
X7980000Y-1031400D01*
X34850000Y-8300000D02*
X36350000Y-8300000D01*
X27950000Y-2450000D02*
X11750000Y-2450000D01*
X31750000Y-8850000D02*
X31750000Y-9250000D01*
X13000000Y-4900000D02*
X13750000Y-4900000D01*
X12550000Y-3332800D02*
X13850000Y-3350000D01*
X36350000Y-8300000D02*
X36370000Y-7850000D01*
X8490000Y-3171400D02*
X7900000Y-3150000D01*
X10450000Y-2400000D02*
X12550000Y-2400000D01*
X12550000Y-3332800D02*
X13150000Y-3350000D01*
X13350000Y-3400000D02*
X12550000Y-3400000D01*
X11950000Y-6350000D02*
X12550000Y-6332800D01*
X11650000Y-4900000D02*
X11950000Y-4900000D01*
X35900000Y-950000D02*
X36750000Y-942800D01*
X13250000Y-1700000D02*
X12625000Y-1707800D01*
X11750000Y-2700000D02*
X11650000Y-2700000D01*
X4850000Y-1031400D02*
X7900000Y-1031400D01*
X13750000Y-4900000D02*
X13763400Y-5000000D01*
X11950000Y-4900000D02*
X12550000Y-4900000D01*
X36370000Y-7850000D02*
X35900000Y-7850000D01*
X28150000Y-4450000D02*
X27350000Y-4435000D01*
X13150000Y-3350000D02*
X13350000Y-3400000D01*
X8500000Y-2900000D02*
X8490000Y-3171400D01*
X12550000Y-4900000D02*
X12550000Y-4832800D01*
X7900000Y-3150000D02*
X7900000Y-1031400D01*
X13250000Y-3350000D02*
X13350000Y-3400000D01*
X11650000Y-2700000D02*
X11650000Y-4900000D01*
X13600000Y-5000000D02*
X13763400Y-5000000D01*
X14150000Y-1500000D02*
X15850000Y-1500000D01*
X12625000Y-1707800D02*
X14150000Y-1707800D01*
X4850000Y-1500000D02*
X3150000Y-1500000D01*
X13000000Y-5000000D02*
X13000000Y-4900000D01*
%TO.N,SDA*%
X30300000Y-7840000D02*
X29875000Y-8000000D01*
X29875000Y-8125000D02*
X18000000Y-8125000D01*
X15400000Y-4075000D02*
X15400000Y-4375000D01*
X12975000Y-4375000D02*
X12975000Y-3925000D01*
X15400000Y-4375000D02*
X12975000Y-4375000D01*
X18000000Y-8125000D02*
X18000000Y-4075000D01*
X18000000Y-4075000D02*
X15400000Y-4075000D01*
X12550000Y-3925000D02*
X12550000Y-3832800D01*
X12975000Y-3925000D02*
X12550000Y-3925000D01*
X30300000Y-8000000D02*
X30300000Y-7840000D01*
X29875000Y-8000000D02*
X30300000Y-8000000D01*
X37400000Y-9350000D02*
X37390000Y-7850000D01*
X35200000Y-9350000D02*
X37400000Y-9350000D01*
X29875000Y-8000000D02*
X29875000Y-8125000D01*
%TO.N,SCL*%
X30060000Y-6677000D02*
X30750000Y-6700000D01*
X11975000Y-2900000D02*
X11975000Y-4250000D01*
X11975000Y-4250000D02*
X12550000Y-4250000D01*
X30750000Y-6700000D02*
X30750000Y-6500000D01*
X11975000Y-2900000D02*
X26400000Y-2900000D01*
X26400000Y-2900000D02*
X27350000Y-2900000D01*
X12550000Y-4250000D02*
X12550000Y-4332800D01*
%TO.N,HAPTIC_EN*%
X16600000Y-9525000D02*
X16600000Y-9625000D01*
X18450000Y-9525000D02*
X16600000Y-9525000D01*
X16600000Y-9625000D02*
X8950000Y-9625000D01*
X27950000Y-7675000D02*
X18450000Y-7675000D01*
X8950000Y-9625000D02*
X8950000Y-8993000D01*
%TO.N,LED_RED*%
X30850000Y-8450000D02*
X17200000Y-8450000D01*
X17200000Y-7350000D02*
X13200000Y-7350000D01*
X17200000Y-8450000D02*
X17200000Y-6254700D01*
X13200000Y-8782800D02*
X12550000Y-8782800D01*
X13200000Y-7350000D02*
X13200000Y-8782800D01*
%TO.N,MOTOR_N*%
X9450000Y-1700000D02*
X10125000Y-1707800D01*
X14800000Y-8500000D02*
X15850000Y-8500000D01*
X8000000Y-8300000D02*
X9050000Y-8300000D01*
X9050000Y-8300000D02*
X9050000Y-8150000D01*
X13550000Y-9300000D02*
X9700000Y-9300000D01*
X13550000Y-8500000D02*
X13550000Y-9300000D01*
X9050000Y-8300000D02*
X9700000Y-8300000D01*
X9450000Y-1800000D02*
X9450000Y-1700000D01*
X14150000Y-8500000D02*
X14800000Y-8500000D01*
X9700000Y-9300000D02*
X9700000Y-8300000D01*
X13550000Y-8500000D02*
X14150000Y-8500000D01*
%TO.N,IMU_INT*%
X9950000Y-4850000D02*
X10550000Y-4832800D01*
X32450000Y-500000D02*
X17300000Y-500000D01*
%TO.N,SWDIO*%
X32950000Y-2300000D02*
X30100000Y-2300000D01*
%TO.N,SWDCLK*%
X28850000Y-5100000D02*
X27950000Y-5100000D01*
X28800000Y-4225000D02*
X28850000Y-5100000D01*
X33550000Y-2950000D02*
X30025000Y-2950000D01*
X28000000Y-9250000D02*
X29250000Y-9250000D01*
%TO.N,QVAR1*%
X25850000Y-6700000D02*
X26570000Y-6700000D01*
X16850000Y-1050000D02*
X25850000Y-1100000D01*
X25850000Y-1100000D02*
X26650000Y-1100000D01*
X9500000Y-5350000D02*
X6650000Y-5350000D01*
X6650000Y-5350000D02*
X6660000Y-5000000D01*
%TO.N,QVAR2*%
X6850000Y-4050000D02*
X6860000Y-3880000D01*
X10550000Y-4332800D02*
X9000000Y-4291400D01*
X9000000Y-4291400D02*
X8600000Y-4300000D01*
X8600000Y-4950000D02*
X7300000Y-4950000D01*
X8600000Y-4300000D02*
X8600000Y-4950000D01*
X6860000Y-4300000D02*
X4850000Y-4300000D01*
X4850000Y-4300000D02*
X4860000Y-3600000D01*
X7300000Y-4950000D02*
X7300000Y-4050000D01*
X7300000Y-4050000D02*
X6850000Y-4050000D01*
X6860000Y-3880000D02*
X6860000Y-4300000D01*
%TO.N,QVAR1_RAW*%
X1250000Y-4250000D02*
X3050000Y-4200000D01*
X5500000Y-5000000D02*
X5640000Y-5000000D01*
%TO.N,QVAR2_RAW*%
X1250000Y-4750000D02*
X4950000Y-4750000D01*
X4950000Y-5850000D02*
X7000000Y-5850000D01*
X4950000Y-4750000D02*
X4950000Y-5850000D01*
%TO.N,LED_RED_A*%
X12750000Y-8125000D02*
X11550000Y-8125000D01*
X15750000Y-3550000D02*
X14885000Y-3554800D01*
X11550000Y-8125000D02*
X11550000Y-8782800D01*
%TO.N,LED_GREEN_A*%
X16200000Y-4922300D02*
X16200000Y-5000000D01*
X14775000Y-4922300D02*
X14775000Y-5725000D01*
X16200000Y-4654700D02*
X16200000Y-4922300D01*
X16200000Y-5000000D02*
X14783400Y-5000000D01*
X14775000Y-5725000D02*
X13125000Y-5725000D01*
X14783400Y-5000000D02*
X14775000Y-5725000D01*
X11375000Y-6575000D02*
X11375000Y-7175000D01*
X11375000Y-7175000D02*
X11550000Y-7182800D01*
X16200000Y-4922300D02*
X14775000Y-4922300D01*
%TO.N,LED_GREEN*%
X34000000Y-1650000D02*
X16850000Y-1650000D01*
X12550000Y-7000000D02*
X12550000Y-7182800D01*
X15350000Y-5550000D02*
X15350000Y-7000000D01*
X17200000Y-5550000D02*
X15350000Y-5550000D01*
X15350000Y-7000000D02*
X12550000Y-7000000D01*
%TD*%
%TA.AperFunction,Conductor*%
%TO.N,GND*%
G36*
X17015662Y-264852D02*
G01*
X17030014Y-299500D01*
X17023449Y-324000D01*
X16994819Y-373587D01*
X16994819Y-373589D01*
X16972500Y-456882D01*
X16972500Y-456884D01*
X16972500Y-543116D01*
X16994819Y-626410D01*
X17012565Y-657148D01*
X17019914Y-669876D01*
X17024808Y-707059D01*
X17001978Y-736812D01*
X16964796Y-741706D01*
X16893119Y-722500D01*
X16893116Y-722500D01*
X16806884Y-722500D01*
X16806882Y-722500D01*
X16723589Y-744819D01*
X16723587Y-744819D01*
X16648916Y-787930D01*
X16648907Y-787937D01*
X16587937Y-848907D01*
X16587930Y-848916D01*
X16568935Y-881818D01*
X16539182Y-904648D01*
X16502000Y-899753D01*
X16479170Y-870000D01*
X16477500Y-857318D01*
X16477500Y-612442D01*
X16477499Y-612438D01*
X16470102Y-575253D01*
X16470102Y-575252D01*
X16448630Y-543117D01*
X16441922Y-533077D01*
X16410361Y-511990D01*
X16399748Y-504898D01*
X16399747Y-504897D01*
X16399746Y-504897D01*
X16362561Y-497500D01*
X16362558Y-497500D01*
X15337442Y-497500D01*
X15337438Y-497500D01*
X15300253Y-504897D01*
X15258077Y-533077D01*
X15229897Y-575253D01*
X15222500Y-612438D01*
X15222500Y-1248500D01*
X15208148Y-1283148D01*
X15173500Y-1297500D01*
X14826500Y-1297500D01*
X14791852Y-1283148D01*
X14777500Y-1248500D01*
X14777500Y-612442D01*
X14777499Y-612438D01*
X14770102Y-575253D01*
X14770102Y-575252D01*
X14748630Y-543117D01*
X14741922Y-533077D01*
X14710361Y-511990D01*
X14699748Y-504898D01*
X14699747Y-504897D01*
X14699746Y-504897D01*
X14662561Y-497500D01*
X14662558Y-497500D01*
X13637442Y-497500D01*
X13637438Y-497500D01*
X13600253Y-504897D01*
X13558077Y-533077D01*
X13529897Y-575253D01*
X13522500Y-612438D01*
X13522500Y-1394292D01*
X13508148Y-1428940D01*
X13473500Y-1443292D01*
X13449001Y-1436728D01*
X13376410Y-1394819D01*
X13293118Y-1372500D01*
X13293116Y-1372500D01*
X13206884Y-1372500D01*
X13206883Y-1372500D01*
X13200818Y-1374125D01*
X13163636Y-1369229D01*
X13143729Y-1347503D01*
X13120308Y-1297276D01*
X13120307Y-1297275D01*
X13120307Y-1297274D01*
X13035526Y-1212493D01*
X13035524Y-1212492D01*
X12926857Y-1161819D01*
X12916952Y-1160515D01*
X12877340Y-1155300D01*
X12372660Y-1155300D01*
X12339649Y-1159646D01*
X12323142Y-1161819D01*
X12214475Y-1212492D01*
X12214473Y-1212493D01*
X12129693Y-1297273D01*
X12129692Y-1297275D01*
X12079019Y-1405942D01*
X12079019Y-1405944D01*
X12073363Y-1448910D01*
X12072500Y-1455463D01*
X12072500Y-1960136D01*
X12072499Y-1960136D01*
X12079019Y-2009657D01*
X12129692Y-2118325D01*
X12131143Y-2120397D01*
X12139258Y-2157012D01*
X12119106Y-2188640D01*
X12091003Y-2197500D01*
X10658997Y-2197500D01*
X10624349Y-2183148D01*
X10609997Y-2148500D01*
X10618857Y-2120397D01*
X10620307Y-2118325D01*
X10620308Y-2118324D01*
X10670981Y-2009656D01*
X10677500Y-1960140D01*
X10677500Y-1455460D01*
X10670981Y-1405944D01*
X10620308Y-1297276D01*
X10620307Y-1297275D01*
X10620306Y-1297273D01*
X10535526Y-1212493D01*
X10535524Y-1212492D01*
X10426857Y-1161819D01*
X10416952Y-1160515D01*
X10377340Y-1155300D01*
X9872660Y-1155300D01*
X9839649Y-1159646D01*
X9823142Y-1161819D01*
X9714475Y-1212492D01*
X9714473Y-1212493D01*
X9629693Y-1297273D01*
X9629692Y-1297275D01*
X9579019Y-1405942D01*
X9574921Y-1437070D01*
X9556168Y-1469548D01*
X9519943Y-1479254D01*
X9513659Y-1478004D01*
X9493117Y-1472500D01*
X9493116Y-1472500D01*
X9406884Y-1472500D01*
X9406882Y-1472500D01*
X9323589Y-1494819D01*
X9323587Y-1494819D01*
X9248916Y-1537930D01*
X9248907Y-1537937D01*
X9187937Y-1598907D01*
X9187930Y-1598916D01*
X9144819Y-1673587D01*
X9144819Y-1673589D01*
X9122500Y-1756882D01*
X9122500Y-1843117D01*
X9144819Y-1926410D01*
X9144819Y-1926412D01*
X9187930Y-2001083D01*
X9187933Y-2001087D01*
X9187935Y-2001090D01*
X9248910Y-2062065D01*
X9248913Y-2062066D01*
X9248916Y-2062069D01*
X9323588Y-2105180D01*
X9323590Y-2105181D01*
X9345471Y-2111044D01*
X9406882Y-2127500D01*
X9406884Y-2127500D01*
X9493118Y-2127500D01*
X9579512Y-2104350D01*
X9579942Y-2105957D01*
X9612034Y-2105949D01*
X9627943Y-2116576D01*
X9714473Y-2203106D01*
X9714475Y-2203107D01*
X9714476Y-2203108D01*
X9823144Y-2253781D01*
X9872660Y-2260300D01*
X10215348Y-2260300D01*
X10249996Y-2274652D01*
X10264348Y-2309300D01*
X10260618Y-2328049D01*
X10257618Y-2335293D01*
X10247500Y-2359718D01*
X10247500Y-2648500D01*
X10233148Y-2683148D01*
X10198500Y-2697500D01*
X8503726Y-2697500D01*
X8467204Y-2696154D01*
X8463583Y-2697500D01*
X8459720Y-2697500D01*
X8430405Y-2709641D01*
X8426776Y-2711145D01*
X8425100Y-2711803D01*
X8412736Y-2716399D01*
X8400818Y-2720829D01*
X8383746Y-2723900D01*
X8329144Y-2723900D01*
X8271718Y-2735322D01*
X8252576Y-2739130D01*
X8178723Y-2788477D01*
X8141940Y-2795793D01*
X8110758Y-2774958D01*
X8102500Y-2747735D01*
X8102500Y-1526742D01*
X8116852Y-1492094D01*
X8141937Y-1478684D01*
X8217423Y-1463670D01*
X8304252Y-1405652D01*
X8362270Y-1318823D01*
X8377500Y-1242256D01*
X8377500Y-820544D01*
X8362270Y-743977D01*
X8312757Y-669876D01*
X8304252Y-657147D01*
X8240735Y-614707D01*
X8217423Y-599130D01*
X8140856Y-583900D01*
X7819144Y-583900D01*
X7742577Y-599130D01*
X7655747Y-657147D01*
X7597730Y-743976D01*
X7596234Y-751500D01*
X7588682Y-789460D01*
X7567848Y-820642D01*
X7540625Y-828900D01*
X5526500Y-828900D01*
X5491852Y-814548D01*
X5477500Y-779900D01*
X5477500Y-612442D01*
X5477499Y-612438D01*
X5470102Y-575253D01*
X5470102Y-575252D01*
X5448630Y-543117D01*
X5441922Y-533077D01*
X5410361Y-511990D01*
X5399748Y-504898D01*
X5399747Y-504897D01*
X5399746Y-504897D01*
X5362561Y-497500D01*
X5362558Y-497500D01*
X4337442Y-497500D01*
X4337438Y-497500D01*
X4300253Y-504897D01*
X4258077Y-533077D01*
X4229897Y-575253D01*
X4222500Y-612438D01*
X4222500Y-1248500D01*
X4208148Y-1283148D01*
X4173500Y-1297500D01*
X3826500Y-1297500D01*
X3791852Y-1283148D01*
X3777500Y-1248500D01*
X3777500Y-612442D01*
X3777499Y-612438D01*
X3770102Y-575253D01*
X3770102Y-575252D01*
X3748630Y-543117D01*
X3741922Y-533077D01*
X3710361Y-511990D01*
X3699748Y-504898D01*
X3699747Y-504897D01*
X3699746Y-504897D01*
X3662561Y-497500D01*
X3662558Y-497500D01*
X2637442Y-497500D01*
X2637438Y-497500D01*
X2600253Y-504897D01*
X2558077Y-533077D01*
X2529897Y-575253D01*
X2522500Y-612438D01*
X2522500Y-2387561D01*
X2529897Y-2424746D01*
X2558077Y-2466922D01*
X2579165Y-2481012D01*
X2600252Y-2495102D01*
X2637442Y-2502500D01*
X3662558Y-2502500D01*
X3699748Y-2495102D01*
X3741922Y-2466922D01*
X3770102Y-2424748D01*
X3777500Y-2387558D01*
X3777500Y-1751500D01*
X3791852Y-1716852D01*
X3826500Y-1702500D01*
X4173500Y-1702500D01*
X4208148Y-1716852D01*
X4222500Y-1751500D01*
X4222500Y-2387561D01*
X4229897Y-2424746D01*
X4258077Y-2466922D01*
X4279165Y-2481012D01*
X4300252Y-2495102D01*
X4337442Y-2502500D01*
X5362558Y-2502500D01*
X5399748Y-2495102D01*
X5441922Y-2466922D01*
X5470102Y-2424748D01*
X5477500Y-2387558D01*
X5477500Y-1282900D01*
X5491852Y-1248252D01*
X5526500Y-1233900D01*
X7540625Y-1233900D01*
X7575273Y-1248252D01*
X7588682Y-1273338D01*
X7597017Y-1315239D01*
X7597730Y-1318823D01*
X7655747Y-1405652D01*
X7675723Y-1418999D01*
X7696558Y-1450181D01*
X7697500Y-1459741D01*
X7697500Y-3146326D01*
X7696173Y-3182913D01*
X7697500Y-3186476D01*
X7697500Y-3190277D01*
X7697501Y-3190284D01*
X7711168Y-3223280D01*
X7711818Y-3224932D01*
X7724283Y-3258407D01*
X7726266Y-3261621D01*
X7728326Y-3264704D01*
X7728328Y-3264706D01*
X7728329Y-3264707D01*
X7754219Y-3290597D01*
X7779146Y-3317400D01*
X7782603Y-3318981D01*
X7785293Y-3321671D01*
X7819115Y-3335680D01*
X7852406Y-3350907D01*
X7856203Y-3351043D01*
X7859714Y-3352498D01*
X7859716Y-3352498D01*
X7859720Y-3352500D01*
X7895431Y-3352500D01*
X7897207Y-3352532D01*
X8049240Y-3358046D01*
X8083345Y-3373644D01*
X8095522Y-3397454D01*
X8107729Y-3458821D01*
X8165747Y-3545652D01*
X8191049Y-3562558D01*
X8252577Y-3603670D01*
X8329144Y-3618900D01*
X8329147Y-3618900D01*
X8650853Y-3618900D01*
X8650856Y-3618900D01*
X8727423Y-3603670D01*
X8814252Y-3545652D01*
X8872270Y-3458823D01*
X8887500Y-3382256D01*
X8887500Y-3151500D01*
X8901852Y-3116852D01*
X8936500Y-3102500D01*
X10490278Y-3102500D01*
X10490280Y-3102500D01*
X10564707Y-3071671D01*
X10564709Y-3071669D01*
X10564710Y-3071669D01*
X10621669Y-3014710D01*
X10621669Y-3014709D01*
X10621671Y-3014707D01*
X10652500Y-2940280D01*
X10652500Y-2651500D01*
X10666852Y-2616852D01*
X10701500Y-2602500D01*
X11399175Y-2602500D01*
X11433823Y-2616852D01*
X11448175Y-2651500D01*
X11447500Y-2658356D01*
X11447500Y-4940281D01*
X11457425Y-4964241D01*
X11478329Y-5014707D01*
X11478330Y-5014708D01*
X11478331Y-5014710D01*
X11535290Y-5071669D01*
X11535291Y-5071669D01*
X11535293Y-5071671D01*
X11609720Y-5102500D01*
X11669049Y-5102500D01*
X11703697Y-5116852D01*
X11748910Y-5162065D01*
X11748913Y-5162066D01*
X11748916Y-5162069D01*
X11818946Y-5202500D01*
X11823590Y-5205181D01*
X11862244Y-5215538D01*
X11906882Y-5227500D01*
X11906884Y-5227500D01*
X11993118Y-5227500D01*
X12022180Y-5219712D01*
X12076410Y-5205181D01*
X12081056Y-5202499D01*
X12136937Y-5170236D01*
X12151090Y-5162065D01*
X12163852Y-5149303D01*
X12198500Y-5134951D01*
X12233148Y-5149303D01*
X12247500Y-5183951D01*
X12247500Y-5495361D01*
X12254897Y-5532546D01*
X12254897Y-5532547D01*
X12254898Y-5532548D01*
X12257190Y-5535978D01*
X12283077Y-5574722D01*
X12292162Y-5580792D01*
X12325252Y-5602902D01*
X12362442Y-5610300D01*
X12737555Y-5610300D01*
X12737558Y-5610300D01*
X12743848Y-5609048D01*
X12780629Y-5616362D01*
X12801468Y-5647542D01*
X12800741Y-5669787D01*
X12797500Y-5681883D01*
X12797500Y-5768117D01*
X12819819Y-5851410D01*
X12819819Y-5851412D01*
X12862930Y-5926083D01*
X12862933Y-5926087D01*
X12862935Y-5926090D01*
X12923910Y-5987065D01*
X12923913Y-5987066D01*
X12923916Y-5987069D01*
X12983850Y-6021671D01*
X12998590Y-6030181D01*
X13037244Y-6040538D01*
X13081882Y-6052500D01*
X13081884Y-6052500D01*
X13168118Y-6052500D01*
X13197180Y-6044712D01*
X13251410Y-6030181D01*
X13266154Y-6021669D01*
X13326083Y-5987069D01*
X13326082Y-5987069D01*
X13326090Y-5987065D01*
X13371303Y-5941852D01*
X13405951Y-5927500D01*
X14734720Y-5927500D01*
X14773820Y-5927500D01*
X14812931Y-5927953D01*
X14814061Y-5927500D01*
X14815280Y-5927500D01*
X14815281Y-5927500D01*
X14827361Y-5922495D01*
X14851438Y-5912522D01*
X14887710Y-5897988D01*
X14888576Y-5897140D01*
X14889703Y-5896674D01*
X14889705Y-5896671D01*
X14889707Y-5896671D01*
X14917371Y-5869006D01*
X14945331Y-5841688D01*
X14945807Y-5840572D01*
X14946669Y-5839711D01*
X14946671Y-5839707D01*
X14961576Y-5803721D01*
X14961722Y-5803377D01*
X14977020Y-5767623D01*
X14977020Y-5767617D01*
X14977320Y-5766199D01*
X14977320Y-5766197D01*
X14977500Y-5765343D01*
X14977500Y-5726500D01*
X14977503Y-5725932D01*
X14978153Y-5669787D01*
X14980352Y-5479963D01*
X14995104Y-5445486D01*
X15016419Y-5434253D01*
X15016363Y-5434117D01*
X15017832Y-5433508D01*
X15019793Y-5432474D01*
X15020823Y-5432270D01*
X15107652Y-5374252D01*
X15165670Y-5287423D01*
X15174717Y-5241939D01*
X15195552Y-5210758D01*
X15222775Y-5202500D01*
X15574000Y-5202500D01*
X15608648Y-5216852D01*
X15623000Y-5251500D01*
X15623000Y-5298500D01*
X15608648Y-5333148D01*
X15574000Y-5347500D01*
X15309718Y-5347500D01*
X15235292Y-5378329D01*
X15195708Y-5417912D01*
X15195697Y-5417924D01*
X15178329Y-5435293D01*
X15175629Y-5441809D01*
X15175626Y-5441814D01*
X15147501Y-5509716D01*
X15147500Y-5509722D01*
X15147500Y-6748500D01*
X15133148Y-6783148D01*
X15098500Y-6797500D01*
X13176000Y-6797500D01*
X13141352Y-6783148D01*
X13132162Y-6760962D01*
X13127000Y-6755800D01*
X12073087Y-6755800D01*
X12038439Y-6741448D01*
X12024087Y-6706800D01*
X12038439Y-6672152D01*
X12060404Y-6659470D01*
X12062127Y-6659008D01*
X12076410Y-6655181D01*
X12151090Y-6612065D01*
X12202951Y-6560203D01*
X12237597Y-6545853D01*
X12272245Y-6560204D01*
X12278339Y-6567630D01*
X12283077Y-6574722D01*
X12304165Y-6588812D01*
X12325252Y-6602902D01*
X12362442Y-6610300D01*
X12737558Y-6610300D01*
X12774748Y-6602902D01*
X12816922Y-6574722D01*
X12845102Y-6532548D01*
X12852500Y-6495358D01*
X12852500Y-6170242D01*
X12845102Y-6133052D01*
X12831012Y-6111965D01*
X12816922Y-6090877D01*
X12780965Y-6066852D01*
X12774748Y-6062698D01*
X12774747Y-6062697D01*
X12774746Y-6062697D01*
X12737561Y-6055300D01*
X12737558Y-6055300D01*
X12362442Y-6055300D01*
X12362438Y-6055300D01*
X12325253Y-6062697D01*
X12283077Y-6090877D01*
X12265120Y-6117753D01*
X12261539Y-6120145D01*
X12260007Y-6124169D01*
X12246366Y-6130283D01*
X12233937Y-6138589D01*
X12225785Y-6139510D01*
X12224427Y-6139549D01*
X12189381Y-6126198D01*
X12188372Y-6125217D01*
X12151092Y-6087937D01*
X12151090Y-6087935D01*
X12151087Y-6087933D01*
X12151083Y-6087930D01*
X12076411Y-6044819D01*
X11993118Y-6022500D01*
X11993116Y-6022500D01*
X11906884Y-6022500D01*
X11906882Y-6022500D01*
X11823589Y-6044819D01*
X11823587Y-6044819D01*
X11748916Y-6087930D01*
X11748907Y-6087937D01*
X11687937Y-6148907D01*
X11687930Y-6148916D01*
X11644819Y-6223587D01*
X11644819Y-6223589D01*
X11631405Y-6273647D01*
X11608574Y-6303400D01*
X11571392Y-6308294D01*
X11559576Y-6303400D01*
X11501410Y-6269819D01*
X11418118Y-6247500D01*
X11418116Y-6247500D01*
X11331884Y-6247500D01*
X11331882Y-6247500D01*
X11248589Y-6269819D01*
X11248587Y-6269819D01*
X11173916Y-6312930D01*
X11173907Y-6312937D01*
X11112937Y-6373907D01*
X11112930Y-6373916D01*
X11069819Y-6448587D01*
X11069819Y-6448589D01*
X11047500Y-6531882D01*
X11047500Y-6618117D01*
X11067865Y-6694117D01*
X11062971Y-6731299D01*
X11033218Y-6754130D01*
X11020535Y-6755800D01*
X10973000Y-6755800D01*
X10973000Y-9048500D01*
X10958648Y-9083148D01*
X10924000Y-9097500D01*
X9951500Y-9097500D01*
X9916852Y-9083148D01*
X9902500Y-9048500D01*
X9902500Y-8259722D01*
X9902499Y-8259718D01*
X9891493Y-8233148D01*
X9871671Y-8185293D01*
X9871669Y-8185291D01*
X9871669Y-8185290D01*
X9814710Y-8128331D01*
X9814708Y-8128330D01*
X9814707Y-8128329D01*
X9771110Y-8110270D01*
X9740281Y-8097500D01*
X9740280Y-8097500D01*
X9412585Y-8097500D01*
X9377937Y-8083148D01*
X9365255Y-8061183D01*
X9355181Y-8023591D01*
X9355179Y-8023587D01*
X9312069Y-7948916D01*
X9312066Y-7948913D01*
X9312065Y-7948910D01*
X9251090Y-7887935D01*
X9251087Y-7887933D01*
X9251083Y-7887930D01*
X9176411Y-7844819D01*
X9093118Y-7822500D01*
X9093116Y-7822500D01*
X9006884Y-7822500D01*
X9006882Y-7822500D01*
X8923589Y-7844819D01*
X8923587Y-7844819D01*
X8848916Y-7887930D01*
X8848907Y-7887937D01*
X8787937Y-7948907D01*
X8787930Y-7948916D01*
X8744820Y-8023587D01*
X8744818Y-8023591D01*
X8734745Y-8061183D01*
X8711914Y-8090936D01*
X8687415Y-8097500D01*
X8280951Y-8097500D01*
X8246303Y-8083148D01*
X8201092Y-8037937D01*
X8201090Y-8037935D01*
X8201087Y-8037933D01*
X8201083Y-8037930D01*
X8126411Y-7994819D01*
X8043118Y-7972500D01*
X8043116Y-7972500D01*
X7956884Y-7972500D01*
X7956882Y-7972500D01*
X7873589Y-7994819D01*
X7873587Y-7994819D01*
X7798916Y-8037930D01*
X7798907Y-8037937D01*
X7737937Y-8098907D01*
X7737930Y-8098916D01*
X7694819Y-8173587D01*
X7694819Y-8173589D01*
X7672500Y-8256882D01*
X7672500Y-8343117D01*
X7694819Y-8426410D01*
X7694819Y-8426412D01*
X7737930Y-8501083D01*
X7737933Y-8501087D01*
X7737935Y-8501090D01*
X7798910Y-8562065D01*
X7798913Y-8562066D01*
X7798916Y-8562069D01*
X7816478Y-8572208D01*
X7873590Y-8605181D01*
X7912244Y-8615538D01*
X7956882Y-8627500D01*
X7956884Y-8627500D01*
X8043118Y-8627500D01*
X8072180Y-8619712D01*
X8126410Y-8605181D01*
X8201090Y-8562065D01*
X8246303Y-8516852D01*
X8280951Y-8502500D01*
X8406271Y-8502500D01*
X8440919Y-8516852D01*
X8455271Y-8551500D01*
X8450680Y-8572208D01*
X8427789Y-8621296D01*
X8427789Y-8621298D01*
X8421500Y-8669066D01*
X8421500Y-9316934D01*
X8423022Y-9328491D01*
X8427789Y-9364703D01*
X8438447Y-9387558D01*
X8476673Y-9469535D01*
X8476674Y-9469536D01*
X8476675Y-9469538D01*
X8558461Y-9551324D01*
X8558463Y-9551325D01*
X8558465Y-9551327D01*
X8663298Y-9600211D01*
X8704897Y-9605687D01*
X8737374Y-9624439D01*
X8746272Y-9643366D01*
X8747500Y-9648746D01*
X8747500Y-9665280D01*
X8755902Y-9685565D01*
X8756823Y-9689598D01*
X8754321Y-9704321D01*
X8754321Y-9719252D01*
X8751264Y-9722308D01*
X8750540Y-9726571D01*
X8738359Y-9735212D01*
X8727802Y-9745770D01*
X8721795Y-9746964D01*
X8719953Y-9748272D01*
X8717402Y-9747838D01*
X8709051Y-9749500D01*
X299500Y-9749500D01*
X264852Y-9735148D01*
X250500Y-9700500D01*
X250500Y-6437438D01*
X522500Y-6437438D01*
X522500Y-7262561D01*
X529897Y-7299746D01*
X558077Y-7341922D01*
X579165Y-7356012D01*
X600252Y-7370102D01*
X637442Y-7377500D01*
X1862558Y-7377500D01*
X1899748Y-7370102D01*
X1941922Y-7341922D01*
X1970102Y-7299748D01*
X1977500Y-7262558D01*
X1977500Y-6437442D01*
X1970102Y-6400252D01*
X1942769Y-6359345D01*
X1941922Y-6358077D01*
X1910361Y-6336990D01*
X1899748Y-6329898D01*
X1899747Y-6329897D01*
X1899746Y-6329897D01*
X1862561Y-6322500D01*
X1862558Y-6322500D01*
X637442Y-6322500D01*
X637438Y-6322500D01*
X600253Y-6329897D01*
X558077Y-6358077D01*
X529897Y-6400253D01*
X522500Y-6437438D01*
X250500Y-6437438D01*
X250500Y-4112438D01*
X622500Y-4112438D01*
X622500Y-4387561D01*
X629897Y-4424746D01*
X629897Y-4424747D01*
X629898Y-4424748D01*
X641945Y-4442777D01*
X660759Y-4470935D01*
X659240Y-4471949D01*
X670859Y-4500000D01*
X659240Y-4528050D01*
X660759Y-4529065D01*
X629897Y-4575253D01*
X622500Y-4612438D01*
X622500Y-4887561D01*
X629897Y-4924746D01*
X658077Y-4966922D01*
X679165Y-4981012D01*
X700252Y-4995102D01*
X737442Y-5002500D01*
X1762558Y-5002500D01*
X1799748Y-4995102D01*
X1841922Y-4966922D01*
X1841923Y-4966919D01*
X1841987Y-4966857D01*
X1842073Y-4966821D01*
X1845935Y-4964241D01*
X1846447Y-4965008D01*
X1876633Y-4952500D01*
X4698500Y-4952500D01*
X4733148Y-4966852D01*
X4747500Y-5001500D01*
X4747500Y-5890281D01*
X4756713Y-5912522D01*
X4778329Y-5964707D01*
X4778330Y-5964708D01*
X4778331Y-5964710D01*
X4835289Y-6021668D01*
X4835291Y-6021669D01*
X4835293Y-6021671D01*
X4909720Y-6052500D01*
X6719049Y-6052500D01*
X6753697Y-6066852D01*
X6798910Y-6112065D01*
X6798913Y-6112066D01*
X6798916Y-6112069D01*
X6873588Y-6155180D01*
X6873590Y-6155181D01*
X6912244Y-6165538D01*
X6956882Y-6177500D01*
X6956884Y-6177500D01*
X7043118Y-6177500D01*
X7072180Y-6169712D01*
X7126410Y-6155181D01*
X7137262Y-6148916D01*
X7201083Y-6112069D01*
X7201082Y-6112069D01*
X7201090Y-6112065D01*
X7262065Y-6051090D01*
X7299027Y-5987069D01*
X7305180Y-5976412D01*
X7305180Y-5976411D01*
X7305181Y-5976410D01*
X7326547Y-5896674D01*
X7327500Y-5893117D01*
X7327500Y-5806882D01*
X7316352Y-5765280D01*
X7305181Y-5723590D01*
X7305180Y-5723588D01*
X7305180Y-5723587D01*
X7262069Y-5648916D01*
X7262066Y-5648913D01*
X7262065Y-5648910D01*
X7249303Y-5636148D01*
X7234951Y-5601500D01*
X7249303Y-5566852D01*
X7283951Y-5552500D01*
X7688044Y-5552500D01*
X7722692Y-5566852D01*
X7737044Y-5601500D01*
X7722692Y-5636148D01*
X7708752Y-5645908D01*
X7631602Y-5681884D01*
X7608463Y-5692674D01*
X7608461Y-5692675D01*
X7526675Y-5774461D01*
X7526674Y-5774463D01*
X7477789Y-5879296D01*
X7471500Y-5927065D01*
X7471500Y-6574931D01*
X7477789Y-6622703D01*
X7492934Y-6655181D01*
X7526673Y-6727535D01*
X7526674Y-6727536D01*
X7526675Y-6727538D01*
X7608461Y-6809324D01*
X7608463Y-6809325D01*
X7608465Y-6809327D01*
X7713298Y-6858211D01*
X7761066Y-6864500D01*
X7761069Y-6864500D01*
X8238931Y-6864500D01*
X8238934Y-6864500D01*
X8286702Y-6858211D01*
X8391535Y-6809327D01*
X8473327Y-6727535D01*
X8522211Y-6622702D01*
X8528500Y-6574934D01*
X8528500Y-5927066D01*
X8522211Y-5879298D01*
X8473327Y-5774465D01*
X8473325Y-5774463D01*
X8473324Y-5774461D01*
X8391538Y-5692675D01*
X8391536Y-5692674D01*
X8391535Y-5692673D01*
X8291247Y-5645908D01*
X8265911Y-5618259D01*
X8267547Y-5580792D01*
X8295197Y-5555455D01*
X8311956Y-5552500D01*
X9219049Y-5552500D01*
X9253697Y-5566852D01*
X9298910Y-5612065D01*
X9298913Y-5612066D01*
X9298916Y-5612069D01*
X9373588Y-5655180D01*
X9373590Y-5655181D01*
X9412244Y-5665538D01*
X9456882Y-5677500D01*
X9456884Y-5677500D01*
X9543118Y-5677500D01*
X9572180Y-5669712D01*
X9626410Y-5655181D01*
X9637262Y-5648916D01*
X9701083Y-5612069D01*
X9701082Y-5612069D01*
X9701090Y-5612065D01*
X9762065Y-5551090D01*
X9779115Y-5521558D01*
X9805180Y-5476412D01*
X9805180Y-5476411D01*
X9805181Y-5476410D01*
X9827500Y-5393116D01*
X9827500Y-5306884D01*
X9827500Y-5306882D01*
X9816201Y-5264716D01*
X9805975Y-5226553D01*
X9810869Y-5189373D01*
X9840622Y-5166542D01*
X9865988Y-5166542D01*
X9906882Y-5177500D01*
X9906884Y-5177500D01*
X9993118Y-5177500D01*
X10022180Y-5169712D01*
X10076410Y-5155181D01*
X10110160Y-5135696D01*
X10151083Y-5112069D01*
X10151082Y-5112069D01*
X10151090Y-5112065D01*
X10171665Y-5091489D01*
X10206312Y-5077137D01*
X10240960Y-5091488D01*
X10255313Y-5126136D01*
X10254371Y-5135696D01*
X10247500Y-5170236D01*
X10247500Y-5495361D01*
X10254897Y-5532546D01*
X10254897Y-5532547D01*
X10254898Y-5532548D01*
X10257190Y-5535978D01*
X10283077Y-5574722D01*
X10292162Y-5580792D01*
X10325252Y-5602902D01*
X10362442Y-5610300D01*
X10737558Y-5610300D01*
X10774748Y-5602902D01*
X10816922Y-5574722D01*
X10845102Y-5532548D01*
X10852500Y-5495358D01*
X10852500Y-5170242D01*
X10845102Y-5133052D01*
X10829713Y-5110022D01*
X10822397Y-5073241D01*
X10829714Y-5055577D01*
X10845102Y-5032548D01*
X10852500Y-4995358D01*
X10852500Y-4670242D01*
X10845102Y-4633052D01*
X10829713Y-4610022D01*
X10822397Y-4573241D01*
X10829714Y-4555577D01*
X10831770Y-4552500D01*
X10845102Y-4532548D01*
X10852500Y-4495358D01*
X10852500Y-4170242D01*
X10845102Y-4133052D01*
X10829713Y-4110022D01*
X10822397Y-4073241D01*
X10829714Y-4055577D01*
X10832104Y-4052000D01*
X10845102Y-4032548D01*
X10852500Y-3995358D01*
X10852500Y-3975429D01*
X10855073Y-3962505D01*
X10854350Y-3962312D01*
X10877500Y-3875917D01*
X10877500Y-3789682D01*
X10854350Y-3703289D01*
X10855068Y-3703096D01*
X10852500Y-3690171D01*
X10852500Y-3670242D01*
X10852499Y-3670238D01*
X10852281Y-3669144D01*
X10845102Y-3633052D01*
X10831012Y-3611965D01*
X10816922Y-3590877D01*
X10785361Y-3569790D01*
X10774748Y-3562698D01*
X10774747Y-3562697D01*
X10774746Y-3562697D01*
X10737561Y-3555300D01*
X10737558Y-3555300D01*
X10737484Y-3555300D01*
X10737440Y-3555288D01*
X10735162Y-3555064D01*
X10735199Y-3554687D01*
X10712984Y-3548735D01*
X10676411Y-3527619D01*
X10593118Y-3505300D01*
X10593116Y-3505300D01*
X10506884Y-3505300D01*
X10506882Y-3505300D01*
X10423589Y-3527619D01*
X10423587Y-3527619D01*
X10387016Y-3548735D01*
X10364800Y-3554687D01*
X10364838Y-3555064D01*
X10362559Y-3555288D01*
X10362516Y-3555300D01*
X10362438Y-3555300D01*
X10325253Y-3562697D01*
X10283077Y-3590877D01*
X10254897Y-3633053D01*
X10247500Y-3670238D01*
X10247500Y-3690171D01*
X10244931Y-3703096D01*
X10245650Y-3703289D01*
X10222500Y-3789682D01*
X10222500Y-3875917D01*
X10245650Y-3962312D01*
X10245628Y-3962317D01*
X10246051Y-3963601D01*
X10247500Y-3969426D01*
X10247500Y-3995358D01*
X10254898Y-4032548D01*
X10268126Y-4052345D01*
X10270189Y-4060637D01*
X10268578Y-4071376D01*
X10270696Y-4082025D01*
X10265905Y-4089194D01*
X10264626Y-4097725D01*
X10255892Y-4104179D01*
X10249861Y-4113207D01*
X10239712Y-4116138D01*
X10234466Y-4120016D01*
X10229083Y-4119208D01*
X10221330Y-4121448D01*
X9440396Y-4100590D01*
X9406143Y-4085318D01*
X9393645Y-4061167D01*
X9382270Y-4003977D01*
X9338141Y-3937934D01*
X9324252Y-3917147D01*
X9262546Y-3875917D01*
X9237423Y-3859130D01*
X9160856Y-3843900D01*
X8839144Y-3843900D01*
X8767514Y-3858148D01*
X8762577Y-3859130D01*
X8675747Y-3917147D01*
X8629027Y-3987070D01*
X8617730Y-4003977D01*
X8607467Y-4055577D01*
X8606973Y-4058059D01*
X8600452Y-4067817D01*
X8597192Y-4079091D01*
X8590896Y-4082118D01*
X8586137Y-4089242D01*
X8564350Y-4097198D01*
X8561643Y-4097500D01*
X8559720Y-4097500D01*
X8559009Y-4097793D01*
X8557225Y-4097993D01*
X8557036Y-4098033D01*
X8556144Y-4098210D01*
X8555801Y-4098318D01*
X8555380Y-4098411D01*
X8520987Y-4113530D01*
X8520022Y-4113942D01*
X8485286Y-4128331D01*
X8484939Y-4128563D01*
X8484940Y-4128564D01*
X8482988Y-4129868D01*
X8482986Y-4129868D01*
X8482257Y-4130355D01*
X8481988Y-4130581D01*
X8481631Y-4130830D01*
X8461884Y-4151445D01*
X8427552Y-4166538D01*
X8392604Y-4152933D01*
X8377511Y-4118601D01*
X8377500Y-4117549D01*
X8377500Y-4080547D01*
X8377500Y-4080544D01*
X8362270Y-4003977D01*
X8318141Y-3937934D01*
X8304252Y-3917147D01*
X8242546Y-3875917D01*
X8217423Y-3859130D01*
X8140856Y-3843900D01*
X7819144Y-3843900D01*
X7747514Y-3858148D01*
X7742577Y-3859130D01*
X7655747Y-3917147D01*
X7597729Y-4003978D01*
X7597576Y-4004749D01*
X7597138Y-4005403D01*
X7595882Y-4008437D01*
X7595278Y-4008187D01*
X7576740Y-4035931D01*
X7539957Y-4043246D01*
X7508775Y-4022410D01*
X7504248Y-4013940D01*
X7502500Y-4009720D01*
X7471671Y-3935293D01*
X7471669Y-3935291D01*
X7471669Y-3935290D01*
X7414710Y-3878331D01*
X7414708Y-3878330D01*
X7414707Y-3878329D01*
X7365986Y-3858148D01*
X7340281Y-3847500D01*
X7340280Y-3847500D01*
X7306500Y-3847500D01*
X7271852Y-3833148D01*
X7257500Y-3798500D01*
X7257500Y-3669147D01*
X7257500Y-3669144D01*
X7242270Y-3592577D01*
X7207490Y-3540526D01*
X7184252Y-3505747D01*
X7132201Y-3470968D01*
X7097423Y-3447730D01*
X7020856Y-3432500D01*
X6699144Y-3432500D01*
X6622577Y-3447730D01*
X6535747Y-3505747D01*
X6489660Y-3574722D01*
X6477730Y-3592577D01*
X6462500Y-3669144D01*
X6462500Y-3669147D01*
X6462500Y-4048500D01*
X6448148Y-4083148D01*
X6413500Y-4097500D01*
X5386000Y-4097500D01*
X5351352Y-4083148D01*
X5337000Y-4048500D01*
X5337000Y-3148000D01*
X4383000Y-3148000D01*
X4383000Y-4052000D01*
X4601317Y-4052000D01*
X4635965Y-4066352D01*
X4650317Y-4101000D01*
X4650312Y-4101686D01*
X4650143Y-4113530D01*
X4648160Y-4252247D01*
X4648073Y-4258334D01*
X4647500Y-4259720D01*
X4647500Y-4298528D01*
X4647495Y-4298879D01*
X4647495Y-4298882D01*
X4646943Y-4337482D01*
X4647145Y-4338496D01*
X4647273Y-4339163D01*
X4647462Y-4340188D01*
X4662215Y-4375807D01*
X4662472Y-4376440D01*
X4676001Y-4410466D01*
X4676710Y-4412247D01*
X4677680Y-4413745D01*
X4677697Y-4413770D01*
X4678258Y-4414636D01*
X4705548Y-4441926D01*
X4706040Y-4442425D01*
X4727348Y-4464351D01*
X4741203Y-4499200D01*
X4726357Y-4533640D01*
X4692208Y-4547500D01*
X3283951Y-4547500D01*
X3249303Y-4533148D01*
X3234951Y-4498500D01*
X3249303Y-4463852D01*
X3280628Y-4432527D01*
X3312065Y-4401090D01*
X3347818Y-4339163D01*
X3355180Y-4326412D01*
X3355180Y-4326411D01*
X3355181Y-4326410D01*
X3377500Y-4243116D01*
X3377500Y-4156884D01*
X3377500Y-4156882D01*
X3365883Y-4113530D01*
X3355181Y-4073590D01*
X3355180Y-4073588D01*
X3355180Y-4073587D01*
X3312069Y-3998916D01*
X3312066Y-3998913D01*
X3312065Y-3998910D01*
X3251090Y-3937935D01*
X3251087Y-3937933D01*
X3251083Y-3937930D01*
X3176411Y-3894819D01*
X3093118Y-3872500D01*
X3093116Y-3872500D01*
X3006884Y-3872500D01*
X3006882Y-3872500D01*
X2923589Y-3894819D01*
X2923587Y-3894819D01*
X2848916Y-3937930D01*
X2848911Y-3937934D01*
X2795769Y-3991076D01*
X2762482Y-4005408D01*
X1854511Y-4030629D01*
X1825928Y-4022390D01*
X1799747Y-4004897D01*
X1762561Y-3997500D01*
X1762558Y-3997500D01*
X737442Y-3997500D01*
X737438Y-3997500D01*
X700253Y-4004897D01*
X658077Y-4033077D01*
X629897Y-4075253D01*
X622500Y-4112438D01*
X250500Y-4112438D01*
X250500Y-2737438D01*
X522500Y-2737438D01*
X522500Y-3562561D01*
X529897Y-3599746D01*
X529897Y-3599747D01*
X529898Y-3599748D01*
X532169Y-3603147D01*
X558077Y-3641922D01*
X579165Y-3656012D01*
X600252Y-3670102D01*
X637442Y-3677500D01*
X1862558Y-3677500D01*
X1899748Y-3670102D01*
X1941922Y-3641922D01*
X1970102Y-3599748D01*
X1977500Y-3562558D01*
X1977500Y-2737442D01*
X1970102Y-2700252D01*
X1956012Y-2679165D01*
X1941922Y-2658077D01*
X1910361Y-2636990D01*
X1899748Y-2629898D01*
X1899747Y-2629897D01*
X1899746Y-2629897D01*
X1862561Y-2622500D01*
X1862558Y-2622500D01*
X637442Y-2622500D01*
X637438Y-2622500D01*
X600253Y-2629897D01*
X558077Y-2658077D01*
X529897Y-2700253D01*
X522500Y-2737438D01*
X250500Y-2737438D01*
X250500Y-299500D01*
X264852Y-264852D01*
X299500Y-250500D01*
X16981014Y-250500D01*
X17015662Y-264852D01*
G37*
%TD.AperFunction*%
%TA.AperFunction,Conductor*%
G36*
X17985648Y-3116852D02*
G01*
X18000000Y-3151500D01*
X18000000Y-3823500D01*
X17985648Y-3858148D01*
X17951000Y-3872500D01*
X16008951Y-3872500D01*
X15974303Y-3858148D01*
X15959951Y-3823500D01*
X15974303Y-3788852D01*
X16012065Y-3751090D01*
X16039774Y-3703096D01*
X16055180Y-3676412D01*
X16055180Y-3676411D01*
X16055181Y-3676410D01*
X16075723Y-3599748D01*
X16077500Y-3593117D01*
X16077500Y-3506882D01*
X16064622Y-3458823D01*
X16055181Y-3423590D01*
X16055180Y-3423588D01*
X16055180Y-3423587D01*
X16012069Y-3348916D01*
X16012066Y-3348913D01*
X16012065Y-3348910D01*
X15951090Y-3287935D01*
X15951087Y-3287933D01*
X15951083Y-3287930D01*
X15876411Y-3244819D01*
X15793118Y-3222500D01*
X15793116Y-3222500D01*
X15706884Y-3222500D01*
X15706882Y-3222500D01*
X15623589Y-3244819D01*
X15623587Y-3244819D01*
X15548916Y-3287930D01*
X15548911Y-3287934D01*
X15502132Y-3334712D01*
X15467756Y-3349062D01*
X15324162Y-3349859D01*
X15289435Y-3335700D01*
X15275831Y-3310420D01*
X15267270Y-3267377D01*
X15226163Y-3205858D01*
X15208033Y-3178723D01*
X15200717Y-3141941D01*
X15221552Y-3110758D01*
X15248775Y-3102500D01*
X17951000Y-3102500D01*
X17985648Y-3116852D01*
G37*
%TD.AperFunction*%
%TD*%
%TA.AperFunction,Conductor*%
%TO.N,GND*%
G36*
X37735148Y-264852D02*
G01*
X37749500Y-299500D01*
X37749500Y-1732207D01*
X37735148Y-1766855D01*
X37700500Y-1781207D01*
X37681748Y-1777477D01*
X37656105Y-1766855D01*
X37640281Y-1760300D01*
X37640280Y-1760300D01*
X37189375Y-1760300D01*
X37154727Y-1745948D01*
X37141317Y-1720861D01*
X37132270Y-1675377D01*
X37086503Y-1606882D01*
X37074252Y-1588547D01*
X37022201Y-1553768D01*
X36987423Y-1530530D01*
X36910856Y-1515300D01*
X36589144Y-1515300D01*
X36512577Y-1530530D01*
X36425747Y-1588547D01*
X36367730Y-1675376D01*
X36367730Y-1675377D01*
X36358682Y-1720860D01*
X36337848Y-1752042D01*
X36310625Y-1760300D01*
X35809718Y-1760300D01*
X35735291Y-1791130D01*
X35678330Y-1848091D01*
X35678329Y-1848092D01*
X35678329Y-1848093D01*
X35677088Y-1851090D01*
X35647500Y-1922518D01*
X35647500Y-1922520D01*
X35647500Y-5290280D01*
X35678329Y-5364707D01*
X35678330Y-5364708D01*
X35678331Y-5364710D01*
X35735290Y-5421669D01*
X35735291Y-5421669D01*
X35735293Y-5421671D01*
X35809720Y-5452500D01*
X35890280Y-5452500D01*
X36123360Y-5452500D01*
X36153553Y-5465006D01*
X36154065Y-5464241D01*
X36157915Y-5466813D01*
X36158008Y-5466852D01*
X36158078Y-5466922D01*
X36200252Y-5495102D01*
X36237442Y-5502500D01*
X37262558Y-5502500D01*
X37299748Y-5495102D01*
X37341922Y-5466922D01*
X37341923Y-5466919D01*
X37341987Y-5466857D01*
X37342073Y-5466821D01*
X37345935Y-5464241D01*
X37346447Y-5465008D01*
X37376633Y-5452500D01*
X37540278Y-5452500D01*
X37540280Y-5452500D01*
X37614707Y-5421671D01*
X37614709Y-5421669D01*
X37614710Y-5421669D01*
X37665852Y-5370527D01*
X37700500Y-5356175D01*
X37735148Y-5370527D01*
X37749500Y-5405175D01*
X37749500Y-7407627D01*
X37735148Y-7442275D01*
X37700500Y-7456627D01*
X37673277Y-7448369D01*
X37636058Y-7423500D01*
X37627423Y-7417730D01*
X37550856Y-7402500D01*
X37229144Y-7402500D01*
X37152577Y-7417730D01*
X37065747Y-7475747D01*
X37017076Y-7548590D01*
X37007730Y-7562577D01*
X36992500Y-7639144D01*
X36992500Y-8060856D01*
X37007730Y-8137423D01*
X37012681Y-8144832D01*
X37065747Y-8224252D01*
X37123765Y-8263018D01*
X37152577Y-8282270D01*
X37152579Y-8282270D01*
X37157037Y-8284117D01*
X37156467Y-8285490D01*
X37182435Y-8302841D01*
X37190693Y-8329738D01*
X37195816Y-9098173D01*
X37181695Y-9132916D01*
X37147144Y-9147499D01*
X37146817Y-9147500D01*
X35480951Y-9147500D01*
X35446303Y-9133148D01*
X35401092Y-9087937D01*
X35401090Y-9087935D01*
X35401087Y-9087933D01*
X35401083Y-9087930D01*
X35326411Y-9044819D01*
X35243118Y-9022500D01*
X35243116Y-9022500D01*
X35156884Y-9022500D01*
X35156882Y-9022500D01*
X35073589Y-9044819D01*
X35073587Y-9044819D01*
X34998916Y-9087930D01*
X34998907Y-9087937D01*
X34937937Y-9148907D01*
X34937930Y-9148916D01*
X34894819Y-9223587D01*
X34894819Y-9223589D01*
X34872500Y-9306882D01*
X34872500Y-9393117D01*
X34894819Y-9476410D01*
X34894819Y-9476412D01*
X34937930Y-9551083D01*
X34937933Y-9551087D01*
X34937935Y-9551090D01*
X34998910Y-9612065D01*
X34998913Y-9612066D01*
X34998916Y-9612069D01*
X35073589Y-9655181D01*
X35073705Y-9655229D01*
X35073749Y-9655273D01*
X35076371Y-9656787D01*
X35075965Y-9657489D01*
X35100226Y-9681745D01*
X35100228Y-9719248D01*
X35073712Y-9745769D01*
X35054957Y-9749500D01*
X32426500Y-9749500D01*
X32391852Y-9735148D01*
X32377500Y-9700500D01*
X32377500Y-9101500D01*
X32391852Y-9066852D01*
X32426500Y-9052500D01*
X33019049Y-9052500D01*
X33053697Y-9066852D01*
X33098910Y-9112065D01*
X33098913Y-9112066D01*
X33098916Y-9112069D01*
X33173588Y-9155180D01*
X33173590Y-9155181D01*
X33212244Y-9165538D01*
X33256882Y-9177500D01*
X33256884Y-9177500D01*
X33343118Y-9177500D01*
X33372180Y-9169712D01*
X33426410Y-9155181D01*
X33437262Y-9148916D01*
X33501083Y-9112069D01*
X33501082Y-9112069D01*
X33501090Y-9112065D01*
X33562065Y-9051090D01*
X33578571Y-9022500D01*
X33605180Y-8976412D01*
X33605180Y-8976411D01*
X33605181Y-8976410D01*
X33627500Y-8893116D01*
X33627500Y-8806884D01*
X33627500Y-8806882D01*
X33613646Y-8755181D01*
X33605181Y-8723590D01*
X33605180Y-8723588D01*
X33605180Y-8723587D01*
X33562069Y-8648916D01*
X33562066Y-8648913D01*
X33562065Y-8648910D01*
X33501090Y-8587935D01*
X33501087Y-8587933D01*
X33501083Y-8587930D01*
X33426411Y-8544819D01*
X33343118Y-8522500D01*
X33343116Y-8522500D01*
X33256884Y-8522500D01*
X33256882Y-8522500D01*
X33173589Y-8544819D01*
X33173587Y-8544819D01*
X33098916Y-8587930D01*
X33098907Y-8587937D01*
X33053697Y-8633148D01*
X33019049Y-8647500D01*
X32340955Y-8647500D01*
X32313732Y-8639242D01*
X32304612Y-8633148D01*
X32299748Y-8629898D01*
X32299747Y-8629897D01*
X32299746Y-8629897D01*
X32262561Y-8622500D01*
X32262558Y-8622500D01*
X31237442Y-8622500D01*
X31232027Y-8623577D01*
X31214787Y-8627006D01*
X31178005Y-8619688D01*
X31157170Y-8588505D01*
X31157898Y-8566266D01*
X31177500Y-8493116D01*
X31177500Y-8406884D01*
X31177500Y-8406882D01*
X31162052Y-8349233D01*
X31155181Y-8323590D01*
X31155180Y-8323588D01*
X31155180Y-8323587D01*
X31121932Y-8266000D01*
X31117037Y-8228818D01*
X31139867Y-8199065D01*
X31164367Y-8192500D01*
X31187558Y-8192500D01*
X31224748Y-8185102D01*
X31247777Y-8169713D01*
X31284559Y-8162397D01*
X31302221Y-8169713D01*
X31325252Y-8185102D01*
X31362442Y-8192500D01*
X31837558Y-8192500D01*
X31874748Y-8185102D01*
X31897777Y-8169713D01*
X31934559Y-8162397D01*
X31952221Y-8169713D01*
X31975252Y-8185102D01*
X32012442Y-8192500D01*
X32487558Y-8192500D01*
X32524748Y-8185102D01*
X32547777Y-8169713D01*
X32584559Y-8162397D01*
X32602221Y-8169713D01*
X32625252Y-8185102D01*
X32662442Y-8192500D01*
X33137558Y-8192500D01*
X33174748Y-8185102D01*
X33197777Y-8169713D01*
X33234559Y-8162397D01*
X33252221Y-8169713D01*
X33275252Y-8185102D01*
X33312442Y-8192500D01*
X33787558Y-8192500D01*
X33824748Y-8185102D01*
X33847777Y-8169713D01*
X33884559Y-8162397D01*
X33902221Y-8169713D01*
X33925252Y-8185102D01*
X33962442Y-8192500D01*
X34437558Y-8192500D01*
X34457323Y-8188568D01*
X34468219Y-8186401D01*
X34505001Y-8193717D01*
X34525837Y-8224899D01*
X34525110Y-8247138D01*
X34522500Y-8256880D01*
X34522500Y-8343117D01*
X34544819Y-8426410D01*
X34544819Y-8426412D01*
X34587930Y-8501083D01*
X34587933Y-8501087D01*
X34587935Y-8501090D01*
X34648910Y-8562065D01*
X34648913Y-8562066D01*
X34648916Y-8562069D01*
X34723588Y-8605180D01*
X34723590Y-8605181D01*
X34762244Y-8615538D01*
X34806882Y-8627500D01*
X34806884Y-8627500D01*
X34893118Y-8627500D01*
X34922270Y-8619688D01*
X34976410Y-8605181D01*
X35051090Y-8562065D01*
X35096303Y-8516852D01*
X35130951Y-8502500D01*
X36345498Y-8502500D01*
X36381249Y-8504089D01*
X36385625Y-8502500D01*
X36390280Y-8502500D01*
X36422367Y-8489207D01*
X36424316Y-8488450D01*
X36456972Y-8476595D01*
X36456973Y-8476594D01*
X36460409Y-8473450D01*
X36464707Y-8471671D01*
X36490004Y-8446373D01*
X36516409Y-8422216D01*
X36517283Y-8420342D01*
X36518379Y-8417997D01*
X36521671Y-8414707D01*
X36535363Y-8381651D01*
X36550512Y-8349231D01*
X36550512Y-8349228D01*
X36550758Y-8348226D01*
X36551256Y-8343280D01*
X36552500Y-8340280D01*
X36552500Y-8330944D01*
X36552747Y-8328494D01*
X36560548Y-8313977D01*
X36566852Y-8298759D01*
X36569482Y-8297353D01*
X36570500Y-8295459D01*
X36576279Y-8293720D01*
X36591940Y-8285349D01*
X36607423Y-8282270D01*
X36694252Y-8224252D01*
X36752270Y-8137423D01*
X36767500Y-8060856D01*
X36767500Y-7639144D01*
X36752270Y-7562577D01*
X36702105Y-7487500D01*
X36694252Y-7475747D01*
X36616058Y-7423500D01*
X36607423Y-7417730D01*
X36530856Y-7402500D01*
X36209144Y-7402500D01*
X36132577Y-7417730D01*
X36045748Y-7475747D01*
X36023175Y-7509530D01*
X35991992Y-7530365D01*
X35969751Y-7529636D01*
X35943119Y-7522500D01*
X35943116Y-7522500D01*
X35856884Y-7522500D01*
X35856882Y-7522500D01*
X35773589Y-7544819D01*
X35773587Y-7544819D01*
X35698916Y-7587930D01*
X35698907Y-7587937D01*
X35637937Y-7648907D01*
X35637930Y-7648916D01*
X35594819Y-7723587D01*
X35594819Y-7723589D01*
X35572500Y-7806882D01*
X35572500Y-7893117D01*
X35592812Y-7968922D01*
X35594819Y-7976410D01*
X35617704Y-8016049D01*
X35622295Y-8024000D01*
X35627189Y-8061183D01*
X35604359Y-8090936D01*
X35579859Y-8097500D01*
X35357520Y-8097500D01*
X35322872Y-8083148D01*
X35308520Y-8048500D01*
X35322872Y-8013852D01*
X35347960Y-8000442D01*
X35356928Y-7998657D01*
X35364748Y-7997102D01*
X35406922Y-7968922D01*
X35435102Y-7926748D01*
X35442500Y-7889558D01*
X35442500Y-7414442D01*
X35435102Y-7377252D01*
X35419713Y-7354222D01*
X35412397Y-7317441D01*
X35419714Y-7299777D01*
X35419899Y-7299500D01*
X35435102Y-7276748D01*
X35442500Y-7239558D01*
X35442500Y-6764442D01*
X35435102Y-6727252D01*
X35419713Y-6704222D01*
X35412397Y-6667441D01*
X35419714Y-6649777D01*
X35435102Y-6626748D01*
X35442500Y-6589558D01*
X35442500Y-6114442D01*
X35435102Y-6077252D01*
X35419713Y-6054222D01*
X35412397Y-6017441D01*
X35414030Y-6011328D01*
X35416106Y-6005176D01*
X35435102Y-5976748D01*
X35442500Y-5939558D01*
X35442500Y-5937438D01*
X36022500Y-5937438D01*
X36022500Y-6762561D01*
X36029897Y-6799746D01*
X36058077Y-6841922D01*
X36079165Y-6856012D01*
X36100252Y-6870102D01*
X36137442Y-6877500D01*
X37362558Y-6877500D01*
X37399748Y-6870102D01*
X37441922Y-6841922D01*
X37470102Y-6799748D01*
X37477500Y-6762558D01*
X37477500Y-5937442D01*
X37470102Y-5900252D01*
X37456012Y-5879165D01*
X37441922Y-5858077D01*
X37410361Y-5836990D01*
X37399748Y-5829898D01*
X37399747Y-5829897D01*
X37399746Y-5829897D01*
X37362561Y-5822500D01*
X37362558Y-5822500D01*
X36137442Y-5822500D01*
X36137438Y-5822500D01*
X36100253Y-5829897D01*
X36058077Y-5858077D01*
X36029897Y-5900253D01*
X36022500Y-5937438D01*
X35442500Y-5937438D01*
X35442500Y-5464442D01*
X35435102Y-5427252D01*
X35419713Y-5404222D01*
X35412397Y-5367441D01*
X35419714Y-5349777D01*
X35435102Y-5326748D01*
X35442500Y-5289558D01*
X35442500Y-4814442D01*
X35435102Y-4777252D01*
X35419713Y-4754222D01*
X35412397Y-4717441D01*
X35419714Y-4699777D01*
X35419899Y-4699500D01*
X35435102Y-4676748D01*
X35442500Y-4639558D01*
X35442500Y-4164442D01*
X35435102Y-4127252D01*
X35419713Y-4104222D01*
X35412397Y-4067441D01*
X35419714Y-4049777D01*
X35435102Y-4026748D01*
X35442500Y-3989558D01*
X35442500Y-3514442D01*
X35435102Y-3477252D01*
X35421012Y-3456165D01*
X35406922Y-3435077D01*
X35375361Y-3413990D01*
X35364748Y-3406898D01*
X35364747Y-3406897D01*
X35364746Y-3406897D01*
X35327561Y-3399500D01*
X35327558Y-3399500D01*
X34852442Y-3399500D01*
X34852438Y-3399500D01*
X34815253Y-3406897D01*
X34773077Y-3435077D01*
X34744897Y-3477253D01*
X34737500Y-3514438D01*
X34737500Y-3989561D01*
X34744897Y-4026745D01*
X34744898Y-4026748D01*
X34756914Y-4044731D01*
X34760286Y-4049778D01*
X34767601Y-4086561D01*
X34760286Y-4104222D01*
X34744897Y-4127254D01*
X34737500Y-4164438D01*
X34737500Y-4326716D01*
X34723148Y-4361364D01*
X34688500Y-4375716D01*
X34678947Y-4374776D01*
X34677558Y-4374500D01*
X34202442Y-4374500D01*
X34202438Y-4374500D01*
X34165253Y-4381897D01*
X34123077Y-4410077D01*
X34094897Y-4452253D01*
X34087500Y-4489438D01*
X34087500Y-4964561D01*
X34094897Y-5001745D01*
X34094898Y-5001748D01*
X34106914Y-5019731D01*
X34110286Y-5024778D01*
X34117601Y-5061561D01*
X34110286Y-5079222D01*
X34094897Y-5102254D01*
X34087500Y-5139438D01*
X34087500Y-5614561D01*
X34094897Y-5651745D01*
X34094898Y-5651748D01*
X34105393Y-5667454D01*
X34110286Y-5674778D01*
X34117601Y-5711561D01*
X34110286Y-5729222D01*
X34094897Y-5752254D01*
X34087500Y-5789438D01*
X34087500Y-6264561D01*
X34094897Y-6301745D01*
X34094898Y-6301748D01*
X34097104Y-6305049D01*
X34110286Y-6324778D01*
X34117601Y-6361561D01*
X34110286Y-6379222D01*
X34094897Y-6402254D01*
X34087500Y-6439438D01*
X34087500Y-6914561D01*
X34094897Y-6951746D01*
X34123077Y-6993922D01*
X34132174Y-7000000D01*
X34165252Y-7022102D01*
X34202442Y-7029500D01*
X34677558Y-7029500D01*
X34678935Y-7029226D01*
X34679400Y-7029318D01*
X34679954Y-7029264D01*
X34679970Y-7029431D01*
X34715718Y-7036538D01*
X34736557Y-7067718D01*
X34737500Y-7077283D01*
X34737500Y-7239561D01*
X34744897Y-7276745D01*
X34744898Y-7276748D01*
X34756914Y-7294731D01*
X34760286Y-7299778D01*
X34767601Y-7336561D01*
X34760286Y-7354222D01*
X34744897Y-7377254D01*
X34737500Y-7414438D01*
X34737500Y-7889561D01*
X34744897Y-7926747D01*
X34746744Y-7931205D01*
X34744455Y-7932152D01*
X34750043Y-7960309D01*
X34729194Y-7991482D01*
X34726279Y-7993054D01*
X34726371Y-7993213D01*
X34648916Y-8037930D01*
X34648907Y-8037937D01*
X34636148Y-8050697D01*
X34601500Y-8065049D01*
X34566852Y-8050697D01*
X34552500Y-8016049D01*
X34552500Y-7602442D01*
X34552499Y-7602438D01*
X34549614Y-7587937D01*
X34545102Y-7565252D01*
X34521304Y-7529636D01*
X34516922Y-7523077D01*
X34485361Y-7501990D01*
X34474748Y-7494898D01*
X34474747Y-7494897D01*
X34474746Y-7494897D01*
X34437561Y-7487500D01*
X34437558Y-7487500D01*
X33962442Y-7487500D01*
X33962438Y-7487500D01*
X33925254Y-7494897D01*
X33925252Y-7494897D01*
X33925252Y-7494898D01*
X33912723Y-7503269D01*
X33902222Y-7510286D01*
X33865439Y-7517601D01*
X33847778Y-7510286D01*
X33842731Y-7506914D01*
X33824748Y-7494898D01*
X33824745Y-7494897D01*
X33787561Y-7487500D01*
X33787558Y-7487500D01*
X33625283Y-7487500D01*
X33590635Y-7473148D01*
X33576283Y-7438500D01*
X33577226Y-7428935D01*
X33577500Y-7427558D01*
X33577500Y-6952442D01*
X33570102Y-6915252D01*
X33544877Y-6877500D01*
X33541922Y-6873077D01*
X33501156Y-6845839D01*
X33499748Y-6844898D01*
X33499747Y-6844897D01*
X33499746Y-6844897D01*
X33462561Y-6837500D01*
X33462558Y-6837500D01*
X32987442Y-6837500D01*
X32987438Y-6837500D01*
X32950254Y-6844897D01*
X32950252Y-6844897D01*
X32950252Y-6844898D01*
X32948844Y-6845839D01*
X32927222Y-6860286D01*
X32890439Y-6867601D01*
X32872778Y-6860286D01*
X32867731Y-6856914D01*
X32849748Y-6844898D01*
X32849745Y-6844897D01*
X32812561Y-6837500D01*
X32812558Y-6837500D01*
X32337442Y-6837500D01*
X32337438Y-6837500D01*
X32300254Y-6844897D01*
X32300252Y-6844897D01*
X32300252Y-6844898D01*
X32298844Y-6845839D01*
X32277222Y-6860286D01*
X32240439Y-6867601D01*
X32222778Y-6860286D01*
X32217731Y-6856914D01*
X32199748Y-6844898D01*
X32199745Y-6844897D01*
X32162561Y-6837500D01*
X32162558Y-6837500D01*
X31687442Y-6837500D01*
X31687438Y-6837500D01*
X31650254Y-6844897D01*
X31650252Y-6844897D01*
X31650252Y-6844898D01*
X31648844Y-6845839D01*
X31627222Y-6860286D01*
X31590439Y-6867601D01*
X31572778Y-6860286D01*
X31567731Y-6856914D01*
X31549748Y-6844898D01*
X31549745Y-6844897D01*
X31512561Y-6837500D01*
X31512558Y-6837500D01*
X31037442Y-6837500D01*
X31037438Y-6837500D01*
X30995519Y-6845839D01*
X30995146Y-6843964D01*
X30964993Y-6843955D01*
X30938484Y-6817427D01*
X30938496Y-6779924D01*
X30949112Y-6764043D01*
X30951090Y-6762065D01*
X31012065Y-6701090D01*
X31055181Y-6626410D01*
X31077500Y-6543116D01*
X31077500Y-6456884D01*
X31077500Y-6456882D01*
X31068066Y-6421677D01*
X31055181Y-6373590D01*
X31055180Y-6373588D01*
X31055180Y-6373587D01*
X31012069Y-6298916D01*
X31012066Y-6298913D01*
X31012065Y-6298910D01*
X30951090Y-6237935D01*
X30951087Y-6237933D01*
X30951083Y-6237930D01*
X30876411Y-6194819D01*
X30793118Y-6172500D01*
X30793116Y-6172500D01*
X30706884Y-6172500D01*
X30706882Y-6172500D01*
X30623589Y-6194819D01*
X30623587Y-6194819D01*
X30548916Y-6237930D01*
X30548907Y-6237937D01*
X30496148Y-6290697D01*
X30461500Y-6305049D01*
X30426852Y-6290697D01*
X30412500Y-6256049D01*
X30412500Y-5789442D01*
X30412499Y-5789438D01*
X30405102Y-5752253D01*
X30405102Y-5752252D01*
X30382052Y-5717755D01*
X30376922Y-5710077D01*
X30345361Y-5688990D01*
X30334748Y-5681898D01*
X30334747Y-5681897D01*
X30334746Y-5681897D01*
X30297561Y-5674500D01*
X30297558Y-5674500D01*
X29822442Y-5674500D01*
X29821053Y-5674776D01*
X29820585Y-5674682D01*
X29820046Y-5674736D01*
X29820029Y-5674572D01*
X29784272Y-5667454D01*
X29763440Y-5636269D01*
X29762500Y-5626716D01*
X29762500Y-5464442D01*
X29762499Y-5464438D01*
X29755102Y-5427253D01*
X29755102Y-5427252D01*
X29739713Y-5404222D01*
X29732397Y-5367441D01*
X29739714Y-5349777D01*
X29755102Y-5326748D01*
X29762500Y-5289558D01*
X29762500Y-4814442D01*
X29755102Y-4777252D01*
X29739714Y-4754223D01*
X29726922Y-4735077D01*
X29694287Y-4713272D01*
X29684748Y-4706898D01*
X29684747Y-4706897D01*
X29684746Y-4706897D01*
X29647561Y-4699500D01*
X29647558Y-4699500D01*
X29172442Y-4699500D01*
X29172438Y-4699500D01*
X29135252Y-4706897D01*
X29105477Y-4726792D01*
X29068695Y-4734108D01*
X29037513Y-4713272D01*
X29029335Y-4688846D01*
X29026519Y-4639561D01*
X29018153Y-4493171D01*
X29030504Y-4457762D01*
X29032426Y-4455728D01*
X29035902Y-4452252D01*
X29062065Y-4426090D01*
X29105181Y-4351410D01*
X29127500Y-4268116D01*
X29127500Y-4181884D01*
X29127500Y-4181882D01*
X29114555Y-4133574D01*
X29105181Y-4098590D01*
X29105180Y-4098588D01*
X29105180Y-4098587D01*
X29062069Y-4023916D01*
X29062066Y-4023913D01*
X29062065Y-4023910D01*
X29014352Y-3976197D01*
X29000000Y-3941549D01*
X29000000Y-3000000D01*
X28201500Y-3000000D01*
X28166852Y-2985648D01*
X28152500Y-2951000D01*
X28152500Y-2906882D01*
X29697500Y-2906882D01*
X29697500Y-2993117D01*
X29719819Y-3076410D01*
X29719819Y-3076412D01*
X29762930Y-3151083D01*
X29762933Y-3151087D01*
X29762935Y-3151090D01*
X29823910Y-3212065D01*
X29823913Y-3212066D01*
X29823916Y-3212069D01*
X29886285Y-3248077D01*
X29898590Y-3255181D01*
X29937244Y-3265538D01*
X29981882Y-3277500D01*
X29981884Y-3277500D01*
X30068118Y-3277500D01*
X30097180Y-3269712D01*
X30151410Y-3255181D01*
X30163717Y-3248076D01*
X30212524Y-3219897D01*
X30226090Y-3212065D01*
X30271303Y-3166852D01*
X30305951Y-3152500D01*
X32564589Y-3152500D01*
X32599237Y-3166852D01*
X32613589Y-3201500D01*
X32599237Y-3236148D01*
X32591811Y-3242242D01*
X32583078Y-3248076D01*
X32554897Y-3290253D01*
X32547500Y-3327438D01*
X32547500Y-3802561D01*
X32554897Y-3839746D01*
X32583077Y-3881922D01*
X32602222Y-3894714D01*
X32625252Y-3910102D01*
X32662442Y-3917500D01*
X32824717Y-3917500D01*
X32859365Y-3931852D01*
X32873717Y-3966500D01*
X32872774Y-3976065D01*
X32872500Y-3977441D01*
X32872500Y-4452561D01*
X32879897Y-4489746D01*
X32908077Y-4531922D01*
X32929165Y-4546012D01*
X32950252Y-4560102D01*
X32987442Y-4567500D01*
X33462558Y-4567500D01*
X33499748Y-4560102D01*
X33541922Y-4531922D01*
X33570102Y-4489748D01*
X33577500Y-4452558D01*
X33577500Y-3977442D01*
X33577226Y-3976064D01*
X33577318Y-3975599D01*
X33577264Y-3975046D01*
X33577431Y-3975029D01*
X33584538Y-3939282D01*
X33615718Y-3918443D01*
X33625283Y-3917500D01*
X33787558Y-3917500D01*
X33824748Y-3910102D01*
X33847777Y-3894713D01*
X33884559Y-3887397D01*
X33902221Y-3894713D01*
X33925252Y-3910102D01*
X33962442Y-3917500D01*
X34437558Y-3917500D01*
X34474748Y-3910102D01*
X34516922Y-3881922D01*
X34545102Y-3839748D01*
X34552500Y-3802558D01*
X34552500Y-3327442D01*
X34545102Y-3290252D01*
X34525000Y-3260167D01*
X34516922Y-3248077D01*
X34474962Y-3220041D01*
X34474748Y-3219898D01*
X34474747Y-3219897D01*
X34474746Y-3219897D01*
X34437561Y-3212500D01*
X34437558Y-3212500D01*
X33962442Y-3212500D01*
X33962438Y-3212500D01*
X33925254Y-3219897D01*
X33925252Y-3219897D01*
X33925252Y-3219898D01*
X33925038Y-3220041D01*
X33902222Y-3235286D01*
X33892663Y-3237186D01*
X33884561Y-3242601D01*
X33875000Y-3240699D01*
X33865439Y-3242601D01*
X33847778Y-3235286D01*
X33841068Y-3230803D01*
X33824960Y-3220039D01*
X33804125Y-3188859D01*
X33811018Y-3154193D01*
X33810460Y-3153871D01*
X33811410Y-3152224D01*
X33811440Y-3152076D01*
X33811728Y-3151673D01*
X33824559Y-3129450D01*
X33855181Y-3076410D01*
X33872783Y-3010719D01*
X33877500Y-2993117D01*
X33877500Y-2906882D01*
X33864102Y-2856884D01*
X33855181Y-2823590D01*
X33855180Y-2823588D01*
X33855180Y-2823587D01*
X33812069Y-2748916D01*
X33812066Y-2748913D01*
X33812065Y-2748910D01*
X33751090Y-2687935D01*
X33751087Y-2687933D01*
X33751083Y-2687930D01*
X33676411Y-2644819D01*
X33593118Y-2622500D01*
X33593116Y-2622500D01*
X33506884Y-2622500D01*
X33506882Y-2622500D01*
X33423589Y-2644819D01*
X33423587Y-2644819D01*
X33348916Y-2687930D01*
X33348907Y-2687937D01*
X33303697Y-2733148D01*
X33269049Y-2747500D01*
X30305951Y-2747500D01*
X30271806Y-2733644D01*
X30271559Y-2733404D01*
X30226090Y-2687935D01*
X30222809Y-2686040D01*
X30218438Y-2681794D01*
X30213241Y-2669742D01*
X30205252Y-2659330D01*
X30206070Y-2653114D01*
X30203588Y-2647357D01*
X30208435Y-2635160D01*
X30210149Y-2622148D01*
X30215886Y-2616410D01*
X30217439Y-2612505D01*
X30221577Y-2610720D01*
X30228082Y-2604215D01*
X30301090Y-2562065D01*
X30346303Y-2516852D01*
X30380951Y-2502500D01*
X32669049Y-2502500D01*
X32703697Y-2516852D01*
X32748910Y-2562065D01*
X32748913Y-2562066D01*
X32748916Y-2562069D01*
X32798421Y-2590650D01*
X32823590Y-2605181D01*
X32862244Y-2615538D01*
X32906882Y-2627500D01*
X32906884Y-2627500D01*
X32993118Y-2627500D01*
X33022180Y-2619712D01*
X33076410Y-2605181D01*
X33151090Y-2562065D01*
X33212065Y-2501090D01*
X33255181Y-2426410D01*
X33277500Y-2343116D01*
X33277500Y-2256884D01*
X33277500Y-2256882D01*
X33263528Y-2204741D01*
X33255181Y-2173590D01*
X33255180Y-2173588D01*
X33255180Y-2173587D01*
X33212069Y-2098916D01*
X33212066Y-2098913D01*
X33212065Y-2098910D01*
X33151090Y-2037935D01*
X33151087Y-2037933D01*
X33151083Y-2037930D01*
X33076411Y-1994819D01*
X32993118Y-1972500D01*
X32993116Y-1972500D01*
X32906884Y-1972500D01*
X32906882Y-1972500D01*
X32823589Y-1994819D01*
X32823587Y-1994819D01*
X32748916Y-2037930D01*
X32748907Y-2037937D01*
X32703697Y-2083148D01*
X32669049Y-2097500D01*
X30380951Y-2097500D01*
X30346303Y-2083148D01*
X30301092Y-2037937D01*
X30301090Y-2037935D01*
X30301087Y-2037933D01*
X30301083Y-2037930D01*
X30226411Y-1994819D01*
X30143118Y-1972500D01*
X30143116Y-1972500D01*
X30056884Y-1972500D01*
X30056882Y-1972500D01*
X29973589Y-1994819D01*
X29973587Y-1994819D01*
X29898916Y-2037930D01*
X29898907Y-2037937D01*
X29837937Y-2098907D01*
X29837930Y-2098916D01*
X29794819Y-2173587D01*
X29794819Y-2173589D01*
X29772500Y-2256882D01*
X29772500Y-2343117D01*
X29794819Y-2426410D01*
X29794819Y-2426412D01*
X29837930Y-2501083D01*
X29837933Y-2501087D01*
X29837935Y-2501090D01*
X29898910Y-2562065D01*
X29898913Y-2562067D01*
X29901462Y-2564023D01*
X29900378Y-2565434D01*
X29919742Y-2590650D01*
X29914860Y-2627834D01*
X29896916Y-2645784D01*
X29823916Y-2687930D01*
X29823907Y-2687937D01*
X29762937Y-2748907D01*
X29762930Y-2748916D01*
X29719819Y-2823587D01*
X29719819Y-2823589D01*
X29697500Y-2906882D01*
X28152500Y-2906882D01*
X28152500Y-2409722D01*
X28152499Y-2409718D01*
X28121671Y-2335293D01*
X28121669Y-2335291D01*
X28121669Y-2335290D01*
X28064710Y-2278331D01*
X28064708Y-2278330D01*
X28064707Y-2278329D01*
X28012930Y-2256882D01*
X27990281Y-2247500D01*
X27990280Y-2247500D01*
X26049000Y-2247500D01*
X26014352Y-2233148D01*
X26000000Y-2198500D01*
X26000000Y-1901500D01*
X26014352Y-1866852D01*
X26049000Y-1852500D01*
X33719049Y-1852500D01*
X33753697Y-1866852D01*
X33798910Y-1912065D01*
X33798913Y-1912066D01*
X33798916Y-1912069D01*
X33873588Y-1955180D01*
X33873590Y-1955181D01*
X33912244Y-1965538D01*
X33956882Y-1977500D01*
X33956884Y-1977500D01*
X34043118Y-1977500D01*
X34072180Y-1969712D01*
X34126410Y-1955181D01*
X34201090Y-1912065D01*
X34262065Y-1851090D01*
X34296683Y-1791129D01*
X34305180Y-1776412D01*
X34305180Y-1776411D01*
X34305181Y-1776410D01*
X34327500Y-1693116D01*
X34327500Y-1606884D01*
X34327500Y-1606882D01*
X34318066Y-1571677D01*
X34305181Y-1523590D01*
X34305180Y-1523588D01*
X34305180Y-1523587D01*
X34262069Y-1448916D01*
X34262066Y-1448913D01*
X34262065Y-1448910D01*
X34201090Y-1387935D01*
X34201087Y-1387933D01*
X34201083Y-1387930D01*
X34126411Y-1344819D01*
X34043118Y-1322500D01*
X34043116Y-1322500D01*
X33956884Y-1322500D01*
X33956882Y-1322500D01*
X33873589Y-1344819D01*
X33873587Y-1344819D01*
X33798916Y-1387930D01*
X33798907Y-1387937D01*
X33753697Y-1433148D01*
X33719049Y-1447500D01*
X27176000Y-1447500D01*
X27141352Y-1433148D01*
X27127000Y-1398500D01*
X27127000Y-751500D01*
X27141352Y-716852D01*
X27176000Y-702500D01*
X31566049Y-702500D01*
X31600697Y-716852D01*
X31615049Y-751500D01*
X31600697Y-786148D01*
X31587937Y-798907D01*
X31587930Y-798916D01*
X31544819Y-873587D01*
X31544819Y-873589D01*
X31522500Y-956882D01*
X31522500Y-1043117D01*
X31544819Y-1126410D01*
X31544819Y-1126412D01*
X31587930Y-1201083D01*
X31587933Y-1201087D01*
X31587935Y-1201090D01*
X31648910Y-1262065D01*
X31648913Y-1262066D01*
X31648916Y-1262069D01*
X31716504Y-1301090D01*
X31723590Y-1305181D01*
X31762244Y-1315538D01*
X31806882Y-1327500D01*
X31806884Y-1327500D01*
X31893118Y-1327500D01*
X31922180Y-1319712D01*
X31976410Y-1305181D01*
X31983571Y-1301047D01*
X32051083Y-1262069D01*
X32051082Y-1262069D01*
X32051090Y-1262065D01*
X32096303Y-1216852D01*
X32130951Y-1202500D01*
X34169049Y-1202500D01*
X34203697Y-1216852D01*
X34248910Y-1262065D01*
X34248913Y-1262066D01*
X34248916Y-1262069D01*
X34316504Y-1301090D01*
X34323590Y-1305181D01*
X34362244Y-1315538D01*
X34406882Y-1327500D01*
X34406884Y-1327500D01*
X34493118Y-1327500D01*
X34522180Y-1319712D01*
X34576410Y-1305181D01*
X34583571Y-1301047D01*
X34651083Y-1262069D01*
X34651082Y-1262069D01*
X34651090Y-1262065D01*
X34712065Y-1201090D01*
X34755181Y-1126410D01*
X34777500Y-1043116D01*
X34777500Y-956884D01*
X34777500Y-956882D01*
X34766640Y-916355D01*
X34766640Y-916354D01*
X34764102Y-906882D01*
X35572500Y-906882D01*
X35572500Y-1043117D01*
X35594819Y-1126410D01*
X35594819Y-1126412D01*
X35637930Y-1201083D01*
X35637933Y-1201087D01*
X35637935Y-1201090D01*
X35698910Y-1262065D01*
X35698913Y-1262066D01*
X35698916Y-1262069D01*
X35766504Y-1301090D01*
X35773590Y-1305181D01*
X35812244Y-1315538D01*
X35856882Y-1327500D01*
X35856884Y-1327500D01*
X35943118Y-1327500D01*
X35972180Y-1319712D01*
X36026410Y-1305181D01*
X36033571Y-1301047D01*
X36101083Y-1262069D01*
X36101082Y-1262069D01*
X36101090Y-1262065D01*
X36146303Y-1216852D01*
X36164337Y-1198819D01*
X36165284Y-1199766D01*
X36193793Y-1183287D01*
X36196906Y-1182977D01*
X36313249Y-1175148D01*
X36348783Y-1187141D01*
X36364597Y-1214477D01*
X36367729Y-1230220D01*
X36367730Y-1230223D01*
X36389009Y-1262069D01*
X36425747Y-1317052D01*
X36433901Y-1322500D01*
X36512577Y-1375070D01*
X36589144Y-1390300D01*
X36589147Y-1390300D01*
X36910853Y-1390300D01*
X36910856Y-1390300D01*
X36987423Y-1375070D01*
X37074252Y-1317052D01*
X37132270Y-1230223D01*
X37147500Y-1153656D01*
X37147500Y-731944D01*
X37132270Y-655377D01*
X37097490Y-603326D01*
X37074252Y-568547D01*
X37022201Y-533768D01*
X36987423Y-510530D01*
X36910856Y-495300D01*
X36589144Y-495300D01*
X36512577Y-510530D01*
X36425747Y-568547D01*
X36374785Y-644819D01*
X36367730Y-655377D01*
X36358638Y-701090D01*
X36357944Y-704577D01*
X36337108Y-735760D01*
X36310300Y-744016D01*
X36178996Y-745128D01*
X36144227Y-731070D01*
X36143933Y-730778D01*
X36101092Y-687937D01*
X36101090Y-687935D01*
X36101087Y-687933D01*
X36101083Y-687930D01*
X36026411Y-644819D01*
X35943118Y-622500D01*
X35943116Y-622500D01*
X35856884Y-622500D01*
X35856882Y-622500D01*
X35773589Y-644819D01*
X35773587Y-644819D01*
X35698916Y-687930D01*
X35698907Y-687937D01*
X35637937Y-748907D01*
X35637930Y-748916D01*
X35594819Y-823587D01*
X35594819Y-823589D01*
X35572500Y-906882D01*
X34764102Y-906882D01*
X34761201Y-896056D01*
X34755181Y-873590D01*
X34755180Y-873589D01*
X34755180Y-873587D01*
X34712069Y-798916D01*
X34712066Y-798913D01*
X34712065Y-798910D01*
X34651090Y-737935D01*
X34651087Y-737933D01*
X34651083Y-737930D01*
X34576411Y-694819D01*
X34493118Y-672500D01*
X34493116Y-672500D01*
X34406884Y-672500D01*
X34406882Y-672500D01*
X34323589Y-694819D01*
X34323587Y-694819D01*
X34248916Y-737930D01*
X34248907Y-737937D01*
X34203697Y-783148D01*
X34169049Y-797500D01*
X32733951Y-797500D01*
X32699303Y-783148D01*
X32684951Y-748500D01*
X32699303Y-713852D01*
X32712065Y-701090D01*
X32755181Y-626410D01*
X32777500Y-543116D01*
X32777500Y-456884D01*
X32777500Y-456882D01*
X32768066Y-421677D01*
X32755181Y-373590D01*
X32755180Y-373588D01*
X32755180Y-373587D01*
X32726551Y-324000D01*
X32721656Y-286818D01*
X32744486Y-257065D01*
X32768986Y-250500D01*
X37700500Y-250500D01*
X37735148Y-264852D01*
G37*
%TD.AperFunction*%
%TA.AperFunction,Conductor*%
G36*
X29083648Y-6006504D02*
G01*
X29089743Y-6013931D01*
X29093077Y-6018922D01*
X29105167Y-6027000D01*
X29135252Y-6047102D01*
X29172442Y-6054500D01*
X29647558Y-6054500D01*
X29648935Y-6054226D01*
X29649400Y-6054318D01*
X29649954Y-6054264D01*
X29649970Y-6054431D01*
X29685718Y-6061538D01*
X29706557Y-6092718D01*
X29707500Y-6102283D01*
X29707500Y-6264561D01*
X29714897Y-6301745D01*
X29714898Y-6301748D01*
X29717104Y-6305049D01*
X29730286Y-6324778D01*
X29737601Y-6361561D01*
X29730286Y-6379222D01*
X29714897Y-6402254D01*
X29707500Y-6439438D01*
X29707500Y-6914561D01*
X29714897Y-6951746D01*
X29743077Y-6993922D01*
X29752174Y-7000000D01*
X29785252Y-7022102D01*
X29822442Y-7029500D01*
X30297558Y-7029500D01*
X30334748Y-7022102D01*
X30376922Y-6993922D01*
X30405102Y-6951748D01*
X30408968Y-6932312D01*
X30429803Y-6901131D01*
X30458655Y-6892900D01*
X30706491Y-6901162D01*
X30709720Y-6902500D01*
X30746611Y-6902500D01*
X30766831Y-6903174D01*
X30783510Y-6903730D01*
X30783510Y-6903729D01*
X30783511Y-6903730D01*
X30783511Y-6903729D01*
X30786888Y-6903174D01*
X30790278Y-6902500D01*
X30790280Y-6902500D01*
X30823685Y-6888661D01*
X30825089Y-6888107D01*
X30858924Y-6875397D01*
X30858924Y-6875396D01*
X30861718Y-6874347D01*
X30899201Y-6875597D01*
X30924820Y-6902985D01*
X30927008Y-6929776D01*
X30922500Y-6952436D01*
X30922500Y-7427558D01*
X30922774Y-7428935D01*
X30922681Y-7429400D01*
X30922736Y-7429954D01*
X30922568Y-7429970D01*
X30915462Y-7465718D01*
X30884282Y-7486557D01*
X30874717Y-7487500D01*
X30712438Y-7487500D01*
X30675254Y-7494897D01*
X30675252Y-7494897D01*
X30675252Y-7494898D01*
X30662723Y-7503269D01*
X30652222Y-7510286D01*
X30615439Y-7517601D01*
X30597778Y-7510286D01*
X30592731Y-7506914D01*
X30574748Y-7494898D01*
X30574745Y-7494897D01*
X30537561Y-7487500D01*
X30537558Y-7487500D01*
X30062442Y-7487500D01*
X30062438Y-7487500D01*
X30025253Y-7494897D01*
X29983077Y-7523077D01*
X29954897Y-7565253D01*
X29947500Y-7602438D01*
X29947500Y-7722419D01*
X29943477Y-7732130D01*
X29943134Y-7742638D01*
X29936582Y-7748774D01*
X29933148Y-7757067D01*
X29915764Y-7768277D01*
X29845741Y-7794639D01*
X29838042Y-7796838D01*
X29834722Y-7797498D01*
X29830247Y-7799352D01*
X29792744Y-7799348D01*
X29766228Y-7772827D01*
X29762500Y-7754080D01*
X29762500Y-7414442D01*
X29762499Y-7414438D01*
X29762200Y-7412937D01*
X29755102Y-7377252D01*
X29735222Y-7347500D01*
X29726922Y-7335077D01*
X29695361Y-7313990D01*
X29684748Y-7306898D01*
X29684747Y-7306897D01*
X29684746Y-7306897D01*
X29647561Y-7299500D01*
X29647558Y-7299500D01*
X29172442Y-7299500D01*
X29172438Y-7299500D01*
X29135253Y-7306897D01*
X29093077Y-7335077D01*
X29064897Y-7377253D01*
X29057500Y-7414438D01*
X29057500Y-7873500D01*
X29043148Y-7908148D01*
X29008500Y-7922500D01*
X28270141Y-7922500D01*
X28235493Y-7908148D01*
X28221141Y-7873500D01*
X28227705Y-7849000D01*
X28229050Y-7846671D01*
X28255181Y-7801410D01*
X28276033Y-7723590D01*
X28277500Y-7718117D01*
X28277500Y-7631882D01*
X28265722Y-7587930D01*
X28255181Y-7548590D01*
X28255180Y-7548588D01*
X28255180Y-7548587D01*
X28212069Y-7473916D01*
X28212066Y-7473913D01*
X28212065Y-7473910D01*
X28151090Y-7412935D01*
X28151087Y-7412933D01*
X28151083Y-7412930D01*
X28076411Y-7369819D01*
X27993118Y-7347500D01*
X27993116Y-7347500D01*
X27906884Y-7347500D01*
X27906882Y-7347500D01*
X27823589Y-7369819D01*
X27823587Y-7369819D01*
X27748916Y-7412930D01*
X27748907Y-7412937D01*
X27703697Y-7458148D01*
X27669049Y-7472500D01*
X26049000Y-7472500D01*
X26014352Y-7458148D01*
X26000000Y-7423500D01*
X26000000Y-7049000D01*
X26014352Y-7014352D01*
X26049000Y-7000000D01*
X26168952Y-7000000D01*
X26203600Y-7014352D01*
X26209694Y-7021777D01*
X26237142Y-7062857D01*
X26296265Y-7102360D01*
X26325627Y-7121980D01*
X26403652Y-7137500D01*
X26403655Y-7137500D01*
X26736345Y-7137500D01*
X26736348Y-7137500D01*
X26814373Y-7121980D01*
X26902857Y-7062857D01*
X26930306Y-7021777D01*
X26961488Y-7000942D01*
X26971048Y-7000000D01*
X29000000Y-7000000D01*
X29000000Y-6041152D01*
X29014352Y-6006504D01*
X29049000Y-5992152D01*
X29083648Y-6006504D01*
G37*
%TD.AperFunction*%
%TA.AperFunction,Conductor*%
G36*
X36111060Y-4172252D02*
G01*
X36137442Y-4177500D01*
X37258223Y-4177500D01*
X37292871Y-4191852D01*
X37307223Y-4226500D01*
X37303493Y-4245252D01*
X37297500Y-4259718D01*
X37297500Y-4948500D01*
X37283148Y-4983148D01*
X37248500Y-4997500D01*
X36237438Y-4997500D01*
X36200253Y-5004897D01*
X36158079Y-5033076D01*
X36158013Y-5033143D01*
X36157926Y-5033178D01*
X36154065Y-5035759D01*
X36153552Y-5034991D01*
X36123367Y-5047500D01*
X36101500Y-5047500D01*
X36066852Y-5033148D01*
X36052500Y-4998500D01*
X36052500Y-4220310D01*
X36054420Y-4215672D01*
X36053442Y-4210750D01*
X36061382Y-4198866D01*
X36066852Y-4185662D01*
X36071488Y-4183741D01*
X36074278Y-4179567D01*
X36088297Y-4176778D01*
X36101500Y-4171310D01*
X36111060Y-4172252D01*
G37*
%TD.AperFunction*%
%TD*%
M02*
