%TF.GenerationSoftware,KiCad,Pcbnew,9.0.8-9.0.8~ubuntu24.04.1*%
%TF.CreationDate,2026-06-29T14:41:35-04:00*%
%TF.ProjectId,ring,72696e67-2e6b-4696-9361-645f70636258,rev?*%
%TF.SameCoordinates,Original*%
%TF.FileFunction,Soldermask,Top*%
%TF.FilePolarity,Negative*%
%FSLAX46Y46*%
G04 Gerber Fmt 4.6, Leading zero omitted, Abs format (unit mm)*
G04 Created by KiCad (PCBNEW 9.0.8-9.0.8~ubuntu24.04.1) date 2026-06-29 14:41:35*
%MOMM*%
%LPD*%
G01*
G04 APERTURE LIST*
G04 Aperture macros list*
%AMRoundRect*
0 Rectangle with rounded corners*
0 $1 Rounding radius*
0 $2 $3 $4 $5 $6 $7 $8 $9 X,Y pos of 4 corners*
0 Add a 4 corners polygon primitive as box body*
4,1,4,$2,$3,$4,$5,$6,$7,$8,$9,$2,$3,0*
0 Add four circle primitives for the rounded corners*
1,1,$1+$1,$2,$3*
1,1,$1+$1,$4,$5*
1,1,$1+$1,$6,$7*
1,1,$1+$1,$8,$9*
0 Add four rect primitives between the rounded corners*
20,1,$1+$1,$2,$3,$4,$5,0*
20,1,$1+$1,$4,$5,$6,$7,0*
20,1,$1+$1,$6,$7,$8,$9,0*
20,1,$1+$1,$8,$9,$2,$3,0*%
G04 Aperture macros list end*
%ADD10RoundRect,0.140000X-0.140000X-0.170000X0.140000X-0.170000X0.140000X0.170000X-0.140000X0.170000X0*%
%ADD11R,1.000000X1.000000*%
%ADD12RoundRect,0.135000X-0.135000X-0.185000X0.135000X-0.185000X0.135000X0.185000X-0.135000X0.185000X0*%
%ADD13R,1.000000X1.750000*%
%ADD14R,0.450000X0.450000*%
%ADD15R,0.500000X0.500000*%
%ADD16R,1.000000X0.250000*%
%ADD17R,1.200000X0.800000*%
%ADD18R,0.800000X0.500000*%
%ADD19R,0.600000X0.550000*%
%ADD20RoundRect,0.200500X-0.200500X-0.285500X0.200500X-0.285500X0.200500X0.285500X-0.200500X0.285500X0*%
%ADD21RoundRect,0.212500X-0.212500X-0.212500X0.212500X-0.212500X0.212500X0.212500X-0.212500X0.212500X0*%
%ADD22R,0.350000X0.300000*%
G04 APERTURE END LIST*
D10*
%TO.C,C7*%
X26570000Y-6700000D03*
X27530000Y-6700000D03*
%TD*%
D11*
%TO.C,SWD2*%
X29250000Y-9250000D03*
%TD*%
D12*
%TO.C,R3*%
X36750000Y-1962800D03*
X36750000Y-942800D03*
%TD*%
D13*
%TO.C,SP3*%
X14150000Y-1500000D03*
X15850000Y-1500000D03*
%TD*%
D11*
%TO.C,SWD1*%
X26750000Y-9250000D03*
%TD*%
D12*
%TO.C,R4*%
X5640000Y-5000000D03*
X6660000Y-5000000D03*
%TD*%
%TO.C,R2*%
X27350000Y-4435000D03*
X27350000Y-3415000D03*
%TD*%
%TO.C,C1*%
X7980000Y-1031400D03*
X9000000Y-1031400D03*
%TD*%
%TO.C,R1*%
X36370000Y-7850000D03*
X37390000Y-7850000D03*
%TD*%
D14*
%TO.C,U1*%
X29410000Y-2160000D03*
X29410000Y-2810000D03*
X29410000Y-3752000D03*
X29410000Y-4402000D03*
X29410000Y-5052000D03*
X29410000Y-5702000D03*
X29410000Y-6352000D03*
X29410000Y-7002000D03*
X29410000Y-7652000D03*
X30060000Y-4727000D03*
X30060000Y-5377000D03*
X30060000Y-6027000D03*
X30060000Y-6677000D03*
X30300000Y-7840000D03*
X30950000Y-7840000D03*
X31600000Y-7840000D03*
X32250000Y-7840000D03*
X32900000Y-7840000D03*
X33550000Y-7840000D03*
X34200000Y-7840000D03*
X31275000Y-7190000D03*
X31925000Y-7190000D03*
X32575000Y-7190000D03*
X33225000Y-7190000D03*
X35090000Y-7652000D03*
X35090000Y-7002000D03*
X35090000Y-6352000D03*
X35090000Y-5702000D03*
X35090000Y-5052000D03*
X35090000Y-4402000D03*
X35090000Y-3752000D03*
X35090000Y-2810000D03*
X35090000Y-2160000D03*
X34440000Y-6677000D03*
X34440000Y-6027000D03*
X34440000Y-5377000D03*
X34440000Y-4727000D03*
X34200000Y-3565000D03*
X33550000Y-3565000D03*
X32900000Y-3565000D03*
X32250000Y-3565000D03*
X31600000Y-3565000D03*
X30950000Y-3565000D03*
X30300000Y-3565000D03*
X33225000Y-4215000D03*
X32575000Y-4215000D03*
X31925000Y-4215000D03*
X31275000Y-4215000D03*
D15*
X31730000Y-5252000D03*
X31730000Y-6152000D03*
X32770000Y-5252000D03*
X32770000Y-6152000D03*
%TD*%
D16*
%TO.C,J2*%
X1250000Y-4250000D03*
X1250000Y-4750000D03*
X1250000Y-5250000D03*
X1250000Y-5750000D03*
D17*
X1250000Y-3150000D03*
X1250000Y-6850000D03*
%TD*%
D12*
%TO.C,R5*%
X7980000Y-4291400D03*
X9000000Y-4291400D03*
%TD*%
D18*
%TO.C,D2*%
X16200000Y-6254700D03*
X16200000Y-4654700D03*
X17200000Y-6254700D03*
X17200000Y-4654700D03*
%TD*%
D19*
%TO.C,ESD2*%
X4860000Y-3600000D03*
X5660000Y-3600000D03*
%TD*%
D16*
%TO.C,J1*%
X36750000Y-5250000D03*
X36750000Y-4750000D03*
D17*
X36750000Y-6350000D03*
X36750000Y-3650000D03*
%TD*%
D19*
%TO.C,ESD1*%
X26650000Y-1100000D03*
X27450000Y-1100000D03*
%TD*%
D12*
%TO.C,R7*%
X13763400Y-5000000D03*
X14783400Y-5000000D03*
%TD*%
D13*
%TO.C,SP2*%
X3150000Y-8500000D03*
X4850000Y-8500000D03*
%TD*%
D12*
%TO.C,C2*%
X8490000Y-3171400D03*
X8490000Y-2151400D03*
%TD*%
D13*
%TO.C,SP4*%
X14150000Y-8500000D03*
X15850000Y-8500000D03*
%TD*%
D18*
%TO.C,D3*%
X11550000Y-8782800D03*
X11550000Y-7182800D03*
X12550000Y-8782800D03*
X12550000Y-7182800D03*
%TD*%
D20*
%TO.C,Q1*%
X8950000Y-8993000D03*
X7050000Y-8993000D03*
X8000000Y-6251000D03*
%TD*%
D12*
%TO.C,R6*%
X13865000Y-3554800D03*
X14885000Y-3554800D03*
%TD*%
D11*
%TO.C,SWD3*%
X31750000Y-9250000D03*
%TD*%
D13*
%TO.C,SP1*%
X3150000Y-1500000D03*
X4850000Y-1500000D03*
%TD*%
D11*
%TO.C,SWD4*%
X34250000Y-9250000D03*
%TD*%
D21*
%TO.C,D1*%
X10125000Y-1707800D03*
X12625000Y-1707800D03*
%TD*%
D22*
%TO.C,U2*%
X10550000Y-3332800D03*
X10550000Y-3832800D03*
X10550000Y-4332800D03*
X10550000Y-4832800D03*
X10550000Y-5332800D03*
X10550000Y-5832800D03*
X10550000Y-6332800D03*
X12550000Y-6332800D03*
X12550000Y-5832800D03*
X12550000Y-5332800D03*
X12550000Y-4832800D03*
X12550000Y-4332800D03*
X12550000Y-3832800D03*
X12550000Y-3332800D03*
%TD*%
D12*
%TO.C,C8*%
X6860000Y-3880000D03*
X6860000Y-2860000D03*
%TD*%
M02*
