%TF.GenerationSoftware,KiCad,Pcbnew,9.0.8-9.0.8~ubuntu24.04.1*%
%TF.CreationDate,2026-06-29T20:47:15-04:00*%
%TF.ProjectId,ring,72696e67-2e6b-4696-9361-645f70636258,rev?*%
%TF.SameCoordinates,Original*%
%TF.FileFunction,Copper,L1,Top*%
%TF.FilePolarity,Positive*%
%FSLAX46Y46*%
G04 Gerber Fmt 4.6, Leading zero omitted, Abs format (unit mm)*
G04 Created by KiCad (PCBNEW 9.0.8-9.0.8~ubuntu24.04.1) date 2026-06-29 20:47:15*
%MOMM*%
%LPD*%
G01*
G04 APERTURE LIST*
G04 Aperture macros list*
%AMRoundRect*
0 Rectangle with rounded corners*
0 $1 Rounding radius*
0 $2 $3 $4 $5 $6 $7 $8 $9 X,Y pos of 4 corners*
0 Add a 4 corners polygon primitive as box body*
4,1,4,$2,$3,$4,$5,$6,$7,$8,$9,$2,$3,0*
0 Add four circle primitives for the rounded corners*
1,1,$1+$1,$2,$3*
1,1,$1+$1,$4,$5*
1,1,$1+$1,$6,$7*
1,1,$1+$1,$8,$9*
0 Add four rect primitives between the rounded corners*
20,1,$1+$1,$2,$3,$4,$5,0*
20,1,$1+$1,$4,$5,$6,$7,0*
20,1,$1+$1,$6,$7,$8,$9,0*
20,1,$1+$1,$8,$9,$2,$3,0*%
G04 Aperture macros list end*
%TA.AperFunction,SMDPad,CuDef*%
%ADD10R,0.350000X0.300000*%
%TD*%
%TA.AperFunction,SMDPad,CuDef*%
%ADD11RoundRect,0.135000X-0.135000X-0.185000X0.135000X-0.185000X0.135000X0.185000X-0.135000X0.185000X0*%
%TD*%
%TA.AperFunction,SMDPad,CuDef*%
%ADD12R,0.800000X0.500000*%
%TD*%
%TA.AperFunction,SMDPad,CuDef*%
%ADD13R,1.000000X1.750000*%
%TD*%
%TA.AperFunction,SMDPad,CuDef*%
%ADD14R,1.000000X1.000000*%
%TD*%
%TA.AperFunction,SMDPad,CuDef*%
%ADD15R,0.600000X0.550000*%
%TD*%
%TA.AperFunction,SMDPad,CuDef*%
%ADD16R,0.450000X0.450000*%
%TD*%
%TA.AperFunction,SMDPad,CuDef*%
%ADD17R,0.500000X0.500000*%
%TD*%
%TA.AperFunction,SMDPad,CuDef*%
%ADD18RoundRect,0.212500X-0.212500X-0.212500X0.212500X-0.212500X0.212500X0.212500X-0.212500X0.212500X0*%
%TD*%
%TA.AperFunction,SMDPad,CuDef*%
%ADD19R,1.000000X0.250000*%
%TD*%
%TA.AperFunction,SMDPad,CuDef*%
%ADD20R,1.200000X0.800000*%
%TD*%
%TA.AperFunction,SMDPad,CuDef*%
%ADD21RoundRect,0.200500X-0.200500X-0.285500X0.200500X-0.285500X0.200500X0.285500X-0.200500X0.285500X0*%
%TD*%
%TA.AperFunction,ViaPad*%
%ADD22C,0.300000*%
%TD*%
%TA.AperFunction,Conductor*%
%ADD23C,0.150000*%
%TD*%
G04 APERTURE END LIST*
D10*
%TO.P,U2,1*%
%TO.N,GND*%
X12850000Y-3332800D03*
%TO.P,U2,2*%
%TO.N,QVAR1*%
X12850000Y-3832800D03*
%TO.P,U2,3*%
%TO.N,QVAR2*%
X12850000Y-4332800D03*
%TO.P,U2,4*%
%TO.N,IMU_INT*%
X12850000Y-4832800D03*
%TO.P,U2,5*%
%TO.N,N/C*%
X12850000Y-5332800D03*
%TO.P,U2,6*%
%TO.N,GND*%
X12850000Y-5832800D03*
%TO.P,U2,7*%
X12850000Y-6332800D03*
%TO.P,U2,8*%
%TO.N,VBAT*%
X14850000Y-6332800D03*
%TO.P,U2,9*%
%TO.N,GND*%
X14850000Y-5832800D03*
%TO.P,U2,10*%
%TO.N,N/C*%
X14850000Y-5332800D03*
%TO.P,U2,11*%
%TO.N,VBAT*%
X14850000Y-4832800D03*
%TO.P,U2,12*%
%TO.N,SCL*%
X14850000Y-4332800D03*
%TO.P,U2,13*%
%TO.N,SDA*%
X14850000Y-3832800D03*
%TO.P,U2,14*%
%TO.N,VBAT*%
X14850000Y-3332800D03*
%TD*%
D11*
%TO.P,R3,1*%
%TO.N,VBUS*%
X27110000Y-6182800D03*
%TO.P,R3,2*%
%TO.N,VBAT*%
X28130000Y-6182800D03*
%TD*%
D12*
%TO.P,D2,GA*%
%TO.N,LED_GREEN_A*%
X16200000Y-6254700D03*
%TO.P,D2,GK*%
%TO.N,LED_GREEN*%
X16200000Y-4654700D03*
%TO.P,D2,RA*%
%TO.N,LED_RED_A*%
X17200000Y-6254700D03*
%TO.P,D2,RK*%
%TO.N,LED_RED*%
X17200000Y-4654700D03*
%TD*%
D13*
%TO.P,SP2,1*%
%TO.N,GND*%
X3150000Y-8500000D03*
%TO.P,SP2,2*%
X4850000Y-8500000D03*
%TD*%
D11*
%TO.P,R8,1*%
%TO.N,HAPTIC_EN*%
X3260000Y-6590200D03*
%TO.P,R8,2*%
%TO.N,GND*%
X3260000Y-5570200D03*
%TD*%
%TO.P,R6,1*%
%TO.N,VBAT*%
X11500000Y-4585400D03*
%TO.P,R6,2*%
%TO.N,LED_RED_A*%
X11500000Y-3565400D03*
%TD*%
D14*
%TO.P,SWD4,1*%
%TO.N,GND*%
X34250000Y-9250000D03*
%TD*%
D11*
%TO.P,R7,1*%
%TO.N,VBAT*%
X10150000Y-4585400D03*
%TO.P,R7,2*%
%TO.N,LED_GREEN_A*%
X10150000Y-3565400D03*
%TD*%
D14*
%TO.P,SWD1,1*%
%TO.N,SWDIO*%
X26750000Y-9250000D03*
%TD*%
D15*
%TO.P,ESD2,A*%
%TO.N,QVAR2*%
X6400000Y-5969100D03*
%TO.P,ESD2,K*%
%TO.N,GND*%
X6400000Y-5169100D03*
%TD*%
D12*
%TO.P,D3,GA*%
%TO.N,LED_GREEN_A*%
X11550000Y-8782800D03*
%TO.P,D3,GK*%
%TO.N,LED_GREEN*%
X11550000Y-7182800D03*
%TO.P,D3,RA*%
%TO.N,LED_RED_A*%
X12550000Y-8782800D03*
%TO.P,D3,RK*%
%TO.N,LED_RED*%
X12550000Y-7182800D03*
%TD*%
D16*
%TO.P,U1,1*%
%TO.N,GND*%
X29410000Y-2160000D03*
%TO.P,U1,2*%
X29410000Y-2810000D03*
%TO.P,U1,3*%
X29410000Y-3752000D03*
%TO.P,U1,4*%
X29410000Y-4402000D03*
%TO.P,U1,5*%
%TO.N,ANT*%
X29410000Y-5052000D03*
%TO.P,U1,6*%
X29410000Y-5702000D03*
%TO.P,U1,7*%
%TO.N,GND*%
X29410000Y-6352000D03*
%TO.P,U1,8*%
X29410000Y-7002000D03*
%TO.P,U1,9*%
%TO.N,VBAT*%
X29410000Y-7652000D03*
%TO.P,U1,10*%
%TO.N,GND*%
X30060000Y-4727000D03*
%TO.P,U1,11*%
X30060000Y-5377000D03*
%TO.P,U1,12*%
%TO.N,N/C*%
X30060000Y-6027000D03*
%TO.P,U1,13*%
%TO.N,SCL*%
X30060000Y-6677000D03*
%TO.P,U1,14*%
%TO.N,SDA*%
X30300000Y-7840000D03*
%TO.P,U1,15*%
%TO.N,HAPTIC_EN*%
X30950000Y-7840000D03*
%TO.P,U1,16*%
%TO.N,N/C*%
X31600000Y-7840000D03*
%TO.P,U1,17*%
X32250000Y-7840000D03*
%TO.P,U1,18*%
X32900000Y-7840000D03*
%TO.P,U1,19*%
X33550000Y-7840000D03*
%TO.P,U1,20*%
X34200000Y-7840000D03*
%TO.P,U1,21*%
X31275000Y-7190000D03*
%TO.P,U1,22*%
%TO.N,LED_RED*%
X31925000Y-7190000D03*
%TO.P,U1,23*%
%TO.N,IMU_INT*%
X32575000Y-7190000D03*
%TO.P,U1,24*%
%TO.N,LED_GREEN*%
X33225000Y-7190000D03*
%TO.P,U1,25*%
%TO.N,N/C*%
X35090000Y-7652000D03*
%TO.P,U1,26*%
X35090000Y-7002000D03*
%TO.P,U1,27*%
X35090000Y-6352000D03*
%TO.P,U1,28*%
X35090000Y-5702000D03*
%TO.P,U1,29*%
X35090000Y-5052000D03*
%TO.P,U1,30*%
X35090000Y-4402000D03*
%TO.P,U1,31*%
X35090000Y-3752000D03*
%TO.P,U1,32*%
%TO.N,GND*%
X35090000Y-2810000D03*
%TO.P,U1,33*%
X35090000Y-2160000D03*
%TO.P,U1,34*%
%TO.N,N/C*%
X34440000Y-6677000D03*
%TO.P,U1,35*%
X34440000Y-6027000D03*
%TO.P,U1,36*%
X34440000Y-5377000D03*
%TO.P,U1,37*%
X34440000Y-4727000D03*
%TO.P,U1,38*%
X34200000Y-3565000D03*
%TO.P,U1,39*%
%TO.N,SWDCLK*%
X33550000Y-3565000D03*
%TO.P,U1,40*%
%TO.N,SWDIO*%
X32900000Y-3565000D03*
%TO.P,U1,41*%
%TO.N,GND*%
X32250000Y-3565000D03*
%TO.P,U1,42*%
X31600000Y-3565000D03*
%TO.P,U1,43*%
X30950000Y-3565000D03*
%TO.P,U1,44*%
X30300000Y-3565000D03*
%TO.P,U1,45*%
%TO.N,N/C*%
X33225000Y-4215000D03*
%TO.P,U1,46*%
%TO.N,GND*%
X32575000Y-4215000D03*
%TO.P,U1,47*%
X31925000Y-4215000D03*
%TO.P,U1,48*%
X31275000Y-4215000D03*
D17*
%TO.P,U1,49*%
X31730000Y-5252000D03*
%TO.P,U1,50*%
X31730000Y-6152000D03*
%TO.P,U1,51*%
X32770000Y-5252000D03*
%TO.P,U1,52*%
X32770000Y-6152000D03*
%TD*%
D13*
%TO.P,SP4,1*%
%TO.N,MOTOR_N*%
X14150000Y-8500000D03*
%TO.P,SP4,2*%
X15850000Y-8500000D03*
%TD*%
%TO.P,SP3,1*%
%TO.N,VBAT*%
X14150000Y-1500000D03*
%TO.P,SP3,2*%
X15850000Y-1500000D03*
%TD*%
%TO.P,SP1,1*%
%TO.N,VBAT*%
X3150000Y-1500000D03*
%TO.P,SP1,2*%
X4850000Y-1500000D03*
%TD*%
D11*
%TO.P,R5,1*%
%TO.N,QVAR2_RAW*%
X4880000Y-3855400D03*
%TO.P,R5,2*%
%TO.N,QVAR2*%
X5900000Y-3855400D03*
%TD*%
%TO.P,C8,1*%
%TO.N,QVAR2*%
X4987500Y-6609100D03*
%TO.P,C8,2*%
%TO.N,GND*%
X4987500Y-5589100D03*
%TD*%
D18*
%TO.P,D1,A*%
%TO.N,MOTOR_N*%
X10125000Y-1707800D03*
%TO.P,D1,K*%
%TO.N,VBAT*%
X12625000Y-1707800D03*
%TD*%
D11*
%TO.P,C7,1*%
%TO.N,QVAR1*%
X2870000Y-3778900D03*
%TO.P,C7,2*%
%TO.N,GND*%
X3890000Y-3778900D03*
%TD*%
D14*
%TO.P,SWD2,1*%
%TO.N,SWDCLK*%
X29250000Y-9250000D03*
%TD*%
D19*
%TO.P,J2,1*%
%TO.N,QVAR1_RAW*%
X1250000Y-4250000D03*
%TO.P,J2,2*%
%TO.N,QVAR2_RAW*%
X1250000Y-4750000D03*
%TO.P,J2,3*%
%TO.N,GND*%
X1250000Y-5250000D03*
%TO.P,J2,4*%
X1250000Y-5750000D03*
D20*
%TO.P,J2,MP1*%
%TO.N,N/C*%
X1250000Y-3150000D03*
%TO.P,J2,MP2*%
X1250000Y-6850000D03*
%TD*%
D11*
%TO.P,R1,1*%
%TO.N,VBAT*%
X26570000Y-4832800D03*
%TO.P,R1,2*%
%TO.N,SDA*%
X27590000Y-4832800D03*
%TD*%
D15*
%TO.P,ESD1,A*%
%TO.N,QVAR1*%
X6900000Y-2569100D03*
%TO.P,ESD1,K*%
%TO.N,GND*%
X7700000Y-2569100D03*
%TD*%
D11*
%TO.P,C2,1*%
%TO.N,VBAT*%
X7290000Y-1169100D03*
%TO.P,C2,2*%
%TO.N,GND*%
X8310000Y-1169100D03*
%TD*%
%TO.P,R4,1*%
%TO.N,QVAR1_RAW*%
X6790000Y-3969100D03*
%TO.P,R4,2*%
%TO.N,QVAR1*%
X7810000Y-3969100D03*
%TD*%
D14*
%TO.P,SWD3,1*%
%TO.N,VBAT*%
X31750000Y-9250000D03*
%TD*%
D19*
%TO.P,J1,1*%
%TO.N,VBUS*%
X36750000Y-5250000D03*
%TO.P,J1,2*%
%TO.N,GND*%
X36750000Y-4750000D03*
D20*
%TO.P,J1,MP1*%
%TO.N,N/C*%
X36750000Y-6350000D03*
%TO.P,J1,MP2*%
X36750000Y-3650000D03*
%TD*%
D11*
%TO.P,C1,1*%
%TO.N,VBAT*%
X26570000Y-1732800D03*
%TO.P,C1,2*%
%TO.N,GND*%
X27590000Y-1732800D03*
%TD*%
%TO.P,R2,1*%
%TO.N,VBAT*%
X26570000Y-3482800D03*
%TO.P,R2,2*%
%TO.N,SCL*%
X27590000Y-3482800D03*
%TD*%
D21*
%TO.P,Q1,1*%
%TO.N,HAPTIC_EN*%
X9950000Y-8348400D03*
%TO.P,Q1,2*%
%TO.N,GND*%
X8050000Y-8348400D03*
%TO.P,Q1,3*%
%TO.N,MOTOR_N*%
X9000000Y-5606400D03*
%TD*%
D22*
%TO.N,GND*%
X7350000Y-5150000D03*
X3900000Y-3800000D03*
X12000000Y-6100000D03*
X3900000Y-5150000D03*
X31925000Y-3565000D03*
X29344200Y-6774600D03*
X17050000Y-7650000D03*
X35200000Y-2800000D03*
X7750000Y-2550000D03*
X36400000Y-4750000D03*
X34250000Y-8423000D03*
X14850000Y-5850000D03*
X8300000Y-1250000D03*
X33350000Y-2800000D03*
X35200000Y-8400000D03*
%TO.N,VBAT*%
X29410000Y-7652000D03*
X34450000Y-700000D03*
X15850000Y-3350000D03*
X15850000Y-1500000D03*
X28150000Y-6200000D03*
X28400000Y-7200000D03*
X14400000Y-6400000D03*
X18300000Y-5700000D03*
X25500000Y-5700000D03*
X14600000Y-3300000D03*
X11550000Y-4600000D03*
X33050000Y-9150000D03*
X26400000Y-5700000D03*
X18300000Y-1500000D03*
X14850000Y-4850000D03*
X24600000Y-7200000D03*
X24600000Y-900000D03*
%TO.N,SDA*%
X27590000Y-4833000D03*
X30050000Y-2750000D03*
X30350000Y-7850000D03*
X25500000Y-3600000D03*
X32350000Y-2750000D03*
%TO.N,SCL*%
X30060000Y-6677000D03*
X25500000Y-4150000D03*
X28200000Y-3500000D03*
%TO.N,HAPTIC_EN*%
X9950000Y-8348400D03*
X10800000Y-8350000D03*
X30950000Y-8350000D03*
X13300000Y-7375000D03*
X8300000Y-7350000D03*
X30950000Y-7840000D03*
%TO.N,LED_RED*%
X17200000Y-5600000D03*
X31925000Y-7190000D03*
X28850000Y-6750000D03*
X17200000Y-4654700D03*
%TO.N,MOTOR_N*%
X9100000Y-1700000D03*
X10475000Y-5600000D03*
X13900000Y-8500000D03*
X9000000Y-5606400D03*
%TO.N,IMU_INT*%
X30700000Y-6550000D03*
X25500000Y-2800000D03*
%TO.N,SWDIO*%
X29150000Y-1550000D03*
X25050000Y-9250000D03*
%TO.N,SWDCLK*%
X30850000Y-9250000D03*
X33500000Y-3550000D03*
%TO.N,QVAR1*%
X2900000Y-3800000D03*
X7150000Y-5750000D03*
%TO.N,QVAR2*%
X5900000Y-3855400D03*
X5850000Y-500000D03*
X13600000Y-4332800D03*
X11400000Y-500000D03*
X5750000Y-5975000D03*
%TO.N,QVAR2_RAW*%
X2300000Y-3000000D03*
X1250000Y-4750000D03*
%TO.N,LED_RED_A*%
X15850000Y-6900000D03*
X13250000Y-8600000D03*
%TO.N,LED_GREEN_A*%
X16200000Y-6254700D03*
X13200000Y-9500000D03*
%TO.N,LED_GREEN*%
X16750000Y-450000D03*
X25400000Y-450000D03*
X13250000Y-900000D03*
X33550000Y-7200000D03*
X11550000Y-7200000D03*
X10950000Y-950000D03*
X16200000Y-4600000D03*
X15400000Y-4850000D03*
%TO.N,ANT*%
X29410000Y-5702000D03*
X29410000Y-5052000D03*
%TD*%
D23*
%TO.N,GND*%
X30950000Y-3565000D02*
X31600000Y-3565000D01*
X29410000Y-4402000D02*
X30060000Y-4402000D01*
X28900000Y-7650000D02*
X17050000Y-7650000D01*
X29410000Y-2160000D02*
X29410000Y-2810000D01*
X12400000Y-3332800D02*
X12850000Y-3332800D01*
X30060000Y-4402000D02*
X31925000Y-4402000D01*
X3150000Y-8500000D02*
X4850000Y-8500000D01*
X35200000Y-8400000D02*
X34250000Y-8423000D01*
X29410000Y-2810000D02*
X29410000Y-3752000D01*
X2200000Y-5750000D02*
X4987500Y-5750000D01*
X4987500Y-5169100D02*
X4987500Y-5589100D01*
X4987500Y-5150000D02*
X3900000Y-5150000D01*
X29410000Y-3752000D02*
X29410000Y-4402000D01*
X14850000Y-5750000D02*
X12400000Y-5750000D01*
X31925000Y-5252000D02*
X32770000Y-5252000D01*
X8300000Y-1250000D02*
X8310000Y-1169100D01*
X28250000Y-2000000D02*
X28250000Y-2300000D01*
X31925000Y-4215000D02*
X32575000Y-4215000D01*
X12400000Y-5750000D02*
X12400000Y-5850000D01*
X31925000Y-3565000D02*
X32250000Y-3565000D01*
X4987500Y-5589100D02*
X3260000Y-5570200D01*
X31730000Y-5252000D02*
X31730000Y-6152000D01*
X6400000Y-5169100D02*
X4987500Y-5169100D01*
X34250000Y-9250000D02*
X34250000Y-8423000D01*
X36400000Y-4750000D02*
X36750000Y-4750000D01*
X35090000Y-2160000D02*
X35090000Y-2810000D01*
X12850000Y-5832800D02*
X12400000Y-5850000D01*
X31925000Y-3565000D02*
X31925000Y-4215000D01*
X12400000Y-5850000D02*
X12400000Y-6100000D01*
X1250000Y-5750000D02*
X1250000Y-5250000D01*
X31925000Y-4402000D02*
X31925000Y-5252000D01*
X30300000Y-3565000D02*
X30950000Y-3565000D01*
X35090000Y-2810000D02*
X33350000Y-2800000D01*
X2200000Y-5750000D02*
X2200000Y-8350000D01*
X31730000Y-5252000D02*
X31925000Y-5252000D01*
X28900000Y-4550000D02*
X29250000Y-4550000D01*
X29300000Y-6350000D02*
X29300000Y-7150000D01*
X4987500Y-5150000D02*
X4987500Y-5169100D01*
X31925000Y-4215000D02*
X31925000Y-4402000D01*
X12400000Y-3332800D02*
X12400000Y-3350000D01*
X30060000Y-4727000D02*
X30060000Y-5377000D01*
X31600000Y-3565000D02*
X31925000Y-3565000D01*
X2200000Y-8350000D02*
X2200000Y-8500000D01*
X12850000Y-5832800D02*
X12850000Y-6332800D01*
X7350000Y-5150000D02*
X4987500Y-5150000D01*
X31925000Y-4215000D02*
X31275000Y-4215000D01*
X29250000Y-4402000D02*
X29410000Y-4402000D01*
X2200000Y-8500000D02*
X3150000Y-8500000D01*
X28900000Y-6350000D02*
X29300000Y-6350000D01*
X30060000Y-4402000D02*
X30060000Y-4727000D01*
X12400000Y-6100000D02*
X12000000Y-6100000D01*
X4987500Y-5589100D02*
X4987500Y-5750000D01*
X12400000Y-3350000D02*
X12400000Y-5750000D01*
X7700000Y-2569100D02*
X7750000Y-2550000D01*
X14850000Y-5832800D02*
X12850000Y-5832800D01*
X32770000Y-5252000D02*
X32770000Y-6152000D01*
X2200000Y-8350000D02*
X8050000Y-8348400D01*
X29250000Y-4550000D02*
X29350000Y-4550000D01*
X28900000Y-7150000D02*
X28900000Y-7650000D01*
X29350000Y-2300000D02*
X29350000Y-4550000D01*
X29250000Y-4400000D02*
X29250000Y-4550000D01*
X33350000Y-2800000D02*
X35200000Y-2800000D01*
X28250000Y-2300000D02*
X29350000Y-2300000D01*
X28250000Y-2000000D02*
X29350000Y-2000000D01*
X29410000Y-6352000D02*
X29410000Y-7002000D01*
X27600000Y-2000000D02*
X28250000Y-2000000D01*
X29300000Y-7150000D02*
X28900000Y-7150000D01*
X28900000Y-4550000D02*
X28900000Y-6350000D01*
X14850000Y-5850000D02*
X14850000Y-5750000D01*
X27600000Y-2000000D02*
X27590000Y-1732800D01*
X29300000Y-6350000D02*
X29410000Y-6352000D01*
X29350000Y-2000000D02*
X29350000Y-2300000D01*
X1250000Y-5750000D02*
X2200000Y-5750000D01*
%TO.N,VBUS*%
X29200000Y-1100000D02*
X26050000Y-1100000D01*
X25950000Y-6175000D02*
X27110000Y-6182800D01*
X35650000Y-1125000D02*
X25950000Y-1125000D01*
X35650000Y-5250000D02*
X35650000Y-1125000D01*
X25950000Y-1125000D02*
X25950000Y-5500000D01*
X35750000Y-5250000D02*
X36750000Y-5250000D01*
X35650000Y-5250000D02*
X35750000Y-5250000D01*
X35750000Y-5250000D02*
X35750000Y-1150000D01*
X27100000Y-6250000D02*
X27110000Y-6182800D01*
X26050000Y-1100000D02*
X26050000Y-5500000D01*
X26050000Y-5500000D02*
X25950000Y-5500000D01*
X25950000Y-5500000D02*
X25950000Y-6175000D01*
X35750000Y-1150000D02*
X29200000Y-1100000D01*
X25950000Y-6250000D02*
X27100000Y-6250000D01*
X25950000Y-6175000D02*
X25950000Y-6250000D01*
%TO.N,VBAT*%
X15850000Y-1500000D02*
X14150000Y-1500000D01*
X12625000Y-1500000D02*
X12625000Y-1707800D01*
X14400000Y-6400000D02*
X14850000Y-6400000D01*
X8250000Y-2150000D02*
X8250000Y-1750000D01*
X12625000Y-1707800D02*
X12625000Y-2400000D01*
X18300000Y-1500000D02*
X15850000Y-1500000D01*
X26570000Y-3482800D02*
X26570000Y-4832800D01*
X9450000Y-2150000D02*
X8250000Y-2150000D01*
X33050000Y-9250000D02*
X31750000Y-9250000D01*
X10800000Y-2400000D02*
X9450000Y-2400000D01*
X25500000Y-5700000D02*
X18300000Y-5700000D01*
X4850000Y-1500000D02*
X3150000Y-1500000D01*
X14850000Y-3332800D02*
X14600000Y-3300000D01*
X11500000Y-4585400D02*
X10150000Y-4585400D01*
X28130000Y-5400000D02*
X27650000Y-5400000D01*
X26570000Y-1732800D02*
X26570000Y-3482800D01*
X4850000Y-1169100D02*
X4850000Y-1500000D01*
X26550000Y-5400000D02*
X26570000Y-4832800D01*
X24600000Y-900000D02*
X25750000Y-900000D01*
X9450000Y-2400000D02*
X9450000Y-2150000D01*
X7290000Y-1169100D02*
X4850000Y-1169100D01*
X12625000Y-2400000D02*
X10800000Y-2400000D01*
X25750000Y-700000D02*
X34450000Y-700000D01*
X15850000Y-3350000D02*
X14850000Y-3332800D01*
X14850000Y-6400000D02*
X14850000Y-6332800D01*
X28130000Y-6182800D02*
X28130000Y-5400000D01*
X8250000Y-1750000D02*
X7300000Y-1750000D01*
X33050000Y-9150000D02*
X33050000Y-9250000D01*
X14150000Y-1500000D02*
X12625000Y-1500000D01*
X26570000Y-4832800D02*
X26550000Y-5700000D01*
X7300000Y-1750000D02*
X7290000Y-1169100D01*
X25750000Y-900000D02*
X25750000Y-700000D01*
X26550000Y-5700000D02*
X26400000Y-5700000D01*
X28400000Y-7200000D02*
X24600000Y-7200000D01*
X27650000Y-5400000D02*
X26550000Y-5400000D01*
%TO.N,SDA*%
X25500000Y-3600000D02*
X16200000Y-3600000D01*
X16200000Y-3832800D02*
X14850000Y-3832800D01*
X16200000Y-3600000D02*
X16200000Y-3832800D01*
X30050000Y-2750000D02*
X32350000Y-2750000D01*
%TO.N,SCL*%
X15300000Y-4150000D02*
X15300000Y-4332800D01*
X28800000Y-3500000D02*
X28250000Y-3500000D01*
X28800000Y-3500000D02*
X27590000Y-3482800D01*
X28200000Y-3500000D02*
X27590000Y-3482800D01*
X28250000Y-3500000D02*
X28200000Y-3500000D01*
X15300000Y-4332800D02*
X14850000Y-4332800D01*
X25500000Y-4150000D02*
X15300000Y-4150000D01*
%TO.N,HAPTIC_EN*%
X30950000Y-8350000D02*
X16600000Y-8350000D01*
X16600000Y-7375000D02*
X13300000Y-7375000D01*
X16600000Y-8350000D02*
X16600000Y-7375000D01*
X8300000Y-7350000D02*
X3250000Y-7350000D01*
X10800000Y-8350000D02*
X9950000Y-8348400D01*
X3250000Y-7350000D02*
X3260000Y-6590200D01*
%TO.N,LED_RED*%
X13850000Y-6800000D02*
X12550000Y-6800000D01*
X17850000Y-4650000D02*
X17200000Y-4654700D01*
X28850000Y-6750000D02*
X17850000Y-6750000D01*
X15400000Y-5600000D02*
X15400000Y-6800000D01*
X12550000Y-6800000D02*
X12550000Y-7182800D01*
X17850000Y-6750000D02*
X17850000Y-4650000D01*
X17200000Y-5600000D02*
X15400000Y-5600000D01*
X15400000Y-6800000D02*
X13850000Y-6800000D01*
%TO.N,MOTOR_N*%
X9100000Y-1700000D02*
X10125000Y-1707800D01*
X10475000Y-5600000D02*
X9000000Y-5606400D01*
X13900000Y-8500000D02*
X15850000Y-8500000D01*
%TO.N,IMU_INT*%
X30700000Y-6650000D02*
X32575000Y-6650000D01*
X25500000Y-2800000D02*
X14150000Y-2800000D01*
X14150000Y-4832800D02*
X12850000Y-4832800D01*
X30700000Y-6650000D02*
X30700000Y-6550000D01*
X32575000Y-7190000D02*
X32575000Y-6650000D01*
X14150000Y-2800000D02*
X14150000Y-4832800D01*
%TO.N,SWDIO*%
X32900000Y-1550000D02*
X29150000Y-1550000D01*
X25050000Y-9250000D02*
X26750000Y-9250000D01*
X32900000Y-3565000D02*
X32900000Y-1550000D01*
%TO.N,SWDCLK*%
X30850000Y-9250000D02*
X29250000Y-9250000D01*
%TO.N,QVAR1*%
X9500000Y-3100000D02*
X8350000Y-3100000D01*
X8350000Y-3100000D02*
X8350000Y-3969100D01*
X7800000Y-5750000D02*
X7150000Y-5750000D01*
X13350000Y-3850000D02*
X13350000Y-2850000D01*
X6900000Y-2569100D02*
X6850000Y-3200000D01*
X12850000Y-3832800D02*
X13350000Y-3850000D01*
X7400000Y-3200000D02*
X6850000Y-3200000D01*
X7400000Y-3950000D02*
X7400000Y-3200000D01*
X8350000Y-3969100D02*
X7810000Y-3969100D01*
X13350000Y-2850000D02*
X9500000Y-2850000D01*
X9500000Y-2850000D02*
X9500000Y-3100000D01*
X7810000Y-3969100D02*
X7800000Y-5750000D01*
X7810000Y-3969100D02*
X7400000Y-3950000D01*
%TO.N,QVAR2*%
X12850000Y-4332800D02*
X13600000Y-4332800D01*
X5750000Y-6609100D02*
X4987500Y-6609100D01*
X5750000Y-5975000D02*
X6400000Y-5969100D01*
X5750000Y-5975000D02*
X5750000Y-6609100D01*
X11400000Y-500000D02*
X5850000Y-500000D01*
%TO.N,QVAR1_RAW*%
X6800000Y-4500000D02*
X6800000Y-4050000D01*
X2250000Y-4500000D02*
X6800000Y-4500000D01*
X2250000Y-4250000D02*
X2250000Y-4500000D01*
X1250000Y-4250000D02*
X2250000Y-4250000D01*
%TO.N,QVAR2_RAW*%
X4900000Y-3000000D02*
X4880000Y-3855400D01*
X2300000Y-3000000D02*
X4900000Y-3000000D01*
%TO.N,LED_RED_A*%
X17200000Y-6900000D02*
X15850000Y-6900000D01*
X13250000Y-8600000D02*
X12550000Y-8600000D01*
X12550000Y-7900000D02*
X10900000Y-7900000D01*
X12050000Y-5200000D02*
X12050000Y-3565400D01*
X12550000Y-8600000D02*
X12550000Y-8782800D01*
X10900000Y-7900000D02*
X10900000Y-5200000D01*
X12050000Y-3565400D02*
X11500000Y-3565400D01*
X17200000Y-6254700D02*
X17200000Y-6900000D01*
X10900000Y-5200000D02*
X12050000Y-5200000D01*
X12550000Y-7900000D02*
X12550000Y-8600000D01*
%TO.N,LED_GREEN_A*%
X8700000Y-9500000D02*
X8700000Y-6950000D01*
X8350000Y-4350000D02*
X9600000Y-4350000D01*
X9600000Y-3565400D02*
X9600000Y-4350000D01*
X13200000Y-9500000D02*
X11550000Y-9500000D01*
X11550000Y-8782800D02*
X11550000Y-9500000D01*
X8700000Y-6950000D02*
X8350000Y-6950000D01*
X11550000Y-9500000D02*
X8700000Y-9500000D01*
X9600000Y-3565400D02*
X10150000Y-3565400D01*
X8350000Y-6950000D02*
X8350000Y-4350000D01*
%TO.N,LED_GREEN*%
X16200000Y-4654700D02*
X16200000Y-4850000D01*
X13250000Y-900000D02*
X11450000Y-900000D01*
X16200000Y-4850000D02*
X15400000Y-4850000D01*
X25400000Y-450000D02*
X16750000Y-450000D01*
X11450000Y-900000D02*
X10950000Y-950000D01*
X33225000Y-7190000D02*
X33550000Y-7200000D01*
%TD*%
%TA.AperFunction,Conductor*%
%TO.N,GND*%
G36*
X5602330Y-255903D02*
G01*
X5616200Y-258554D01*
X5619124Y-262860D01*
X5623933Y-264852D01*
X5629336Y-277897D01*
X5637270Y-289579D01*
X5636293Y-294691D01*
X5638285Y-299500D01*
X5631624Y-319123D01*
X5630231Y-326415D01*
X5628487Y-329067D01*
X5627944Y-329611D01*
X5626598Y-331940D01*
X5625815Y-333133D01*
X5619523Y-340861D01*
X5616442Y-343942D01*
X5616441Y-343944D01*
X5609473Y-360763D01*
X5606642Y-366506D01*
X5591410Y-392891D01*
X5591410Y-392892D01*
X5583526Y-422308D01*
X5583527Y-422309D01*
X5582696Y-425412D01*
X5574500Y-445200D01*
X5574500Y-456000D01*
X5572831Y-462230D01*
X5572829Y-462231D01*
X5572500Y-463461D01*
X5572500Y-536534D01*
X5572829Y-537762D01*
X5572830Y-537767D01*
X5574500Y-544000D01*
X5574500Y-554800D01*
X5582693Y-574579D01*
X5583525Y-577685D01*
X5583527Y-577689D01*
X5591129Y-606058D01*
X5591411Y-607111D01*
X5608248Y-636274D01*
X5616443Y-656058D01*
X5624078Y-663693D01*
X5627303Y-669279D01*
X5627940Y-670383D01*
X5627941Y-670385D01*
X5627944Y-670389D01*
X5679611Y-722056D01*
X5686306Y-725921D01*
X5693942Y-733557D01*
X5713721Y-741749D01*
X5716504Y-743356D01*
X5716506Y-743357D01*
X5742885Y-758587D01*
X5742886Y-758587D01*
X5742889Y-758589D01*
X5775412Y-767303D01*
X5795200Y-775500D01*
X5806002Y-775500D01*
X5812234Y-777170D01*
X5812238Y-777171D01*
X5813465Y-777500D01*
X5813466Y-777500D01*
X5886535Y-777500D01*
X5887762Y-777171D01*
X5887766Y-777170D01*
X5893998Y-775500D01*
X5904800Y-775500D01*
X5924587Y-767303D01*
X5957111Y-758589D01*
X5957113Y-758587D01*
X5957115Y-758587D01*
X5983491Y-743358D01*
X5983491Y-743357D01*
X5986274Y-741751D01*
X6006058Y-733557D01*
X6013692Y-725921D01*
X6019280Y-722696D01*
X6019279Y-722696D01*
X6020389Y-722056D01*
X6025593Y-716852D01*
X6060241Y-702500D01*
X6942425Y-702500D01*
X6977073Y-716852D01*
X6991425Y-751500D01*
X6977073Y-786148D01*
X6969647Y-792243D01*
X6965747Y-794848D01*
X6907730Y-881676D01*
X6907730Y-881677D01*
X6898682Y-927160D01*
X6877848Y-958342D01*
X6850625Y-966600D01*
X5526500Y-966600D01*
X5491852Y-952248D01*
X5477500Y-917600D01*
X5477500Y-612442D01*
X5477499Y-612438D01*
X5476439Y-607111D01*
X5470102Y-575252D01*
X5449219Y-543998D01*
X5441922Y-533077D01*
X5408636Y-510837D01*
X5399748Y-504898D01*
X5399747Y-504897D01*
X5399746Y-504897D01*
X5362561Y-497500D01*
X5362558Y-497500D01*
X4337442Y-497500D01*
X4337438Y-497500D01*
X4300253Y-504897D01*
X4258077Y-533077D01*
X4229897Y-575253D01*
X4222500Y-612438D01*
X4222500Y-1248500D01*
X4208148Y-1283148D01*
X4173500Y-1297500D01*
X3826500Y-1297500D01*
X3791852Y-1283148D01*
X3777500Y-1248500D01*
X3777500Y-612442D01*
X3777499Y-612438D01*
X3776439Y-607111D01*
X3770102Y-575252D01*
X3749219Y-543998D01*
X3741922Y-533077D01*
X3708636Y-510837D01*
X3699748Y-504898D01*
X3699747Y-504897D01*
X3699746Y-504897D01*
X3662561Y-497500D01*
X3662558Y-497500D01*
X2637442Y-497500D01*
X2637438Y-497500D01*
X2600253Y-504897D01*
X2558077Y-533077D01*
X2529897Y-575253D01*
X2522500Y-612438D01*
X2522500Y-2387561D01*
X2529897Y-2424746D01*
X2558077Y-2466922D01*
X2579165Y-2481012D01*
X2600252Y-2495102D01*
X2637442Y-2502500D01*
X3662558Y-2502500D01*
X3699748Y-2495102D01*
X3741922Y-2466922D01*
X3770102Y-2424748D01*
X3777500Y-2387558D01*
X3777500Y-1751500D01*
X3791852Y-1716852D01*
X3826500Y-1702500D01*
X4173500Y-1702500D01*
X4208148Y-1716852D01*
X4222500Y-1751500D01*
X4222500Y-2387561D01*
X4229897Y-2424746D01*
X4258077Y-2466922D01*
X4279165Y-2481012D01*
X4300252Y-2495102D01*
X4337442Y-2502500D01*
X5362558Y-2502500D01*
X5399748Y-2495102D01*
X5441922Y-2466922D01*
X5470102Y-2424748D01*
X5477500Y-2387558D01*
X5477500Y-1420600D01*
X5491852Y-1385952D01*
X5526500Y-1371600D01*
X6850625Y-1371600D01*
X6885273Y-1385952D01*
X6898682Y-1411038D01*
X6905478Y-1445200D01*
X6907730Y-1456523D01*
X6965747Y-1543352D01*
X6996238Y-1563725D01*
X7052577Y-1601370D01*
X7056301Y-1602110D01*
X7087484Y-1622944D01*
X7095736Y-1649325D01*
X7096099Y-1670389D01*
X7097500Y-1751757D01*
X7097500Y-1790280D01*
X7098191Y-1791950D01*
X7098223Y-1793759D01*
X7098225Y-1793763D01*
X7113419Y-1828730D01*
X7113418Y-1828730D01*
X7113599Y-1829147D01*
X7128329Y-1864707D01*
X7129608Y-1865986D01*
X7130329Y-1867645D01*
X7158041Y-1894419D01*
X7185293Y-1921671D01*
X7186964Y-1922363D01*
X7188265Y-1923620D01*
X7223855Y-1937648D01*
X7224375Y-1937859D01*
X7259720Y-1952500D01*
X7259721Y-1952500D01*
X7261826Y-1952918D01*
X7261869Y-1952927D01*
X7263066Y-1953165D01*
X7263209Y-1953162D01*
X7263211Y-1953163D01*
X7301335Y-1952506D01*
X7302178Y-1952500D01*
X7998500Y-1952500D01*
X8033148Y-1966852D01*
X8047500Y-2001500D01*
X8047500Y-2190281D01*
X8060270Y-2221110D01*
X8078329Y-2264707D01*
X8078330Y-2264708D01*
X8078331Y-2264710D01*
X8135290Y-2321669D01*
X8135291Y-2321669D01*
X8135293Y-2321671D01*
X8209720Y-2352500D01*
X8290280Y-2352500D01*
X9198500Y-2352500D01*
X9233148Y-2366852D01*
X9247500Y-2401500D01*
X9247500Y-2440280D01*
X9278329Y-2514707D01*
X9278330Y-2514708D01*
X9278331Y-2514710D01*
X9335290Y-2571669D01*
X9335291Y-2571669D01*
X9335293Y-2571671D01*
X9377713Y-2589242D01*
X9380004Y-2590191D01*
X9406522Y-2616710D01*
X9406522Y-2654213D01*
X9388473Y-2676204D01*
X9385291Y-2678329D01*
X9328331Y-2735290D01*
X9328330Y-2735291D01*
X9297500Y-2809718D01*
X9297500Y-2848500D01*
X9283148Y-2883148D01*
X9248500Y-2897500D01*
X8309718Y-2897500D01*
X8235291Y-2928330D01*
X8178330Y-2985291D01*
X8147500Y-3059718D01*
X8147500Y-3512027D01*
X8133148Y-3546675D01*
X8098500Y-3561027D01*
X8071277Y-3552769D01*
X8066992Y-3549906D01*
X8047423Y-3536830D01*
X7970856Y-3521600D01*
X7651500Y-3521600D01*
X7616852Y-3507248D01*
X7602500Y-3472600D01*
X7602500Y-3159722D01*
X7602499Y-3159718D01*
X7571671Y-3085293D01*
X7571669Y-3085291D01*
X7571669Y-3085290D01*
X7514710Y-3028331D01*
X7514708Y-3028330D01*
X7514707Y-3028329D01*
X7471110Y-3010270D01*
X7440281Y-2997500D01*
X7440280Y-2997500D01*
X7426000Y-2997500D01*
X7391352Y-2983148D01*
X7377000Y-2948500D01*
X7377000Y-2117100D01*
X6423000Y-2117100D01*
X6423000Y-3021100D01*
X6608006Y-3021100D01*
X6609913Y-3021890D01*
X6611878Y-3021253D01*
X6626988Y-3028963D01*
X6642654Y-3035452D01*
X6643443Y-3037359D01*
X6645284Y-3038298D01*
X6650517Y-3054434D01*
X6657006Y-3070100D01*
X6656853Y-3073964D01*
X6655891Y-3086108D01*
X6651273Y-3144364D01*
X6647702Y-3159229D01*
X6647501Y-3159714D01*
X6647500Y-3159720D01*
X6647500Y-3191992D01*
X6644951Y-3224156D01*
X6647500Y-3232015D01*
X6647500Y-3240281D01*
X6659104Y-3268294D01*
X6660442Y-3271922D01*
X6669803Y-3300786D01*
X6675166Y-3307073D01*
X6678329Y-3314707D01*
X6701139Y-3337517D01*
X6702388Y-3338981D01*
X6702399Y-3338993D01*
X6722089Y-3362072D01*
X6729449Y-3365827D01*
X6735293Y-3371671D01*
X6765104Y-3384019D01*
X6793848Y-3398685D01*
X6802085Y-3399337D01*
X6809720Y-3402500D01*
X6841990Y-3402500D01*
X6874156Y-3405049D01*
X6874650Y-3404888D01*
X6889763Y-3402500D01*
X7148500Y-3402500D01*
X7183148Y-3416852D01*
X7197500Y-3451500D01*
X7197500Y-3559799D01*
X7183148Y-3594447D01*
X7148500Y-3608799D01*
X7118921Y-3596546D01*
X7118265Y-3597529D01*
X7074037Y-3567977D01*
X7027423Y-3536830D01*
X6950856Y-3521600D01*
X6629144Y-3521600D01*
X6569032Y-3533557D01*
X6552577Y-3536830D01*
X6465747Y-3594847D01*
X6407730Y-3681677D01*
X6394559Y-3747895D01*
X6373723Y-3779078D01*
X6336941Y-3786395D01*
X6305758Y-3765559D01*
X6297500Y-3738336D01*
X6297500Y-3644547D01*
X6297500Y-3644544D01*
X6282270Y-3567977D01*
X6227022Y-3485293D01*
X6224252Y-3481147D01*
X6157094Y-3436274D01*
X6137423Y-3423130D01*
X6060856Y-3407900D01*
X5739144Y-3407900D01*
X5662582Y-3423129D01*
X5662577Y-3423130D01*
X5575747Y-3481147D01*
X5524004Y-3558587D01*
X5517730Y-3567977D01*
X5502500Y-3644544D01*
X5502500Y-4066256D01*
X5517730Y-4142823D01*
X5562430Y-4209720D01*
X5570152Y-4221277D01*
X5577469Y-4258059D01*
X5556633Y-4289242D01*
X5529410Y-4297500D01*
X5250590Y-4297500D01*
X5215942Y-4283148D01*
X5201590Y-4248500D01*
X5209848Y-4221277D01*
X5217570Y-4209720D01*
X5262270Y-4142823D01*
X5277500Y-4066256D01*
X5277500Y-3644544D01*
X5262270Y-3567977D01*
X5207022Y-3485293D01*
X5204252Y-3481147D01*
X5115435Y-3421801D01*
X5094599Y-3390618D01*
X5093671Y-3379921D01*
X5101560Y-3042548D01*
X5102500Y-3040280D01*
X5102500Y-3002358D01*
X5103386Y-2964464D01*
X5103384Y-2964461D01*
X5103385Y-2964460D01*
X5103231Y-2963577D01*
X5103203Y-2963260D01*
X5103080Y-2962640D01*
X5103079Y-2962635D01*
X5102676Y-2960610D01*
X5102676Y-2960608D01*
X5102674Y-2960600D01*
X5102500Y-2959725D01*
X5102500Y-2959720D01*
X5088191Y-2925176D01*
X5087783Y-2924156D01*
X5074307Y-2889341D01*
X5074305Y-2889339D01*
X5074305Y-2889337D01*
X5074303Y-2889335D01*
X5073830Y-2888590D01*
X5073818Y-2888571D01*
X5072698Y-2886806D01*
X5072697Y-2886805D01*
X5072369Y-2886289D01*
X5072167Y-2886036D01*
X5071670Y-2885292D01*
X5045281Y-2858903D01*
X5044481Y-2858084D01*
X5018689Y-2831058D01*
X5017952Y-2830540D01*
X5016234Y-2829333D01*
X5016231Y-2829331D01*
X5015742Y-2828987D01*
X5015463Y-2828834D01*
X5014707Y-2828328D01*
X4980210Y-2814039D01*
X4980210Y-2814038D01*
X4979637Y-2813800D01*
X4945002Y-2798497D01*
X4942549Y-2798439D01*
X4940282Y-2797500D01*
X4940280Y-2797500D01*
X4902948Y-2797500D01*
X4901804Y-2797487D01*
X4871093Y-2796769D01*
X4864464Y-2796614D01*
X4864463Y-2796614D01*
X4863580Y-2796769D01*
X4855147Y-2797500D01*
X2510241Y-2797500D01*
X2478989Y-2786240D01*
X2477220Y-2784775D01*
X2470389Y-2777944D01*
X2465704Y-2775239D01*
X2462527Y-2772608D01*
X2462094Y-2771790D01*
X2459132Y-2769517D01*
X2456058Y-2766443D01*
X2439234Y-2759474D01*
X2433493Y-2756642D01*
X2407111Y-2741411D01*
X2407108Y-2741410D01*
X2377689Y-2733527D01*
X2377689Y-2733526D01*
X2374579Y-2732692D01*
X2354800Y-2724500D01*
X2344000Y-2724500D01*
X2337767Y-2722830D01*
X2337766Y-2722829D01*
X2337762Y-2722829D01*
X2336535Y-2722500D01*
X2336534Y-2722500D01*
X2263466Y-2722500D01*
X2263465Y-2722500D01*
X2262238Y-2722829D01*
X2256002Y-2724500D01*
X2245200Y-2724500D01*
X2225414Y-2732695D01*
X2222309Y-2733527D01*
X2222308Y-2733526D01*
X2192892Y-2741410D01*
X2192891Y-2741410D01*
X2192889Y-2741410D01*
X2192889Y-2741411D01*
X2186351Y-2745185D01*
X2166506Y-2756642D01*
X2163722Y-2758248D01*
X2143942Y-2766443D01*
X2136305Y-2774078D01*
X2130719Y-2777304D01*
X2129609Y-2777944D01*
X2077944Y-2829609D01*
X2077302Y-2830722D01*
X2071301Y-2838985D01*
X2070420Y-2839964D01*
X2066443Y-2843942D01*
X2066101Y-2844765D01*
X2062932Y-2848290D01*
X2048950Y-2854968D01*
X2036059Y-2863582D01*
X2032428Y-2862859D01*
X2029091Y-2864454D01*
X2014478Y-2859288D01*
X1999276Y-2856264D01*
X1997220Y-2853187D01*
X1993733Y-2851955D01*
X1987054Y-2837973D01*
X1978441Y-2825082D01*
X1977803Y-2818604D01*
X1977569Y-2818114D01*
X1977714Y-2817702D01*
X1977500Y-2815523D01*
X1977500Y-2737442D01*
X1977499Y-2737438D01*
X1977072Y-2735293D01*
X1970102Y-2700252D01*
X1954034Y-2676204D01*
X1941922Y-2658077D01*
X1904612Y-2633148D01*
X1899748Y-2629898D01*
X1899747Y-2629897D01*
X1899746Y-2629897D01*
X1862561Y-2622500D01*
X1862558Y-2622500D01*
X637442Y-2622500D01*
X637438Y-2622500D01*
X600253Y-2629897D01*
X558077Y-2658077D01*
X529897Y-2700253D01*
X522500Y-2737438D01*
X522500Y-3562561D01*
X529897Y-3599746D01*
X558077Y-3641922D01*
X579165Y-3656012D01*
X600252Y-3670102D01*
X637442Y-3677500D01*
X1862558Y-3677500D01*
X1899748Y-3670102D01*
X1941922Y-3641922D01*
X1970102Y-3599748D01*
X1977500Y-3562558D01*
X1977500Y-3184476D01*
X1991852Y-3149828D01*
X2026500Y-3135476D01*
X2061148Y-3149828D01*
X2062931Y-3151707D01*
X2066100Y-3155230D01*
X2066443Y-3156058D01*
X2070439Y-3160054D01*
X2071299Y-3161010D01*
X2071590Y-3161833D01*
X2077303Y-3169279D01*
X2077940Y-3170383D01*
X2077941Y-3170385D01*
X2077944Y-3170389D01*
X2129611Y-3222056D01*
X2136306Y-3225921D01*
X2143942Y-3233557D01*
X2163721Y-3241749D01*
X2166504Y-3243356D01*
X2166506Y-3243357D01*
X2192885Y-3258587D01*
X2192886Y-3258587D01*
X2192889Y-3258589D01*
X2225412Y-3267303D01*
X2245200Y-3275500D01*
X2256002Y-3275500D01*
X2262234Y-3277170D01*
X2262238Y-3277171D01*
X2263465Y-3277500D01*
X2263466Y-3277500D01*
X2336535Y-3277500D01*
X2337762Y-3277171D01*
X2337766Y-3277170D01*
X2343998Y-3275500D01*
X2354800Y-3275500D01*
X2374587Y-3267303D01*
X2407111Y-3258589D01*
X2407113Y-3258587D01*
X2407115Y-3258587D01*
X2433491Y-3243358D01*
X2433491Y-3243357D01*
X2436274Y-3241751D01*
X2456058Y-3233557D01*
X2463692Y-3225921D01*
X2469280Y-3222696D01*
X2469279Y-3222696D01*
X2470389Y-3222056D01*
X2475593Y-3216852D01*
X2510241Y-3202500D01*
X4642550Y-3202500D01*
X4677198Y-3216852D01*
X4691550Y-3251500D01*
X4691537Y-3252646D01*
X4688678Y-3374889D01*
X4673520Y-3409192D01*
X4649255Y-3421801D01*
X4642578Y-3423129D01*
X4555747Y-3481147D01*
X4504004Y-3558587D01*
X4497730Y-3567977D01*
X4482500Y-3644544D01*
X4482500Y-4066256D01*
X4497730Y-4142823D01*
X4542430Y-4209720D01*
X4550152Y-4221277D01*
X4557469Y-4258059D01*
X4536633Y-4289242D01*
X4509410Y-4297500D01*
X3139752Y-4297500D01*
X3105104Y-4283148D01*
X3090752Y-4248500D01*
X3105104Y-4213852D01*
X3112529Y-4207758D01*
X3129341Y-4196525D01*
X3194252Y-4153152D01*
X3252270Y-4066323D01*
X3267500Y-3989756D01*
X3267500Y-3568044D01*
X3252270Y-3491477D01*
X3215384Y-3436274D01*
X3194252Y-3404647D01*
X3131772Y-3362900D01*
X3107423Y-3346630D01*
X3030856Y-3331400D01*
X2709144Y-3331400D01*
X2632577Y-3346630D01*
X2545747Y-3404647D01*
X2500343Y-3472600D01*
X2487730Y-3491477D01*
X2472500Y-3568044D01*
X2472500Y-3989756D01*
X2487730Y-4066323D01*
X2515237Y-4107491D01*
X2515294Y-4107576D01*
X2545747Y-4153152D01*
X2601313Y-4190280D01*
X2610659Y-4196525D01*
X2627471Y-4207758D01*
X2630259Y-4211931D01*
X2634896Y-4213852D01*
X2640366Y-4227057D01*
X2648306Y-4238941D01*
X2647327Y-4243862D01*
X2649248Y-4248500D01*
X2643778Y-4261704D01*
X2640990Y-4275723D01*
X2636816Y-4278511D01*
X2634896Y-4283148D01*
X2621690Y-4288618D01*
X2609807Y-4296558D01*
X2600248Y-4297500D01*
X2501500Y-4297500D01*
X2466852Y-4283148D01*
X2452500Y-4248500D01*
X2452500Y-4209722D01*
X2452499Y-4209718D01*
X2421671Y-4135293D01*
X2405504Y-4119126D01*
X2405503Y-4119124D01*
X2364710Y-4078331D01*
X2364708Y-4078330D01*
X2364707Y-4078329D01*
X2312235Y-4056594D01*
X2290281Y-4047500D01*
X2290280Y-4047500D01*
X1876640Y-4047500D01*
X1846446Y-4034993D01*
X1845935Y-4035759D01*
X1842084Y-4033186D01*
X1841992Y-4033148D01*
X1841920Y-4033076D01*
X1806457Y-4009381D01*
X1799748Y-4004898D01*
X1799747Y-4004897D01*
X1799746Y-4004897D01*
X1762561Y-3997500D01*
X1762558Y-3997500D01*
X737442Y-3997500D01*
X737438Y-3997500D01*
X700253Y-4004897D01*
X658077Y-4033077D01*
X629897Y-4075253D01*
X622500Y-4112438D01*
X622500Y-4387561D01*
X629897Y-4424746D01*
X629897Y-4424747D01*
X629898Y-4424748D01*
X640030Y-4439911D01*
X660759Y-4470935D01*
X659240Y-4471949D01*
X670859Y-4500000D01*
X659240Y-4528050D01*
X660759Y-4529065D01*
X629897Y-4575253D01*
X622500Y-4612438D01*
X622500Y-4887561D01*
X629897Y-4924746D01*
X629897Y-4924747D01*
X629898Y-4924748D01*
X636990Y-4935361D01*
X658077Y-4966922D01*
X672140Y-4976318D01*
X700252Y-4995102D01*
X737442Y-5002500D01*
X1119214Y-5002500D01*
X1133483Y-5004624D01*
X1138851Y-5006258D01*
X1142889Y-5008589D01*
X1173106Y-5016685D01*
X1173894Y-5016925D01*
X1174068Y-5017068D01*
X1178379Y-5018532D01*
X1195197Y-5025499D01*
X1195198Y-5025499D01*
X1195200Y-5025500D01*
X1199551Y-5025500D01*
X1212238Y-5027171D01*
X1213465Y-5027500D01*
X1213466Y-5027500D01*
X1286535Y-5027500D01*
X1287762Y-5027171D01*
X1287766Y-5027170D01*
X1293998Y-5025500D01*
X1304800Y-5025500D01*
X1324587Y-5017303D01*
X1357111Y-5008589D01*
X1357115Y-5008586D01*
X1360086Y-5007357D01*
X1360342Y-5007977D01*
X1380788Y-5002500D01*
X1762558Y-5002500D01*
X1799748Y-4995102D01*
X1841922Y-4966922D01*
X1870102Y-4924748D01*
X1877500Y-4887558D01*
X1877500Y-4612442D01*
X1870102Y-4575252D01*
X1841922Y-4533078D01*
X1839241Y-4529065D01*
X1841448Y-4527590D01*
X1830641Y-4501500D01*
X1844993Y-4466852D01*
X1879641Y-4452500D01*
X1998500Y-4452500D01*
X2033148Y-4466852D01*
X2047500Y-4501500D01*
X2047500Y-4540281D01*
X2058507Y-4566852D01*
X2078329Y-4614707D01*
X2078330Y-4614708D01*
X2078331Y-4614710D01*
X2135290Y-4671669D01*
X2135291Y-4671669D01*
X2135293Y-4671671D01*
X2209720Y-4702500D01*
X2209722Y-4702500D01*
X6840278Y-4702500D01*
X6840280Y-4702500D01*
X6914707Y-4671671D01*
X6914709Y-4671669D01*
X6914710Y-4671669D01*
X6971669Y-4614710D01*
X6971669Y-4614709D01*
X6971671Y-4614707D01*
X7002500Y-4540280D01*
X7002500Y-4444213D01*
X7016852Y-4409565D01*
X7024277Y-4403471D01*
X7027420Y-4401370D01*
X7027423Y-4401370D01*
X7114252Y-4343352D01*
X7172270Y-4256523D01*
X7187500Y-4179956D01*
X7187500Y-4143979D01*
X7194181Y-4127849D01*
X7199939Y-4111355D01*
X7201282Y-4110707D01*
X7201852Y-4109331D01*
X7217980Y-4102650D01*
X7233716Y-4095058D01*
X7235022Y-4095591D01*
X7236500Y-4094979D01*
X7269124Y-4107418D01*
X7271010Y-4109101D01*
X7277429Y-4116147D01*
X7280549Y-4117613D01*
X7284513Y-4121150D01*
X7285292Y-4121670D01*
X7285293Y-4121671D01*
X7318153Y-4135282D01*
X7350340Y-4150406D01*
X7355208Y-4150631D01*
X7359716Y-4152499D01*
X7359718Y-4152500D01*
X7359720Y-4152500D01*
X7366826Y-4152500D01*
X7401474Y-4166852D01*
X7414883Y-4191937D01*
X7424627Y-4240921D01*
X7427730Y-4256523D01*
X7485747Y-4343352D01*
X7535803Y-4376798D01*
X7572577Y-4401370D01*
X7572579Y-4401370D01*
X7574558Y-4402190D01*
X7576075Y-4403707D01*
X7576590Y-4404051D01*
X7576521Y-4404153D01*
X7601078Y-4428707D01*
X7604808Y-4447736D01*
X7601288Y-5074740D01*
X7598984Y-5485293D01*
X7598908Y-5498775D01*
X7584362Y-5533342D01*
X7549909Y-5547500D01*
X7360241Y-5547500D01*
X7328989Y-5536240D01*
X7327220Y-5534775D01*
X7320389Y-5527944D01*
X7315704Y-5525239D01*
X7312527Y-5522608D01*
X7312094Y-5521790D01*
X7309132Y-5519517D01*
X7306058Y-5516443D01*
X7289234Y-5509474D01*
X7283493Y-5506642D01*
X7257111Y-5491411D01*
X7257108Y-5491410D01*
X7227689Y-5483527D01*
X7227689Y-5483526D01*
X7224579Y-5482692D01*
X7204800Y-5474500D01*
X7194000Y-5474500D01*
X7187767Y-5472830D01*
X7187766Y-5472829D01*
X7187762Y-5472829D01*
X7186535Y-5472500D01*
X7186534Y-5472500D01*
X7113466Y-5472500D01*
X7113465Y-5472500D01*
X7112238Y-5472829D01*
X7106002Y-5474500D01*
X7095200Y-5474500D01*
X7075414Y-5482695D01*
X7072309Y-5483527D01*
X7072308Y-5483526D01*
X7042892Y-5491410D01*
X7042891Y-5491410D01*
X7042889Y-5491410D01*
X7042889Y-5491411D01*
X7042172Y-5491825D01*
X7016506Y-5506642D01*
X7013722Y-5508248D01*
X6993942Y-5516443D01*
X6986305Y-5524078D01*
X6980719Y-5527304D01*
X6979609Y-5527944D01*
X6935648Y-5571906D01*
X6901000Y-5586258D01*
X6866352Y-5571906D01*
X6852000Y-5537258D01*
X6852000Y-5492100D01*
X5948000Y-5492100D01*
X5948000Y-5684015D01*
X5933648Y-5718663D01*
X5899000Y-5733015D01*
X5881228Y-5729678D01*
X5877737Y-5728319D01*
X5857111Y-5716411D01*
X5825103Y-5707834D01*
X5822600Y-5706860D01*
X5822501Y-5706766D01*
X5821621Y-5706467D01*
X5804803Y-5699501D01*
X5804801Y-5699500D01*
X5804800Y-5699500D01*
X5804798Y-5699500D01*
X5800449Y-5699500D01*
X5787762Y-5697829D01*
X5786535Y-5697500D01*
X5786534Y-5697500D01*
X5713466Y-5697500D01*
X5713465Y-5697500D01*
X5712238Y-5697829D01*
X5706002Y-5699500D01*
X5695200Y-5699500D01*
X5675414Y-5707695D01*
X5672309Y-5708527D01*
X5672308Y-5708526D01*
X5642892Y-5716410D01*
X5642891Y-5716410D01*
X5616506Y-5731642D01*
X5613722Y-5733248D01*
X5593942Y-5741443D01*
X5586305Y-5749078D01*
X5580722Y-5752302D01*
X5579609Y-5752944D01*
X5527944Y-5804609D01*
X5527303Y-5805718D01*
X5527304Y-5805719D01*
X5524078Y-5811306D01*
X5516443Y-5818942D01*
X5508251Y-5838715D01*
X5506643Y-5841502D01*
X5506642Y-5841506D01*
X5491410Y-5867891D01*
X5491410Y-5867892D01*
X5483526Y-5897308D01*
X5483527Y-5897309D01*
X5482696Y-5900412D01*
X5474500Y-5920200D01*
X5474500Y-5931000D01*
X5472831Y-5937230D01*
X5472829Y-5937231D01*
X5472500Y-5938461D01*
X5472500Y-6011534D01*
X5472829Y-6012762D01*
X5472830Y-6012767D01*
X5474500Y-6019000D01*
X5474500Y-6029800D01*
X5482693Y-6049579D01*
X5483525Y-6052685D01*
X5483527Y-6052689D01*
X5491411Y-6082111D01*
X5508248Y-6111274D01*
X5516443Y-6131058D01*
X5524078Y-6138693D01*
X5527303Y-6144279D01*
X5527940Y-6145383D01*
X5527942Y-6145385D01*
X5527944Y-6145389D01*
X5527947Y-6145392D01*
X5533148Y-6150593D01*
X5547500Y-6185241D01*
X5547500Y-6357600D01*
X5533148Y-6392248D01*
X5498500Y-6406600D01*
X5426875Y-6406600D01*
X5392227Y-6392248D01*
X5378817Y-6367161D01*
X5369770Y-6321677D01*
X5350518Y-6292865D01*
X5311752Y-6234847D01*
X5259701Y-6200068D01*
X5224923Y-6176830D01*
X5148356Y-6161600D01*
X4826644Y-6161600D01*
X4750077Y-6176830D01*
X4663247Y-6234847D01*
X4605231Y-6321676D01*
X4605230Y-6321677D01*
X4590000Y-6398244D01*
X4590000Y-6819956D01*
X4605230Y-6896523D01*
X4622032Y-6921669D01*
X4663247Y-6983352D01*
X4698026Y-7006590D01*
X4750077Y-7041370D01*
X4795684Y-7050441D01*
X4826866Y-7071277D01*
X4834183Y-7108059D01*
X4813347Y-7139242D01*
X4786124Y-7147500D01*
X3504832Y-7147500D01*
X3504511Y-7147367D01*
X3504188Y-7147496D01*
X3487205Y-7140198D01*
X3470184Y-7133148D01*
X3470051Y-7132827D01*
X3469731Y-7132690D01*
X3462880Y-7115516D01*
X3455832Y-7098500D01*
X3455836Y-7097856D01*
X3455978Y-7087072D01*
X3456199Y-7070238D01*
X3471005Y-7035782D01*
X3495638Y-7022824D01*
X3497423Y-7022470D01*
X3584252Y-6964452D01*
X3642270Y-6877623D01*
X3657500Y-6801056D01*
X3657500Y-6379344D01*
X3642270Y-6302777D01*
X3594122Y-6230719D01*
X3584252Y-6215947D01*
X3515849Y-6170242D01*
X3497423Y-6157930D01*
X3420856Y-6142700D01*
X3099144Y-6142700D01*
X3022577Y-6157930D01*
X2935747Y-6215947D01*
X2884337Y-6292889D01*
X2877730Y-6302777D01*
X2862500Y-6379344D01*
X2862500Y-6801056D01*
X2877730Y-6877623D01*
X2899177Y-6909720D01*
X2935747Y-6964452D01*
X2964033Y-6983352D01*
X3022577Y-7022470D01*
X3026590Y-7025151D01*
X3025674Y-7026521D01*
X3047467Y-7048308D01*
X3051196Y-7067711D01*
X3048107Y-7302465D01*
X3048028Y-7308443D01*
X3047500Y-7309720D01*
X3047500Y-7348637D01*
X3047218Y-7370102D01*
X3046986Y-7387696D01*
X3047164Y-7388590D01*
X3047285Y-7389222D01*
X3047465Y-7390197D01*
X3062248Y-7425887D01*
X3062490Y-7426482D01*
X3076832Y-7462435D01*
X3077747Y-7463844D01*
X3078267Y-7464645D01*
X3105628Y-7492006D01*
X3106018Y-7492400D01*
X3133044Y-7520147D01*
X3134426Y-7521097D01*
X3135211Y-7521637D01*
X3135292Y-7521670D01*
X3135293Y-7521671D01*
X3171284Y-7536579D01*
X3207059Y-7551952D01*
X3208440Y-7551970D01*
X3209720Y-7552500D01*
X3248323Y-7552500D01*
X3248967Y-7552503D01*
X3287612Y-7553013D01*
X3287615Y-7553011D01*
X3289091Y-7553031D01*
X3294881Y-7552500D01*
X8089758Y-7552500D01*
X8121008Y-7563759D01*
X8122787Y-7565232D01*
X8129611Y-7572056D01*
X8134291Y-7574758D01*
X8137469Y-7577389D01*
X8137901Y-7578206D01*
X8140865Y-7580480D01*
X8143942Y-7583557D01*
X8160759Y-7590522D01*
X8166506Y-7593357D01*
X8192885Y-7608587D01*
X8192886Y-7608587D01*
X8192889Y-7608589D01*
X8225412Y-7617303D01*
X8245200Y-7625500D01*
X8256002Y-7625500D01*
X8262234Y-7627170D01*
X8262238Y-7627171D01*
X8263465Y-7627500D01*
X8263466Y-7627500D01*
X8336535Y-7627500D01*
X8337762Y-7627171D01*
X8337766Y-7627170D01*
X8343998Y-7625500D01*
X8354800Y-7625500D01*
X8374587Y-7617303D01*
X8407111Y-7608589D01*
X8423999Y-7598837D01*
X8461181Y-7593942D01*
X8490935Y-7616772D01*
X8497500Y-7641273D01*
X8497500Y-9540280D01*
X8528329Y-9614707D01*
X8528330Y-9614708D01*
X8528331Y-9614710D01*
X8579473Y-9665852D01*
X8593825Y-9700500D01*
X8579473Y-9735148D01*
X8544825Y-9749500D01*
X299500Y-9749500D01*
X264852Y-9735148D01*
X250500Y-9700500D01*
X250500Y-6437438D01*
X522500Y-6437438D01*
X522500Y-7262561D01*
X529897Y-7299746D01*
X529897Y-7299747D01*
X529898Y-7299748D01*
X535707Y-7308442D01*
X558077Y-7341922D01*
X568581Y-7348940D01*
X600252Y-7370102D01*
X637442Y-7377500D01*
X1862558Y-7377500D01*
X1899748Y-7370102D01*
X1941922Y-7341922D01*
X1970102Y-7299748D01*
X1977500Y-7262558D01*
X1977500Y-6437442D01*
X1970102Y-6400252D01*
X1947990Y-6367159D01*
X1941922Y-6358077D01*
X1910361Y-6336990D01*
X1899748Y-6329898D01*
X1899747Y-6329897D01*
X1899746Y-6329897D01*
X1862561Y-6322500D01*
X1862558Y-6322500D01*
X637442Y-6322500D01*
X637438Y-6322500D01*
X600253Y-6329897D01*
X558077Y-6358077D01*
X529897Y-6400253D01*
X522500Y-6437438D01*
X250500Y-6437438D01*
X250500Y-299500D01*
X264852Y-264852D01*
X299500Y-250500D01*
X5589285Y-250500D01*
X5602330Y-255903D01*
G37*
%TD.AperFunction*%
%TA.AperFunction,Conductor*%
G36*
X17633148Y-6696052D02*
G01*
X17647500Y-6730700D01*
X17647500Y-6790281D01*
X17656331Y-6811599D01*
X17678329Y-6864707D01*
X17678330Y-6864708D01*
X17678331Y-6864710D01*
X17735290Y-6921669D01*
X17735291Y-6921669D01*
X17735293Y-6921671D01*
X17809720Y-6952500D01*
X17809722Y-6952500D01*
X17951000Y-6952500D01*
X17985648Y-6966852D01*
X18000000Y-7001500D01*
X18000000Y-8098500D01*
X17985648Y-8133148D01*
X17951000Y-8147500D01*
X16851500Y-8147500D01*
X16816852Y-8133148D01*
X16802500Y-8098500D01*
X16802500Y-7334722D01*
X16802499Y-7334718D01*
X16771671Y-7260293D01*
X16771669Y-7260291D01*
X16771669Y-7260290D01*
X16714708Y-7203329D01*
X16698872Y-7196770D01*
X16672354Y-7170251D01*
X16672354Y-7132748D01*
X16698873Y-7106230D01*
X16717624Y-7102500D01*
X17240278Y-7102500D01*
X17240280Y-7102500D01*
X17314707Y-7071671D01*
X17314709Y-7071669D01*
X17314710Y-7071669D01*
X17371669Y-7014710D01*
X17371669Y-7014709D01*
X17371671Y-7014707D01*
X17402500Y-6940280D01*
X17402500Y-6730700D01*
X17416852Y-6696052D01*
X17451500Y-6681700D01*
X17598500Y-6681700D01*
X17633148Y-6696052D01*
G37*
%TD.AperFunction*%
%TA.AperFunction,Conductor*%
G36*
X13133148Y-3066852D02*
G01*
X13147500Y-3101500D01*
X13147500Y-3519637D01*
X13133148Y-3554285D01*
X13098500Y-3568637D01*
X13079852Y-3562981D01*
X13079205Y-3564544D01*
X13074747Y-3562697D01*
X13037561Y-3555300D01*
X13037558Y-3555300D01*
X12662442Y-3555300D01*
X12662438Y-3555300D01*
X12625253Y-3562697D01*
X12583077Y-3590877D01*
X12554897Y-3633053D01*
X12547500Y-3670238D01*
X12547500Y-3995361D01*
X12554897Y-4032545D01*
X12554898Y-4032548D01*
X12563404Y-4045278D01*
X12570286Y-4055578D01*
X12577601Y-4092361D01*
X12570286Y-4110022D01*
X12554897Y-4133054D01*
X12547500Y-4170238D01*
X12547500Y-4495361D01*
X12554897Y-4532545D01*
X12554898Y-4532548D01*
X12566187Y-4549443D01*
X12570286Y-4555578D01*
X12577601Y-4592361D01*
X12570286Y-4610022D01*
X12554897Y-4633054D01*
X12547500Y-4670238D01*
X12547500Y-4995361D01*
X12554059Y-5028330D01*
X12554898Y-5032548D01*
X12562255Y-5043558D01*
X12570286Y-5055578D01*
X12577601Y-5092361D01*
X12570286Y-5110022D01*
X12554897Y-5133054D01*
X12547500Y-5170238D01*
X12547500Y-5495361D01*
X12554897Y-5532546D01*
X12583077Y-5574722D01*
X12604165Y-5588812D01*
X12625252Y-5602902D01*
X12662442Y-5610300D01*
X13037558Y-5610300D01*
X13074748Y-5602902D01*
X13116922Y-5574722D01*
X13145102Y-5532548D01*
X13152500Y-5495358D01*
X13152500Y-5170242D01*
X13145102Y-5133052D01*
X13130717Y-5111522D01*
X13123401Y-5074740D01*
X13144237Y-5043558D01*
X13171459Y-5035300D01*
X14190278Y-5035300D01*
X14190280Y-5035300D01*
X14264707Y-5004471D01*
X14264709Y-5004469D01*
X14264710Y-5004469D01*
X14321669Y-4947510D01*
X14321669Y-4947509D01*
X14321671Y-4947507D01*
X14352500Y-4873080D01*
X14352500Y-3562248D01*
X14357612Y-3549906D01*
X14359682Y-3536709D01*
X14364547Y-3533162D01*
X14366852Y-3527600D01*
X14379192Y-3522488D01*
X14389989Y-3514619D01*
X14395414Y-3515768D01*
X14401500Y-3513248D01*
X14427039Y-3520430D01*
X14429469Y-3521914D01*
X14429611Y-3522056D01*
X14431263Y-3523009D01*
X14431758Y-3523312D01*
X14432056Y-3523722D01*
X14440865Y-3530480D01*
X14443942Y-3533557D01*
X14460759Y-3540522D01*
X14466506Y-3543357D01*
X14492885Y-3558587D01*
X14492886Y-3558587D01*
X14492889Y-3558589D01*
X14522317Y-3566473D01*
X14528431Y-3568553D01*
X14528603Y-3568624D01*
X14528613Y-3568629D01*
X14555097Y-3595182D01*
X14555078Y-3628167D01*
X14555839Y-3628319D01*
X14555076Y-3632153D01*
X14555076Y-3632618D01*
X14555049Y-3632683D01*
X14555049Y-3632685D01*
X14555047Y-3632686D01*
X14554898Y-3633046D01*
X14547500Y-3670238D01*
X14547500Y-3995361D01*
X14554897Y-4032545D01*
X14554898Y-4032548D01*
X14563404Y-4045278D01*
X14570286Y-4055578D01*
X14577601Y-4092361D01*
X14570286Y-4110022D01*
X14554897Y-4133054D01*
X14547500Y-4170238D01*
X14547500Y-4495361D01*
X14554897Y-4532545D01*
X14554898Y-4532548D01*
X14566187Y-4549443D01*
X14570286Y-4555578D01*
X14577601Y-4592361D01*
X14570286Y-4610022D01*
X14554897Y-4633054D01*
X14547500Y-4670238D01*
X14547500Y-4995361D01*
X14554059Y-5028330D01*
X14554898Y-5032548D01*
X14562255Y-5043558D01*
X14570286Y-5055578D01*
X14577601Y-5092361D01*
X14570286Y-5110022D01*
X14554897Y-5133054D01*
X14547500Y-5170238D01*
X14547500Y-5495361D01*
X14554897Y-5532546D01*
X14583077Y-5574722D01*
X14604165Y-5588812D01*
X14625252Y-5602902D01*
X14662442Y-5610300D01*
X15037558Y-5610300D01*
X15074748Y-5602902D01*
X15116922Y-5574722D01*
X15116921Y-5574722D01*
X15120935Y-5572041D01*
X15122409Y-5574248D01*
X15148500Y-5563441D01*
X15183148Y-5577793D01*
X15197500Y-5612441D01*
X15197500Y-6053159D01*
X15183148Y-6087807D01*
X15148500Y-6102159D01*
X15122409Y-6091351D01*
X15120935Y-6093559D01*
X15095201Y-6076364D01*
X15074748Y-6062698D01*
X15074747Y-6062697D01*
X15074746Y-6062697D01*
X15037561Y-6055300D01*
X15037558Y-6055300D01*
X14662442Y-6055300D01*
X14662438Y-6055300D01*
X14625253Y-6062697D01*
X14583076Y-6090878D01*
X14562410Y-6121807D01*
X14553033Y-6128071D01*
X14546169Y-6137018D01*
X14538043Y-6138087D01*
X14531227Y-6142642D01*
X14508987Y-6141913D01*
X14477690Y-6133527D01*
X14471621Y-6131467D01*
X14454803Y-6124501D01*
X14454801Y-6124500D01*
X14454800Y-6124500D01*
X14454798Y-6124500D01*
X14450449Y-6124500D01*
X14437762Y-6122829D01*
X14436535Y-6122500D01*
X14436534Y-6122500D01*
X14363466Y-6122500D01*
X14363465Y-6122500D01*
X14362238Y-6122829D01*
X14356002Y-6124500D01*
X14345200Y-6124500D01*
X14325414Y-6132695D01*
X14322309Y-6133527D01*
X14322308Y-6133526D01*
X14292892Y-6141410D01*
X14292891Y-6141410D01*
X14292889Y-6141410D01*
X14292889Y-6141411D01*
X14290757Y-6142642D01*
X14266506Y-6156642D01*
X14263722Y-6158248D01*
X14243942Y-6166443D01*
X14236305Y-6174078D01*
X14230722Y-6177302D01*
X14229609Y-6177944D01*
X14177944Y-6229609D01*
X14177303Y-6230718D01*
X14177304Y-6230719D01*
X14174078Y-6236306D01*
X14166443Y-6243942D01*
X14158251Y-6263715D01*
X14156643Y-6266502D01*
X14156642Y-6266506D01*
X14141410Y-6292891D01*
X14141410Y-6292892D01*
X14133526Y-6322308D01*
X14133527Y-6322309D01*
X14132696Y-6325412D01*
X14124500Y-6345200D01*
X14124500Y-6356000D01*
X14122831Y-6362230D01*
X14122829Y-6362231D01*
X14122500Y-6363461D01*
X14122500Y-6436534D01*
X14122829Y-6437762D01*
X14122830Y-6437767D01*
X14124500Y-6444000D01*
X14124500Y-6454800D01*
X14132693Y-6474579D01*
X14133525Y-6477685D01*
X14133527Y-6477689D01*
X14138262Y-6495358D01*
X14141411Y-6507111D01*
X14141412Y-6507112D01*
X14151162Y-6524000D01*
X14156057Y-6561182D01*
X14133227Y-6590935D01*
X14108727Y-6597500D01*
X12509718Y-6597500D01*
X12435291Y-6628330D01*
X12378331Y-6685290D01*
X12378329Y-6685291D01*
X12361653Y-6725552D01*
X12335134Y-6752070D01*
X12316383Y-6755800D01*
X11151500Y-6755800D01*
X11116852Y-6741448D01*
X11102500Y-6706800D01*
X11102500Y-5451500D01*
X11116852Y-5416852D01*
X11151500Y-5402500D01*
X12090278Y-5402500D01*
X12090280Y-5402500D01*
X12164707Y-5371671D01*
X12164709Y-5371669D01*
X12164710Y-5371669D01*
X12221669Y-5314710D01*
X12221669Y-5314709D01*
X12221671Y-5314707D01*
X12252500Y-5240280D01*
X12252500Y-3525120D01*
X12221671Y-3450693D01*
X12221669Y-3450691D01*
X12221669Y-3450690D01*
X12164710Y-3393731D01*
X12164708Y-3393730D01*
X12164707Y-3393729D01*
X12111455Y-3371671D01*
X12090281Y-3362900D01*
X12090280Y-3362900D01*
X11939375Y-3362900D01*
X11904727Y-3348548D01*
X11891317Y-3323461D01*
X11882270Y-3277977D01*
X11845332Y-3222696D01*
X11824252Y-3191147D01*
X11765225Y-3151707D01*
X11751058Y-3142240D01*
X11730224Y-3111060D01*
X11737540Y-3074277D01*
X11768722Y-3053442D01*
X11778282Y-3052500D01*
X13098500Y-3052500D01*
X13133148Y-3066852D01*
G37*
%TD.AperFunction*%
%TA.AperFunction,Conductor*%
G36*
X10700093Y-707612D02*
G01*
X10713294Y-709684D01*
X10716839Y-714548D01*
X10722399Y-716852D01*
X10727511Y-729195D01*
X10735381Y-739994D01*
X10734447Y-745939D01*
X10736751Y-751500D01*
X10730847Y-768882D01*
X10729567Y-777043D01*
X10728083Y-779471D01*
X10727944Y-779611D01*
X10727004Y-781237D01*
X10726685Y-781761D01*
X10719523Y-790861D01*
X10716442Y-793942D01*
X10716441Y-793944D01*
X10709473Y-810763D01*
X10706642Y-816506D01*
X10691410Y-842891D01*
X10691410Y-842892D01*
X10683526Y-872308D01*
X10683527Y-872309D01*
X10682696Y-875412D01*
X10674500Y-895200D01*
X10674500Y-906000D01*
X10672831Y-912230D01*
X10672829Y-912231D01*
X10672500Y-913461D01*
X10672500Y-986534D01*
X10672829Y-987762D01*
X10672830Y-987767D01*
X10674500Y-994000D01*
X10674500Y-1004800D01*
X10682693Y-1024579D01*
X10683525Y-1027685D01*
X10683527Y-1027689D01*
X10691129Y-1056058D01*
X10691411Y-1057111D01*
X10708248Y-1086274D01*
X10716443Y-1106058D01*
X10724078Y-1113693D01*
X10727303Y-1119279D01*
X10727940Y-1120383D01*
X10727941Y-1120385D01*
X10727944Y-1120389D01*
X10779611Y-1172056D01*
X10786306Y-1175921D01*
X10793942Y-1183557D01*
X10813721Y-1191749D01*
X10816504Y-1193356D01*
X10816506Y-1193357D01*
X10842885Y-1208587D01*
X10842886Y-1208587D01*
X10842889Y-1208589D01*
X10875412Y-1217303D01*
X10895200Y-1225500D01*
X10906002Y-1225500D01*
X10912234Y-1227170D01*
X10912238Y-1227171D01*
X10913465Y-1227500D01*
X10913466Y-1227500D01*
X10986535Y-1227500D01*
X10987762Y-1227171D01*
X10987766Y-1227170D01*
X10993998Y-1225500D01*
X11004800Y-1225500D01*
X11024587Y-1217303D01*
X11057111Y-1208589D01*
X11057113Y-1208587D01*
X11057115Y-1208587D01*
X11083491Y-1193358D01*
X11083491Y-1193357D01*
X11086274Y-1191751D01*
X11106058Y-1183557D01*
X11113692Y-1175921D01*
X11119280Y-1172696D01*
X11119279Y-1172696D01*
X11120389Y-1172056D01*
X11147558Y-1144885D01*
X11177329Y-1130776D01*
X11457670Y-1102743D01*
X11462546Y-1102500D01*
X12229330Y-1102500D01*
X12263978Y-1116852D01*
X12278330Y-1151500D01*
X12263978Y-1186148D01*
X12250038Y-1195909D01*
X12214475Y-1212492D01*
X12214473Y-1212493D01*
X12129693Y-1297273D01*
X12129692Y-1297275D01*
X12079019Y-1405942D01*
X12079019Y-1405944D01*
X12074350Y-1441412D01*
X12072500Y-1455463D01*
X12072500Y-1960136D01*
X12072499Y-1960136D01*
X12079019Y-2009657D01*
X12129692Y-2118325D01*
X12131143Y-2120397D01*
X12139258Y-2157012D01*
X12119106Y-2188640D01*
X12091003Y-2197500D01*
X10658997Y-2197500D01*
X10624349Y-2183148D01*
X10609997Y-2148500D01*
X10618857Y-2120397D01*
X10620307Y-2118325D01*
X10620308Y-2118324D01*
X10670981Y-2009656D01*
X10677500Y-1960140D01*
X10677500Y-1455460D01*
X10670981Y-1405944D01*
X10620308Y-1297276D01*
X10620307Y-1297275D01*
X10620306Y-1297273D01*
X10535526Y-1212493D01*
X10535524Y-1212492D01*
X10426857Y-1161819D01*
X10416952Y-1160515D01*
X10377340Y-1155300D01*
X9872660Y-1155300D01*
X9839649Y-1159646D01*
X9823142Y-1161819D01*
X9714475Y-1212492D01*
X9714473Y-1212493D01*
X9629693Y-1297273D01*
X9629692Y-1297275D01*
X9579019Y-1405942D01*
X9579019Y-1405944D01*
X9574350Y-1441412D01*
X9572291Y-1457051D01*
X9571542Y-1456952D01*
X9555930Y-1488571D01*
X9523267Y-1500714D01*
X9311471Y-1499102D01*
X9280254Y-1487561D01*
X9278670Y-1486225D01*
X9270389Y-1477944D01*
X9265511Y-1475127D01*
X9262189Y-1472326D01*
X9261791Y-1471557D01*
X9259132Y-1469517D01*
X9256058Y-1466443D01*
X9239234Y-1459474D01*
X9233493Y-1456642D01*
X9207111Y-1441411D01*
X9207108Y-1441410D01*
X9177689Y-1433527D01*
X9177689Y-1433526D01*
X9174579Y-1432692D01*
X9154800Y-1424500D01*
X9144000Y-1424500D01*
X9137767Y-1422830D01*
X9137766Y-1422829D01*
X9137762Y-1422829D01*
X9136535Y-1422500D01*
X9136534Y-1422500D01*
X9063466Y-1422500D01*
X9063465Y-1422500D01*
X9062238Y-1422829D01*
X9056002Y-1424500D01*
X9045200Y-1424500D01*
X9025414Y-1432695D01*
X9022309Y-1433527D01*
X9022308Y-1433526D01*
X8992892Y-1441410D01*
X8992891Y-1441410D01*
X8992889Y-1441410D01*
X8992889Y-1441411D01*
X8986351Y-1445185D01*
X8966506Y-1456642D01*
X8963722Y-1458248D01*
X8943942Y-1466443D01*
X8936305Y-1474078D01*
X8930719Y-1477304D01*
X8929609Y-1477944D01*
X8877944Y-1529609D01*
X8877303Y-1530718D01*
X8877304Y-1530719D01*
X8874078Y-1536306D01*
X8866443Y-1543942D01*
X8858251Y-1563715D01*
X8856643Y-1566502D01*
X8856642Y-1566506D01*
X8841410Y-1592891D01*
X8841410Y-1592892D01*
X8833526Y-1622308D01*
X8833527Y-1622309D01*
X8832696Y-1625412D01*
X8824500Y-1645200D01*
X8824500Y-1656000D01*
X8822831Y-1662230D01*
X8822829Y-1662231D01*
X8822500Y-1663461D01*
X8822500Y-1736534D01*
X8822829Y-1737762D01*
X8822830Y-1737767D01*
X8824500Y-1744000D01*
X8824500Y-1754800D01*
X8832693Y-1774579D01*
X8833525Y-1777685D01*
X8833527Y-1777689D01*
X8837833Y-1793759D01*
X8841411Y-1807111D01*
X8858248Y-1836274D01*
X8866443Y-1856058D01*
X8874078Y-1863693D01*
X8875402Y-1865986D01*
X8877303Y-1869279D01*
X8879550Y-1873171D01*
X8878062Y-1874029D01*
X8886331Y-1904900D01*
X8867577Y-1937377D01*
X8837751Y-1947500D01*
X8501500Y-1947500D01*
X8466852Y-1933148D01*
X8452500Y-1898500D01*
X8452500Y-1709722D01*
X8452499Y-1709718D01*
X8436208Y-1670389D01*
X8421671Y-1635293D01*
X8421669Y-1635291D01*
X8421669Y-1635290D01*
X8364710Y-1578331D01*
X8364708Y-1578330D01*
X8364707Y-1578329D01*
X8307904Y-1554800D01*
X8290281Y-1547500D01*
X8290280Y-1547500D01*
X7703153Y-1547500D01*
X7668505Y-1533148D01*
X7654153Y-1498500D01*
X7662410Y-1471278D01*
X7672270Y-1456523D01*
X7687500Y-1379956D01*
X7687500Y-958244D01*
X7672270Y-881677D01*
X7614252Y-794848D01*
X7610352Y-792242D01*
X7589517Y-761061D01*
X7596832Y-724278D01*
X7628014Y-703442D01*
X7637575Y-702500D01*
X10687751Y-702500D01*
X10700093Y-707612D01*
G37*
%TD.AperFunction*%
%TD*%
%TA.AperFunction,Conductor*%
%TO.N,GND*%
G36*
X37735148Y-264852D02*
G01*
X37749500Y-299500D01*
X37749500Y-9700500D01*
X37735148Y-9735148D01*
X37700500Y-9749500D01*
X32426500Y-9749500D01*
X32391852Y-9735148D01*
X32377500Y-9700500D01*
X32377500Y-9501500D01*
X32391852Y-9466852D01*
X32426500Y-9452500D01*
X33090278Y-9452500D01*
X33090280Y-9452500D01*
X33164707Y-9421671D01*
X33193647Y-9392729D01*
X33197887Y-9388956D01*
X33203234Y-9384725D01*
X33206058Y-9383557D01*
X33211147Y-9378467D01*
X33213380Y-9376701D01*
X33214461Y-9376394D01*
X33219285Y-9372693D01*
X33220389Y-9372056D01*
X33272056Y-9320389D01*
X33275921Y-9313693D01*
X33283557Y-9306058D01*
X33291751Y-9286274D01*
X33308589Y-9257111D01*
X33317303Y-9224587D01*
X33325500Y-9204800D01*
X33325500Y-9193998D01*
X33327500Y-9186534D01*
X33327500Y-9113466D01*
X33327500Y-9113464D01*
X33327499Y-9113461D01*
X33327170Y-9112232D01*
X33327170Y-9112233D01*
X33327169Y-9112232D01*
X33325500Y-9106001D01*
X33325500Y-9095200D01*
X33317303Y-9075412D01*
X33308589Y-9042889D01*
X33302965Y-9033148D01*
X33293357Y-9016506D01*
X33291750Y-9013722D01*
X33283557Y-8993942D01*
X33275921Y-8986306D01*
X33272056Y-8979611D01*
X33220389Y-8927944D01*
X33220385Y-8927941D01*
X33220383Y-8927940D01*
X33219280Y-8927303D01*
X33213693Y-8924078D01*
X33206058Y-8916443D01*
X33186274Y-8908248D01*
X33157111Y-8891411D01*
X33157108Y-8891410D01*
X33127689Y-8883527D01*
X33127689Y-8883526D01*
X33124579Y-8882692D01*
X33104800Y-8874500D01*
X33094000Y-8874500D01*
X33087767Y-8872830D01*
X33087766Y-8872829D01*
X33087762Y-8872829D01*
X33086535Y-8872500D01*
X33086534Y-8872500D01*
X33013466Y-8872500D01*
X33013465Y-8872500D01*
X33012238Y-8872829D01*
X33006002Y-8874500D01*
X32995200Y-8874500D01*
X32975414Y-8882695D01*
X32972309Y-8883527D01*
X32972308Y-8883526D01*
X32942892Y-8891410D01*
X32942891Y-8891410D01*
X32942889Y-8891410D01*
X32942889Y-8891411D01*
X32936351Y-8895185D01*
X32916506Y-8906642D01*
X32913722Y-8908248D01*
X32893942Y-8916443D01*
X32886305Y-8924078D01*
X32880719Y-8927304D01*
X32879609Y-8927944D01*
X32827944Y-8979609D01*
X32827303Y-8980718D01*
X32827304Y-8980719D01*
X32824078Y-8986306D01*
X32816443Y-8993942D01*
X32808250Y-9013718D01*
X32806640Y-9016508D01*
X32806638Y-9016509D01*
X32802898Y-9022991D01*
X32773150Y-9045828D01*
X32760458Y-9047500D01*
X32426500Y-9047500D01*
X32391852Y-9033148D01*
X32377500Y-8998500D01*
X32377500Y-8737442D01*
X32377499Y-8737438D01*
X32370102Y-8700253D01*
X32370102Y-8700252D01*
X32342908Y-8659553D01*
X32341922Y-8658077D01*
X32305052Y-8633442D01*
X32299748Y-8629898D01*
X32299747Y-8629897D01*
X32299746Y-8629897D01*
X32262561Y-8622500D01*
X32262558Y-8622500D01*
X31237442Y-8622500D01*
X31237438Y-8622500D01*
X31200253Y-8629897D01*
X31198908Y-8630796D01*
X31197322Y-8631111D01*
X31195795Y-8631744D01*
X31195669Y-8631439D01*
X31185598Y-8633442D01*
X31173233Y-8639027D01*
X31167810Y-8636978D01*
X31162125Y-8638109D01*
X31161618Y-8637770D01*
X31161618Y-8651085D01*
X31157091Y-8659553D01*
X31129897Y-8700252D01*
X31122500Y-8737438D01*
X31122500Y-9011758D01*
X31115760Y-9028029D01*
X31109836Y-9044632D01*
X31108649Y-9045194D01*
X31108148Y-9046406D01*
X31091870Y-9053148D01*
X31075947Y-9060697D01*
X31074755Y-9060237D01*
X31073500Y-9060758D01*
X31040626Y-9048094D01*
X31039712Y-9047267D01*
X31020389Y-9027944D01*
X31014766Y-9024697D01*
X31010905Y-9021204D01*
X31010661Y-9020690D01*
X31009132Y-9019517D01*
X31006058Y-9016443D01*
X30989234Y-9009474D01*
X30983493Y-9006642D01*
X30957111Y-8991411D01*
X30957108Y-8991410D01*
X30927689Y-8983527D01*
X30927689Y-8983526D01*
X30924579Y-8982692D01*
X30904800Y-8974500D01*
X30894000Y-8974500D01*
X30887767Y-8972830D01*
X30887766Y-8972829D01*
X30887762Y-8972829D01*
X30886535Y-8972500D01*
X30886534Y-8972500D01*
X30813466Y-8972500D01*
X30813465Y-8972500D01*
X30812238Y-8972829D01*
X30806002Y-8974500D01*
X30795200Y-8974500D01*
X30775414Y-8982695D01*
X30772309Y-8983527D01*
X30772308Y-8983526D01*
X30742892Y-8991410D01*
X30742891Y-8991410D01*
X30742889Y-8991410D01*
X30742889Y-8991411D01*
X30738505Y-8993942D01*
X30716506Y-9006642D01*
X30713722Y-9008248D01*
X30693942Y-9016443D01*
X30686305Y-9024078D01*
X30680719Y-9027304D01*
X30679609Y-9027944D01*
X30674406Y-9033148D01*
X30639758Y-9047500D01*
X29926500Y-9047500D01*
X29891852Y-9033148D01*
X29877500Y-8998500D01*
X29877500Y-8737442D01*
X29877499Y-8737438D01*
X29870102Y-8700253D01*
X29870102Y-8700252D01*
X29842908Y-8659553D01*
X29841922Y-8658077D01*
X29818222Y-8642242D01*
X29797387Y-8611060D01*
X29804703Y-8574277D01*
X29835885Y-8553442D01*
X29845445Y-8552500D01*
X30739758Y-8552500D01*
X30755118Y-8558862D01*
X30771008Y-8563759D01*
X30772787Y-8565232D01*
X30779611Y-8572056D01*
X30784291Y-8574758D01*
X30787469Y-8577389D01*
X30790858Y-8580473D01*
X30793942Y-8583557D01*
X30810759Y-8590522D01*
X30816506Y-8593357D01*
X30842885Y-8608587D01*
X30842886Y-8608587D01*
X30842889Y-8608589D01*
X30875412Y-8617303D01*
X30895200Y-8625500D01*
X30906002Y-8625500D01*
X30912234Y-8627170D01*
X30912238Y-8627171D01*
X30913465Y-8627500D01*
X30913466Y-8627500D01*
X30986535Y-8627500D01*
X30987762Y-8627171D01*
X30987766Y-8627170D01*
X30993998Y-8625500D01*
X31004800Y-8625500D01*
X31024587Y-8617303D01*
X31057111Y-8608589D01*
X31057113Y-8608587D01*
X31057115Y-8608587D01*
X31083491Y-8593358D01*
X31089238Y-8590522D01*
X31097600Y-8587060D01*
X31124507Y-8587061D01*
X31124794Y-8586337D01*
X31123631Y-8580487D01*
X31135966Y-8556512D01*
X31136472Y-8555972D01*
X31172056Y-8520389D01*
X31175528Y-8514373D01*
X31179409Y-8510240D01*
X31179751Y-8510085D01*
X31180484Y-8509130D01*
X31183557Y-8506058D01*
X31190521Y-8489244D01*
X31193358Y-8483491D01*
X31208587Y-8457115D01*
X31208587Y-8457113D01*
X31208589Y-8457111D01*
X31217303Y-8424587D01*
X31225500Y-8404800D01*
X31225500Y-8393998D01*
X31227500Y-8386534D01*
X31227500Y-8313466D01*
X31227500Y-8313464D01*
X31227499Y-8313461D01*
X31227170Y-8312232D01*
X31227170Y-8312233D01*
X31227169Y-8312232D01*
X31225500Y-8306001D01*
X31225500Y-8295200D01*
X31217303Y-8275412D01*
X31208589Y-8242889D01*
X31208587Y-8242886D01*
X31207757Y-8239786D01*
X31208731Y-8239524D01*
X31208734Y-8205730D01*
X31226778Y-8183745D01*
X31247779Y-8169712D01*
X31284561Y-8162398D01*
X31302221Y-8169713D01*
X31325252Y-8185102D01*
X31362442Y-8192500D01*
X31837558Y-8192500D01*
X31874748Y-8185102D01*
X31897777Y-8169713D01*
X31934559Y-8162397D01*
X31952221Y-8169713D01*
X31975252Y-8185102D01*
X32012442Y-8192500D01*
X32487558Y-8192500D01*
X32524748Y-8185102D01*
X32547777Y-8169713D01*
X32584559Y-8162397D01*
X32602221Y-8169713D01*
X32625252Y-8185102D01*
X32662442Y-8192500D01*
X33137558Y-8192500D01*
X33174748Y-8185102D01*
X33197777Y-8169713D01*
X33234559Y-8162397D01*
X33252221Y-8169713D01*
X33275252Y-8185102D01*
X33312442Y-8192500D01*
X33787558Y-8192500D01*
X33824748Y-8185102D01*
X33847777Y-8169713D01*
X33884559Y-8162397D01*
X33902221Y-8169713D01*
X33925252Y-8185102D01*
X33962442Y-8192500D01*
X34437558Y-8192500D01*
X34474748Y-8185102D01*
X34516922Y-8156922D01*
X34545102Y-8114748D01*
X34552500Y-8077558D01*
X34552500Y-7602442D01*
X34545102Y-7565252D01*
X34525000Y-7535167D01*
X34516922Y-7523077D01*
X34485361Y-7501990D01*
X34474748Y-7494898D01*
X34474747Y-7494897D01*
X34474746Y-7494897D01*
X34437561Y-7487500D01*
X34437558Y-7487500D01*
X33962442Y-7487500D01*
X33962438Y-7487500D01*
X33925254Y-7494897D01*
X33925252Y-7494897D01*
X33925252Y-7494898D01*
X33912723Y-7503269D01*
X33902222Y-7510286D01*
X33885602Y-7513591D01*
X33869296Y-7518210D01*
X33866869Y-7517316D01*
X33865439Y-7517601D01*
X33862110Y-7515563D01*
X33847778Y-7510286D01*
X33842731Y-7506914D01*
X33824748Y-7494898D01*
X33824745Y-7494897D01*
X33787561Y-7487500D01*
X33787558Y-7487500D01*
X33773241Y-7487500D01*
X33738593Y-7473148D01*
X33724241Y-7438500D01*
X33738593Y-7403852D01*
X33739945Y-7402500D01*
X33772056Y-7370389D01*
X33772693Y-7369283D01*
X33780484Y-7359130D01*
X33783557Y-7356058D01*
X33784318Y-7354222D01*
X33790521Y-7339244D01*
X33793358Y-7333491D01*
X33808587Y-7307115D01*
X33808587Y-7307113D01*
X33808589Y-7307111D01*
X33817303Y-7274587D01*
X33825500Y-7254800D01*
X33825500Y-7243998D01*
X33827500Y-7236534D01*
X33827500Y-7163466D01*
X33827500Y-7163464D01*
X33827499Y-7163461D01*
X33827170Y-7162232D01*
X33827170Y-7162233D01*
X33827169Y-7162232D01*
X33825500Y-7156001D01*
X33825500Y-7145200D01*
X33817303Y-7125412D01*
X33808589Y-7092889D01*
X33808587Y-7092885D01*
X33793357Y-7066506D01*
X33791750Y-7063722D01*
X33783557Y-7043942D01*
X33775921Y-7036306D01*
X33772056Y-7029611D01*
X33720389Y-6977944D01*
X33720385Y-6977941D01*
X33720383Y-6977940D01*
X33719280Y-6977303D01*
X33713693Y-6974078D01*
X33706058Y-6966443D01*
X33686274Y-6958248D01*
X33657111Y-6941411D01*
X33657108Y-6941410D01*
X33627689Y-6933527D01*
X33627062Y-6933355D01*
X33624287Y-6932571D01*
X33604800Y-6924500D01*
X33595689Y-6924500D01*
X33589163Y-6922658D01*
X33579358Y-6914925D01*
X33567825Y-6910148D01*
X33561731Y-6902723D01*
X33541922Y-6873077D01*
X33510361Y-6851990D01*
X33499748Y-6844898D01*
X33499747Y-6844897D01*
X33499746Y-6844897D01*
X33462561Y-6837500D01*
X33462558Y-6837500D01*
X32987442Y-6837500D01*
X32987438Y-6837500D01*
X32950254Y-6844897D01*
X32950252Y-6844897D01*
X32950252Y-6844898D01*
X32938876Y-6852499D01*
X32927222Y-6860286D01*
X32890439Y-6867601D01*
X32881893Y-6865075D01*
X32877080Y-6863161D01*
X32849748Y-6844898D01*
X32812558Y-6837500D01*
X32812555Y-6837500D01*
X32808393Y-6835845D01*
X32797909Y-6825654D01*
X32785758Y-6817535D01*
X32784169Y-6812298D01*
X32781501Y-6809705D01*
X32781408Y-6803197D01*
X32777500Y-6790313D01*
X32777500Y-6609722D01*
X32777499Y-6609718D01*
X32775462Y-6604800D01*
X32746671Y-6535293D01*
X32746669Y-6535291D01*
X32746669Y-6535290D01*
X32689710Y-6478331D01*
X32689708Y-6478330D01*
X32689707Y-6478329D01*
X32646110Y-6460270D01*
X32615281Y-6447500D01*
X32615280Y-6447500D01*
X30989541Y-6447500D01*
X30983422Y-6444965D01*
X30976857Y-6445830D01*
X30966709Y-6438042D01*
X30954893Y-6433148D01*
X30947105Y-6422998D01*
X30943356Y-6416504D01*
X30940521Y-6410756D01*
X30938623Y-6406174D01*
X30933557Y-6393942D01*
X30930480Y-6390865D01*
X30922695Y-6380719D01*
X30922056Y-6379611D01*
X30870389Y-6327944D01*
X30870385Y-6327941D01*
X30870383Y-6327940D01*
X30869280Y-6327303D01*
X30863693Y-6324078D01*
X30856058Y-6316443D01*
X30836274Y-6308248D01*
X30807111Y-6291411D01*
X30807108Y-6291410D01*
X30777689Y-6283527D01*
X30777689Y-6283526D01*
X30774579Y-6282692D01*
X30754800Y-6274500D01*
X30744000Y-6274500D01*
X30737767Y-6272830D01*
X30737766Y-6272829D01*
X30737762Y-6272829D01*
X30736535Y-6272500D01*
X30736534Y-6272500D01*
X30663466Y-6272500D01*
X30663465Y-6272500D01*
X30662238Y-6272829D01*
X30656002Y-6274500D01*
X30645200Y-6274500D01*
X30625414Y-6282695D01*
X30622309Y-6283527D01*
X30622308Y-6283526D01*
X30592892Y-6291410D01*
X30592891Y-6291410D01*
X30592889Y-6291410D01*
X30592889Y-6291411D01*
X30586351Y-6295185D01*
X30566506Y-6306642D01*
X30563722Y-6308248D01*
X30543942Y-6316443D01*
X30536306Y-6324078D01*
X30535094Y-6324778D01*
X30530719Y-6327304D01*
X30529609Y-6327944D01*
X30477944Y-6379609D01*
X30477302Y-6380722D01*
X30469517Y-6390866D01*
X30468561Y-6391822D01*
X30433913Y-6406174D01*
X30399265Y-6391822D01*
X30393174Y-6384401D01*
X30389712Y-6379220D01*
X30385711Y-6359102D01*
X30384913Y-6357174D01*
X30385193Y-6356496D01*
X30382398Y-6342440D01*
X30389714Y-6324777D01*
X30390181Y-6324078D01*
X30405102Y-6301748D01*
X30412500Y-6264558D01*
X30412500Y-5789442D01*
X30405102Y-5752252D01*
X30389714Y-5729222D01*
X30376922Y-5710077D01*
X30345361Y-5688990D01*
X30334748Y-5681898D01*
X30334747Y-5681897D01*
X30334746Y-5681897D01*
X30297561Y-5674500D01*
X30297558Y-5674500D01*
X29822442Y-5674500D01*
X29821053Y-5674776D01*
X29820585Y-5674682D01*
X29820046Y-5674736D01*
X29820029Y-5674572D01*
X29784272Y-5667454D01*
X29763440Y-5636269D01*
X29762500Y-5626716D01*
X29762500Y-5464442D01*
X29762499Y-5464438D01*
X29760352Y-5453647D01*
X29755102Y-5427252D01*
X29739713Y-5404222D01*
X29732397Y-5367441D01*
X29739714Y-5349777D01*
X29755102Y-5326748D01*
X29762500Y-5289558D01*
X29762500Y-4814442D01*
X29755102Y-4777252D01*
X29730258Y-4740070D01*
X29726922Y-4735077D01*
X29693651Y-4712847D01*
X29684748Y-4706898D01*
X29684747Y-4706897D01*
X29684746Y-4706897D01*
X29647561Y-4699500D01*
X29647558Y-4699500D01*
X29172442Y-4699500D01*
X29172438Y-4699500D01*
X29135253Y-4706897D01*
X29093077Y-4735077D01*
X29089742Y-4740070D01*
X29058559Y-4760906D01*
X29021777Y-4753589D01*
X29000941Y-4722406D01*
X29000000Y-4712847D01*
X29000000Y-3557254D01*
X29001079Y-3547030D01*
X29001603Y-3544574D01*
X29001718Y-3544205D01*
X29002147Y-3542048D01*
X29002293Y-3541341D01*
X29002500Y-3540373D01*
X29002500Y-3501435D01*
X29003052Y-3462602D01*
X29002500Y-3461213D01*
X29002500Y-3459720D01*
X29002500Y-3459605D01*
X29002333Y-3458702D01*
X29002222Y-3458324D01*
X29001558Y-3454985D01*
X29002172Y-3454862D01*
X29000000Y-3443938D01*
X29000000Y-3000000D01*
X26821500Y-3000000D01*
X26786852Y-2985648D01*
X26772500Y-2951000D01*
X26772500Y-2212229D01*
X26786852Y-2177581D01*
X26803671Y-2168627D01*
X26802963Y-2166917D01*
X26807418Y-2165070D01*
X26807423Y-2165070D01*
X26894252Y-2107052D01*
X26952270Y-2020223D01*
X26967500Y-1943656D01*
X26967500Y-1521944D01*
X26952270Y-1445377D01*
X26924436Y-1403722D01*
X26917120Y-1366941D01*
X26937956Y-1335758D01*
X26965179Y-1327500D01*
X28870630Y-1327500D01*
X28879635Y-1331230D01*
X28889385Y-1331231D01*
X28896276Y-1338123D01*
X28905278Y-1341852D01*
X28909008Y-1350857D01*
X28915902Y-1357752D01*
X28915901Y-1367498D01*
X28919630Y-1376500D01*
X28915899Y-1395255D01*
X28909474Y-1410763D01*
X28906642Y-1416506D01*
X28891410Y-1442891D01*
X28891410Y-1442892D01*
X28883526Y-1472308D01*
X28883527Y-1472309D01*
X28882696Y-1475412D01*
X28874500Y-1495200D01*
X28874500Y-1506000D01*
X28872831Y-1512230D01*
X28872829Y-1512231D01*
X28872500Y-1513461D01*
X28872500Y-1586534D01*
X28872829Y-1587762D01*
X28872830Y-1587767D01*
X28874500Y-1594000D01*
X28874500Y-1604800D01*
X28882693Y-1624579D01*
X28883525Y-1627685D01*
X28883527Y-1627689D01*
X28891411Y-1657111D01*
X28908248Y-1686274D01*
X28916443Y-1706058D01*
X28924078Y-1713693D01*
X28927303Y-1719279D01*
X28927940Y-1720383D01*
X28927941Y-1720385D01*
X28927944Y-1720389D01*
X28979611Y-1772056D01*
X28986306Y-1775921D01*
X28993942Y-1783557D01*
X29013721Y-1791749D01*
X29016504Y-1793356D01*
X29016506Y-1793357D01*
X29042885Y-1808587D01*
X29042886Y-1808587D01*
X29042889Y-1808589D01*
X29075412Y-1817303D01*
X29095200Y-1825500D01*
X29106002Y-1825500D01*
X29112234Y-1827170D01*
X29112238Y-1827171D01*
X29113465Y-1827500D01*
X29113466Y-1827500D01*
X29186535Y-1827500D01*
X29187762Y-1827171D01*
X29187766Y-1827170D01*
X29193998Y-1825500D01*
X29204800Y-1825500D01*
X29224587Y-1817303D01*
X29257111Y-1808589D01*
X29257113Y-1808587D01*
X29257115Y-1808587D01*
X29283491Y-1793358D01*
X29283491Y-1793357D01*
X29286274Y-1791751D01*
X29306058Y-1783557D01*
X29313692Y-1775921D01*
X29319280Y-1772696D01*
X29319279Y-1772696D01*
X29320389Y-1772056D01*
X29325593Y-1766852D01*
X29360241Y-1752500D01*
X32648500Y-1752500D01*
X32683148Y-1766852D01*
X32697500Y-1801500D01*
X32697500Y-2614016D01*
X32694966Y-2620132D01*
X32695831Y-2626697D01*
X32688042Y-2636847D01*
X32683148Y-2648664D01*
X32677032Y-2651197D01*
X32673001Y-2656451D01*
X32660316Y-2658121D01*
X32648500Y-2663016D01*
X32642383Y-2660482D01*
X32635819Y-2661347D01*
X32625668Y-2653558D01*
X32613852Y-2648664D01*
X32606065Y-2638517D01*
X32593357Y-2616507D01*
X32593357Y-2616506D01*
X32590521Y-2610756D01*
X32583557Y-2593943D01*
X32583557Y-2593942D01*
X32580480Y-2590865D01*
X32572695Y-2580718D01*
X32572056Y-2579611D01*
X32520389Y-2527944D01*
X32520385Y-2527941D01*
X32520383Y-2527940D01*
X32519280Y-2527303D01*
X32513693Y-2524078D01*
X32506058Y-2516443D01*
X32486274Y-2508248D01*
X32457111Y-2491411D01*
X32457108Y-2491410D01*
X32427689Y-2483527D01*
X32427689Y-2483526D01*
X32424579Y-2482692D01*
X32404800Y-2474500D01*
X32394000Y-2474500D01*
X32387767Y-2472830D01*
X32387766Y-2472829D01*
X32387762Y-2472829D01*
X32386535Y-2472500D01*
X32386534Y-2472500D01*
X32313466Y-2472500D01*
X32313465Y-2472500D01*
X32312238Y-2472829D01*
X32306002Y-2474500D01*
X32295200Y-2474500D01*
X32275414Y-2482695D01*
X32272309Y-2483527D01*
X32272308Y-2483526D01*
X32242892Y-2491410D01*
X32242891Y-2491410D01*
X32242889Y-2491410D01*
X32242889Y-2491411D01*
X32236351Y-2495185D01*
X32216506Y-2506642D01*
X32213722Y-2508248D01*
X32193942Y-2516443D01*
X32186305Y-2524078D01*
X32180719Y-2527304D01*
X32179609Y-2527944D01*
X32174406Y-2533148D01*
X32139758Y-2547500D01*
X30260241Y-2547500D01*
X30228989Y-2536240D01*
X30227220Y-2534775D01*
X30220389Y-2527944D01*
X30215704Y-2525239D01*
X30212527Y-2522608D01*
X30212094Y-2521790D01*
X30209132Y-2519517D01*
X30206058Y-2516443D01*
X30189234Y-2509474D01*
X30183493Y-2506642D01*
X30157111Y-2491411D01*
X30157108Y-2491410D01*
X30127689Y-2483527D01*
X30127689Y-2483526D01*
X30124579Y-2482692D01*
X30104800Y-2474500D01*
X30094000Y-2474500D01*
X30087767Y-2472830D01*
X30087766Y-2472829D01*
X30087762Y-2472829D01*
X30086535Y-2472500D01*
X30086534Y-2472500D01*
X30013466Y-2472500D01*
X30013465Y-2472500D01*
X30012238Y-2472829D01*
X30006002Y-2474500D01*
X29995200Y-2474500D01*
X29975414Y-2482695D01*
X29972309Y-2483527D01*
X29972308Y-2483526D01*
X29942892Y-2491410D01*
X29942891Y-2491410D01*
X29942889Y-2491410D01*
X29942889Y-2491411D01*
X29936351Y-2495185D01*
X29916506Y-2506642D01*
X29913722Y-2508248D01*
X29893942Y-2516443D01*
X29886305Y-2524078D01*
X29880719Y-2527304D01*
X29879609Y-2527944D01*
X29827944Y-2579609D01*
X29827303Y-2580718D01*
X29827304Y-2580719D01*
X29824078Y-2586306D01*
X29816443Y-2593942D01*
X29808251Y-2613715D01*
X29806643Y-2616502D01*
X29806642Y-2616506D01*
X29791410Y-2642891D01*
X29791410Y-2642892D01*
X29783526Y-2672308D01*
X29783527Y-2672309D01*
X29782696Y-2675412D01*
X29774500Y-2695200D01*
X29774500Y-2706000D01*
X29772831Y-2712230D01*
X29772829Y-2712231D01*
X29772500Y-2713461D01*
X29772500Y-2786534D01*
X29772829Y-2787762D01*
X29772830Y-2787767D01*
X29774500Y-2794000D01*
X29774500Y-2804800D01*
X29782693Y-2824579D01*
X29783525Y-2827685D01*
X29783527Y-2827689D01*
X29791411Y-2857111D01*
X29808248Y-2886274D01*
X29816443Y-2906058D01*
X29824078Y-2913693D01*
X29827303Y-2919279D01*
X29827940Y-2920383D01*
X29827941Y-2920385D01*
X29827944Y-2920389D01*
X29879611Y-2972056D01*
X29886306Y-2975921D01*
X29893942Y-2983557D01*
X29913721Y-2991749D01*
X29916504Y-2993356D01*
X29916506Y-2993357D01*
X29942885Y-3008587D01*
X29942886Y-3008587D01*
X29942889Y-3008589D01*
X29975412Y-3017303D01*
X29995200Y-3025500D01*
X30006002Y-3025500D01*
X30012234Y-3027170D01*
X30012238Y-3027171D01*
X30013465Y-3027500D01*
X30013466Y-3027500D01*
X30086535Y-3027500D01*
X30087762Y-3027171D01*
X30087766Y-3027170D01*
X30093998Y-3025500D01*
X30104800Y-3025500D01*
X30124587Y-3017303D01*
X30157111Y-3008589D01*
X30157113Y-3008587D01*
X30157115Y-3008587D01*
X30183491Y-2993358D01*
X30183491Y-2993357D01*
X30186274Y-2991751D01*
X30206058Y-2983557D01*
X30213692Y-2975921D01*
X30219280Y-2972696D01*
X30219279Y-2972696D01*
X30220389Y-2972056D01*
X30225593Y-2966852D01*
X30260241Y-2952500D01*
X32139758Y-2952500D01*
X32171008Y-2963759D01*
X32172787Y-2965232D01*
X32179611Y-2972056D01*
X32184291Y-2974758D01*
X32187469Y-2977389D01*
X32187901Y-2978206D01*
X32190865Y-2980480D01*
X32193942Y-2983557D01*
X32210759Y-2990522D01*
X32216506Y-2993357D01*
X32242885Y-3008587D01*
X32242886Y-3008587D01*
X32242889Y-3008589D01*
X32275412Y-3017303D01*
X32295200Y-3025500D01*
X32306002Y-3025500D01*
X32312234Y-3027170D01*
X32312238Y-3027171D01*
X32313465Y-3027500D01*
X32313466Y-3027500D01*
X32386535Y-3027500D01*
X32387762Y-3027171D01*
X32387766Y-3027170D01*
X32393998Y-3025500D01*
X32404800Y-3025500D01*
X32424587Y-3017303D01*
X32457111Y-3008589D01*
X32457113Y-3008587D01*
X32457115Y-3008587D01*
X32483491Y-2993358D01*
X32483491Y-2993357D01*
X32486274Y-2991751D01*
X32506058Y-2983557D01*
X32513692Y-2975921D01*
X32519280Y-2972696D01*
X32519279Y-2972696D01*
X32520389Y-2972056D01*
X32572056Y-2920389D01*
X32575921Y-2913693D01*
X32583557Y-2906058D01*
X32591751Y-2886274D01*
X32606066Y-2861481D01*
X32635820Y-2838652D01*
X32673002Y-2843549D01*
X32695831Y-2873303D01*
X32697500Y-2885983D01*
X32697500Y-3165313D01*
X32683148Y-3199961D01*
X32658060Y-3213371D01*
X32625253Y-3219897D01*
X32583077Y-3248077D01*
X32554897Y-3290253D01*
X32547500Y-3327438D01*
X32547500Y-3802561D01*
X32554897Y-3839746D01*
X32583077Y-3881922D01*
X32602222Y-3894714D01*
X32625252Y-3910102D01*
X32662442Y-3917500D01*
X32824717Y-3917500D01*
X32859365Y-3931852D01*
X32873717Y-3966500D01*
X32872774Y-3976065D01*
X32872500Y-3977441D01*
X32872500Y-4452561D01*
X32879897Y-4489746D01*
X32908077Y-4531922D01*
X32929165Y-4546012D01*
X32950252Y-4560102D01*
X32987442Y-4567500D01*
X33462558Y-4567500D01*
X33499748Y-4560102D01*
X33541922Y-4531922D01*
X33570102Y-4489748D01*
X33577500Y-4452558D01*
X33577500Y-3977442D01*
X33577226Y-3976064D01*
X33577318Y-3975599D01*
X33577264Y-3975046D01*
X33577431Y-3975029D01*
X33584538Y-3939282D01*
X33615718Y-3918443D01*
X33625283Y-3917500D01*
X33787558Y-3917500D01*
X33824748Y-3910102D01*
X33847777Y-3894713D01*
X33884559Y-3887397D01*
X33902221Y-3894713D01*
X33925252Y-3910102D01*
X33962442Y-3917500D01*
X34437558Y-3917500D01*
X34474748Y-3910102D01*
X34516922Y-3881922D01*
X34545102Y-3839748D01*
X34552500Y-3802558D01*
X34552500Y-3327442D01*
X34545102Y-3290252D01*
X34525000Y-3260167D01*
X34516922Y-3248077D01*
X34485361Y-3226990D01*
X34474748Y-3219898D01*
X34474747Y-3219897D01*
X34474746Y-3219897D01*
X34437561Y-3212500D01*
X34437558Y-3212500D01*
X33962442Y-3212500D01*
X33962438Y-3212500D01*
X33925254Y-3219897D01*
X33925252Y-3219897D01*
X33925252Y-3219898D01*
X33912723Y-3228269D01*
X33902222Y-3235286D01*
X33865439Y-3242601D01*
X33847778Y-3235286D01*
X33842731Y-3231914D01*
X33824748Y-3219898D01*
X33824745Y-3219897D01*
X33787561Y-3212500D01*
X33787558Y-3212500D01*
X33312442Y-3212500D01*
X33312438Y-3212500D01*
X33275254Y-3219897D01*
X33275252Y-3219897D01*
X33275252Y-3219898D01*
X33262723Y-3228269D01*
X33252222Y-3235286D01*
X33215439Y-3242601D01*
X33206893Y-3240075D01*
X33202080Y-3238161D01*
X33174748Y-3219898D01*
X33137558Y-3212500D01*
X33137555Y-3212500D01*
X33133393Y-3210845D01*
X33122909Y-3200654D01*
X33110758Y-3192535D01*
X33109169Y-3187298D01*
X33106501Y-3184705D01*
X33106408Y-3178197D01*
X33102500Y-3165313D01*
X33102500Y-1509722D01*
X33102499Y-1509718D01*
X33071671Y-1435293D01*
X33071669Y-1435291D01*
X33071669Y-1435290D01*
X33052205Y-1415826D01*
X33037853Y-1381178D01*
X33052205Y-1346530D01*
X33086853Y-1332178D01*
X33087072Y-1332178D01*
X35398875Y-1349825D01*
X35433412Y-1364441D01*
X35447500Y-1398824D01*
X35447500Y-3370518D01*
X35433148Y-3405166D01*
X35398500Y-3419518D01*
X35371280Y-3411262D01*
X35367146Y-3408500D01*
X35364748Y-3406898D01*
X35364747Y-3406897D01*
X35364746Y-3406897D01*
X35327561Y-3399500D01*
X35327558Y-3399500D01*
X34852442Y-3399500D01*
X34852438Y-3399500D01*
X34815253Y-3406897D01*
X34773077Y-3435077D01*
X34744897Y-3477253D01*
X34737500Y-3514438D01*
X34737500Y-3989561D01*
X34744897Y-4026745D01*
X34744898Y-4026748D01*
X34756914Y-4044731D01*
X34760286Y-4049778D01*
X34767601Y-4086561D01*
X34760286Y-4104222D01*
X34744897Y-4127254D01*
X34737500Y-4164438D01*
X34737500Y-4326716D01*
X34723148Y-4361364D01*
X34688500Y-4375716D01*
X34678947Y-4374776D01*
X34677558Y-4374500D01*
X34202442Y-4374500D01*
X34202438Y-4374500D01*
X34165253Y-4381897D01*
X34123077Y-4410077D01*
X34094897Y-4452253D01*
X34087500Y-4489438D01*
X34087500Y-4964561D01*
X34094897Y-5001745D01*
X34094898Y-5001748D01*
X34106914Y-5019731D01*
X34110286Y-5024778D01*
X34117601Y-5061561D01*
X34110286Y-5079222D01*
X34094897Y-5102254D01*
X34087500Y-5139438D01*
X34087500Y-5614561D01*
X34094897Y-5651745D01*
X34094898Y-5651748D01*
X34105393Y-5667454D01*
X34110286Y-5674778D01*
X34117601Y-5711561D01*
X34110286Y-5729222D01*
X34094897Y-5752254D01*
X34087500Y-5789438D01*
X34087500Y-6264561D01*
X34094897Y-6301745D01*
X34094898Y-6301748D01*
X34104717Y-6316443D01*
X34110286Y-6324778D01*
X34117601Y-6361561D01*
X34110286Y-6379222D01*
X34094897Y-6402254D01*
X34087500Y-6439438D01*
X34087500Y-6914561D01*
X34094897Y-6951746D01*
X34094897Y-6951747D01*
X34094898Y-6951748D01*
X34098168Y-6956642D01*
X34123077Y-6993922D01*
X34132174Y-7000000D01*
X34165252Y-7022102D01*
X34202442Y-7029500D01*
X34677558Y-7029500D01*
X34678935Y-7029226D01*
X34679400Y-7029318D01*
X34679954Y-7029264D01*
X34679970Y-7029431D01*
X34715718Y-7036538D01*
X34736557Y-7067718D01*
X34737500Y-7077283D01*
X34737500Y-7239561D01*
X34744468Y-7274587D01*
X34744898Y-7276748D01*
X34756914Y-7294731D01*
X34760286Y-7299778D01*
X34767601Y-7336561D01*
X34760286Y-7354222D01*
X34759062Y-7356054D01*
X34749485Y-7370388D01*
X34744897Y-7377254D01*
X34737500Y-7414438D01*
X34737500Y-7889561D01*
X34744897Y-7926746D01*
X34773077Y-7968922D01*
X34794165Y-7983012D01*
X34815252Y-7997102D01*
X34852442Y-8004500D01*
X35327558Y-8004500D01*
X35364748Y-7997102D01*
X35406922Y-7968922D01*
X35435102Y-7926748D01*
X35442500Y-7889558D01*
X35442500Y-7414442D01*
X35435102Y-7377252D01*
X35419713Y-7354222D01*
X35412397Y-7317441D01*
X35419714Y-7299777D01*
X35419899Y-7299500D01*
X35435102Y-7276748D01*
X35442500Y-7239558D01*
X35442500Y-6764442D01*
X35435102Y-6727252D01*
X35419713Y-6704222D01*
X35412397Y-6667441D01*
X35419714Y-6649777D01*
X35435102Y-6626748D01*
X35442500Y-6589558D01*
X35442500Y-6114442D01*
X35435102Y-6077252D01*
X35419713Y-6054222D01*
X35412397Y-6017441D01*
X35414030Y-6011328D01*
X35416106Y-6005176D01*
X35435102Y-5976748D01*
X35442500Y-5939558D01*
X35442500Y-5937438D01*
X36022500Y-5937438D01*
X36022500Y-6762561D01*
X36029897Y-6799746D01*
X36058077Y-6841922D01*
X36073907Y-6852499D01*
X36100252Y-6870102D01*
X36137442Y-6877500D01*
X37362558Y-6877500D01*
X37399748Y-6870102D01*
X37441922Y-6841922D01*
X37470102Y-6799748D01*
X37477500Y-6762558D01*
X37477500Y-5937442D01*
X37470102Y-5900252D01*
X37456012Y-5879165D01*
X37441922Y-5858077D01*
X37410361Y-5836990D01*
X37399748Y-5829898D01*
X37399747Y-5829897D01*
X37399746Y-5829897D01*
X37362561Y-5822500D01*
X37362558Y-5822500D01*
X36137442Y-5822500D01*
X36137438Y-5822500D01*
X36100253Y-5829897D01*
X36058077Y-5858077D01*
X36029897Y-5900253D01*
X36022500Y-5937438D01*
X35442500Y-5937438D01*
X35442500Y-5464442D01*
X35440352Y-5453645D01*
X35447667Y-5416864D01*
X35478848Y-5396027D01*
X35515631Y-5403342D01*
X35523058Y-5409437D01*
X35535290Y-5421669D01*
X35535291Y-5421669D01*
X35535293Y-5421671D01*
X35609720Y-5452500D01*
X35709720Y-5452500D01*
X36123360Y-5452500D01*
X36153553Y-5465006D01*
X36154065Y-5464241D01*
X36157915Y-5466813D01*
X36158008Y-5466852D01*
X36158078Y-5466922D01*
X36200252Y-5495102D01*
X36237442Y-5502500D01*
X37262558Y-5502500D01*
X37299748Y-5495102D01*
X37341922Y-5466922D01*
X37370102Y-5424748D01*
X37377500Y-5387558D01*
X37377500Y-5112442D01*
X37370102Y-5075252D01*
X37349168Y-5043922D01*
X37341922Y-5033077D01*
X37310361Y-5011990D01*
X37299748Y-5004898D01*
X37299747Y-5004897D01*
X37299746Y-5004897D01*
X37262561Y-4997500D01*
X37262558Y-4997500D01*
X36237442Y-4997500D01*
X36237438Y-4997500D01*
X36200253Y-5004897D01*
X36158079Y-5033076D01*
X36158013Y-5033143D01*
X36157926Y-5033178D01*
X36154065Y-5035759D01*
X36153552Y-5034991D01*
X36123367Y-5047500D01*
X36001500Y-5047500D01*
X35966852Y-5033148D01*
X35952500Y-4998500D01*
X35952500Y-4145444D01*
X35966852Y-4110796D01*
X36001500Y-4096444D01*
X36036148Y-4110796D01*
X36042237Y-4118215D01*
X36058078Y-4141922D01*
X36100252Y-4170102D01*
X36137442Y-4177500D01*
X37362558Y-4177500D01*
X37399748Y-4170102D01*
X37441922Y-4141922D01*
X37470102Y-4099748D01*
X37477500Y-4062558D01*
X37477500Y-3237442D01*
X37470102Y-3200252D01*
X37455365Y-3178197D01*
X37441922Y-3158077D01*
X37410361Y-3136990D01*
X37399748Y-3129898D01*
X37399747Y-3129897D01*
X37399746Y-3129897D01*
X37362561Y-3122500D01*
X37362558Y-3122500D01*
X36137442Y-3122500D01*
X36137438Y-3122500D01*
X36100253Y-3129897D01*
X36058077Y-3158077D01*
X36042242Y-3181778D01*
X36011060Y-3202613D01*
X35974277Y-3195297D01*
X35953442Y-3164115D01*
X35952500Y-3154555D01*
X35952500Y-1150825D01*
X35952802Y-1111267D01*
X35952500Y-1110521D01*
X35952500Y-1109720D01*
X35937460Y-1073411D01*
X35937318Y-1073065D01*
X35936753Y-1071671D01*
X35922542Y-1036607D01*
X35922539Y-1036604D01*
X35922002Y-1035786D01*
X35922001Y-1035784D01*
X35921996Y-1035776D01*
X35921693Y-1035315D01*
X35893923Y-1007545D01*
X35893659Y-1007280D01*
X35866011Y-979207D01*
X35865241Y-978684D01*
X35865171Y-978637D01*
X35864734Y-978340D01*
X35828437Y-963305D01*
X35828093Y-963161D01*
X35791820Y-947811D01*
X35790859Y-947612D01*
X35790318Y-947500D01*
X35790280Y-947500D01*
X35760382Y-947500D01*
X35741631Y-943770D01*
X35719811Y-934732D01*
X35690281Y-922500D01*
X35690280Y-922500D01*
X34729370Y-922500D01*
X34720367Y-918770D01*
X34710623Y-918772D01*
X34703728Y-911878D01*
X34694722Y-908148D01*
X34690993Y-899145D01*
X34684102Y-892256D01*
X34684100Y-882507D01*
X34680370Y-873500D01*
X34684098Y-854753D01*
X34690520Y-839245D01*
X34693358Y-833491D01*
X34708587Y-807115D01*
X34708587Y-807113D01*
X34708589Y-807111D01*
X34717303Y-774587D01*
X34725500Y-754800D01*
X34725500Y-743998D01*
X34727500Y-736534D01*
X34727500Y-663466D01*
X34727500Y-663464D01*
X34727499Y-663461D01*
X34727170Y-662232D01*
X34727170Y-662233D01*
X34727169Y-662232D01*
X34725500Y-656001D01*
X34725500Y-645200D01*
X34717303Y-625412D01*
X34708589Y-592889D01*
X34708587Y-592885D01*
X34693357Y-566506D01*
X34691750Y-563722D01*
X34683557Y-543942D01*
X34675921Y-536306D01*
X34672056Y-529611D01*
X34620389Y-477944D01*
X34620385Y-477941D01*
X34620383Y-477940D01*
X34619280Y-477303D01*
X34613693Y-474078D01*
X34606058Y-466443D01*
X34586274Y-458248D01*
X34557111Y-441411D01*
X34557108Y-441410D01*
X34527689Y-433527D01*
X34527689Y-433526D01*
X34524579Y-432692D01*
X34504800Y-424500D01*
X34494000Y-424500D01*
X34487767Y-422830D01*
X34487766Y-422829D01*
X34487762Y-422829D01*
X34486535Y-422500D01*
X34486534Y-422500D01*
X34413466Y-422500D01*
X34413465Y-422500D01*
X34412238Y-422829D01*
X34406002Y-424500D01*
X34395200Y-424500D01*
X34375414Y-432695D01*
X34372309Y-433527D01*
X34372308Y-433526D01*
X34342892Y-441410D01*
X34342891Y-441410D01*
X34342889Y-441410D01*
X34342889Y-441411D01*
X34336351Y-445185D01*
X34316506Y-456642D01*
X34313722Y-458248D01*
X34293942Y-466443D01*
X34286305Y-474078D01*
X34280719Y-477304D01*
X34279609Y-477944D01*
X34274406Y-483148D01*
X34239758Y-497500D01*
X26049000Y-497500D01*
X26014352Y-483148D01*
X26000000Y-448500D01*
X26000000Y-299500D01*
X26014352Y-264852D01*
X26049000Y-250500D01*
X37700500Y-250500D01*
X37735148Y-264852D01*
G37*
%TD.AperFunction*%
%TA.AperFunction,Conductor*%
G36*
X29053638Y-5994073D02*
G01*
X29058562Y-5993094D01*
X29070445Y-6001035D01*
X29083648Y-6006504D01*
X29089743Y-6013931D01*
X29093077Y-6018922D01*
X29105167Y-6027000D01*
X29135252Y-6047102D01*
X29172442Y-6054500D01*
X29647558Y-6054500D01*
X29648935Y-6054226D01*
X29649400Y-6054318D01*
X29649954Y-6054264D01*
X29649970Y-6054431D01*
X29685718Y-6061538D01*
X29706557Y-6092718D01*
X29707500Y-6102283D01*
X29707500Y-6264561D01*
X29714897Y-6301745D01*
X29714898Y-6301748D01*
X29724717Y-6316443D01*
X29730286Y-6324778D01*
X29737601Y-6361561D01*
X29730286Y-6379222D01*
X29714897Y-6402254D01*
X29707500Y-6439438D01*
X29707500Y-6914561D01*
X29714897Y-6951746D01*
X29714897Y-6951747D01*
X29714898Y-6951748D01*
X29718168Y-6956642D01*
X29743077Y-6993922D01*
X29752174Y-7000000D01*
X29785252Y-7022102D01*
X29822442Y-7029500D01*
X30297558Y-7029500D01*
X30334748Y-7022102D01*
X30376922Y-6993922D01*
X30405102Y-6951748D01*
X30412500Y-6914558D01*
X30412500Y-6773241D01*
X30419392Y-6756601D01*
X30425739Y-6739743D01*
X30426522Y-6739387D01*
X30426852Y-6738593D01*
X30443492Y-6731700D01*
X30459900Y-6724267D01*
X30460686Y-6724577D01*
X30461500Y-6724241D01*
X30494998Y-6737480D01*
X30495582Y-6738027D01*
X30529611Y-6772056D01*
X30535602Y-6775514D01*
X30539717Y-6779369D01*
X30539876Y-6779722D01*
X30540865Y-6780480D01*
X30543942Y-6783557D01*
X30543943Y-6783557D01*
X30543946Y-6783560D01*
X30547955Y-6786239D01*
X30547546Y-6786851D01*
X30556358Y-6792736D01*
X30585293Y-6821671D01*
X30659720Y-6852500D01*
X30882673Y-6852500D01*
X30917321Y-6866852D01*
X30931673Y-6901500D01*
X30930731Y-6911059D01*
X30922500Y-6952436D01*
X30922500Y-7427558D01*
X30922774Y-7428935D01*
X30922681Y-7429400D01*
X30922736Y-7429954D01*
X30922568Y-7429970D01*
X30915462Y-7465718D01*
X30884282Y-7486557D01*
X30874717Y-7487500D01*
X30712438Y-7487500D01*
X30675254Y-7494897D01*
X30675252Y-7494897D01*
X30675252Y-7494898D01*
X30662723Y-7503269D01*
X30652222Y-7510286D01*
X30615439Y-7517601D01*
X30597778Y-7510286D01*
X30592731Y-7506914D01*
X30574748Y-7494898D01*
X30574745Y-7494897D01*
X30537561Y-7487500D01*
X30537558Y-7487500D01*
X30062442Y-7487500D01*
X30062438Y-7487500D01*
X30025253Y-7494897D01*
X29983077Y-7523077D01*
X29954897Y-7565253D01*
X29947500Y-7602438D01*
X29947500Y-8077559D01*
X29949764Y-8088939D01*
X29942449Y-8125722D01*
X29911267Y-8146558D01*
X29901706Y-8147500D01*
X26049000Y-8147500D01*
X26014352Y-8133148D01*
X26000000Y-8098500D01*
X26000000Y-7451500D01*
X26014352Y-7416852D01*
X26049000Y-7402500D01*
X28189758Y-7402500D01*
X28221008Y-7413759D01*
X28222787Y-7415232D01*
X28229611Y-7422056D01*
X28234291Y-7424758D01*
X28237469Y-7427389D01*
X28237901Y-7428206D01*
X28240865Y-7430480D01*
X28243942Y-7433557D01*
X28260759Y-7440522D01*
X28266506Y-7443357D01*
X28292885Y-7458587D01*
X28292886Y-7458587D01*
X28292889Y-7458589D01*
X28325412Y-7467303D01*
X28345200Y-7475500D01*
X28356002Y-7475500D01*
X28362234Y-7477170D01*
X28362238Y-7477171D01*
X28363465Y-7477500D01*
X28363466Y-7477500D01*
X28436535Y-7477500D01*
X28437762Y-7477171D01*
X28437766Y-7477170D01*
X28443998Y-7475500D01*
X28454800Y-7475500D01*
X28474587Y-7467303D01*
X28507111Y-7458589D01*
X28507113Y-7458587D01*
X28507115Y-7458587D01*
X28533491Y-7443358D01*
X28533491Y-7443357D01*
X28536274Y-7441751D01*
X28556058Y-7433557D01*
X28563692Y-7425921D01*
X28569280Y-7422696D01*
X28569279Y-7422696D01*
X28570389Y-7422056D01*
X28578007Y-7414438D01*
X29057500Y-7414438D01*
X29057500Y-7889561D01*
X29064897Y-7926746D01*
X29093077Y-7968922D01*
X29114165Y-7983012D01*
X29135252Y-7997102D01*
X29172442Y-8004500D01*
X29647558Y-8004500D01*
X29684748Y-7997102D01*
X29726922Y-7968922D01*
X29755102Y-7926748D01*
X29762500Y-7889558D01*
X29762500Y-7414442D01*
X29755102Y-7377252D01*
X29729706Y-7339244D01*
X29726922Y-7335077D01*
X29695361Y-7313990D01*
X29684748Y-7306898D01*
X29684747Y-7306897D01*
X29684746Y-7306897D01*
X29647561Y-7299500D01*
X29647558Y-7299500D01*
X29172442Y-7299500D01*
X29172438Y-7299500D01*
X29135253Y-7306897D01*
X29093077Y-7335077D01*
X29064897Y-7377253D01*
X29057500Y-7414438D01*
X28578007Y-7414438D01*
X28622056Y-7370389D01*
X28624882Y-7365491D01*
X28627704Y-7362153D01*
X28628467Y-7361758D01*
X28630484Y-7359130D01*
X28633557Y-7356058D01*
X28634318Y-7354222D01*
X28640521Y-7339244D01*
X28643358Y-7333491D01*
X28658587Y-7307115D01*
X28658587Y-7307113D01*
X28658589Y-7307111D01*
X28667303Y-7274587D01*
X28675500Y-7254800D01*
X28675500Y-7243998D01*
X28677500Y-7236534D01*
X28677500Y-7163466D01*
X28677500Y-7163464D01*
X28677499Y-7163461D01*
X28677170Y-7162232D01*
X28677170Y-7162233D01*
X28677169Y-7162232D01*
X28675500Y-7156001D01*
X28675500Y-7145200D01*
X28667303Y-7125412D01*
X28658589Y-7092889D01*
X28658587Y-7092885D01*
X28647395Y-7073500D01*
X28645725Y-7060818D01*
X28640830Y-7049000D01*
X28643364Y-7042882D01*
X28642500Y-7036318D01*
X28650286Y-7026170D01*
X28655182Y-7014352D01*
X28661299Y-7011818D01*
X28665330Y-7006565D01*
X28689830Y-7000000D01*
X28714883Y-7000000D01*
X28739381Y-7006564D01*
X28741197Y-7007612D01*
X28742889Y-7008589D01*
X28775412Y-7017303D01*
X28795200Y-7025500D01*
X28806002Y-7025500D01*
X28812234Y-7027170D01*
X28812238Y-7027171D01*
X28813465Y-7027500D01*
X28813466Y-7027500D01*
X28886535Y-7027500D01*
X28887762Y-7027171D01*
X28887766Y-7027170D01*
X28893998Y-7025500D01*
X28904800Y-7025500D01*
X28924587Y-7017303D01*
X28957111Y-7008589D01*
X28958802Y-7007612D01*
X28960619Y-7006564D01*
X28985117Y-7000000D01*
X29000000Y-7000000D01*
X29008390Y-6991609D01*
X29014352Y-6977217D01*
X29019171Y-6972991D01*
X29020387Y-6972057D01*
X29020386Y-6972057D01*
X29020389Y-6972056D01*
X29072056Y-6920389D01*
X29075921Y-6913693D01*
X29083557Y-6906058D01*
X29091751Y-6886274D01*
X29096817Y-6877500D01*
X29108587Y-6857115D01*
X29108587Y-6857113D01*
X29108589Y-6857111D01*
X29117303Y-6824587D01*
X29125500Y-6804800D01*
X29125500Y-6793998D01*
X29127500Y-6786534D01*
X29127500Y-6713466D01*
X29127500Y-6713464D01*
X29127499Y-6713461D01*
X29127170Y-6712232D01*
X29127170Y-6712233D01*
X29127169Y-6712232D01*
X29125500Y-6706001D01*
X29125500Y-6695200D01*
X29117303Y-6675412D01*
X29108589Y-6642889D01*
X29108587Y-6642885D01*
X29093357Y-6616506D01*
X29091750Y-6613722D01*
X29083557Y-6593942D01*
X29075921Y-6586306D01*
X29072056Y-6579611D01*
X29020389Y-6527944D01*
X29020386Y-6527942D01*
X29020381Y-6527937D01*
X29019163Y-6527002D01*
X29018776Y-6526332D01*
X29018118Y-6525674D01*
X29018294Y-6525497D01*
X29000418Y-6494520D01*
X29000000Y-6488134D01*
X29000000Y-6041152D01*
X29001921Y-6036513D01*
X29000942Y-6031590D01*
X29008883Y-6019706D01*
X29014352Y-6006504D01*
X29018989Y-6004582D01*
X29021779Y-6000409D01*
X29035795Y-5997621D01*
X29049000Y-5992152D01*
X29053638Y-5994073D01*
G37*
%TD.AperFunction*%
%TD*%
M02*
