%TF.GenerationSoftware,KiCad,Pcbnew,9.0.8-9.0.8~ubuntu24.04.1*%
%TF.CreationDate,2026-06-29T20:47:28-04:00*%
%TF.ProjectId,ring,72696e67-2e6b-4696-9361-645f70636258,rev?*%
%TF.SameCoordinates,Original*%
%TF.FileFunction,Drillmap*%
%TF.FilePolarity,Positive*%
%FSLAX45Y45*%
G04 Gerber Fmt 4.5, Leading zero omitted, Abs format (unit mm)*
G04 Created by KiCad (PCBNEW 9.0.8-9.0.8~ubuntu24.04.1) date 2026-06-29 20:47:28*
%MOMM*%
%LPD*%
G01*
G04 APERTURE LIST*
%ADD10C,0.050000*%
%ADD11C,0.200000*%
%ADD12C,0.100000*%
G04 APERTURE END LIST*
D10*
X0Y0D02*
X3800000Y0D01*
X0Y-1000000D02*
X0Y0D01*
X3800000Y0D02*
X3800000Y-1000000D01*
X3800000Y-1000000D02*
X0Y-1000000D01*
D11*
D12*
X117500Y-467500D02*
X132500Y-482500D01*
X132500Y-467500D02*
X117500Y-482500D01*
X222500Y-292500D02*
X237500Y-307500D01*
X237500Y-292500D02*
X222500Y-307500D01*
X282500Y-372500D02*
X297500Y-387500D01*
X297500Y-372500D02*
X282500Y-387500D01*
X382500Y-372500D02*
X397500Y-387500D01*
X397500Y-372500D02*
X382500Y-387500D01*
X382500Y-507500D02*
X397500Y-522500D01*
X397500Y-507500D02*
X382500Y-522500D01*
X567500Y-590000D02*
X582500Y-605000D01*
X582500Y-590000D02*
X567500Y-605000D01*
X577500Y-42500D02*
X592500Y-57500D01*
X592500Y-42500D02*
X577500Y-57500D01*
X582500Y-378040D02*
X597500Y-393040D01*
X597500Y-378040D02*
X582500Y-393040D01*
X707500Y-567500D02*
X722500Y-582500D01*
X722500Y-567500D02*
X707500Y-582500D01*
X727500Y-507500D02*
X742500Y-522500D01*
X742500Y-507500D02*
X727500Y-522500D01*
X767500Y-247500D02*
X782500Y-262500D01*
X782500Y-247500D02*
X767500Y-262500D01*
X822500Y-117500D02*
X837500Y-132500D01*
X837500Y-117500D02*
X822500Y-132500D01*
X822500Y-727500D02*
X837500Y-742500D01*
X837500Y-727500D02*
X822500Y-742500D01*
X892500Y-553140D02*
X907500Y-568140D01*
X907500Y-553140D02*
X892500Y-568140D01*
X902500Y-162500D02*
X917500Y-177500D01*
X917500Y-162500D02*
X902500Y-177500D01*
X987500Y-827340D02*
X1002500Y-842340D01*
X1002500Y-827340D02*
X987500Y-842340D01*
X1040000Y-552500D02*
X1055000Y-567500D01*
X1055000Y-552500D02*
X1040000Y-567500D01*
X1072500Y-827500D02*
X1087500Y-842500D01*
X1087500Y-827500D02*
X1072500Y-842500D01*
X1087500Y-87500D02*
X1102500Y-102500D01*
X1102500Y-87500D02*
X1087500Y-102500D01*
X1132500Y-42500D02*
X1147500Y-57500D01*
X1147500Y-42500D02*
X1132500Y-57500D01*
X1147500Y-452500D02*
X1162500Y-467500D01*
X1162500Y-452500D02*
X1147500Y-467500D01*
X1147500Y-712500D02*
X1162500Y-727500D01*
X1162500Y-712500D02*
X1147500Y-727500D01*
X1192500Y-602500D02*
X1207500Y-617500D01*
X1207500Y-602500D02*
X1192500Y-617500D01*
X1312500Y-942500D02*
X1327500Y-957500D01*
X1327500Y-942500D02*
X1312500Y-957500D01*
X1317500Y-82500D02*
X1332500Y-97500D01*
X1332500Y-82500D02*
X1317500Y-97500D01*
X1317500Y-852500D02*
X1332500Y-867500D01*
X1332500Y-852500D02*
X1317500Y-867500D01*
X1322500Y-730000D02*
X1337500Y-745000D01*
X1337500Y-730000D02*
X1322500Y-745000D01*
X1352500Y-425780D02*
X1367500Y-440780D01*
X1367500Y-425780D02*
X1352500Y-440780D01*
X1382500Y-842500D02*
X1397500Y-857500D01*
X1397500Y-842500D02*
X1382500Y-857500D01*
X1432500Y-632500D02*
X1447500Y-647500D01*
X1447500Y-632500D02*
X1432500Y-647500D01*
X1452500Y-322500D02*
X1467500Y-337500D01*
X1467500Y-322500D02*
X1452500Y-337500D01*
X1477500Y-477500D02*
X1492500Y-492500D01*
X1492500Y-477500D02*
X1477500Y-492500D01*
X1477500Y-577500D02*
X1492500Y-592500D01*
X1492500Y-577500D02*
X1477500Y-592500D01*
X1532500Y-477500D02*
X1547500Y-492500D01*
X1547500Y-477500D02*
X1532500Y-492500D01*
X1577500Y-142500D02*
X1592500Y-157500D01*
X1592500Y-142500D02*
X1577500Y-157500D01*
X1577500Y-327500D02*
X1592500Y-342500D01*
X1592500Y-327500D02*
X1577500Y-342500D01*
X1577500Y-682500D02*
X1592500Y-697500D01*
X1592500Y-682500D02*
X1577500Y-697500D01*
X1612500Y-452500D02*
X1627500Y-467500D01*
X1627500Y-452500D02*
X1612500Y-467500D01*
X1612500Y-617970D02*
X1627500Y-632970D01*
X1627500Y-617970D02*
X1612500Y-632970D01*
X1667500Y-37500D02*
X1682500Y-52500D01*
X1682500Y-37500D02*
X1667500Y-52500D01*
X1697500Y-757500D02*
X1712500Y-772500D01*
X1712500Y-757500D02*
X1697500Y-772500D01*
X1712500Y-457970D02*
X1727500Y-472970D01*
X1727500Y-457970D02*
X1712500Y-472970D01*
X1712500Y-552500D02*
X1727500Y-567500D01*
X1727500Y-552500D02*
X1712500Y-567500D01*
X1822500Y-142500D02*
X1837500Y-157500D01*
X1837500Y-142500D02*
X1822500Y-157500D01*
X1822500Y-562500D02*
X1837500Y-577500D01*
X1837500Y-562500D02*
X1822500Y-577500D01*
X2452500Y-82500D02*
X2467500Y-97500D01*
X2467500Y-82500D02*
X2452500Y-97500D01*
X2452500Y-712500D02*
X2467500Y-727500D01*
X2467500Y-712500D02*
X2452500Y-727500D01*
X2497500Y-917500D02*
X2512500Y-932500D01*
X2512500Y-917500D02*
X2497500Y-932500D01*
X2532500Y-37500D02*
X2547500Y-52500D01*
X2547500Y-37500D02*
X2532500Y-52500D01*
X2542500Y-272500D02*
X2557500Y-287500D01*
X2557500Y-272500D02*
X2542500Y-287500D01*
X2542500Y-352500D02*
X2557500Y-367500D01*
X2557500Y-352500D02*
X2542500Y-367500D01*
X2542500Y-407500D02*
X2557500Y-422500D01*
X2557500Y-407500D02*
X2542500Y-422500D01*
X2542500Y-562500D02*
X2557500Y-577500D01*
X2557500Y-562500D02*
X2542500Y-577500D01*
X2632500Y-562500D02*
X2647500Y-577500D01*
X2647500Y-562500D02*
X2632500Y-577500D01*
X2751500Y-475800D02*
X2766500Y-490800D01*
X2766500Y-475800D02*
X2751500Y-490800D01*
X2807500Y-612500D02*
X2822500Y-627500D01*
X2822500Y-612500D02*
X2807500Y-627500D01*
X2812500Y-342500D02*
X2827500Y-357500D01*
X2827500Y-342500D02*
X2812500Y-357500D01*
X2832500Y-712500D02*
X2847500Y-727500D01*
X2847500Y-712500D02*
X2832500Y-727500D01*
X2877500Y-667500D02*
X2892500Y-682500D01*
X2892500Y-667500D02*
X2877500Y-682500D01*
X2907500Y-147500D02*
X2922500Y-162500D01*
X2922500Y-147500D02*
X2907500Y-162500D01*
X2926920Y-669960D02*
X2941920Y-684960D01*
X2941920Y-669960D02*
X2926920Y-684960D01*
X2933500Y-497700D02*
X2948500Y-512700D01*
X2948500Y-497700D02*
X2933500Y-512700D01*
X2933500Y-562700D02*
X2948500Y-577700D01*
X2948500Y-562700D02*
X2933500Y-577700D01*
X2933500Y-757700D02*
X2948500Y-772700D01*
X2948500Y-757700D02*
X2933500Y-772700D01*
X2997500Y-267500D02*
X3012500Y-282500D01*
X3012500Y-267500D02*
X2997500Y-282500D01*
X2998500Y-660200D02*
X3013500Y-675200D01*
X3013500Y-660200D02*
X2998500Y-675200D01*
X3027500Y-777500D02*
X3042500Y-792500D01*
X3042500Y-777500D02*
X3027500Y-792500D01*
X3062500Y-647500D02*
X3077500Y-662500D01*
X3077500Y-647500D02*
X3062500Y-662500D01*
X3077500Y-917500D02*
X3092500Y-932500D01*
X3092500Y-917500D02*
X3077500Y-932500D01*
X3087500Y-776500D02*
X3102500Y-791500D01*
X3102500Y-776500D02*
X3087500Y-791500D01*
X3087500Y-827500D02*
X3102500Y-842500D01*
X3102500Y-827500D02*
X3087500Y-842500D01*
X3185000Y-349000D02*
X3200000Y-364000D01*
X3200000Y-349000D02*
X3185000Y-364000D01*
X3185000Y-711500D02*
X3200000Y-726500D01*
X3200000Y-711500D02*
X3185000Y-726500D01*
X3227500Y-267500D02*
X3242500Y-282500D01*
X3242500Y-267500D02*
X3227500Y-282500D01*
X3297500Y-907500D02*
X3312500Y-922500D01*
X3312500Y-907500D02*
X3297500Y-922500D01*
X3327500Y-272500D02*
X3342500Y-287500D01*
X3342500Y-272500D02*
X3327500Y-287500D01*
X3342500Y-347500D02*
X3357500Y-362500D01*
X3357500Y-347500D02*
X3342500Y-362500D01*
X3347500Y-712500D02*
X3362500Y-727500D01*
X3362500Y-712500D02*
X3347500Y-727500D01*
X3417500Y-834800D02*
X3432500Y-849800D01*
X3432500Y-834800D02*
X3417500Y-849800D01*
X3437500Y-62500D02*
X3452500Y-77500D01*
X3452500Y-62500D02*
X3437500Y-77500D01*
X3512500Y-272500D02*
X3527500Y-287500D01*
X3527500Y-272500D02*
X3512500Y-287500D01*
X3512500Y-832500D02*
X3527500Y-847500D01*
X3527500Y-832500D02*
X3512500Y-847500D01*
X3632500Y-467500D02*
X3647500Y-482500D01*
X3647500Y-467500D02*
X3632500Y-482500D01*
D11*
X258277Y-1313984D02*
X258277Y-1113984D01*
X258277Y-1113984D02*
X305896Y-1113984D01*
X305896Y-1113984D02*
X334467Y-1123508D01*
X334467Y-1123508D02*
X353515Y-1142555D01*
X353515Y-1142555D02*
X363039Y-1161603D01*
X363039Y-1161603D02*
X372562Y-1199698D01*
X372562Y-1199698D02*
X372562Y-1228270D01*
X372562Y-1228270D02*
X363039Y-1266365D01*
X363039Y-1266365D02*
X353515Y-1285412D01*
X353515Y-1285412D02*
X334467Y-1304460D01*
X334467Y-1304460D02*
X305896Y-1313984D01*
X305896Y-1313984D02*
X258277Y-1313984D01*
X458277Y-1313984D02*
X458277Y-1180650D01*
X458277Y-1218746D02*
X467801Y-1199698D01*
X467801Y-1199698D02*
X477324Y-1190174D01*
X477324Y-1190174D02*
X496372Y-1180650D01*
X496372Y-1180650D02*
X515420Y-1180650D01*
X582086Y-1313984D02*
X582086Y-1180650D01*
X582086Y-1113984D02*
X572563Y-1123508D01*
X572563Y-1123508D02*
X582086Y-1133031D01*
X582086Y-1133031D02*
X591610Y-1123508D01*
X591610Y-1123508D02*
X582086Y-1113984D01*
X582086Y-1113984D02*
X582086Y-1133031D01*
X705896Y-1313984D02*
X686848Y-1304460D01*
X686848Y-1304460D02*
X677324Y-1285412D01*
X677324Y-1285412D02*
X677324Y-1113984D01*
X810658Y-1313984D02*
X791610Y-1304460D01*
X791610Y-1304460D02*
X782086Y-1285412D01*
X782086Y-1285412D02*
X782086Y-1113984D01*
X1039229Y-1313984D02*
X1039229Y-1113984D01*
X1039229Y-1113984D02*
X1105896Y-1256841D01*
X1105896Y-1256841D02*
X1172563Y-1113984D01*
X1172563Y-1113984D02*
X1172563Y-1313984D01*
X1353515Y-1313984D02*
X1353515Y-1209222D01*
X1353515Y-1209222D02*
X1343991Y-1190174D01*
X1343991Y-1190174D02*
X1324944Y-1180650D01*
X1324944Y-1180650D02*
X1286848Y-1180650D01*
X1286848Y-1180650D02*
X1267801Y-1190174D01*
X1353515Y-1304460D02*
X1334467Y-1313984D01*
X1334467Y-1313984D02*
X1286848Y-1313984D01*
X1286848Y-1313984D02*
X1267801Y-1304460D01*
X1267801Y-1304460D02*
X1258277Y-1285412D01*
X1258277Y-1285412D02*
X1258277Y-1266365D01*
X1258277Y-1266365D02*
X1267801Y-1247317D01*
X1267801Y-1247317D02*
X1286848Y-1237793D01*
X1286848Y-1237793D02*
X1334467Y-1237793D01*
X1334467Y-1237793D02*
X1353515Y-1228270D01*
X1448753Y-1180650D02*
X1448753Y-1380650D01*
X1448753Y-1190174D02*
X1467801Y-1180650D01*
X1467801Y-1180650D02*
X1505896Y-1180650D01*
X1505896Y-1180650D02*
X1524943Y-1190174D01*
X1524943Y-1190174D02*
X1534467Y-1199698D01*
X1534467Y-1199698D02*
X1543991Y-1218746D01*
X1543991Y-1218746D02*
X1543991Y-1275889D01*
X1543991Y-1275889D02*
X1534467Y-1294936D01*
X1534467Y-1294936D02*
X1524943Y-1304460D01*
X1524943Y-1304460D02*
X1505896Y-1313984D01*
X1505896Y-1313984D02*
X1467801Y-1313984D01*
X1467801Y-1313984D02*
X1448753Y-1304460D01*
X1629705Y-1294936D02*
X1639229Y-1304460D01*
X1639229Y-1304460D02*
X1629705Y-1313984D01*
X1629705Y-1313984D02*
X1620182Y-1304460D01*
X1620182Y-1304460D02*
X1629705Y-1294936D01*
X1629705Y-1294936D02*
X1629705Y-1313984D01*
X1629705Y-1190174D02*
X1639229Y-1199698D01*
X1639229Y-1199698D02*
X1629705Y-1209222D01*
X1629705Y-1209222D02*
X1620182Y-1199698D01*
X1620182Y-1199698D02*
X1629705Y-1190174D01*
X1629705Y-1190174D02*
X1629705Y-1209222D01*
D12*
X-17500Y-1635000D02*
X-2500Y-1650000D01*
X-2500Y-1635000D02*
X-17500Y-1650000D01*
D11*
X296372Y-1533984D02*
X315420Y-1533984D01*
X315420Y-1533984D02*
X334467Y-1543508D01*
X334467Y-1543508D02*
X343991Y-1553031D01*
X343991Y-1553031D02*
X353515Y-1572079D01*
X353515Y-1572079D02*
X363039Y-1610174D01*
X363039Y-1610174D02*
X363039Y-1657793D01*
X363039Y-1657793D02*
X353515Y-1695888D01*
X353515Y-1695888D02*
X343991Y-1714936D01*
X343991Y-1714936D02*
X334467Y-1724460D01*
X334467Y-1724460D02*
X315420Y-1733984D01*
X315420Y-1733984D02*
X296372Y-1733984D01*
X296372Y-1733984D02*
X277324Y-1724460D01*
X277324Y-1724460D02*
X267801Y-1714936D01*
X267801Y-1714936D02*
X258277Y-1695888D01*
X258277Y-1695888D02*
X248753Y-1657793D01*
X248753Y-1657793D02*
X248753Y-1610174D01*
X248753Y-1610174D02*
X258277Y-1572079D01*
X258277Y-1572079D02*
X267801Y-1553031D01*
X267801Y-1553031D02*
X277324Y-1543508D01*
X277324Y-1543508D02*
X296372Y-1533984D01*
X448753Y-1714936D02*
X458277Y-1724460D01*
X458277Y-1724460D02*
X448753Y-1733984D01*
X448753Y-1733984D02*
X439229Y-1724460D01*
X439229Y-1724460D02*
X448753Y-1714936D01*
X448753Y-1714936D02*
X448753Y-1733984D01*
X648753Y-1733984D02*
X534467Y-1733984D01*
X591610Y-1733984D02*
X591610Y-1533984D01*
X591610Y-1533984D02*
X572563Y-1562555D01*
X572563Y-1562555D02*
X553515Y-1581603D01*
X553515Y-1581603D02*
X534467Y-1591127D01*
X829705Y-1533984D02*
X734467Y-1533984D01*
X734467Y-1533984D02*
X724943Y-1629222D01*
X724943Y-1629222D02*
X734467Y-1619698D01*
X734467Y-1619698D02*
X753515Y-1610174D01*
X753515Y-1610174D02*
X801134Y-1610174D01*
X801134Y-1610174D02*
X820182Y-1619698D01*
X820182Y-1619698D02*
X829705Y-1629222D01*
X829705Y-1629222D02*
X839229Y-1648269D01*
X839229Y-1648269D02*
X839229Y-1695888D01*
X839229Y-1695888D02*
X829705Y-1714936D01*
X829705Y-1714936D02*
X820182Y-1724460D01*
X820182Y-1724460D02*
X801134Y-1733984D01*
X801134Y-1733984D02*
X753515Y-1733984D01*
X753515Y-1733984D02*
X734467Y-1724460D01*
X734467Y-1724460D02*
X724943Y-1714936D01*
X963039Y-1533984D02*
X982086Y-1533984D01*
X982086Y-1533984D02*
X1001134Y-1543508D01*
X1001134Y-1543508D02*
X1010658Y-1553031D01*
X1010658Y-1553031D02*
X1020182Y-1572079D01*
X1020182Y-1572079D02*
X1029705Y-1610174D01*
X1029705Y-1610174D02*
X1029705Y-1657793D01*
X1029705Y-1657793D02*
X1020182Y-1695888D01*
X1020182Y-1695888D02*
X1010658Y-1714936D01*
X1010658Y-1714936D02*
X1001134Y-1724460D01*
X1001134Y-1724460D02*
X982086Y-1733984D01*
X982086Y-1733984D02*
X963039Y-1733984D01*
X963039Y-1733984D02*
X943991Y-1724460D01*
X943991Y-1724460D02*
X934467Y-1714936D01*
X934467Y-1714936D02*
X924943Y-1695888D01*
X924943Y-1695888D02*
X915420Y-1657793D01*
X915420Y-1657793D02*
X915420Y-1610174D01*
X915420Y-1610174D02*
X924943Y-1572079D01*
X924943Y-1572079D02*
X934467Y-1553031D01*
X934467Y-1553031D02*
X943991Y-1543508D01*
X943991Y-1543508D02*
X963039Y-1533984D01*
X1115420Y-1733984D02*
X1115420Y-1600650D01*
X1115420Y-1619698D02*
X1124944Y-1610174D01*
X1124944Y-1610174D02*
X1143991Y-1600650D01*
X1143991Y-1600650D02*
X1172563Y-1600650D01*
X1172563Y-1600650D02*
X1191610Y-1610174D01*
X1191610Y-1610174D02*
X1201134Y-1629222D01*
X1201134Y-1629222D02*
X1201134Y-1733984D01*
X1201134Y-1629222D02*
X1210658Y-1610174D01*
X1210658Y-1610174D02*
X1229705Y-1600650D01*
X1229705Y-1600650D02*
X1258277Y-1600650D01*
X1258277Y-1600650D02*
X1277325Y-1610174D01*
X1277325Y-1610174D02*
X1286848Y-1629222D01*
X1286848Y-1629222D02*
X1286848Y-1733984D01*
X1382086Y-1733984D02*
X1382086Y-1600650D01*
X1382086Y-1619698D02*
X1391610Y-1610174D01*
X1391610Y-1610174D02*
X1410658Y-1600650D01*
X1410658Y-1600650D02*
X1439229Y-1600650D01*
X1439229Y-1600650D02*
X1458277Y-1610174D01*
X1458277Y-1610174D02*
X1467801Y-1629222D01*
X1467801Y-1629222D02*
X1467801Y-1733984D01*
X1467801Y-1629222D02*
X1477324Y-1610174D01*
X1477324Y-1610174D02*
X1496372Y-1600650D01*
X1496372Y-1600650D02*
X1524943Y-1600650D01*
X1524943Y-1600650D02*
X1543991Y-1610174D01*
X1543991Y-1610174D02*
X1553515Y-1629222D01*
X1553515Y-1629222D02*
X1553515Y-1733984D01*
X1943991Y-1524460D02*
X1772563Y-1781603D01*
X2201134Y-1533984D02*
X2220182Y-1533984D01*
X2220182Y-1533984D02*
X2239229Y-1543508D01*
X2239229Y-1543508D02*
X2248753Y-1553031D01*
X2248753Y-1553031D02*
X2258277Y-1572079D01*
X2258277Y-1572079D02*
X2267801Y-1610174D01*
X2267801Y-1610174D02*
X2267801Y-1657793D01*
X2267801Y-1657793D02*
X2258277Y-1695888D01*
X2258277Y-1695888D02*
X2248753Y-1714936D01*
X2248753Y-1714936D02*
X2239229Y-1724460D01*
X2239229Y-1724460D02*
X2220182Y-1733984D01*
X2220182Y-1733984D02*
X2201134Y-1733984D01*
X2201134Y-1733984D02*
X2182087Y-1724460D01*
X2182087Y-1724460D02*
X2172563Y-1714936D01*
X2172563Y-1714936D02*
X2163039Y-1695888D01*
X2163039Y-1695888D02*
X2153515Y-1657793D01*
X2153515Y-1657793D02*
X2153515Y-1610174D01*
X2153515Y-1610174D02*
X2163039Y-1572079D01*
X2163039Y-1572079D02*
X2172563Y-1553031D01*
X2172563Y-1553031D02*
X2182087Y-1543508D01*
X2182087Y-1543508D02*
X2201134Y-1533984D01*
X2353515Y-1714936D02*
X2363039Y-1724460D01*
X2363039Y-1724460D02*
X2353515Y-1733984D01*
X2353515Y-1733984D02*
X2343991Y-1724460D01*
X2343991Y-1724460D02*
X2353515Y-1714936D01*
X2353515Y-1714936D02*
X2353515Y-1733984D01*
X2486848Y-1533984D02*
X2505896Y-1533984D01*
X2505896Y-1533984D02*
X2524944Y-1543508D01*
X2524944Y-1543508D02*
X2534468Y-1553031D01*
X2534468Y-1553031D02*
X2543991Y-1572079D01*
X2543991Y-1572079D02*
X2553515Y-1610174D01*
X2553515Y-1610174D02*
X2553515Y-1657793D01*
X2553515Y-1657793D02*
X2543991Y-1695888D01*
X2543991Y-1695888D02*
X2534468Y-1714936D01*
X2534468Y-1714936D02*
X2524944Y-1724460D01*
X2524944Y-1724460D02*
X2505896Y-1733984D01*
X2505896Y-1733984D02*
X2486848Y-1733984D01*
X2486848Y-1733984D02*
X2467801Y-1724460D01*
X2467801Y-1724460D02*
X2458277Y-1714936D01*
X2458277Y-1714936D02*
X2448753Y-1695888D01*
X2448753Y-1695888D02*
X2439229Y-1657793D01*
X2439229Y-1657793D02*
X2439229Y-1610174D01*
X2439229Y-1610174D02*
X2448753Y-1572079D01*
X2448753Y-1572079D02*
X2458277Y-1553031D01*
X2458277Y-1553031D02*
X2467801Y-1543508D01*
X2467801Y-1543508D02*
X2486848Y-1533984D01*
X2677325Y-1533984D02*
X2696372Y-1533984D01*
X2696372Y-1533984D02*
X2715420Y-1543508D01*
X2715420Y-1543508D02*
X2724944Y-1553031D01*
X2724944Y-1553031D02*
X2734468Y-1572079D01*
X2734468Y-1572079D02*
X2743991Y-1610174D01*
X2743991Y-1610174D02*
X2743991Y-1657793D01*
X2743991Y-1657793D02*
X2734468Y-1695888D01*
X2734468Y-1695888D02*
X2724944Y-1714936D01*
X2724944Y-1714936D02*
X2715420Y-1724460D01*
X2715420Y-1724460D02*
X2696372Y-1733984D01*
X2696372Y-1733984D02*
X2677325Y-1733984D01*
X2677325Y-1733984D02*
X2658277Y-1724460D01*
X2658277Y-1724460D02*
X2648753Y-1714936D01*
X2648753Y-1714936D02*
X2639229Y-1695888D01*
X2639229Y-1695888D02*
X2629706Y-1657793D01*
X2629706Y-1657793D02*
X2629706Y-1610174D01*
X2629706Y-1610174D02*
X2639229Y-1572079D01*
X2639229Y-1572079D02*
X2648753Y-1553031D01*
X2648753Y-1553031D02*
X2658277Y-1543508D01*
X2658277Y-1543508D02*
X2677325Y-1533984D01*
X2924944Y-1533984D02*
X2829706Y-1533984D01*
X2829706Y-1533984D02*
X2820182Y-1629222D01*
X2820182Y-1629222D02*
X2829706Y-1619698D01*
X2829706Y-1619698D02*
X2848753Y-1610174D01*
X2848753Y-1610174D02*
X2896372Y-1610174D01*
X2896372Y-1610174D02*
X2915420Y-1619698D01*
X2915420Y-1619698D02*
X2924944Y-1629222D01*
X2924944Y-1629222D02*
X2934467Y-1648269D01*
X2934467Y-1648269D02*
X2934467Y-1695888D01*
X2934467Y-1695888D02*
X2924944Y-1714936D01*
X2924944Y-1714936D02*
X2915420Y-1724460D01*
X2915420Y-1724460D02*
X2896372Y-1733984D01*
X2896372Y-1733984D02*
X2848753Y-1733984D01*
X2848753Y-1733984D02*
X2829706Y-1724460D01*
X2829706Y-1724460D02*
X2820182Y-1714936D01*
X3029706Y-1733984D02*
X3067801Y-1733984D01*
X3067801Y-1733984D02*
X3086848Y-1724460D01*
X3086848Y-1724460D02*
X3096372Y-1714936D01*
X3096372Y-1714936D02*
X3115420Y-1686365D01*
X3115420Y-1686365D02*
X3124944Y-1648269D01*
X3124944Y-1648269D02*
X3124944Y-1572079D01*
X3124944Y-1572079D02*
X3115420Y-1553031D01*
X3115420Y-1553031D02*
X3105896Y-1543508D01*
X3105896Y-1543508D02*
X3086848Y-1533984D01*
X3086848Y-1533984D02*
X3048753Y-1533984D01*
X3048753Y-1533984D02*
X3029706Y-1543508D01*
X3029706Y-1543508D02*
X3020182Y-1553031D01*
X3020182Y-1553031D02*
X3010658Y-1572079D01*
X3010658Y-1572079D02*
X3010658Y-1619698D01*
X3010658Y-1619698D02*
X3020182Y-1638746D01*
X3020182Y-1638746D02*
X3029706Y-1648269D01*
X3029706Y-1648269D02*
X3048753Y-1657793D01*
X3048753Y-1657793D02*
X3086848Y-1657793D01*
X3086848Y-1657793D02*
X3105896Y-1648269D01*
X3105896Y-1648269D02*
X3115420Y-1638746D01*
X3115420Y-1638746D02*
X3124944Y-1619698D01*
X3201134Y-1533984D02*
X3201134Y-1572079D01*
X3277325Y-1533984D02*
X3277325Y-1572079D01*
X3572563Y-1810174D02*
X3563039Y-1800650D01*
X3563039Y-1800650D02*
X3543991Y-1772079D01*
X3543991Y-1772079D02*
X3534468Y-1753031D01*
X3534468Y-1753031D02*
X3524944Y-1724460D01*
X3524944Y-1724460D02*
X3515420Y-1676841D01*
X3515420Y-1676841D02*
X3515420Y-1638746D01*
X3515420Y-1638746D02*
X3524944Y-1591127D01*
X3524944Y-1591127D02*
X3534468Y-1562555D01*
X3534468Y-1562555D02*
X3543991Y-1543508D01*
X3543991Y-1543508D02*
X3563039Y-1514936D01*
X3563039Y-1514936D02*
X3572563Y-1505412D01*
X3677325Y-1619698D02*
X3658277Y-1610174D01*
X3658277Y-1610174D02*
X3648753Y-1600650D01*
X3648753Y-1600650D02*
X3639229Y-1581603D01*
X3639229Y-1581603D02*
X3639229Y-1572079D01*
X3639229Y-1572079D02*
X3648753Y-1553031D01*
X3648753Y-1553031D02*
X3658277Y-1543508D01*
X3658277Y-1543508D02*
X3677325Y-1533984D01*
X3677325Y-1533984D02*
X3715420Y-1533984D01*
X3715420Y-1533984D02*
X3734468Y-1543508D01*
X3734468Y-1543508D02*
X3743991Y-1553031D01*
X3743991Y-1553031D02*
X3753515Y-1572079D01*
X3753515Y-1572079D02*
X3753515Y-1581603D01*
X3753515Y-1581603D02*
X3743991Y-1600650D01*
X3743991Y-1600650D02*
X3734468Y-1610174D01*
X3734468Y-1610174D02*
X3715420Y-1619698D01*
X3715420Y-1619698D02*
X3677325Y-1619698D01*
X3677325Y-1619698D02*
X3658277Y-1629222D01*
X3658277Y-1629222D02*
X3648753Y-1638746D01*
X3648753Y-1638746D02*
X3639229Y-1657793D01*
X3639229Y-1657793D02*
X3639229Y-1695888D01*
X3639229Y-1695888D02*
X3648753Y-1714936D01*
X3648753Y-1714936D02*
X3658277Y-1724460D01*
X3658277Y-1724460D02*
X3677325Y-1733984D01*
X3677325Y-1733984D02*
X3715420Y-1733984D01*
X3715420Y-1733984D02*
X3734468Y-1724460D01*
X3734468Y-1724460D02*
X3743991Y-1714936D01*
X3743991Y-1714936D02*
X3753515Y-1695888D01*
X3753515Y-1695888D02*
X3753515Y-1657793D01*
X3753515Y-1657793D02*
X3743991Y-1638746D01*
X3743991Y-1638746D02*
X3734468Y-1629222D01*
X3734468Y-1629222D02*
X3715420Y-1619698D01*
X3820182Y-1533984D02*
X3943991Y-1533984D01*
X3943991Y-1533984D02*
X3877325Y-1610174D01*
X3877325Y-1610174D02*
X3905896Y-1610174D01*
X3905896Y-1610174D02*
X3924944Y-1619698D01*
X3924944Y-1619698D02*
X3934468Y-1629222D01*
X3934468Y-1629222D02*
X3943991Y-1648269D01*
X3943991Y-1648269D02*
X3943991Y-1695888D01*
X3943991Y-1695888D02*
X3934468Y-1714936D01*
X3934468Y-1714936D02*
X3924944Y-1724460D01*
X3924944Y-1724460D02*
X3905896Y-1733984D01*
X3905896Y-1733984D02*
X3848753Y-1733984D01*
X3848753Y-1733984D02*
X3829706Y-1724460D01*
X3829706Y-1724460D02*
X3820182Y-1714936D01*
X4182087Y-1733984D02*
X4182087Y-1533984D01*
X4267801Y-1733984D02*
X4267801Y-1629222D01*
X4267801Y-1629222D02*
X4258277Y-1610174D01*
X4258277Y-1610174D02*
X4239230Y-1600650D01*
X4239230Y-1600650D02*
X4210658Y-1600650D01*
X4210658Y-1600650D02*
X4191610Y-1610174D01*
X4191610Y-1610174D02*
X4182087Y-1619698D01*
X4391611Y-1733984D02*
X4372563Y-1724460D01*
X4372563Y-1724460D02*
X4363039Y-1714936D01*
X4363039Y-1714936D02*
X4353515Y-1695888D01*
X4353515Y-1695888D02*
X4353515Y-1638746D01*
X4353515Y-1638746D02*
X4363039Y-1619698D01*
X4363039Y-1619698D02*
X4372563Y-1610174D01*
X4372563Y-1610174D02*
X4391611Y-1600650D01*
X4391611Y-1600650D02*
X4420182Y-1600650D01*
X4420182Y-1600650D02*
X4439230Y-1610174D01*
X4439230Y-1610174D02*
X4448753Y-1619698D01*
X4448753Y-1619698D02*
X4458277Y-1638746D01*
X4458277Y-1638746D02*
X4458277Y-1695888D01*
X4458277Y-1695888D02*
X4448753Y-1714936D01*
X4448753Y-1714936D02*
X4439230Y-1724460D01*
X4439230Y-1724460D02*
X4420182Y-1733984D01*
X4420182Y-1733984D02*
X4391611Y-1733984D01*
X4572563Y-1733984D02*
X4553515Y-1724460D01*
X4553515Y-1724460D02*
X4543992Y-1705412D01*
X4543992Y-1705412D02*
X4543992Y-1533984D01*
X4724944Y-1724460D02*
X4705896Y-1733984D01*
X4705896Y-1733984D02*
X4667801Y-1733984D01*
X4667801Y-1733984D02*
X4648753Y-1724460D01*
X4648753Y-1724460D02*
X4639230Y-1705412D01*
X4639230Y-1705412D02*
X4639230Y-1629222D01*
X4639230Y-1629222D02*
X4648753Y-1610174D01*
X4648753Y-1610174D02*
X4667801Y-1600650D01*
X4667801Y-1600650D02*
X4705896Y-1600650D01*
X4705896Y-1600650D02*
X4724944Y-1610174D01*
X4724944Y-1610174D02*
X4734468Y-1629222D01*
X4734468Y-1629222D02*
X4734468Y-1648269D01*
X4734468Y-1648269D02*
X4639230Y-1667317D01*
X4810658Y-1724460D02*
X4829706Y-1733984D01*
X4829706Y-1733984D02*
X4867801Y-1733984D01*
X4867801Y-1733984D02*
X4886849Y-1724460D01*
X4886849Y-1724460D02*
X4896373Y-1705412D01*
X4896373Y-1705412D02*
X4896373Y-1695888D01*
X4896373Y-1695888D02*
X4886849Y-1676841D01*
X4886849Y-1676841D02*
X4867801Y-1667317D01*
X4867801Y-1667317D02*
X4839230Y-1667317D01*
X4839230Y-1667317D02*
X4820182Y-1657793D01*
X4820182Y-1657793D02*
X4810658Y-1638746D01*
X4810658Y-1638746D02*
X4810658Y-1629222D01*
X4810658Y-1629222D02*
X4820182Y-1610174D01*
X4820182Y-1610174D02*
X4839230Y-1600650D01*
X4839230Y-1600650D02*
X4867801Y-1600650D01*
X4867801Y-1600650D02*
X4886849Y-1610174D01*
X4963039Y-1810174D02*
X4972563Y-1800650D01*
X4972563Y-1800650D02*
X4991611Y-1772079D01*
X4991611Y-1772079D02*
X5001134Y-1753031D01*
X5001134Y-1753031D02*
X5010658Y-1724460D01*
X5010658Y-1724460D02*
X5020182Y-1676841D01*
X5020182Y-1676841D02*
X5020182Y-1638746D01*
X5020182Y-1638746D02*
X5010658Y-1591127D01*
X5010658Y-1591127D02*
X5001134Y-1562555D01*
X5001134Y-1562555D02*
X4991611Y-1543508D01*
X4991611Y-1543508D02*
X4972563Y-1514936D01*
X4972563Y-1514936D02*
X4963039Y-1505412D01*
M02*
